<svg width="111" height="34" viewBox="0 0 111 34" fill="none" xmlns="http://www.w3.org/2000/svg">
<g clip-path="url(#clip0_103_302)">
<path d="M2.30256 22H-0.509943L4.6108 7.45455H7.86364L12.9915 22H10.179L6.29403 10.4375H6.1804L2.30256 22ZM2.39489 16.2969H10.0653V18.4134H2.39489V16.2969ZM19.5575 11.0909V13.0795H13.2862V11.0909H19.5575ZM14.8345 8.47727H17.4055V18.7188C17.4055 19.0644 17.4576 19.3295 17.5618 19.5142C17.6707 19.6941 17.8127 19.8172 17.9879 19.8835C18.1631 19.9498 18.3572 19.983 18.5703 19.983C18.7313 19.983 18.8781 19.9711 19.0107 19.9474C19.148 19.9238 19.2521 19.9025 19.3232 19.8835L19.7564 21.8935C19.6191 21.9408 19.4226 21.9929 19.1669 22.0497C18.916 22.1065 18.6082 22.1397 18.2436 22.1491C17.5997 22.1681 17.0196 22.071 16.5036 21.858C15.9875 21.6402 15.5779 21.304 15.2749 20.8494C14.9766 20.3949 14.8298 19.8267 14.8345 19.1449V8.47727ZM24.5131 7.45455V22H21.9421V7.45455H24.5131ZM30.2962 22.2202C29.6049 22.2202 28.9822 22.0971 28.4283 21.8509C27.879 21.5999 27.4434 21.2306 27.1214 20.7429C26.8042 20.2552 26.6456 19.6539 26.6456 18.9389C26.6456 18.3234 26.7592 17.8144 26.9865 17.4119C27.2138 17.0095 27.5239 16.6875 27.9169 16.446C28.3099 16.2045 28.7526 16.0223 29.245 15.8991C29.7422 15.7713 30.2559 15.679 30.7862 15.6222C31.4254 15.5559 31.9439 15.4967 32.3416 15.4446C32.7393 15.3878 33.0282 15.3026 33.2081 15.1889C33.3928 15.0705 33.4851 14.8883 33.4851 14.642V14.5994C33.4851 14.0644 33.3265 13.6501 33.0092 13.3565C32.692 13.063 32.2351 12.9162 31.6385 12.9162C31.0088 12.9162 30.5092 13.0535 30.1399 13.3281C29.7753 13.6027 29.5291 13.9271 29.4013 14.3011L27.0007 13.9602C27.1901 13.2973 27.5026 12.7434 27.9382 12.2983C28.3738 11.8485 28.9065 11.5123 29.5362 11.2898C30.166 11.0625 30.862 10.9489 31.6243 10.9489C32.1499 10.9489 32.6731 11.0104 33.1939 11.1335C33.7147 11.2566 34.1906 11.4602 34.6214 11.7443C35.0523 12.0237 35.398 12.4048 35.6584 12.8878C35.9235 13.3707 36.0561 13.9744 36.0561 14.6989V22H33.5845V20.5014H33.4993C33.343 20.8045 33.1229 21.0885 32.8388 21.3537C32.5594 21.6141 32.2067 21.8248 31.7805 21.9858C31.3591 22.142 30.8643 22.2202 30.2962 22.2202ZM30.9638 20.331C31.4799 20.331 31.9273 20.2292 32.3061 20.0256C32.6849 19.8172 32.9761 19.5426 33.1797 19.2017C33.388 18.8608 33.4922 18.4891 33.4922 18.0866V16.8011C33.4117 16.8674 33.2744 16.929 33.0803 16.9858C32.8909 17.0426 32.6778 17.0923 32.4411 17.1349C32.2043 17.1776 31.9699 17.2154 31.7379 17.2486C31.5059 17.2817 31.3047 17.3101 31.1342 17.3338C30.7507 17.3859 30.4074 17.4711 30.1044 17.5895C29.8014 17.7079 29.5623 17.8736 29.3871 18.0866C29.2119 18.295 29.1243 18.5649 29.1243 18.8963C29.1243 19.3698 29.2971 19.7273 29.6428 19.9688C29.9884 20.2102 30.4287 20.331 30.9638 20.331ZM47.2635 13.9744L44.9197 14.2301C44.8535 13.9934 44.7375 13.7708 44.5717 13.5625C44.4107 13.3542 44.1929 13.1861 43.9183 13.0582C43.6437 12.9304 43.3075 12.8665 42.9098 12.8665C42.3748 12.8665 41.925 12.9825 41.5604 13.2145C41.2005 13.4465 41.023 13.7472 41.0277 14.1165C41.023 14.4337 41.139 14.6918 41.3757 14.8906C41.6172 15.0895 42.0149 15.2528 42.5689 15.3807L44.4297 15.7784C45.4619 16.0009 46.2289 16.3537 46.7308 16.8366C47.2375 17.3196 47.4931 17.9517 47.4979 18.733C47.4931 19.4195 47.2919 20.0256 46.8942 20.5511C46.5012 21.072 45.9543 21.4792 45.2536 21.7727C44.5528 22.0663 43.7479 22.2131 42.8388 22.2131C41.5036 22.2131 40.4287 21.9337 39.6143 21.375C38.8 20.8116 38.3146 20.0279 38.1584 19.0241L40.6655 18.7827C40.7791 19.2751 41.0206 19.6468 41.3899 19.8977C41.7592 20.1487 42.2398 20.2741 42.8317 20.2741C43.4425 20.2741 43.9325 20.1487 44.3018 19.8977C44.6759 19.6468 44.8629 19.3366 44.8629 18.9673C44.8629 18.6548 44.7422 18.3968 44.5007 18.1932C44.264 17.9896 43.8946 17.8333 43.3928 17.7244L41.532 17.3338C40.4856 17.116 39.7114 16.7491 39.2095 16.233C38.7076 15.7121 38.459 15.054 38.4638 14.2585C38.459 13.5862 38.6413 13.0038 39.0107 12.5114C39.3847 12.0142 39.9032 11.6307 40.5661 11.3608C41.2337 11.0862 42.0031 10.9489 42.8743 10.9489C44.1527 10.9489 45.1589 11.2211 45.8928 11.7656C46.6314 12.3101 47.0883 13.0464 47.2635 13.9744ZM67.1428 12.3622H64.4865C64.4107 11.9266 64.2711 11.5407 64.0675 11.2045C63.8639 10.8636 63.6106 10.5748 63.3075 10.3381C63.0045 10.1013 62.6589 9.92377 62.2706 9.8054C61.8871 9.68229 61.4728 9.62074 61.0277 9.62074C60.237 9.62074 59.5362 9.8196 58.9254 10.2173C58.3146 10.6103 57.8364 11.188 57.4908 11.9503C57.1451 12.7079 56.9723 13.6335 56.9723 14.7273C56.9723 15.84 57.1451 16.7775 57.4908 17.5398C57.8411 18.2973 58.3194 18.8703 58.9254 19.2585C59.5362 19.642 60.2346 19.8338 61.0206 19.8338C61.4562 19.8338 61.8634 19.777 62.2422 19.6634C62.6257 19.545 62.969 19.3722 63.272 19.1449C63.5798 18.9176 63.8378 18.6383 64.0462 18.3068C64.2592 17.9754 64.406 17.5966 64.4865 17.1705L67.1428 17.1847C67.0433 17.8759 66.8279 18.5246 66.4964 19.1307C66.1697 19.7367 65.7412 20.2718 65.2109 20.7358C64.6806 21.1951 64.0604 21.5549 63.3501 21.8153C62.6399 22.071 61.8516 22.1989 60.9851 22.1989C59.7067 22.1989 58.5656 21.9029 57.5618 21.3111C56.558 20.7192 55.7673 19.8646 55.1896 18.7472C54.612 17.6297 54.3232 16.2898 54.3232 14.7273C54.3232 13.16 54.6143 11.8201 55.1967 10.7074C55.7791 9.58996 56.5722 8.73532 57.576 8.14347C58.5798 7.55161 59.7161 7.25568 60.9851 7.25568C61.7947 7.25568 62.5476 7.36932 63.2436 7.59659C63.9396 7.82386 64.5599 8.15767 65.1044 8.59801C65.6489 9.03362 66.0964 9.56866 66.4467 10.2031C66.8018 10.8329 67.0339 11.5526 67.1428 12.3622ZM74.2006 22.2131C73.1353 22.2131 72.212 21.9787 71.4308 21.5099C70.6495 21.0412 70.0434 20.3854 69.6126 19.5426C69.1864 18.6998 68.9734 17.715 68.9734 16.5881C68.9734 15.4612 69.1864 14.474 69.6126 13.6264C70.0434 12.7789 70.6495 12.1207 71.4308 11.652C72.212 11.1832 73.1353 10.9489 74.2006 10.9489C75.266 10.9489 76.1893 11.1832 76.9705 11.652C77.7518 12.1207 78.3555 12.7789 78.7816 13.6264C79.2125 14.474 79.4279 15.4612 79.4279 16.5881C79.4279 17.715 79.2125 18.6998 78.7816 19.5426C78.3555 20.3854 77.7518 21.0412 76.9705 21.5099C76.1893 21.9787 75.266 22.2131 74.2006 22.2131ZM74.2148 20.1534C74.7925 20.1534 75.2754 19.9948 75.6637 19.6776C76.052 19.3556 76.3408 18.9247 76.5302 18.3849C76.7243 17.8452 76.8214 17.2438 76.8214 16.581C76.8214 15.9134 76.7243 15.3097 76.5302 14.7699C76.3408 14.2254 76.052 13.7921 75.6637 13.4702C75.2754 13.1482 74.7925 12.9872 74.2148 12.9872C73.623 12.9872 73.1306 13.1482 72.7376 13.4702C72.3493 13.7921 72.0581 14.2254 71.864 14.7699C71.6746 15.3097 71.5799 15.9134 71.5799 16.581C71.5799 17.2438 71.6746 17.8452 71.864 18.3849C72.0581 18.9247 72.3493 19.3556 72.7376 19.6776C73.1306 19.9948 73.623 20.1534 74.2148 20.1534ZM90.9833 11.0909L87.0984 22H84.2575L80.3725 11.0909H83.114L85.6211 19.1946H85.7347L88.2489 11.0909H90.9833ZM92.7624 22V11.0909H95.3335V22H92.7624ZM94.055 9.54261C93.6478 9.54261 93.2975 9.40767 93.0039 9.13778C92.7103 8.86316 92.5636 8.53409 92.5636 8.15057C92.5636 7.76231 92.7103 7.43324 93.0039 7.16335C93.2975 6.88873 93.6478 6.75142 94.055 6.75142C94.467 6.75142 94.8174 6.88873 95.1062 7.16335C95.3997 7.43324 95.5465 7.76231 95.5465 8.15057C95.5465 8.53409 95.3997 8.86316 95.1062 9.13778C94.8174 9.40767 94.467 9.54261 94.055 9.54261ZM102.026 22.1918C101.169 22.1918 100.402 21.9716 99.7244 21.5312C99.0473 21.0909 98.5123 20.4517 98.1193 19.6136C97.7263 18.7756 97.5298 17.7576 97.5298 16.5597C97.5298 15.3475 97.7287 14.3248 98.1264 13.4915C98.5289 12.6534 99.071 12.0213 99.7528 11.5952C100.435 11.1643 101.195 10.9489 102.033 10.9489C102.672 10.9489 103.197 11.0578 103.609 11.2756C104.021 11.4886 104.348 11.7467 104.589 12.0497C104.831 12.348 105.018 12.6297 105.151 12.8949H105.257V7.45455H107.835V22H105.307V20.2812H105.151C105.018 20.5464 104.826 20.8281 104.575 21.1264C104.324 21.42 103.993 21.6709 103.581 21.8793C103.169 22.0876 102.651 22.1918 102.026 22.1918ZM102.743 20.0824C103.287 20.0824 103.751 19.9356 104.135 19.642C104.518 19.3437 104.81 18.9295 105.009 18.3991C105.207 17.8688 105.307 17.2509 105.307 16.5455C105.307 15.84 105.207 15.2268 105.009 14.706C104.814 14.1851 104.526 13.7803 104.142 13.4915C103.763 13.2027 103.297 13.0582 102.743 13.0582C102.17 13.0582 101.692 13.2074 101.308 13.5057C100.925 13.804 100.636 14.2159 100.442 14.7415C100.248 15.267 100.151 15.8684 100.151 16.5455C100.151 17.2273 100.248 17.8357 100.442 18.3707C100.641 18.901 100.932 19.3201 101.315 19.6278C101.704 19.9309 102.179 20.0824 102.743 20.0824Z" fill="white"/>
</g>
<defs>
<clipPath id="clip0_103_302">
<rect width="111" height="34" fill="white"/>
</clipPath>
</defs>
</svg>
