<svg width="163" height="34" viewBox="0 0 163 34" fill="none" xmlns="http://www.w3.org/2000/svg">
<g clip-path="url(#clip0_103_298)">
<path d="M12.8849 12.3622H10.2287C10.1529 11.9266 10.0133 11.5407 9.80966 11.2045C9.60606 10.8636 9.35275 10.5748 9.04972 10.3381C8.74669 10.1013 8.40104 9.92377 8.01278 9.8054C7.62926 9.68229 7.21496 9.62074 6.76989 9.62074C5.97917 9.62074 5.27841 9.8196 4.66761 10.2173C4.05682 10.6103 3.5786 11.188 3.23295 11.9503C2.88731 12.7079 2.71449 13.6335 2.71449 14.7273C2.71449 15.84 2.88731 16.7775 3.23295 17.5398C3.58333 18.2973 4.06155 18.8703 4.66761 19.2585C5.27841 19.642 5.9768 19.8338 6.76278 19.8338C7.19839 19.8338 7.60559 19.777 7.98438 19.6634C8.3679 19.545 8.71117 19.3722 9.0142 19.1449C9.32197 18.9176 9.58002 18.6383 9.78835 18.3068C10.0014 17.9754 10.1482 17.5966 10.2287 17.1705L12.8849 17.1847C12.7855 17.8759 12.5701 18.5246 12.2386 19.1307C11.9119 19.7367 11.4834 20.2718 10.9531 20.7358C10.4228 21.1951 9.80256 21.5549 9.09233 21.8153C8.3821 22.071 7.59375 22.1989 6.72727 22.1989C5.44886 22.1989 4.30777 21.9029 3.30398 21.3111C2.30019 20.7192 1.50947 19.8646 0.931818 18.7472C0.354167 17.6297 0.0653409 16.2898 0.0653409 14.7273C0.0653409 13.16 0.356534 11.8201 0.93892 10.7074C1.52131 9.58996 2.31439 8.73532 3.31818 8.14347C4.32197 7.55161 5.45833 7.25568 6.72727 7.25568C7.53693 7.25568 8.28977 7.36932 8.9858 7.59659C9.68182 7.82386 10.3021 8.15767 10.8466 8.59801C11.3911 9.03362 11.8385 9.56866 12.1889 10.2031C12.544 10.8329 12.776 11.5526 12.8849 12.3622ZM17.7553 7.45455V22H15.1843V7.45455H17.7553ZM25.1577 22.2131C24.0923 22.2131 23.169 21.9787 22.3878 21.5099C21.6065 21.0412 21.0005 20.3854 20.5696 19.5426C20.1435 18.6998 19.9304 17.715 19.9304 16.5881C19.9304 15.4612 20.1435 14.474 20.5696 13.6264C21.0005 12.7789 21.6065 12.1207 22.3878 11.652C23.169 11.1832 24.0923 10.9489 25.1577 10.9489C26.223 10.9489 27.1463 11.1832 27.9276 11.652C28.7088 12.1207 29.3125 12.7789 29.7386 13.6264C30.1695 14.474 30.3849 15.4612 30.3849 16.5881C30.3849 17.715 30.1695 18.6998 29.7386 19.5426C29.3125 20.3854 28.7088 21.0412 27.9276 21.5099C27.1463 21.9787 26.223 22.2131 25.1577 22.2131ZM25.1719 20.1534C25.7495 20.1534 26.2325 19.9948 26.6207 19.6776C27.009 19.3556 27.2978 18.9247 27.4872 18.3849C27.6813 17.8452 27.7784 17.2438 27.7784 16.581C27.7784 15.9134 27.6813 15.3097 27.4872 14.7699C27.2978 14.2254 27.009 13.7921 26.6207 13.4702C26.2325 13.1482 25.7495 12.9872 25.1719 12.9872C24.58 12.9872 24.0876 13.1482 23.6946 13.4702C23.3063 13.7921 23.0152 14.2254 22.821 14.7699C22.6316 15.3097 22.5369 15.9134 22.5369 16.581C22.5369 17.2438 22.6316 17.8452 22.821 18.3849C23.0152 18.9247 23.3063 19.3556 23.6946 19.6776C24.0876 19.9948 24.58 20.1534 25.1719 20.1534ZM35.1381 15.608V22H32.5671V11.0909H35.0245V12.9446H35.1523C35.4033 12.3338 35.8034 11.8485 36.3526 11.4886C36.9066 11.1288 37.5908 10.9489 38.4052 10.9489C39.158 10.9489 39.8138 11.1098 40.3725 11.4318C40.936 11.7538 41.3716 12.2202 41.6793 12.831C41.9918 13.4418 42.1457 14.1828 42.141 15.054V22H39.57V15.4517C39.57 14.7225 39.3806 14.152 39.0018 13.7401C38.6277 13.3281 38.1093 13.1222 37.4464 13.1222C36.9966 13.1222 36.5965 13.2216 36.2461 13.4205C35.9004 13.6146 35.6282 13.8963 35.4293 14.2656C35.2352 14.6349 35.1381 15.0824 35.1381 15.608ZM49.5842 22.2131C48.4904 22.2131 47.5458 21.9858 46.7504 21.5312C45.9596 21.072 45.3512 20.4233 44.9251 19.5852C44.4989 18.7424 44.2859 17.7505 44.2859 16.6094C44.2859 15.4872 44.4989 14.5024 44.9251 13.6548C45.3559 12.8026 45.9573 12.1397 46.729 11.6662C47.5008 11.188 48.4076 10.9489 49.4492 10.9489C50.1216 10.9489 50.756 11.0578 51.3526 11.2756C51.954 11.4886 52.4843 11.8201 52.9435 12.2699C53.4076 12.7197 53.7721 13.2926 54.0373 13.9886C54.3024 14.6799 54.435 15.5038 54.435 16.4602V17.2486H45.4933V15.5156H51.9705C51.9658 15.0232 51.8593 14.5852 51.6509 14.2017C51.4426 13.8134 51.1514 13.508 50.7773 13.2855C50.408 13.063 49.9772 12.9517 49.4847 12.9517C48.9592 12.9517 48.4975 13.0795 48.0998 13.3352C47.7021 13.5862 47.3919 13.9176 47.1694 14.3295C46.9516 14.7367 46.8403 15.1842 46.8356 15.6719V17.1847C46.8356 17.8191 46.9516 18.3636 47.1836 18.8182C47.4156 19.268 47.7399 19.6136 48.1566 19.8551C48.5733 20.0919 49.061 20.2102 49.6197 20.2102C49.9937 20.2102 50.3323 20.1581 50.6353 20.054C50.9383 19.9451 51.2011 19.7865 51.4237 19.5781C51.6462 19.3698 51.8143 19.1117 51.9279 18.804L54.3285 19.0739C54.177 19.7083 53.8881 20.2623 53.462 20.7358C53.0406 21.2045 52.5008 21.5691 51.8427 21.8295C51.1845 22.0852 50.4317 22.2131 49.5842 22.2131ZM61.0455 9.66335V7.45455H72.6506V9.66335H68.1548V22H65.5412V9.66335H61.0455ZM78.0217 22.2131C76.9279 22.2131 75.9833 21.9858 75.1879 21.5312C74.3971 21.072 73.7887 20.4233 73.3626 19.5852C72.9364 18.7424 72.7234 17.7505 72.7234 16.6094C72.7234 15.4872 72.9364 14.5024 73.3626 13.6548C73.7934 12.8026 74.3948 12.1397 75.1665 11.6662C75.9383 11.188 76.8451 10.9489 77.8867 10.9489C78.5591 10.9489 79.1935 11.0578 79.7901 11.2756C80.3915 11.4886 80.9218 11.8201 81.381 12.2699C81.8451 12.7197 82.2096 13.2926 82.4748 13.9886C82.7399 14.6799 82.8725 15.5038 82.8725 16.4602V17.2486H73.9308V15.5156H80.408C80.4033 15.0232 80.2968 14.5852 80.0884 14.2017C79.8801 13.8134 79.5889 13.508 79.2148 13.2855C78.8455 13.063 78.4147 12.9517 77.9222 12.9517C77.3967 12.9517 76.935 13.0795 76.5373 13.3352C76.1396 13.5862 75.8294 13.9176 75.6069 14.3295C75.3891 14.7367 75.2778 15.1842 75.2731 15.6719V17.1847C75.2731 17.8191 75.3891 18.3636 75.6211 18.8182C75.8531 19.268 76.1774 19.6136 76.5941 19.8551C77.0108 20.0919 77.4985 20.2102 78.0572 20.2102C78.4312 20.2102 78.7698 20.1581 79.0728 20.054C79.3758 19.9451 79.6386 19.7865 79.8612 19.5781C80.0837 19.3698 80.2518 19.1117 80.3654 18.804L82.766 19.0739C82.6145 19.7083 82.3256 20.2623 81.8995 20.7358C81.4781 21.2045 80.9383 21.5691 80.2802 21.8295C79.622 22.0852 78.8692 22.2131 78.0217 22.2131ZM93.6697 13.9744L91.326 14.2301C91.2597 13.9934 91.1437 13.7708 90.978 13.5625C90.817 13.3542 90.5992 13.1861 90.3246 13.0582C90.05 12.9304 89.7138 12.8665 89.3161 12.8665C88.781 12.8665 88.3312 12.9825 87.9666 13.2145C87.6068 13.4465 87.4292 13.7472 87.4339 14.1165C87.4292 14.4337 87.5452 14.6918 87.782 14.8906C88.0234 15.0895 88.4212 15.2528 88.9751 15.3807L90.8359 15.7784C91.8681 16.0009 92.6352 16.3537 93.1371 16.8366C93.6437 17.3196 93.8994 17.9517 93.9041 18.733C93.8994 19.4195 93.6982 20.0256 93.3004 20.5511C92.9074 21.072 92.3606 21.4792 91.6598 21.7727C90.959 22.0663 90.1541 22.2131 89.245 22.2131C87.9098 22.2131 86.835 21.9337 86.0206 21.375C85.2062 20.8116 84.7209 20.0279 84.5646 19.0241L87.0717 18.7827C87.1854 19.2751 87.4268 19.6468 87.7962 19.8977C88.1655 20.1487 88.6461 20.2741 89.2379 20.2741C89.8487 20.2741 90.3388 20.1487 90.7081 19.8977C91.0821 19.6468 91.2692 19.3366 91.2692 18.9673C91.2692 18.6548 91.1484 18.3968 90.907 18.1932C90.6702 17.9896 90.3009 17.8333 89.799 17.7244L87.9382 17.3338C86.8918 17.116 86.1177 16.7491 85.6158 16.233C85.1139 15.7121 84.8653 15.054 84.87 14.2585C84.8653 13.5862 85.0476 13.0038 85.4169 12.5114C85.791 12.0142 86.3094 11.6307 86.9723 11.3608C87.6399 11.0862 88.4093 10.9489 89.2805 10.9489C90.5589 10.9489 91.5651 11.2211 92.299 11.7656C93.0376 12.3101 93.4946 13.0464 93.6697 13.9744ZM98.5952 7.45455V22H96.0241V7.45455H98.5952ZM104.378 22.2202C103.687 22.2202 103.064 22.0971 102.51 21.8509C101.961 21.5999 101.525 21.2306 101.203 20.7429C100.886 20.2552 100.728 19.6539 100.728 18.9389C100.728 18.3234 100.841 17.8144 101.069 17.4119C101.296 17.0095 101.606 16.6875 101.999 16.446C102.392 16.2045 102.835 16.0223 103.327 15.8991C103.824 15.7713 104.338 15.679 104.868 15.6222C105.507 15.5559 106.026 15.4967 106.424 15.4446C106.821 15.3878 107.11 15.3026 107.29 15.1889C107.475 15.0705 107.567 14.8883 107.567 14.642V14.5994C107.567 14.0644 107.408 13.6501 107.091 13.3565C106.774 13.063 106.317 12.9162 105.721 12.9162C105.091 12.9162 104.591 13.0535 104.222 13.3281C103.857 13.6027 103.611 13.9271 103.483 14.3011L101.083 13.9602C101.272 13.2973 101.585 12.7434 102.02 12.2983C102.456 11.8485 102.989 11.5123 103.618 11.2898C104.248 11.0625 104.944 10.9489 105.706 10.9489C106.232 10.9489 106.755 11.0104 107.276 11.1335C107.797 11.2566 108.273 11.4602 108.703 11.7443C109.134 12.0237 109.48 12.4048 109.74 12.8878C110.006 13.3707 110.138 13.9744 110.138 14.6989V22H107.667V20.5014H107.581C107.425 20.8045 107.205 21.0885 106.921 21.3537C106.641 21.6141 106.289 21.8248 105.863 21.9858C105.441 22.142 104.946 22.2202 104.378 22.2202ZM105.046 20.331C105.562 20.331 106.009 20.2292 106.388 20.0256C106.767 19.8172 107.058 19.5426 107.262 19.2017C107.47 18.8608 107.574 18.4891 107.574 18.0866V16.8011C107.494 16.8674 107.356 16.929 107.162 16.9858C106.973 17.0426 106.76 17.0923 106.523 17.1349C106.286 17.1776 106.052 17.2154 105.82 17.2486C105.588 17.2817 105.387 17.3101 105.216 17.3338C104.833 17.3859 104.489 17.4711 104.186 17.5895C103.883 17.7079 103.644 17.8736 103.469 18.0866C103.294 18.295 103.206 18.5649 103.206 18.8963C103.206 19.3698 103.379 19.7273 103.725 19.9688C104.07 20.2102 104.511 20.331 105.046 20.331ZM130.248 12.3622H127.592C127.516 11.9266 127.377 11.5407 127.173 11.2045C126.969 10.8636 126.716 10.5748 126.413 10.3381C126.11 10.1013 125.764 9.92377 125.376 9.8054C124.993 9.68229 124.578 9.62074 124.133 9.62074C123.342 9.62074 122.642 9.8196 122.031 10.2173C121.42 10.6103 120.942 11.188 120.596 11.9503C120.251 12.7079 120.078 13.6335 120.078 14.7273C120.078 15.84 120.251 16.7775 120.596 17.5398C120.947 18.2973 121.425 18.8703 122.031 19.2585C122.642 19.642 123.34 19.8338 124.126 19.8338C124.562 19.8338 124.969 19.777 125.348 19.6634C125.731 19.545 126.074 19.3722 126.377 19.1449C126.685 18.9176 126.943 18.6383 127.152 18.3068C127.365 17.9754 127.511 17.5966 127.592 17.1705L130.248 17.1847C130.149 17.8759 129.933 18.5246 129.602 19.1307C129.275 19.7367 128.847 20.2718 128.316 20.7358C127.786 21.1951 127.166 21.5549 126.456 21.8153C125.745 22.071 124.957 22.1989 124.091 22.1989C122.812 22.1989 121.671 21.9029 120.667 21.3111C119.663 20.7192 118.873 19.8646 118.295 18.7472C117.717 17.6297 117.429 16.2898 117.429 14.7273C117.429 13.16 117.72 11.8201 118.302 10.7074C118.885 9.58996 119.678 8.73532 120.681 8.14347C121.685 7.55161 122.822 7.25568 124.091 7.25568C124.9 7.25568 125.653 7.36932 126.349 7.59659C127.045 7.82386 127.665 8.15767 128.21 8.59801C128.754 9.03362 129.202 9.56866 129.552 10.2031C129.907 10.8329 130.139 11.5526 130.248 12.3622ZM135.687 22.2202C134.996 22.2202 134.373 22.0971 133.819 21.8509C133.27 21.5999 132.834 21.2306 132.512 20.7429C132.195 20.2552 132.036 19.6539 132.036 18.9389C132.036 18.3234 132.15 17.8144 132.377 17.4119C132.604 17.0095 132.915 16.6875 133.308 16.446C133.701 16.2045 134.143 16.0223 134.636 15.8991C135.133 15.7713 135.647 15.679 136.177 15.6222C136.816 15.5559 137.335 15.4967 137.732 15.4446C138.13 15.3878 138.419 15.3026 138.599 15.1889C138.783 15.0705 138.876 14.8883 138.876 14.642V14.5994C138.876 14.0644 138.717 13.6501 138.4 13.3565C138.083 13.063 137.626 12.9162 137.029 12.9162C136.399 12.9162 135.9 13.0535 135.531 13.3281C135.166 13.6027 134.92 13.9271 134.792 14.3011L132.391 13.9602C132.581 13.2973 132.893 12.7434 133.329 12.2983C133.764 11.8485 134.297 11.5123 134.927 11.2898C135.557 11.0625 136.253 10.9489 137.015 10.9489C137.54 10.9489 138.064 11.0104 138.585 11.1335C139.105 11.2566 139.581 11.4602 140.012 11.7443C140.443 12.0237 140.789 12.4048 141.049 12.8878C141.314 13.3707 141.447 13.9744 141.447 14.6989V22H138.975V20.5014H138.89C138.734 20.8045 138.513 21.0885 138.229 21.3537C137.95 21.6141 137.597 21.8248 137.171 21.9858C136.75 22.142 136.255 22.2202 135.687 22.2202ZM136.354 20.331C136.871 20.331 137.318 20.2292 137.697 20.0256C138.076 19.8172 138.367 19.5426 138.57 19.2017C138.779 18.8608 138.883 18.4891 138.883 18.0866V16.8011C138.802 16.8674 138.665 16.929 138.471 16.9858C138.281 17.0426 138.068 17.0923 137.832 17.1349C137.595 17.1776 137.361 17.2154 137.129 17.2486C136.897 17.2817 136.695 17.3101 136.525 17.3338C136.141 17.3859 135.798 17.4711 135.495 17.5895C135.192 17.7079 134.953 17.8736 134.778 18.0866C134.603 18.295 134.515 18.5649 134.515 18.8963C134.515 19.3698 134.688 19.7273 135.033 19.9688C135.379 20.2102 135.819 20.331 136.354 20.331ZM144.032 22V11.0909H146.525V12.9091H146.638C146.837 12.2794 147.178 11.794 147.661 11.4531C148.149 11.1075 148.705 10.9347 149.33 10.9347C149.472 10.9347 149.631 10.9418 149.806 10.956C149.986 10.9654 150.135 10.982 150.254 11.0057V13.3707C150.145 13.3329 149.972 13.2997 149.735 13.2713C149.503 13.2382 149.278 13.2216 149.06 13.2216C148.592 13.2216 148.17 13.3234 147.796 13.527C147.427 13.7259 147.136 14.0028 146.923 14.358C146.71 14.7131 146.603 15.1226 146.603 15.5866V22H144.032ZM160.584 13.9744L158.24 14.2301C158.174 13.9934 158.058 13.7708 157.892 13.5625C157.731 13.3542 157.513 13.1861 157.239 13.0582C156.964 12.9304 156.628 12.8665 156.23 12.8665C155.695 12.8665 155.245 12.9825 154.881 13.2145C154.521 13.4465 154.343 13.7472 154.348 14.1165C154.343 14.4337 154.459 14.6918 154.696 14.8906C154.938 15.0895 155.335 15.2528 155.889 15.3807L157.75 15.7784C158.782 16.0009 159.549 16.3537 160.051 16.8366C160.558 17.3196 160.813 17.9517 160.818 18.733C160.813 19.4195 160.612 20.0256 160.214 20.5511C159.821 21.072 159.275 21.4792 158.574 21.7727C157.873 22.0663 157.068 22.2131 156.159 22.2131C154.824 22.2131 153.749 21.9337 152.935 21.375C152.12 20.8116 151.635 20.0279 151.479 19.0241L153.986 18.7827C154.099 19.2751 154.341 19.6468 154.71 19.8977C155.08 20.1487 155.56 20.2741 156.152 20.2741C156.763 20.2741 157.253 20.1487 157.622 19.8977C157.996 19.6468 158.183 19.3366 158.183 18.9673C158.183 18.6548 158.063 18.3968 157.821 18.1932C157.584 17.9896 157.215 17.8333 156.713 17.7244L154.852 17.3338C153.806 17.116 153.032 16.7491 152.53 16.233C152.028 15.7121 151.779 15.054 151.784 14.2585C151.779 13.5862 151.962 13.0038 152.331 12.5114C152.705 12.0142 153.223 11.6307 153.886 11.3608C154.554 11.0862 155.323 10.9489 156.195 10.9489C157.473 10.9489 158.479 11.2211 159.213 11.7656C159.952 12.3101 160.409 13.0464 160.584 13.9744Z" fill="white"/>
</g>
<defs>
<clipPath id="clip0_103_298">
<rect width="163" height="34" fill="white"/>
</clipPath>
</defs>
</svg>
