<svg width="107" height="34" viewBox="0 0 107 34" fill="none" xmlns="http://www.w3.org/2000/svg">
<g clip-path="url(#clip0_103_300)">
<path d="M12.8849 12.3622H10.2287C10.1529 11.9266 10.0133 11.5407 9.80966 11.2045C9.60606 10.8636 9.35275 10.5748 9.04972 10.3381C8.74669 10.1013 8.40104 9.92377 8.01278 9.8054C7.62926 9.68229 7.21496 9.62074 6.76989 9.62074C5.97917 9.62074 5.27841 9.8196 4.66761 10.2173C4.05682 10.6103 3.5786 11.188 3.23295 11.9503C2.88731 12.7079 2.71449 13.6335 2.71449 14.7273C2.71449 15.84 2.88731 16.7775 3.23295 17.5398C3.58333 18.2973 4.06155 18.8703 4.66761 19.2585C5.27841 19.642 5.9768 19.8338 6.76278 19.8338C7.19839 19.8338 7.60559 19.777 7.98438 19.6634C8.3679 19.545 8.71117 19.3722 9.0142 19.1449C9.32197 18.9176 9.58002 18.6383 9.78835 18.3068C10.0014 17.9754 10.1482 17.5966 10.2287 17.1705L12.8849 17.1847C12.7855 17.8759 12.5701 18.5246 12.2386 19.1307C11.9119 19.7367 11.4834 20.2718 10.9531 20.7358C10.4228 21.1951 9.80256 21.5549 9.09233 21.8153C8.3821 22.071 7.59375 22.1989 6.72727 22.1989C5.44886 22.1989 4.30777 21.9029 3.30398 21.3111C2.30019 20.7192 1.50947 19.8646 0.931818 18.7472C0.354167 17.6297 0.0653409 16.2898 0.0653409 14.7273C0.0653409 13.16 0.356534 11.8201 0.93892 10.7074C1.52131 9.58996 2.31439 8.73532 3.31818 8.14347C4.32197 7.55161 5.45833 7.25568 6.72727 7.25568C7.53693 7.25568 8.28977 7.36932 8.9858 7.59659C9.68182 7.82386 10.3021 8.15767 10.8466 8.59801C11.3911 9.03362 11.8385 9.56866 12.1889 10.2031C12.544 10.8329 12.776 11.5526 12.8849 12.3622ZM17.7553 7.45455V22H15.1843V7.45455H17.7553ZM25.1577 22.2131C24.0923 22.2131 23.169 21.9787 22.3878 21.5099C21.6065 21.0412 21.0005 20.3854 20.5696 19.5426C20.1435 18.6998 19.9304 17.715 19.9304 16.5881C19.9304 15.4612 20.1435 14.474 20.5696 13.6264C21.0005 12.7789 21.6065 12.1207 22.3878 11.652C23.169 11.1832 24.0923 10.9489 25.1577 10.9489C26.223 10.9489 27.1463 11.1832 27.9276 11.652C28.7088 12.1207 29.3125 12.7789 29.7386 13.6264C30.1695 14.474 30.3849 15.4612 30.3849 16.5881C30.3849 17.715 30.1695 18.6998 29.7386 19.5426C29.3125 20.3854 28.7088 21.0412 27.9276 21.5099C27.1463 21.9787 26.223 22.2131 25.1577 22.2131ZM25.1719 20.1534C25.7495 20.1534 26.2325 19.9948 26.6207 19.6776C27.009 19.3556 27.2978 18.9247 27.4872 18.3849C27.6813 17.8452 27.7784 17.2438 27.7784 16.581C27.7784 15.9134 27.6813 15.3097 27.4872 14.7699C27.2978 14.2254 27.009 13.7921 26.6207 13.4702C26.2325 13.1482 25.7495 12.9872 25.1719 12.9872C24.58 12.9872 24.0876 13.1482 23.6946 13.4702C23.3063 13.7921 23.0152 14.2254 22.821 14.7699C22.6316 15.3097 22.5369 15.9134 22.5369 16.581C22.5369 17.2438 22.6316 17.8452 22.821 18.3849C23.0152 18.9247 23.3063 19.3556 23.6946 19.6776C24.0876 19.9948 24.58 20.1534 25.1719 20.1534ZM35.1381 15.608V22H32.5671V11.0909H35.0245V12.9446H35.1523C35.4033 12.3338 35.8034 11.8485 36.3526 11.4886C36.9066 11.1288 37.5908 10.9489 38.4052 10.9489C39.158 10.9489 39.8138 11.1098 40.3725 11.4318C40.936 11.7538 41.3716 12.2202 41.6793 12.831C41.9918 13.4418 42.1457 14.1828 42.141 15.054V22H39.57V15.4517C39.57 14.7225 39.3806 14.152 39.0018 13.7401C38.6277 13.3281 38.1093 13.1222 37.4464 13.1222C36.9966 13.1222 36.5965 13.2216 36.2461 13.4205C35.9004 13.6146 35.6282 13.8963 35.4293 14.2656C35.2352 14.6349 35.1381 15.0824 35.1381 15.608ZM49.5842 22.2131C48.4904 22.2131 47.5458 21.9858 46.7504 21.5312C45.9596 21.072 45.3512 20.4233 44.9251 19.5852C44.4989 18.7424 44.2859 17.7505 44.2859 16.6094C44.2859 15.4872 44.4989 14.5024 44.9251 13.6548C45.3559 12.8026 45.9573 12.1397 46.729 11.6662C47.5008 11.188 48.4076 10.9489 49.4492 10.9489C50.1216 10.9489 50.756 11.0578 51.3526 11.2756C51.954 11.4886 52.4843 11.8201 52.9435 12.2699C53.4076 12.7197 53.7721 13.2926 54.0373 13.9886C54.3024 14.6799 54.435 15.5038 54.435 16.4602V17.2486H45.4933V15.5156H51.9705C51.9658 15.0232 51.8593 14.5852 51.6509 14.2017C51.4426 13.8134 51.1514 13.508 50.7773 13.2855C50.408 13.063 49.9772 12.9517 49.4847 12.9517C48.9592 12.9517 48.4975 13.0795 48.0998 13.3352C47.7021 13.5862 47.3919 13.9176 47.1694 14.3295C46.9516 14.7367 46.8403 15.1842 46.8356 15.6719V17.1847C46.8356 17.8191 46.9516 18.3636 47.1836 18.8182C47.4156 19.268 47.7399 19.6136 48.1566 19.8551C48.5733 20.0919 49.061 20.2102 49.6197 20.2102C49.9937 20.2102 50.3323 20.1581 50.6353 20.054C50.9383 19.9451 51.2011 19.7865 51.4237 19.5781C51.6462 19.3698 51.8143 19.1117 51.9279 18.804L54.3285 19.0739C54.177 19.7083 53.8881 20.2623 53.462 20.7358C53.0406 21.2045 52.5008 21.5691 51.8427 21.8295C51.1845 22.0852 50.4317 22.2131 49.5842 22.2131ZM61.6847 22V7.45455H64.3196V19.7912H70.7259V22H61.6847ZM77.6577 22.2131C76.5923 22.2131 75.669 21.9787 74.8878 21.5099C74.1065 21.0412 73.5005 20.3854 73.0696 19.5426C72.6435 18.6998 72.4304 17.715 72.4304 16.5881C72.4304 15.4612 72.6435 14.474 73.0696 13.6264C73.5005 12.7789 74.1065 12.1207 74.8878 11.652C75.669 11.1832 76.5923 10.9489 77.6577 10.9489C78.723 10.9489 79.6463 11.1832 80.4276 11.652C81.2088 12.1207 81.8125 12.7789 82.2386 13.6264C82.6695 14.474 82.8849 15.4612 82.8849 16.5881C82.8849 17.715 82.6695 18.6998 82.2386 19.5426C81.8125 20.3854 81.2088 21.0412 80.4276 21.5099C79.6463 21.9787 78.723 22.2131 77.6577 22.2131ZM77.6719 20.1534C78.2495 20.1534 78.7325 19.9948 79.1207 19.6776C79.509 19.3556 79.7978 18.9247 79.9872 18.3849C80.1813 17.8452 80.2784 17.2438 80.2784 16.581C80.2784 15.9134 80.1813 15.3097 79.9872 14.7699C79.7978 14.2254 79.509 13.7921 79.1207 13.4702C78.7325 13.1482 78.2495 12.9872 77.6719 12.9872C77.08 12.9872 76.5876 13.1482 76.1946 13.4702C75.8063 13.7921 75.5152 14.2254 75.321 14.7699C75.1316 15.3097 75.0369 15.9134 75.0369 16.581C75.0369 17.2438 75.1316 17.8452 75.321 18.3849C75.5152 18.9247 75.8063 19.3556 76.1946 19.6776C76.5876 19.9948 77.08 20.1534 77.6719 20.1534ZM87.6381 7.45455V22H85.0671V7.45455H87.6381ZM90.282 11.0909H92.853V22.625C92.853 23.411 92.7038 24.0597 92.4055 24.571C92.1072 25.0824 91.6764 25.4635 91.1129 25.7145C90.5495 25.9654 89.8653 26.0909 89.0604 26.0909C88.9657 26.0909 88.8781 26.0885 88.7976 26.0838C88.7171 26.0838 88.6295 26.0814 88.5348 26.0767V23.9815C88.6058 23.9863 88.6697 23.9886 88.7266 23.9886C88.7834 23.9934 88.8426 23.9957 88.9041 23.9957C89.3965 23.9957 89.7493 23.875 89.9624 23.6335C90.1754 23.3968 90.282 23.0488 90.282 22.5895V11.0909ZM91.5604 9.54261C91.1484 9.54261 90.7957 9.40767 90.5021 9.13778C90.2133 8.86316 90.0689 8.53409 90.0689 8.15057C90.0689 7.76231 90.2133 7.43324 90.5021 7.16335C90.7957 6.88873 91.1484 6.75142 91.5604 6.75142C91.9676 6.75142 92.3156 6.88873 92.6044 7.16335C92.898 7.43324 93.0447 7.76231 93.0447 8.15057C93.0447 8.53409 92.898 8.86316 92.6044 9.13778C92.3156 9.40767 91.9676 9.54261 91.5604 9.54261ZM98.636 22.2202C97.9447 22.2202 97.3221 22.0971 96.7681 21.8509C96.2189 21.5999 95.7833 21.2306 95.4613 20.7429C95.1441 20.2552 94.9854 19.6539 94.9854 18.9389C94.9854 18.3234 95.0991 17.8144 95.3263 17.4119C95.5536 17.0095 95.8638 16.6875 96.2567 16.446C96.6497 16.2045 97.0924 16.0223 97.5849 15.8991C98.082 15.7713 98.5958 15.679 99.1261 15.6222C99.7653 15.5559 100.284 15.4967 100.681 15.4446C101.079 15.3878 101.368 15.3026 101.548 15.1889C101.733 15.0705 101.825 14.8883 101.825 14.642V14.5994C101.825 14.0644 101.666 13.6501 101.349 13.3565C101.032 13.063 100.575 12.9162 99.9783 12.9162C99.3486 12.9162 98.8491 13.0535 98.4798 13.3281C98.1152 13.6027 97.869 13.9271 97.7411 14.3011L95.3406 13.9602C95.5299 13.2973 95.8424 12.7434 96.2781 12.2983C96.7137 11.8485 97.2463 11.5123 97.8761 11.2898C98.5058 11.0625 99.2018 10.9489 99.9641 10.9489C100.49 10.9489 101.013 11.0104 101.534 11.1335C102.055 11.2566 102.53 11.4602 102.961 11.7443C103.392 12.0237 103.738 12.4048 103.998 12.8878C104.263 13.3707 104.396 13.9744 104.396 14.6989V22H101.924V20.5014H101.839C101.683 20.8045 101.463 21.0885 101.179 21.3537C100.899 21.6141 100.547 21.8248 100.12 21.9858C99.699 22.142 99.2042 22.2202 98.636 22.2202ZM99.3036 20.331C99.8197 20.331 100.267 20.2292 100.646 20.0256C101.025 19.8172 101.316 19.5426 101.52 19.2017C101.728 18.8608 101.832 18.4891 101.832 18.0866V16.8011C101.752 16.8674 101.614 16.929 101.42 16.9858C101.231 17.0426 101.018 17.0923 100.781 17.1349C100.544 17.1776 100.31 17.2154 100.078 17.2486C99.8458 17.2817 99.6445 17.3101 99.4741 17.3338C99.0906 17.3859 98.7473 17.4711 98.4442 17.5895C98.1412 17.7079 97.9021 17.8736 97.7269 18.0866C97.5517 18.295 97.4641 18.5649 97.4641 18.8963C97.4641 19.3698 97.637 19.7273 97.9826 19.9688C98.3282 20.2102 98.7686 20.331 99.3036 20.331Z" fill="white"/>
</g>
<defs>
<clipPath id="clip0_103_300">
<rect width="107" height="34" fill="white"/>
</clipPath>
</defs>
</svg>
