<svg width="261" height="24" viewBox="0 0 261 24" fill="none" xmlns="http://www.w3.org/2000/svg">
<path d="M1.43466 19V4.45455H10.7528V6.66335H4.0696V10.6122H10.1136V12.821H4.0696V19H1.43466ZM12.8835 19V8.09091H15.3764V9.90909H15.4901C15.6889 9.27936 16.0298 8.79403 16.5128 8.45312C17.0005 8.10748 17.5568 7.93466 18.1818 7.93466C18.3239 7.93466 18.4825 7.94176 18.6577 7.95597C18.8376 7.96544 18.9867 7.98201 19.1051 8.00568V10.3707C18.9962 10.3329 18.8234 10.2997 18.5866 10.2713C18.3546 10.2382 18.1297 10.2216 17.9119 10.2216C17.4432 10.2216 17.0218 10.3234 16.6477 10.527C16.2784 10.7259 15.9872 11.0028 15.7741 11.358C15.5611 11.7131 15.4545 12.1226 15.4545 12.5866V19H12.8835ZM23.7571 19.2202C23.0658 19.2202 22.4432 19.0971 21.8892 18.8509C21.34 18.5999 20.9044 18.2306 20.5824 17.7429C20.2652 17.2552 20.1065 16.6539 20.1065 15.9389C20.1065 15.3234 20.2202 14.8144 20.4474 14.4119C20.6747 14.0095 20.9848 13.6875 21.3778 13.446C21.7708 13.2045 22.2135 13.0223 22.706 12.8991C23.2031 12.7713 23.7169 12.679 24.2472 12.6222C24.8864 12.5559 25.4048 12.4967 25.8026 12.4446C26.2003 12.3878 26.4891 12.3026 26.669 12.1889C26.8537 12.0705 26.946 11.8883 26.946 11.642V11.5994C26.946 11.0644 26.7874 10.6501 26.4702 10.3565C26.1529 10.063 25.696 9.91619 25.0994 9.91619C24.4697 9.91619 23.9702 10.0535 23.6009 10.3281C23.2363 10.6027 22.9901 10.9271 22.8622 11.3011L20.4616 10.9602C20.651 10.2973 20.9635 9.74337 21.3991 9.2983C21.8348 8.84848 22.3674 8.51231 22.9972 8.28977C23.6269 8.0625 24.3229 7.94886 25.0852 7.94886C25.6108 7.94886 26.134 8.01042 26.6548 8.13352C27.1757 8.25663 27.6515 8.46023 28.0824 8.74432C28.5133 9.02367 28.8589 9.40483 29.1193 9.88778C29.3845 10.3707 29.517 10.9744 29.517 11.6989V19H27.0455V17.5014H26.9602C26.804 17.8045 26.5838 18.0885 26.2997 18.3537C26.0204 18.6141 25.6676 18.8248 25.2415 18.9858C24.8201 19.142 24.3253 19.2202 23.7571 19.2202ZM24.4247 17.331C24.9408 17.331 25.3883 17.2292 25.767 17.0256C26.1458 16.8172 26.437 16.5426 26.6406 16.2017C26.849 15.8608 26.9531 15.4891 26.9531 15.0866V13.8011C26.8726 13.8674 26.7353 13.929 26.5412 13.9858C26.3518 14.0426 26.1387 14.0923 25.902 14.1349C25.6652 14.1776 25.4309 14.2154 25.1989 14.2486C24.9669 14.2817 24.7656 14.3101 24.5952 14.3338C24.2116 14.3859 23.8684 14.4711 23.5653 14.5895C23.2623 14.7079 23.0232 14.8736 22.848 15.0866C22.6728 15.295 22.5852 15.5649 22.5852 15.8963C22.5852 16.3698 22.758 16.7273 23.1037 16.9688C23.4493 17.2102 23.8897 17.331 24.4247 17.331ZM32.1023 19V8.09091H34.5597V9.9446H34.6875C34.9148 9.3196 35.2912 8.83191 35.8168 8.48153C36.3423 8.12642 36.9697 7.94886 37.6989 7.94886C38.4375 7.94886 39.0601 8.12879 39.5668 8.48864C40.0781 8.84375 40.438 9.32907 40.6463 9.9446H40.7599C41.0014 9.33854 41.4086 8.85559 41.9815 8.49574C42.5592 8.13116 43.2434 7.94886 44.0341 7.94886C45.0379 7.94886 45.857 8.2661 46.4915 8.90057C47.1259 9.53504 47.4432 10.4607 47.4432 11.6776V19H44.8651V12.0753C44.8651 11.3982 44.6851 10.9034 44.3253 10.5909C43.9654 10.2737 43.5251 10.1151 43.0043 10.1151C42.384 10.1151 41.8987 10.3092 41.5483 10.6974C41.2027 11.081 41.0298 11.5805 41.0298 12.196V19H38.5085V11.9688C38.5085 11.4053 38.3381 10.9555 37.9972 10.6193C37.661 10.2831 37.2206 10.1151 36.6761 10.1151C36.3068 10.1151 35.9706 10.2098 35.6676 10.3991C35.3646 10.5838 35.1231 10.8466 34.9432 11.1875C34.7633 11.5237 34.6733 11.9167 34.6733 12.3665V19H32.1023ZM54.881 19.2131C53.7873 19.2131 52.8427 18.9858 52.0472 18.5312C51.2565 18.072 50.6481 17.4233 50.2219 16.5852C49.7958 15.7424 49.5827 14.7505 49.5827 13.6094C49.5827 12.4872 49.7958 11.5024 50.2219 10.6548C50.6528 9.80256 51.2541 9.13968 52.0259 8.66619C52.7977 8.18797 53.7044 7.94886 54.7461 7.94886C55.4184 7.94886 56.0529 8.05777 56.6495 8.27557C57.2508 8.48864 57.7811 8.82008 58.2404 9.26989C58.7044 9.7197 59.069 10.2926 59.3342 10.9886C59.5993 11.6799 59.7319 12.5038 59.7319 13.4602V14.2486H50.7901V12.5156H57.2674C57.2627 12.0232 57.1561 11.5852 56.9478 11.2017C56.7395 10.8134 56.4483 10.508 56.0742 10.2855C55.7049 10.063 55.274 9.9517 54.7816 9.9517C54.256 9.9517 53.7944 10.0795 53.3967 10.3352C52.9989 10.5862 52.6888 10.9176 52.4663 11.3295C52.2485 11.7367 52.1372 12.1842 52.1325 12.6719V14.1847C52.1325 14.8191 52.2485 15.3636 52.4805 15.8182C52.7125 16.268 53.0368 16.6136 53.4535 16.8551C53.8701 17.0919 54.3578 17.2102 54.9165 17.2102C55.2906 17.2102 55.6291 17.1581 55.9322 17.054C56.2352 16.9451 56.498 16.7865 56.7205 16.5781C56.9431 16.3698 57.1112 16.1117 57.2248 15.804L59.6254 16.0739C59.4738 16.7083 59.185 17.2623 58.7589 17.7358C58.3375 18.2045 57.7977 18.5691 57.1396 18.8295C56.4814 19.0852 55.7286 19.2131 54.881 19.2131ZM64.0998 19L61.0174 8.09091H63.6381L65.5558 15.7614H65.6552L67.6154 8.09091H70.2077L72.168 15.7188H72.2745L74.1637 8.09091H76.7915L73.7021 19H71.0245L68.979 11.6278H68.8299L66.7844 19H64.0998ZM83.0327 19.2131C81.9673 19.2131 81.044 18.9787 80.2628 18.5099C79.4815 18.0412 78.8755 17.3854 78.4446 16.5426C78.0185 15.6998 77.8054 14.715 77.8054 13.5881C77.8054 12.4612 78.0185 11.474 78.4446 10.6264C78.8755 9.77888 79.4815 9.12074 80.2628 8.65199C81.044 8.18324 81.9673 7.94886 83.0327 7.94886C84.098 7.94886 85.0213 8.18324 85.8026 8.65199C86.5838 9.12074 87.1875 9.77888 87.6136 10.6264C88.0445 11.474 88.2599 12.4612 88.2599 13.5881C88.2599 14.715 88.0445 15.6998 87.6136 16.5426C87.1875 17.3854 86.5838 18.0412 85.8026 18.5099C85.0213 18.9787 84.098 19.2131 83.0327 19.2131ZM83.0469 17.1534C83.6245 17.1534 84.1075 16.9948 84.4957 16.6776C84.884 16.3556 85.1728 15.9247 85.3622 15.3849C85.5563 14.8452 85.6534 14.2438 85.6534 13.581C85.6534 12.9134 85.5563 12.3097 85.3622 11.7699C85.1728 11.2254 84.884 10.7921 84.4957 10.4702C84.1075 10.1482 83.6245 9.98722 83.0469 9.98722C82.455 9.98722 81.9626 10.1482 81.5696 10.4702C81.1813 10.7921 80.8902 11.2254 80.696 11.7699C80.5066 12.3097 80.4119 12.9134 80.4119 13.581C80.4119 14.2438 80.5066 14.8452 80.696 15.3849C80.8902 15.9247 81.1813 16.3556 81.5696 16.6776C81.9626 16.9948 82.455 17.1534 83.0469 17.1534ZM90.4421 19V8.09091H92.935V9.90909H93.0487C93.2475 9.27936 93.5884 8.79403 94.0714 8.45312C94.5591 8.10748 95.1154 7.93466 95.7404 7.93466C95.8825 7.93466 96.0411 7.94176 96.2163 7.95597C96.3962 7.96544 96.5453 7.98201 96.6637 8.00568V10.3707C96.5548 10.3329 96.382 10.2997 96.1452 10.2713C95.9132 10.2382 95.6883 10.2216 95.4705 10.2216C95.0018 10.2216 94.5804 10.3234 94.2063 10.527C93.837 10.7259 93.5458 11.0028 93.3327 11.358C93.1197 11.7131 93.0131 12.1226 93.0131 12.5866V19H90.4421ZM100.716 15.5767L100.708 12.473H101.12L105.041 8.09091H108.045L103.223 13.4602H102.69L100.716 15.5767ZM98.3718 19V4.45455H100.943V19H98.3718ZM105.218 19L101.667 14.0355L103.4 12.2244L108.294 19H105.218ZM118.381 10.9744L116.037 11.2301C115.971 10.9934 115.855 10.7708 115.689 10.5625C115.528 10.3542 115.31 10.1861 115.036 10.0582C114.761 9.9304 114.425 9.86648 114.027 9.86648C113.492 9.86648 113.042 9.98248 112.678 10.2145C112.318 10.4465 112.14 10.7472 112.145 11.1165C112.14 11.4337 112.256 11.6918 112.493 11.8906C112.734 12.0895 113.132 12.2528 113.686 12.3807L115.547 12.7784C116.579 13.0009 117.346 13.3537 117.848 13.8366C118.355 14.3196 118.61 14.9517 118.615 15.733C118.61 16.4195 118.409 17.0256 118.011 17.5511C117.618 18.072 117.071 18.4792 116.371 18.7727C115.67 19.0663 114.865 19.2131 113.956 19.2131C112.621 19.2131 111.546 18.9337 110.732 18.375C109.917 17.8116 109.432 17.0279 109.276 16.0241L111.783 15.7827C111.896 16.2751 112.138 16.6468 112.507 16.8977C112.876 17.1487 113.357 17.2741 113.949 17.2741C114.56 17.2741 115.05 17.1487 115.419 16.8977C115.793 16.6468 115.98 16.3366 115.98 15.9673C115.98 15.6548 115.859 15.3968 115.618 15.1932C115.381 14.9896 115.012 14.8333 114.51 14.7244L112.649 14.3338C111.603 14.116 110.829 13.7491 110.327 13.233C109.825 12.7121 109.576 12.054 109.581 11.2585C109.576 10.5862 109.759 10.0038 110.128 9.51136C110.502 9.0142 111.02 8.63068 111.683 8.3608C112.351 8.08617 113.12 7.94886 113.991 7.94886C115.27 7.94886 116.276 8.22112 117.01 8.76562C117.749 9.31013 118.205 10.0464 118.381 10.9744ZM132.308 10.669V12.7855H125.76V10.669H132.308ZM140.087 19V4.45455H149.405V6.66335H142.722V10.6122H148.766V12.821H142.722V19H140.087ZM151.536 19V8.09091H154.029V9.90909H154.142C154.341 9.27936 154.682 8.79403 155.165 8.45312C155.653 8.10748 156.209 7.93466 156.834 7.93466C156.976 7.93466 157.135 7.94176 157.31 7.95597C157.49 7.96544 157.639 7.98201 157.757 8.00568V10.3707C157.649 10.3329 157.476 10.2997 157.239 10.2713C157.007 10.2382 156.782 10.2216 156.564 10.2216C156.096 10.2216 155.674 10.3234 155.3 10.527C154.931 10.7259 154.64 11.0028 154.426 11.358C154.213 11.7131 154.107 12.1226 154.107 12.5866V19H151.536ZM163.775 19.2131C162.71 19.2131 161.786 18.9787 161.005 18.5099C160.224 18.0412 159.618 17.3854 159.187 16.5426C158.761 15.6998 158.548 14.715 158.548 13.5881C158.548 12.4612 158.761 11.474 159.187 10.6264C159.618 9.77888 160.224 9.12074 161.005 8.65199C161.786 8.18324 162.71 7.94886 163.775 7.94886C164.84 7.94886 165.763 8.18324 166.545 8.65199C167.326 9.12074 167.93 9.77888 168.356 10.6264C168.787 11.474 169.002 12.4612 169.002 13.5881C169.002 14.715 168.787 15.6998 168.356 16.5426C167.93 17.3854 167.326 18.0412 166.545 18.5099C165.763 18.9787 164.84 19.2131 163.775 19.2131ZM163.789 17.1534C164.367 17.1534 164.85 16.9948 165.238 16.6776C165.626 16.3556 165.915 15.9247 166.104 15.3849C166.299 14.8452 166.396 14.2438 166.396 13.581C166.396 12.9134 166.299 12.3097 166.104 11.7699C165.915 11.2254 165.626 10.7921 165.238 10.4702C164.85 10.1482 164.367 9.98722 163.789 9.98722C163.197 9.98722 162.705 10.1482 162.312 10.4702C161.924 10.7921 161.632 11.2254 161.438 11.7699C161.249 12.3097 161.154 12.9134 161.154 13.581C161.154 14.2438 161.249 14.8452 161.438 15.3849C161.632 15.9247 161.924 16.3556 162.312 16.6776C162.705 16.9948 163.197 17.1534 163.789 17.1534ZM173.755 12.608V19H171.184V8.09091H173.642V9.9446H173.77C174.02 9.33381 174.421 8.84848 174.97 8.48864C175.524 8.12879 176.208 7.94886 177.022 7.94886C177.775 7.94886 178.431 8.10985 178.99 8.43182C179.553 8.75379 179.989 9.22017 180.297 9.83097C180.609 10.4418 180.763 11.1828 180.758 12.054V19H178.187V12.4517C178.187 11.7225 177.998 11.152 177.619 10.7401C177.245 10.3281 176.726 10.1222 176.064 10.1222C175.614 10.1222 175.214 10.2216 174.863 10.4205C174.518 10.6146 174.245 10.8963 174.047 11.2656C173.852 11.6349 173.755 12.0824 173.755 12.608ZM188.819 8.09091V10.0795H182.548V8.09091H188.819ZM184.096 5.47727H186.667V15.7188C186.667 16.0644 186.719 16.3295 186.824 16.5142C186.932 16.6941 187.074 16.8172 187.25 16.8835C187.425 16.9498 187.619 16.983 187.832 16.983C187.993 16.983 188.14 16.9711 188.272 16.9474C188.41 16.9238 188.514 16.9025 188.585 16.8835L189.018 18.8935C188.881 18.9408 188.684 18.9929 188.429 19.0497C188.178 19.1065 187.87 19.1397 187.505 19.1491C186.861 19.1681 186.281 19.071 185.765 18.858C185.249 18.6402 184.84 18.304 184.537 17.8494C184.238 17.3949 184.092 16.8267 184.096 16.1449V5.47727ZM197.23 11.8835V14H190.682V11.8835H197.23ZM204.764 19.2131C203.67 19.2131 202.725 18.9858 201.93 18.5312C201.139 18.072 200.531 17.4233 200.105 16.5852C199.679 15.7424 199.466 14.7505 199.466 13.6094C199.466 12.4872 199.679 11.5024 200.105 10.6548C200.536 9.80256 201.137 9.13968 201.909 8.66619C202.681 8.18797 203.587 7.94886 204.629 7.94886C205.301 7.94886 205.936 8.05777 206.532 8.27557C207.134 8.48864 207.664 8.82008 208.123 9.26989C208.587 9.7197 208.952 10.2926 209.217 10.9886C209.482 11.6799 209.615 12.5038 209.615 13.4602V14.2486H200.673V12.5156H207.15C207.145 12.0232 207.039 11.5852 206.831 11.2017C206.622 10.8134 206.331 10.508 205.957 10.2855C205.588 10.063 205.157 9.9517 204.664 9.9517C204.139 9.9517 203.677 10.0795 203.279 10.3352C202.882 10.5862 202.572 10.9176 202.349 11.3295C202.131 11.7367 202.02 12.1842 202.015 12.6719V14.1847C202.015 14.8191 202.131 15.3636 202.363 15.8182C202.595 16.268 202.92 16.6136 203.336 16.8551C203.753 17.0919 204.241 17.2102 204.799 17.2102C205.173 17.2102 205.512 17.1581 205.815 17.054C206.118 16.9451 206.381 16.7865 206.603 16.5781C206.826 16.3698 206.994 16.1117 207.108 15.804L209.508 16.0739C209.357 16.7083 209.068 17.2623 208.642 17.7358C208.22 18.2045 207.681 18.5691 207.022 18.8295C206.364 19.0852 205.611 19.2131 204.764 19.2131ZM214.361 12.608V19H211.79V8.09091H214.247V9.9446H214.375C214.626 9.33381 215.026 8.84848 215.575 8.48864C216.129 8.12879 216.813 7.94886 217.628 7.94886C218.381 7.94886 219.036 8.10985 219.595 8.43182C220.159 8.75379 220.594 9.22017 220.902 9.83097C221.214 10.4418 221.368 11.1828 221.364 12.054V19H218.793V12.4517C218.793 11.7225 218.603 11.152 218.224 10.7401C217.85 10.3281 217.332 10.1222 216.669 10.1222C216.219 10.1222 215.819 10.2216 215.469 10.4205C215.123 10.6146 214.851 10.8963 214.652 11.2656C214.458 11.6349 214.361 12.0824 214.361 12.608ZM228.026 19.1918C227.169 19.1918 226.402 18.9716 225.724 18.5312C225.047 18.0909 224.512 17.4517 224.119 16.6136C223.726 15.7756 223.53 14.7576 223.53 13.5597C223.53 12.3475 223.729 11.3248 224.126 10.4915C224.529 9.65341 225.071 9.02131 225.753 8.59517C226.435 8.1643 227.195 7.94886 228.033 7.94886C228.672 7.94886 229.197 8.05777 229.609 8.27557C230.021 8.48864 230.348 8.74669 230.589 9.04972C230.831 9.34801 231.018 9.62973 231.151 9.89489H231.257V4.45455H233.835V19H231.307V17.2812H231.151C231.018 17.5464 230.826 17.8281 230.575 18.1264C230.324 18.42 229.993 18.6709 229.581 18.8793C229.169 19.0876 228.651 19.1918 228.026 19.1918ZM228.743 17.0824C229.287 17.0824 229.751 16.9356 230.135 16.642C230.518 16.3437 230.81 15.9295 231.009 15.3991C231.207 14.8688 231.307 14.2509 231.307 13.5455C231.307 12.84 231.207 12.2268 231.009 11.706C230.814 11.1851 230.526 10.7803 230.142 10.4915C229.763 10.2027 229.297 10.0582 228.743 10.0582C228.17 10.0582 227.692 10.2074 227.308 10.5057C226.925 10.804 226.636 11.2159 226.442 11.7415C226.248 12.267 226.151 12.8684 226.151 13.5455C226.151 14.2273 226.248 14.8357 226.442 15.3707C226.641 15.901 226.932 16.3201 227.315 16.6278C227.704 16.9309 228.179 17.0824 228.743 17.0824Z" fill="white"/>
<path d="M254.304 3.87819C254.329 3.793 254.338 3.70348 254.33 3.61475C254.322 3.52602 254.297 3.43981 254.256 3.36105C254.215 3.28229 254.159 3.21251 254.091 3.15571C254.024 3.0989 253.946 3.05618 253.862 3.02998C253.779 3.00378 253.691 2.99462 253.604 3.00302C253.516 3.01141 253.432 3.03721 253.354 3.07892C253.277 3.12063 253.208 3.17745 253.153 3.24613C253.097 3.31481 253.055 3.394 253.029 3.47919L247.696 21.1218C247.644 21.2939 247.662 21.4799 247.744 21.639C247.827 21.798 247.969 21.9171 248.138 21.97C248.307 22.0229 248.489 22.0053 248.646 21.9211C248.802 21.8368 248.919 21.6929 248.971 21.5208L254.304 3.87819ZM246.806 7.26964C246.868 7.33267 246.917 7.40755 246.951 7.48999C246.984 7.57243 247.002 7.66081 247.002 7.75006C247.002 7.83932 246.984 7.9277 246.951 8.01013C246.917 8.09257 246.868 8.16745 246.806 8.23049L242.61 12.5L246.806 16.7695C246.931 16.8969 247.001 17.0697 247.001 17.2499C247.001 17.4301 246.931 17.6029 246.806 17.7304C246.681 17.8578 246.511 17.9294 246.334 17.9294C246.157 17.9294 245.987 17.8578 245.862 17.7304L241.196 12.9804C241.134 12.9174 241.085 12.8425 241.051 12.7601C241.017 12.6776 241 12.5893 241 12.5C241 12.4107 241.017 12.3224 241.051 12.2399C241.085 12.1575 241.134 12.0826 241.196 12.0196L245.862 7.26964C245.924 7.20645 245.997 7.15631 246.078 7.1221C246.159 7.0879 246.246 7.07029 246.334 7.07029C246.422 7.07029 246.508 7.0879 246.589 7.1221C246.67 7.15631 246.744 7.20645 246.806 7.26964ZM255.194 7.26964C255.132 7.33267 255.083 7.40755 255.049 7.48999C255.016 7.57243 254.998 7.66081 254.998 7.75006C254.998 7.83932 255.016 7.9277 255.049 8.01013C255.083 8.09257 255.132 8.16745 255.194 8.23049L259.39 12.5L255.194 16.7695C255.132 16.8326 255.083 16.9075 255.049 16.9899C255.016 17.0724 254.999 17.1607 254.999 17.2499C254.999 17.3392 255.016 17.4275 255.049 17.5099C255.083 17.5924 255.132 17.6673 255.194 17.7304C255.256 17.7934 255.33 17.8435 255.411 17.8776C255.492 17.9118 255.578 17.9294 255.666 17.9294C255.754 17.9294 255.841 17.9118 255.922 17.8776C256.003 17.8435 256.076 17.7934 256.138 17.7304L260.804 12.9804C260.866 12.9174 260.915 12.8425 260.949 12.7601C260.983 12.6776 261 12.5893 261 12.5C261 12.4107 260.983 12.3224 260.949 12.2399C260.915 12.1575 260.866 12.0826 260.804 12.0196L256.138 7.26964C256.076 7.20645 256.003 7.15631 255.922 7.1221C255.841 7.0879 255.754 7.07029 255.666 7.07029C255.578 7.07029 255.492 7.0879 255.411 7.1221C255.33 7.15631 255.256 7.20645 255.194 7.26964Z" fill="white"/>
</svg>
