<svg width="253" height="24" viewBox="0 0 253 24" fill="none" xmlns="http://www.w3.org/2000/svg">
<path d="M1.43466 19V4.45455H4.0696V16.7912H10.4759V19H1.43466ZM15.7884 19.2202C15.0971 19.2202 14.4744 19.0971 13.9205 18.8509C13.3712 18.5999 12.9356 18.2306 12.6136 17.7429C12.2964 17.2552 12.1378 16.6539 12.1378 15.9389C12.1378 15.3234 12.2514 14.8144 12.4787 14.4119C12.706 14.0095 13.0161 13.6875 13.4091 13.446C13.8021 13.2045 14.2448 13.0223 14.7372 12.8991C15.2344 12.7713 15.7481 12.679 16.2784 12.6222C16.9176 12.5559 17.4361 12.4967 17.8338 12.4446C18.2315 12.3878 18.5204 12.3026 18.7003 12.1889C18.8849 12.0705 18.9773 11.8883 18.9773 11.642V11.5994C18.9773 11.0644 18.8187 10.6501 18.5014 10.3565C18.1842 10.063 17.7273 9.91619 17.1307 9.91619C16.5009 9.91619 16.0014 10.0535 15.6321 10.3281C15.2675 10.6027 15.0213 10.9271 14.8935 11.3011L12.4929 10.9602C12.6823 10.2973 12.9948 9.74337 13.4304 9.2983C13.866 8.84848 14.3987 8.51231 15.0284 8.28977C15.6581 8.0625 16.3542 7.94886 17.1165 7.94886C17.642 7.94886 18.1652 8.01042 18.6861 8.13352C19.2069 8.25663 19.6828 8.46023 20.1136 8.74432C20.5445 9.02367 20.8902 9.40483 21.1506 9.88778C21.4157 10.3707 21.5483 10.9744 21.5483 11.6989V19H19.0767V17.5014H18.9915C18.8352 17.8045 18.6151 18.0885 18.331 18.3537C18.0516 18.6141 17.6989 18.8248 17.2727 18.9858C16.8513 19.142 16.3565 19.2202 15.7884 19.2202ZM16.456 17.331C16.9721 17.331 17.4195 17.2292 17.7983 17.0256C18.1771 16.8172 18.4683 16.5426 18.6719 16.2017C18.8802 15.8608 18.9844 15.4891 18.9844 15.0866V13.8011C18.9039 13.8674 18.7666 13.929 18.5724 13.9858C18.383 14.0426 18.17 14.0923 17.9332 14.1349C17.6965 14.1776 17.4621 14.2154 17.2301 14.2486C16.9981 14.2817 16.7969 14.3101 16.6264 14.3338C16.2429 14.3859 15.8996 14.4711 15.5966 14.5895C15.2936 14.7079 15.0545 14.8736 14.8793 15.0866C14.7041 15.295 14.6165 15.5649 14.6165 15.8963C14.6165 16.3698 14.7893 16.7273 15.1349 16.9688C15.4806 17.2102 15.9209 17.331 16.456 17.331ZM26.7045 12.608V19H24.1335V8.09091H26.5909V9.9446H26.7188C26.9697 9.33381 27.3698 8.84848 27.919 8.48864C28.473 8.12879 29.1572 7.94886 29.9716 7.94886C30.7244 7.94886 31.3802 8.10985 31.9389 8.43182C32.5024 8.75379 32.938 9.22017 33.2457 9.83097C33.5582 10.4418 33.7121 11.1828 33.7074 12.054V19H31.1364V12.4517C31.1364 11.7225 30.947 11.152 30.5682 10.7401C30.1941 10.3281 29.6757 10.1222 29.0128 10.1222C28.563 10.1222 28.1629 10.2216 27.8125 10.4205C27.4669 10.6146 27.1946 10.8963 26.9957 11.2656C26.8016 11.6349 26.7045 12.0824 26.7045 12.608ZM41.0653 23.3182C40.142 23.3182 39.349 23.1927 38.6861 22.9418C38.0232 22.6955 37.4905 22.3641 37.0881 21.9474C36.6856 21.5308 36.4062 21.0691 36.25 20.5625L38.5653 20.0014C38.6695 20.2145 38.821 20.4252 39.0199 20.6335C39.2188 20.8466 39.4863 21.0218 39.8224 21.1591C40.1634 21.3011 40.5919 21.3722 41.108 21.3722C41.8371 21.3722 42.4408 21.1946 42.919 20.8395C43.3973 20.4891 43.6364 19.9115 43.6364 19.1065V17.0398H43.5085C43.3759 17.3049 43.1818 17.5772 42.9261 17.8565C42.6752 18.1359 42.3414 18.3703 41.9247 18.5597C41.5128 18.7491 40.9943 18.8438 40.3693 18.8438C39.5312 18.8438 38.7713 18.6473 38.0895 18.2543C37.4124 17.8565 36.8726 17.2647 36.4702 16.4787C36.0724 15.688 35.8736 14.6984 35.8736 13.5099C35.8736 12.312 36.0724 11.3011 36.4702 10.4773C36.8726 9.64867 37.4148 9.02131 38.0966 8.59517C38.7784 8.1643 39.5384 7.94886 40.3764 7.94886C41.0156 7.94886 41.5412 8.05777 41.9531 8.27557C42.3698 8.48864 42.7012 8.74669 42.9474 9.04972C43.1937 9.34801 43.3807 9.62973 43.5085 9.89489H43.6506V8.09091H46.1861V19.1776C46.1861 20.1103 45.9635 20.8821 45.5185 21.4929C45.0734 22.1037 44.465 22.5606 43.6932 22.8636C42.9214 23.1667 42.0455 23.3182 41.0653 23.3182ZM41.0866 16.8267C41.6312 16.8267 42.0952 16.6941 42.4787 16.429C42.8622 16.1638 43.1534 15.7827 43.3523 15.2855C43.5511 14.7884 43.6506 14.1918 43.6506 13.4957C43.6506 12.8092 43.5511 12.2079 43.3523 11.6918C43.1581 11.1757 42.8693 10.7756 42.4858 10.4915C42.107 10.2027 41.6406 10.0582 41.0866 10.0582C40.5137 10.0582 40.0355 10.2074 39.652 10.5057C39.2685 10.804 38.9796 11.2135 38.7855 11.7344C38.5914 12.2505 38.4943 12.8376 38.4943 13.4957C38.4943 14.1634 38.5914 14.7481 38.7855 15.25C38.9844 15.7472 39.2756 16.1354 39.6591 16.4148C40.0473 16.6894 40.5232 16.8267 41.0866 16.8267ZM55.7741 14.4119V8.09091H58.3452V19H55.8523V17.0611H55.7386C55.4924 17.6719 55.0876 18.1714 54.5241 18.5597C53.9654 18.9479 53.2765 19.142 52.4574 19.142C51.7424 19.142 51.1103 18.9834 50.5611 18.6662C50.0166 18.3442 49.5904 17.8778 49.2827 17.267C48.9749 16.6515 48.821 15.9081 48.821 15.0369V8.09091H51.392V14.6392C51.392 15.3305 51.5814 15.8797 51.9602 16.2869C52.339 16.6941 52.8362 16.8977 53.4517 16.8977C53.8305 16.8977 54.1974 16.8054 54.5526 16.6207C54.9077 16.4361 55.1989 16.1615 55.4261 15.7969C55.6581 15.4276 55.7741 14.9659 55.7741 14.4119ZM64.1282 19.2202C63.4369 19.2202 62.8143 19.0971 62.2603 18.8509C61.7111 18.5999 61.2754 18.2306 60.9535 17.7429C60.6362 17.2552 60.4776 16.6539 60.4776 15.9389C60.4776 15.3234 60.5913 14.8144 60.8185 14.4119C61.0458 14.0095 61.3559 13.6875 61.7489 13.446C62.1419 13.2045 62.5846 13.0223 63.0771 12.8991C63.5742 12.7713 64.0879 12.679 64.6183 12.6222C65.2575 12.5559 65.7759 12.4967 66.1737 12.4446C66.5714 12.3878 66.8602 12.3026 67.0401 12.1889C67.2248 12.0705 67.3171 11.8883 67.3171 11.642V11.5994C67.3171 11.0644 67.1585 10.6501 66.8413 10.3565C66.524 10.063 66.0671 9.91619 65.4705 9.91619C64.8408 9.91619 64.3413 10.0535 63.9719 10.3281C63.6074 10.6027 63.3612 10.9271 63.2333 11.3011L60.8327 10.9602C61.0221 10.2973 61.3346 9.74337 61.7702 9.2983C62.2058 8.84848 62.7385 8.51231 63.3683 8.28977C63.998 8.0625 64.694 7.94886 65.4563 7.94886C65.9819 7.94886 66.5051 8.01042 67.0259 8.13352C67.5468 8.25663 68.0226 8.46023 68.4535 8.74432C68.8844 9.02367 69.23 9.40483 69.4904 9.88778C69.7556 10.3707 69.8881 10.9744 69.8881 11.6989V19H67.4165V17.5014H67.3313C67.1751 17.8045 66.9549 18.0885 66.6708 18.3537C66.3915 18.6141 66.0387 18.8248 65.6126 18.9858C65.1912 19.142 64.6964 19.2202 64.1282 19.2202ZM64.7958 17.331C65.3119 17.331 65.7594 17.2292 66.1381 17.0256C66.5169 16.8172 66.8081 16.5426 67.0117 16.2017C67.2201 15.8608 67.3242 15.4891 67.3242 15.0866V13.8011C67.2437 13.8674 67.1064 13.929 66.9123 13.9858C66.7229 14.0426 66.5098 14.0923 66.2731 14.1349C66.0363 14.1776 65.802 14.2154 65.57 14.2486C65.3379 14.2817 65.1367 14.3101 64.9663 14.3338C64.5827 14.3859 64.2395 14.4711 63.9364 14.5895C63.6334 14.7079 63.3943 14.8736 63.2191 15.0866C63.0439 15.295 62.9563 15.5649 62.9563 15.8963C62.9563 16.3698 63.1291 16.7273 63.4748 16.9688C63.8204 17.2102 64.2608 17.331 64.7958 17.331ZM77.2177 23.3182C76.2944 23.3182 75.5013 23.1927 74.8384 22.9418C74.1755 22.6955 73.6429 22.3641 73.2404 21.9474C72.8379 21.5308 72.5586 21.0691 72.4023 20.5625L74.7177 20.0014C74.8219 20.2145 74.9734 20.4252 75.1722 20.6335C75.3711 20.8466 75.6386 21.0218 75.9748 21.1591C76.3157 21.3011 76.7442 21.3722 77.2603 21.3722C77.9895 21.3722 78.5932 21.1946 79.0714 20.8395C79.5496 20.4891 79.7887 19.9115 79.7887 19.1065V17.0398H79.6609C79.5283 17.3049 79.3342 17.5772 79.0785 17.8565C78.8275 18.1359 78.4937 18.3703 78.0771 18.5597C77.6651 18.7491 77.1467 18.8438 76.5217 18.8438C75.6836 18.8438 74.9237 18.6473 74.2418 18.2543C73.5647 17.8565 73.025 17.2647 72.6225 16.4787C72.2248 15.688 72.0259 14.6984 72.0259 13.5099C72.0259 12.312 72.2248 11.3011 72.6225 10.4773C73.025 9.64867 73.5671 9.02131 74.2489 8.59517C74.9308 8.1643 75.6907 7.94886 76.5288 7.94886C77.168 7.94886 77.6935 8.05777 78.1055 8.27557C78.5221 8.48864 78.8536 8.74669 79.0998 9.04972C79.346 9.34801 79.533 9.62973 79.6609 9.89489H79.8029V8.09091H82.3384V19.1776C82.3384 20.1103 82.1159 20.8821 81.6708 21.4929C81.2257 22.1037 80.6173 22.5606 79.8455 22.8636C79.0737 23.1667 78.1978 23.3182 77.2177 23.3182ZM77.239 16.8267C77.7835 16.8267 78.2475 16.6941 78.631 16.429C79.0146 16.1638 79.3058 15.7827 79.5046 15.2855C79.7035 14.7884 79.8029 14.1918 79.8029 13.4957C79.8029 12.8092 79.7035 12.2079 79.5046 11.6918C79.3105 11.1757 79.0217 10.7756 78.6381 10.4915C78.2594 10.2027 77.793 10.0582 77.239 10.0582C76.6661 10.0582 76.1879 10.2074 75.8043 10.5057C75.4208 10.804 75.132 11.2135 74.9379 11.7344C74.7437 12.2505 74.6467 12.8376 74.6467 13.4957C74.6467 14.1634 74.7437 14.7481 74.9379 15.25C75.1367 15.7472 75.4279 16.1354 75.8114 16.4148C76.1997 16.6894 76.6755 16.8267 77.239 16.8267ZM89.8029 19.2131C88.7092 19.2131 87.7646 18.9858 86.9691 18.5312C86.1784 18.072 85.57 17.4233 85.1438 16.5852C84.7177 15.7424 84.5046 14.7505 84.5046 13.6094C84.5046 12.4872 84.7177 11.5024 85.1438 10.6548C85.5747 9.80256 86.176 9.13968 86.9478 8.66619C87.7196 8.18797 88.6263 7.94886 89.668 7.94886C90.3403 7.94886 90.9748 8.05777 91.5714 8.27557C92.1727 8.48864 92.703 8.82008 93.1623 9.26989C93.6263 9.7197 93.9909 10.2926 94.256 10.9886C94.5212 11.6799 94.6538 12.5038 94.6538 13.4602V14.2486H85.712V12.5156H92.1893C92.1845 12.0232 92.078 11.5852 91.8697 11.2017C91.6613 10.8134 91.3701 10.508 90.9961 10.2855C90.6268 10.063 90.1959 9.9517 89.7035 9.9517C89.1779 9.9517 88.7163 10.0795 88.3185 10.3352C87.9208 10.5862 87.6107 10.9176 87.3881 11.3295C87.1703 11.7367 87.0591 12.1842 87.0543 12.6719V14.1847C87.0543 14.8191 87.1703 15.3636 87.4023 15.8182C87.6344 16.268 87.9587 16.6136 88.3754 16.8551C88.792 17.0919 89.2797 17.2102 89.8384 17.2102C90.2125 17.2102 90.551 17.1581 90.854 17.054C91.1571 16.9451 91.4199 16.7865 91.6424 16.5781C91.8649 16.3698 92.033 16.1117 92.1467 15.804L94.5472 16.0739C94.3957 16.7083 94.1069 17.2623 93.6808 17.7358C93.2594 18.2045 92.7196 18.5691 92.0614 18.8295C91.4033 19.0852 90.6504 19.2131 89.8029 19.2131ZM105.451 10.9744L103.107 11.2301C103.041 10.9934 102.925 10.7708 102.759 10.5625C102.598 10.3542 102.38 10.1861 102.106 10.0582C101.831 9.9304 101.495 9.86648 101.097 9.86648C100.562 9.86648 100.112 9.98248 99.7479 10.2145C99.388 10.4465 99.2105 10.7472 99.2152 11.1165C99.2105 11.4337 99.3265 11.6918 99.5632 11.8906C99.8047 12.0895 100.202 12.2528 100.756 12.3807L102.617 12.7784C103.649 13.0009 104.416 13.3537 104.918 13.8366C105.425 14.3196 105.681 14.9517 105.685 15.733C105.681 16.4195 105.479 17.0256 105.082 17.5511C104.689 18.072 104.142 18.4792 103.441 18.7727C102.74 19.0663 101.935 19.2131 101.026 19.2131C99.6911 19.2131 98.6162 18.9337 97.8018 18.375C96.9875 17.8116 96.5021 17.0279 96.3459 16.0241L98.853 15.7827C98.9666 16.2751 99.2081 16.6468 99.5774 16.8977C99.9467 17.1487 100.427 17.2741 101.019 17.2741C101.63 17.2741 102.12 17.1487 102.489 16.8977C102.863 16.6468 103.05 16.3366 103.05 15.9673C103.05 15.6548 102.93 15.3968 102.688 15.1932C102.451 14.9896 102.082 14.8333 101.58 14.7244L99.7195 14.3338C98.6731 14.116 97.8989 13.7491 97.397 13.233C96.8951 12.7121 96.6465 12.054 96.6513 11.2585C96.6465 10.5862 96.8288 10.0038 97.1982 9.51136C97.5722 9.0142 98.0907 8.63068 98.7536 8.3608C99.4212 8.08617 100.191 7.94886 101.062 7.94886C102.34 7.94886 103.346 8.22112 104.08 8.76562C104.819 9.31013 105.276 10.0464 105.451 10.9744ZM119.379 10.669V12.7855H112.83V10.669H119.379ZM127.157 19V4.45455H136.475V6.66335H129.792V10.6122H135.836V12.821H129.792V19H127.157ZM138.606 19V8.09091H141.099V9.90909H141.213C141.412 9.27936 141.752 8.79403 142.235 8.45312C142.723 8.10748 143.279 7.93466 143.904 7.93466C144.047 7.93466 144.205 7.94176 144.38 7.95597C144.56 7.96544 144.709 7.98201 144.828 8.00568V10.3707C144.719 10.3329 144.546 10.2997 144.309 10.2713C144.077 10.2382 143.852 10.2216 143.635 10.2216C143.166 10.2216 142.744 10.3234 142.37 10.527C142.001 10.7259 141.71 11.0028 141.497 11.358C141.284 11.7131 141.177 12.1226 141.177 12.5866V19H138.606ZM150.845 19.2131C149.78 19.2131 148.857 18.9787 148.075 18.5099C147.294 18.0412 146.688 17.3854 146.257 16.5426C145.831 15.6998 145.618 14.715 145.618 13.5881C145.618 12.4612 145.831 11.474 146.257 10.6264C146.688 9.77888 147.294 9.12074 148.075 8.65199C148.857 8.18324 149.78 7.94886 150.845 7.94886C151.911 7.94886 152.834 8.18324 153.615 8.65199C154.396 9.12074 155 9.77888 155.426 10.6264C155.857 11.474 156.072 12.4612 156.072 13.5881C156.072 14.715 155.857 15.6998 155.426 16.5426C155 17.3854 154.396 18.0412 153.615 18.5099C152.834 18.9787 151.911 19.2131 150.845 19.2131ZM150.859 17.1534C151.437 17.1534 151.92 16.9948 152.308 16.6776C152.696 16.3556 152.985 15.9247 153.175 15.3849C153.369 14.8452 153.466 14.2438 153.466 13.581C153.466 12.9134 153.369 12.3097 153.175 11.7699C152.985 11.2254 152.696 10.7921 152.308 10.4702C151.92 10.1482 151.437 9.98722 150.859 9.98722C150.268 9.98722 149.775 10.1482 149.382 10.4702C148.994 10.7921 148.703 11.2254 148.509 11.7699C148.319 12.3097 148.224 12.9134 148.224 13.581C148.224 14.2438 148.319 14.8452 148.509 15.3849C148.703 15.9247 148.994 16.3556 149.382 16.6776C149.775 16.9948 150.268 17.1534 150.859 17.1534ZM160.826 12.608V19H158.255V8.09091H160.712V9.9446H160.84C161.091 9.33381 161.491 8.84848 162.04 8.48864C162.594 8.12879 163.278 7.94886 164.093 7.94886C164.846 7.94886 165.501 8.10985 166.06 8.43182C166.623 8.75379 167.059 9.22017 167.367 9.83097C167.679 10.4418 167.833 11.1828 167.828 12.054V19H165.257V12.4517C165.257 11.7225 165.068 11.152 164.689 10.7401C164.315 10.3281 163.797 10.1222 163.134 10.1222C162.684 10.1222 162.284 10.2216 161.934 10.4205C161.588 10.6146 161.316 10.8963 161.117 11.2656C160.923 11.6349 160.826 12.0824 160.826 12.608ZM175.89 8.09091V10.0795H169.618V8.09091H175.89ZM171.167 5.47727H173.738V15.7188C173.738 16.0644 173.79 16.3295 173.894 16.5142C174.003 16.6941 174.145 16.8172 174.32 16.8835C174.495 16.9498 174.689 16.983 174.902 16.983C175.063 16.983 175.21 16.9711 175.343 16.9474C175.48 16.9238 175.584 16.9025 175.655 16.8835L176.088 18.8935C175.951 18.9408 175.755 18.9929 175.499 19.0497C175.248 19.1065 174.94 19.1397 174.576 19.1491C173.932 19.1681 173.352 19.071 172.836 18.858C172.319 18.6402 171.91 18.304 171.607 17.8494C171.309 17.3949 171.162 16.8267 171.167 16.1449V5.47727ZM184.3 11.8835V14H177.752V11.8835H184.3ZM191.834 19.2131C190.74 19.2131 189.796 18.9858 189 18.5312C188.21 18.072 187.601 17.4233 187.175 16.5852C186.749 15.7424 186.536 14.7505 186.536 13.6094C186.536 12.4872 186.749 11.5024 187.175 10.6548C187.606 9.80256 188.207 9.13968 188.979 8.66619C189.751 8.18797 190.658 7.94886 191.699 7.94886C192.372 7.94886 193.006 8.05777 193.603 8.27557C194.204 8.48864 194.734 8.82008 195.194 9.26989C195.658 9.7197 196.022 10.2926 196.287 10.9886C196.552 11.6799 196.685 12.5038 196.685 13.4602V14.2486H187.743V12.5156H194.221C194.216 12.0232 194.109 11.5852 193.901 11.2017C193.693 10.8134 193.401 10.508 193.027 10.2855C192.658 10.063 192.227 9.9517 191.735 9.9517C191.209 9.9517 190.748 10.0795 190.35 10.3352C189.952 10.5862 189.642 10.9176 189.419 11.3295C189.202 11.7367 189.09 12.1842 189.086 12.6719V14.1847C189.086 14.8191 189.202 15.3636 189.434 15.8182C189.666 16.268 189.99 16.6136 190.407 16.8551C190.823 17.0919 191.311 17.2102 191.87 17.2102C192.244 17.2102 192.582 17.1581 192.885 17.054C193.188 16.9451 193.451 16.7865 193.674 16.5781C193.896 16.3698 194.064 16.1117 194.178 15.804L196.578 16.0739C196.427 16.7083 196.138 17.2623 195.712 17.7358C195.291 18.2045 194.751 18.5691 194.093 18.8295C193.435 19.0852 192.682 19.2131 191.834 19.2131ZM201.431 12.608V19H198.86V8.09091H201.317V9.9446H201.445C201.696 9.33381 202.096 8.84848 202.646 8.48864C203.2 8.12879 203.884 7.94886 204.698 7.94886C205.451 7.94886 206.107 8.10985 206.665 8.43182C207.229 8.75379 207.665 9.22017 207.972 9.83097C208.285 10.4418 208.439 11.1828 208.434 12.054V19H205.863V12.4517C205.863 11.7225 205.674 11.152 205.295 10.7401C204.921 10.3281 204.402 10.1222 203.739 10.1222C203.29 10.1222 202.889 10.2216 202.539 10.4205C202.193 10.6146 201.921 10.8963 201.722 11.2656C201.528 11.6349 201.431 12.0824 201.431 12.608ZM215.096 19.1918C214.239 19.1918 213.472 18.9716 212.795 18.5312C212.118 18.0909 211.583 17.4517 211.19 16.6136C210.797 15.7756 210.6 14.7576 210.6 13.5597C210.6 12.3475 210.799 11.3248 211.197 10.4915C211.599 9.65341 212.141 9.02131 212.823 8.59517C213.505 8.1643 214.265 7.94886 215.103 7.94886C215.742 7.94886 216.268 8.05777 216.68 8.27557C217.092 8.48864 217.418 8.74669 217.66 9.04972C217.901 9.34801 218.088 9.62973 218.221 9.89489H218.327V4.45455H220.906V19H218.377V17.2812H218.221C218.088 17.5464 217.897 17.8281 217.646 18.1264C217.395 18.42 217.063 18.6709 216.651 18.8793C216.239 19.0876 215.721 19.1918 215.096 19.1918ZM215.813 17.0824C216.358 17.0824 216.822 16.9356 217.205 16.642C217.589 16.3437 217.88 15.9295 218.079 15.3991C218.278 14.8688 218.377 14.2509 218.377 13.5455C218.377 12.84 218.278 12.2268 218.079 11.706C217.885 11.1851 217.596 10.7803 217.212 10.4915C216.834 10.2027 216.367 10.0582 215.813 10.0582C215.24 10.0582 214.762 10.2074 214.379 10.5057C213.995 10.804 213.706 11.2159 213.512 11.7415C213.318 12.267 213.221 12.8684 213.221 13.5455C213.221 14.2273 213.318 14.8357 213.512 15.3707C213.711 15.901 214.002 16.3201 214.386 16.6278C214.774 16.9309 215.25 17.0824 215.813 17.0824Z" fill="white"/>
<path d="M246.304 2.87819C246.329 2.793 246.338 2.70348 246.33 2.61475C246.322 2.52602 246.297 2.43981 246.256 2.36105C246.215 2.28229 246.159 2.21251 246.091 2.15571C246.024 2.0989 245.946 2.05618 245.862 2.02998C245.779 2.00378 245.691 1.99462 245.604 2.00302C245.516 2.01141 245.432 2.03721 245.354 2.07892C245.277 2.12063 245.208 2.17745 245.153 2.24613C245.097 2.31481 245.055 2.394 245.029 2.47919L239.696 20.1218C239.644 20.2939 239.662 20.4799 239.744 20.639C239.827 20.798 239.969 20.9171 240.138 20.97C240.307 21.0229 240.489 21.0053 240.646 20.9211C240.802 20.8368 240.919 20.6929 240.971 20.5208L246.304 2.87819ZM238.806 6.26964C238.868 6.33267 238.917 6.40755 238.951 6.48999C238.984 6.57243 239.002 6.66081 239.002 6.75006C239.002 6.83932 238.984 6.9277 238.951 7.01013C238.917 7.09257 238.868 7.16745 238.806 7.23049L234.61 11.5L238.806 15.7695C238.931 15.8969 239.001 16.0697 239.001 16.2499C239.001 16.4301 238.931 16.6029 238.806 16.7304C238.681 16.8578 238.511 16.9294 238.334 16.9294C238.157 16.9294 237.987 16.8578 237.862 16.7304L233.196 11.9804C233.134 11.9174 233.085 11.8425 233.051 11.7601C233.017 11.6776 233 11.5893 233 11.5C233 11.4107 233.017 11.3224 233.051 11.2399C233.085 11.1575 233.134 11.0826 233.196 11.0196L237.862 6.26964C237.924 6.20645 237.997 6.15631 238.078 6.1221C238.159 6.0879 238.246 6.07029 238.334 6.07029C238.422 6.07029 238.508 6.0879 238.589 6.1221C238.67 6.15631 238.744 6.20645 238.806 6.26964ZM247.194 6.26964C247.132 6.33267 247.083 6.40755 247.049 6.48999C247.016 6.57243 246.998 6.66081 246.998 6.75006C246.998 6.83932 247.016 6.9277 247.049 7.01013C247.083 7.09257 247.132 7.16745 247.194 7.23049L251.39 11.5L247.194 15.7695C247.132 15.8326 247.083 15.9075 247.049 15.9899C247.016 16.0724 246.999 16.1607 246.999 16.2499C246.999 16.3392 247.016 16.4275 247.049 16.5099C247.083 16.5924 247.132 16.6673 247.194 16.7304C247.256 16.7934 247.33 16.8435 247.411 16.8776C247.492 16.9118 247.578 16.9294 247.666 16.9294C247.754 16.9294 247.841 16.9118 247.922 16.8776C248.003 16.8435 248.076 16.7934 248.138 16.7304L252.804 11.9804C252.866 11.9174 252.915 11.8425 252.949 11.7601C252.983 11.6776 253 11.5893 253 11.5C253 11.4107 252.983 11.3224 252.949 11.2399C252.915 11.1575 252.866 11.0826 252.804 11.0196L248.138 6.26964C248.076 6.20645 248.003 6.15631 247.922 6.1221C247.841 6.0879 247.754 6.07029 247.666 6.07029C247.578 6.07029 247.492 6.0879 247.411 6.1221C247.33 6.15631 247.256 6.20645 247.194 6.26964Z" fill="white"/>
</svg>
