<svg width="233" height="34" viewBox="0 0 233 34" fill="none" xmlns="http://www.w3.org/2000/svg">
<path d="M1.43466 24V9.45455H4.0696V21.7912H10.4759V24H1.43466ZM17.4077 24.2131C16.3423 24.2131 15.419 23.9787 14.6378 23.5099C13.8565 23.0412 13.2505 22.3854 12.8196 21.5426C12.3935 20.6998 12.1804 19.715 12.1804 18.5881C12.1804 17.4612 12.3935 16.474 12.8196 15.6264C13.2505 14.7789 13.8565 14.1207 14.6378 13.652C15.419 13.1832 16.3423 12.9489 17.4077 12.9489C18.473 12.9489 19.3963 13.1832 20.1776 13.652C20.9588 14.1207 21.5625 14.7789 21.9886 15.6264C22.4195 16.474 22.6349 17.4612 22.6349 18.5881C22.6349 19.715 22.4195 20.6998 21.9886 21.5426C21.5625 22.3854 20.9588 23.0412 20.1776 23.5099C19.3963 23.9787 18.473 24.2131 17.4077 24.2131ZM17.4219 22.1534C17.9995 22.1534 18.4825 21.9948 18.8707 21.6776C19.259 21.3556 19.5478 20.9247 19.7372 20.3849C19.9313 19.8452 20.0284 19.2438 20.0284 18.581C20.0284 17.9134 19.9313 17.3097 19.7372 16.7699C19.5478 16.2254 19.259 15.7921 18.8707 15.4702C18.4825 15.1482 17.9995 14.9872 17.4219 14.9872C16.83 14.9872 16.3376 15.1482 15.9446 15.4702C15.5563 15.7921 15.2652 16.2254 15.071 16.7699C14.8816 17.3097 14.7869 17.9134 14.7869 18.581C14.7869 19.2438 14.8816 19.8452 15.071 20.3849C15.2652 20.9247 15.5563 21.3556 15.9446 21.6776C16.3376 21.9948 16.83 22.1534 17.4219 22.1534ZM31.7702 19.4119V13.0909H34.3413V24H31.8484V22.0611H31.7347C31.4885 22.6719 31.0837 23.1714 30.5202 23.5597C29.9615 23.9479 29.2726 24.142 28.4535 24.142C27.7385 24.142 27.1064 23.9834 26.5572 23.6662C26.0127 23.3442 25.5865 22.8778 25.2788 22.267C24.971 21.6515 24.8171 20.9081 24.8171 20.0369V13.0909H27.3881V19.6392C27.3881 20.3305 27.5775 20.8797 27.9563 21.2869C28.3351 21.6941 28.8323 21.8977 29.4478 21.8977C29.8266 21.8977 30.1935 21.8054 30.5487 21.6207C30.9038 21.4361 31.195 21.1615 31.4222 20.7969C31.6542 20.4276 31.7702 19.9659 31.7702 19.4119ZM39.5561 17.608V24H36.9851V13.0909H39.4425V14.9446H39.5703C39.8213 14.3338 40.2214 13.8485 40.7706 13.4886C41.3246 13.1288 42.0088 12.9489 42.8232 12.9489C43.576 12.9489 44.2318 13.1098 44.7905 13.4318C45.3539 13.7538 45.7895 14.2202 46.0973 14.831C46.4098 15.4418 46.5637 16.1828 46.5589 17.054V24H43.9879V17.4517C43.9879 16.7225 43.7985 16.152 43.4197 15.7401C43.0457 15.3281 42.5272 15.1222 41.8643 15.1222C41.4145 15.1222 41.0144 15.2216 40.6641 15.4205C40.3184 15.6146 40.0462 15.8963 39.8473 16.2656C39.6532 16.6349 39.5561 17.0824 39.5561 17.608ZM52.3118 24.2202C51.6205 24.2202 50.9979 24.0971 50.4439 23.8509C49.8946 23.5999 49.459 23.2306 49.1371 22.7429C48.8198 22.2552 48.6612 21.6539 48.6612 20.9389C48.6612 20.3234 48.7749 19.8144 49.0021 19.4119C49.2294 19.0095 49.5395 18.6875 49.9325 18.446C50.3255 18.2045 50.7682 18.0223 51.2607 17.8991C51.7578 17.7713 52.2715 17.679 52.8018 17.6222C53.4411 17.5559 53.9595 17.4967 54.3572 17.4446C54.755 17.3878 55.0438 17.3026 55.2237 17.1889C55.4084 17.0705 55.5007 16.8883 55.5007 16.642V16.5994C55.5007 16.0644 55.3421 15.6501 55.0249 15.3565C54.7076 15.063 54.2507 14.9162 53.6541 14.9162C53.0244 14.9162 52.5249 15.0535 52.1555 15.3281C51.791 15.6027 51.5447 15.9271 51.4169 16.3011L49.0163 15.9602C49.2057 15.2973 49.5182 14.7434 49.9538 14.2983C50.3894 13.8485 50.9221 13.5123 51.5518 13.2898C52.1816 13.0625 52.8776 12.9489 53.6399 12.9489C54.1655 12.9489 54.6887 13.0104 55.2095 13.1335C55.7304 13.2566 56.2062 13.4602 56.6371 13.7443C57.0679 14.0237 57.4136 14.4048 57.674 14.8878C57.9392 15.3707 58.0717 15.9744 58.0717 16.6989V24H55.6001V22.5014H55.5149C55.3587 22.8045 55.1385 23.0885 54.8544 23.3537C54.575 23.6141 54.2223 23.8248 53.7962 23.9858C53.3748 24.142 52.88 24.2202 52.3118 24.2202ZM52.9794 22.331C53.4955 22.331 53.9429 22.2292 54.3217 22.0256C54.7005 21.8172 54.9917 21.5426 55.1953 21.2017C55.4036 20.8608 55.5078 20.4891 55.5078 20.0866V18.8011C55.4273 18.8674 55.29 18.929 55.0959 18.9858C54.9065 19.0426 54.6934 19.0923 54.4567 19.1349C54.2199 19.1776 53.9856 19.2154 53.7536 19.2486C53.5215 19.2817 53.3203 19.3101 53.1499 19.3338C52.7663 19.3859 52.4231 19.4711 52.12 19.5895C51.817 19.7079 51.5779 19.8736 51.4027 20.0866C51.2275 20.295 51.1399 20.5649 51.1399 20.8963C51.1399 21.3698 51.3127 21.7273 51.6584 21.9688C52.004 22.2102 52.4444 22.331 52.9794 22.331ZM73.6364 13.4531C73.5701 12.8329 73.2907 12.3499 72.7983 12.0043C72.3106 11.6586 71.6761 11.4858 70.8949 11.4858C70.3456 11.4858 69.8745 11.5687 69.4815 11.7344C69.0885 11.9001 68.7879 12.125 68.5795 12.4091C68.3712 12.6932 68.2647 13.0175 68.2599 13.3821C68.2599 13.6851 68.3286 13.9479 68.4659 14.1705C68.608 14.393 68.7997 14.5824 69.0412 14.7386C69.2827 14.8902 69.5502 15.018 69.8438 15.1222C70.1373 15.2263 70.4332 15.3139 70.7315 15.3849L72.0952 15.7259C72.6444 15.8537 73.1723 16.0265 73.679 16.2443C74.1903 16.4621 74.6473 16.7367 75.0497 17.0682C75.4569 17.3996 75.7789 17.7997 76.0156 18.2685C76.2524 18.7372 76.3707 19.2865 76.3707 19.9162C76.3707 20.7685 76.1529 21.5189 75.7173 22.1676C75.2817 22.8116 74.652 23.3158 73.8281 23.6804C73.009 24.0402 72.017 24.2202 70.8523 24.2202C69.7206 24.2202 68.7382 24.045 67.9048 23.6946C67.0762 23.3442 66.4276 22.8329 65.9588 22.1605C65.4948 21.4882 65.2438 20.669 65.206 19.7031H67.7983C67.8362 20.2098 67.9924 20.6312 68.267 20.9673C68.5417 21.3035 68.8991 21.5545 69.3395 21.7202C69.7846 21.8859 70.2817 21.9688 70.831 21.9688C71.4039 21.9688 71.9058 21.8835 72.3366 21.7131C72.7723 21.5379 73.1132 21.2964 73.3594 20.9886C73.6056 20.6761 73.7311 20.3116 73.7358 19.8949C73.7311 19.5161 73.6198 19.2036 73.402 18.9574C73.1842 18.7064 72.8788 18.4981 72.4858 18.3324C72.0975 18.1619 71.643 18.0104 71.1222 17.8778L69.4673 17.4517C68.2694 17.1439 67.3224 16.6776 66.6264 16.0526C65.9351 15.4228 65.5895 14.5871 65.5895 13.5455C65.5895 12.6884 65.8215 11.938 66.2855 11.294C66.7543 10.6501 67.3911 10.1506 68.196 9.79545C69.0009 9.43561 69.9124 9.25568 70.9304 9.25568C71.9626 9.25568 72.867 9.43561 73.6435 9.79545C74.4247 10.1506 75.0379 10.6454 75.483 11.2798C75.928 11.9096 76.1577 12.634 76.1719 13.4531H73.6364ZM80.9499 20.5767L80.9428 17.473H81.3548L85.2752 13.0909H88.2795L83.457 18.4602H82.9244L80.9499 20.5767ZM78.6062 24V9.45455H81.1772V24H78.6062ZM85.4528 24L81.9016 19.0355L83.6346 17.2244L88.5281 24H85.4528ZM91.7081 28.0909C91.3577 28.0909 91.0334 28.0625 90.7351 28.0057C90.4415 27.9536 90.2071 27.892 90.032 27.821L90.6286 25.8182C91.0026 25.9271 91.3364 25.9792 91.63 25.9744C91.9235 25.9697 92.1816 25.8774 92.4041 25.6974C92.6314 25.5223 92.8232 25.2287 92.9794 24.8168L93.1996 24.2273L89.2436 13.0909H91.9709L94.4851 21.3295H94.5987L97.12 13.0909H99.8544L95.4865 25.321C95.2829 25.8987 95.013 26.3935 94.6768 26.8054C94.3407 27.2221 93.9287 27.5393 93.4411 27.7571C92.9581 27.9796 92.3804 28.0909 91.7081 28.0909ZM104.205 9.45455V24H101.634V9.45455H104.205ZM109.988 24.2202C109.296 24.2202 108.674 24.0971 108.12 23.8509C107.57 23.5999 107.135 23.2306 106.813 22.7429C106.496 22.2552 106.337 21.6539 106.337 20.9389C106.337 20.3234 106.451 19.8144 106.678 19.4119C106.905 19.0095 107.215 18.6875 107.608 18.446C108.001 18.2045 108.444 18.0223 108.936 17.8991C109.434 17.7713 109.947 17.679 110.478 17.6222C111.117 17.5559 111.635 17.4967 112.033 17.4446C112.431 17.3878 112.72 17.3026 112.9 17.1889C113.084 17.0705 113.176 16.8883 113.176 16.642V16.5994C113.176 16.0644 113.018 15.6501 112.701 15.3565C112.383 15.063 111.926 14.9162 111.33 14.9162C110.7 14.9162 110.201 15.0535 109.831 15.3281C109.467 15.6027 109.221 15.9271 109.093 16.3011L106.692 15.9602C106.882 15.2973 107.194 14.7434 107.63 14.2983C108.065 13.8485 108.598 13.5123 109.228 13.2898C109.857 13.0625 110.553 12.9489 111.316 12.9489C111.841 12.9489 112.364 13.0104 112.885 13.1335C113.406 13.2566 113.882 13.4602 114.313 13.7443C114.744 14.0237 115.089 14.4048 115.35 14.8878C115.615 15.3707 115.748 15.9744 115.748 16.6989V24H113.276V22.5014H113.191C113.034 22.8045 112.814 23.0885 112.53 23.3537C112.251 23.6141 111.898 23.8248 111.472 23.9858C111.051 24.142 110.556 24.2202 109.988 24.2202ZM110.655 22.331C111.171 22.331 111.619 22.2292 111.998 22.0256C112.376 21.8172 112.667 21.5426 112.871 21.2017C113.079 20.8608 113.184 20.4891 113.184 20.0866V18.8011C113.103 18.8674 112.966 18.929 112.772 18.9858C112.582 19.0426 112.369 19.0923 112.132 19.1349C111.896 19.1776 111.661 19.2154 111.429 19.2486C111.197 19.2817 110.996 19.3101 110.826 19.3338C110.442 19.3859 110.099 19.4711 109.796 19.5895C109.493 19.7079 109.254 19.8736 109.078 20.0866C108.903 20.295 108.816 20.5649 108.816 20.8963C108.816 21.3698 108.989 21.7273 109.334 21.9688C109.68 22.2102 110.12 22.331 110.655 22.331ZM120.904 17.608V24H118.333V13.0909H120.79V14.9446H120.918C121.169 14.3338 121.569 13.8485 122.118 13.4886C122.672 13.1288 123.356 12.9489 124.171 12.9489C124.924 12.9489 125.579 13.1098 126.138 13.4318C126.702 13.7538 127.137 14.2202 127.445 14.831C127.757 15.4418 127.911 16.1828 127.907 17.054V24H125.336V17.4517C125.336 16.7225 125.146 16.152 124.767 15.7401C124.393 15.3281 123.875 15.1222 123.212 15.1222C122.762 15.1222 122.362 15.2216 122.012 15.4205C121.666 15.6146 121.394 15.8963 121.195 16.2656C121.001 16.6349 120.904 17.0824 120.904 17.608ZM134.569 24.1918C133.712 24.1918 132.944 23.9716 132.267 23.5312C131.59 23.0909 131.055 22.4517 130.662 21.6136C130.269 20.7756 130.073 19.7576 130.073 18.5597C130.073 17.3475 130.272 16.3248 130.669 15.4915C131.072 14.6534 131.614 14.0213 132.296 13.5952C132.978 13.1643 133.738 12.9489 134.576 12.9489C135.215 12.9489 135.74 13.0578 136.152 13.2756C136.564 13.4886 136.891 13.7467 137.132 14.0497C137.374 14.348 137.561 14.6297 137.694 14.8949H137.8V9.45455H140.378V24H137.85V22.2812H137.694C137.561 22.5464 137.369 22.8281 137.118 23.1264C136.867 23.42 136.536 23.6709 136.124 23.8793C135.712 24.0876 135.194 24.1918 134.569 24.1918ZM135.286 22.0824C135.83 22.0824 136.294 21.9356 136.678 21.642C137.061 21.3437 137.353 20.9295 137.551 20.3991C137.75 19.8688 137.85 19.2509 137.85 18.5455C137.85 17.84 137.75 17.2268 137.551 16.706C137.357 16.1851 137.069 15.7803 136.685 15.4915C136.306 15.2027 135.84 15.0582 135.286 15.0582C134.713 15.0582 134.235 15.2074 133.851 15.5057C133.468 15.804 133.179 16.2159 132.985 16.7415C132.791 17.267 132.694 17.8684 132.694 18.5455C132.694 19.2273 132.791 19.8357 132.985 20.3707C133.184 20.901 133.475 21.3201 133.858 21.6278C134.247 21.9309 134.722 22.0824 135.286 22.0824ZM147.947 24.2131C146.854 24.2131 145.909 23.9858 145.114 23.5312C144.323 23.072 143.714 22.4233 143.288 21.5852C142.862 20.7424 142.649 19.7505 142.649 18.6094C142.649 17.4872 142.862 16.5024 143.288 15.6548C143.719 14.8026 144.321 14.1397 145.092 13.6662C145.864 13.188 146.771 12.9489 147.812 12.9489C148.485 12.9489 149.119 13.0578 149.716 13.2756C150.317 13.4886 150.848 13.8201 151.307 14.2699C151.771 14.7197 152.135 15.2926 152.401 15.9886C152.666 16.6799 152.798 17.5038 152.798 18.4602V19.2486H143.857V17.5156H150.334C150.329 17.0232 150.223 16.5852 150.014 16.2017C149.806 15.8134 149.515 15.508 149.141 15.2855C148.771 15.063 148.34 14.9517 147.848 14.9517C147.322 14.9517 146.861 15.0795 146.463 15.3352C146.065 15.5862 145.755 15.9176 145.533 16.3295C145.315 16.7367 145.204 17.1842 145.199 17.6719V19.1847C145.199 19.8191 145.315 20.3636 145.547 20.8182C145.779 21.268 146.103 21.6136 146.52 21.8551C146.937 22.0919 147.424 22.2102 147.983 22.2102C148.357 22.2102 148.696 22.1581 148.999 22.054C149.302 21.9451 149.564 21.7865 149.787 21.5781C150.009 21.3698 150.178 21.1117 150.291 20.804L152.692 21.0739C152.54 21.7083 152.251 22.2623 151.825 22.7358C151.404 23.2045 150.864 23.5691 150.206 23.8295C149.548 24.0852 148.795 24.2131 147.947 24.2131ZM154.973 24V13.0909H157.466V14.9091H157.58C157.779 14.2794 158.12 13.794 158.603 13.4531C159.09 13.1075 159.647 12.9347 160.272 12.9347C160.414 12.9347 160.572 12.9418 160.748 12.956C160.927 12.9654 161.077 12.982 161.195 13.0057V15.3707C161.086 15.3329 160.913 15.2997 160.676 15.2713C160.444 15.2382 160.22 15.2216 160.002 15.2216C159.533 15.2216 159.112 15.3234 158.738 15.527C158.368 15.7259 158.077 16.0028 157.864 16.358C157.651 16.7131 157.544 17.1226 157.544 17.5866V24H154.973ZM167.978 24V9.45455H170.613V21.7912H177.019V24H167.978ZM182.331 24.2202C181.64 24.2202 181.017 24.0971 180.463 23.8509C179.914 23.5999 179.479 23.2306 179.157 22.7429C178.839 22.2552 178.681 21.6539 178.681 20.9389C178.681 20.3234 178.794 19.8144 179.022 19.4119C179.249 19.0095 179.559 18.6875 179.952 18.446C180.345 18.2045 180.788 18.0223 181.28 17.8991C181.777 17.7713 182.291 17.679 182.821 17.6222C183.461 17.5559 183.979 17.4967 184.377 17.4446C184.775 17.3878 185.063 17.3026 185.243 17.1889C185.428 17.0705 185.52 16.8883 185.52 16.642V16.5994C185.52 16.0644 185.362 15.6501 185.044 15.3565C184.727 15.063 184.27 14.9162 183.674 14.9162C183.044 14.9162 182.544 15.0535 182.175 15.3281C181.81 15.6027 181.564 15.9271 181.436 16.3011L179.036 15.9602C179.225 15.2973 179.538 14.7434 179.973 14.2983C180.409 13.8485 180.942 13.5123 181.571 13.2898C182.201 13.0625 182.897 12.9489 183.659 12.9489C184.185 12.9489 184.708 13.0104 185.229 13.1335C185.75 13.2566 186.226 13.4602 186.657 13.7443C187.087 14.0237 187.433 14.4048 187.694 14.8878C187.959 15.3707 188.091 15.9744 188.091 16.6989V24H185.62V22.5014H185.534C185.378 22.8045 185.158 23.0885 184.874 23.3537C184.595 23.6141 184.242 23.8248 183.816 23.9858C183.394 24.142 182.9 24.2202 182.331 24.2202ZM182.999 22.331C183.515 22.331 183.962 22.2292 184.341 22.0256C184.72 21.8172 185.011 21.5426 185.215 21.2017C185.423 20.8608 185.527 20.4891 185.527 20.0866V18.8011C185.447 18.8674 185.31 18.929 185.115 18.9858C184.926 19.0426 184.713 19.0923 184.476 19.1349C184.239 19.1776 184.005 19.2154 183.773 19.2486C183.541 19.2817 183.34 19.3101 183.169 19.3338C182.786 19.3859 182.443 19.4711 182.14 19.5895C181.837 19.7079 181.597 19.8736 181.422 20.0866C181.247 20.295 181.159 20.5649 181.159 20.8963C181.159 21.3698 181.332 21.7273 181.678 21.9688C182.024 22.2102 182.464 22.331 182.999 22.331ZM191.884 28.0909C191.533 28.0909 191.209 28.0625 190.911 28.0057C190.617 27.9536 190.383 27.892 190.208 27.821L190.804 25.8182C191.178 25.9271 191.512 25.9792 191.806 25.9744C192.099 25.9697 192.357 25.8774 192.58 25.6974C192.807 25.5223 192.999 25.2287 193.155 24.8168L193.375 24.2273L189.419 13.0909H192.147L194.661 21.3295H194.775L197.296 13.0909H200.03L195.662 25.321C195.459 25.8987 195.189 26.3935 194.853 26.8054C194.516 27.2221 194.105 27.5393 193.617 27.7571C193.134 27.9796 192.556 28.0909 191.884 28.0909ZM206.197 24.2131C205.131 24.2131 204.208 23.9787 203.427 23.5099C202.646 23.0412 202.04 22.3854 201.609 21.5426C201.183 20.6998 200.969 19.715 200.969 18.5881C200.969 17.4612 201.183 16.474 201.609 15.6264C202.04 14.7789 202.646 14.1207 203.427 13.652C204.208 13.1832 205.131 12.9489 206.197 12.9489C207.262 12.9489 208.185 13.1832 208.967 13.652C209.748 14.1207 210.352 14.7789 210.778 15.6264C211.209 16.474 211.424 17.4612 211.424 18.5881C211.424 19.715 211.209 20.6998 210.778 21.5426C210.352 22.3854 209.748 23.0412 208.967 23.5099C208.185 23.9787 207.262 24.2131 206.197 24.2131ZM206.211 22.1534C206.789 22.1534 207.272 21.9948 207.66 21.6776C208.048 21.3556 208.337 20.9247 208.526 20.3849C208.72 19.8452 208.817 19.2438 208.817 18.581C208.817 17.9134 208.72 17.3097 208.526 16.7699C208.337 16.2254 208.048 15.7921 207.66 15.4702C207.272 15.1482 206.789 14.9872 206.211 14.9872C205.619 14.9872 205.127 15.1482 204.734 15.4702C204.345 15.7921 204.054 16.2254 203.86 16.7699C203.671 17.3097 203.576 17.9134 203.576 18.581C203.576 19.2438 203.671 19.8452 203.86 20.3849C204.054 20.9247 204.345 21.3556 204.734 21.6776C205.127 21.9948 205.619 22.1534 206.211 22.1534ZM220.559 19.4119V13.0909H223.13V24H220.637V22.0611H220.524C220.278 22.6719 219.873 23.1714 219.309 23.5597C218.751 23.9479 218.062 24.142 217.243 24.142C216.528 24.142 215.895 23.9834 215.346 23.6662C214.802 23.3442 214.376 22.8778 214.068 22.267C213.76 21.6515 213.606 20.9081 213.606 20.0369V13.0909H216.177V19.6392C216.177 20.3305 216.367 20.8797 216.745 21.2869C217.124 21.6941 217.621 21.8977 218.237 21.8977C218.616 21.8977 218.983 21.8054 219.338 21.6207C219.693 21.4361 219.984 21.1615 220.211 20.7969C220.443 20.4276 220.559 19.9659 220.559 19.4119ZM231.222 13.0909V15.0795H224.95V13.0909H231.222ZM226.499 10.4773H229.07V20.7188C229.07 21.0644 229.122 21.3295 229.226 21.5142C229.335 21.6941 229.477 21.8172 229.652 21.8835C229.827 21.9498 230.021 21.983 230.234 21.983C230.395 21.983 230.542 21.9711 230.675 21.9474C230.812 21.9238 230.916 21.9025 230.987 21.8835L231.42 23.8935C231.283 23.9408 231.087 23.9929 230.831 24.0497C230.58 24.1065 230.272 24.1397 229.908 24.1491C229.264 24.1681 228.684 24.071 228.168 23.858C227.652 23.6402 227.242 23.304 226.939 22.8494C226.641 22.3949 226.494 21.8267 226.499 21.1449V10.4773Z" fill="white"/>
</svg>
