<svg width="116" height="39" viewBox="0 0 116 39" fill="none" xmlns="http://www.w3.org/2000/svg">
<path d="M14.3409 14.7045C14.2652 13.8712 13.928 13.2235 13.3295 12.7614C12.7386 12.2917 11.8939 12.0568 10.7955 12.0568C10.0682 12.0568 9.46212 12.1515 8.97727 12.3409C8.49242 12.5303 8.12879 12.7917 7.88636 13.125C7.64394 13.4508 7.51894 13.8258 7.51136 14.25C7.49621 14.5985 7.56439 14.9053 7.71591 15.1705C7.875 15.4356 8.10227 15.6705 8.39773 15.875C8.70076 16.072 9.06439 16.2462 9.48864 16.3977C9.91288 16.5492 10.3902 16.6818 10.9205 16.7955L12.9205 17.25C14.072 17.5 15.0871 17.8333 15.9659 18.25C16.8523 18.6667 17.5947 19.1629 18.1932 19.7386C18.7992 20.3144 19.2576 20.9773 19.5682 21.7273C19.8788 22.4773 20.0379 23.3182 20.0455 24.25C20.0379 25.7197 19.6667 26.9811 18.9318 28.0341C18.197 29.0871 17.1402 29.8939 15.7614 30.4545C14.3902 31.0152 12.7348 31.2955 10.7955 31.2955C8.84848 31.2955 7.15152 31.0038 5.70455 30.4205C4.25758 29.8371 3.13258 28.9508 2.32955 27.7614C1.52652 26.572 1.11364 25.0682 1.09091 23.25H6.47727C6.52273 24 6.72349 24.625 7.07955 25.125C7.43561 25.625 7.92424 26.0038 8.54545 26.2614C9.17424 26.5189 9.90152 26.6477 10.7273 26.6477C11.4848 26.6477 12.1288 26.5455 12.6591 26.3409C13.197 26.1364 13.6098 25.8523 13.8977 25.4886C14.1856 25.125 14.3333 24.7083 14.3409 24.2386C14.3333 23.7992 14.197 23.4242 13.9318 23.1136C13.6667 22.7955 13.2576 22.5227 12.7045 22.2955C12.1591 22.0606 11.4621 21.8447 10.6136 21.6477L8.18182 21.0795C6.16667 20.6174 4.57955 19.8712 3.42045 18.8409C2.26136 17.803 1.68561 16.4015 1.69318 14.6364C1.68561 13.197 2.07197 11.9356 2.85227 10.8523C3.63258 9.76894 4.71212 8.92424 6.09091 8.31818C7.4697 7.71212 9.04167 7.40909 10.8068 7.40909C12.6098 7.40909 14.1742 7.71591 15.5 8.32954C16.8333 8.93561 17.8674 9.78788 18.6023 10.8864C19.3371 11.9848 19.7121 13.2576 19.7273 14.7045H14.3409ZM27.8977 26.4205L27.9205 19.7955H28.6932L33.6023 13.5455H39.8977L32.6023 22.5H31.1364L27.8977 26.4205ZM22.8864 31V7.72727H28.4432V31H22.8864ZM33.7273 31L29.1591 23.75L32.8182 19.8068L40.1477 31H33.7273ZM41.8864 31V13.5455H47.4432V31H41.8864ZM44.6705 11.5114C43.8902 11.5114 43.2197 11.2538 42.6591 10.7386C42.0985 10.2159 41.8182 9.58712 41.8182 8.85227C41.8182 8.125 42.0985 7.50379 42.6591 6.98864C43.2197 6.46591 43.8902 6.20454 44.6705 6.20454C45.4583 6.20454 46.1288 6.46591 46.6818 6.98864C47.2424 7.50379 47.5227 8.125 47.5227 8.85227C47.5227 9.58712 47.2424 10.2159 46.6818 10.7386C46.1288 11.2538 45.4583 11.5114 44.6705 11.5114ZM56.5369 7.72727V31H50.9801V7.72727H56.5369ZM65.6307 7.72727V31H60.0739V7.72727H65.6307ZM84.4062 18.875L79.304 19.0114C79.2509 18.6477 79.107 18.3258 78.8722 18.0455C78.6373 17.7576 78.3305 17.5341 77.9517 17.375C77.5805 17.2083 77.1487 17.125 76.6562 17.125C76.0123 17.125 75.4631 17.2538 75.0085 17.5114C74.5616 17.7689 74.3419 18.1174 74.3494 18.5568C74.3419 18.8977 74.4782 19.1932 74.7585 19.4432C75.0464 19.6932 75.5578 19.8939 76.2926 20.0455L79.6562 20.6818C81.3987 21.0152 82.6941 21.5682 83.5426 22.3409C84.3987 23.1136 84.8305 24.1364 84.8381 25.4091C84.8305 26.6061 84.4744 27.6477 83.7699 28.5341C83.0729 29.4205 82.1184 30.1098 80.9062 30.6023C79.6941 31.0871 78.3078 31.3295 76.7472 31.3295C74.2547 31.3295 72.2888 30.8182 70.8494 29.7955C69.4176 28.7652 68.5994 27.3864 68.3949 25.6591L73.8835 25.5227C74.0047 26.1591 74.3191 26.6439 74.8267 26.9773C75.3343 27.3106 75.982 27.4773 76.7699 27.4773C77.482 27.4773 78.0616 27.3447 78.5085 27.0795C78.9555 26.8144 79.1828 26.4621 79.1903 26.0227C79.1828 25.6288 79.0085 25.3144 78.6676 25.0795C78.3267 24.8371 77.7926 24.6477 77.0653 24.5114L74.0199 23.9318C72.2699 23.6136 70.9669 23.0265 70.1108 22.1705C69.2547 21.3068 68.8305 20.2083 68.8381 18.875C68.8305 17.7083 69.1411 16.7121 69.7699 15.8864C70.3987 15.053 71.2926 14.4167 72.4517 13.9773C73.6108 13.5379 74.9782 13.3182 76.554 13.3182C78.9176 13.3182 80.7813 13.8144 82.1449 14.8068C83.5085 15.7917 84.2623 17.1477 84.4062 18.875Z" fill="white"/>
<path d="M96 16.1252C96 14.4533 96.4088 12.8073 97.1901 11.3344C97.9714 9.86143 99.1008 8.6073 100.478 7.68398C101.854 6.76066 103.435 6.19688 105.08 6.04298C106.724 5.88909 108.38 6.14987 109.901 6.80205C111.421 7.45422 112.759 8.47748 113.793 9.78047C114.828 11.0835 115.528 12.6256 115.831 14.2692C116.133 15.9128 116.029 17.6068 115.528 19.1997C115.026 20.7927 114.143 22.2351 112.957 23.3982C112.618 23.729 112.358 24.0732 112.202 24.4428L110.932 27.4279C110.867 27.5792 110.76 27.7081 110.625 27.7987C110.489 27.8892 110.329 27.9375 110.167 27.9376H101.833C101.67 27.9378 101.511 27.8897 101.375 27.7991C101.238 27.7086 101.131 27.5795 101.067 27.4279L99.7983 24.4411C99.6167 24.0467 99.3602 23.6923 99.0433 23.3982C98.0794 22.4552 97.3131 21.3251 96.7902 20.0755C96.2673 18.8259 95.9985 17.4824 96 16.1252ZM101 30.4688C101 30.245 101.088 30.0304 101.244 29.8722C101.4 29.7139 101.612 29.625 101.833 29.625H110.167C110.388 29.625 110.6 29.7139 110.756 29.8722C110.912 30.0304 111 30.245 111 30.4688C111 30.6926 110.912 30.9072 110.756 31.0654C110.6 31.2236 110.388 31.3125 110.167 31.3125L109.793 32.0668C109.655 32.3471 109.442 32.5828 109.179 32.7476C108.916 32.9124 108.613 32.9998 108.303 33H103.697C103.387 32.9998 103.084 32.9124 102.821 32.7476C102.558 32.5828 102.345 32.3471 102.207 32.0668L101.833 31.3125C101.612 31.3125 101.4 31.2236 101.244 31.0654C101.088 30.9072 101 30.6926 101 30.4688Z" fill="white"/>
</svg>
