<svg width="232" height="39" viewBox="0 0 232 39" fill="none" xmlns="http://www.w3.org/2000/svg">
<path d="M14.3409 14.7045C14.2652 13.8712 13.928 13.2235 13.3295 12.7614C12.7386 12.2917 11.8939 12.0568 10.7955 12.0568C10.0682 12.0568 9.46212 12.1515 8.97727 12.3409C8.49242 12.5303 8.12879 12.7917 7.88636 13.125C7.64394 13.4508 7.51894 13.8258 7.51136 14.25C7.49621 14.5985 7.56439 14.9053 7.71591 15.1705C7.875 15.4356 8.10227 15.6705 8.39773 15.875C8.70076 16.072 9.06439 16.2462 9.48864 16.3977C9.91288 16.5492 10.3902 16.6818 10.9205 16.7955L12.9205 17.25C14.072 17.5 15.0871 17.8333 15.9659 18.25C16.8523 18.6667 17.5947 19.1629 18.1932 19.7386C18.7992 20.3144 19.2576 20.9773 19.5682 21.7273C19.8788 22.4773 20.0379 23.3182 20.0455 24.25C20.0379 25.7197 19.6667 26.9811 18.9318 28.0341C18.197 29.0871 17.1402 29.8939 15.7614 30.4545C14.3902 31.0152 12.7348 31.2955 10.7955 31.2955C8.84848 31.2955 7.15152 31.0038 5.70455 30.4205C4.25758 29.8371 3.13258 28.9508 2.32955 27.7614C1.52652 26.572 1.11364 25.0682 1.09091 23.25H6.47727C6.52273 24 6.72349 24.625 7.07955 25.125C7.43561 25.625 7.92424 26.0038 8.54545 26.2614C9.17424 26.5189 9.90152 26.6477 10.7273 26.6477C11.4848 26.6477 12.1288 26.5455 12.6591 26.3409C13.197 26.1364 13.6098 25.8523 13.8977 25.4886C14.1856 25.125 14.3333 24.7083 14.3409 24.2386C14.3333 23.7992 14.197 23.4242 13.9318 23.1136C13.6667 22.7955 13.2576 22.5227 12.7045 22.2955C12.1591 22.0606 11.4621 21.8447 10.6136 21.6477L8.18182 21.0795C6.16667 20.6174 4.57955 19.8712 3.42045 18.8409C2.26136 17.803 1.68561 16.4015 1.69318 14.6364C1.68561 13.197 2.07197 11.9356 2.85227 10.8523C3.63258 9.76894 4.71212 8.92424 6.09091 8.31818C7.4697 7.71212 9.04167 7.40909 10.8068 7.40909C12.6098 7.40909 14.1742 7.71591 15.5 8.32954C16.8333 8.93561 17.8674 9.78788 18.6023 10.8864C19.3371 11.9848 19.7121 13.2576 19.7273 14.7045H14.3409ZM31.0341 31.3295C29.2008 31.3295 27.625 30.9545 26.3068 30.2045C24.9962 29.447 23.9848 28.3939 23.2727 27.0455C22.5682 25.6894 22.2159 24.1174 22.2159 22.3295C22.2159 20.5341 22.5682 18.9621 23.2727 17.6136C23.9848 16.2576 24.9962 15.2045 26.3068 14.4545C27.625 13.697 29.2008 13.3182 31.0341 13.3182C32.8674 13.3182 34.4394 13.697 35.75 14.4545C37.0682 15.2045 38.0795 16.2576 38.7841 17.6136C39.4962 18.9621 39.8523 20.5341 39.8523 22.3295C39.8523 24.1174 39.4962 25.6894 38.7841 27.0455C38.0795 28.3939 37.0682 29.447 35.75 30.2045C34.4394 30.9545 32.8674 31.3295 31.0341 31.3295ZM31.0682 27.1364C31.7348 27.1364 32.2992 26.9318 32.7614 26.5227C33.2235 26.1136 33.5758 25.5455 33.8182 24.8182C34.0682 24.0909 34.1932 23.25 34.1932 22.2955C34.1932 21.3258 34.0682 20.4773 33.8182 19.75C33.5758 19.0227 33.2235 18.4545 32.7614 18.0455C32.2992 17.6364 31.7348 17.4318 31.0682 17.4318C30.3788 17.4318 29.7955 17.6364 29.3182 18.0455C28.8485 18.4545 28.4886 19.0227 28.2386 19.75C27.9962 20.4773 27.875 21.3258 27.875 22.2955C27.875 23.25 27.9962 24.0909 28.2386 24.8182C28.4886 25.5455 28.8485 26.1136 29.3182 26.5227C29.7955 26.9318 30.3788 27.1364 31.0682 27.1364ZM50.8466 31.3295C49.0057 31.3295 47.4261 30.9508 46.108 30.1932C44.7973 29.4356 43.7898 28.3826 43.0852 27.0341C42.3807 25.678 42.0284 24.1098 42.0284 22.3295C42.0284 20.5417 42.3807 18.9735 43.0852 17.625C43.7973 16.2689 44.8087 15.2121 46.1193 14.4545C47.4375 13.697 49.0095 13.3182 50.8352 13.3182C52.4489 13.3182 53.8542 13.6098 55.0511 14.1932C56.2557 14.7765 57.1951 15.6023 57.8693 16.6705C58.5511 17.7311 58.911 18.9773 58.9489 20.4091H53.7557C53.6496 19.5152 53.3466 18.8144 52.8466 18.3068C52.3542 17.7992 51.7102 17.5455 50.9148 17.5455C50.2708 17.5455 49.7064 17.7273 49.2216 18.0909C48.7367 18.447 48.358 18.9773 48.0852 19.6818C47.8201 20.3788 47.6875 21.2424 47.6875 22.2727C47.6875 23.303 47.8201 24.1742 48.0852 24.8864C48.358 25.5909 48.7367 26.125 49.2216 26.4886C49.7064 26.8447 50.2708 27.0227 50.9148 27.0227C51.4299 27.0227 51.8845 26.9129 52.2784 26.6932C52.6799 26.4735 53.0095 26.1515 53.267 25.7273C53.5246 25.2955 53.6875 24.7727 53.7557 24.1591H58.9489C58.8958 25.5985 58.536 26.8561 57.8693 27.9318C57.2102 29.0076 56.2822 29.8447 55.0852 30.4432C53.8958 31.0341 52.483 31.3295 50.8466 31.3295ZM61.7926 31V13.5455H67.3494V31H61.7926ZM64.5767 11.5114C63.7964 11.5114 63.1259 11.2538 62.5653 10.7386C62.0047 10.2159 61.7244 9.58712 61.7244 8.85227C61.7244 8.125 62.0047 7.50379 62.5653 6.98864C63.1259 6.46591 63.7964 6.20454 64.5767 6.20454C65.3646 6.20454 66.035 6.46591 66.5881 6.98864C67.1487 7.50379 67.429 8.125 67.429 8.85227C67.429 9.58712 67.1487 10.2159 66.5881 10.7386C66.035 11.2538 65.3646 11.5114 64.5767 11.5114ZM75.8068 31.2955C74.6932 31.2955 73.7045 31.1098 72.8409 30.7386C71.9848 30.3598 71.3068 29.7917 70.8068 29.0341C70.3144 28.2689 70.0682 27.3106 70.0682 26.1591C70.0682 25.1894 70.2386 24.3712 70.5795 23.7045C70.9205 23.0379 71.3902 22.4962 71.9886 22.0795C72.5871 21.6629 73.2765 21.3485 74.0568 21.1364C74.8371 20.9167 75.6705 20.7689 76.5568 20.6932C77.5492 20.6023 78.3485 20.5076 78.9545 20.4091C79.5606 20.303 80 20.1553 80.2727 19.9659C80.553 19.7689 80.6932 19.4924 80.6932 19.1364V19.0795C80.6932 18.4962 80.4924 18.0455 80.0909 17.7273C79.6894 17.4091 79.1477 17.25 78.4659 17.25C77.7311 17.25 77.1402 17.4091 76.6932 17.7273C76.2462 18.0455 75.9621 18.4848 75.8409 19.0455L70.7159 18.8636C70.8674 17.803 71.2576 16.8561 71.8864 16.0227C72.5227 15.1818 73.3939 14.5227 74.5 14.0455C75.6136 13.5606 76.9508 13.3182 78.5114 13.3182C79.625 13.3182 80.6515 13.4508 81.5909 13.7159C82.5303 13.9735 83.3485 14.3523 84.0455 14.8523C84.7424 15.3447 85.2803 15.9508 85.6591 16.6705C86.0455 17.3902 86.2386 18.2121 86.2386 19.1364V31H81.0114V28.5682H80.875C80.5644 29.1591 80.1667 29.6591 79.6818 30.0682C79.2045 30.4773 78.6402 30.7841 77.9886 30.9886C77.3447 31.1932 76.6174 31.2955 75.8068 31.2955ZM77.5227 27.6591C78.1212 27.6591 78.6591 27.5379 79.1364 27.2955C79.6212 27.053 80.0076 26.7197 80.2955 26.2955C80.5833 25.8636 80.7273 25.3636 80.7273 24.7955V23.1364C80.5682 23.2197 80.375 23.2955 80.1477 23.3636C79.928 23.4318 79.6856 23.4962 79.4205 23.5568C79.1553 23.6174 78.8826 23.6705 78.6023 23.7159C78.322 23.7614 78.053 23.803 77.7955 23.8409C77.2727 23.9242 76.8258 24.053 76.4545 24.2273C76.0909 24.4015 75.8106 24.6288 75.6136 24.9091C75.4242 25.1818 75.3295 25.5076 75.3295 25.8864C75.3295 26.4621 75.5341 26.9015 75.9432 27.2045C76.3598 27.5076 76.8864 27.6591 77.5227 27.6591ZM95.1932 7.72727V31H89.6364V7.72727H95.1932ZM105.605 31V13.5455H110.889V16.75H111.082C111.446 15.6894 112.06 14.8523 112.923 14.2386C113.787 13.625 114.817 13.3182 116.014 13.3182C117.226 13.3182 118.264 13.6288 119.128 14.25C119.991 14.8712 120.541 15.7045 120.776 16.75H120.957C121.283 15.7121 121.92 14.8826 122.866 14.2614C123.813 13.6326 124.931 13.3182 126.219 13.3182C127.87 13.3182 129.211 13.8485 130.241 14.9091C131.272 15.9621 131.787 17.4091 131.787 19.25V31H126.23V20.5227C126.23 19.6515 126.007 18.9886 125.56 18.5341C125.113 18.072 124.533 17.8409 123.821 17.8409C123.056 17.8409 122.454 18.0909 122.014 18.5909C121.582 19.0833 121.366 19.7462 121.366 20.5795V31H116.026V20.4659C116.026 19.6553 115.806 19.0152 115.366 18.5455C114.927 18.0758 114.348 17.8409 113.628 17.8409C113.143 17.8409 112.715 17.9583 112.344 18.1932C111.973 18.4205 111.681 18.7462 111.469 19.1705C111.264 19.5947 111.162 20.0947 111.162 20.6705V31H105.605ZM143.389 31.3295C141.563 31.3295 139.988 30.9697 138.662 30.25C137.344 29.5227 136.329 28.4886 135.616 27.1477C134.912 25.7992 134.56 24.197 134.56 22.3409C134.56 20.5379 134.916 18.9621 135.628 17.6136C136.34 16.2576 137.344 15.2045 138.639 14.4545C139.935 13.697 141.461 13.3182 143.219 13.3182C144.461 13.3182 145.598 13.5114 146.628 13.8977C147.658 14.2841 148.548 14.8561 149.298 15.6136C150.048 16.3712 150.632 17.3068 151.048 18.4205C151.465 19.5265 151.673 20.7955 151.673 22.2273V23.6136H136.503V20.3864H146.503C146.495 19.7955 146.355 19.2689 146.082 18.8068C145.81 18.3447 145.435 17.9848 144.957 17.7273C144.488 17.4621 143.946 17.3295 143.332 17.3295C142.711 17.3295 142.154 17.4697 141.662 17.75C141.17 18.0227 140.779 18.3977 140.491 18.875C140.204 19.3447 140.052 19.8788 140.037 20.4773V23.7614C140.037 24.4735 140.177 25.0985 140.457 25.6364C140.738 26.1667 141.135 26.5795 141.651 26.875C142.166 27.1705 142.779 27.3182 143.491 27.3182C143.984 27.3182 144.431 27.25 144.832 27.1136C145.234 26.9773 145.579 26.7765 145.866 26.5114C146.154 26.2462 146.37 25.9205 146.514 25.5341L151.616 25.6818C151.404 26.8258 150.938 27.822 150.219 28.6705C149.507 29.5114 148.571 30.1667 147.412 30.6364C146.253 31.0985 144.912 31.3295 143.389 31.3295ZM160.886 31.25C159.598 31.25 158.428 30.9167 157.375 30.25C156.322 29.5833 155.481 28.5833 154.852 27.25C154.223 25.9167 153.909 24.2614 153.909 22.2841C153.909 20.2311 154.235 18.5417 154.886 17.2159C155.538 15.8902 156.39 14.9091 157.443 14.2727C158.504 13.6364 159.644 13.3182 160.864 13.3182C161.78 13.3182 162.564 13.4773 163.216 13.7955C163.867 14.1061 164.405 14.5076 164.83 15C165.254 15.4924 165.576 16.0038 165.795 16.5341H165.909V7.72727H171.466V31H165.966V28.1705H165.795C165.561 28.7083 165.227 29.2121 164.795 29.6818C164.364 30.1515 163.822 30.5303 163.17 30.8182C162.527 31.1061 161.765 31.25 160.886 31.25ZM162.818 26.9205C163.492 26.9205 164.068 26.7311 164.545 26.3523C165.023 25.9659 165.39 25.4242 165.648 24.7273C165.905 24.0303 166.034 23.2121 166.034 22.2727C166.034 21.3182 165.905 20.4962 165.648 19.8068C165.398 19.1174 165.03 18.5871 164.545 18.2159C164.068 17.8447 163.492 17.6591 162.818 17.6591C162.129 17.6591 161.545 17.8485 161.068 18.2273C160.591 18.6061 160.227 19.1402 159.977 19.8295C159.735 20.5189 159.614 21.3333 159.614 22.2727C159.614 23.2121 159.739 24.0303 159.989 24.7273C160.239 25.4242 160.598 25.9659 161.068 26.3523C161.545 26.7311 162.129 26.9205 162.818 26.9205ZM174.98 31V13.5455H180.537V31H174.98ZM177.764 11.5114C176.984 11.5114 176.313 11.2538 175.753 10.7386C175.192 10.2159 174.912 9.58712 174.912 8.85227C174.912 8.125 175.192 7.50379 175.753 6.98864C176.313 6.46591 176.984 6.20454 177.764 6.20454C178.552 6.20454 179.223 6.46591 179.776 6.98864C180.336 7.50379 180.616 8.125 180.616 8.85227C180.616 9.58712 180.336 10.2159 179.776 10.7386C179.223 11.2538 178.552 11.5114 177.764 11.5114ZM188.994 31.2955C187.881 31.2955 186.892 31.1098 186.028 30.7386C185.172 30.3598 184.494 29.7917 183.994 29.0341C183.502 28.2689 183.256 27.3106 183.256 26.1591C183.256 25.1894 183.426 24.3712 183.767 23.7045C184.108 23.0379 184.578 22.4962 185.176 22.0795C185.775 21.6629 186.464 21.3485 187.244 21.1364C188.025 20.9167 188.858 20.7689 189.744 20.6932C190.737 20.6023 191.536 20.5076 192.142 20.4091C192.748 20.303 193.188 20.1553 193.46 19.9659C193.741 19.7689 193.881 19.4924 193.881 19.1364V19.0795C193.881 18.4962 193.68 18.0455 193.278 17.7273C192.877 17.4091 192.335 17.25 191.653 17.25C190.919 17.25 190.328 17.4091 189.881 17.7273C189.434 18.0455 189.15 18.4848 189.028 19.0455L183.903 18.8636C184.055 17.803 184.445 16.8561 185.074 16.0227C185.71 15.1818 186.581 14.5227 187.688 14.0455C188.801 13.5606 190.138 13.3182 191.699 13.3182C192.813 13.3182 193.839 13.4508 194.778 13.7159C195.718 13.9735 196.536 14.3523 197.233 14.8523C197.93 15.3447 198.468 15.9508 198.847 16.6705C199.233 17.3902 199.426 18.2121 199.426 19.1364V31H194.199V28.5682H194.062C193.752 29.1591 193.354 29.6591 192.869 30.0682C192.392 30.4773 191.828 30.7841 191.176 30.9886C190.532 31.1932 189.805 31.2955 188.994 31.2955ZM190.71 27.6591C191.309 27.6591 191.847 27.5379 192.324 27.2955C192.809 27.053 193.195 26.7197 193.483 26.2955C193.771 25.8636 193.915 25.3636 193.915 24.7955V23.1364C193.756 23.2197 193.563 23.2955 193.335 23.3636C193.116 23.4318 192.873 23.4962 192.608 23.5568C192.343 23.6174 192.07 23.6705 191.79 23.7159C191.509 23.7614 191.241 23.803 190.983 23.8409C190.46 23.9242 190.013 24.053 189.642 24.2273C189.278 24.4015 188.998 24.6288 188.801 24.9091C188.612 25.1818 188.517 25.5076 188.517 25.8864C188.517 26.4621 188.722 26.9015 189.131 27.2045C189.547 27.5076 190.074 27.6591 190.71 27.6591Z" fill="white"/>
<path d="M219.5 32C222.815 32 225.995 30.683 228.339 28.3388C230.683 25.9946 232 22.8152 232 19.5C232 16.1848 230.683 13.0054 228.339 10.6612C225.995 8.31696 222.815 7 219.5 7C216.185 7 213.005 8.31696 210.661 10.6612C208.317 13.0054 207 16.1848 207 19.5C207 22.8152 208.317 25.9946 210.661 28.3388C213.005 30.683 216.185 32 219.5 32ZM217.938 17.1562C217.938 18.45 217.237 19.5 216.375 19.5C215.513 19.5 214.812 18.45 214.812 17.1562C214.812 15.8625 215.513 14.8125 216.375 14.8125C217.237 14.8125 217.938 15.8625 217.938 17.1562ZM213.695 21.9484C213.875 21.8448 214.088 21.8168 214.288 21.8704C214.488 21.924 214.659 22.0549 214.762 22.2344C215.242 23.0662 215.933 23.7568 216.765 24.2369C217.596 24.7169 218.54 24.9693 219.5 24.9688C220.46 24.9693 221.404 24.7169 222.235 24.2369C223.067 23.7568 223.758 23.0662 224.237 22.2344C224.288 22.1448 224.357 22.0662 224.438 22.0031C224.519 21.9399 224.613 21.8935 224.712 21.8666C224.811 21.8396 224.915 21.8325 225.017 21.8458C225.12 21.8591 225.218 21.8924 225.307 21.9439C225.397 21.9955 225.475 22.0641 225.537 22.146C225.6 22.2278 225.646 22.3212 225.672 22.4208C225.698 22.5204 225.705 22.6243 225.691 22.7263C225.677 22.8284 225.643 22.9267 225.591 23.0156C224.974 24.0849 224.086 24.9728 223.017 25.59C221.947 26.2072 220.735 26.5318 219.5 26.5312C218.265 26.5318 217.053 26.2072 215.983 25.59C214.914 24.9728 214.026 24.0849 213.409 23.0156C213.306 22.8362 213.278 22.6229 213.331 22.4228C213.385 22.2227 213.516 22.052 213.695 21.9484ZM222.625 19.5C221.763 19.5 221.062 18.45 221.062 17.1562C221.062 15.8625 221.763 14.8125 222.625 14.8125C223.487 14.8125 224.188 15.8625 224.188 17.1562C224.188 18.45 223.487 19.5 222.625 19.5Z" fill="white"/>
</svg>
