<svg width="287" height="34" viewBox="0 0 287 34" fill="none" xmlns="http://www.w3.org/2000/svg">
<g clip-path="url(#clip0_103_292)">
<path d="M-4.20455 11.6634V9.45455H7.40057V11.6634H2.90483V24H0.291193V11.6634H-4.20455ZM12.7717 24.2131C11.6779 24.2131 10.7333 23.9858 9.93786 23.5312C9.14714 23.072 8.53871 22.4233 8.11257 21.5852C7.68643 20.7424 7.47337 19.7505 7.47337 18.6094C7.47337 17.4872 7.68643 16.5024 8.11257 15.6548C8.54344 14.8026 9.14477 14.1397 9.91655 13.6662C10.6883 13.188 11.5951 12.9489 12.6367 12.9489C13.3091 12.9489 13.9435 13.0578 14.5401 13.2756C15.1415 13.4886 15.6718 13.8201 16.131 14.2699C16.5951 14.7197 16.9596 15.2926 17.2248 15.9886C17.4899 16.6799 17.6225 17.5038 17.6225 18.4602V19.2486H8.68075V17.5156H15.158C15.1533 17.0232 15.0468 16.5852 14.8384 16.2017C14.6301 15.8134 14.3389 15.508 13.9648 15.2855C13.5955 15.063 13.1647 14.9517 12.6722 14.9517C12.1467 14.9517 11.685 15.0795 11.2873 15.3352C10.8896 15.5862 10.5794 15.9176 10.3569 16.3295C10.1391 16.7367 10.0278 17.1842 10.0231 17.6719V19.1847C10.0231 19.8191 10.1391 20.3636 10.3711 20.8182C10.6031 21.268 10.9274 21.6136 11.3441 21.8551C11.7608 22.0919 12.2485 22.2102 12.8072 22.2102C13.1812 22.2102 13.5198 22.1581 13.8228 22.054C14.1258 21.9451 14.3886 21.7865 14.6112 21.5781C14.8337 21.3698 15.0018 21.1117 15.1154 20.804L17.516 21.0739C17.3645 21.7083 17.0756 22.2623 16.6495 22.7358C16.2281 23.2045 15.6883 23.5691 15.0302 23.8295C14.372 24.0852 13.6192 24.2131 12.7717 24.2131ZM24.5561 24.2131C23.4671 24.2131 22.532 23.974 21.7507 23.4957C20.9742 23.0175 20.3752 22.357 19.9538 21.5142C19.5372 20.6667 19.3288 19.6913 19.3288 18.5881C19.3288 17.4801 19.5419 16.5024 19.968 15.6548C20.3942 14.8026 20.9955 14.1397 21.772 13.6662C22.5533 13.188 23.4766 12.9489 24.5419 12.9489C25.4273 12.9489 26.2109 13.1122 26.8928 13.4389C27.5793 13.7609 28.1262 14.2178 28.5334 14.8097C28.9406 15.3968 29.1726 16.0833 29.2294 16.8693H26.772C26.6726 16.3437 26.4358 15.9058 26.0618 15.5554C25.6925 15.2003 25.1977 15.0227 24.5774 15.0227C24.0518 15.0227 23.5902 15.1648 23.1925 15.4489C22.7947 15.7282 22.4846 16.1307 22.2621 16.6562C22.0443 17.1818 21.9354 17.8116 21.9354 18.5455C21.9354 19.2888 22.0443 19.928 22.2621 20.4631C22.4799 20.9934 22.7853 21.4029 23.1783 21.6918C23.576 21.9759 24.0424 22.1179 24.5774 22.1179C24.9562 22.1179 25.2947 22.0469 25.593 21.9048C25.8961 21.758 26.1494 21.5473 26.353 21.2727C26.5566 20.9981 26.6963 20.6643 26.772 20.2713H29.2294C29.1679 21.0431 28.9406 21.7273 28.5476 22.3239C28.1546 22.9157 27.6196 23.3797 26.9425 23.7159C26.2654 24.0473 25.4699 24.2131 24.5561 24.2131ZM33.9116 17.608V24H31.3406V9.45455H33.8548V14.9446H33.9826C34.2383 14.3291 34.6336 13.8437 35.1687 13.4886C35.7085 13.1288 36.395 12.9489 37.2283 12.9489C37.9859 12.9489 38.6464 13.1075 39.2099 13.4247C39.7733 13.742 40.2089 14.206 40.5167 14.8168C40.8292 15.4276 40.9854 16.1733 40.9854 17.054V24H38.4144V17.4517C38.4144 16.7178 38.225 16.1473 37.8462 15.7401C37.4722 15.3281 36.9466 15.1222 36.2695 15.1222C35.815 15.1222 35.4078 15.2216 35.0479 15.4205C34.6928 15.6146 34.4135 15.8963 34.2099 16.2656C34.011 16.6349 33.9116 17.0824 33.9116 17.608ZM46.1772 17.608V24H43.6062V13.0909H46.0636V14.9446H46.1914C46.4424 14.3338 46.8424 13.8485 47.3917 13.4886C47.9457 13.1288 48.6299 12.9489 49.4442 12.9489C50.1971 12.9489 50.8529 13.1098 51.4116 13.4318C51.975 13.7538 52.4106 14.2202 52.7184 14.831C53.0309 15.4418 53.1848 16.1828 53.18 17.054V24H50.609V17.4517C50.609 16.7225 50.4196 16.152 50.0408 15.7401C49.6668 15.3281 49.1483 15.1222 48.4854 15.1222C48.0356 15.1222 47.6355 15.2216 47.2852 15.4205C46.9395 15.6146 46.6673 15.8963 46.4684 16.2656C46.2743 16.6349 46.1772 17.0824 46.1772 17.608ZM55.7937 24V13.0909H58.3647V24H55.7937ZM57.0863 11.5426C56.6791 11.5426 56.3287 11.4077 56.0352 11.1378C55.7416 10.8632 55.5948 10.5341 55.5948 10.1506C55.5948 9.76231 55.7416 9.43324 56.0352 9.16335C56.3287 8.88873 56.6791 8.75142 57.0863 8.75142C57.4982 8.75142 57.8486 8.88873 58.1374 9.16335C58.431 9.43324 58.5778 9.76231 58.5778 10.1506C58.5778 10.5341 58.431 10.8632 58.1374 11.1378C57.8486 11.4077 57.4982 11.5426 57.0863 11.5426ZM65.767 24.2131C64.678 24.2131 63.7429 23.974 62.9616 23.4957C62.1851 23.0175 61.5862 22.357 61.1648 21.5142C60.7481 20.6667 60.5398 19.6913 60.5398 18.5881C60.5398 17.4801 60.7528 16.5024 61.179 15.6548C61.6051 14.8026 62.2064 14.1397 62.983 13.6662C63.7642 13.188 64.6875 12.9489 65.7528 12.9489C66.6383 12.9489 67.4219 13.1122 68.1037 13.4389C68.7902 13.7609 69.3371 14.2178 69.7443 14.8097C70.1515 15.3968 70.3835 16.0833 70.4403 16.8693H67.983C67.8835 16.3437 67.6468 15.9058 67.2727 15.5554C66.9034 15.2003 66.4086 15.0227 65.7884 15.0227C65.2628 15.0227 64.8011 15.1648 64.4034 15.4489C64.0057 15.7282 63.6955 16.1307 63.473 16.6562C63.2552 17.1818 63.1463 17.8116 63.1463 18.5455C63.1463 19.2888 63.2552 19.928 63.473 20.4631C63.6908 20.9934 63.9962 21.4029 64.3892 21.6918C64.7869 21.9759 65.2533 22.1179 65.7884 22.1179C66.1671 22.1179 66.5057 22.0469 66.804 21.9048C67.107 21.758 67.3603 21.5473 67.5639 21.2727C67.7675 20.9981 67.9072 20.6643 67.983 20.2713H70.4403C70.3788 21.0431 70.1515 21.7273 69.7585 22.3239C69.3655 22.9157 68.8305 23.3797 68.1534 23.7159C67.4763 24.0473 66.6809 24.2131 65.767 24.2131ZM75.6907 24.2202C74.9994 24.2202 74.3768 24.0971 73.8228 23.8509C73.2736 23.5999 72.8379 23.2306 72.516 22.7429C72.1987 22.2552 72.0401 21.6539 72.0401 20.9389C72.0401 20.3234 72.1538 19.8144 72.381 19.4119C72.6083 19.0095 72.9184 18.6875 73.3114 18.446C73.7044 18.2045 74.1471 18.0223 74.6396 17.8991C75.1367 17.7713 75.6504 17.679 76.1808 17.6222C76.82 17.5559 77.3384 17.4967 77.7362 17.4446C78.1339 17.3878 78.4227 17.3026 78.6026 17.1889C78.7873 17.0705 78.8796 16.8883 78.8796 16.642V16.5994C78.8796 16.0644 78.721 15.6501 78.4038 15.3565C78.0865 15.063 77.6296 14.9162 77.033 14.9162C76.4033 14.9162 75.9038 15.0535 75.5344 15.3281C75.1699 15.6027 74.9237 15.9271 74.7958 16.3011L72.3952 15.9602C72.5846 15.2973 72.8971 14.7434 73.3327 14.2983C73.7683 13.8485 74.301 13.5123 74.9308 13.2898C75.5605 13.0625 76.2565 12.9489 77.0188 12.9489C77.5444 12.9489 78.0676 13.0104 78.5884 13.1335C79.1093 13.2566 79.5851 13.4602 80.016 13.7443C80.4469 14.0237 80.7925 14.4048 81.0529 14.8878C81.3181 15.3707 81.4506 15.9744 81.4506 16.6989V24H78.979V22.5014H78.8938C78.7376 22.8045 78.5174 23.0885 78.2333 23.3537C77.954 23.6141 77.6012 23.8248 77.1751 23.9858C76.7537 24.142 76.2589 24.2202 75.6907 24.2202ZM76.3583 22.331C76.8744 22.331 77.3219 22.2292 77.7006 22.0256C78.0794 21.8172 78.3706 21.5426 78.5742 21.2017C78.7826 20.8608 78.8867 20.4891 78.8867 20.0866V18.8011C78.8062 18.8674 78.6689 18.929 78.4748 18.9858C78.2854 19.0426 78.0723 19.0923 77.8356 19.1349C77.5988 19.1776 77.3645 19.2154 77.1325 19.2486C76.9004 19.2817 76.6992 19.3101 76.5288 19.3338C76.1452 19.3859 75.802 19.4711 75.4989 19.5895C75.1959 19.7079 74.9568 19.8736 74.7816 20.0866C74.6064 20.295 74.5188 20.5649 74.5188 20.8963C74.5188 21.3698 74.6916 21.7273 75.0373 21.9688C75.3829 22.2102 75.8233 22.331 76.3583 22.331ZM86.6069 9.45455V24H84.0359V9.45455H86.6069ZM97.3509 24.2202C96.6596 24.2202 96.0369 24.0971 95.483 23.8509C94.9337 23.5999 94.4981 23.2306 94.1761 22.7429C93.8589 22.2552 93.7003 21.6539 93.7003 20.9389C93.7003 20.3234 93.8139 19.8144 94.0412 19.4119C94.2685 19.0095 94.5786 18.6875 94.9716 18.446C95.3646 18.2045 95.8073 18.0223 96.2997 17.8991C96.7969 17.7713 97.3106 17.679 97.8409 17.6222C98.4801 17.5559 98.9986 17.4967 99.3963 17.4446C99.794 17.3878 100.083 17.3026 100.263 17.1889C100.447 17.0705 100.54 16.8883 100.54 16.642V16.5994C100.54 16.0644 100.381 15.6501 100.064 15.3565C99.7467 15.063 99.2898 14.9162 98.6932 14.9162C98.0634 14.9162 97.5639 15.0535 97.1946 15.3281C96.83 15.6027 96.5838 15.9271 96.456 16.3011L94.0554 15.9602C94.2448 15.2973 94.5573 14.7434 94.9929 14.2983C95.4285 13.8485 95.9612 13.5123 96.5909 13.2898C97.2206 13.0625 97.9167 12.9489 98.679 12.9489C99.2045 12.9489 99.7277 13.0104 100.249 13.1335C100.769 13.2566 101.245 13.4602 101.676 13.7443C102.107 14.0237 102.453 14.4048 102.713 14.8878C102.978 15.3707 103.111 15.9744 103.111 16.6989V24H100.639V22.5014H100.554C100.398 22.8045 100.178 23.0885 99.8935 23.3537C99.6141 23.6141 99.2614 23.8248 98.8352 23.9858C98.4138 24.142 97.919 24.2202 97.3509 24.2202ZM98.0185 22.331C98.5346 22.331 98.982 22.2292 99.3608 22.0256C99.7396 21.8172 100.031 21.5426 100.234 21.2017C100.443 20.8608 100.547 20.4891 100.547 20.0866V18.8011C100.466 18.8674 100.329 18.929 100.135 18.9858C99.9455 19.0426 99.7325 19.0923 99.4957 19.1349C99.259 19.1776 99.0246 19.2154 98.7926 19.2486C98.5606 19.2817 98.3594 19.3101 98.1889 19.3338C97.8054 19.3859 97.4621 19.4711 97.1591 19.5895C96.8561 19.7079 96.617 19.8736 96.4418 20.0866C96.2666 20.295 96.179 20.5649 96.179 20.8963C96.179 21.3698 96.3518 21.7273 96.6974 21.9688C97.0431 22.2102 97.4834 22.331 98.0185 22.331ZM114.318 15.9744L111.974 16.2301C111.908 15.9934 111.792 15.7708 111.626 15.5625C111.465 15.3542 111.248 15.1861 110.973 15.0582C110.698 14.9304 110.362 14.8665 109.964 14.8665C109.429 14.8665 108.98 14.9825 108.615 15.2145C108.255 15.4465 108.078 15.7472 108.082 16.1165C108.078 16.4337 108.194 16.6918 108.43 16.8906C108.672 17.0895 109.07 17.2528 109.624 17.3807L111.484 17.7784C112.517 18.0009 113.284 18.3537 113.786 18.8366C114.292 19.3196 114.548 19.9517 114.553 20.733C114.548 21.4195 114.347 22.0256 113.949 22.5511C113.556 23.072 113.009 23.4792 112.308 23.7727C111.607 24.0663 110.803 24.2131 109.893 24.2131C108.558 24.2131 107.483 23.9337 106.669 23.375C105.855 22.8116 105.369 22.0279 105.213 21.0241L107.72 20.7827C107.834 21.2751 108.075 21.6468 108.445 21.8977C108.814 22.1487 109.295 22.2741 109.886 22.2741C110.497 22.2741 110.987 22.1487 111.357 21.8977C111.731 21.6468 111.918 21.3366 111.918 20.9673C111.918 20.6548 111.797 20.3968 111.555 20.1932C111.319 19.9896 110.949 19.8333 110.447 19.7244L108.587 19.3338C107.54 19.116 106.766 18.7491 106.264 18.233C105.762 17.7121 105.514 17.054 105.518 16.2585C105.514 15.5862 105.696 15.0038 106.065 14.5114C106.439 14.0142 106.958 13.6307 107.621 13.3608C108.288 13.0862 109.058 12.9489 109.929 12.9489C111.207 12.9489 112.214 13.2211 112.947 13.7656C113.686 14.3101 114.143 15.0464 114.318 15.9744ZM125.295 15.9744L122.951 16.2301C122.885 15.9934 122.769 15.7708 122.603 15.5625C122.442 15.3542 122.224 15.1861 121.95 15.0582C121.675 14.9304 121.339 14.8665 120.941 14.8665C120.406 14.8665 119.956 14.9825 119.592 15.2145C119.232 15.4465 119.054 15.7472 119.059 16.1165C119.054 16.4337 119.17 16.6918 119.407 16.8906C119.648 17.0895 120.046 17.2528 120.6 17.3807L122.461 17.7784C123.493 18.0009 124.26 18.3537 124.762 18.8366C125.269 19.3196 125.524 19.9517 125.529 20.733C125.524 21.4195 125.323 22.0256 124.925 22.5511C124.532 23.072 123.986 23.4792 123.285 23.7727C122.584 24.0663 121.779 24.2131 120.87 24.2131C119.535 24.2131 118.46 23.9337 117.646 23.375C116.831 22.8116 116.346 22.0279 116.19 21.0241L118.697 20.7827C118.81 21.2751 119.052 21.6468 119.421 21.8977C119.79 22.1487 120.271 22.2741 120.863 22.2741C121.474 22.2741 121.964 22.1487 122.333 21.8977C122.707 21.6468 122.894 21.3366 122.894 20.9673C122.894 20.6548 122.773 20.3968 122.532 20.1932C122.295 19.9896 121.926 19.8333 121.424 19.7244L119.563 19.3338C118.517 19.116 117.743 18.7491 117.241 18.233C116.739 17.7121 116.49 17.054 116.495 16.2585C116.49 15.5862 116.673 15.0038 117.042 14.5114C117.416 14.0142 117.934 13.6307 118.597 13.3608C119.265 13.0862 120.034 12.9489 120.906 12.9489C122.184 12.9489 123.19 13.2211 123.924 13.7656C124.663 14.3101 125.12 15.0464 125.295 15.9744ZM127.649 24V13.0909H130.22V24H127.649ZM128.942 11.5426C128.535 11.5426 128.184 11.4077 127.891 11.1378C127.597 10.8632 127.45 10.5341 127.45 10.1506C127.45 9.76231 127.597 9.43324 127.891 9.16335C128.184 8.88873 128.535 8.75142 128.942 8.75142C129.354 8.75142 129.704 8.88873 129.993 9.16335C130.286 9.43324 130.433 9.76231 130.433 10.1506C130.433 10.5341 130.286 10.8632 129.993 11.1378C129.704 11.4077 129.354 11.5426 128.942 11.5426ZM141.486 15.9744L139.142 16.2301C139.076 15.9934 138.96 15.7708 138.794 15.5625C138.633 15.3542 138.416 15.1861 138.141 15.0582C137.866 14.9304 137.53 14.8665 137.132 14.8665C136.597 14.8665 136.148 14.9825 135.783 15.2145C135.423 15.4465 135.246 15.7472 135.25 16.1165C135.246 16.4337 135.362 16.6918 135.598 16.8906C135.84 17.0895 136.238 17.2528 136.792 17.3807L138.652 17.7784C139.685 18.0009 140.452 18.3537 140.953 18.8366C141.46 19.3196 141.716 19.9517 141.721 20.733C141.716 21.4195 141.515 22.0256 141.117 22.5511C140.724 23.072 140.177 23.4792 139.476 23.7727C138.775 24.0663 137.971 24.2131 137.061 24.2131C135.726 24.2131 134.651 23.9337 133.837 23.375C133.023 22.8116 132.537 22.0279 132.381 21.0241L134.888 20.7827C135.002 21.2751 135.243 21.6468 135.613 21.8977C135.982 22.1487 136.462 22.2741 137.054 22.2741C137.665 22.2741 138.155 22.1487 138.525 21.8977C138.899 21.6468 139.086 21.3366 139.086 20.9673C139.086 20.6548 138.965 20.3968 138.723 20.1932C138.487 19.9896 138.117 19.8333 137.615 19.7244L135.755 19.3338C134.708 19.116 133.934 18.7491 133.432 18.233C132.93 17.7121 132.682 17.054 132.686 16.2585C132.682 15.5862 132.864 15.0038 133.233 14.5114C133.607 14.0142 134.126 13.6307 134.789 13.3608C135.456 13.0862 136.226 12.9489 137.097 12.9489C138.375 12.9489 139.382 13.2211 140.115 13.7656C140.854 14.3101 141.311 15.0464 141.486 15.9744ZM149.288 13.0909V15.0795H143.017V13.0909H149.288ZM144.565 10.4773H147.136V20.7188C147.136 21.0644 147.188 21.3295 147.292 21.5142C147.401 21.6941 147.543 21.8172 147.718 21.8835C147.894 21.9498 148.088 21.983 148.301 21.983C148.462 21.983 148.609 21.9711 148.741 21.9474C148.878 21.9238 148.983 21.9025 149.054 21.8835L149.487 23.8935C149.35 23.9408 149.153 23.9929 148.897 24.0497C148.646 24.1065 148.339 24.1397 147.974 24.1491C147.33 24.1681 146.75 24.071 146.234 23.858C145.718 23.6402 145.308 23.304 145.005 22.8494C144.707 22.3949 144.56 21.8267 144.565 21.1449V10.4773ZM154.577 24.2202C153.886 24.2202 153.263 24.0971 152.71 23.8509C152.16 23.5999 151.725 23.2306 151.403 22.7429C151.085 22.2552 150.927 21.6539 150.927 20.9389C150.927 20.3234 151.04 19.8144 151.268 19.4119C151.495 19.0095 151.805 18.6875 152.198 18.446C152.591 18.2045 153.034 18.0223 153.526 17.8991C154.023 17.7713 154.537 17.679 155.067 17.6222C155.707 17.5559 156.225 17.4967 156.623 17.4446C157.021 17.3878 157.309 17.3026 157.489 17.1889C157.674 17.0705 157.766 16.8883 157.766 16.642V16.5994C157.766 16.0644 157.608 15.6501 157.29 15.3565C156.973 15.063 156.516 14.9162 155.92 14.9162C155.29 14.9162 154.79 15.0535 154.421 15.3281C154.057 15.6027 153.81 15.9271 153.683 16.3011L151.282 15.9602C151.471 15.2973 151.784 14.7434 152.219 14.2983C152.655 13.8485 153.188 13.5123 153.817 13.2898C154.447 13.0625 155.143 12.9489 155.906 12.9489C156.431 12.9489 156.954 13.0104 157.475 13.1335C157.996 13.2566 158.472 13.4602 158.903 13.7443C159.334 14.0237 159.679 14.4048 159.94 14.8878C160.205 15.3707 160.337 15.9744 160.337 16.6989V24H157.866V22.5014H157.781C157.624 22.8045 157.404 23.0885 157.12 23.3537C156.841 23.6141 156.488 23.8248 156.062 23.9858C155.64 24.142 155.146 24.2202 154.577 24.2202ZM155.245 22.331C155.761 22.331 156.209 22.2292 156.587 22.0256C156.966 21.8172 157.257 21.5426 157.461 21.2017C157.669 20.8608 157.773 20.4891 157.773 20.0866V18.8011C157.693 18.8674 157.556 18.929 157.362 18.9858C157.172 19.0426 156.959 19.0923 156.722 19.1349C156.486 19.1776 156.251 19.2154 156.019 19.2486C155.787 19.2817 155.586 19.3101 155.415 19.3338C155.032 19.3859 154.689 19.4711 154.386 19.5895C154.083 19.7079 153.844 19.8736 153.668 20.0866C153.493 20.295 153.406 20.5649 153.406 20.8963C153.406 21.3698 153.578 21.7273 153.924 21.9688C154.27 22.2102 154.71 22.331 155.245 22.331ZM165.494 17.608V24H162.923V13.0909H165.38V14.9446H165.508C165.759 14.3338 166.159 13.8485 166.708 13.4886C167.262 13.1288 167.946 12.9489 168.761 12.9489C169.513 12.9489 170.169 13.1098 170.728 13.4318C171.291 13.7538 171.727 14.2202 172.035 14.831C172.347 15.4418 172.501 16.1828 172.496 17.054V24H169.925V17.4517C169.925 16.7225 169.736 16.152 169.357 15.7401C168.983 15.3281 168.465 15.1222 167.802 15.1222C167.352 15.1222 166.952 15.2216 166.602 15.4205C166.256 15.6146 165.984 15.8963 165.785 16.2656C165.591 16.6349 165.494 17.0824 165.494 17.608ZM179.869 24.2131C178.78 24.2131 177.844 23.974 177.063 23.4957C176.287 23.0175 175.688 22.357 175.266 21.5142C174.85 20.6667 174.641 19.6913 174.641 18.5881C174.641 17.4801 174.854 16.5024 175.281 15.6548C175.707 14.8026 176.308 14.1397 177.085 13.6662C177.866 13.188 178.789 12.9489 179.854 12.9489C180.74 12.9489 181.523 13.1122 182.205 13.4389C182.892 13.7609 183.439 14.2178 183.846 14.8097C184.253 15.3968 184.485 16.0833 184.542 16.8693H182.085C181.985 16.3437 181.748 15.9058 181.374 15.5554C181.005 15.2003 180.51 15.0227 179.89 15.0227C179.364 15.0227 178.903 15.1648 178.505 15.4489C178.107 15.7282 177.797 16.1307 177.575 16.6562C177.357 17.1818 177.248 17.8116 177.248 18.5455C177.248 19.2888 177.357 19.928 177.575 20.4631C177.792 20.9934 178.098 21.4029 178.491 21.6918C178.888 21.9759 179.355 22.1179 179.89 22.1179C180.269 22.1179 180.607 22.0469 180.906 21.9048C181.209 21.758 181.462 21.5473 181.665 21.2727C181.869 20.9981 182.009 20.6643 182.085 20.2713H184.542C184.48 21.0431 184.253 21.7273 183.86 22.3239C183.467 22.9157 182.932 23.3797 182.255 23.7159C181.578 24.0473 180.782 24.2131 179.869 24.2131ZM191.483 24.2131C190.389 24.2131 189.444 23.9858 188.649 23.5312C187.858 23.072 187.25 22.4233 186.824 21.5852C186.397 20.7424 186.184 19.7505 186.184 18.6094C186.184 17.4872 186.397 16.5024 186.824 15.6548C187.254 14.8026 187.856 14.1397 188.627 13.6662C189.399 13.188 190.306 12.9489 191.348 12.9489C192.02 12.9489 192.654 13.0578 193.251 13.2756C193.852 13.4886 194.383 13.8201 194.842 14.2699C195.306 14.7197 195.671 15.2926 195.936 15.9886C196.201 16.6799 196.333 17.5038 196.333 18.4602V19.2486H187.392V17.5156H193.869C193.864 17.0232 193.758 16.5852 193.549 16.2017C193.341 15.8134 193.05 15.508 192.676 15.2855C192.306 15.063 191.876 14.9517 191.383 14.9517C190.858 14.9517 190.396 15.0795 189.998 15.3352C189.6 15.5862 189.29 15.9176 189.068 16.3295C188.85 16.7367 188.739 17.1842 188.734 17.6719V19.1847C188.734 19.8191 188.85 20.3636 189.082 20.8182C189.314 21.268 189.638 21.6136 190.055 21.8551C190.472 22.0919 190.959 22.2102 191.518 22.2102C191.892 22.2102 192.231 22.1581 192.534 22.054C192.837 21.9451 193.1 21.7865 193.322 21.5781C193.545 21.3698 193.713 21.1117 193.826 20.804L196.227 21.0739C196.075 21.7083 195.787 22.2623 195.36 22.7358C194.939 23.2045 194.399 23.5691 193.741 23.8295C193.083 24.0852 192.33 24.2131 191.483 24.2131ZM210.082 15.669V17.7855H203.533V15.669H210.082ZM217.86 24V9.45455H220.495V21.7912H226.902V24H217.86ZM232.214 24.2202C231.523 24.2202 230.9 24.0971 230.346 23.8509C229.797 23.5999 229.361 23.2306 229.039 22.7429C228.722 22.2552 228.564 21.6539 228.564 20.9389C228.564 20.3234 228.677 19.8144 228.904 19.4119C229.132 19.0095 229.442 18.6875 229.835 18.446C230.228 18.2045 230.671 18.0223 231.163 17.8991C231.66 17.7713 232.174 17.679 232.704 17.6222C233.343 17.5559 233.862 17.4967 234.26 17.4446C234.657 17.3878 234.946 17.3026 235.126 17.1889C235.311 17.0705 235.403 16.8883 235.403 16.642V16.5994C235.403 16.0644 235.244 15.6501 234.927 15.3565C234.61 15.063 234.153 14.9162 233.556 14.9162C232.927 14.9162 232.427 15.0535 232.058 15.3281C231.693 15.6027 231.447 15.9271 231.319 16.3011L228.919 15.9602C229.108 15.2973 229.421 14.7434 229.856 14.2983C230.292 13.8485 230.824 13.5123 231.454 13.2898C232.084 13.0625 232.78 12.9489 233.542 12.9489C234.068 12.9489 234.591 13.0104 235.112 13.1335C235.633 13.2566 236.109 13.4602 236.539 13.7443C236.97 14.0237 237.316 14.4048 237.576 14.8878C237.842 15.3707 237.974 15.9744 237.974 16.6989V24H235.502V22.5014H235.417C235.261 22.8045 235.041 23.0885 234.757 23.3537C234.477 23.6141 234.125 23.8248 233.699 23.9858C233.277 24.142 232.782 24.2202 232.214 24.2202ZM232.882 22.331C233.398 22.331 233.845 22.2292 234.224 22.0256C234.603 21.8172 234.894 21.5426 235.098 21.2017C235.306 20.8608 235.41 20.4891 235.41 20.0866V18.8011C235.33 18.8674 235.192 18.929 234.998 18.9858C234.809 19.0426 234.596 19.0923 234.359 19.1349C234.122 19.1776 233.888 19.2154 233.656 19.2486C233.424 19.2817 233.223 19.3101 233.052 19.3338C232.669 19.3859 232.325 19.4711 232.022 19.5895C231.719 19.7079 231.48 19.8736 231.305 20.0866C231.13 20.295 231.042 20.5649 231.042 20.8963C231.042 21.3698 231.215 21.7273 231.561 21.9688C231.906 22.2102 232.347 22.331 232.882 22.331ZM240.559 24V13.0909H243.052V14.9091H243.166C243.365 14.2794 243.706 13.794 244.189 13.4531C244.676 13.1075 245.233 12.9347 245.858 12.9347C246 12.9347 246.158 12.9418 246.333 12.956C246.513 12.9654 246.663 12.982 246.781 13.0057V15.3707C246.672 15.3329 246.499 15.2997 246.262 15.2713C246.03 15.2382 245.806 15.2216 245.588 15.2216C245.119 15.2216 244.698 15.3234 244.324 15.527C243.954 15.7259 243.663 16.0028 243.45 16.358C243.237 16.7131 243.13 17.1226 243.13 17.5866V24H240.559ZM251.433 24.2202C250.742 24.2202 250.119 24.0971 249.565 23.8509C249.016 23.5999 248.58 23.2306 248.258 22.7429C247.941 22.2552 247.782 21.6539 247.782 20.9389C247.782 20.3234 247.896 19.8144 248.123 19.4119C248.35 19.0095 248.661 18.6875 249.054 18.446C249.447 18.2045 249.889 18.0223 250.382 17.8991C250.879 17.7713 251.393 17.679 251.923 17.6222C252.562 17.5559 253.081 17.4967 253.478 17.4446C253.876 17.3878 254.165 17.3026 254.345 17.1889C254.529 17.0705 254.622 16.8883 254.622 16.642V16.5994C254.622 16.0644 254.463 15.6501 254.146 15.3565C253.829 15.063 253.372 14.9162 252.775 14.9162C252.145 14.9162 251.646 15.0535 251.277 15.3281C250.912 15.6027 250.666 15.9271 250.538 16.3011L248.137 15.9602C248.327 15.2973 248.639 14.7434 249.075 14.2983C249.511 13.8485 250.043 13.5123 250.673 13.2898C251.303 13.0625 251.999 12.9489 252.761 12.9489C253.287 12.9489 253.81 13.0104 254.331 13.1335C254.851 13.2566 255.327 13.4602 255.758 13.7443C256.189 14.0237 256.535 14.4048 256.795 14.8878C257.06 15.3707 257.193 15.9744 257.193 16.6989V24H254.721V22.5014H254.636C254.48 22.8045 254.26 23.0885 253.975 23.3537C253.696 23.6141 253.343 23.8248 252.917 23.9858C252.496 24.142 252.001 24.2202 251.433 24.2202ZM252.1 22.331C252.617 22.331 253.064 22.2292 253.443 22.0256C253.822 21.8172 254.113 21.5426 254.316 21.2017C254.525 20.8608 254.629 20.4891 254.629 20.0866V18.8011C254.548 18.8674 254.411 18.929 254.217 18.9858C254.028 19.0426 253.815 19.0923 253.578 19.1349C253.341 19.1776 253.107 19.2154 252.875 19.2486C252.643 19.2817 252.441 19.3101 252.271 19.3338C251.887 19.3859 251.544 19.4711 251.241 19.5895C250.938 19.7079 250.699 19.8736 250.524 20.0866C250.349 20.295 250.261 20.5649 250.261 20.8963C250.261 21.3698 250.434 21.7273 250.779 21.9688C251.125 22.2102 251.565 22.331 252.1 22.331ZM269.132 13.0909L265.247 24H262.406L258.521 13.0909H261.262L263.77 21.1946H263.883L266.397 13.0909H269.132ZM275.369 24.2131C274.276 24.2131 273.331 23.9858 272.536 23.5312C271.745 23.072 271.136 22.4233 270.71 21.5852C270.284 20.7424 270.071 19.7505 270.071 18.6094C270.071 17.4872 270.284 16.5024 270.71 15.6548C271.141 14.8026 271.742 14.1397 272.514 13.6662C273.286 13.188 274.193 12.9489 275.234 12.9489C275.907 12.9489 276.541 13.0578 277.138 13.2756C277.739 13.4886 278.269 13.8201 278.729 14.2699C279.193 14.7197 279.557 15.2926 279.822 15.9886C280.088 16.6799 280.22 17.5038 280.22 18.4602V19.2486H271.278V17.5156H277.756C277.751 17.0232 277.644 16.5852 277.436 16.2017C277.228 15.8134 276.937 15.508 276.562 15.2855C276.193 15.063 275.762 14.9517 275.27 14.9517C274.744 14.9517 274.283 15.0795 273.885 15.3352C273.487 15.5862 273.177 15.9176 272.955 16.3295C272.737 16.7367 272.625 17.1842 272.621 17.6719V19.1847C272.621 19.8191 272.737 20.3636 272.969 20.8182C273.201 21.268 273.525 21.6136 273.942 21.8551C274.358 22.0919 274.846 22.2102 275.405 22.2102C275.779 22.2102 276.117 22.1581 276.42 22.054C276.723 21.9451 276.986 21.7865 277.209 21.5781C277.431 21.3698 277.599 21.1117 277.713 20.804L280.114 21.0739C279.962 21.7083 279.673 22.2623 279.247 22.7358C278.826 23.2045 278.286 23.5691 277.628 23.8295C276.97 24.0852 276.217 24.2131 275.369 24.2131ZM284.966 9.45455V24H282.395V9.45455H284.966Z" fill="white"/>
</g>
<defs>
<clipPath id="clip0_103_292">
<rect width="287" height="34" fill="white"/>
</clipPath>
</defs>
</svg>
