<svg width="393" height="34" viewBox="0 0 393 34" fill="none" xmlns="http://www.w3.org/2000/svg">
<path d="M0.795455 11.6634V9.45455H12.4006V11.6634H7.90483V24H5.29119V11.6634H0.795455ZM17.7717 24.2131C16.6779 24.2131 15.7333 23.9858 14.9379 23.5312C14.1471 23.072 13.5387 22.4233 13.1126 21.5852C12.6864 20.7424 12.4734 19.7505 12.4734 18.6094C12.4734 17.4872 12.6864 16.5024 13.1126 15.6548C13.5434 14.8026 14.1448 14.1397 14.9165 13.6662C15.6883 13.188 16.5951 12.9489 17.6367 12.9489C18.3091 12.9489 18.9435 13.0578 19.5401 13.2756C20.1415 13.4886 20.6718 13.8201 21.131 14.2699C21.5951 14.7197 21.9596 15.2926 22.2248 15.9886C22.4899 16.6799 22.6225 17.5038 22.6225 18.4602V19.2486H13.6808V17.5156H20.158C20.1533 17.0232 20.0468 16.5852 19.8384 16.2017C19.6301 15.8134 19.3389 15.508 18.9648 15.2855C18.5955 15.063 18.1647 14.9517 17.6722 14.9517C17.1467 14.9517 16.685 15.0795 16.2873 15.3352C15.8896 15.5862 15.5794 15.9176 15.3569 16.3295C15.1391 16.7367 15.0278 17.1842 15.0231 17.6719V19.1847C15.0231 19.8191 15.1391 20.3636 15.3711 20.8182C15.6031 21.268 15.9274 21.6136 16.3441 21.8551C16.7608 22.0919 17.2485 22.2102 17.8072 22.2102C18.1812 22.2102 18.5198 22.1581 18.8228 22.054C19.1258 21.9451 19.3886 21.7865 19.6112 21.5781C19.8337 21.3698 20.0018 21.1117 20.1154 20.804L22.516 21.0739C22.3645 21.7083 22.0756 22.2623 21.6495 22.7358C21.2281 23.2045 20.6883 23.5691 20.0302 23.8295C19.372 24.0852 18.6192 24.2131 17.7717 24.2131ZM29.5561 24.2131C28.4671 24.2131 27.532 23.974 26.7507 23.4957C25.9742 23.0175 25.3752 22.357 24.9538 21.5142C24.5372 20.6667 24.3288 19.6913 24.3288 18.5881C24.3288 17.4801 24.5419 16.5024 24.968 15.6548C25.3942 14.8026 25.9955 14.1397 26.772 13.6662C27.5533 13.188 28.4766 12.9489 29.5419 12.9489C30.4273 12.9489 31.2109 13.1122 31.8928 13.4389C32.5793 13.7609 33.1262 14.2178 33.5334 14.8097C33.9406 15.3968 34.1726 16.0833 34.2294 16.8693H31.772C31.6726 16.3437 31.4358 15.9058 31.0618 15.5554C30.6925 15.2003 30.1977 15.0227 29.5774 15.0227C29.0518 15.0227 28.5902 15.1648 28.1925 15.4489C27.7947 15.7282 27.4846 16.1307 27.2621 16.6562C27.0443 17.1818 26.9354 17.8116 26.9354 18.5455C26.9354 19.2888 27.0443 19.928 27.2621 20.4631C27.4799 20.9934 27.7853 21.4029 28.1783 21.6918C28.576 21.9759 29.0424 22.1179 29.5774 22.1179C29.9562 22.1179 30.2947 22.0469 30.593 21.9048C30.8961 21.758 31.1494 21.5473 31.353 21.2727C31.5566 20.9981 31.6963 20.6643 31.772 20.2713H34.2294C34.1679 21.0431 33.9406 21.7273 33.5476 22.3239C33.1546 22.9157 32.6196 23.3797 31.9425 23.7159C31.2654 24.0473 30.4699 24.2131 29.5561 24.2131ZM38.9116 17.608V24H36.3406V9.45455H38.8548V14.9446H38.9826C39.2383 14.3291 39.6336 13.8437 40.1687 13.4886C40.7085 13.1288 41.395 12.9489 42.2283 12.9489C42.9859 12.9489 43.6464 13.1075 44.2099 13.4247C44.7733 13.742 45.2089 14.206 45.5167 14.8168C45.8292 15.4276 45.9854 16.1733 45.9854 17.054V24H43.4144V17.4517C43.4144 16.7178 43.225 16.1473 42.8462 15.7401C42.4722 15.3281 41.9466 15.1222 41.2695 15.1222C40.815 15.1222 40.4078 15.2216 40.0479 15.4205C39.6928 15.6146 39.4135 15.8963 39.2099 16.2656C39.011 16.6349 38.9116 17.0824 38.9116 17.608ZM51.1772 17.608V24H48.6062V13.0909H51.0636V14.9446H51.1914C51.4424 14.3338 51.8424 13.8485 52.3917 13.4886C52.9457 13.1288 53.6299 12.9489 54.4442 12.9489C55.1971 12.9489 55.8529 13.1098 56.4116 13.4318C56.975 13.7538 57.4106 14.2202 57.7184 14.831C58.0309 15.4418 58.1848 16.1828 58.18 17.054V24H55.609V17.4517C55.609 16.7225 55.4196 16.152 55.0408 15.7401C54.6668 15.3281 54.1483 15.1222 53.4854 15.1222C53.0356 15.1222 52.6355 15.2216 52.2852 15.4205C51.9395 15.6146 51.6673 15.8963 51.4684 16.2656C51.2743 16.6349 51.1772 17.0824 51.1772 17.608ZM60.7937 24V13.0909H63.3647V24H60.7937ZM62.0863 11.5426C61.6791 11.5426 61.3287 11.4077 61.0352 11.1378C60.7416 10.8632 60.5948 10.5341 60.5948 10.1506C60.5948 9.76231 60.7416 9.43324 61.0352 9.16335C61.3287 8.88873 61.6791 8.75142 62.0863 8.75142C62.4982 8.75142 62.8486 8.88873 63.1374 9.16335C63.431 9.43324 63.5778 9.76231 63.5778 10.1506C63.5778 10.5341 63.431 10.8632 63.1374 11.1378C62.8486 11.4077 62.4982 11.5426 62.0863 11.5426ZM70.767 24.2131C69.678 24.2131 68.7429 23.974 67.9616 23.4957C67.1851 23.0175 66.5862 22.357 66.1648 21.5142C65.7481 20.6667 65.5398 19.6913 65.5398 18.5881C65.5398 17.4801 65.7528 16.5024 66.179 15.6548C66.6051 14.8026 67.2064 14.1397 67.983 13.6662C68.7642 13.188 69.6875 12.9489 70.7528 12.9489C71.6383 12.9489 72.4219 13.1122 73.1037 13.4389C73.7902 13.7609 74.3371 14.2178 74.7443 14.8097C75.1515 15.3968 75.3835 16.0833 75.4403 16.8693H72.983C72.8835 16.3437 72.6468 15.9058 72.2727 15.5554C71.9034 15.2003 71.4086 15.0227 70.7884 15.0227C70.2628 15.0227 69.8011 15.1648 69.4034 15.4489C69.0057 15.7282 68.6955 16.1307 68.473 16.6562C68.2552 17.1818 68.1463 17.8116 68.1463 18.5455C68.1463 19.2888 68.2552 19.928 68.473 20.4631C68.6908 20.9934 68.9962 21.4029 69.3892 21.6918C69.7869 21.9759 70.2533 22.1179 70.7884 22.1179C71.1671 22.1179 71.5057 22.0469 71.804 21.9048C72.107 21.758 72.3603 21.5473 72.5639 21.2727C72.7675 20.9981 72.9072 20.6643 72.983 20.2713H75.4403C75.3788 21.0431 75.1515 21.7273 74.7585 22.3239C74.3655 22.9157 73.8305 23.3797 73.1534 23.7159C72.4763 24.0473 71.6809 24.2131 70.767 24.2131ZM80.6907 24.2202C79.9994 24.2202 79.3768 24.0971 78.8228 23.8509C78.2736 23.5999 77.8379 23.2306 77.516 22.7429C77.1987 22.2552 77.0401 21.6539 77.0401 20.9389C77.0401 20.3234 77.1538 19.8144 77.381 19.4119C77.6083 19.0095 77.9184 18.6875 78.3114 18.446C78.7044 18.2045 79.1471 18.0223 79.6396 17.8991C80.1367 17.7713 80.6504 17.679 81.1808 17.6222C81.82 17.5559 82.3384 17.4967 82.7362 17.4446C83.1339 17.3878 83.4227 17.3026 83.6026 17.1889C83.7873 17.0705 83.8796 16.8883 83.8796 16.642V16.5994C83.8796 16.0644 83.721 15.6501 83.4038 15.3565C83.0865 15.063 82.6296 14.9162 82.033 14.9162C81.4033 14.9162 80.9038 15.0535 80.5344 15.3281C80.1699 15.6027 79.9237 15.9271 79.7958 16.3011L77.3952 15.9602C77.5846 15.2973 77.8971 14.7434 78.3327 14.2983C78.7683 13.8485 79.301 13.5123 79.9308 13.2898C80.5605 13.0625 81.2565 12.9489 82.0188 12.9489C82.5444 12.9489 83.0676 13.0104 83.5884 13.1335C84.1093 13.2566 84.5851 13.4602 85.016 13.7443C85.4469 14.0237 85.7925 14.4048 86.0529 14.8878C86.3181 15.3707 86.4506 15.9744 86.4506 16.6989V24H83.979V22.5014H83.8938C83.7376 22.8045 83.5174 23.0885 83.2333 23.3537C82.954 23.6141 82.6012 23.8248 82.1751 23.9858C81.7537 24.142 81.2589 24.2202 80.6907 24.2202ZM81.3583 22.331C81.8744 22.331 82.3219 22.2292 82.7006 22.0256C83.0794 21.8172 83.3706 21.5426 83.5742 21.2017C83.7826 20.8608 83.8867 20.4891 83.8867 20.0866V18.8011C83.8062 18.8674 83.6689 18.929 83.4748 18.9858C83.2854 19.0426 83.0723 19.0923 82.8356 19.1349C82.5988 19.1776 82.3645 19.2154 82.1325 19.2486C81.9004 19.2817 81.6992 19.3101 81.5288 19.3338C81.1452 19.3859 80.802 19.4711 80.4989 19.5895C80.1959 19.7079 79.9568 19.8736 79.7816 20.0866C79.6064 20.295 79.5188 20.5649 79.5188 20.8963C79.5188 21.3698 79.6916 21.7273 80.0373 21.9688C80.3829 22.2102 80.8233 22.331 81.3583 22.331ZM91.6069 9.45455V24H89.0359V9.45455H91.6069ZM102.351 24.2202C101.66 24.2202 101.037 24.0971 100.483 23.8509C99.9337 23.5999 99.4981 23.2306 99.1761 22.7429C98.8589 22.2552 98.7003 21.6539 98.7003 20.9389C98.7003 20.3234 98.8139 19.8144 99.0412 19.4119C99.2685 19.0095 99.5786 18.6875 99.9716 18.446C100.365 18.2045 100.807 18.0223 101.3 17.8991C101.797 17.7713 102.311 17.679 102.841 17.6222C103.48 17.5559 103.999 17.4967 104.396 17.4446C104.794 17.3878 105.083 17.3026 105.263 17.1889C105.447 17.0705 105.54 16.8883 105.54 16.642V16.5994C105.54 16.0644 105.381 15.6501 105.064 15.3565C104.747 15.063 104.29 14.9162 103.693 14.9162C103.063 14.9162 102.564 15.0535 102.195 15.3281C101.83 15.6027 101.584 15.9271 101.456 16.3011L99.0554 15.9602C99.2448 15.2973 99.5573 14.7434 99.9929 14.2983C100.429 13.8485 100.961 13.5123 101.591 13.2898C102.221 13.0625 102.917 12.9489 103.679 12.9489C104.205 12.9489 104.728 13.0104 105.249 13.1335C105.769 13.2566 106.245 13.4602 106.676 13.7443C107.107 14.0237 107.453 14.4048 107.713 14.8878C107.978 15.3707 108.111 15.9744 108.111 16.6989V24H105.639V22.5014H105.554C105.398 22.8045 105.178 23.0885 104.893 23.3537C104.614 23.6141 104.261 23.8248 103.835 23.9858C103.414 24.142 102.919 24.2202 102.351 24.2202ZM103.018 22.331C103.535 22.331 103.982 22.2292 104.361 22.0256C104.74 21.8172 105.031 21.5426 105.234 21.2017C105.443 20.8608 105.547 20.4891 105.547 20.0866V18.8011C105.466 18.8674 105.329 18.929 105.135 18.9858C104.946 19.0426 104.732 19.0923 104.496 19.1349C104.259 19.1776 104.025 19.2154 103.793 19.2486C103.561 19.2817 103.359 19.3101 103.189 19.3338C102.805 19.3859 102.462 19.4711 102.159 19.5895C101.856 19.7079 101.617 19.8736 101.442 20.0866C101.267 20.295 101.179 20.5649 101.179 20.8963C101.179 21.3698 101.352 21.7273 101.697 21.9688C102.043 22.2102 102.483 22.331 103.018 22.331ZM119.318 15.9744L116.974 16.2301C116.908 15.9934 116.792 15.7708 116.626 15.5625C116.465 15.3542 116.248 15.1861 115.973 15.0582C115.698 14.9304 115.362 14.8665 114.964 14.8665C114.429 14.8665 113.98 14.9825 113.615 15.2145C113.255 15.4465 113.078 15.7472 113.082 16.1165C113.078 16.4337 113.194 16.6918 113.43 16.8906C113.672 17.0895 114.07 17.2528 114.624 17.3807L116.484 17.7784C117.517 18.0009 118.284 18.3537 118.786 18.8366C119.292 19.3196 119.548 19.9517 119.553 20.733C119.548 21.4195 119.347 22.0256 118.949 22.5511C118.556 23.072 118.009 23.4792 117.308 23.7727C116.607 24.0663 115.803 24.2131 114.893 24.2131C113.558 24.2131 112.483 23.9337 111.669 23.375C110.855 22.8116 110.369 22.0279 110.213 21.0241L112.72 20.7827C112.834 21.2751 113.075 21.6468 113.445 21.8977C113.814 22.1487 114.295 22.2741 114.886 22.2741C115.497 22.2741 115.987 22.1487 116.357 21.8977C116.731 21.6468 116.918 21.3366 116.918 20.9673C116.918 20.6548 116.797 20.3968 116.555 20.1932C116.319 19.9896 115.949 19.8333 115.447 19.7244L113.587 19.3338C112.54 19.116 111.766 18.7491 111.264 18.233C110.762 17.7121 110.514 17.054 110.518 16.2585C110.514 15.5862 110.696 15.0038 111.065 14.5114C111.439 14.0142 111.958 13.6307 112.621 13.3608C113.288 13.0862 114.058 12.9489 114.929 12.9489C116.207 12.9489 117.214 13.2211 117.947 13.7656C118.686 14.3101 119.143 15.0464 119.318 15.9744ZM130.295 15.9744L127.951 16.2301C127.885 15.9934 127.769 15.7708 127.603 15.5625C127.442 15.3542 127.224 15.1861 126.95 15.0582C126.675 14.9304 126.339 14.8665 125.941 14.8665C125.406 14.8665 124.956 14.9825 124.592 15.2145C124.232 15.4465 124.054 15.7472 124.059 16.1165C124.054 16.4337 124.17 16.6918 124.407 16.8906C124.648 17.0895 125.046 17.2528 125.6 17.3807L127.461 17.7784C128.493 18.0009 129.26 18.3537 129.762 18.8366C130.269 19.3196 130.524 19.9517 130.529 20.733C130.524 21.4195 130.323 22.0256 129.925 22.5511C129.532 23.072 128.986 23.4792 128.285 23.7727C127.584 24.0663 126.779 24.2131 125.87 24.2131C124.535 24.2131 123.46 23.9337 122.646 23.375C121.831 22.8116 121.346 22.0279 121.19 21.0241L123.697 20.7827C123.81 21.2751 124.052 21.6468 124.421 21.8977C124.79 22.1487 125.271 22.2741 125.863 22.2741C126.474 22.2741 126.964 22.1487 127.333 21.8977C127.707 21.6468 127.894 21.3366 127.894 20.9673C127.894 20.6548 127.773 20.3968 127.532 20.1932C127.295 19.9896 126.926 19.8333 126.424 19.7244L124.563 19.3338C123.517 19.116 122.743 18.7491 122.241 18.233C121.739 17.7121 121.49 17.054 121.495 16.2585C121.49 15.5862 121.673 15.0038 122.042 14.5114C122.416 14.0142 122.934 13.6307 123.597 13.3608C124.265 13.0862 125.034 12.9489 125.906 12.9489C127.184 12.9489 128.19 13.2211 128.924 13.7656C129.663 14.3101 130.12 15.0464 130.295 15.9744ZM132.649 24V13.0909H135.22V24H132.649ZM133.942 11.5426C133.535 11.5426 133.184 11.4077 132.891 11.1378C132.597 10.8632 132.45 10.5341 132.45 10.1506C132.45 9.76231 132.597 9.43324 132.891 9.16335C133.184 8.88873 133.535 8.75142 133.942 8.75142C134.354 8.75142 134.704 8.88873 134.993 9.16335C135.286 9.43324 135.433 9.76231 135.433 10.1506C135.433 10.5341 135.286 10.8632 134.993 11.1378C134.704 11.4077 134.354 11.5426 133.942 11.5426ZM146.486 15.9744L144.142 16.2301C144.076 15.9934 143.96 15.7708 143.794 15.5625C143.633 15.3542 143.416 15.1861 143.141 15.0582C142.866 14.9304 142.53 14.8665 142.132 14.8665C141.597 14.8665 141.148 14.9825 140.783 15.2145C140.423 15.4465 140.246 15.7472 140.25 16.1165C140.246 16.4337 140.362 16.6918 140.598 16.8906C140.84 17.0895 141.238 17.2528 141.792 17.3807L143.652 17.7784C144.685 18.0009 145.452 18.3537 145.953 18.8366C146.46 19.3196 146.716 19.9517 146.721 20.733C146.716 21.4195 146.515 22.0256 146.117 22.5511C145.724 23.072 145.177 23.4792 144.476 23.7727C143.775 24.0663 142.971 24.2131 142.061 24.2131C140.726 24.2131 139.651 23.9337 138.837 23.375C138.023 22.8116 137.537 22.0279 137.381 21.0241L139.888 20.7827C140.002 21.2751 140.243 21.6468 140.613 21.8977C140.982 22.1487 141.462 22.2741 142.054 22.2741C142.665 22.2741 143.155 22.1487 143.525 21.8977C143.899 21.6468 144.086 21.3366 144.086 20.9673C144.086 20.6548 143.965 20.3968 143.723 20.1932C143.487 19.9896 143.117 19.8333 142.615 19.7244L140.755 19.3338C139.708 19.116 138.934 18.7491 138.432 18.233C137.93 17.7121 137.682 17.054 137.686 16.2585C137.682 15.5862 137.864 15.0038 138.233 14.5114C138.607 14.0142 139.126 13.6307 139.789 13.3608C140.456 13.0862 141.226 12.9489 142.097 12.9489C143.375 12.9489 144.382 13.2211 145.115 13.7656C145.854 14.3101 146.311 15.0464 146.486 15.9744ZM154.288 13.0909V15.0795H148.017V13.0909H154.288ZM149.565 10.4773H152.136V20.7188C152.136 21.0644 152.188 21.3295 152.292 21.5142C152.401 21.6941 152.543 21.8172 152.718 21.8835C152.894 21.9498 153.088 21.983 153.301 21.983C153.462 21.983 153.609 21.9711 153.741 21.9474C153.878 21.9238 153.983 21.9025 154.054 21.8835L154.487 23.8935C154.35 23.9408 154.153 23.9929 153.897 24.0497C153.646 24.1065 153.339 24.1397 152.974 24.1491C152.33 24.1681 151.75 24.071 151.234 23.858C150.718 23.6402 150.308 23.304 150.005 22.8494C149.707 22.3949 149.56 21.8267 149.565 21.1449V10.4773ZM159.577 24.2202C158.886 24.2202 158.263 24.0971 157.71 23.8509C157.16 23.5999 156.725 23.2306 156.403 22.7429C156.085 22.2552 155.927 21.6539 155.927 20.9389C155.927 20.3234 156.04 19.8144 156.268 19.4119C156.495 19.0095 156.805 18.6875 157.198 18.446C157.591 18.2045 158.034 18.0223 158.526 17.8991C159.023 17.7713 159.537 17.679 160.067 17.6222C160.707 17.5559 161.225 17.4967 161.623 17.4446C162.021 17.3878 162.309 17.3026 162.489 17.1889C162.674 17.0705 162.766 16.8883 162.766 16.642V16.5994C162.766 16.0644 162.608 15.6501 162.29 15.3565C161.973 15.063 161.516 14.9162 160.92 14.9162C160.29 14.9162 159.79 15.0535 159.421 15.3281C159.057 15.6027 158.81 15.9271 158.683 16.3011L156.282 15.9602C156.471 15.2973 156.784 14.7434 157.219 14.2983C157.655 13.8485 158.188 13.5123 158.817 13.2898C159.447 13.0625 160.143 12.9489 160.906 12.9489C161.431 12.9489 161.954 13.0104 162.475 13.1335C162.996 13.2566 163.472 13.4602 163.903 13.7443C164.334 14.0237 164.679 14.4048 164.94 14.8878C165.205 15.3707 165.337 15.9744 165.337 16.6989V24H162.866V22.5014H162.781C162.624 22.8045 162.404 23.0885 162.12 23.3537C161.841 23.6141 161.488 23.8248 161.062 23.9858C160.64 24.142 160.146 24.2202 159.577 24.2202ZM160.245 22.331C160.761 22.331 161.209 22.2292 161.587 22.0256C161.966 21.8172 162.257 21.5426 162.461 21.2017C162.669 20.8608 162.773 20.4891 162.773 20.0866V18.8011C162.693 18.8674 162.556 18.929 162.362 18.9858C162.172 19.0426 161.959 19.0923 161.722 19.1349C161.486 19.1776 161.251 19.2154 161.019 19.2486C160.787 19.2817 160.586 19.3101 160.415 19.3338C160.032 19.3859 159.689 19.4711 159.386 19.5895C159.083 19.7079 158.844 19.8736 158.668 20.0866C158.493 20.295 158.406 20.5649 158.406 20.8963C158.406 21.3698 158.578 21.7273 158.924 21.9688C159.27 22.2102 159.71 22.331 160.245 22.331ZM170.494 17.608V24H167.923V13.0909H170.38V14.9446H170.508C170.759 14.3338 171.159 13.8485 171.708 13.4886C172.262 13.1288 172.946 12.9489 173.761 12.9489C174.513 12.9489 175.169 13.1098 175.728 13.4318C176.291 13.7538 176.727 14.2202 177.035 14.831C177.347 15.4418 177.501 16.1828 177.496 17.054V24H174.925V17.4517C174.925 16.7225 174.736 16.152 174.357 15.7401C173.983 15.3281 173.465 15.1222 172.802 15.1222C172.352 15.1222 171.952 15.2216 171.602 15.4205C171.256 15.6146 170.984 15.8963 170.785 16.2656C170.591 16.6349 170.494 17.0824 170.494 17.608ZM184.869 24.2131C183.78 24.2131 182.844 23.974 182.063 23.4957C181.287 23.0175 180.688 22.357 180.266 21.5142C179.85 20.6667 179.641 19.6913 179.641 18.5881C179.641 17.4801 179.854 16.5024 180.281 15.6548C180.707 14.8026 181.308 14.1397 182.085 13.6662C182.866 13.188 183.789 12.9489 184.854 12.9489C185.74 12.9489 186.523 13.1122 187.205 13.4389C187.892 13.7609 188.439 14.2178 188.846 14.8097C189.253 15.3968 189.485 16.0833 189.542 16.8693H187.085C186.985 16.3437 186.748 15.9058 186.374 15.5554C186.005 15.2003 185.51 15.0227 184.89 15.0227C184.364 15.0227 183.903 15.1648 183.505 15.4489C183.107 15.7282 182.797 16.1307 182.575 16.6562C182.357 17.1818 182.248 17.8116 182.248 18.5455C182.248 19.2888 182.357 19.928 182.575 20.4631C182.792 20.9934 183.098 21.4029 183.491 21.6918C183.888 21.9759 184.355 22.1179 184.89 22.1179C185.269 22.1179 185.607 22.0469 185.906 21.9048C186.209 21.758 186.462 21.5473 186.665 21.2727C186.869 20.9981 187.009 20.6643 187.085 20.2713H189.542C189.48 21.0431 189.253 21.7273 188.86 22.3239C188.467 22.9157 187.932 23.3797 187.255 23.7159C186.578 24.0473 185.782 24.2131 184.869 24.2131ZM196.483 24.2131C195.389 24.2131 194.444 23.9858 193.649 23.5312C192.858 23.072 192.25 22.4233 191.824 21.5852C191.397 20.7424 191.184 19.7505 191.184 18.6094C191.184 17.4872 191.397 16.5024 191.824 15.6548C192.254 14.8026 192.856 14.1397 193.627 13.6662C194.399 13.188 195.306 12.9489 196.348 12.9489C197.02 12.9489 197.654 13.0578 198.251 13.2756C198.852 13.4886 199.383 13.8201 199.842 14.2699C200.306 14.7197 200.671 15.2926 200.936 15.9886C201.201 16.6799 201.333 17.5038 201.333 18.4602V19.2486H192.392V17.5156H198.869C198.864 17.0232 198.758 16.5852 198.549 16.2017C198.341 15.8134 198.05 15.508 197.676 15.2855C197.306 15.063 196.876 14.9517 196.383 14.9517C195.858 14.9517 195.396 15.0795 194.998 15.3352C194.6 15.5862 194.29 15.9176 194.068 16.3295C193.85 16.7367 193.739 17.1842 193.734 17.6719V19.1847C193.734 19.8191 193.85 20.3636 194.082 20.8182C194.314 21.268 194.638 21.6136 195.055 21.8551C195.472 22.0919 195.959 22.2102 196.518 22.2102C196.892 22.2102 197.231 22.1581 197.534 22.054C197.837 21.9451 198.1 21.7865 198.322 21.5781C198.545 21.3698 198.713 21.1117 198.826 20.804L201.227 21.0739C201.075 21.7083 200.787 22.2623 200.36 22.7358C199.939 23.2045 199.399 23.5691 198.741 23.8295C198.083 24.0852 197.33 24.2131 196.483 24.2131ZM215.082 15.669V17.7855H208.533V15.669H215.082ZM230.765 13.4531C230.699 12.8329 230.42 12.3499 229.927 12.0043C229.44 11.6586 228.805 11.4858 228.024 11.4858C227.475 11.4858 227.003 11.5687 226.61 11.7344C226.217 11.9001 225.917 12.125 225.708 12.4091C225.5 12.6932 225.394 13.0175 225.389 13.3821C225.389 13.6851 225.458 13.9479 225.595 14.1705C225.737 14.393 225.929 14.5824 226.17 14.7386C226.412 14.8902 226.679 15.018 226.973 15.1222C227.266 15.2263 227.562 15.3139 227.86 15.3849L229.224 15.7259C229.773 15.8537 230.301 16.0265 230.808 16.2443C231.319 16.4621 231.776 16.7367 232.179 17.0682C232.586 17.3996 232.908 17.7997 233.145 18.2685C233.381 18.7372 233.5 19.2865 233.5 19.9162C233.5 20.7685 233.282 21.5189 232.846 22.1676C232.411 22.8116 231.781 23.3158 230.957 23.6804C230.138 24.0402 229.146 24.2202 227.981 24.2202C226.85 24.2202 225.867 24.045 225.034 23.6946C224.205 23.3442 223.556 22.8329 223.088 22.1605C222.624 21.4882 222.373 20.669 222.335 19.7031H224.927C224.965 20.2098 225.121 20.6312 225.396 20.9673C225.671 21.3035 226.028 21.5545 226.468 21.7202C226.913 21.8859 227.411 21.9688 227.96 21.9688C228.533 21.9688 229.035 21.8835 229.466 21.7131C229.901 21.5379 230.242 21.2964 230.488 20.9886C230.734 20.6761 230.86 20.3116 230.865 19.8949C230.86 19.5161 230.749 19.2036 230.531 18.9574C230.313 18.7064 230.008 18.4981 229.615 18.3324C229.226 18.1619 228.772 18.0104 228.251 17.8778L226.596 17.4517C225.398 17.1439 224.451 16.6776 223.755 16.0526C223.064 15.4228 222.718 14.5871 222.718 13.5455C222.718 12.6884 222.95 11.938 223.414 11.294C223.883 10.6501 224.52 10.1506 225.325 9.79545C226.13 9.43561 227.041 9.25568 228.059 9.25568C229.092 9.25568 229.996 9.43561 230.772 9.79545C231.554 10.1506 232.167 10.6454 232.612 11.2798C233.057 11.9096 233.287 12.634 233.301 13.4531H230.765ZM235.735 28.0909V13.0909H238.263V14.8949H238.413C238.545 14.6297 238.732 14.348 238.974 14.0497C239.215 13.7467 239.542 13.4886 239.954 13.2756C240.366 13.0578 240.891 12.9489 241.531 12.9489C242.373 12.9489 243.133 13.1643 243.81 13.5952C244.492 14.0213 245.032 14.6534 245.43 15.4915C245.832 16.3248 246.033 17.3475 246.033 18.5597C246.033 19.7576 245.837 20.7756 245.444 21.6136C245.051 22.4517 244.516 23.0909 243.839 23.5312C243.162 23.9716 242.395 24.1918 241.538 24.1918C240.913 24.1918 240.394 24.0876 239.982 23.8793C239.57 23.6709 239.239 23.42 238.988 23.1264C238.742 22.8281 238.55 22.5464 238.413 22.2812H238.306V28.0909H235.735ZM238.256 18.5455C238.256 19.2509 238.356 19.8688 238.555 20.3991C238.758 20.9295 239.049 21.3437 239.428 21.642C239.812 21.9356 240.276 22.0824 240.82 22.0824C241.388 22.0824 241.864 21.9309 242.248 21.6278C242.631 21.3201 242.92 20.901 243.114 20.3707C243.313 19.8357 243.413 19.2273 243.413 18.5455C243.413 17.8684 243.316 17.267 243.121 16.7415C242.927 16.2159 242.638 15.804 242.255 15.5057C241.871 15.2074 241.393 15.0582 240.82 15.0582C240.271 15.0582 239.805 15.2027 239.421 15.4915C239.038 15.7803 238.746 16.1851 238.548 16.706C238.353 17.2268 238.256 17.84 238.256 18.5455ZM248.235 24V13.0909H250.728V14.9091H250.842C251.04 14.2794 251.381 13.794 251.864 13.4531C252.352 13.1075 252.908 12.9347 253.533 12.9347C253.675 12.9347 253.834 12.9418 254.009 12.956C254.189 12.9654 254.338 12.982 254.457 13.0057V15.3707C254.348 15.3329 254.175 15.2997 253.938 15.2713C253.706 15.2382 253.481 15.2216 253.263 15.2216C252.795 15.2216 252.373 15.3234 251.999 15.527C251.63 15.7259 251.339 16.0028 251.126 16.358C250.913 16.7131 250.806 17.1226 250.806 17.5866V24H248.235ZM256.165 24V13.0909H258.736V24H256.165ZM257.457 11.5426C257.05 11.5426 256.7 11.4077 256.406 11.1378C256.113 10.8632 255.966 10.5341 255.966 10.1506C255.966 9.76231 256.113 9.43324 256.406 9.16335C256.7 8.88873 257.05 8.75142 257.457 8.75142C257.869 8.75142 258.22 8.88873 258.509 9.16335C258.802 9.43324 258.949 9.76231 258.949 10.1506C258.949 10.5341 258.802 10.8632 258.509 11.1378C258.22 11.4077 257.869 11.5426 257.457 11.5426ZM263.951 17.608V24H261.38V13.0909H263.837V14.9446H263.965C264.216 14.3338 264.616 13.8485 265.165 13.4886C265.719 13.1288 266.403 12.9489 267.218 12.9489C267.971 12.9489 268.626 13.1098 269.185 13.4318C269.748 13.7538 270.184 14.2202 270.492 14.831C270.804 15.4418 270.958 16.1828 270.953 17.054V24H268.382V17.4517C268.382 16.7225 268.193 16.152 267.814 15.7401C267.44 15.3281 266.922 15.1222 266.259 15.1222C265.809 15.1222 265.409 15.2216 265.059 15.4205C264.713 15.6146 264.441 15.8963 264.242 16.2656C264.048 16.6349 263.951 17.0824 263.951 17.608ZM278.311 28.3182C277.388 28.3182 276.595 28.1927 275.932 27.9418C275.269 27.6955 274.737 27.3641 274.334 26.9474C273.932 26.5308 273.652 26.0691 273.496 25.5625L275.811 25.0014C275.916 25.2145 276.067 25.4252 276.266 25.6335C276.465 25.8466 276.732 26.0218 277.069 26.1591C277.409 26.3011 277.838 26.3722 278.354 26.3722C279.083 26.3722 279.687 26.1946 280.165 25.8395C280.643 25.4891 280.882 24.9115 280.882 24.1065V22.0398H280.755C280.622 22.3049 280.428 22.5772 280.172 22.8565C279.921 23.1359 279.587 23.3703 279.171 23.5597C278.759 23.7491 278.24 23.8438 277.615 23.8438C276.777 23.8438 276.017 23.6473 275.336 23.2543C274.658 22.8565 274.119 22.2647 273.716 21.4787C273.319 20.688 273.12 19.6984 273.12 18.5099C273.12 17.312 273.319 16.3011 273.716 15.4773C274.119 14.6487 274.661 14.0213 275.343 13.5952C276.025 13.1643 276.784 12.9489 277.623 12.9489C278.262 12.9489 278.787 13.0578 279.199 13.2756C279.616 13.4886 279.947 13.7467 280.194 14.0497C280.44 14.348 280.627 14.6297 280.755 14.8949H280.897V13.0909H283.432V24.1776C283.432 25.1103 283.21 25.8821 282.765 26.4929C282.319 27.1037 281.711 27.5606 280.939 27.8636C280.167 28.1667 279.292 28.3182 278.311 28.3182ZM278.333 21.8267C278.877 21.8267 279.341 21.6941 279.725 21.429C280.108 21.1638 280.4 20.7827 280.598 20.2855C280.797 19.7884 280.897 19.1918 280.897 18.4957C280.897 17.8092 280.797 17.2079 280.598 16.6918C280.404 16.1757 280.115 15.7756 279.732 15.4915C279.353 15.2027 278.887 15.0582 278.333 15.0582C277.76 15.0582 277.282 15.2074 276.898 15.5057C276.515 15.804 276.226 16.2135 276.032 16.7344C275.837 17.2505 275.74 17.8376 275.74 18.4957C275.74 19.1634 275.837 19.7481 276.032 20.25C276.23 20.7472 276.522 21.1354 276.905 21.4148C277.293 21.6894 277.769 21.8267 278.333 21.8267ZM290.502 11.6634V9.45455H302.108V11.6634H297.612V24H294.998V11.6634H290.502ZM306.802 17.608V24H304.231V9.45455H306.745V14.9446H306.873C307.129 14.3291 307.524 13.8437 308.059 13.4886C308.599 13.1288 309.286 12.9489 310.119 12.9489C310.877 12.9489 311.537 13.1075 312.1 13.4247C312.664 13.742 313.1 14.206 313.407 14.8168C313.72 15.4276 313.876 16.1733 313.876 17.054V24H311.305V17.4517C311.305 16.7178 311.116 16.1473 310.737 15.7401C310.363 15.3281 309.837 15.1222 309.16 15.1222C308.706 15.1222 308.298 15.2216 307.939 15.4205C307.583 15.6146 307.304 15.8963 307.1 16.2656C306.902 16.6349 306.802 17.0824 306.802 17.608ZM317.704 28.0909C317.354 28.0909 317.029 28.0625 316.731 28.0057C316.438 27.9536 316.203 27.892 316.028 27.821L316.625 25.8182C316.999 25.9271 317.333 25.9792 317.626 25.9744C317.92 25.9697 318.178 25.8774 318.4 25.6974C318.627 25.5223 318.819 25.2287 318.975 24.8168L319.196 24.2273L315.24 13.0909H317.967L320.481 21.3295H320.595L323.116 13.0909H325.85L321.483 25.321C321.279 25.8987 321.009 26.3935 320.673 26.8054C320.337 27.2221 319.925 27.5393 319.437 27.7571C318.954 27.9796 318.377 28.0909 317.704 28.0909ZM327.63 24V13.0909H330.087V14.9446H330.215C330.442 14.3196 330.819 13.8319 331.344 13.4815C331.87 13.1264 332.497 12.9489 333.226 12.9489C333.965 12.9489 334.587 13.1288 335.094 13.4886C335.605 13.8437 335.965 14.3291 336.174 14.9446H336.287C336.529 14.3385 336.936 13.8556 337.509 13.4957C338.087 13.1312 338.771 12.9489 339.561 12.9489C340.565 12.9489 341.384 13.2661 342.019 13.9006C342.653 14.535 342.971 15.4607 342.971 16.6776V24H340.392V17.0753C340.392 16.3982 340.212 15.9034 339.853 15.5909C339.493 15.2737 339.052 15.1151 338.532 15.1151C337.911 15.1151 337.426 15.3092 337.076 15.6974C336.73 16.081 336.557 16.5805 336.557 17.196V24H334.036V16.9688C334.036 16.4053 333.865 15.9555 333.525 15.6193C333.188 15.2831 332.748 15.1151 332.203 15.1151C331.834 15.1151 331.498 15.2098 331.195 15.3991C330.892 15.5838 330.65 15.8466 330.471 16.1875C330.291 16.5237 330.201 16.9167 330.201 17.3665V24H327.63ZM350.408 24.2131C349.315 24.2131 348.37 23.9858 347.575 23.5312C346.784 23.072 346.175 22.4233 345.749 21.5852C345.323 20.7424 345.11 19.7505 345.11 18.6094C345.11 17.4872 345.323 16.5024 345.749 15.6548C346.18 14.8026 346.781 14.1397 347.553 13.6662C348.325 13.188 349.232 12.9489 350.273 12.9489C350.946 12.9489 351.58 13.0578 352.177 13.2756C352.778 13.4886 353.308 13.8201 353.768 14.2699C354.232 14.7197 354.596 15.2926 354.862 15.9886C355.127 16.6799 355.259 17.5038 355.259 18.4602V19.2486H346.317V17.5156H352.795C352.79 17.0232 352.683 16.5852 352.475 16.2017C352.267 15.8134 351.976 15.508 351.602 15.2855C351.232 15.063 350.801 14.9517 350.309 14.9517C349.783 14.9517 349.322 15.0795 348.924 15.3352C348.526 15.5862 348.216 15.9176 347.994 16.3295C347.776 16.7367 347.665 17.1842 347.66 17.6719V19.1847C347.66 19.8191 347.776 20.3636 348.008 20.8182C348.24 21.268 348.564 21.6136 348.981 21.8551C349.397 22.0919 349.885 22.2102 350.444 22.2102C350.818 22.2102 351.156 22.1581 351.46 22.054C351.763 21.9451 352.025 21.7865 352.248 21.5781C352.47 21.3698 352.638 21.1117 352.752 20.804L355.153 21.0739C355.001 21.7083 354.712 22.2623 354.286 22.7358C353.865 23.2045 353.325 23.5691 352.667 23.8295C352.009 24.0852 351.256 24.2131 350.408 24.2131ZM360.005 9.45455V24H357.434V9.45455H360.005ZM367.479 24.2131C366.385 24.2131 365.44 23.9858 364.645 23.5312C363.854 23.072 363.246 22.4233 362.82 21.5852C362.393 20.7424 362.18 19.7505 362.18 18.6094C362.18 17.4872 362.393 16.5024 362.82 15.6548C363.25 14.8026 363.852 14.1397 364.624 13.6662C365.395 13.188 366.302 12.9489 367.344 12.9489C368.016 12.9489 368.651 13.0578 369.247 13.2756C369.848 13.4886 370.379 13.8201 370.838 14.2699C371.302 14.7197 371.667 15.2926 371.932 15.9886C372.197 16.6799 372.33 17.5038 372.33 18.4602V19.2486H363.388V17.5156H369.865C369.86 17.0232 369.754 16.5852 369.545 16.2017C369.337 15.8134 369.046 15.508 368.672 15.2855C368.303 15.063 367.872 14.9517 367.379 14.9517C366.854 14.9517 366.392 15.0795 365.994 15.3352C365.597 15.5862 365.286 15.9176 365.064 16.3295C364.846 16.7367 364.735 17.1842 364.73 17.6719V19.1847C364.73 19.8191 364.846 20.3636 365.078 20.8182C365.31 21.268 365.634 21.6136 366.051 21.8551C366.468 22.0919 366.955 22.2102 367.514 22.2102C367.888 22.2102 368.227 22.1581 368.53 22.054C368.833 21.9451 369.096 21.7865 369.318 21.5781C369.541 21.3698 369.709 21.1117 369.822 20.804L372.223 21.0739C372.071 21.7083 371.783 22.2623 371.357 22.7358C370.935 23.2045 370.395 23.5691 369.737 23.8295C369.079 24.0852 368.326 24.2131 367.479 24.2131ZM377.644 24.2202C376.953 24.2202 376.33 24.0971 375.776 23.8509C375.227 23.5999 374.791 23.2306 374.469 22.7429C374.152 22.2552 373.993 21.6539 373.993 20.9389C373.993 20.3234 374.107 19.8144 374.334 19.4119C374.561 19.0095 374.872 18.6875 375.265 18.446C375.658 18.2045 376.1 18.0223 376.593 17.8991C377.09 17.7713 377.604 17.679 378.134 17.6222C378.773 17.5559 379.292 17.4967 379.689 17.4446C380.087 17.3878 380.376 17.3026 380.556 17.1889C380.74 17.0705 380.833 16.8883 380.833 16.642V16.5994C380.833 16.0644 380.674 15.6501 380.357 15.3565C380.04 15.063 379.583 14.9162 378.986 14.9162C378.356 14.9162 377.857 15.0535 377.488 15.3281C377.123 15.6027 376.877 15.9271 376.749 16.3011L374.348 15.9602C374.538 15.2973 374.85 14.7434 375.286 14.2983C375.721 13.8485 376.254 13.5123 376.884 13.2898C377.514 13.0625 378.21 12.9489 378.972 12.9489C379.498 12.9489 380.021 13.0104 380.542 13.1335C381.062 13.2566 381.538 13.4602 381.969 13.7443C382.4 14.0237 382.746 14.4048 383.006 14.8878C383.271 15.3707 383.404 15.9744 383.404 16.6989V24H380.932V22.5014H380.847C380.691 22.8045 380.471 23.0885 380.186 23.3537C379.907 23.6141 379.554 23.8248 379.128 23.9858C378.707 24.142 378.212 24.2202 377.644 24.2202ZM378.311 22.331C378.828 22.331 379.275 22.2292 379.654 22.0256C380.033 21.8172 380.324 21.5426 380.527 21.2017C380.736 20.8608 380.84 20.4891 380.84 20.0866V18.8011C380.759 18.8674 380.622 18.929 380.428 18.9858C380.239 19.0426 380.025 19.0923 379.789 19.1349C379.552 19.1776 379.318 19.2154 379.086 19.2486C378.854 19.2817 378.652 19.3101 378.482 19.3338C378.098 19.3859 377.755 19.4711 377.452 19.5895C377.149 19.7079 376.91 19.8736 376.735 20.0866C376.56 20.295 376.472 20.5649 376.472 20.8963C376.472 21.3698 376.645 21.7273 376.99 21.9688C377.336 22.2102 377.776 22.331 378.311 22.331ZM391.515 13.0909V15.0795H385.066V13.0909H391.515ZM386.678 24V12.0611C386.678 11.3272 386.829 10.7164 387.132 10.2287C387.44 9.741 387.852 9.37642 388.368 9.13494C388.884 8.89347 389.457 8.77273 390.087 8.77273C390.532 8.77273 390.927 8.80824 391.273 8.87926C391.619 8.95028 391.874 9.0142 392.04 9.07102L391.529 11.0597C391.42 11.0265 391.283 10.9934 391.117 10.9602C390.951 10.9223 390.766 10.9034 390.563 10.9034C390.085 10.9034 389.746 11.0194 389.547 11.2514C389.353 11.4787 389.256 11.8054 389.256 12.2315V24H386.678Z" fill="white"/>
</svg>
