<svg width="287" height="34" viewBox="0 0 287 34" fill="none" xmlns="http://www.w3.org/2000/svg">
<g clip-path="url(#clip0_103_292)">
<path d="M0.795455 9.66335V7.45455H12.4006V9.66335H7.90483V22H5.29119V9.66335H0.795455ZM17.7717 22.2131C16.6779 22.2131 15.7333 21.9858 14.9379 21.5312C14.1471 21.072 13.5387 20.4233 13.1126 19.5852C12.6864 18.7424 12.4734 17.7505 12.4734 16.6094C12.4734 15.4872 12.6864 14.5024 13.1126 13.6548C13.5434 12.8026 14.1448 12.1397 14.9165 11.6662C15.6883 11.188 16.5951 10.9489 17.6367 10.9489C18.3091 10.9489 18.9435 11.0578 19.5401 11.2756C20.1415 11.4886 20.6718 11.8201 21.131 12.2699C21.5951 12.7197 21.9596 13.2926 22.2248 13.9886C22.4899 14.6799 22.6225 15.5038 22.6225 16.4602V17.2486H13.6808V15.5156H20.158C20.1533 15.0232 20.0468 14.5852 19.8384 14.2017C19.6301 13.8134 19.3389 13.508 18.9648 13.2855C18.5955 13.063 18.1647 12.9517 17.6722 12.9517C17.1467 12.9517 16.685 13.0795 16.2873 13.3352C15.8896 13.5862 15.5794 13.9176 15.3569 14.3295C15.1391 14.7367 15.0278 15.1842 15.0231 15.6719V17.1847C15.0231 17.8191 15.1391 18.3636 15.3711 18.8182C15.6031 19.268 15.9274 19.6136 16.3441 19.8551C16.7608 20.0919 17.2485 20.2102 17.8072 20.2102C18.1812 20.2102 18.5198 20.1581 18.8228 20.054C19.1258 19.9451 19.3886 19.7865 19.6112 19.5781C19.8337 19.3698 20.0018 19.1117 20.1154 18.804L22.516 19.0739C22.3645 19.7083 22.0756 20.2623 21.6495 20.7358C21.2281 21.2045 20.6883 21.5691 20.0302 21.8295C19.372 22.0852 18.6192 22.2131 17.7717 22.2131ZM29.5561 22.2131C28.4671 22.2131 27.532 21.974 26.7507 21.4957C25.9742 21.0175 25.3752 20.357 24.9538 19.5142C24.5372 18.6667 24.3288 17.6913 24.3288 16.5881C24.3288 15.4801 24.5419 14.5024 24.968 13.6548C25.3942 12.8026 25.9955 12.1397 26.772 11.6662C27.5533 11.188 28.4766 10.9489 29.5419 10.9489C30.4273 10.9489 31.2109 11.1122 31.8928 11.4389C32.5793 11.7609 33.1262 12.2178 33.5334 12.8097C33.9406 13.3968 34.1726 14.0833 34.2294 14.8693H31.772C31.6726 14.3437 31.4358 13.9058 31.0618 13.5554C30.6925 13.2003 30.1977 13.0227 29.5774 13.0227C29.0518 13.0227 28.5902 13.1648 28.1925 13.4489C27.7947 13.7282 27.4846 14.1307 27.2621 14.6562C27.0443 15.1818 26.9354 15.8116 26.9354 16.5455C26.9354 17.2888 27.0443 17.928 27.2621 18.4631C27.4799 18.9934 27.7853 19.4029 28.1783 19.6918C28.576 19.9759 29.0424 20.1179 29.5774 20.1179C29.9562 20.1179 30.2947 20.0469 30.593 19.9048C30.8961 19.758 31.1494 19.5473 31.353 19.2727C31.5566 18.9981 31.6963 18.6643 31.772 18.2713H34.2294C34.1679 19.0431 33.9406 19.7273 33.5476 20.3239C33.1546 20.9157 32.6196 21.3797 31.9425 21.7159C31.2654 22.0473 30.4699 22.2131 29.5561 22.2131ZM38.9116 15.608V22H36.3406V7.45455H38.8548V12.9446H38.9826C39.2383 12.3291 39.6336 11.8437 40.1687 11.4886C40.7085 11.1288 41.395 10.9489 42.2283 10.9489C42.9859 10.9489 43.6464 11.1075 44.2099 11.4247C44.7733 11.742 45.2089 12.206 45.5167 12.8168C45.8292 13.4276 45.9854 14.1733 45.9854 15.054V22H43.4144V15.4517C43.4144 14.7178 43.225 14.1473 42.8462 13.7401C42.4722 13.3281 41.9466 13.1222 41.2695 13.1222C40.815 13.1222 40.4078 13.2216 40.0479 13.4205C39.6928 13.6146 39.4135 13.8963 39.2099 14.2656C39.011 14.6349 38.9116 15.0824 38.9116 15.608ZM51.1772 15.608V22H48.6062V11.0909H51.0636V12.9446H51.1914C51.4424 12.3338 51.8424 11.8485 52.3917 11.4886C52.9457 11.1288 53.6299 10.9489 54.4442 10.9489C55.1971 10.9489 55.8529 11.1098 56.4116 11.4318C56.975 11.7538 57.4106 12.2202 57.7184 12.831C58.0309 13.4418 58.1848 14.1828 58.18 15.054V22H55.609V15.4517C55.609 14.7225 55.4196 14.152 55.0408 13.7401C54.6668 13.3281 54.1483 13.1222 53.4854 13.1222C53.0356 13.1222 52.6355 13.2216 52.2852 13.4205C51.9395 13.6146 51.6673 13.8963 51.4684 14.2656C51.2743 14.6349 51.1772 15.0824 51.1772 15.608ZM60.7937 22V11.0909H63.3647V22H60.7937ZM62.0863 9.54261C61.6791 9.54261 61.3287 9.40767 61.0352 9.13778C60.7416 8.86316 60.5948 8.53409 60.5948 8.15057C60.5948 7.76231 60.7416 7.43324 61.0352 7.16335C61.3287 6.88873 61.6791 6.75142 62.0863 6.75142C62.4982 6.75142 62.8486 6.88873 63.1374 7.16335C63.431 7.43324 63.5778 7.76231 63.5778 8.15057C63.5778 8.53409 63.431 8.86316 63.1374 9.13778C62.8486 9.40767 62.4982 9.54261 62.0863 9.54261ZM70.767 22.2131C69.678 22.2131 68.7429 21.974 67.9616 21.4957C67.1851 21.0175 66.5862 20.357 66.1648 19.5142C65.7481 18.6667 65.5398 17.6913 65.5398 16.5881C65.5398 15.4801 65.7528 14.5024 66.179 13.6548C66.6051 12.8026 67.2064 12.1397 67.983 11.6662C68.7642 11.188 69.6875 10.9489 70.7528 10.9489C71.6383 10.9489 72.4219 11.1122 73.1037 11.4389C73.7902 11.7609 74.3371 12.2178 74.7443 12.8097C75.1515 13.3968 75.3835 14.0833 75.4403 14.8693H72.983C72.8835 14.3437 72.6468 13.9058 72.2727 13.5554C71.9034 13.2003 71.4086 13.0227 70.7884 13.0227C70.2628 13.0227 69.8011 13.1648 69.4034 13.4489C69.0057 13.7282 68.6955 14.1307 68.473 14.6562C68.2552 15.1818 68.1463 15.8116 68.1463 16.5455C68.1463 17.2888 68.2552 17.928 68.473 18.4631C68.6908 18.9934 68.9962 19.4029 69.3892 19.6918C69.7869 19.9759 70.2533 20.1179 70.7884 20.1179C71.1671 20.1179 71.5057 20.0469 71.804 19.9048C72.107 19.758 72.3603 19.5473 72.5639 19.2727C72.7675 18.9981 72.9072 18.6643 72.983 18.2713H75.4403C75.3788 19.0431 75.1515 19.7273 74.7585 20.3239C74.3655 20.9157 73.8305 21.3797 73.1534 21.7159C72.4763 22.0473 71.6809 22.2131 70.767 22.2131ZM80.6907 22.2202C79.9994 22.2202 79.3768 22.0971 78.8228 21.8509C78.2736 21.5999 77.8379 21.2306 77.516 20.7429C77.1987 20.2552 77.0401 19.6539 77.0401 18.9389C77.0401 18.3234 77.1538 17.8144 77.381 17.4119C77.6083 17.0095 77.9184 16.6875 78.3114 16.446C78.7044 16.2045 79.1471 16.0223 79.6396 15.8991C80.1367 15.7713 80.6504 15.679 81.1808 15.6222C81.82 15.5559 82.3384 15.4967 82.7362 15.4446C83.1339 15.3878 83.4227 15.3026 83.6026 15.1889C83.7873 15.0705 83.8796 14.8883 83.8796 14.642V14.5994C83.8796 14.0644 83.721 13.6501 83.4038 13.3565C83.0865 13.063 82.6296 12.9162 82.033 12.9162C81.4033 12.9162 80.9038 13.0535 80.5344 13.3281C80.1699 13.6027 79.9237 13.9271 79.7958 14.3011L77.3952 13.9602C77.5846 13.2973 77.8971 12.7434 78.3327 12.2983C78.7683 11.8485 79.301 11.5123 79.9308 11.2898C80.5605 11.0625 81.2565 10.9489 82.0188 10.9489C82.5444 10.9489 83.0676 11.0104 83.5884 11.1335C84.1093 11.2566 84.5851 11.4602 85.016 11.7443C85.4469 12.0237 85.7925 12.4048 86.0529 12.8878C86.3181 13.3707 86.4506 13.9744 86.4506 14.6989V22H83.979V20.5014H83.8938C83.7376 20.8045 83.5174 21.0885 83.2333 21.3537C82.954 21.6141 82.6012 21.8248 82.1751 21.9858C81.7537 22.142 81.2589 22.2202 80.6907 22.2202ZM81.3583 20.331C81.8744 20.331 82.3219 20.2292 82.7006 20.0256C83.0794 19.8172 83.3706 19.5426 83.5742 19.2017C83.7826 18.8608 83.8867 18.4891 83.8867 18.0866V16.8011C83.8062 16.8674 83.6689 16.929 83.4748 16.9858C83.2854 17.0426 83.0723 17.0923 82.8356 17.1349C82.5988 17.1776 82.3645 17.2154 82.1325 17.2486C81.9004 17.2817 81.6992 17.3101 81.5288 17.3338C81.1452 17.3859 80.802 17.4711 80.4989 17.5895C80.1959 17.7079 79.9568 17.8736 79.7816 18.0866C79.6064 18.295 79.5188 18.5649 79.5188 18.8963C79.5188 19.3698 79.6916 19.7273 80.0373 19.9688C80.3829 20.2102 80.8233 20.331 81.3583 20.331ZM91.6069 7.45455V22H89.0359V7.45455H91.6069ZM102.351 22.2202C101.66 22.2202 101.037 22.0971 100.483 21.8509C99.9337 21.5999 99.4981 21.2306 99.1761 20.7429C98.8589 20.2552 98.7003 19.6539 98.7003 18.9389C98.7003 18.3234 98.8139 17.8144 99.0412 17.4119C99.2685 17.0095 99.5786 16.6875 99.9716 16.446C100.365 16.2045 100.807 16.0223 101.3 15.8991C101.797 15.7713 102.311 15.679 102.841 15.6222C103.48 15.5559 103.999 15.4967 104.396 15.4446C104.794 15.3878 105.083 15.3026 105.263 15.1889C105.447 15.0705 105.54 14.8883 105.54 14.642V14.5994C105.54 14.0644 105.381 13.6501 105.064 13.3565C104.747 13.063 104.29 12.9162 103.693 12.9162C103.063 12.9162 102.564 13.0535 102.195 13.3281C101.83 13.6027 101.584 13.9271 101.456 14.3011L99.0554 13.9602C99.2448 13.2973 99.5573 12.7434 99.9929 12.2983C100.429 11.8485 100.961 11.5123 101.591 11.2898C102.221 11.0625 102.917 10.9489 103.679 10.9489C104.205 10.9489 104.728 11.0104 105.249 11.1335C105.769 11.2566 106.245 11.4602 106.676 11.7443C107.107 12.0237 107.453 12.4048 107.713 12.8878C107.978 13.3707 108.111 13.9744 108.111 14.6989V22H105.639V20.5014H105.554C105.398 20.8045 105.178 21.0885 104.893 21.3537C104.614 21.6141 104.261 21.8248 103.835 21.9858C103.414 22.142 102.919 22.2202 102.351 22.2202ZM103.018 20.331C103.535 20.331 103.982 20.2292 104.361 20.0256C104.74 19.8172 105.031 19.5426 105.234 19.2017C105.443 18.8608 105.547 18.4891 105.547 18.0866V16.8011C105.466 16.8674 105.329 16.929 105.135 16.9858C104.946 17.0426 104.732 17.0923 104.496 17.1349C104.259 17.1776 104.025 17.2154 103.793 17.2486C103.561 17.2817 103.359 17.3101 103.189 17.3338C102.805 17.3859 102.462 17.4711 102.159 17.5895C101.856 17.7079 101.617 17.8736 101.442 18.0866C101.267 18.295 101.179 18.5649 101.179 18.8963C101.179 19.3698 101.352 19.7273 101.697 19.9688C102.043 20.2102 102.483 20.331 103.018 20.331ZM119.318 13.9744L116.974 14.2301C116.908 13.9934 116.792 13.7708 116.626 13.5625C116.465 13.3542 116.248 13.1861 115.973 13.0582C115.698 12.9304 115.362 12.8665 114.964 12.8665C114.429 12.8665 113.98 12.9825 113.615 13.2145C113.255 13.4465 113.078 13.7472 113.082 14.1165C113.078 14.4337 113.194 14.6918 113.43 14.8906C113.672 15.0895 114.07 15.2528 114.624 15.3807L116.484 15.7784C117.517 16.0009 118.284 16.3537 118.786 16.8366C119.292 17.3196 119.548 17.9517 119.553 18.733C119.548 19.4195 119.347 20.0256 118.949 20.5511C118.556 21.072 118.009 21.4792 117.308 21.7727C116.607 22.0663 115.803 22.2131 114.893 22.2131C113.558 22.2131 112.483 21.9337 111.669 21.375C110.855 20.8116 110.369 20.0279 110.213 19.0241L112.72 18.7827C112.834 19.2751 113.075 19.6468 113.445 19.8977C113.814 20.1487 114.295 20.2741 114.886 20.2741C115.497 20.2741 115.987 20.1487 116.357 19.8977C116.731 19.6468 116.918 19.3366 116.918 18.9673C116.918 18.6548 116.797 18.3968 116.555 18.1932C116.319 17.9896 115.949 17.8333 115.447 17.7244L113.587 17.3338C112.54 17.116 111.766 16.7491 111.264 16.233C110.762 15.7121 110.514 15.054 110.518 14.2585C110.514 13.5862 110.696 13.0038 111.065 12.5114C111.439 12.0142 111.958 11.6307 112.621 11.3608C113.288 11.0862 114.058 10.9489 114.929 10.9489C116.207 10.9489 117.214 11.2211 117.947 11.7656C118.686 12.3101 119.143 13.0464 119.318 13.9744ZM130.295 13.9744L127.951 14.2301C127.885 13.9934 127.769 13.7708 127.603 13.5625C127.442 13.3542 127.224 13.1861 126.95 13.0582C126.675 12.9304 126.339 12.8665 125.941 12.8665C125.406 12.8665 124.956 12.9825 124.592 13.2145C124.232 13.4465 124.054 13.7472 124.059 14.1165C124.054 14.4337 124.17 14.6918 124.407 14.8906C124.648 15.0895 125.046 15.2528 125.6 15.3807L127.461 15.7784C128.493 16.0009 129.26 16.3537 129.762 16.8366C130.269 17.3196 130.524 17.9517 130.529 18.733C130.524 19.4195 130.323 20.0256 129.925 20.5511C129.532 21.072 128.986 21.4792 128.285 21.7727C127.584 22.0663 126.779 22.2131 125.87 22.2131C124.535 22.2131 123.46 21.9337 122.646 21.375C121.831 20.8116 121.346 20.0279 121.19 19.0241L123.697 18.7827C123.81 19.2751 124.052 19.6468 124.421 19.8977C124.79 20.1487 125.271 20.2741 125.863 20.2741C126.474 20.2741 126.964 20.1487 127.333 19.8977C127.707 19.6468 127.894 19.3366 127.894 18.9673C127.894 18.6548 127.773 18.3968 127.532 18.1932C127.295 17.9896 126.926 17.8333 126.424 17.7244L124.563 17.3338C123.517 17.116 122.743 16.7491 122.241 16.233C121.739 15.7121 121.49 15.054 121.495 14.2585C121.49 13.5862 121.673 13.0038 122.042 12.5114C122.416 12.0142 122.934 11.6307 123.597 11.3608C124.265 11.0862 125.034 10.9489 125.906 10.9489C127.184 10.9489 128.19 11.2211 128.924 11.7656C129.663 12.3101 130.12 13.0464 130.295 13.9744ZM132.649 22V11.0909H135.22V22H132.649ZM133.942 9.54261C133.535 9.54261 133.184 9.40767 132.891 9.13778C132.597 8.86316 132.45 8.53409 132.45 8.15057C132.45 7.76231 132.597 7.43324 132.891 7.16335C133.184 6.88873 133.535 6.75142 133.942 6.75142C134.354 6.75142 134.704 6.88873 134.993 7.16335C135.286 7.43324 135.433 7.76231 135.433 8.15057C135.433 8.53409 135.286 8.86316 134.993 9.13778C134.704 9.40767 134.354 9.54261 133.942 9.54261ZM146.486 13.9744L144.142 14.2301C144.076 13.9934 143.96 13.7708 143.794 13.5625C143.633 13.3542 143.416 13.1861 143.141 13.0582C142.866 12.9304 142.53 12.8665 142.132 12.8665C141.597 12.8665 141.148 12.9825 140.783 13.2145C140.423 13.4465 140.246 13.7472 140.25 14.1165C140.246 14.4337 140.362 14.6918 140.598 14.8906C140.84 15.0895 141.238 15.2528 141.792 15.3807L143.652 15.7784C144.685 16.0009 145.452 16.3537 145.953 16.8366C146.46 17.3196 146.716 17.9517 146.721 18.733C146.716 19.4195 146.515 20.0256 146.117 20.5511C145.724 21.072 145.177 21.4792 144.476 21.7727C143.775 22.0663 142.971 22.2131 142.061 22.2131C140.726 22.2131 139.651 21.9337 138.837 21.375C138.023 20.8116 137.537 20.0279 137.381 19.0241L139.888 18.7827C140.002 19.2751 140.243 19.6468 140.613 19.8977C140.982 20.1487 141.462 20.2741 142.054 20.2741C142.665 20.2741 143.155 20.1487 143.525 19.8977C143.899 19.6468 144.086 19.3366 144.086 18.9673C144.086 18.6548 143.965 18.3968 143.723 18.1932C143.487 17.9896 143.117 17.8333 142.615 17.7244L140.755 17.3338C139.708 17.116 138.934 16.7491 138.432 16.233C137.93 15.7121 137.682 15.054 137.686 14.2585C137.682 13.5862 137.864 13.0038 138.233 12.5114C138.607 12.0142 139.126 11.6307 139.789 11.3608C140.456 11.0862 141.226 10.9489 142.097 10.9489C143.375 10.9489 144.382 11.2211 145.115 11.7656C145.854 12.3101 146.311 13.0464 146.486 13.9744ZM154.288 11.0909V13.0795H148.017V11.0909H154.288ZM149.565 8.47727H152.136V18.7188C152.136 19.0644 152.188 19.3295 152.292 19.5142C152.401 19.6941 152.543 19.8172 152.718 19.8835C152.894 19.9498 153.088 19.983 153.301 19.983C153.462 19.983 153.609 19.9711 153.741 19.9474C153.878 19.9238 153.983 19.9025 154.054 19.8835L154.487 21.8935C154.35 21.9408 154.153 21.9929 153.897 22.0497C153.646 22.1065 153.339 22.1397 152.974 22.1491C152.33 22.1681 151.75 22.071 151.234 21.858C150.718 21.6402 150.308 21.304 150.005 20.8494C149.707 20.3949 149.56 19.8267 149.565 19.1449V8.47727ZM159.577 22.2202C158.886 22.2202 158.263 22.0971 157.71 21.8509C157.16 21.5999 156.725 21.2306 156.403 20.7429C156.085 20.2552 155.927 19.6539 155.927 18.9389C155.927 18.3234 156.04 17.8144 156.268 17.4119C156.495 17.0095 156.805 16.6875 157.198 16.446C157.591 16.2045 158.034 16.0223 158.526 15.8991C159.023 15.7713 159.537 15.679 160.067 15.6222C160.707 15.5559 161.225 15.4967 161.623 15.4446C162.021 15.3878 162.309 15.3026 162.489 15.1889C162.674 15.0705 162.766 14.8883 162.766 14.642V14.5994C162.766 14.0644 162.608 13.6501 162.29 13.3565C161.973 13.063 161.516 12.9162 160.92 12.9162C160.29 12.9162 159.79 13.0535 159.421 13.3281C159.057 13.6027 158.81 13.9271 158.683 14.3011L156.282 13.9602C156.471 13.2973 156.784 12.7434 157.219 12.2983C157.655 11.8485 158.188 11.5123 158.817 11.2898C159.447 11.0625 160.143 10.9489 160.906 10.9489C161.431 10.9489 161.954 11.0104 162.475 11.1335C162.996 11.2566 163.472 11.4602 163.903 11.7443C164.334 12.0237 164.679 12.4048 164.94 12.8878C165.205 13.3707 165.337 13.9744 165.337 14.6989V22H162.866V20.5014H162.781C162.624 20.8045 162.404 21.0885 162.12 21.3537C161.841 21.6141 161.488 21.8248 161.062 21.9858C160.64 22.142 160.146 22.2202 159.577 22.2202ZM160.245 20.331C160.761 20.331 161.209 20.2292 161.587 20.0256C161.966 19.8172 162.257 19.5426 162.461 19.2017C162.669 18.8608 162.773 18.4891 162.773 18.0866V16.8011C162.693 16.8674 162.556 16.929 162.362 16.9858C162.172 17.0426 161.959 17.0923 161.722 17.1349C161.486 17.1776 161.251 17.2154 161.019 17.2486C160.787 17.2817 160.586 17.3101 160.415 17.3338C160.032 17.3859 159.689 17.4711 159.386 17.5895C159.083 17.7079 158.844 17.8736 158.668 18.0866C158.493 18.295 158.406 18.5649 158.406 18.8963C158.406 19.3698 158.578 19.7273 158.924 19.9688C159.27 20.2102 159.71 20.331 160.245 20.331ZM170.494 15.608V22H167.923V11.0909H170.38V12.9446H170.508C170.759 12.3338 171.159 11.8485 171.708 11.4886C172.262 11.1288 172.946 10.9489 173.761 10.9489C174.513 10.9489 175.169 11.1098 175.728 11.4318C176.291 11.7538 176.727 12.2202 177.035 12.831C177.347 13.4418 177.501 14.1828 177.496 15.054V22H174.925V15.4517C174.925 14.7225 174.736 14.152 174.357 13.7401C173.983 13.3281 173.465 13.1222 172.802 13.1222C172.352 13.1222 171.952 13.2216 171.602 13.4205C171.256 13.6146 170.984 13.8963 170.785 14.2656C170.591 14.6349 170.494 15.0824 170.494 15.608ZM184.869 22.2131C183.78 22.2131 182.844 21.974 182.063 21.4957C181.287 21.0175 180.688 20.357 180.266 19.5142C179.85 18.6667 179.641 17.6913 179.641 16.5881C179.641 15.4801 179.854 14.5024 180.281 13.6548C180.707 12.8026 181.308 12.1397 182.085 11.6662C182.866 11.188 183.789 10.9489 184.854 10.9489C185.74 10.9489 186.523 11.1122 187.205 11.4389C187.892 11.7609 188.439 12.2178 188.846 12.8097C189.253 13.3968 189.485 14.0833 189.542 14.8693H187.085C186.985 14.3437 186.748 13.9058 186.374 13.5554C186.005 13.2003 185.51 13.0227 184.89 13.0227C184.364 13.0227 183.903 13.1648 183.505 13.4489C183.107 13.7282 182.797 14.1307 182.575 14.6562C182.357 15.1818 182.248 15.8116 182.248 16.5455C182.248 17.2888 182.357 17.928 182.575 18.4631C182.792 18.9934 183.098 19.4029 183.491 19.6918C183.888 19.9759 184.355 20.1179 184.89 20.1179C185.269 20.1179 185.607 20.0469 185.906 19.9048C186.209 19.758 186.462 19.5473 186.665 19.2727C186.869 18.9981 187.009 18.6643 187.085 18.2713H189.542C189.48 19.0431 189.253 19.7273 188.86 20.3239C188.467 20.9157 187.932 21.3797 187.255 21.7159C186.578 22.0473 185.782 22.2131 184.869 22.2131ZM196.483 22.2131C195.389 22.2131 194.444 21.9858 193.649 21.5312C192.858 21.072 192.25 20.4233 191.824 19.5852C191.397 18.7424 191.184 17.7505 191.184 16.6094C191.184 15.4872 191.397 14.5024 191.824 13.6548C192.254 12.8026 192.856 12.1397 193.627 11.6662C194.399 11.188 195.306 10.9489 196.348 10.9489C197.02 10.9489 197.654 11.0578 198.251 11.2756C198.852 11.4886 199.383 11.8201 199.842 12.2699C200.306 12.7197 200.671 13.2926 200.936 13.9886C201.201 14.6799 201.333 15.5038 201.333 16.4602V17.2486H192.392V15.5156H198.869C198.864 15.0232 198.758 14.5852 198.549 14.2017C198.341 13.8134 198.05 13.508 197.676 13.2855C197.306 13.063 196.876 12.9517 196.383 12.9517C195.858 12.9517 195.396 13.0795 194.998 13.3352C194.6 13.5862 194.29 13.9176 194.068 14.3295C193.85 14.7367 193.739 15.1842 193.734 15.6719V17.1847C193.734 17.8191 193.85 18.3636 194.082 18.8182C194.314 19.268 194.638 19.6136 195.055 19.8551C195.472 20.0919 195.959 20.2102 196.518 20.2102C196.892 20.2102 197.231 20.1581 197.534 20.054C197.837 19.9451 198.1 19.7865 198.322 19.5781C198.545 19.3698 198.713 19.1117 198.826 18.804L201.227 19.0739C201.075 19.7083 200.787 20.2623 200.36 20.7358C199.939 21.2045 199.399 21.5691 198.741 21.8295C198.083 22.0852 197.33 22.2131 196.483 22.2131ZM215.082 13.669V15.7855H208.533V13.669H215.082ZM222.86 22V7.45455H225.495V19.7912H231.902V22H222.86ZM237.214 22.2202C236.523 22.2202 235.9 22.0971 235.346 21.8509C234.797 21.5999 234.361 21.2306 234.039 20.7429C233.722 20.2552 233.564 19.6539 233.564 18.9389C233.564 18.3234 233.677 17.8144 233.904 17.4119C234.132 17.0095 234.442 16.6875 234.835 16.446C235.228 16.2045 235.671 16.0223 236.163 15.8991C236.66 15.7713 237.174 15.679 237.704 15.6222C238.343 15.5559 238.862 15.4967 239.26 15.4446C239.657 15.3878 239.946 15.3026 240.126 15.1889C240.311 15.0705 240.403 14.8883 240.403 14.642V14.5994C240.403 14.0644 240.244 13.6501 239.927 13.3565C239.61 13.063 239.153 12.9162 238.556 12.9162C237.927 12.9162 237.427 13.0535 237.058 13.3281C236.693 13.6027 236.447 13.9271 236.319 14.3011L233.919 13.9602C234.108 13.2973 234.421 12.7434 234.856 12.2983C235.292 11.8485 235.824 11.5123 236.454 11.2898C237.084 11.0625 237.78 10.9489 238.542 10.9489C239.068 10.9489 239.591 11.0104 240.112 11.1335C240.633 11.2566 241.109 11.4602 241.539 11.7443C241.97 12.0237 242.316 12.4048 242.576 12.8878C242.842 13.3707 242.974 13.9744 242.974 14.6989V22H240.502V20.5014H240.417C240.261 20.8045 240.041 21.0885 239.757 21.3537C239.477 21.6141 239.125 21.8248 238.699 21.9858C238.277 22.142 237.782 22.2202 237.214 22.2202ZM237.882 20.331C238.398 20.331 238.845 20.2292 239.224 20.0256C239.603 19.8172 239.894 19.5426 240.098 19.2017C240.306 18.8608 240.41 18.4891 240.41 18.0866V16.8011C240.33 16.8674 240.192 16.929 239.998 16.9858C239.809 17.0426 239.596 17.0923 239.359 17.1349C239.122 17.1776 238.888 17.2154 238.656 17.2486C238.424 17.2817 238.223 17.3101 238.052 17.3338C237.669 17.3859 237.325 17.4711 237.022 17.5895C236.719 17.7079 236.48 17.8736 236.305 18.0866C236.13 18.295 236.042 18.5649 236.042 18.8963C236.042 19.3698 236.215 19.7273 236.561 19.9688C236.906 20.2102 237.347 20.331 237.882 20.331ZM245.559 22V11.0909H248.052V12.9091H248.166C248.365 12.2794 248.706 11.794 249.189 11.4531C249.676 11.1075 250.233 10.9347 250.858 10.9347C251 10.9347 251.158 10.9418 251.333 10.956C251.513 10.9654 251.663 10.982 251.781 11.0057V13.3707C251.672 13.3329 251.499 13.2997 251.262 13.2713C251.03 13.2382 250.806 13.2216 250.588 13.2216C250.119 13.2216 249.698 13.3234 249.324 13.527C248.954 13.7259 248.663 14.0028 248.45 14.358C248.237 14.7131 248.13 15.1226 248.13 15.5866V22H245.559ZM256.433 22.2202C255.742 22.2202 255.119 22.0971 254.565 21.8509C254.016 21.5999 253.58 21.2306 253.258 20.7429C252.941 20.2552 252.782 19.6539 252.782 18.9389C252.782 18.3234 252.896 17.8144 253.123 17.4119C253.35 17.0095 253.661 16.6875 254.054 16.446C254.447 16.2045 254.889 16.0223 255.382 15.8991C255.879 15.7713 256.393 15.679 256.923 15.6222C257.562 15.5559 258.081 15.4967 258.478 15.4446C258.876 15.3878 259.165 15.3026 259.345 15.1889C259.529 15.0705 259.622 14.8883 259.622 14.642V14.5994C259.622 14.0644 259.463 13.6501 259.146 13.3565C258.829 13.063 258.372 12.9162 257.775 12.9162C257.145 12.9162 256.646 13.0535 256.277 13.3281C255.912 13.6027 255.666 13.9271 255.538 14.3011L253.137 13.9602C253.327 13.2973 253.639 12.7434 254.075 12.2983C254.511 11.8485 255.043 11.5123 255.673 11.2898C256.303 11.0625 256.999 10.9489 257.761 10.9489C258.287 10.9489 258.81 11.0104 259.331 11.1335C259.851 11.2566 260.327 11.4602 260.758 11.7443C261.189 12.0237 261.535 12.4048 261.795 12.8878C262.06 13.3707 262.193 13.9744 262.193 14.6989V22H259.721V20.5014H259.636C259.48 20.8045 259.26 21.0885 258.975 21.3537C258.696 21.6141 258.343 21.8248 257.917 21.9858C257.496 22.142 257.001 22.2202 256.433 22.2202ZM257.1 20.331C257.617 20.331 258.064 20.2292 258.443 20.0256C258.822 19.8172 259.113 19.5426 259.316 19.2017C259.525 18.8608 259.629 18.4891 259.629 18.0866V16.8011C259.548 16.8674 259.411 16.929 259.217 16.9858C259.028 17.0426 258.815 17.0923 258.578 17.1349C258.341 17.1776 258.107 17.2154 257.875 17.2486C257.643 17.2817 257.441 17.3101 257.271 17.3338C256.887 17.3859 256.544 17.4711 256.241 17.5895C255.938 17.7079 255.699 17.8736 255.524 18.0866C255.349 18.295 255.261 18.5649 255.261 18.8963C255.261 19.3698 255.434 19.7273 255.779 19.9688C256.125 20.2102 256.565 20.331 257.1 20.331ZM274.132 11.0909L270.247 22H267.406L263.521 11.0909H266.262L268.77 19.1946H268.883L271.397 11.0909H274.132ZM280.369 22.2131C279.276 22.2131 278.331 21.9858 277.536 21.5312C276.745 21.072 276.136 20.4233 275.71 19.5852C275.284 18.7424 275.071 17.7505 275.071 16.6094C275.071 15.4872 275.284 14.5024 275.71 13.6548C276.141 12.8026 276.742 12.1397 277.514 11.6662C278.286 11.188 279.193 10.9489 280.234 10.9489C280.907 10.9489 281.541 11.0578 282.138 11.2756C282.739 11.4886 283.269 11.8201 283.729 12.2699C284.193 12.7197 284.557 13.2926 284.822 13.9886C285.088 14.6799 285.22 15.5038 285.22 16.4602V17.2486H276.278V15.5156H282.756C282.751 15.0232 282.644 14.5852 282.436 14.2017C282.228 13.8134 281.937 13.508 281.562 13.2855C281.193 13.063 280.762 12.9517 280.27 12.9517C279.744 12.9517 279.283 13.0795 278.885 13.3352C278.487 13.5862 278.177 13.9176 277.955 14.3295C277.737 14.7367 277.625 15.1842 277.621 15.6719V17.1847C277.621 17.8191 277.737 18.3636 277.969 18.8182C278.201 19.268 278.525 19.6136 278.942 19.8551C279.358 20.0919 279.846 20.2102 280.405 20.2102C280.779 20.2102 281.117 20.1581 281.42 20.054C281.723 19.9451 281.986 19.7865 282.209 19.5781C282.431 19.3698 282.599 19.1117 282.713 18.804L285.114 19.0739C284.962 19.7083 284.673 20.2623 284.247 20.7358C283.826 21.2045 283.286 21.5691 282.628 21.8295C281.97 22.0852 281.217 22.2131 280.369 22.2131ZM289.966 7.45455V22H287.395V7.45455H289.966Z" fill="white"/>
</g>
<defs>
<clipPath id="clip0_103_292">
<rect width="287" height="34" fill="white"/>
</clipPath>
</defs>
</svg>
