<svg width="257" height="34" viewBox="0 0 257 34" fill="none" xmlns="http://www.w3.org/2000/svg">
<path d="M0.795455 11.6634V9.45455H12.4006V11.6634H7.90483V24H5.29119V11.6634H0.795455ZM17.7717 24.2131C16.6779 24.2131 15.7333 23.9858 14.9379 23.5312C14.1471 23.072 13.5387 22.4233 13.1126 21.5852C12.6864 20.7424 12.4734 19.7505 12.4734 18.6094C12.4734 17.4872 12.6864 16.5024 13.1126 15.6548C13.5434 14.8026 14.1448 14.1397 14.9165 13.6662C15.6883 13.188 16.5951 12.9489 17.6367 12.9489C18.3091 12.9489 18.9435 13.0578 19.5401 13.2756C20.1415 13.4886 20.6718 13.8201 21.131 14.2699C21.5951 14.7197 21.9596 15.2926 22.2248 15.9886C22.4899 16.6799 22.6225 17.5038 22.6225 18.4602V19.2486H13.6808V17.5156H20.158C20.1533 17.0232 20.0468 16.5852 19.8384 16.2017C19.6301 15.8134 19.3389 15.508 18.9648 15.2855C18.5955 15.063 18.1647 14.9517 17.6722 14.9517C17.1467 14.9517 16.685 15.0795 16.2873 15.3352C15.8896 15.5862 15.5794 15.9176 15.3569 16.3295C15.1391 16.7367 15.0278 17.1842 15.0231 17.6719V19.1847C15.0231 19.8191 15.1391 20.3636 15.3711 20.8182C15.6031 21.268 15.9274 21.6136 16.3441 21.8551C16.7608 22.0919 17.2485 22.2102 17.8072 22.2102C18.1812 22.2102 18.5198 22.1581 18.8228 22.054C19.1258 21.9451 19.3886 21.7865 19.6112 21.5781C19.8337 21.3698 20.0018 21.1117 20.1154 20.804L22.516 21.0739C22.3645 21.7083 22.0756 22.2623 21.6495 22.7358C21.2281 23.2045 20.6883 23.5691 20.0302 23.8295C19.372 24.0852 18.6192 24.2131 17.7717 24.2131ZM33.4197 15.9744L31.076 16.2301C31.0097 15.9934 30.8937 15.7708 30.728 15.5625C30.567 15.3542 30.3492 15.1861 30.0746 15.0582C29.8 14.9304 29.4638 14.8665 29.0661 14.8665C28.531 14.8665 28.0812 14.9825 27.7166 15.2145C27.3568 15.4465 27.1792 15.7472 27.1839 16.1165C27.1792 16.4337 27.2952 16.6918 27.532 16.8906C27.7734 17.0895 28.1712 17.2528 28.7251 17.3807L30.5859 17.7784C31.6181 18.0009 32.3852 18.3537 32.8871 18.8366C33.3937 19.3196 33.6494 19.9517 33.6541 20.733C33.6494 21.4195 33.4482 22.0256 33.0504 22.5511C32.6574 23.072 32.1106 23.4792 31.4098 23.7727C30.709 24.0663 29.9041 24.2131 28.995 24.2131C27.6598 24.2131 26.585 23.9337 25.7706 23.375C24.9562 22.8116 24.4709 22.0279 24.3146 21.0241L26.8217 20.7827C26.9354 21.2751 27.1768 21.6468 27.5462 21.8977C27.9155 22.1487 28.3961 22.2741 28.9879 22.2741C29.5987 22.2741 30.0888 22.1487 30.4581 21.8977C30.8321 21.6468 31.0192 21.3366 31.0192 20.9673C31.0192 20.6548 30.8984 20.3968 30.657 20.1932C30.4202 19.9896 30.0509 19.8333 29.549 19.7244L27.6882 19.3338C26.6418 19.116 25.8677 18.7491 25.3658 18.233C24.8639 17.7121 24.6153 17.054 24.62 16.2585C24.6153 15.5862 24.7976 15.0038 25.1669 14.5114C25.541 14.0142 26.0594 13.6307 26.7223 13.3608C27.3899 13.0862 28.1593 12.9489 29.0305 12.9489C30.3089 12.9489 31.3151 13.2211 32.049 13.7656C32.7876 14.3101 33.2446 15.0464 33.4197 15.9744ZM41.2216 13.0909V15.0795H34.9503V13.0909H41.2216ZM36.4986 10.4773H39.0696V20.7188C39.0696 21.0644 39.1217 21.3295 39.2259 21.5142C39.3348 21.6941 39.4768 21.8172 39.652 21.8835C39.8272 21.9498 40.0213 21.983 40.2344 21.983C40.3954 21.983 40.5421 21.9711 40.6747 21.9474C40.812 21.9238 40.9162 21.9025 40.9872 21.8835L41.4205 23.8935C41.2831 23.9408 41.0866 23.9929 40.831 24.0497C40.58 24.1065 40.2723 24.1397 39.9077 24.1491C39.2637 24.1681 38.6837 24.071 38.1676 23.858C37.6515 23.6402 37.242 23.304 36.9389 22.8494C36.6406 22.3949 36.4938 21.8267 36.4986 21.1449V10.4773ZM53.3754 24H48.4464V9.45455H53.4748C54.9189 9.45455 56.1594 9.74574 57.1964 10.3281C58.238 10.9058 59.0382 11.7367 59.5969 12.821C60.1557 13.9053 60.435 15.2027 60.435 16.7131C60.435 18.2282 60.1533 19.5303 59.5898 20.6193C59.0311 21.7083 58.2238 22.544 57.168 23.1264C56.1168 23.7088 54.8526 24 53.3754 24ZM51.0813 21.7202H53.2475C54.2608 21.7202 55.1059 21.5355 55.783 21.1662C56.4601 20.7921 56.9691 20.2358 57.31 19.4972C57.6509 18.7538 57.8214 17.8258 57.8214 16.7131C57.8214 15.6004 57.6509 14.6771 57.31 13.9432C56.9691 13.2045 56.4648 12.6529 55.7972 12.2884C55.1344 11.919 54.3105 11.7344 53.3256 11.7344H51.0813V21.7202ZM67.6545 24.2131C66.5607 24.2131 65.6161 23.9858 64.8207 23.5312C64.0299 23.072 63.4215 22.4233 62.9954 21.5852C62.5692 20.7424 62.3562 19.7505 62.3562 18.6094C62.3562 17.4872 62.5692 16.5024 62.9954 15.6548C63.4263 14.8026 64.0276 14.1397 64.7994 13.6662C65.5711 13.188 66.4779 12.9489 67.5195 12.9489C68.1919 12.9489 68.8263 13.0578 69.4229 13.2756C70.0243 13.4886 70.5546 13.8201 71.0138 14.2699C71.4779 14.7197 71.8424 15.2926 72.1076 15.9886C72.3728 16.6799 72.5053 17.5038 72.5053 18.4602V19.2486H63.5636V17.5156H70.0408C70.0361 17.0232 69.9296 16.5852 69.7212 16.2017C69.5129 15.8134 69.2217 15.508 68.8477 15.2855C68.4783 15.063 68.0475 14.9517 67.555 14.9517C67.0295 14.9517 66.5678 15.0795 66.1701 15.3352C65.7724 15.5862 65.4622 15.9176 65.2397 16.3295C65.0219 16.7367 64.9106 17.1842 64.9059 17.6719V19.1847C64.9059 19.8191 65.0219 20.3636 65.2539 20.8182C65.4859 21.268 65.8103 21.6136 66.2269 21.8551C66.6436 22.0919 67.1313 22.2102 67.69 22.2102C68.064 22.2102 68.4026 22.1581 68.7056 22.054C69.0086 21.9451 69.2714 21.7865 69.494 21.5781C69.7165 21.3698 69.8846 21.1117 69.9982 20.804L72.3988 21.0739C72.2473 21.7083 71.9585 22.2623 71.5323 22.7358C71.1109 23.2045 70.5711 23.5691 69.913 23.8295C69.2549 24.0852 68.502 24.2131 67.6545 24.2131ZM84.1122 13.0909L80.2273 24H77.3864L73.5014 13.0909H76.2429L78.75 21.1946H78.8636L81.3778 13.0909H84.1122ZM103.416 14.3622H100.76C100.684 13.9266 100.545 13.5407 100.341 13.2045C100.137 12.8636 99.884 12.5748 99.581 12.3381C99.2779 12.1013 98.9323 11.9238 98.544 11.8054C98.1605 11.6823 97.7462 11.6207 97.3011 11.6207C96.5104 11.6207 95.8097 11.8196 95.1989 12.2173C94.5881 12.6103 94.1098 13.188 93.7642 13.9503C93.4186 14.7079 93.2457 15.6335 93.2457 16.7273C93.2457 17.84 93.4186 18.7775 93.7642 19.5398C94.1146 20.2973 94.5928 20.8703 95.1989 21.2585C95.8097 21.642 96.508 21.8338 97.294 21.8338C97.7296 21.8338 98.1368 21.777 98.5156 21.6634C98.8991 21.545 99.2424 21.3722 99.5455 21.1449C99.8532 20.9176 100.111 20.6383 100.32 20.3068C100.533 19.9754 100.679 19.5966 100.76 19.1705L103.416 19.1847C103.317 19.8759 103.101 20.5246 102.77 21.1307C102.443 21.7367 102.015 22.2718 101.484 22.7358C100.954 23.1951 100.334 23.5549 99.6236 23.8153C98.9134 24.071 98.125 24.1989 97.2585 24.1989C95.9801 24.1989 94.839 23.9029 93.8352 23.3111C92.8314 22.7192 92.0407 21.8646 91.4631 20.7472C90.8854 19.6297 90.5966 18.2898 90.5966 16.7273C90.5966 15.16 90.8878 13.8201 91.4702 12.7074C92.0526 11.59 92.8456 10.7353 93.8494 10.1435C94.8532 9.55161 95.9896 9.25568 97.2585 9.25568C98.0682 9.25568 98.821 9.36932 99.517 9.59659C100.213 9.82386 100.833 10.1577 101.378 10.598C101.922 11.0336 102.37 11.5687 102.72 12.2031C103.075 12.8329 103.307 13.5526 103.416 14.3622ZM108.855 24.2202C108.163 24.2202 107.541 24.0971 106.987 23.8509C106.438 23.5999 106.002 23.2306 105.68 22.7429C105.363 22.2552 105.204 21.6539 105.204 20.9389C105.204 20.3234 105.318 19.8144 105.545 19.4119C105.772 19.0095 106.083 18.6875 106.475 18.446C106.868 18.2045 107.311 18.0223 107.804 17.8991C108.301 17.7713 108.815 17.679 109.345 17.6222C109.984 17.5559 110.502 17.4967 110.9 17.4446C111.298 17.3878 111.587 17.3026 111.767 17.1889C111.951 17.0705 112.044 16.8883 112.044 16.642V16.5994C112.044 16.0644 111.885 15.6501 111.568 15.3565C111.251 15.063 110.794 14.9162 110.197 14.9162C109.567 14.9162 109.068 15.0535 108.699 15.3281C108.334 15.6027 108.088 15.9271 107.96 16.3011L105.559 15.9602C105.749 15.2973 106.061 14.7434 106.497 14.2983C106.932 13.8485 107.465 13.5123 108.095 13.2898C108.725 13.0625 109.421 12.9489 110.183 12.9489C110.708 12.9489 111.232 13.0104 111.752 13.1335C112.273 13.2566 112.749 13.4602 113.18 13.7443C113.611 14.0237 113.957 14.4048 114.217 14.8878C114.482 15.3707 114.615 15.9744 114.615 16.6989V24H112.143V22.5014H112.058C111.902 22.8045 111.681 23.0885 111.397 23.3537C111.118 23.6141 110.765 23.8248 110.339 23.9858C109.918 24.142 109.423 24.2202 108.855 24.2202ZM109.522 22.331C110.038 22.331 110.486 22.2292 110.865 22.0256C111.243 21.8172 111.535 21.5426 111.738 21.2017C111.947 20.8608 112.051 20.4891 112.051 20.0866V18.8011C111.97 18.8674 111.833 18.929 111.639 18.9858C111.449 19.0426 111.236 19.0923 111 19.1349C110.763 19.1776 110.529 19.2154 110.297 19.2486C110.065 19.2817 109.863 19.3101 109.693 19.3338C109.309 19.3859 108.966 19.4711 108.663 19.5895C108.36 19.7079 108.121 19.8736 107.946 20.0866C107.77 20.295 107.683 20.5649 107.683 20.8963C107.683 21.3698 107.856 21.7273 108.201 21.9688C108.547 22.2102 108.987 22.331 109.522 22.331ZM117.2 24V13.0909H119.693V14.9091H119.806C120.005 14.2794 120.346 13.794 120.829 13.4531C121.317 13.1075 121.873 12.9347 122.498 12.9347C122.64 12.9347 122.799 12.9418 122.974 12.956C123.154 12.9654 123.303 12.982 123.422 13.0057V15.3707C123.313 15.3329 123.14 15.2997 122.903 15.2713C122.671 15.2382 122.446 15.2216 122.228 15.2216C121.76 15.2216 121.338 15.3234 120.964 15.527C120.595 15.7259 120.304 16.0028 120.091 16.358C119.877 16.7131 119.771 17.1226 119.771 17.5866V24H117.2ZM128.729 24.1918C127.872 24.1918 127.105 23.9716 126.428 23.5312C125.75 23.0909 125.215 22.4517 124.822 21.6136C124.429 20.7756 124.233 19.7576 124.233 18.5597C124.233 17.3475 124.432 16.3248 124.83 15.4915C125.232 14.6534 125.774 14.0213 126.456 13.5952C127.138 13.1643 127.898 12.9489 128.736 12.9489C129.375 12.9489 129.901 13.0578 130.312 13.2756C130.724 13.4886 131.051 13.7467 131.293 14.0497C131.534 14.348 131.721 14.6297 131.854 14.8949H131.96V9.45455H134.538V24H132.01V22.2812H131.854C131.721 22.5464 131.529 22.8281 131.278 23.1264C131.027 23.42 130.696 23.6709 130.284 23.8793C129.872 24.0876 129.354 24.1918 128.729 24.1918ZM129.446 22.0824C129.991 22.0824 130.455 21.9356 130.838 21.642C131.222 21.3437 131.513 20.9295 131.712 20.3991C131.911 19.8688 132.01 19.2509 132.01 18.5455C132.01 17.84 131.911 17.2268 131.712 16.706C131.518 16.1851 131.229 15.7803 130.845 15.4915C130.466 15.2027 130 15.0582 129.446 15.0582C128.873 15.0582 128.395 15.2074 128.011 15.5057C127.628 15.804 127.339 16.2159 127.145 16.7415C126.951 17.267 126.854 17.8684 126.854 18.5455C126.854 19.2273 126.951 19.8357 127.145 20.3707C127.344 20.901 127.635 21.3201 128.018 21.6278C128.407 21.9309 128.883 22.0824 129.446 22.0824ZM144.231 19.4119V13.0909H146.802V24H144.309V22.0611H144.196C143.949 22.6719 143.545 23.1714 142.981 23.5597C142.422 23.9479 141.734 24.142 140.914 24.142C140.199 24.142 139.567 23.9834 139.018 23.6662C138.474 23.3442 138.047 22.8778 137.74 22.267C137.432 21.6515 137.278 20.9081 137.278 20.0369V13.0909H139.849V19.6392C139.849 20.3305 140.038 20.8797 140.417 21.2869C140.796 21.6941 141.293 21.8977 141.909 21.8977C142.288 21.8977 142.654 21.8054 143.01 21.6207C143.365 21.4361 143.656 21.1615 143.883 20.7969C144.115 20.4276 144.231 19.9659 144.231 19.4119ZM149.446 24V13.0909H151.903V14.9446H152.031C152.259 14.3196 152.635 13.8319 153.161 13.4815C153.686 13.1264 154.313 12.9489 155.043 12.9489C155.781 12.9489 156.404 13.1288 156.911 13.4886C157.422 13.8437 157.782 14.3291 157.99 14.9446H158.104C158.345 14.3385 158.752 13.8556 159.325 13.4957C159.903 13.1312 160.587 12.9489 161.378 12.9489C162.382 12.9489 163.201 13.2661 163.835 13.9006C164.47 14.535 164.787 15.4607 164.787 16.6776V24H162.209V17.0753C162.209 16.3982 162.029 15.9034 161.669 15.5909C161.309 15.2737 160.869 15.1151 160.348 15.1151C159.728 15.1151 159.242 15.3092 158.892 15.6974C158.546 16.081 158.374 16.5805 158.374 17.196V24H155.852V16.9688C155.852 16.4053 155.682 15.9555 155.341 15.6193C155.005 15.2831 154.564 15.1151 154.02 15.1151C153.651 15.1151 153.314 15.2098 153.011 15.3991C152.708 15.5838 152.467 15.8466 152.287 16.1875C152.107 16.5237 152.017 16.9167 152.017 17.3665V24H149.446ZM172.225 24.2131C171.131 24.2131 170.186 23.9858 169.391 23.5312C168.6 23.072 167.992 22.4233 167.566 21.5852C167.14 20.7424 166.926 19.7505 166.926 18.6094C166.926 17.4872 167.14 16.5024 167.566 15.6548C167.997 14.8026 168.598 14.1397 169.37 13.6662C170.141 13.188 171.048 12.9489 172.09 12.9489C172.762 12.9489 173.397 13.0578 173.993 13.2756C174.595 13.4886 175.125 13.8201 175.584 14.2699C176.048 14.7197 176.413 15.2926 176.678 15.9886C176.943 16.6799 177.076 17.5038 177.076 18.4602V19.2486H168.134V17.5156H174.611C174.606 17.0232 174.5 16.5852 174.292 16.2017C174.083 15.8134 173.792 15.508 173.418 15.2855C173.049 15.063 172.618 14.9517 172.125 14.9517C171.6 14.9517 171.138 15.0795 170.74 15.3352C170.343 15.5862 170.033 15.9176 169.81 16.3295C169.592 16.7367 169.481 17.1842 169.476 17.6719V19.1847C169.476 19.8191 169.592 20.3636 169.824 20.8182C170.056 21.268 170.381 21.6136 170.797 21.8551C171.214 22.0919 171.702 22.2102 172.26 22.2102C172.634 22.2102 172.973 22.1581 173.276 22.054C173.579 21.9451 173.842 21.7865 174.064 21.5781C174.287 21.3698 174.455 21.1117 174.569 20.804L176.969 21.0739C176.818 21.7083 176.529 22.2623 176.103 22.7358C175.681 23.2045 175.141 23.5691 174.483 23.8295C173.825 24.0852 173.072 24.2131 172.225 24.2131ZM189.254 24H184.325V9.45455H189.354C190.798 9.45455 192.038 9.74574 193.075 10.3281C194.117 10.9058 194.917 11.7367 195.476 12.821C196.035 13.9053 196.314 15.2027 196.314 16.7131C196.314 18.2282 196.032 19.5303 195.469 20.6193C194.91 21.7083 194.103 22.544 193.047 23.1264C191.996 23.7088 190.732 24 189.254 24ZM186.96 21.7202H189.126C190.14 21.7202 190.985 21.5355 191.662 21.1662C192.339 20.7921 192.848 20.2358 193.189 19.4972C193.53 18.7538 193.7 17.8258 193.7 16.7131C193.7 15.6004 193.53 14.6771 193.189 13.9432C192.848 13.2045 192.344 12.6529 191.676 12.2884C191.013 11.919 190.189 11.7344 189.205 11.7344H186.96V21.7202ZM198.704 24V13.0909H201.275V24H198.704ZM199.996 11.5426C199.589 11.5426 199.239 11.4077 198.945 11.1378C198.652 10.8632 198.505 10.5341 198.505 10.1506C198.505 9.76231 198.652 9.43324 198.945 9.16335C199.239 8.88873 199.589 8.75142 199.996 8.75142C200.408 8.75142 200.759 8.88873 201.048 9.16335C201.341 9.43324 201.488 9.76231 201.488 10.1506C201.488 10.5341 201.341 10.8632 201.048 11.1378C200.759 11.4077 200.408 11.5426 199.996 11.5426ZM208.663 28.3182C207.74 28.3182 206.947 28.1927 206.284 27.9418C205.621 27.6955 205.088 27.3641 204.686 26.9474C204.283 26.5308 204.004 26.0691 203.848 25.5625L206.163 25.0014C206.267 25.2145 206.419 25.4252 206.618 25.6335C206.816 25.8466 207.084 26.0218 207.42 26.1591C207.761 26.3011 208.19 26.3722 208.706 26.3722C209.435 26.3722 210.038 26.1946 210.517 25.8395C210.995 25.4891 211.234 24.9115 211.234 24.1065V22.0398H211.106C210.974 22.3049 210.779 22.5772 210.524 22.8565C210.273 23.1359 209.939 23.3703 209.522 23.5597C209.11 23.7491 208.592 23.8438 207.967 23.8438C207.129 23.8438 206.369 23.6473 205.687 23.2543C205.01 22.8565 204.47 22.2647 204.068 21.4787C203.67 20.688 203.471 19.6984 203.471 18.5099C203.471 17.312 203.67 16.3011 204.068 15.4773C204.47 14.6487 205.012 14.0213 205.694 13.5952C206.376 13.1643 207.136 12.9489 207.974 12.9489C208.613 12.9489 209.139 13.0578 209.551 13.2756C209.967 13.4886 210.299 13.7467 210.545 14.0497C210.791 14.348 210.978 14.6297 211.106 14.8949H211.248V13.0909H213.784V24.1776C213.784 25.1103 213.561 25.8821 213.116 26.4929C212.671 27.1037 212.063 27.5606 211.291 27.8636C210.519 28.1667 209.643 28.3182 208.663 28.3182ZM208.684 21.8267C209.229 21.8267 209.693 21.6941 210.076 21.429C210.46 21.1638 210.751 20.7827 210.95 20.2855C211.149 19.7884 211.248 19.1918 211.248 18.4957C211.248 17.8092 211.149 17.2079 210.95 16.6918C210.756 16.1757 210.467 15.7756 210.083 15.4915C209.705 15.2027 209.238 15.0582 208.684 15.0582C208.111 15.0582 207.633 15.2074 207.25 15.5057C206.866 15.804 206.577 16.2135 206.383 16.7344C206.189 17.2505 206.092 17.8376 206.092 18.4957C206.092 19.1634 206.189 19.7481 206.383 20.25C206.582 20.7472 206.873 21.1354 207.257 21.4148C207.645 21.6894 208.121 21.8267 208.684 21.8267ZM216.419 24V13.0909H218.99V24H216.419ZM217.711 11.5426C217.304 11.5426 216.954 11.4077 216.66 11.1378C216.367 10.8632 216.22 10.5341 216.22 10.1506C216.22 9.76231 216.367 9.43324 216.66 9.16335C216.954 8.88873 217.304 8.75142 217.711 8.75142C218.123 8.75142 218.474 8.88873 218.762 9.16335C219.056 9.43324 219.203 9.76231 219.203 10.1506C219.203 10.5341 219.056 10.8632 218.762 11.1378C218.474 11.4077 218.123 11.5426 217.711 11.5426ZM227.081 13.0909V15.0795H220.81V13.0909H227.081ZM222.358 10.4773H224.929V20.7188C224.929 21.0644 224.981 21.3295 225.085 21.5142C225.194 21.6941 225.336 21.8172 225.511 21.8835C225.687 21.9498 225.881 21.983 226.094 21.983C226.255 21.983 226.402 21.9711 226.534 21.9474C226.671 21.9238 226.776 21.9025 226.847 21.8835L227.28 23.8935C227.143 23.9408 226.946 23.9929 226.69 24.0497C226.439 24.1065 226.132 24.1397 225.767 24.1491C225.123 24.1681 224.543 24.071 224.027 23.858C223.511 23.6402 223.101 23.304 222.798 22.8494C222.5 22.3949 222.353 21.8267 222.358 21.1449V10.4773ZM232.37 24.2202C231.679 24.2202 231.056 24.0971 230.502 23.8509C229.953 23.5999 229.518 23.2306 229.196 22.7429C228.878 22.2552 228.72 21.6539 228.72 20.9389C228.72 20.3234 228.833 19.8144 229.061 19.4119C229.288 19.0095 229.598 18.6875 229.991 18.446C230.384 18.2045 230.827 18.0223 231.319 17.8991C231.816 17.7713 232.33 17.679 232.86 17.6222C233.5 17.5559 234.018 17.4967 234.416 17.4446C234.814 17.3878 235.102 17.3026 235.282 17.1889C235.467 17.0705 235.559 16.8883 235.559 16.642V16.5994C235.559 16.0644 235.401 15.6501 235.083 15.3565C234.766 15.063 234.309 14.9162 233.713 14.9162C233.083 14.9162 232.583 15.0535 232.214 15.3281C231.85 15.6027 231.603 15.9271 231.475 16.3011L229.075 15.9602C229.264 15.2973 229.577 14.7434 230.012 14.2983C230.448 13.8485 230.981 13.5123 231.61 13.2898C232.24 13.0625 232.936 12.9489 233.699 12.9489C234.224 12.9489 234.747 13.0104 235.268 13.1335C235.789 13.2566 236.265 13.4602 236.696 13.7443C237.127 14.0237 237.472 14.4048 237.733 14.8878C237.998 15.3707 238.13 15.9744 238.13 16.6989V24H235.659V22.5014H235.574C235.417 22.8045 235.197 23.0885 234.913 23.3537C234.634 23.6141 234.281 23.8248 233.855 23.9858C233.433 24.142 232.939 24.2202 232.37 24.2202ZM233.038 22.331C233.554 22.331 234.002 22.2292 234.38 22.0256C234.759 21.8172 235.05 21.5426 235.254 21.2017C235.462 20.8608 235.566 20.4891 235.566 20.0866V18.8011C235.486 18.8674 235.349 18.929 235.154 18.9858C234.965 19.0426 234.752 19.0923 234.515 19.1349C234.279 19.1776 234.044 19.2154 233.812 19.2486C233.58 19.2817 233.379 19.3101 233.208 19.3338C232.825 19.3859 232.482 19.4711 232.179 19.5895C231.876 19.7079 231.636 19.8736 231.461 20.0866C231.286 20.295 231.199 20.5649 231.199 20.8963C231.199 21.3698 231.371 21.7273 231.717 21.9688C232.063 22.2102 232.503 22.331 233.038 22.331ZM243.287 9.45455V24H240.716V9.45455H243.287Z" fill="white"/>
</svg>
