<svg width="160" height="37" viewBox="0 0 160 37" fill="none" xmlns="http://www.w3.org/2000/svg">
<rect width="160" height="37" rx="10" fill="#0D423B"/>
<path d="M115.05 18.0381L113.191 19.8482C112.428 20.5905 112 21.5973 112 22.6471C112 23.6968 112.428 24.7036 113.191 25.4459C113.953 26.1883 114.987 26.6053 116.065 26.6053C117.143 26.6053 118.177 26.1883 118.94 25.4459L121.417 23.033C121.876 22.5853 122.219 22.0367 122.416 21.4334C122.613 20.83 122.658 20.1895 122.548 19.5655C122.439 18.9415 122.177 18.3523 121.784 17.8473C121.392 17.3424 120.881 16.9364 120.295 16.6634L119.501 17.4365C119.42 17.5151 119.35 17.6033 119.292 17.6991C119.745 17.8259 120.157 18.0658 120.486 18.3949C120.814 18.7241 121.049 19.1311 121.167 19.5757C121.285 20.0204 121.282 20.4873 121.157 20.9303C121.033 21.3732 120.792 21.777 120.459 22.1015L117.983 24.5132C117.475 25.0083 116.785 25.2865 116.066 25.2865C115.347 25.2865 114.657 25.0083 114.149 24.5132C113.64 24.0181 113.354 23.3466 113.354 22.6464C113.354 21.9462 113.64 21.2747 114.149 20.7796L115.223 19.7347C115.071 19.1816 115.013 18.6095 115.05 18.0381Z" fill="white"/>
<path d="M117.585 15.571C117.125 16.0187 116.782 16.5672 116.585 17.1706C116.388 17.7739 116.343 18.4145 116.453 19.0385C116.563 19.6624 116.825 20.2516 117.217 20.7566C117.609 21.2616 118.12 21.6676 118.707 21.9406L119.757 20.9168C119.297 20.7968 118.878 20.5612 118.542 20.2337C118.206 19.9061 117.964 19.4982 117.841 19.0508C117.718 18.6034 117.718 18.1324 117.841 17.6851C117.964 17.2378 118.206 16.8299 118.543 16.5024L121.018 14.0908C121.527 13.5957 122.216 13.3175 122.935 13.3175C123.655 13.3175 124.344 13.5957 124.853 14.0908C125.361 14.5859 125.647 15.2574 125.647 15.9576C125.647 16.6577 125.361 17.3293 124.853 17.8244L123.778 18.8692C123.93 19.4233 123.988 19.9972 123.952 20.5672L125.811 18.7571C126.573 18.0148 127.001 17.008 127.001 15.9582C127.001 14.9084 126.573 13.9016 125.811 13.1593C125.048 12.417 124.014 12 122.936 12C121.858 12 120.824 12.417 120.062 13.1593L117.585 15.571Z" fill="white"/>
<path d="M35.358 26H33.5114L38.8523 11.4545H40.6705L46.0114 26H44.1648L39.8182 13.7557H39.7045L35.358 26ZM36.0398 20.3182H43.483V21.8807H36.0398V20.3182ZM52.4815 26.2273C51.4588 26.2273 50.5781 25.9858 49.8395 25.5028C49.1009 25.0199 48.5327 24.3546 48.1349 23.5071C47.7372 22.6596 47.5384 21.6913 47.5384 20.6023C47.5384 19.4943 47.742 18.5166 48.1491 17.669C48.5611 16.8168 49.134 16.1515 49.8679 15.6733C50.6065 15.1903 51.4683 14.9489 52.4531 14.9489C53.2202 14.9489 53.9115 15.0909 54.527 15.375C55.1425 15.6591 55.6468 16.0568 56.0398 16.5682C56.4328 17.0795 56.6766 17.6761 56.7713 18.358H55.0952C54.9673 17.8608 54.6832 17.4205 54.2429 17.0369C53.8073 16.6487 53.2202 16.4545 52.4815 16.4545C51.8281 16.4545 51.2552 16.625 50.7628 16.9659C50.2751 17.3021 49.8939 17.7779 49.6193 18.3935C49.3494 19.0043 49.2145 19.7216 49.2145 20.5455C49.2145 21.3883 49.3471 22.1222 49.6122 22.7472C49.8821 23.3722 50.2609 23.8575 50.7486 24.2031C51.241 24.5488 51.8187 24.7216 52.4815 24.7216C52.9171 24.7216 53.3125 24.6458 53.6676 24.4943C54.0227 24.3428 54.3234 24.125 54.5696 23.8409C54.8158 23.5568 54.991 23.2159 55.0952 22.8182H56.7713C56.6766 23.4621 56.4422 24.0421 56.0682 24.5582C55.6989 25.0696 55.2088 25.4768 54.598 25.7798C53.992 26.0781 53.2865 26.2273 52.4815 26.2273ZM63.6534 26.2273C62.6307 26.2273 61.75 25.9858 61.0114 25.5028C60.2727 25.0199 59.7045 24.3546 59.3068 23.5071C58.9091 22.6596 58.7102 21.6913 58.7102 20.6023C58.7102 19.4943 58.9138 18.5166 59.321 17.669C59.733 16.8168 60.3059 16.1515 61.0398 15.6733C61.7784 15.1903 62.6402 14.9489 63.625 14.9489C64.392 14.9489 65.0833 15.0909 65.6989 15.375C66.3144 15.6591 66.8187 16.0568 67.2116 16.5682C67.6046 17.0795 67.8485 17.6761 67.9432 18.358H66.267C66.1392 17.8608 65.8551 17.4205 65.4148 17.0369C64.9792 16.6487 64.392 16.4545 63.6534 16.4545C63 16.4545 62.4271 16.625 61.9347 16.9659C61.447 17.3021 61.0658 17.7779 60.7912 18.3935C60.5213 19.0043 60.3864 19.7216 60.3864 20.5455C60.3864 21.3883 60.5189 22.1222 60.7841 22.7472C61.054 23.3722 61.4328 23.8575 61.9205 24.2031C62.4129 24.5488 62.9905 24.7216 63.6534 24.7216C64.089 24.7216 64.4844 24.6458 64.8395 24.4943C65.1946 24.3428 65.4953 24.125 65.7415 23.8409C65.9877 23.5568 66.1629 23.2159 66.267 22.8182H67.9432C67.8485 23.4621 67.6141 24.0421 67.2401 24.5582C66.8707 25.0696 66.3807 25.4768 65.7699 25.7798C65.1638 26.0781 64.4583 26.2273 63.6534 26.2273ZM74.9673 26.2273C73.9162 26.2273 73.0095 25.9953 72.2472 25.5312C71.4896 25.0625 70.9048 24.4091 70.4929 23.571C70.0857 22.7282 69.8821 21.7481 69.8821 20.6307C69.8821 19.5133 70.0857 18.5284 70.4929 17.6761C70.9048 16.8191 71.4777 16.1515 72.2116 15.6733C72.9503 15.1903 73.812 14.9489 74.7969 14.9489C75.3651 14.9489 75.9261 15.0436 76.4801 15.233C77.0341 15.4223 77.5384 15.7301 77.9929 16.1562C78.4474 16.5777 78.8097 17.1364 79.0795 17.8324C79.3494 18.5284 79.4844 19.3854 79.4844 20.4034V21.1136H71.0753V19.6648H77.7798C77.7798 19.0492 77.6567 18.5 77.4105 18.017C77.169 17.5341 76.8234 17.1529 76.3736 16.8736C75.9285 16.5942 75.4029 16.4545 74.7969 16.4545C74.1293 16.4545 73.5516 16.6203 73.0639 16.9517C72.581 17.2784 72.2093 17.7045 71.9489 18.2301C71.6884 18.7557 71.5582 19.3191 71.5582 19.9205V20.8864C71.5582 21.7102 71.7003 22.4086 71.9844 22.9815C72.2732 23.5497 72.6733 23.983 73.1847 24.2812C73.696 24.5748 74.2902 24.7216 74.9673 24.7216C75.4077 24.7216 75.8054 24.66 76.1605 24.5369C76.5204 24.4091 76.8305 24.2197 77.0909 23.9688C77.3513 23.7131 77.5526 23.3958 77.6946 23.017L79.3139 23.4716C79.1435 24.0208 78.857 24.5038 78.4545 24.9205C78.0521 25.3324 77.5549 25.6544 76.9631 25.8864C76.3712 26.1136 75.706 26.2273 74.9673 26.2273ZM89.7614 17.5341L88.2557 17.9602C88.161 17.7093 88.0213 17.4654 87.8366 17.2287C87.6567 16.9872 87.4105 16.7884 87.098 16.6321C86.7855 16.4759 86.3854 16.3977 85.8977 16.3977C85.2301 16.3977 84.6738 16.5516 84.2287 16.8594C83.7884 17.1624 83.5682 17.5483 83.5682 18.017C83.5682 18.4337 83.7197 18.7628 84.0227 19.0043C84.3258 19.2457 84.7992 19.447 85.4432 19.608L87.0625 20.0057C88.0379 20.2424 88.7647 20.6046 89.2429 21.0923C89.7211 21.5753 89.9602 22.1979 89.9602 22.9602C89.9602 23.5852 89.7803 24.1439 89.4205 24.6364C89.0653 25.1288 88.5682 25.517 87.929 25.8011C87.2898 26.0852 86.5464 26.2273 85.6989 26.2273C84.5862 26.2273 83.6652 25.9858 82.9361 25.5028C82.2069 25.0199 81.7453 24.3144 81.5511 23.3864L83.142 22.9886C83.2936 23.5758 83.58 24.0161 84.0014 24.3097C84.4276 24.6032 84.9839 24.75 85.6705 24.75C86.4517 24.75 87.072 24.5843 87.5312 24.2528C87.9953 23.9167 88.2273 23.5142 88.2273 23.0455C88.2273 22.6667 88.0947 22.3494 87.8295 22.0938C87.5644 21.8333 87.1572 21.6392 86.608 21.5114L84.7898 21.0852C83.7907 20.8485 83.0568 20.4815 82.5881 19.9844C82.1241 19.4825 81.892 18.8551 81.892 18.1023C81.892 17.4867 82.0649 16.9422 82.4105 16.4688C82.7609 15.9953 83.2367 15.6236 83.8381 15.3537C84.4441 15.0838 85.1307 14.9489 85.8977 14.9489C86.9773 14.9489 87.8248 15.1856 88.4403 15.6591C89.0606 16.1326 89.5009 16.7576 89.7614 17.5341ZM100.211 17.5341L98.7049 17.9602C98.6102 17.7093 98.4705 17.4654 98.2859 17.2287C98.1059 16.9872 97.8597 16.7884 97.5472 16.6321C97.2347 16.4759 96.8346 16.3977 96.3469 16.3977C95.6793 16.3977 95.123 16.5516 94.6779 16.8594C94.2376 17.1624 94.0174 17.5483 94.0174 18.017C94.0174 18.4337 94.1689 18.7628 94.4719 19.0043C94.775 19.2457 95.2485 19.447 95.8924 19.608L97.5117 20.0057C98.4871 20.2424 99.2139 20.6046 99.6921 21.0923C100.17 21.5753 100.409 22.1979 100.409 22.9602C100.409 23.5852 100.23 24.1439 99.8697 24.6364C99.5146 25.1288 99.0174 25.517 98.3782 25.8011C97.739 26.0852 96.9956 26.2273 96.1481 26.2273C95.0354 26.2273 94.1145 25.9858 93.3853 25.5028C92.6561 25.0199 92.1945 24.3144 92.0004 23.3864L93.5913 22.9886C93.7428 23.5758 94.0292 24.0161 94.4506 24.3097C94.8768 24.6032 95.4331 24.75 96.1197 24.75C96.9009 24.75 97.5212 24.5843 97.9805 24.2528C98.4445 23.9167 98.6765 23.5142 98.6765 23.0455C98.6765 22.6667 98.5439 22.3494 98.2788 22.0938C98.0136 21.8333 97.6064 21.6392 97.0572 21.5114L95.239 21.0852C94.2399 20.8485 93.506 20.4815 93.0373 19.9844C92.5733 19.4825 92.3413 18.8551 92.3413 18.1023C92.3413 17.4867 92.5141 16.9422 92.8597 16.4688C93.2101 15.9953 93.686 15.6236 94.2873 15.3537C94.8933 15.0838 95.5799 14.9489 96.3469 14.9489C97.4265 14.9489 98.274 15.1856 98.8896 15.6591C99.5098 16.1326 99.9502 16.7576 100.211 17.5341Z" fill="white"/>
</svg>
