<svg width="217" height="34" viewBox="0 0 217 34" fill="none" xmlns="http://www.w3.org/2000/svg">
<g clip-path="url(#clip0_103_201)">
<rect width="217" height="34" rx="10" fill="#F5F5FA"/>
<path d="M178.05 15.0381L176.191 16.8482C175.428 17.5905 175 18.5973 175 19.6471C175 20.6968 175.428 21.7036 176.191 22.4459C176.953 23.1883 177.987 23.6053 179.065 23.6053C180.143 23.6053 181.177 23.1883 181.94 22.4459L184.417 20.033C184.876 19.5853 185.219 19.0367 185.416 18.4334C185.613 17.83 185.658 17.1895 185.548 16.5655C185.439 15.9415 185.177 15.3523 184.784 14.8473C184.392 14.3424 183.881 13.9364 183.295 13.6634L182.501 14.4365C182.42 14.5151 182.35 14.6033 182.292 14.6991C182.745 14.8259 183.157 15.0658 183.486 15.3949C183.814 15.7241 184.049 16.1311 184.167 16.5757C184.285 17.0204 184.282 17.4873 184.157 17.9303C184.033 18.3732 183.792 18.777 183.459 19.1015L180.983 21.5132C180.475 22.0083 179.785 22.2865 179.066 22.2865C178.347 22.2865 177.657 22.0083 177.149 21.5132C176.64 21.0181 176.354 20.3466 176.354 19.6464C176.354 18.9462 176.64 18.2747 177.149 17.7796L178.223 16.7347C178.071 16.1816 178.013 15.6095 178.05 15.0381Z" fill="black"/>
<path d="M180.585 12.571C180.125 13.0187 179.782 13.5672 179.585 14.1706C179.388 14.7739 179.343 15.4145 179.453 16.0385C179.563 16.6624 179.825 17.2516 180.217 17.7566C180.609 18.2616 181.12 18.6676 181.707 18.9406L182.757 17.9168C182.297 17.7968 181.878 17.5612 181.542 17.2337C181.206 16.9061 180.964 16.4982 180.841 16.0508C180.718 15.6034 180.718 15.1324 180.841 14.6851C180.964 14.2378 181.206 13.8299 181.543 13.5024L184.018 11.0908C184.527 10.5957 185.216 10.3175 185.935 10.3175C186.655 10.3175 187.344 10.5957 187.853 11.0908C188.361 11.5859 188.647 12.2574 188.647 12.9576C188.647 13.6577 188.361 14.3293 187.853 14.8244L186.778 15.8692C186.93 16.4233 186.988 16.9972 186.952 17.5672L188.811 15.7571C189.573 15.0148 190.001 14.008 190.001 12.9582C190.001 11.9084 189.573 10.9016 188.811 10.1593C188.048 9.41703 187.014 9 185.936 9C184.858 9 183.824 9.41703 183.062 10.1593L180.585 12.571Z" fill="black"/>
<path d="M37.7045 14C37.5483 13.5218 37.3423 13.0933 37.0866 12.7145C36.8357 12.331 36.535 12.0043 36.1847 11.7344C35.839 11.4645 35.446 11.2585 35.0057 11.1165C34.5653 10.9744 34.0824 10.9034 33.5568 10.9034C32.6951 10.9034 31.9115 11.1259 31.206 11.571C30.5005 12.0161 29.9394 12.6719 29.5227 13.5384C29.1061 14.4048 28.8977 15.4678 28.8977 16.7273C28.8977 17.9867 29.1084 19.0497 29.5298 19.9162C29.9512 20.7827 30.5218 21.4384 31.2415 21.8835C31.9612 22.3286 32.7708 22.5511 33.6705 22.5511C34.5038 22.5511 35.2377 22.3736 35.8722 22.0185C36.5114 21.6586 37.0085 21.152 37.3636 20.4986C37.7235 19.8404 37.9034 19.0663 37.9034 18.1761L38.4432 18.2898H34.0682V16.7273H39.608V18.2898C39.608 19.4877 39.3523 20.5294 38.8409 21.4148C38.3343 22.3002 37.6335 22.9867 36.7386 23.4744C35.8485 23.9574 34.8258 24.1989 33.6705 24.1989C32.3826 24.1989 31.2509 23.8958 30.2756 23.2898C29.3049 22.6837 28.5473 21.822 28.0028 20.7045C27.4631 19.5871 27.1932 18.2614 27.1932 16.7273C27.1932 15.5767 27.3471 14.5421 27.6548 13.6236C27.9673 12.7003 28.4077 11.9143 28.9759 11.2656C29.544 10.617 30.2164 10.1198 30.9929 9.77415C31.7694 9.4285 32.6241 9.25568 33.5568 9.25568C34.3239 9.25568 35.0388 9.37169 35.7017 9.60369C36.3693 9.83097 36.9635 10.1553 37.4844 10.5767C38.0099 10.9934 38.4479 11.4929 38.7983 12.0753C39.1487 12.6529 39.3902 13.2945 39.5227 14H37.7045ZM43.081 24V13.0909H44.7571V24H43.081ZM43.9332 11.2727C43.6065 11.2727 43.3248 11.1615 43.0881 10.9389C42.8561 10.7164 42.7401 10.4489 42.7401 10.1364C42.7401 9.82386 42.8561 9.55634 43.0881 9.33381C43.3248 9.11127 43.6065 9 43.9332 9C44.2599 9 44.5393 9.11127 44.7713 9.33381C45.008 9.55634 45.1264 9.82386 45.1264 10.1364C45.1264 10.4489 45.008 10.7164 44.7713 10.9389C44.5393 11.1615 44.2599 11.2727 43.9332 11.2727ZM52.5714 13.0909V14.5114H46.918V13.0909H52.5714ZM48.5657 10.4773H50.2418V20.875C50.2418 21.3485 50.3105 21.7036 50.4478 21.9403C50.5898 22.1723 50.7698 22.3286 50.9876 22.4091C51.2101 22.4848 51.4445 22.5227 51.6907 22.5227C51.8754 22.5227 52.0269 22.5133 52.1452 22.4943C52.2636 22.4706 52.3583 22.4517 52.4293 22.4375L52.7702 23.9432C52.6566 23.9858 52.498 24.0284 52.2944 24.071C52.0908 24.1184 51.8327 24.142 51.5202 24.142C51.0468 24.142 50.5827 24.0402 50.1282 23.8366C49.6784 23.633 49.3043 23.3229 49.006 22.9062C48.7125 22.4896 48.5657 21.964 48.5657 21.3295V10.4773ZM55.5543 24V9.45455H57.3157V15.9318H65.0714V9.45455H66.8327V24H65.0714V17.4943H57.3157V24H55.5543ZM77.0067 19.5398V13.0909H78.6829V24H77.0067V22.1534H76.8931C76.6374 22.7074 76.2397 23.1785 75.6999 23.5668C75.1602 23.9503 74.4783 24.142 73.6545 24.142C72.9727 24.142 72.3666 23.9929 71.8363 23.6946C71.306 23.3916 70.8893 22.937 70.5863 22.331C70.2833 21.7202 70.1317 20.9508 70.1317 20.0227V13.0909H71.8079V19.9091C71.8079 20.7045 72.0304 21.339 72.4755 21.8125C72.9253 22.286 73.4982 22.5227 74.1942 22.5227C74.6109 22.5227 75.0347 22.4162 75.4656 22.2031C75.9012 21.9901 76.2657 21.6634 76.5593 21.223C76.8576 20.7827 77.0067 20.2216 77.0067 19.5398ZM81.9801 24V9.45455H83.6562V14.8239H83.7983C83.9214 14.6345 84.0919 14.393 84.3097 14.0994C84.5322 13.8011 84.8494 13.536 85.2614 13.304C85.678 13.0672 86.2415 12.9489 86.9517 12.9489C87.8703 12.9489 88.6799 13.1785 89.3807 13.6378C90.0814 14.0971 90.6283 14.7481 91.0213 15.5909C91.4143 16.4337 91.6108 17.428 91.6108 18.5739C91.6108 19.7292 91.4143 20.7306 91.0213 21.5781C90.6283 22.4209 90.0838 23.0743 89.3878 23.5384C88.6918 23.9976 87.8892 24.2273 86.9801 24.2273C86.2794 24.2273 85.7183 24.1113 85.2969 23.8793C84.8755 23.6425 84.5511 23.375 84.3239 23.0767C84.0966 22.7737 83.9214 22.5227 83.7983 22.3239H83.5994V24H81.9801ZM83.6278 18.5455C83.6278 19.3693 83.7486 20.0961 83.9901 20.7259C84.2315 21.3509 84.5843 21.8409 85.0483 22.196C85.5123 22.5464 86.0805 22.7216 86.7528 22.7216C87.4536 22.7216 88.0384 22.5369 88.5071 22.1676C88.9806 21.7936 89.3357 21.2917 89.5724 20.6619C89.8139 20.0275 89.9347 19.322 89.9347 18.5455C89.9347 17.7784 89.8163 17.0871 89.5795 16.4716C89.3475 15.8513 88.9948 15.3613 88.5213 15.0014C88.0526 14.6368 87.4631 14.4545 86.7528 14.4545C86.071 14.4545 85.4981 14.6274 85.0341 14.973C84.5701 15.3139 84.2197 15.7921 83.983 16.4077C83.7462 17.0185 83.6278 17.7311 83.6278 18.5455ZM100.027 24V9.45455H104.942C106.083 9.45455 107.016 9.66051 107.74 10.0724C108.469 10.4796 109.009 11.0312 109.359 11.7273C109.71 12.4233 109.885 13.1998 109.885 14.0568C109.885 14.9138 109.71 15.6927 109.359 16.3935C109.014 17.0942 108.479 17.6529 107.754 18.0696C107.03 18.4815 106.102 18.6875 104.97 18.6875H101.447V17.125H104.913C105.695 17.125 106.322 16.9901 106.795 16.7202C107.269 16.4503 107.612 16.0857 107.825 15.6264C108.043 15.1624 108.152 14.6392 108.152 14.0568C108.152 13.4744 108.043 12.9536 107.825 12.4943C107.612 12.035 107.267 11.6752 106.788 11.4148C106.31 11.1496 105.676 11.017 104.885 11.017H101.788V24H100.027ZM112.495 24V13.0909H114.114V14.7386H114.228C114.427 14.1989 114.787 13.7609 115.308 13.4247C115.828 13.0885 116.415 12.9205 117.069 12.9205C117.192 12.9205 117.346 12.9228 117.531 12.9276C117.715 12.9323 117.855 12.9394 117.95 12.9489V14.6534C117.893 14.6392 117.763 14.6179 117.559 14.5895C117.36 14.5563 117.149 14.5398 116.927 14.5398C116.397 14.5398 115.923 14.651 115.506 14.8736C115.094 15.0914 114.768 15.3944 114.526 15.7827C114.29 16.1662 114.171 16.6042 114.171 17.0966V24H112.495ZM124.036 24.2273C123.051 24.2273 122.187 23.9929 121.444 23.5241C120.705 23.0554 120.128 22.3996 119.711 21.5568C119.299 20.714 119.093 19.7292 119.093 18.6023C119.093 17.4659 119.299 16.474 119.711 15.6264C120.128 14.7789 120.705 14.1207 121.444 13.652C122.187 13.1832 123.051 12.9489 124.036 12.9489C125.021 12.9489 125.883 13.1832 126.621 13.652C127.365 14.1207 127.942 14.7789 128.354 15.6264C128.771 16.474 128.979 17.4659 128.979 18.6023C128.979 19.7292 128.771 20.714 128.354 21.5568C127.942 22.3996 127.365 23.0554 126.621 23.5241C125.883 23.9929 125.021 24.2273 124.036 24.2273ZM124.036 22.7216C124.784 22.7216 125.4 22.5298 125.883 22.1463C126.366 21.7628 126.723 21.2585 126.955 20.6335C127.187 20.0085 127.303 19.3314 127.303 18.6023C127.303 17.8731 127.187 17.1937 126.955 16.5639C126.723 15.9342 126.366 15.4252 125.883 15.0369C125.4 14.6487 124.784 14.4545 124.036 14.4545C123.288 14.4545 122.673 14.6487 122.19 15.0369C121.707 15.4252 121.349 15.9342 121.117 16.5639C120.885 17.1937 120.769 17.8731 120.769 18.6023C120.769 19.3314 120.885 20.0085 121.117 20.6335C121.349 21.2585 121.707 21.7628 122.19 22.1463C122.673 22.5298 123.288 22.7216 124.036 22.7216ZM131.538 13.0909H133.214V24.7955C133.214 25.4678 133.098 26.0502 132.866 26.5426C132.639 27.035 132.293 27.4162 131.829 27.6861C131.37 27.956 130.79 28.0909 130.089 28.0909C130.032 28.0909 129.975 28.0909 129.919 28.0909C129.862 28.0909 129.805 28.0909 129.748 28.0909V26.5284C129.805 26.5284 129.857 26.5284 129.904 26.5284C129.952 26.5284 130.004 26.5284 130.061 26.5284C130.572 26.5284 130.946 26.3769 131.183 26.0739C131.42 25.7756 131.538 25.3494 131.538 24.7955V13.0909ZM132.362 11.2727C132.035 11.2727 131.753 11.1615 131.517 10.9389C131.285 10.7164 131.169 10.4489 131.169 10.1364C131.169 9.82386 131.285 9.55634 131.517 9.33381C131.753 9.11127 132.035 9 132.362 9C132.689 9 132.968 9.11127 133.2 9.33381C133.437 9.55634 133.555 9.82386 133.555 10.1364C133.555 10.4489 133.437 10.7164 133.2 10.9389C132.968 11.1615 132.689 11.2727 132.362 11.2727ZM140.858 24.2273C139.807 24.2273 138.9 23.9953 138.138 23.5312C137.38 23.0625 136.795 22.4091 136.384 21.571C135.976 20.7282 135.773 19.7481 135.773 18.6307C135.773 17.5133 135.976 16.5284 136.384 15.6761C136.795 14.8191 137.368 14.1515 138.102 13.6733C138.841 13.1903 139.703 12.9489 140.688 12.9489C141.256 12.9489 141.817 13.0436 142.371 13.233C142.925 13.4223 143.429 13.7301 143.884 14.1562C144.338 14.5777 144.7 15.1364 144.97 15.8324C145.24 16.5284 145.375 17.3854 145.375 18.4034V19.1136H136.966V17.6648H143.67C143.67 17.0492 143.547 16.5 143.301 16.017C143.06 15.5341 142.714 15.1529 142.264 14.8736C141.819 14.5942 141.294 14.4545 140.688 14.4545C140.02 14.4545 139.442 14.6203 138.955 14.9517C138.472 15.2784 138.1 15.7045 137.839 16.2301C137.579 16.7557 137.449 17.3191 137.449 17.9205V18.8864C137.449 19.7102 137.591 20.4086 137.875 20.9815C138.164 21.5497 138.564 21.983 139.075 22.2812C139.587 22.5748 140.181 22.7216 140.858 22.7216C141.298 22.7216 141.696 22.66 142.051 22.5369C142.411 22.4091 142.721 22.2197 142.982 21.9688C143.242 21.7131 143.443 21.3958 143.585 21.017L145.205 21.4716C145.034 22.0208 144.748 22.5038 144.345 22.9205C143.943 23.3324 143.446 23.6544 142.854 23.8864C142.262 24.1136 141.597 24.2273 140.858 24.2273ZM152.357 24.2273C151.334 24.2273 150.453 23.9858 149.714 23.5028C148.976 23.0199 148.408 22.3546 148.01 21.5071C147.612 20.6596 147.413 19.6913 147.413 18.6023C147.413 17.4943 147.617 16.5166 148.024 15.669C148.436 14.8168 149.009 14.1515 149.743 13.6733C150.482 13.1903 151.343 12.9489 152.328 12.9489C153.095 12.9489 153.786 13.0909 154.402 13.375C155.018 13.6591 155.522 14.0568 155.915 14.5682C156.308 15.0795 156.552 15.6761 156.646 16.358H154.97C154.842 15.8608 154.558 15.4205 154.118 15.0369C153.682 14.6487 153.095 14.4545 152.357 14.4545C151.703 14.4545 151.13 14.625 150.638 14.9659C150.15 15.3021 149.769 15.7779 149.494 16.3935C149.224 17.0043 149.089 17.7216 149.089 18.5455C149.089 19.3883 149.222 20.1222 149.487 20.7472C149.757 21.3722 150.136 21.8575 150.624 22.2031C151.116 22.5488 151.694 22.7216 152.357 22.7216C152.792 22.7216 153.188 22.6458 153.543 22.4943C153.898 22.3428 154.198 22.125 154.445 21.8409C154.691 21.5568 154.866 21.2159 154.97 20.8182H156.646C156.552 21.4621 156.317 22.0421 155.943 22.5582C155.574 23.0696 155.084 23.4768 154.473 23.7798C153.867 24.0781 153.161 24.2273 152.357 24.2273ZM163.841 13.0909V14.5114H158.188V13.0909H163.841ZM159.835 10.4773H161.511V20.875C161.511 21.3485 161.58 21.7036 161.717 21.9403C161.859 22.1723 162.039 22.3286 162.257 22.4091C162.48 22.4848 162.714 22.5227 162.96 22.5227C163.145 22.5227 163.296 22.5133 163.415 22.4943C163.533 22.4706 163.628 22.4517 163.699 22.4375L164.04 23.9432C163.926 23.9858 163.768 24.0284 163.564 24.071C163.36 24.1184 163.102 24.142 162.79 24.142C162.316 24.142 161.852 24.0402 161.398 23.8366C160.948 23.633 160.574 23.3229 160.276 22.9062C159.982 22.4896 159.835 21.964 159.835 21.3295V10.4773Z" fill="black"/>
</g>
<defs>
<clipPath id="clip0_103_201">
<rect width="217" height="34" fill="white"/>
</clipPath>
</defs>
</svg>
