<svg width="217" height="34" viewBox="0 0 217 34" fill="none" xmlns="http://www.w3.org/2000/svg">
    <g clip-path="url(#clip0_27_55)">
        <rect width="217" height="34" rx="10" fill="#F5F5FA" />
        <path
            d="M195.05 15.0381L193.191 16.8482C192.428 17.5905 192 18.5973 192 19.6471C192 20.6968 192.428 21.7036 193.191 22.4459C193.953 23.1883 194.987 23.6053 196.065 23.6053C197.143 23.6053 198.177 23.1883 198.94 22.4459L201.417 20.033C201.876 19.5853 202.219 19.0367 202.416 18.4334C202.613 17.83 202.658 17.1895 202.548 16.5655C202.439 15.9415 202.177 15.3523 201.784 14.8473C201.392 14.3424 200.881 13.9364 200.295 13.6634L199.501 14.4365C199.42 14.5151 199.35 14.6033 199.292 14.6991C199.745 14.8259 200.157 15.0658 200.486 15.3949C200.814 15.7241 201.049 16.1311 201.167 16.5757C201.285 17.0204 201.282 17.4873 201.157 17.9303C201.033 18.3732 200.792 18.777 200.459 19.1015L197.983 21.5132C197.475 22.0083 196.785 22.2865 196.066 22.2865C195.347 22.2865 194.657 22.0083 194.149 21.5132C193.64 21.0181 193.354 20.3466 193.354 19.6464C193.354 18.9462 193.64 18.2747 194.149 17.7796L195.223 16.7347C195.071 16.1816 195.013 15.6095 195.05 15.0381Z"
            fill="black" />
        <path
            d="M197.585 12.571C197.125 13.0187 196.782 13.5672 196.585 14.1706C196.388 14.7739 196.343 15.4145 196.453 16.0385C196.563 16.6624 196.825 17.2516 197.217 17.7566C197.609 18.2616 198.12 18.6676 198.707 18.9406L199.757 17.9168C199.297 17.7968 198.878 17.5612 198.542 17.2337C198.206 16.9061 197.964 16.4982 197.841 16.0508C197.718 15.6034 197.718 15.1324 197.841 14.6851C197.964 14.2378 198.206 13.8299 198.543 13.5024L201.018 11.0908C201.527 10.5957 202.216 10.3175 202.935 10.3175C203.655 10.3175 204.344 10.5957 204.853 11.0908C205.361 11.5859 205.647 12.2574 205.647 12.9576C205.647 13.6577 205.361 14.3293 204.853 14.8244L203.778 15.8692C203.93 16.4233 203.988 16.9972 203.952 17.5672L205.811 15.7571C206.573 15.0148 207.001 14.008 207.001 12.9582C207.001 11.9084 206.573 10.9016 205.811 10.1593C205.048 9.41703 204.014 9 202.936 9C201.858 9 200.824 9.41703 200.062 10.1593L197.585 12.571Z"
            fill="black" />
        <path
            d="M21.7045 14C21.5483 13.5218 21.3423 13.0933 21.0866 12.7145C20.8357 12.331 20.535 12.0043 20.1847 11.7344C19.839 11.4645 19.446 11.2585 19.0057 11.1165C18.5653 10.9744 18.0824 10.9034 17.5568 10.9034C16.6951 10.9034 15.9115 11.1259 15.206 11.571C14.5005 12.0161 13.9394 12.6719 13.5227 13.5384C13.1061 14.4048 12.8977 15.4678 12.8977 16.7273C12.8977 17.9867 13.1084 19.0497 13.5298 19.9162C13.9512 20.7827 14.5218 21.4384 15.2415 21.8835C15.9612 22.3286 16.7708 22.5511 17.6705 22.5511C18.5038 22.5511 19.2377 22.3736 19.8722 22.0185C20.5114 21.6586 21.0085 21.152 21.3636 20.4986C21.7235 19.8404 21.9034 19.0663 21.9034 18.1761L22.4432 18.2898H18.0682V16.7273H23.608V18.2898C23.608 19.4877 23.3523 20.5294 22.8409 21.4148C22.3343 22.3002 21.6335 22.9867 20.7386 23.4744C19.8485 23.9574 18.8258 24.1989 17.6705 24.1989C16.3826 24.1989 15.2509 23.8958 14.2756 23.2898C13.3049 22.6837 12.5473 21.822 12.0028 20.7045C11.4631 19.5871 11.1932 18.2614 11.1932 16.7273C11.1932 15.5767 11.3471 14.5421 11.6548 13.6236C11.9673 12.7003 12.4077 11.9143 12.9759 11.2656C13.544 10.617 14.2164 10.1198 14.9929 9.77415C15.7694 9.4285 16.6241 9.25568 17.5568 9.25568C18.3239 9.25568 19.0388 9.37169 19.7017 9.60369C20.3693 9.83097 20.9635 10.1553 21.4844 10.5767C22.0099 10.9934 22.4479 11.4929 22.7983 12.0753C23.1487 12.6529 23.3902 13.2945 23.5227 14H21.7045ZM27.081 24V13.0909H28.7571V24H27.081ZM27.9332 11.2727C27.6065 11.2727 27.3248 11.1615 27.0881 10.9389C26.8561 10.7164 26.7401 10.4489 26.7401 10.1364C26.7401 9.82386 26.8561 9.55634 27.0881 9.33381C27.3248 9.11127 27.6065 9 27.9332 9C28.2599 9 28.5393 9.11127 28.7713 9.33381C29.008 9.55634 29.1264 9.82386 29.1264 10.1364C29.1264 10.4489 29.008 10.7164 28.7713 10.9389C28.5393 11.1615 28.2599 11.2727 27.9332 11.2727ZM36.5714 13.0909V14.5114H30.918V13.0909H36.5714ZM32.5657 10.4773H34.2418V20.875C34.2418 21.3485 34.3105 21.7036 34.4478 21.9403C34.5898 22.1723 34.7698 22.3286 34.9876 22.4091C35.2101 22.4848 35.4445 22.5227 35.6907 22.5227C35.8754 22.5227 36.0269 22.5133 36.1452 22.4943C36.2636 22.4706 36.3583 22.4517 36.4293 22.4375L36.7702 23.9432C36.6566 23.9858 36.498 24.0284 36.2944 24.071C36.0908 24.1184 35.8327 24.142 35.5202 24.142C35.0468 24.142 34.5827 24.0402 34.1282 23.8366C33.6784 23.633 33.3043 23.3229 33.006 22.9062C32.7125 22.4896 32.5657 21.964 32.5657 21.3295V10.4773ZM39.5543 24V9.45455H41.3157V15.9318H49.0714V9.45455H50.8327V24H49.0714V17.4943H41.3157V24H39.5543ZM61.0067 19.5398V13.0909H62.6829V24H61.0067V22.1534H60.8931C60.6374 22.7074 60.2397 23.1785 59.6999 23.5668C59.1602 23.9503 58.4783 24.142 57.6545 24.142C56.9727 24.142 56.3666 23.9929 55.8363 23.6946C55.306 23.3916 54.8893 22.937 54.5863 22.331C54.2833 21.7202 54.1317 20.9508 54.1317 20.0227V13.0909H55.8079V19.9091C55.8079 20.7045 56.0304 21.339 56.4755 21.8125C56.9253 22.286 57.4982 22.5227 58.1942 22.5227C58.6109 22.5227 59.0347 22.4162 59.4656 22.2031C59.9012 21.9901 60.2657 21.6634 60.5593 21.223C60.8576 20.7827 61.0067 20.2216 61.0067 19.5398ZM65.9801 24V9.45455H67.6562V14.8239H67.7983C67.9214 14.6345 68.0919 14.393 68.3097 14.0994C68.5322 13.8011 68.8494 13.536 69.2614 13.304C69.678 13.0672 70.2415 12.9489 70.9517 12.9489C71.8703 12.9489 72.6799 13.1785 73.3807 13.6378C74.0814 14.0971 74.6283 14.7481 75.0213 15.5909C75.4143 16.4337 75.6108 17.428 75.6108 18.5739C75.6108 19.7292 75.4143 20.7306 75.0213 21.5781C74.6283 22.4209 74.0838 23.0743 73.3878 23.5384C72.6918 23.9976 71.8892 24.2273 70.9801 24.2273C70.2794 24.2273 69.7183 24.1113 69.2969 23.8793C68.8755 23.6425 68.5511 23.375 68.3239 23.0767C68.0966 22.7737 67.9214 22.5227 67.7983 22.3239H67.5994V24H65.9801ZM67.6278 18.5455C67.6278 19.3693 67.7486 20.0961 67.9901 20.7259C68.2315 21.3509 68.5843 21.8409 69.0483 22.196C69.5123 22.5464 70.0805 22.7216 70.7528 22.7216C71.4536 22.7216 72.0384 22.5369 72.5071 22.1676C72.9806 21.7936 73.3357 21.2917 73.5724 20.6619C73.8139 20.0275 73.9347 19.322 73.9347 18.5455C73.9347 17.7784 73.8163 17.0871 73.5795 16.4716C73.3475 15.8513 72.9948 15.3613 72.5213 15.0014C72.0526 14.6368 71.4631 14.4545 70.7528 14.4545C70.071 14.4545 69.4981 14.6274 69.0341 14.973C68.5701 15.3139 68.2197 15.7921 67.983 16.4077C67.7462 17.0185 67.6278 17.7311 67.6278 18.5455ZM88.5156 24H84.027V9.45455H88.7145C90.1255 9.45455 91.3329 9.74574 92.3366 10.3281C93.3404 10.9058 94.1098 11.7367 94.6449 12.821C95.1799 13.9006 95.4474 15.1932 95.4474 16.6989C95.4474 18.214 95.1776 19.5185 94.6378 20.6122C94.098 21.7012 93.312 22.5393 92.2798 23.1264C91.2476 23.7088 89.9929 24 88.5156 24ZM85.7884 22.4375H88.402C89.6046 22.4375 90.6013 22.2055 91.392 21.7415C92.1828 21.2775 92.7723 20.617 93.1605 19.7599C93.5488 18.9029 93.7429 17.8826 93.7429 16.6989C93.7429 15.5246 93.5511 14.5137 93.1676 13.6662C92.7841 12.8139 92.2112 12.1605 91.4489 11.706C90.6866 11.2467 89.7372 11.017 88.6009 11.017H85.7884V22.4375ZM102.607 24.2273C101.622 24.2273 100.758 23.9929 100.014 23.5241C99.2756 23.0554 98.6979 22.3996 98.2812 21.5568C97.8693 20.714 97.6634 19.7292 97.6634 18.6023C97.6634 17.4659 97.8693 16.474 98.2812 15.6264C98.6979 14.7789 99.2756 14.1207 100.014 13.652C100.758 13.1832 101.622 12.9489 102.607 12.9489C103.591 12.9489 104.453 13.1832 105.192 13.652C105.935 14.1207 106.513 14.7789 106.925 15.6264C107.341 16.474 107.55 17.4659 107.55 18.6023C107.55 19.7292 107.341 20.714 106.925 21.5568C106.513 22.3996 105.935 23.0554 105.192 23.5241C104.453 23.9929 103.591 24.2273 102.607 24.2273ZM102.607 22.7216C103.355 22.7216 103.97 22.5298 104.453 22.1463C104.936 21.7628 105.294 21.2585 105.526 20.6335C105.758 20.0085 105.874 19.3314 105.874 18.6023C105.874 17.8731 105.758 17.1937 105.526 16.5639C105.294 15.9342 104.936 15.4252 104.453 15.0369C103.97 14.6487 103.355 14.4545 102.607 14.4545C101.858 14.4545 101.243 14.6487 100.76 15.0369C100.277 15.4252 99.9195 15.9342 99.6875 16.5639C99.4555 17.1937 99.3395 17.8731 99.3395 18.6023C99.3395 19.3314 99.4555 20.0085 99.6875 20.6335C99.9195 21.2585 100.277 21.7628 100.76 22.1463C101.243 22.5298 101.858 22.7216 102.607 22.7216ZM115.961 24V9.45455H120.875C122.016 9.45455 122.949 9.66051 123.674 10.0724C124.403 10.4796 124.943 11.0312 125.293 11.7273C125.643 12.4233 125.819 13.1998 125.819 14.0568C125.819 14.9138 125.643 15.6927 125.293 16.3935C124.947 17.0942 124.412 17.6529 123.688 18.0696C122.963 18.4815 122.035 18.6875 120.904 18.6875H117.381V17.125H120.847C121.628 17.125 122.256 16.9901 122.729 16.7202C123.203 16.4503 123.546 16.0857 123.759 15.6264C123.977 15.1624 124.086 14.6392 124.086 14.0568C124.086 13.4744 123.977 12.9536 123.759 12.4943C123.546 12.035 123.2 11.6752 122.722 11.4148C122.244 11.1496 121.609 11.017 120.819 11.017H117.722V24H115.961ZM128.429 24V13.0909H130.048V14.7386H130.162C130.36 14.1989 130.72 13.7609 131.241 13.4247C131.762 13.0885 132.349 12.9205 133.002 12.9205C133.126 12.9205 133.279 12.9228 133.464 12.9276C133.649 12.9323 133.788 12.9394 133.883 12.9489V14.6534C133.826 14.6392 133.696 14.6179 133.493 14.5895C133.294 14.5563 133.083 14.5398 132.86 14.5398C132.33 14.5398 131.857 14.651 131.44 14.8736C131.028 15.0914 130.701 15.3944 130.46 15.7827C130.223 16.1662 130.105 16.6042 130.105 17.0966V24H128.429ZM139.97 24.2273C138.985 24.2273 138.121 23.9929 137.377 23.5241C136.639 23.0554 136.061 22.3996 135.645 21.5568C135.233 20.714 135.027 19.7292 135.027 18.6023C135.027 17.4659 135.233 16.474 135.645 15.6264C136.061 14.7789 136.639 14.1207 137.377 13.652C138.121 13.1832 138.985 12.9489 139.97 12.9489C140.955 12.9489 141.816 13.1832 142.555 13.652C143.298 14.1207 143.876 14.7789 144.288 15.6264C144.705 16.474 144.913 17.4659 144.913 18.6023C144.913 19.7292 144.705 20.714 144.288 21.5568C143.876 22.3996 143.298 23.0554 142.555 23.5241C141.816 23.9929 140.955 24.2273 139.97 24.2273ZM139.97 22.7216C140.718 22.7216 141.333 22.5298 141.816 22.1463C142.299 21.7628 142.657 21.2585 142.889 20.6335C143.121 20.0085 143.237 19.3314 143.237 18.6023C143.237 17.8731 143.121 17.1937 142.889 16.5639C142.657 15.9342 142.299 15.4252 141.816 15.0369C141.333 14.6487 140.718 14.4545 139.97 14.4545C139.222 14.4545 138.606 14.6487 138.123 15.0369C137.64 15.4252 137.283 15.9342 137.051 16.5639C136.819 17.1937 136.703 17.8731 136.703 18.6023C136.703 19.3314 136.819 20.0085 137.051 20.6335C137.283 21.2585 137.64 21.7628 138.123 22.1463C138.606 22.5298 139.222 22.7216 139.97 22.7216ZM147.472 13.0909H149.148V24.7955C149.148 25.4678 149.032 26.0502 148.8 26.5426C148.572 27.035 148.227 27.4162 147.763 27.6861C147.304 27.956 146.723 28.0909 146.023 28.0909C145.966 28.0909 145.909 28.0909 145.852 28.0909C145.795 28.0909 145.739 28.0909 145.682 28.0909V26.5284C145.739 26.5284 145.791 26.5284 145.838 26.5284C145.885 26.5284 145.938 26.5284 145.994 26.5284C146.506 26.5284 146.88 26.3769 147.116 26.0739C147.353 25.7756 147.472 25.3494 147.472 24.7955V13.0909ZM148.295 11.2727C147.969 11.2727 147.687 11.1615 147.45 10.9389C147.218 10.7164 147.102 10.4489 147.102 10.1364C147.102 9.82386 147.218 9.55634 147.45 9.33381C147.687 9.11127 147.969 9 148.295 9C148.622 9 148.902 9.11127 149.134 9.33381C149.37 9.55634 149.489 9.82386 149.489 10.1364C149.489 10.4489 149.37 10.7164 149.134 10.9389C148.902 11.1615 148.622 11.2727 148.295 11.2727ZM156.792 24.2273C155.74 24.2273 154.834 23.9953 154.071 23.5312C153.314 23.0625 152.729 22.4091 152.317 21.571C151.91 20.7282 151.706 19.7481 151.706 18.6307C151.706 17.5133 151.91 16.5284 152.317 15.6761C152.729 14.8191 153.302 14.1515 154.036 13.6733C154.775 13.1903 155.636 12.9489 156.621 12.9489C157.189 12.9489 157.75 13.0436 158.304 13.233C158.858 13.4223 159.363 13.7301 159.817 14.1562C160.272 14.5777 160.634 15.1364 160.904 15.8324C161.174 16.5284 161.309 17.3854 161.309 18.4034V19.1136H152.9V17.6648H159.604C159.604 17.0492 159.481 16.5 159.235 16.017C158.993 15.5341 158.648 15.1529 158.198 14.8736C157.753 14.5942 157.227 14.4545 156.621 14.4545C155.953 14.4545 155.376 14.6203 154.888 14.9517C154.405 15.2784 154.033 15.7045 153.773 16.2301C153.513 16.7557 153.382 17.3191 153.382 17.9205V18.8864C153.382 19.7102 153.525 20.4086 153.809 20.9815C154.097 21.5497 154.498 21.983 155.009 22.2812C155.52 22.5748 156.114 22.7216 156.792 22.7216C157.232 22.7216 157.63 22.66 157.985 22.5369C158.345 22.4091 158.655 22.2197 158.915 21.9688C159.176 21.7131 159.377 21.3958 159.519 21.017L161.138 21.4716C160.968 22.0208 160.681 22.5038 160.279 22.9205C159.876 23.3324 159.379 23.6544 158.787 23.8864C158.195 24.1136 157.53 24.2273 156.792 24.2273ZM168.603 13.0909V14.5114H162.949V13.0909H168.603ZM164.597 10.4773H166.273V20.875C166.273 21.3485 166.342 21.7036 166.479 21.9403C166.621 22.1723 166.801 22.3286 167.019 22.4091C167.241 22.4848 167.476 22.5227 167.722 22.5227C167.907 22.5227 168.058 22.5133 168.176 22.4943C168.295 22.4706 168.39 22.4517 168.461 22.4375L168.801 23.9432C168.688 23.9858 168.529 24.0284 168.326 24.071C168.122 24.1184 167.864 24.142 167.551 24.142C167.078 24.142 166.614 24.0402 166.159 23.8366C165.71 23.633 165.336 23.3229 165.037 22.9062C164.744 22.4896 164.597 21.964 164.597 21.3295V10.4773ZM175.439 24.2273C174.454 24.2273 173.59 23.9929 172.846 23.5241C172.108 23.0554 171.53 22.3996 171.113 21.5568C170.701 20.714 170.495 19.7292 170.495 18.6023C170.495 17.4659 170.701 16.474 171.113 15.6264C171.53 14.7789 172.108 14.1207 172.846 13.652C173.59 13.1832 174.454 12.9489 175.439 12.9489C176.423 12.9489 177.285 13.1832 178.024 13.652C178.767 14.1207 179.345 14.7789 179.757 15.6264C180.173 16.474 180.382 17.4659 180.382 18.6023C180.382 19.7292 180.173 20.714 179.757 21.5568C179.345 22.3996 178.767 23.0554 178.024 23.5241C177.285 23.9929 176.423 24.2273 175.439 24.2273ZM175.439 22.7216C176.187 22.7216 176.802 22.5298 177.285 22.1463C177.768 21.7628 178.126 21.2585 178.358 20.6335C178.59 20.0085 178.706 19.3314 178.706 18.6023C178.706 17.8731 178.59 17.1937 178.358 16.5639C178.126 15.9342 177.768 15.4252 177.285 15.0369C176.802 14.6487 176.187 14.4545 175.439 14.4545C174.69 14.4545 174.075 14.6487 173.592 15.0369C173.109 15.4252 172.752 15.9342 172.52 16.5639C172.288 17.1937 172.172 17.8731 172.172 18.6023C172.172 19.3314 172.288 20.0085 172.52 20.6335C172.752 21.2585 173.109 21.7628 173.592 22.1463C174.075 22.5298 174.69 22.7216 175.439 22.7216Z"
            fill="black" />
    </g>
    <defs>
        <clipPath id="clip0_27_55">
            <rect width="217" height="34" fill="white" />
        </clipPath>
    </defs>
</svg>