<svg width="161" height="24" viewBox="0 0 161 24" fill="none" xmlns="http://www.w3.org/2000/svg">
<path d="M9.29822 0.28125H12.017L20.5482 23H16.5326L10.6576 6.07812L4.78259 23H0.766968L9.29822 0.28125ZM4.78259 15.1094H16.7357V18.6875H4.78259V15.1094ZM27.7357 23.0781C26.3711 23.0781 25.3711 22.7188 24.7357 22C24.1003 21.2708 23.7826 20.1979 23.7826 18.7812V2.0625H27.517V18.2656C27.517 18.6615 27.5951 18.9688 27.7513 19.1875C27.9076 19.3958 28.1368 19.5 28.4388 19.5H29.7357V23.0781H27.7357ZM22.1107 6.78125H29.7357V10.0469H22.1107V6.78125ZM37.5326 18.2344C37.5326 18.6302 37.6316 18.9375 37.8295 19.1562C38.0274 19.3646 38.3086 19.4688 38.6732 19.4688H39.7826V23.0469H37.7513C36.5013 23.0469 35.5274 22.6719 34.8295 21.9219C34.142 21.1719 33.7982 20.1146 33.7982 18.75V0.28125H37.5326V18.2344ZM51.9701 12.7188C51.9701 11.8125 51.6993 11.1094 51.1576 10.6094C50.6263 10.1094 49.8711 9.85938 48.892 9.85938C48.267 9.85938 47.6524 9.95833 47.0482 10.1562C46.4441 10.3542 45.9024 10.6302 45.4232 10.9844L42.9388 8.89062C43.5743 8.15104 44.4076 7.57812 45.4388 7.17188C46.4701 6.75521 47.6159 6.54688 48.8763 6.54688C50.2513 6.54688 51.4284 6.78646 52.4076 7.26562C53.3868 7.73438 54.1316 8.42188 54.642 9.32812C55.1628 10.224 55.4232 11.3073 55.4232 12.5781V23H51.9701V12.7188ZM47.7201 23.2344C45.8555 23.2344 44.4597 22.8229 43.5326 22C42.6055 21.1667 42.142 19.9062 42.142 18.2188C42.142 16.6146 42.6107 15.4115 43.5482 14.6094C44.4857 13.8073 45.892 13.4062 47.767 13.4062H52.1107L52.3295 16.3125H47.7826C47.043 16.3125 46.4857 16.4688 46.1107 16.7812C45.7461 17.0938 45.5638 17.5729 45.5638 18.2188C45.5638 18.8958 45.8034 19.401 46.2826 19.7344C46.7618 20.0573 47.4857 20.2188 48.4545 20.2188C49.642 20.2188 50.5222 20.0885 51.0951 19.8281C51.6784 19.5677 51.9701 19.1615 51.9701 18.6094L52.2982 20.9219C52.1211 21.4323 51.8086 21.8594 51.3607 22.2031C50.9232 22.5469 50.392 22.8073 49.767 22.9844C49.142 23.151 48.4597 23.2344 47.7201 23.2344ZM65.9232 23.2344C64.9545 23.2344 64.0326 23.1458 63.1576 22.9688C62.2826 22.7812 61.4597 22.5104 60.6888 22.1562C59.9284 21.8021 59.2409 21.3698 58.6263 20.8594L60.892 18.0469C61.7149 18.6302 62.5534 19.0729 63.4076 19.375C64.2722 19.6771 65.1107 19.8281 65.9232 19.8281C67.0586 19.8281 67.918 19.6771 68.5013 19.375C69.0951 19.0625 69.392 18.6146 69.392 18.0312C69.392 17.5833 69.2461 17.25 68.9545 17.0312C68.6628 16.8021 68.293 16.6458 67.8451 16.5625C67.4076 16.4792 66.7878 16.401 65.9857 16.3281C65.8503 16.3177 65.7097 16.3073 65.5638 16.2969C65.418 16.2865 65.2774 16.2708 65.142 16.25C65.1003 16.25 65.0586 16.25 65.017 16.25C64.9753 16.2396 64.9336 16.2344 64.892 16.2344C63.7566 16.1094 62.8243 15.9375 62.0951 15.7188C61.3659 15.4896 60.7513 15.0573 60.2513 14.4219C59.7618 13.7865 59.517 12.875 59.517 11.6875C59.517 10.5729 59.7618 9.63542 60.2513 8.875C60.7513 8.10417 61.4805 7.52604 62.4388 7.14062C63.3972 6.74479 64.5743 6.54688 65.9701 6.54688C66.8034 6.54688 67.6159 6.63021 68.4076 6.79688C69.1993 6.95312 69.9545 7.1875 70.6732 7.5C71.4024 7.80208 72.0899 8.18229 72.7357 8.64062L70.5013 11.3594C69.7409 10.901 68.9701 10.5521 68.1888 10.3125C67.418 10.0729 66.668 9.95312 65.9388 9.95312C64.9597 9.95312 64.2149 10.0938 63.7045 10.375C63.1941 10.6562 62.9388 11.0729 62.9388 11.625C62.9388 11.9792 63.0795 12.25 63.3607 12.4375C63.642 12.625 63.9909 12.7552 64.4076 12.8281C64.8347 12.8906 65.4493 12.9583 66.2513 13.0312C66.3347 13.0417 66.4128 13.0521 66.4857 13.0625C66.5691 13.0625 66.6524 13.0677 66.7357 13.0781C66.767 13.0781 66.8034 13.0781 66.8451 13.0781C66.8868 13.0781 66.9284 13.0833 66.9701 13.0938C68.168 13.2083 69.1628 13.3802 69.9545 13.6094C70.7461 13.8385 71.418 14.2969 71.9701 14.9844C72.5222 15.6615 72.7982 16.651 72.7982 17.9531C72.7982 19.099 72.5378 20.0677 72.017 20.8594C71.4961 21.6406 70.7201 22.2344 69.6888 22.6406C68.668 23.0365 67.4128 23.2344 65.9232 23.2344ZM93.0482 23.2344C91.4024 23.2344 89.9701 22.8958 88.7513 22.2188C87.543 21.5312 86.6107 20.5521 85.9545 19.2812C85.3086 18.0104 84.9857 16.5052 84.9857 14.7656V8.53125C84.9857 6.79167 85.3086 5.28646 85.9545 4.01562C86.6107 2.74479 87.543 1.76562 88.7513 1.07812C89.9701 0.390625 91.4024 0.046875 93.0482 0.046875C94.4128 0.046875 95.6472 0.338542 96.7513 0.921875C97.8659 1.50521 98.7878 2.34896 99.517 3.45312C100.257 4.54688 100.762 5.84375 101.033 7.34375H97.1888C97.0013 6.61458 96.7045 5.97917 96.2982 5.4375C95.892 4.88542 95.4076 4.46354 94.8451 4.17188C94.293 3.88021 93.6941 3.73438 93.0482 3.73438C92.1836 3.73438 91.4336 3.93229 90.7982 4.32812C90.1732 4.71354 89.6888 5.26562 89.3451 5.98438C89.0013 6.70312 88.8295 7.55208 88.8295 8.53125V14.7656C88.8295 15.7448 89.0013 16.5938 89.3451 17.3125C89.6888 18.0312 90.1732 18.5833 90.7982 18.9688C91.4336 19.3542 92.1836 19.5469 93.0482 19.5469C93.7045 19.5469 94.3086 19.4062 94.8607 19.125C95.4232 18.8438 95.9076 18.4323 96.3138 17.8906C96.7201 17.349 97.0118 16.6979 97.1888 15.9375H101.033C100.751 17.4375 100.241 18.7396 99.5013 19.8438C98.7722 20.9375 97.8503 21.776 96.7357 22.3594C95.6316 22.9427 94.4024 23.2344 93.0482 23.2344ZM111.329 23.2344C109.892 23.2344 108.658 22.9583 107.626 22.4062C106.606 21.8542 105.824 21.0521 105.283 20C104.751 18.9375 104.486 17.6615 104.486 16.1719V13.5312C104.486 12.0625 104.751 10.8073 105.283 9.76562C105.824 8.71354 106.606 7.91667 107.626 7.375C108.658 6.82292 109.892 6.54688 111.329 6.54688C112.767 6.54688 113.996 6.82292 115.017 7.375C116.048 7.91667 116.829 8.71354 117.361 9.76562C117.902 10.8073 118.173 12.0625 118.173 13.5312V16.2188C118.173 17.6979 117.902 18.9635 117.361 20.0156C116.829 21.0573 116.048 21.8542 115.017 22.4062C113.996 22.9583 112.767 23.2344 111.329 23.2344ZM111.329 19.6562C112.319 19.6562 113.085 19.3594 113.626 18.7656C114.168 18.1615 114.439 17.3125 114.439 16.2188V13.5312C114.439 12.4479 114.168 11.6094 113.626 11.0156C113.085 10.4219 112.319 10.125 111.329 10.125C110.34 10.125 109.574 10.4219 109.033 11.0156C108.491 11.6094 108.22 12.4479 108.22 13.5312V16.2188C108.22 17.3125 108.486 18.1615 109.017 18.7656C109.559 19.3594 110.329 19.6562 111.329 19.6562ZM131.158 6.78125H134.954L128.861 23H126.142L120.048 6.78125H123.845L127.501 17.6562L131.158 6.78125ZM137.658 0.28125H141.376V4.01562H137.658V0.28125ZM137.658 6.78125H141.376V23H137.658V6.78125ZM154.783 0.28125H158.517V23H154.783V0.28125ZM150.861 23.2656C149.694 23.2656 148.694 23 147.861 22.4688C147.038 21.9271 146.408 21.151 145.97 20.1406C145.543 19.1198 145.329 17.8906 145.329 16.4531V13.3594C145.329 11.9219 145.543 10.6927 145.97 9.67188C146.397 8.64062 147.017 7.85938 147.829 7.32812C148.652 6.78646 149.637 6.51562 150.783 6.51562C151.699 6.51562 152.533 6.77083 153.283 7.28125C154.043 7.79167 154.652 8.51042 155.111 9.4375L154.783 12.8906C154.783 12.2656 154.673 11.7344 154.454 11.2969C154.236 10.8594 153.918 10.526 153.501 10.2969C153.085 10.0677 152.579 9.95312 151.986 9.95312C151.059 9.95312 150.34 10.2552 149.829 10.8594C149.319 11.4635 149.064 12.3073 149.064 13.3906V16.4531C149.064 17.526 149.319 18.3594 149.829 18.9531C150.34 19.5365 151.059 19.8281 151.986 19.8281C152.579 19.8281 153.085 19.7135 153.501 19.4844C153.918 19.2448 154.236 18.9062 154.454 18.4688C154.673 18.0312 154.783 17.5052 154.783 16.8906L155.001 20.4531C154.678 21.2969 154.158 21.9792 153.439 22.5C152.731 23.0104 151.871 23.2656 150.861 23.2656Z" fill="#F1F5F9"/>
</svg>
