<svg width="240" height="24" viewBox="0 0 240 24" fill="none" xmlns="http://www.w3.org/2000/svg">
<path d="M10.5326 23.2344C8.88676 23.2344 7.45447 22.8958 6.23572 22.2188C5.02738 21.5312 4.09509 20.5521 3.43884 19.2812C2.79301 18.0104 2.47009 16.5052 2.47009 14.7656V8.53125C2.47009 6.79167 2.79301 5.28646 3.43884 4.01562C4.09509 2.74479 5.02738 1.76562 6.23572 1.07812C7.45447 0.390625 8.88676 0.046875 10.5326 0.046875C11.8972 0.046875 13.1316 0.338542 14.2357 0.921875C15.3503 1.50521 16.2722 2.34896 17.0013 3.45312C17.7409 4.54688 18.2461 5.84375 18.517 7.34375H14.6732C14.4857 6.61458 14.1888 5.97917 13.7826 5.4375C13.3763 4.88542 12.892 4.46354 12.3295 4.17188C11.7774 3.88021 11.1784 3.73438 10.5326 3.73438C9.66801 3.73438 8.91801 3.93229 8.28259 4.32812C7.65759 4.71354 7.17322 5.26562 6.82947 5.98438C6.48572 6.70312 6.31384 7.55208 6.31384 8.53125V14.7656C6.31384 15.7448 6.48572 16.5938 6.82947 17.3125C7.17322 18.0312 7.65759 18.5833 8.28259 18.9688C8.91801 19.3542 9.66801 19.5469 10.5326 19.5469C11.1888 19.5469 11.793 19.4062 12.3451 19.125C12.9076 18.8438 13.392 18.4323 13.7982 17.8906C14.2045 17.349 14.4961 16.6979 14.6732 15.9375H18.517C18.2357 17.4375 17.7253 18.7396 16.9857 19.8438C16.2566 20.9375 15.3347 21.776 14.2201 22.3594C13.1159 22.9427 11.8868 23.2344 10.5326 23.2344ZM26.1732 18.2344C26.1732 18.6302 26.2722 18.9375 26.4701 19.1562C26.668 19.3646 26.9493 19.4688 27.3138 19.4688H28.4232V23.0469H26.392C25.142 23.0469 24.168 22.6719 23.4701 21.9219C22.7826 21.1719 22.4388 20.1146 22.4388 18.75V0.28125H26.1732V18.2344ZM38.0951 23.2344C36.6576 23.2344 35.4232 22.9583 34.392 22.4062C33.3711 21.8542 32.5899 21.0521 32.0482 20C31.517 18.9375 31.2513 17.6615 31.2513 16.1719V13.5312C31.2513 12.0625 31.517 10.8073 32.0482 9.76562C32.5899 8.71354 33.3711 7.91667 34.392 7.375C35.4232 6.82292 36.6576 6.54688 38.0951 6.54688C39.5326 6.54688 40.7618 6.82292 41.7826 7.375C42.8138 7.91667 43.5951 8.71354 44.1263 9.76562C44.668 10.8073 44.9388 12.0625 44.9388 13.5312V16.2188C44.9388 17.6979 44.668 18.9635 44.1263 20.0156C43.5951 21.0573 42.8138 21.8542 41.7826 22.4062C40.7618 22.9583 39.5326 23.2344 38.0951 23.2344ZM38.0951 19.6562C39.0847 19.6562 39.8503 19.3594 40.392 18.7656C40.9336 18.1615 41.2045 17.3125 41.2045 16.2188V13.5312C41.2045 12.4479 40.9336 11.6094 40.392 11.0156C39.8503 10.4219 39.0847 10.125 38.0951 10.125C37.1055 10.125 36.3399 10.4219 35.7982 11.0156C35.2566 11.6094 34.9857 12.4479 34.9857 13.5312V16.2188C34.9857 17.3125 35.2513 18.1615 35.7826 18.7656C36.3243 19.3594 37.0951 19.6562 38.0951 19.6562ZM49.1576 6.78125H52.892V23H49.1576V6.78125ZM58.767 13.1719C58.767 12.2031 58.5066 11.4531 57.9857 10.9219C57.4649 10.3906 56.7253 10.125 55.767 10.125C54.8503 10.125 54.142 10.375 53.642 10.875C53.142 11.3646 52.892 12.0625 52.892 12.9688L52.5638 9.60938C53.0534 8.60938 53.668 7.84896 54.4076 7.32812C55.1576 6.80729 56.0378 6.54688 57.0482 6.54688C58.7774 6.54688 60.1159 7.125 61.0638 8.28125C62.0222 9.42708 62.5013 11.0521 62.5013 13.1562V23H58.767V13.1719ZM73.8295 23.2344C72.2982 23.2344 70.9909 22.9531 69.9076 22.3906C68.8243 21.8281 67.9961 21.0052 67.4232 19.9219C66.8503 18.8281 66.5638 17.5104 66.5638 15.9688V14.1406C66.5638 12.5365 66.8347 11.1667 67.3763 10.0312C67.9284 8.89583 68.7253 8.03125 69.767 7.4375C70.8191 6.84375 72.0795 6.54688 73.5482 6.54688C74.9336 6.54688 76.1159 6.89583 77.0951 7.59375C78.0847 8.28125 78.8347 9.28125 79.3451 10.5938C79.8659 11.9062 80.1263 13.4896 80.1263 15.3438V16.4062H69.1107V13.6719H76.6576L76.642 13.5C76.5378 12.3646 76.2201 11.4844 75.6888 10.8594C75.1576 10.2344 74.4441 9.92188 73.5482 9.92188C72.4232 9.92188 71.5534 10.276 70.9388 10.9844C70.3243 11.6823 70.017 12.6771 70.017 13.9688V16.0312C70.017 17.2604 70.3503 18.2083 71.017 18.875C71.6836 19.5312 72.6211 19.8594 73.8295 19.8594C74.4441 19.8594 75.0482 19.7448 75.642 19.5156C76.2461 19.276 76.7878 18.9479 77.267 18.5312L79.7045 20.8125C78.8816 21.5833 77.9545 22.1823 76.9232 22.6094C75.9024 23.026 74.8711 23.2344 73.8295 23.2344ZM96.2826 2.14062H100.001V23H96.2826V2.14062ZM89.9701 0.28125H106.314V3.85938H89.9701V0.28125ZM113.267 23.2344C111.736 23.2344 110.428 22.9531 109.345 22.3906C108.262 21.8281 107.434 21.0052 106.861 19.9219C106.288 18.8281 106.001 17.5104 106.001 15.9688V14.1406C106.001 12.5365 106.272 11.1667 106.814 10.0312C107.366 8.89583 108.163 8.03125 109.204 7.4375C110.257 6.84375 111.517 6.54688 112.986 6.54688C114.371 6.54688 115.553 6.89583 116.533 7.59375C117.522 8.28125 118.272 9.28125 118.783 10.5938C119.303 11.9062 119.564 13.4896 119.564 15.3438V16.4062H108.548V13.6719H116.095L116.079 13.5C115.975 12.3646 115.658 11.4844 115.126 10.8594C114.595 10.2344 113.882 9.92188 112.986 9.92188C111.861 9.92188 110.991 10.276 110.376 10.9844C109.762 11.6823 109.454 12.6771 109.454 13.9688V16.0312C109.454 17.2604 109.788 18.2083 110.454 18.875C111.121 19.5312 112.059 19.8594 113.267 19.8594C113.882 19.8594 114.486 19.7448 115.079 19.5156C115.684 19.276 116.225 18.9479 116.704 18.5312L119.142 20.8125C118.319 21.5833 117.392 22.1823 116.361 22.6094C115.34 23.026 114.309 23.2344 113.267 23.2344ZM129.595 23.2344C128.626 23.2344 127.704 23.1458 126.829 22.9688C125.954 22.7812 125.132 22.5104 124.361 22.1562C123.6 21.8021 122.913 21.3698 122.298 20.8594L124.564 18.0469C125.387 18.6302 126.225 19.0729 127.079 19.375C127.944 19.6771 128.783 19.8281 129.595 19.8281C130.731 19.8281 131.59 19.6771 132.173 19.375C132.767 19.0625 133.064 18.6146 133.064 18.0312C133.064 17.5833 132.918 17.25 132.626 17.0312C132.335 16.8021 131.965 16.6458 131.517 16.5625C131.079 16.4792 130.46 16.401 129.658 16.3281C129.522 16.3177 129.382 16.3073 129.236 16.2969C129.09 16.2865 128.949 16.2708 128.814 16.25C128.772 16.25 128.731 16.25 128.689 16.25C128.647 16.2396 128.606 16.2344 128.564 16.2344C127.428 16.1094 126.496 15.9375 125.767 15.7188C125.038 15.4896 124.423 15.0573 123.923 14.4219C123.434 13.7865 123.189 12.875 123.189 11.6875C123.189 10.5729 123.434 9.63542 123.923 8.875C124.423 8.10417 125.152 7.52604 126.111 7.14062C127.069 6.74479 128.246 6.54688 129.642 6.54688C130.475 6.54688 131.288 6.63021 132.079 6.79688C132.871 6.95312 133.626 7.1875 134.345 7.5C135.074 7.80208 135.762 8.18229 136.408 8.64062L134.173 11.3594C133.413 10.901 132.642 10.5521 131.861 10.3125C131.09 10.0729 130.34 9.95312 129.611 9.95312C128.632 9.95312 127.887 10.0938 127.376 10.375C126.866 10.6562 126.611 11.0729 126.611 11.625C126.611 11.9792 126.751 12.25 127.033 12.4375C127.314 12.625 127.663 12.7552 128.079 12.8281C128.507 12.8906 129.121 12.9583 129.923 13.0312C130.007 13.0417 130.085 13.0521 130.158 13.0625C130.241 13.0625 130.324 13.0677 130.408 13.0781C130.439 13.0781 130.475 13.0781 130.517 13.0781C130.559 13.0781 130.6 13.0833 130.642 13.0938C131.84 13.2083 132.835 13.3802 133.626 13.6094C134.418 13.8385 135.09 14.2969 135.642 14.9844C136.194 15.6615 136.47 16.651 136.47 17.9531C136.47 19.099 136.21 20.0677 135.689 20.8594C135.168 21.6406 134.392 22.2344 133.361 22.6406C132.34 23.0365 131.085 23.2344 129.595 23.2344ZM143.954 18.2344C143.954 18.6302 144.053 18.9375 144.251 19.1562C144.449 19.3646 144.731 19.4688 145.095 19.4688H146.204V23.0469H144.173C142.923 23.0469 141.949 22.6719 141.251 21.9219C140.564 21.1719 140.22 20.1146 140.22 18.75V0.28125H143.954V18.2344ZM158.392 12.7188C158.392 11.8125 158.121 11.1094 157.579 10.6094C157.048 10.1094 156.293 9.85938 155.314 9.85938C154.689 9.85938 154.074 9.95833 153.47 10.1562C152.866 10.3542 152.324 10.6302 151.845 10.9844L149.361 8.89062C149.996 8.15104 150.829 7.57812 151.861 7.17188C152.892 6.75521 154.038 6.54688 155.298 6.54688C156.673 6.54688 157.85 6.78646 158.829 7.26562C159.809 7.73438 160.553 8.42188 161.064 9.32812C161.585 10.224 161.845 11.3073 161.845 12.5781V23H158.392V12.7188ZM154.142 23.2344C152.277 23.2344 150.882 22.8229 149.954 22C149.027 21.1667 148.564 19.9062 148.564 18.2188C148.564 16.6146 149.033 15.4115 149.97 14.6094C150.908 13.8073 152.314 13.4062 154.189 13.4062H158.533L158.751 16.3125H154.204C153.465 16.3125 152.908 16.4688 152.533 16.7812C152.168 17.0938 151.986 17.5729 151.986 18.2188C151.986 18.8958 152.225 19.401 152.704 19.7344C153.184 20.0573 153.908 20.2188 154.876 20.2188C156.064 20.2188 156.944 20.0885 157.517 19.8281C158.1 19.5677 158.392 19.1615 158.392 18.6094L158.72 20.9219C158.543 21.4323 158.231 21.8594 157.783 22.2031C157.345 22.5469 156.814 22.8073 156.189 22.9844C155.564 23.151 154.882 23.2344 154.142 23.2344ZM182.876 23.2344C181.231 23.2344 179.798 22.8958 178.579 22.2188C177.371 21.5312 176.439 20.5521 175.783 19.2812C175.137 18.0104 174.814 16.5052 174.814 14.7656V8.53125C174.814 6.79167 175.137 5.28646 175.783 4.01562C176.439 2.74479 177.371 1.76562 178.579 1.07812C179.798 0.390625 181.231 0.046875 182.876 0.046875C184.241 0.046875 185.475 0.338542 186.579 0.921875C187.694 1.50521 188.616 2.34896 189.345 3.45312C190.085 4.54688 190.59 5.84375 190.861 7.34375H187.017C186.829 6.61458 186.533 5.97917 186.126 5.4375C185.72 4.88542 185.236 4.46354 184.673 4.17188C184.121 3.88021 183.522 3.73438 182.876 3.73438C182.012 3.73438 181.262 3.93229 180.626 4.32812C180.001 4.71354 179.517 5.26562 179.173 5.98438C178.829 6.70312 178.658 7.55208 178.658 8.53125V14.7656C178.658 15.7448 178.829 16.5938 179.173 17.3125C179.517 18.0312 180.001 18.5833 180.626 18.9688C181.262 19.3542 182.012 19.5469 182.876 19.5469C183.533 19.5469 184.137 19.4062 184.689 19.125C185.251 18.8438 185.736 18.4323 186.142 17.8906C186.548 17.349 186.84 16.6979 187.017 15.9375H190.861C190.579 17.4375 190.069 18.7396 189.329 19.8438C188.6 20.9375 187.678 21.776 186.564 22.3594C185.46 22.9427 184.231 23.2344 182.876 23.2344ZM203.829 12.7188C203.829 11.8125 203.559 11.1094 203.017 10.6094C202.486 10.1094 201.731 9.85938 200.751 9.85938C200.126 9.85938 199.512 9.95833 198.908 10.1562C198.303 10.3542 197.762 10.6302 197.283 10.9844L194.798 8.89062C195.434 8.15104 196.267 7.57812 197.298 7.17188C198.329 6.75521 199.475 6.54688 200.736 6.54688C202.111 6.54688 203.288 6.78646 204.267 7.26562C205.246 7.73438 205.991 8.42188 206.501 9.32812C207.022 10.224 207.283 11.3073 207.283 12.5781V23H203.829V12.7188ZM199.579 23.2344C197.715 23.2344 196.319 22.8229 195.392 22C194.465 21.1667 194.001 19.9062 194.001 18.2188C194.001 16.6146 194.47 15.4115 195.408 14.6094C196.345 13.8073 197.751 13.4062 199.626 13.4062H203.97L204.189 16.3125H199.642C198.902 16.3125 198.345 16.4688 197.97 16.7812C197.606 17.0938 197.423 17.5729 197.423 18.2188C197.423 18.8958 197.663 19.401 198.142 19.7344C198.621 20.0573 199.345 20.2188 200.314 20.2188C201.501 20.2188 202.382 20.0885 202.954 19.8281C203.538 19.5677 203.829 19.1615 203.829 18.6094L204.158 20.9219C203.981 21.4323 203.668 21.8594 203.22 22.2031C202.783 22.5469 202.251 22.8073 201.626 22.9844C201.001 23.151 200.319 23.2344 199.579 23.2344ZM211.814 6.78125H215.704V23H211.814V6.78125ZM220.845 10.9531C220.595 10.6823 220.288 10.4792 219.923 10.3438C219.559 10.1979 219.137 10.125 218.658 10.125C217.72 10.125 216.991 10.4062 216.47 10.9688C215.96 11.5208 215.704 12.2917 215.704 13.2812L215.376 9.60938C215.845 8.64062 216.454 7.89062 217.204 7.35938C217.965 6.81771 218.798 6.54688 219.704 6.54688C220.413 6.54688 221.053 6.65625 221.626 6.875C222.199 7.08333 222.699 7.39583 223.126 7.8125L220.845 10.9531ZM231.439 23.2344C230.47 23.2344 229.548 23.1458 228.673 22.9688C227.798 22.7812 226.975 22.5104 226.204 22.1562C225.444 21.8021 224.757 21.3698 224.142 20.8594L226.408 18.0469C227.231 18.6302 228.069 19.0729 228.923 19.375C229.788 19.6771 230.626 19.8281 231.439 19.8281C232.574 19.8281 233.434 19.6771 234.017 19.375C234.611 19.0625 234.908 18.6146 234.908 18.0312C234.908 17.5833 234.762 17.25 234.47 17.0312C234.178 16.8021 233.809 16.6458 233.361 16.5625C232.923 16.4792 232.303 16.401 231.501 16.3281C231.366 16.3177 231.225 16.3073 231.079 16.2969C230.934 16.2865 230.793 16.2708 230.658 16.25C230.616 16.25 230.574 16.25 230.533 16.25C230.491 16.2396 230.449 16.2344 230.408 16.2344C229.272 16.1094 228.34 15.9375 227.611 15.7188C226.882 15.4896 226.267 15.0573 225.767 14.4219C225.277 13.7865 225.033 12.875 225.033 11.6875C225.033 10.5729 225.277 9.63542 225.767 8.875C226.267 8.10417 226.996 7.52604 227.954 7.14062C228.913 6.74479 230.09 6.54688 231.486 6.54688C232.319 6.54688 233.132 6.63021 233.923 6.79688C234.715 6.95312 235.47 7.1875 236.189 7.5C236.918 7.80208 237.606 8.18229 238.251 8.64062L236.017 11.3594C235.257 10.901 234.486 10.5521 233.704 10.3125C232.934 10.0729 232.184 9.95312 231.454 9.95312C230.475 9.95312 229.731 10.0938 229.22 10.375C228.71 10.6562 228.454 11.0729 228.454 11.625C228.454 11.9792 228.595 12.25 228.876 12.4375C229.158 12.625 229.507 12.7552 229.923 12.8281C230.35 12.8906 230.965 12.9583 231.767 13.0312C231.85 13.0417 231.928 13.0521 232.001 13.0625C232.085 13.0625 232.168 13.0677 232.251 13.0781C232.283 13.0781 232.319 13.0781 232.361 13.0781C232.402 13.0781 232.444 13.0833 232.486 13.0938C233.684 13.2083 234.678 13.3802 235.47 13.6094C236.262 13.8385 236.934 14.2969 237.486 14.9844C238.038 15.6615 238.314 16.651 238.314 17.9531C238.314 19.099 238.053 20.0677 237.533 20.8594C237.012 21.6406 236.236 22.2344 235.204 22.6406C234.184 23.0365 232.928 23.2344 231.439 23.2344Z" fill="#F1F5F9"/>
</svg>
