<svg width="194" height="24" viewBox="0 0 194 24" fill="none" xmlns="http://www.w3.org/2000/svg">
<path d="M9.89197 23.2344C8.79822 23.2344 7.74613 23.1302 6.73572 22.9219C5.73572 22.7031 4.79301 22.3854 3.90759 21.9688C3.03259 21.5521 2.23051 21.0365 1.50134 20.4219L3.48572 17.4375C4.36072 18.1771 5.33988 18.7396 6.42322 19.125C7.51697 19.5 8.67322 19.6875 9.89197 19.6875C11.4128 19.6875 12.5899 19.4167 13.4232 18.875C14.267 18.3333 14.6888 17.5677 14.6888 16.5781V16.5625C14.6888 15.8646 14.5013 15.3125 14.1263 14.9062C13.7513 14.4896 13.2618 14.1875 12.6576 14C12.0534 13.8021 11.2774 13.6198 10.3295 13.4531C10.2982 13.4427 10.267 13.4375 10.2357 13.4375C10.2045 13.4375 10.1732 13.4323 10.142 13.4219L9.86072 13.375C8.33988 13.125 7.08988 12.8281 6.11072 12.4844C5.13155 12.1406 4.29822 11.526 3.61072 10.6406C2.92322 9.75521 2.57947 8.5 2.57947 6.875V6.85938C2.57947 5.42188 2.90238 4.19271 3.54822 3.17188C4.19405 2.15104 5.13155 1.375 6.36072 0.84375C7.58988 0.3125 9.06905 0.046875 10.7982 0.046875C11.6107 0.046875 12.4232 0.140625 13.2357 0.328125C14.0586 0.505208 14.8607 0.770833 15.642 1.125C16.4336 1.46875 17.1993 1.90104 17.9388 2.42188L16.1263 5.5C15.2513 4.875 14.3607 4.40104 13.4545 4.07812C12.5482 3.75521 11.6628 3.59375 10.7982 3.59375C9.36072 3.59375 8.24613 3.85938 7.45447 4.39062C6.67322 4.91146 6.28259 5.65104 6.28259 6.60938V6.625C6.28259 7.34375 6.48572 7.91146 6.89197 8.32812C7.29822 8.74479 7.80343 9.05208 8.40759 9.25C9.02218 9.4375 9.87634 9.64062 10.9701 9.85938C11.0118 9.86979 11.0482 9.88021 11.0795 9.89062C11.1211 9.89062 11.1628 9.89583 11.2045 9.90625C11.2566 9.91667 11.3138 9.92708 11.3763 9.9375C11.4388 9.94792 11.4961 9.95833 11.5482 9.96875C12.9545 10.25 14.1263 10.5885 15.0638 10.9844C16.0118 11.3802 16.8034 12.0156 17.4388 12.8906C18.0743 13.7656 18.392 14.9583 18.392 16.4688V16.5C18.392 17.9167 18.0586 19.1302 17.392 20.1406C16.7253 21.151 15.7566 21.9219 14.4857 22.4531C13.2149 22.974 11.6836 23.2344 9.89197 23.2344ZM22.2045 0.28125H25.9232V4.01562H22.2045V0.28125ZM22.2045 6.78125H25.9232V23H22.2045V6.78125ZM36.3138 23.2344C35.3451 23.2344 34.4232 23.1458 33.5482 22.9688C32.6732 22.7812 31.8503 22.5104 31.0795 22.1562C30.3191 21.8021 29.6316 21.3698 29.017 20.8594L31.2826 18.0469C32.1055 18.6302 32.9441 19.0729 33.7982 19.375C34.6628 19.6771 35.5013 19.8281 36.3138 19.8281C37.4493 19.8281 38.3086 19.6771 38.892 19.375C39.4857 19.0625 39.7826 18.6146 39.7826 18.0312C39.7826 17.5833 39.6368 17.25 39.3451 17.0312C39.0534 16.8021 38.6836 16.6458 38.2357 16.5625C37.7982 16.4792 37.1784 16.401 36.3763 16.3281C36.2409 16.3177 36.1003 16.3073 35.9545 16.2969C35.8086 16.2865 35.668 16.2708 35.5326 16.25C35.4909 16.25 35.4493 16.25 35.4076 16.25C35.3659 16.2396 35.3243 16.2344 35.2826 16.2344C34.1472 16.1094 33.2149 15.9375 32.4857 15.7188C31.7566 15.4896 31.142 15.0573 30.642 14.4219C30.1524 13.7865 29.9076 12.875 29.9076 11.6875C29.9076 10.5729 30.1524 9.63542 30.642 8.875C31.142 8.10417 31.8711 7.52604 32.8295 7.14062C33.7878 6.74479 34.9649 6.54688 36.3607 6.54688C37.1941 6.54688 38.0066 6.63021 38.7982 6.79688C39.5899 6.95312 40.3451 7.1875 41.0638 7.5C41.793 7.80208 42.4805 8.18229 43.1263 8.64062L40.892 11.3594C40.1316 10.901 39.3607 10.5521 38.5795 10.3125C37.8086 10.0729 37.0586 9.95312 36.3295 9.95312C35.3503 9.95312 34.6055 10.0938 34.0951 10.375C33.5847 10.6562 33.3295 11.0729 33.3295 11.625C33.3295 11.9792 33.4701 12.25 33.7513 12.4375C34.0326 12.625 34.3816 12.7552 34.7982 12.8281C35.2253 12.8906 35.8399 12.9583 36.642 13.0312C36.7253 13.0417 36.8034 13.0521 36.8763 13.0625C36.9597 13.0625 37.043 13.0677 37.1263 13.0781C37.1576 13.0781 37.1941 13.0781 37.2357 13.0781C37.2774 13.0781 37.3191 13.0833 37.3607 13.0938C38.5586 13.2083 39.5534 13.3802 40.3451 13.6094C41.1368 13.8385 41.8086 14.2969 42.3607 14.9844C42.9128 15.6615 43.1888 16.651 43.1888 17.9531C43.1888 19.099 42.9284 20.0677 42.4076 20.8594C41.8868 21.6406 41.1107 22.2344 40.0795 22.6406C39.0586 23.0365 37.8034 23.2344 36.3138 23.2344ZM51.3138 23.0781C49.9493 23.0781 48.9493 22.7188 48.3138 22C47.6784 21.2708 47.3607 20.1979 47.3607 18.7812V2.0625H51.0951V18.2656C51.0951 18.6615 51.1732 18.9688 51.3295 19.1875C51.4857 19.3958 51.7149 19.5 52.017 19.5H53.3138V23.0781H51.3138ZM45.6888 6.78125H53.3138V10.0469H45.6888V6.78125ZM64.1732 23.2344C62.642 23.2344 61.3347 22.9531 60.2513 22.3906C59.168 21.8281 58.3399 21.0052 57.767 19.9219C57.1941 18.8281 56.9076 17.5104 56.9076 15.9688V14.1406C56.9076 12.5365 57.1784 11.1667 57.7201 10.0312C58.2722 8.89583 59.0691 8.03125 60.1107 7.4375C61.1628 6.84375 62.4232 6.54688 63.892 6.54688C65.2774 6.54688 66.4597 6.89583 67.4388 7.59375C68.4284 8.28125 69.1784 9.28125 69.6888 10.5938C70.2097 11.9062 70.4701 13.4896 70.4701 15.3438V16.4062H59.4545V13.6719H67.0013L66.9857 13.5C66.8816 12.3646 66.5638 11.4844 66.0326 10.8594C65.5013 10.2344 64.7878 9.92188 63.892 9.92188C62.767 9.92188 61.8972 10.276 61.2826 10.9844C60.668 11.6823 60.3607 12.6771 60.3607 13.9688V16.0312C60.3607 17.2604 60.6941 18.2083 61.3607 18.875C62.0274 19.5312 62.9649 19.8594 64.1732 19.8594C64.7878 19.8594 65.392 19.7448 65.9857 19.5156C66.5899 19.276 67.1316 18.9479 67.6107 18.5312L70.0482 20.8125C69.2253 21.5833 68.2982 22.1823 67.267 22.6094C66.2461 23.026 65.2149 23.2344 64.1732 23.2344ZM93.6732 13.4062C93.6732 12.3542 93.4128 11.5469 92.892 10.9844C92.3711 10.4115 91.6316 10.125 90.6732 10.125C89.767 10.125 89.0638 10.401 88.5638 10.9531C88.0743 11.4948 87.8295 12.2708 87.8295 13.2812L87.1107 9.84375C87.6211 8.79167 88.2878 7.97917 89.1107 7.40625C89.9441 6.83333 90.8659 6.54688 91.8763 6.54688C93.043 6.54688 94.0378 6.8125 94.8607 7.34375C95.6941 7.875 96.3243 8.65625 96.7513 9.6875C97.1888 10.7083 97.4076 11.9427 97.4076 13.3906V23H93.6732V13.4062ZM74.5326 6.78125H78.267V23H74.5326V6.78125ZM84.1107 13.4062C84.1107 12.3542 83.8503 11.5469 83.3295 10.9844C82.8191 10.4115 82.0899 10.125 81.142 10.125C80.2253 10.125 79.517 10.375 79.017 10.875C78.517 11.3646 78.267 12.0625 78.267 12.9688L77.9388 9.60938C78.4284 8.61979 79.0534 7.86458 79.8138 7.34375C80.5743 6.8125 81.4441 6.54688 82.4232 6.54688C83.5586 6.54688 84.5326 6.8125 85.3451 7.34375C86.1576 7.875 86.7722 8.65625 87.1888 9.6875C87.6159 10.7083 87.8295 11.9427 87.8295 13.3906V23H84.1107V13.4062ZM110.986 12.7188C110.986 11.8125 110.715 11.1094 110.173 10.6094C109.642 10.1094 108.887 9.85938 107.908 9.85938C107.283 9.85938 106.668 9.95833 106.064 10.1562C105.46 10.3542 104.918 10.6302 104.439 10.9844L101.954 8.89062C102.59 8.15104 103.423 7.57812 104.454 7.17188C105.486 6.75521 106.632 6.54688 107.892 6.54688C109.267 6.54688 110.444 6.78646 111.423 7.26562C112.402 7.73438 113.147 8.42188 113.658 9.32812C114.178 10.224 114.439 11.3073 114.439 12.5781V23H110.986V12.7188ZM106.736 23.2344C104.871 23.2344 103.475 22.8229 102.548 22C101.621 21.1667 101.158 19.9062 101.158 18.2188C101.158 16.6146 101.626 15.4115 102.564 14.6094C103.501 13.8073 104.908 13.4062 106.783 13.4062H111.126L111.345 16.3125H106.798C106.059 16.3125 105.501 16.4688 105.126 16.7812C104.762 17.0938 104.579 17.5729 104.579 18.2188C104.579 18.8958 104.819 19.401 105.298 19.7344C105.777 20.0573 106.501 20.2188 107.47 20.2188C108.658 20.2188 109.538 20.0885 110.111 19.8281C110.694 19.5677 110.986 19.1615 110.986 18.6094L111.314 20.9219C111.137 21.4323 110.824 21.8594 110.376 22.2031C109.939 22.5469 109.408 22.8073 108.783 22.9844C108.158 23.151 107.475 23.2344 106.736 23.2344ZM135.47 23.2344C133.824 23.2344 132.392 22.8958 131.173 22.2188C129.965 21.5312 129.033 20.5521 128.376 19.2812C127.731 18.0104 127.408 16.5052 127.408 14.7656V8.53125C127.408 6.79167 127.731 5.28646 128.376 4.01562C129.033 2.74479 129.965 1.76562 131.173 1.07812C132.392 0.390625 133.824 0.046875 135.47 0.046875C136.835 0.046875 138.069 0.338542 139.173 0.921875C140.288 1.50521 141.21 2.34896 141.939 3.45312C142.678 4.54688 143.184 5.84375 143.454 7.34375H139.611C139.423 6.61458 139.126 5.97917 138.72 5.4375C138.314 4.88542 137.829 4.46354 137.267 4.17188C136.715 3.88021 136.116 3.73438 135.47 3.73438C134.606 3.73438 133.856 3.93229 133.22 4.32812C132.595 4.71354 132.111 5.26562 131.767 5.98438C131.423 6.70312 131.251 7.55208 131.251 8.53125V14.7656C131.251 15.7448 131.423 16.5938 131.767 17.3125C132.111 18.0312 132.595 18.5833 133.22 18.9688C133.856 19.3542 134.606 19.5469 135.47 19.5469C136.126 19.5469 136.731 19.4062 137.283 19.125C137.845 18.8438 138.329 18.4323 138.736 17.8906C139.142 17.349 139.434 16.6979 139.611 15.9375H143.454C143.173 17.4375 142.663 18.7396 141.923 19.8438C141.194 20.9375 140.272 21.776 139.158 22.3594C138.053 22.9427 136.824 23.2344 135.47 23.2344ZM147.376 6.78125H151.267V23H147.376V6.78125ZM156.408 10.9531C156.158 10.6823 155.85 10.4792 155.486 10.3438C155.121 10.1979 154.699 10.125 154.22 10.125C153.283 10.125 152.553 10.4062 152.033 10.9688C151.522 11.5208 151.267 12.2917 151.267 13.2812L150.939 9.60938C151.408 8.64062 152.017 7.89062 152.767 7.35938C153.527 6.81771 154.361 6.54688 155.267 6.54688C155.975 6.54688 156.616 6.65625 157.189 6.875C157.762 7.08333 158.262 7.39583 158.689 7.8125L156.408 10.9531ZM170.579 6.78125H174.298V23H170.579V6.78125ZM164.767 16.6406C164.767 17.599 165.022 18.3438 165.533 18.875C166.043 19.3958 166.762 19.6562 167.689 19.6562C168.616 19.6562 169.329 19.4115 169.829 18.9219C170.329 18.4219 170.579 17.7083 170.579 16.7812L170.798 20.25C170.486 21.0938 169.965 21.8021 169.236 22.375C168.507 22.9479 167.616 23.2344 166.564 23.2344C164.803 23.2344 163.439 22.6667 162.47 21.5312C161.512 20.3958 161.033 18.7917 161.033 16.7188V6.78125H164.767V16.6406ZM187.829 0.28125H191.564V23H187.829V0.28125ZM183.908 23.2656C182.741 23.2656 181.741 23 180.908 22.4688C180.085 21.9271 179.454 21.151 179.017 20.1406C178.59 19.1198 178.376 17.8906 178.376 16.4531V13.3594C178.376 11.9219 178.59 10.6927 179.017 9.67188C179.444 8.64062 180.064 7.85938 180.876 7.32812C181.699 6.78646 182.684 6.51562 183.829 6.51562C184.746 6.51562 185.579 6.77083 186.329 7.28125C187.09 7.79167 187.699 8.51042 188.158 9.4375L187.829 12.8906C187.829 12.2656 187.72 11.7344 187.501 11.2969C187.283 10.8594 186.965 10.526 186.548 10.2969C186.132 10.0677 185.626 9.95312 185.033 9.95312C184.106 9.95312 183.387 10.2552 182.876 10.8594C182.366 11.4635 182.111 12.3073 182.111 13.3906V16.4531C182.111 17.526 182.366 18.3594 182.876 18.9531C183.387 19.5365 184.106 19.8281 185.033 19.8281C185.626 19.8281 186.132 19.7135 186.548 19.4844C186.965 19.2448 187.283 18.9062 187.501 18.4688C187.72 18.0312 187.829 17.5052 187.829 16.8906L188.048 20.4531C187.725 21.2969 187.204 21.9792 186.486 22.5C185.777 23.0104 184.918 23.2656 183.908 23.2656Z" fill="#F1F5F9"/>
</svg>
