<svg width="259" height="24" viewBox="0 0 259 24" fill="none" xmlns="http://www.w3.org/2000/svg">
<path d="M4.73572 19.4688H11.4388C12.7409 19.4688 13.7097 19.1979 14.3451 18.6562C14.9805 18.1042 15.2982 17.3385 15.2982 16.3594V16.3125C15.2982 15.6354 15.1732 15.0573 14.9232 14.5781C14.6732 14.099 14.2878 13.7344 13.767 13.4844C13.2461 13.224 12.6003 13.0938 11.8295 13.0938H4.73572V9.59375H11.8295C12.8607 9.59375 13.6472 9.34375 14.1888 8.84375C14.7305 8.34375 15.0013 7.61979 15.0013 6.67188C15.0013 5.73438 14.7149 5.02604 14.142 4.54688C13.5691 4.05729 12.7253 3.8125 11.6107 3.8125H4.73572V0.28125H11.9701C13.4388 0.28125 14.6784 0.53125 15.6888 1.03125C16.7097 1.52083 17.4753 2.22396 17.9857 3.14062C18.5066 4.05729 18.767 5.15625 18.767 6.4375C18.767 7.27083 18.6003 8.03125 18.267 8.71875C17.9441 9.39583 17.4597 9.96354 16.8138 10.4219C16.1784 10.8802 15.3972 11.1927 14.4701 11.3594C15.4284 11.4948 16.2513 11.8125 16.9388 12.3125C17.6263 12.8021 18.1524 13.4323 18.517 14.2031C18.8816 14.9635 19.0638 15.8177 19.0638 16.7656V16.8125C19.0638 18.0729 18.7878 19.1719 18.2357 20.1094C17.6941 21.0365 16.9076 21.75 15.8763 22.25C14.8555 22.75 13.642 23 12.2357 23H4.73572V19.4688ZM2.86072 0.28125H6.57947V23H2.86072V0.28125ZM32.2513 12.7188C32.2513 11.8125 31.9805 11.1094 31.4388 10.6094C30.9076 10.1094 30.1524 9.85938 29.1732 9.85938C28.5482 9.85938 27.9336 9.95833 27.3295 10.1562C26.7253 10.3542 26.1836 10.6302 25.7045 10.9844L23.2201 8.89062C23.8555 8.15104 24.6888 7.57812 25.7201 7.17188C26.7513 6.75521 27.8972 6.54688 29.1576 6.54688C30.5326 6.54688 31.7097 6.78646 32.6888 7.26562C33.668 7.73438 34.4128 8.42188 34.9232 9.32812C35.4441 10.224 35.7045 11.3073 35.7045 12.5781V23H32.2513V12.7188ZM28.0013 23.2344C26.1368 23.2344 24.7409 22.8229 23.8138 22C22.8868 21.1667 22.4232 19.9062 22.4232 18.2188C22.4232 16.6146 22.892 15.4115 23.8295 14.6094C24.767 13.8073 26.1732 13.4062 28.0482 13.4062H32.392L32.6107 16.3125H28.0638C27.3243 16.3125 26.767 16.4688 26.392 16.7812C26.0274 17.0938 25.8451 17.5729 25.8451 18.2188C25.8451 18.8958 26.0847 19.401 26.5638 19.7344C27.043 20.0573 27.767 20.2188 28.7357 20.2188C29.9232 20.2188 30.8034 20.0885 31.3763 19.8281C31.9597 19.5677 32.2513 19.1615 32.2513 18.6094L32.5795 20.9219C32.4024 21.4323 32.0899 21.8594 31.642 22.2031C31.2045 22.5469 30.6732 22.8073 30.0482 22.9844C29.4232 23.151 28.7409 23.2344 28.0013 23.2344ZM40.2357 6.78125H43.9701V23H40.2357V6.78125ZM49.8451 13.1719C49.8451 12.2031 49.5847 11.4531 49.0638 10.9219C48.543 10.3906 47.8034 10.125 46.8451 10.125C45.9284 10.125 45.2201 10.375 44.7201 10.875C44.2201 11.3646 43.9701 12.0625 43.9701 12.9688L43.642 9.60938C44.1316 8.60938 44.7461 7.84896 45.4857 7.32812C46.2357 6.80729 47.1159 6.54688 48.1263 6.54688C49.8555 6.54688 51.1941 7.125 52.142 8.28125C53.1003 9.42708 53.5795 11.0521 53.5795 13.1562V23H49.8451V13.1719ZM64.8138 23.2344C63.3034 23.2344 62.0118 22.9531 60.9388 22.3906C59.8659 21.8177 59.0482 20.9896 58.4857 19.9062C57.9232 18.8125 57.642 17.4948 57.642 15.9531V13.75C57.642 12.2292 57.9232 10.9323 58.4857 9.85938C59.0482 8.77604 59.8659 7.95312 60.9388 7.39062C62.0118 6.82812 63.3034 6.54688 64.8138 6.54688C65.6784 6.54688 66.4909 6.65104 67.2513 6.85938C68.0222 7.05729 68.7097 7.34896 69.3138 7.73438C69.9284 8.11979 70.4388 8.58854 70.8451 9.14062L68.3138 11.5156C67.8868 11.0677 67.3868 10.724 66.8138 10.4844C66.2409 10.2448 65.642 10.125 65.017 10.125C63.8607 10.125 62.9649 10.4427 62.3295 11.0781C61.6941 11.7031 61.3763 12.5938 61.3763 13.75V15.9531C61.3763 17.1406 61.6888 18.0573 62.3138 18.7031C62.9493 19.3385 63.8503 19.6562 65.017 19.6562C65.6524 19.6562 66.2566 19.526 66.8295 19.2656C67.4024 19.0052 67.8972 18.6354 68.3138 18.1562L70.8451 20.6875C70.4284 21.2292 69.9128 21.6927 69.2982 22.0781C68.6941 22.4531 68.0066 22.7396 67.2357 22.9375C66.4753 23.1354 65.668 23.2344 64.8138 23.2344ZM80.4232 23.2344C78.9857 23.2344 77.7513 22.9583 76.7201 22.4062C75.6993 21.8542 74.918 21.0521 74.3763 20C73.8451 18.9375 73.5795 17.6615 73.5795 16.1719V13.5312C73.5795 12.0625 73.8451 10.8073 74.3763 9.76562C74.918 8.71354 75.6993 7.91667 76.7201 7.375C77.7513 6.82292 78.9857 6.54688 80.4232 6.54688C81.8607 6.54688 83.0899 6.82292 84.1107 7.375C85.142 7.91667 85.9232 8.71354 86.4545 9.76562C86.9961 10.8073 87.267 12.0625 87.267 13.5312V16.2188C87.267 17.6979 86.9961 18.9635 86.4545 20.0156C85.9232 21.0573 85.142 21.8542 84.1107 22.4062C83.0899 22.9583 81.8607 23.2344 80.4232 23.2344ZM80.4232 19.6562C81.4128 19.6562 82.1784 19.3594 82.7201 18.7656C83.2618 18.1615 83.5326 17.3125 83.5326 16.2188V13.5312C83.5326 12.4479 83.2618 11.6094 82.7201 11.0156C82.1784 10.4219 81.4128 10.125 80.4232 10.125C79.4336 10.125 78.668 10.4219 78.1263 11.0156C77.5847 11.6094 77.3138 12.4479 77.3138 13.5312V16.2188C77.3138 17.3125 77.5795 18.1615 78.1107 18.7656C78.6524 19.3594 79.4232 19.6562 80.4232 19.6562ZM102.548 19.4219H107.845C109.387 19.4219 110.579 19.0365 111.423 18.2656C112.277 17.4948 112.704 16.401 112.704 14.9844V8.29688C112.704 6.88021 112.277 5.78646 111.423 5.01562C110.579 4.24479 109.387 3.85938 107.845 3.85938H102.548V0.28125H107.751C109.606 0.28125 111.189 0.598958 112.501 1.23438C113.824 1.86979 114.829 2.79688 115.517 4.01562C116.204 5.23438 116.548 6.70312 116.548 8.42188V14.8594C116.548 16.5365 116.21 17.9844 115.533 19.2031C114.856 20.4219 113.856 21.3594 112.533 22.0156C111.22 22.6719 109.621 23 107.736 23H102.548V19.4219ZM100.392 0.28125H104.126V23H100.392V0.28125ZM127.876 23.2344C126.345 23.2344 125.038 22.9531 123.954 22.3906C122.871 21.8281 122.043 21.0052 121.47 19.9219C120.897 18.8281 120.611 17.5104 120.611 15.9688V14.1406C120.611 12.5365 120.882 11.1667 121.423 10.0312C121.975 8.89583 122.772 8.03125 123.814 7.4375C124.866 6.84375 126.126 6.54688 127.595 6.54688C128.981 6.54688 130.163 6.89583 131.142 7.59375C132.132 8.28125 132.882 9.28125 133.392 10.5938C133.913 11.9062 134.173 13.4896 134.173 15.3438V16.4062H123.158V13.6719H130.704L130.689 13.5C130.585 12.3646 130.267 11.4844 129.736 10.8594C129.204 10.2344 128.491 9.92188 127.595 9.92188C126.47 9.92188 125.6 10.276 124.986 10.9844C124.371 11.6823 124.064 12.6771 124.064 13.9688V16.0312C124.064 17.2604 124.397 18.2083 125.064 18.875C125.731 19.5312 126.668 19.8594 127.876 19.8594C128.491 19.8594 129.095 19.7448 129.689 19.5156C130.293 19.276 130.835 18.9479 131.314 18.5312L133.751 20.8125C132.928 21.5833 132.001 22.1823 130.97 22.6094C129.949 23.026 128.918 23.2344 127.876 23.2344ZM149.298 19.4219H154.595C156.137 19.4219 157.329 19.0365 158.173 18.2656C159.027 17.4948 159.454 16.401 159.454 14.9844V8.29688C159.454 6.88021 159.027 5.78646 158.173 5.01562C157.329 4.24479 156.137 3.85938 154.595 3.85938H149.298V0.28125H154.501C156.356 0.28125 157.939 0.598958 159.251 1.23438C160.574 1.86979 161.579 2.79688 162.267 4.01562C162.954 5.23438 163.298 6.70312 163.298 8.42188V14.8594C163.298 16.5365 162.96 17.9844 162.283 19.2031C161.606 20.4219 160.606 21.3594 159.283 22.0156C157.97 22.6719 156.371 23 154.486 23H149.298V19.4219ZM147.142 0.28125H150.876V23H147.142V0.28125ZM176.876 12.7188C176.876 11.8125 176.606 11.1094 176.064 10.6094C175.533 10.1094 174.777 9.85938 173.798 9.85938C173.173 9.85938 172.559 9.95833 171.954 10.1562C171.35 10.3542 170.809 10.6302 170.329 10.9844L167.845 8.89062C168.481 8.15104 169.314 7.57812 170.345 7.17188C171.376 6.75521 172.522 6.54688 173.783 6.54688C175.158 6.54688 176.335 6.78646 177.314 7.26562C178.293 7.73438 179.038 8.42188 179.548 9.32812C180.069 10.224 180.329 11.3073 180.329 12.5781V23H176.876V12.7188ZM172.626 23.2344C170.762 23.2344 169.366 22.8229 168.439 22C167.512 21.1667 167.048 19.9062 167.048 18.2188C167.048 16.6146 167.517 15.4115 168.454 14.6094C169.392 13.8073 170.798 13.4062 172.673 13.4062H177.017L177.236 16.3125H172.689C171.949 16.3125 171.392 16.4688 171.017 16.7812C170.652 17.0938 170.47 17.5729 170.47 18.2188C170.47 18.8958 170.71 19.401 171.189 19.7344C171.668 20.0573 172.392 20.2188 173.361 20.2188C174.548 20.2188 175.428 20.0885 176.001 19.8281C176.585 19.5677 176.876 19.1615 176.876 18.6094L177.204 20.9219C177.027 21.4323 176.715 21.8594 176.267 22.2031C175.829 22.5469 175.298 22.8073 174.673 22.9844C174.048 23.151 173.366 23.2344 172.626 23.2344ZM193.845 0.28125H197.579V23H193.845V0.28125ZM189.923 23.2656C188.757 23.2656 187.757 23 186.923 22.4688C186.1 21.9271 185.47 21.151 185.033 20.1406C184.606 19.1198 184.392 17.8906 184.392 16.4531V13.3594C184.392 11.9219 184.606 10.6927 185.033 9.67188C185.46 8.64062 186.079 7.85938 186.892 7.32812C187.715 6.78646 188.699 6.51562 189.845 6.51562C190.762 6.51562 191.595 6.77083 192.345 7.28125C193.106 7.79167 193.715 8.51042 194.173 9.4375L193.845 12.8906C193.845 12.2656 193.736 11.7344 193.517 11.2969C193.298 10.8594 192.981 10.526 192.564 10.2969C192.147 10.0677 191.642 9.95312 191.048 9.95312C190.121 9.95312 189.402 10.2552 188.892 10.8594C188.382 11.4635 188.126 12.3073 188.126 13.3906V16.4531C188.126 17.526 188.382 18.3594 188.892 18.9531C189.402 19.5365 190.121 19.8281 191.048 19.8281C191.642 19.8281 192.147 19.7135 192.564 19.4844C192.981 19.2448 193.298 18.9062 193.517 18.4688C193.736 18.0312 193.845 17.5052 193.845 16.8906L194.064 20.4531C193.741 21.2969 193.22 21.9792 192.501 22.5C191.793 23.0104 190.934 23.2656 189.923 23.2656ZM208.486 23.2344C207.048 23.2344 205.814 22.9583 204.783 22.4062C203.762 21.8542 202.981 21.0521 202.439 20C201.908 18.9375 201.642 17.6615 201.642 16.1719V13.5312C201.642 12.0625 201.908 10.8073 202.439 9.76562C202.981 8.71354 203.762 7.91667 204.783 7.375C205.814 6.82292 207.048 6.54688 208.486 6.54688C209.923 6.54688 211.152 6.82292 212.173 7.375C213.204 7.91667 213.986 8.71354 214.517 9.76562C215.059 10.8073 215.329 12.0625 215.329 13.5312V16.2188C215.329 17.6979 215.059 18.9635 214.517 20.0156C213.986 21.0573 213.204 21.8542 212.173 22.4062C211.152 22.9583 209.923 23.2344 208.486 23.2344ZM208.486 19.6562C209.475 19.6562 210.241 19.3594 210.783 18.7656C211.324 18.1615 211.595 17.3125 211.595 16.2188V13.5312C211.595 12.4479 211.324 11.6094 210.783 11.0156C210.241 10.4219 209.475 10.125 208.486 10.125C207.496 10.125 206.731 10.4219 206.189 11.0156C205.647 11.6094 205.376 12.4479 205.376 13.5312V16.2188C205.376 17.3125 205.642 18.1615 206.173 18.7656C206.715 19.3594 207.486 19.6562 208.486 19.6562ZM225.517 23.2344C224.548 23.2344 223.626 23.1458 222.751 22.9688C221.876 22.7812 221.053 22.5104 220.283 22.1562C219.522 21.8021 218.835 21.3698 218.22 20.8594L220.486 18.0469C221.309 18.6302 222.147 19.0729 223.001 19.375C223.866 19.6771 224.704 19.8281 225.517 19.8281C226.652 19.8281 227.512 19.6771 228.095 19.375C228.689 19.0625 228.986 18.6146 228.986 18.0312C228.986 17.5833 228.84 17.25 228.548 17.0312C228.257 16.8021 227.887 16.6458 227.439 16.5625C227.001 16.4792 226.382 16.401 225.579 16.3281C225.444 16.3177 225.303 16.3073 225.158 16.2969C225.012 16.2865 224.871 16.2708 224.736 16.25C224.694 16.25 224.652 16.25 224.611 16.25C224.569 16.2396 224.527 16.2344 224.486 16.2344C223.35 16.1094 222.418 15.9375 221.689 15.7188C220.96 15.4896 220.345 15.0573 219.845 14.4219C219.356 13.7865 219.111 12.875 219.111 11.6875C219.111 10.5729 219.356 9.63542 219.845 8.875C220.345 8.10417 221.074 7.52604 222.033 7.14062C222.991 6.74479 224.168 6.54688 225.564 6.54688C226.397 6.54688 227.21 6.63021 228.001 6.79688C228.793 6.95312 229.548 7.1875 230.267 7.5C230.996 7.80208 231.684 8.18229 232.329 8.64062L230.095 11.3594C229.335 10.901 228.564 10.5521 227.783 10.3125C227.012 10.0729 226.262 9.95312 225.533 9.95312C224.553 9.95312 223.809 10.0938 223.298 10.375C222.788 10.6562 222.533 11.0729 222.533 11.625C222.533 11.9792 222.673 12.25 222.954 12.4375C223.236 12.625 223.585 12.7552 224.001 12.8281C224.428 12.8906 225.043 12.9583 225.845 13.0312C225.928 13.0417 226.007 13.0521 226.079 13.0625C226.163 13.0625 226.246 13.0677 226.329 13.0781C226.361 13.0781 226.397 13.0781 226.439 13.0781C226.481 13.0781 226.522 13.0833 226.564 13.0938C227.762 13.2083 228.757 13.3802 229.548 13.6094C230.34 13.8385 231.012 14.2969 231.564 14.9844C232.116 15.6615 232.392 16.651 232.392 17.9531C232.392 19.099 232.132 20.0677 231.611 20.8594C231.09 21.6406 230.314 22.2344 229.283 22.6406C228.262 23.0365 227.007 23.2344 225.517 23.2344Z" fill="#F1F5F9"/>
<path d="M252.483 13.87C253.358 13.6308 254.118 13.0821 254.62 12.3256C255.122 11.5691 255.333 10.6562 255.213 9.75617C255.093 8.85616 254.651 8.03016 253.968 7.43138C253.286 6.83259 252.409 6.50168 251.501 6.5C250.604 6.49965 249.737 6.82099 249.056 7.4057C248.376 7.99041 247.927 8.79973 247.792 9.68677C247.658 10.5738 247.845 11.4798 248.322 12.2402C248.798 13.0006 249.531 13.5651 250.388 13.8312C251.221 13.2812 252.133 12.6938 252.831 12.2463C253.111 12.0663 253.435 12.39 253.256 12.6713L252.481 13.8713L252.483 13.87ZM252.751 10.25C252.751 10.5815 252.62 10.8995 252.385 11.1339C252.151 11.3683 251.833 11.5 251.501 11.5C251.17 11.5 250.852 11.3683 250.617 11.1339C250.383 10.8995 250.251 10.5815 250.251 10.25C250.251 9.91848 250.383 9.60054 250.617 9.36612C250.852 9.1317 251.17 9 251.501 9C251.833 9 252.151 9.1317 252.385 9.36612C252.62 9.60054 252.751 9.91848 252.751 10.25Z" fill="#F1F5F9"/>
<path d="M246.501 1.5C245.838 1.5 245.202 1.76339 244.734 2.23223C244.265 2.70107 244.001 3.33696 244.001 4V19C244.001 19.663 244.265 20.2989 244.734 20.7678C245.202 21.2366 245.838 21.5 246.501 21.5H256.501C257.164 21.5 257.8 21.2366 258.269 20.7678C258.738 20.2989 259.001 19.663 259.001 19V4C259.001 3.33696 258.738 2.70107 258.269 2.23223C257.8 1.76339 257.164 1.5 256.501 1.5H246.501ZM257.751 3.375C257.751 3.54076 257.685 3.69973 257.568 3.81694C257.451 3.93415 257.292 4 257.126 4C256.961 4 256.802 3.93415 256.684 3.81694C256.567 3.69973 256.501 3.54076 256.501 3.375C256.501 3.20924 256.567 3.05027 256.684 2.93306C256.802 2.81585 256.961 2.75 257.126 2.75C257.292 2.75 257.451 2.81585 257.568 2.93306C257.685 3.05027 257.751 3.20924 257.751 3.375ZM257.751 19.625C257.751 19.7908 257.685 19.9497 257.568 20.0669C257.451 20.1842 257.292 20.25 257.126 20.25C256.961 20.25 256.802 20.1842 256.684 20.0669C256.567 19.9497 256.501 19.7908 256.501 19.625C256.501 19.4592 256.567 19.3003 256.684 19.1831C256.802 19.0658 256.961 19 257.126 19C257.292 19 257.451 19.0658 257.568 19.1831C257.685 19.3003 257.751 19.4592 257.751 19.625ZM245.876 20.25C245.711 20.25 245.552 20.1842 245.434 20.0669C245.317 19.9497 245.251 19.7908 245.251 19.625C245.251 19.4592 245.317 19.3003 245.434 19.1831C245.552 19.0658 245.711 19 245.876 19C246.042 19 246.201 19.0658 246.318 19.1831C246.435 19.3003 246.501 19.4592 246.501 19.625C246.501 19.7908 246.435 19.9497 246.318 20.0669C246.201 20.1842 246.042 20.25 245.876 20.25ZM246.501 3.375C246.501 3.54076 246.435 3.69973 246.318 3.81694C246.201 3.93415 246.042 4 245.876 4C245.711 4 245.552 3.93415 245.434 3.81694C245.317 3.69973 245.251 3.54076 245.251 3.375C245.251 3.20924 245.317 3.05027 245.434 2.93306C245.552 2.81585 245.711 2.75 245.876 2.75C246.042 2.75 246.201 2.81585 246.318 2.93306C246.435 3.05027 246.501 3.20924 246.501 3.375ZM250.104 17.3463C249.845 17.6048 249.495 17.7502 249.129 17.7503C248.764 17.7504 248.413 17.6053 248.154 17.3469C247.896 17.0885 247.751 16.7379 247.75 16.3723C247.75 16.1913 247.786 16.012 247.855 15.8448C247.924 15.6775 248.026 15.5255 248.154 15.3975C248.279 15.275 248.649 15.005 249.148 14.6625C248.074 14.0899 247.246 13.1454 246.819 12.006C246.391 10.8666 246.394 9.61051 246.827 8.47314C247.26 7.33577 248.092 6.39519 249.168 5.82769C250.245 5.26018 251.491 5.1047 252.674 5.39038C253.857 5.67606 254.895 6.3833 255.594 7.37955C256.293 8.37579 256.604 9.59266 256.47 10.8021C256.336 12.0115 255.765 13.1305 254.865 13.9493C253.965 14.7681 252.797 15.2306 251.58 15.25C250.909 16.2662 250.305 17.1438 250.104 17.3463Z" fill="#F1F5F9"/>
</svg>
