<svg width="176" height="19" viewBox="0 0 176 19" fill="none" xmlns="http://www.w3.org/2000/svg">
<path d="M14.1732 8.64844V11.8008C14.1732 13.0664 13.9193 14.1836 13.4115 15.1523C12.9115 16.1133 12.2006 16.8594 11.2787 17.3906C10.3646 17.9141 9.30212 18.1758 8.09119 18.1758C6.87244 18.1758 5.79822 17.9297 4.86853 17.4375C3.93884 16.9375 3.21619 16.2344 2.70056 15.3281C2.19275 14.4219 1.93884 13.3711 1.93884 12.1758V7.14844C1.93884 5.88281 2.18884 4.76953 2.68884 3.80859C3.19666 2.84766 3.90759 2.10547 4.82166 1.58203C5.74353 1.05078 6.80994 0.785156 8.02087 0.785156C9.01306 0.785156 9.93103 0.996094 10.7748 1.41797C11.6185 1.83203 12.3217 2.42188 12.8842 3.1875C13.4467 3.95312 13.8295 4.83984 14.0326 5.84766H11.0092C10.8763 5.37891 10.6576 4.97656 10.3529 4.64062C10.056 4.30469 9.70056 4.05078 9.2865 3.87891C8.88025 3.69922 8.45837 3.60938 8.02087 3.60938C7.38025 3.60938 6.81775 3.75781 6.33337 4.05469C5.85681 4.34375 5.48572 4.75781 5.22009 5.29688C4.95447 5.82812 4.82166 6.44531 4.82166 7.14844V12.1758C4.82166 12.8086 4.95447 13.3672 5.22009 13.8516C5.49353 14.3281 5.87634 14.6992 6.36853 14.9648C6.86853 15.2227 7.44275 15.3516 8.09119 15.3516C8.73181 15.3516 9.29431 15.2148 9.77869 14.9414C10.2631 14.6602 10.6342 14.2578 10.892 13.7344C11.1576 13.2031 11.2904 12.5742 11.2904 11.8477V11.332H8.26697V8.64844H14.1732ZM17.4896 0.960938H20.2787V3.76172H17.4896V0.960938ZM17.4896 5.83594H20.2787V18H17.4896V5.83594ZM23.5951 5.83594H26.5131V18H23.5951V5.83594ZM30.3685 8.96484C30.181 8.76172 29.9506 8.60938 29.6771 8.50781C29.4037 8.39844 29.0873 8.34375 28.7279 8.34375C28.0248 8.34375 27.4779 8.55469 27.0873 8.97656C26.7045 9.39062 26.5131 9.96875 26.5131 10.7109L26.267 7.95703C26.6185 7.23047 27.0756 6.66797 27.6381 6.26953C28.2084 5.86328 28.8334 5.66016 29.5131 5.66016C30.0443 5.66016 30.5248 5.74219 30.9545 5.90625C31.3842 6.0625 31.7592 6.29688 32.0795 6.60938L30.3685 8.96484ZM40.6224 10.2891C40.6224 9.60938 40.4193 9.08203 40.0131 8.70703C39.6146 8.33203 39.0482 8.14453 38.3138 8.14453C37.8451 8.14453 37.3842 8.21875 36.931 8.36719C36.4779 8.51562 36.0717 8.72266 35.7123 8.98828L33.849 7.41797C34.3256 6.86328 34.9506 6.43359 35.724 6.12891C36.4974 5.81641 37.3568 5.66016 38.3021 5.66016C39.3334 5.66016 40.2162 5.83984 40.9506 6.19922C41.6849 6.55078 42.2435 7.06641 42.6263 7.74609C43.017 8.41797 43.2123 9.23047 43.2123 10.1836V18H40.6224V10.2891ZM37.4349 18.1758C36.0365 18.1758 34.9896 17.8672 34.2943 17.25C33.599 16.625 33.2513 15.6797 33.2513 14.4141C33.2513 13.2109 33.6029 12.3086 34.306 11.707C35.0092 11.1055 36.0638 10.8047 37.4701 10.8047H40.7279L40.892 12.9844H37.4818C36.9271 12.9844 36.5092 13.1016 36.2279 13.3359C35.9545 13.5703 35.8177 13.9297 35.8177 14.4141C35.8177 14.9219 35.9974 15.3008 36.3568 15.5508C36.7162 15.793 37.2592 15.9141 37.9857 15.9141C38.8763 15.9141 39.5365 15.8164 39.9662 15.6211C40.4037 15.4258 40.6224 15.1211 40.6224 14.707L40.8685 16.4414C40.7357 16.8242 40.5013 17.1445 40.1654 17.4023C39.8373 17.6602 39.4388 17.8555 38.9701 17.9883C38.5013 18.1133 37.9896 18.1758 37.4349 18.1758ZM64.7748 0.960938H68.0092V18H65.3842V5.00391L65.5013 5.75391L61.7748 15.8672H59.5248L55.7982 5.98828L55.9154 5.00391V18H53.2904V0.960938H56.5248L60.6498 12.3281L64.7748 0.960938ZM78.9193 5.83594H81.7084V18H78.9193V5.83594ZM74.5599 13.2305C74.5599 13.9492 74.7513 14.5078 75.1342 14.9062C75.517 15.2969 76.056 15.4922 76.7513 15.4922C77.4467 15.4922 77.9818 15.3086 78.3568 14.9414C78.7318 14.5664 78.9193 14.0312 78.9193 13.3359L79.0834 15.9375C78.849 16.5703 78.4584 17.1016 77.9115 17.5312C77.3646 17.9609 76.6967 18.1758 75.9076 18.1758C74.5873 18.1758 73.5638 17.75 72.8373 16.8984C72.1185 16.0469 71.7592 14.8438 71.7592 13.2891V5.83594H74.5599V13.2305ZM85.1185 5.83594H87.9193V18H85.1185V5.83594ZM92.3256 10.6289C92.3256 9.90234 92.1302 9.33984 91.7396 8.94141C91.349 8.54297 90.7943 8.34375 90.0756 8.34375C89.3881 8.34375 88.8568 8.53125 88.4818 8.90625C88.1068 9.27344 87.9193 9.79688 87.9193 10.4766L87.6732 7.95703C88.0404 7.20703 88.5013 6.63672 89.056 6.24609C89.6185 5.85547 90.2787 5.66016 91.0365 5.66016C92.3334 5.66016 93.3373 6.09375 94.0482 6.96094C94.767 7.82031 95.1263 9.03906 95.1263 10.6172V18H92.3256V10.6289ZM105.263 0.960938H108.064V18H105.263V0.960938ZM102.322 18.1992C101.447 18.1992 100.697 18 100.072 17.6016C99.4545 17.1953 98.9818 16.6133 98.6537 15.8555C98.3334 15.0898 98.1732 14.168 98.1732 13.0898V10.7695C98.1732 9.69141 98.3334 8.76953 98.6537 8.00391C98.974 7.23047 99.4388 6.64453 100.048 6.24609C100.665 5.83984 101.404 5.63672 102.263 5.63672C102.951 5.63672 103.576 5.82812 104.138 6.21094C104.708 6.59375 105.165 7.13281 105.509 7.82812L105.263 10.418C105.263 9.94922 105.181 9.55078 105.017 9.22266C104.853 8.89453 104.615 8.64453 104.302 8.47266C103.99 8.30078 103.611 8.21484 103.165 8.21484C102.47 8.21484 101.931 8.44141 101.548 8.89453C101.165 9.34766 100.974 9.98047 100.974 10.793V13.0898C100.974 13.8945 101.165 14.5195 101.548 14.9648C101.931 15.4023 102.47 15.6211 103.165 15.6211C103.611 15.6211 103.99 15.5352 104.302 15.3633C104.615 15.1836 104.853 14.9297 105.017 14.6016C105.181 14.2734 105.263 13.8789 105.263 13.418L105.427 16.0898C105.185 16.7227 104.794 17.2344 104.255 17.625C103.724 18.0078 103.079 18.1992 102.322 18.1992ZM116.244 18.1758C115.165 18.1758 114.24 17.9688 113.466 17.5547C112.701 17.1406 112.115 16.5391 111.708 15.75C111.31 14.9531 111.111 13.9961 111.111 12.8789V10.8984C111.111 9.79688 111.31 8.85547 111.708 8.07422C112.115 7.28516 112.701 6.6875 113.466 6.28125C114.24 5.86719 115.165 5.66016 116.244 5.66016C117.322 5.66016 118.244 5.86719 119.009 6.28125C119.783 6.6875 120.369 7.28516 120.767 8.07422C121.173 8.85547 121.376 9.79688 121.376 10.8984V12.9141C121.376 14.0234 121.173 14.9727 120.767 15.7617C120.369 16.543 119.783 17.1406 119.009 17.5547C118.244 17.9688 117.322 18.1758 116.244 18.1758ZM116.244 15.4922C116.986 15.4922 117.56 15.2695 117.966 14.8242C118.372 14.3711 118.576 13.7344 118.576 12.9141V10.8984C118.576 10.0859 118.372 9.45703 117.966 9.01172C117.56 8.56641 116.986 8.34375 116.244 8.34375C115.501 8.34375 114.927 8.56641 114.521 9.01172C114.115 9.45703 113.911 10.0859 113.911 10.8984V12.9141C113.911 13.7344 114.111 14.3711 114.509 14.8242C114.915 15.2695 115.494 15.4922 116.244 15.4922ZM135.978 0.960938H138.017L144.415 18H141.404L136.997 5.30859L132.591 18H129.579L135.978 0.960938ZM132.591 12.082H141.556V14.7656H132.591V12.082ZM146.525 5.83594H149.443V18H146.525V5.83594ZM153.298 8.96484C153.111 8.76172 152.88 8.60938 152.607 8.50781C152.333 8.39844 152.017 8.34375 151.658 8.34375C150.954 8.34375 150.408 8.55469 150.017 8.97656C149.634 9.39062 149.443 9.96875 149.443 10.7109L149.197 7.95703C149.548 7.23047 150.005 6.66797 150.568 6.26953C151.138 5.86328 151.763 5.66016 152.443 5.66016C152.974 5.66016 153.454 5.74219 153.884 5.90625C154.314 6.0625 154.689 6.29688 155.009 6.60938L153.298 8.96484ZM160.048 18.0586C159.025 18.0586 158.275 17.7891 157.798 17.25C157.322 16.7031 157.083 15.8984 157.083 14.8359V2.29688H159.884V14.4492C159.884 14.7461 159.943 14.9766 160.06 15.1406C160.177 15.2969 160.349 15.375 160.576 15.375H161.548V18.0586H160.048ZM155.829 5.83594H161.548V8.28516H155.829V5.83594ZM169.693 18.1758C168.544 18.1758 167.564 17.9648 166.751 17.543C165.939 17.1211 165.318 16.5039 164.888 15.6914C164.458 14.8711 164.244 13.8828 164.244 12.7266V11.3555C164.244 10.1523 164.447 9.125 164.853 8.27344C165.267 7.42188 165.865 6.77344 166.646 6.32812C167.435 5.88281 168.38 5.66016 169.482 5.66016C170.521 5.66016 171.408 5.92187 172.142 6.44531C172.884 6.96094 173.447 7.71094 173.829 8.69531C174.22 9.67969 174.415 10.8672 174.415 12.2578V13.0547H166.154V11.0039H171.814L171.802 10.875C171.724 10.0234 171.486 9.36328 171.087 8.89453C170.689 8.42578 170.154 8.19141 169.482 8.19141C168.638 8.19141 167.986 8.45703 167.525 8.98828C167.064 9.51172 166.833 10.2578 166.833 11.2266V12.7734C166.833 13.6953 167.083 14.4062 167.583 14.9062C168.083 15.3984 168.786 15.6445 169.693 15.6445C170.154 15.6445 170.607 15.5586 171.052 15.3867C171.505 15.207 171.911 14.9609 172.271 14.6484L174.099 16.3594C173.482 16.9375 172.786 17.3867 172.013 17.707C171.247 18.0195 170.474 18.1758 169.693 18.1758Z" fill="#F1F5F9"/>
</svg>
