<svg width="300" height="25" viewBox="0 0 300 25" fill="none" xmlns="http://www.w3.org/2000/svg">
<path d="M2.8363 1.25098H5.75378V19H2.8363V1.25098ZM4.20349 16.2046H14.4818V19H4.20349V16.2046ZM16.8378 1.25098H19.743V4.16846H16.8378V1.25098ZM16.8378 6.3291H19.743V19H16.8378V6.3291ZM23.1976 6.3291H26.1151V19H23.1976V6.3291ZM30.705 11.3218C30.705 10.5649 30.5015 9.979 30.0946 9.56396C29.6877 9.14893 29.1099 8.94141 28.3612 8.94141C27.6451 8.94141 27.0917 9.13672 26.701 9.52734C26.3104 9.90983 26.1151 10.4551 26.1151 11.1631L25.8588 8.53857C26.2413 7.75732 26.7214 7.16325 27.2992 6.75635C27.8851 6.34945 28.5728 6.146 29.3622 6.146C30.7131 6.146 31.7588 6.59766 32.4994 7.50098C33.2481 8.39616 33.6224 9.66569 33.6224 11.3096V19H30.705V11.3218ZM41.5326 24.1514C40.556 24.1514 39.6812 23.9723 38.9081 23.6143C38.135 23.2643 37.5328 22.7679 37.1014 22.125L39.0668 20.3306C39.3679 20.7131 39.73 21.006 40.1532 21.2095C40.5845 21.4129 41.0321 21.5146 41.496 21.5146C42.326 21.5146 42.9812 21.2868 43.4613 20.8311C43.9414 20.3835 44.1815 19.7487 44.1815 18.9268V6.3291H47.099V18.6216C47.099 19.7853 46.8793 20.7822 46.4398 21.6123C46.0085 22.4424 45.3737 23.0731 44.5355 23.5044C43.7054 23.9357 42.7045 24.1514 41.5326 24.1514ZM41.1176 19.2075C40.2061 19.2075 39.4248 19 38.7738 18.585C38.1309 18.1618 37.6385 17.5555 37.2968 16.7661C36.9631 15.9686 36.7963 15.0083 36.7963 13.8853V11.4683C36.7963 10.3452 36.9631 9.38493 37.2968 8.5874C37.6304 7.78174 38.1146 7.17139 38.7494 6.75635C39.3923 6.33317 40.1613 6.12158 41.0565 6.12158C41.7727 6.12158 42.4237 6.32096 43.0096 6.71973C43.6037 7.11849 44.0798 7.68001 44.4379 8.4043L44.1815 11.1021C44.1815 10.6138 44.0961 10.1987 43.9252 9.85693C43.7543 9.51514 43.5061 9.25472 43.1805 9.07568C42.855 8.89665 42.4603 8.80713 41.9965 8.80713C41.2722 8.80713 40.7107 9.04313 40.3119 9.51514C39.9131 9.98714 39.7137 10.6463 39.7137 11.4927V13.8853C39.7137 14.7235 39.9131 15.3745 40.3119 15.8384C40.7107 16.2941 41.2722 16.522 41.9965 16.522C42.4603 16.522 42.855 16.4325 43.1805 16.2534C43.5061 16.0662 43.7543 15.8018 43.9252 15.46C44.0961 15.1182 44.1815 14.7072 44.1815 14.2271L44.3524 17.0103C44.1001 17.6694 43.6932 18.2025 43.1317 18.6094C42.5783 19.0081 41.9069 19.2075 41.1176 19.2075ZM58.0975 6.3291H61.0028V19H58.0975V6.3291ZM53.5565 14.0317C53.5565 14.7804 53.7559 15.3623 54.1547 15.7773C54.5534 16.1842 55.1149 16.3877 55.8392 16.3877C56.5635 16.3877 57.121 16.1965 57.5116 15.814C57.9022 15.4233 58.0975 14.8659 58.0975 14.1416L58.2684 16.8516C58.0243 17.5107 57.6174 18.0641 57.0477 18.5117C56.4781 18.9593 55.7823 19.1831 54.9603 19.1831C53.585 19.1831 52.5189 18.7396 51.7621 17.8525C51.0134 16.9655 50.639 15.7122 50.639 14.0928V6.3291H53.5565V14.0317ZM71.6229 10.9678C71.6229 10.2598 71.4113 9.71045 70.9882 9.31982C70.5731 8.9292 69.9831 8.73389 69.2181 8.73389C68.7299 8.73389 68.2497 8.8112 67.7777 8.96582C67.3057 9.12044 66.8825 9.3361 66.5082 9.61279L64.5673 7.97705C65.0637 7.39925 65.7147 6.95166 66.5204 6.63428C67.326 6.30876 68.2212 6.146 69.2059 6.146C70.2802 6.146 71.1997 6.33317 71.9647 6.70752C72.7297 7.07373 73.3116 7.61084 73.7103 8.31885C74.1172 9.01872 74.3207 9.86507 74.3207 10.8579V19H71.6229V10.9678ZM68.3026 19.1831C66.8459 19.1831 65.7554 18.8617 65.0311 18.2188C64.3068 17.5677 63.9447 16.583 63.9447 15.2646C63.9447 14.0114 64.3109 13.0715 65.0433 12.4448C65.7758 11.8182 66.8744 11.5049 68.3392 11.5049H71.7328L71.9037 13.7754H68.3514C67.7736 13.7754 67.3383 13.8975 67.0453 14.1416C66.7605 14.3857 66.618 14.7601 66.618 15.2646C66.618 15.7936 66.8052 16.1883 67.1796 16.4487C67.5539 16.701 68.1195 16.8271 68.8763 16.8271C69.8041 16.8271 70.4917 16.7254 70.9393 16.522C71.3951 16.3185 71.6229 16.0011 71.6229 15.5698L71.8793 17.3765C71.7409 17.7752 71.4968 18.1089 71.1469 18.3774C70.8051 18.646 70.39 18.8494 69.9017 18.9878C69.4135 19.118 68.8804 19.1831 68.3026 19.1831ZM82.2308 24.1514C81.2543 24.1514 80.3794 23.9723 79.6063 23.6143C78.8332 23.2643 78.231 22.7679 77.7997 22.125L79.765 20.3306C80.0661 20.7131 80.4283 21.006 80.8514 21.2095C81.2828 21.4129 81.7303 21.5146 82.1942 21.5146C83.0243 21.5146 83.6794 21.2868 84.1595 20.8311C84.6397 20.3835 84.8798 19.7487 84.8798 18.9268V6.3291H87.7972V18.6216C87.7972 19.7853 87.5775 20.7822 87.1381 21.6123C86.7067 22.4424 86.072 23.0731 85.2338 23.5044C84.4037 23.9357 83.4027 24.1514 82.2308 24.1514ZM81.8158 19.2075C80.9043 19.2075 80.1231 19 79.472 18.585C78.8291 18.1618 78.3368 17.5555 77.995 16.7661C77.6613 15.9686 77.4945 15.0083 77.4945 13.8853V11.4683C77.4945 10.3452 77.6613 9.38493 77.995 8.5874C78.3287 7.78174 78.8129 7.17139 79.4476 6.75635C80.0905 6.33317 80.8596 6.12158 81.7548 6.12158C82.4709 6.12158 83.1219 6.32096 83.7079 6.71973C84.302 7.11849 84.778 7.68001 85.1361 8.4043L84.8798 11.1021C84.8798 10.6138 84.7943 10.1987 84.6234 9.85693C84.4525 9.51514 84.2043 9.25472 83.8788 9.07568C83.5533 8.89665 83.1586 8.80713 82.6947 8.80713C81.9704 8.80713 81.4089 9.04313 81.0101 9.51514C80.6114 9.98714 80.412 10.6463 80.412 11.4927V13.8853C80.412 14.7235 80.6114 15.3745 81.0101 15.8384C81.4089 16.2941 81.9704 16.522 82.6947 16.522C83.1586 16.522 83.5533 16.4325 83.8788 16.2534C84.2043 16.0662 84.4525 15.8018 84.6234 15.46C84.7943 15.1182 84.8798 14.7072 84.8798 14.2271L85.0507 17.0103C84.7984 17.6694 84.3915 18.2025 83.83 18.6094C83.2766 19.0081 82.6052 19.2075 81.8158 19.2075ZM96.6473 19.1831C95.451 19.1831 94.4297 18.9634 93.5834 18.5239C92.737 18.0845 92.09 17.4416 91.6425 16.5952C91.1949 15.7407 90.9711 14.7113 90.9711 13.5068V12.0786C90.9711 10.8254 91.1827 9.75521 91.6058 8.86816C92.0372 7.98112 92.6597 7.30566 93.4735 6.8418C94.2955 6.37793 95.2802 6.146 96.4276 6.146C97.51 6.146 98.4336 6.41862 99.1986 6.96387C99.9717 7.50098 100.558 8.28223 100.956 9.30762C101.363 10.333 101.567 11.57 101.567 13.0186V13.8486H92.9608V11.7124H98.8568L98.8446 11.5781C98.7632 10.6911 98.515 10.0034 98.1 9.51514C97.6849 9.02686 97.1275 8.78271 96.4276 8.78271C95.5487 8.78271 94.8692 9.05941 94.389 9.61279C93.9089 10.158 93.6688 10.9352 93.6688 11.9443V13.5557C93.6688 14.516 93.9292 15.2565 94.4501 15.7773C94.9709 16.29 95.7033 16.5464 96.6473 16.5464C97.1275 16.5464 97.5995 16.4569 98.0634 16.2778C98.5354 16.0907 98.9585 15.8343 99.3329 15.5088L101.237 17.291C100.594 17.8932 99.87 18.3612 99.0643 18.6948C98.2668 19.0203 97.4611 19.1831 96.6473 19.1831ZM104.741 6.3291H107.658V19H104.741V6.3291ZM112.248 11.3218C112.248 10.5649 112.044 9.979 111.638 9.56396C111.231 9.14893 110.653 8.94141 109.904 8.94141C109.188 8.94141 108.635 9.13672 108.244 9.52734C107.853 9.90983 107.658 10.4551 107.658 11.1631L107.402 8.53857C107.784 7.75732 108.264 7.16325 108.842 6.75635C109.428 6.34945 110.116 6.146 110.905 6.146C112.256 6.146 113.302 6.59766 114.042 7.50098C114.791 8.39616 115.165 9.66569 115.165 11.3096V19H112.248V11.3218ZM123.369 19.1831C122.612 19.1831 121.891 19.1139 121.208 18.9756C120.524 18.8291 119.881 18.6175 119.279 18.3408C118.685 18.0641 118.148 17.7264 117.668 17.3276L119.438 15.1304C120.081 15.5861 120.736 15.932 121.403 16.168C122.079 16.404 122.734 16.522 123.369 16.522C124.256 16.522 124.927 16.404 125.383 16.168C125.847 15.9238 126.078 15.5739 126.078 15.1182C126.078 14.7682 125.965 14.5078 125.737 14.3369C125.509 14.1579 125.22 14.0358 124.87 13.9707C124.528 13.9056 124.044 13.8446 123.417 13.7876C123.312 13.7795 123.202 13.7713 123.088 13.7632C122.974 13.755 122.864 13.7428 122.758 13.7266C122.726 13.7266 122.693 13.7266 122.661 13.7266C122.628 13.7184 122.595 13.7144 122.563 13.7144C121.676 13.6167 120.947 13.4824 120.378 13.3115C119.808 13.1325 119.328 12.7948 118.937 12.2983C118.555 11.8019 118.364 11.0898 118.364 10.1621C118.364 9.29134 118.555 8.55892 118.937 7.96484C119.328 7.36263 119.898 6.91097 120.646 6.60986C121.395 6.30062 122.315 6.146 123.405 6.146C124.056 6.146 124.691 6.2111 125.309 6.34131C125.928 6.46338 126.518 6.64648 127.079 6.89062C127.649 7.12663 128.186 7.42367 128.691 7.78174L126.945 9.90576C126.351 9.54769 125.749 9.27507 125.139 9.08789C124.536 8.90072 123.95 8.80713 123.381 8.80713C122.616 8.80713 122.034 8.91699 121.635 9.13672C121.236 9.35645 121.037 9.68197 121.037 10.1133C121.037 10.39 121.147 10.6016 121.367 10.748C121.586 10.8945 121.859 10.9963 122.184 11.0532C122.518 11.1021 122.998 11.1549 123.625 11.2119C123.69 11.2201 123.751 11.2282 123.808 11.2363C123.873 11.2363 123.938 11.2404 124.003 11.2485C124.028 11.2485 124.056 11.2485 124.089 11.2485C124.121 11.2485 124.154 11.2526 124.186 11.2607C125.122 11.3503 125.899 11.4845 126.518 11.6636C127.136 11.8426 127.661 12.2007 128.093 12.7378C128.524 13.2668 128.74 14.0399 128.74 15.0571C128.74 15.9523 128.536 16.7091 128.129 17.3276C127.722 17.938 127.116 18.4019 126.31 18.7192C125.513 19.0285 124.532 19.1831 123.369 19.1831ZM146.83 11.2485V14.0317H138.383V11.2485H146.83ZM157.328 1.25098H160.246V19H157.328V1.25098ZM158.549 8.95361H167.399V11.7368H158.549V8.95361ZM158.549 1.25098H168.742V4.04639H158.549V1.25098ZM171.074 6.3291H174.113V19H171.074V6.3291ZM178.129 9.58838C177.934 9.37679 177.694 9.2181 177.409 9.1123C177.124 8.99837 176.795 8.94141 176.42 8.94141C175.688 8.94141 175.118 9.16113 174.711 9.60059C174.313 10.0319 174.113 10.6341 174.113 11.4072L173.857 8.53857C174.223 7.78174 174.699 7.1958 175.285 6.78076C175.879 6.35758 176.53 6.146 177.238 6.146C177.792 6.146 178.292 6.23145 178.74 6.40234C179.187 6.5651 179.578 6.80924 179.911 7.13477L178.129 9.58838ZM186.479 19.1831C185.356 19.1831 184.391 18.9674 183.586 18.5361C182.788 18.1048 182.178 17.4782 181.755 16.6562C181.34 15.8262 181.132 14.8293 181.132 13.6655V11.6025C181.132 10.4551 181.34 9.47445 181.755 8.66064C182.178 7.8387 182.788 7.21615 183.586 6.79297C184.391 6.36165 185.356 6.146 186.479 6.146C187.602 6.146 188.562 6.36165 189.36 6.79297C190.165 7.21615 190.776 7.8387 191.191 8.66064C191.614 9.47445 191.826 10.4551 191.826 11.6025V13.7021C191.826 14.8577 191.614 15.8465 191.191 16.6685C190.776 17.4823 190.165 18.1048 189.36 18.5361C188.562 18.9674 187.602 19.1831 186.479 19.1831ZM186.479 16.3877C187.252 16.3877 187.85 16.1558 188.273 15.6919C188.696 15.2199 188.908 14.5566 188.908 13.7021V11.6025C188.908 10.7562 188.696 10.1011 188.273 9.63721C187.85 9.17334 187.252 8.94141 186.479 8.94141C185.706 8.94141 185.108 9.17334 184.684 9.63721C184.261 10.1011 184.05 10.7562 184.05 11.6025V13.7021C184.05 14.5566 184.257 15.2199 184.672 15.6919C185.095 16.1558 185.698 16.3877 186.479 16.3877ZM195.121 6.3291H198.039V19H195.121V6.3291ZM202.629 11.3218C202.629 10.5649 202.425 9.979 202.018 9.56396C201.612 9.14893 201.034 8.94141 200.285 8.94141C199.569 8.94141 199.016 9.13672 198.625 9.52734C198.234 9.90983 198.039 10.4551 198.039 11.1631L197.783 8.53857C198.165 7.75732 198.645 7.16325 199.223 6.75635C199.809 6.34945 200.497 6.146 201.286 6.146C202.637 6.146 203.683 6.59766 204.423 7.50098C205.172 8.39616 205.546 9.66569 205.546 11.3096V19H202.629V11.3218ZM212.504 19.061C211.438 19.061 210.657 18.7803 210.161 18.2188C209.664 17.6491 209.416 16.8109 209.416 15.7041V2.64258H212.333V15.3013C212.333 15.6105 212.394 15.8506 212.516 16.0215C212.639 16.1842 212.818 16.2656 213.054 16.2656H214.067V19.061H212.504ZM208.11 6.3291H214.067V8.88037H208.11V6.3291ZM225.688 11.2485V14.0317H217.241V11.2485H225.688ZM234.538 19.1831C233.342 19.1831 232.32 18.9634 231.474 18.5239C230.628 18.0845 229.981 17.4416 229.533 16.5952C229.085 15.7407 228.862 14.7113 228.862 13.5068V12.0786C228.862 10.8254 229.073 9.75521 229.496 8.86816C229.928 7.98112 230.55 7.30566 231.364 6.8418C232.186 6.37793 233.171 6.146 234.318 6.146C235.401 6.146 236.324 6.41862 237.089 6.96387C237.862 7.50098 238.448 8.28223 238.847 9.30762C239.254 10.333 239.457 11.57 239.457 13.0186V13.8486H230.851V11.7124H236.747L236.735 11.5781C236.654 10.6911 236.406 10.0034 235.991 9.51514C235.576 9.02686 235.018 8.78271 234.318 8.78271C233.439 8.78271 232.76 9.05941 232.28 9.61279C231.8 10.158 231.559 10.9352 231.559 11.9443V13.5557C231.559 14.516 231.82 15.2565 232.341 15.7773C232.862 16.29 233.594 16.5464 234.538 16.5464C235.018 16.5464 235.49 16.4569 235.954 16.2778C236.426 16.0907 236.849 15.8343 237.224 15.5088L239.128 17.291C238.485 17.8932 237.761 18.3612 236.955 18.6948C236.157 19.0203 235.352 19.1831 234.538 19.1831ZM242.631 6.3291H245.549V19H242.631V6.3291ZM250.139 11.3218C250.139 10.5649 249.935 9.979 249.528 9.56396C249.121 9.14893 248.543 8.94141 247.795 8.94141C247.079 8.94141 246.525 9.13672 246.135 9.52734C245.744 9.90983 245.549 10.4551 245.549 11.1631L245.292 8.53857C245.675 7.75732 246.155 7.16325 246.733 6.75635C247.319 6.34945 248.006 6.146 248.796 6.146C250.147 6.146 251.192 6.59766 251.933 7.50098C252.682 8.39616 253.056 9.66569 253.056 11.3096V19H250.139V11.3218ZM263.615 1.25098H266.533V19H263.615V1.25098ZM260.551 19.2075C259.64 19.2075 258.858 19 258.207 18.585C257.564 18.1618 257.072 17.5555 256.73 16.7661C256.397 15.9686 256.23 15.0083 256.23 13.8853V11.4683C256.23 10.3452 256.397 9.38493 256.73 8.5874C257.064 7.78174 257.548 7.17139 258.183 6.75635C258.826 6.33317 259.595 6.12158 260.49 6.12158C261.206 6.12158 261.857 6.32096 262.443 6.71973C263.037 7.11849 263.513 7.68001 263.871 8.4043L263.615 11.1021C263.615 10.6138 263.53 10.1987 263.359 9.85693C263.188 9.51514 262.94 9.25472 262.614 9.07568C262.289 8.89665 261.894 8.80713 261.43 8.80713C260.706 8.80713 260.144 9.04313 259.745 9.51514C259.347 9.98714 259.147 10.6463 259.147 11.4927V13.8853C259.147 14.7235 259.347 15.3745 259.745 15.8384C260.144 16.2941 260.706 16.522 261.43 16.522C261.894 16.522 262.289 16.4325 262.614 16.2534C262.94 16.0662 263.188 15.8018 263.359 15.46C263.53 15.1182 263.615 14.7072 263.615 14.2271L263.786 17.0103C263.534 17.6694 263.127 18.2025 262.565 18.6094C262.012 19.0081 261.341 19.2075 260.551 19.2075Z" fill="#F1F5F9"/>
<path d="M292.47 0.924406C292.497 0.834733 292.507 0.740507 292.498 0.647107C292.489 0.553706 292.463 0.462962 292.42 0.380053C292.377 0.297145 292.318 0.223697 292.247 0.163902C292.176 0.104108 292.095 0.0591382 292.007 0.031561C291.919 0.00398378 291.827 -0.00566098 291.735 0.00317731C291.644 0.0120156 291.555 0.0391639 291.473 0.0830722C291.392 0.12698 291.32 0.186789 291.262 0.259082C291.203 0.331376 291.159 0.414739 291.132 0.504412L285.533 19.0756C285.478 19.2567 285.496 19.4525 285.583 19.6199C285.67 19.7874 285.818 19.9127 285.996 19.9684C286.173 20.0241 286.365 20.0056 286.529 19.9169C286.693 19.8283 286.816 19.6767 286.871 19.4956L292.47 0.924406ZM284.597 4.49436C284.663 4.56071 284.714 4.63953 284.75 4.72631C284.785 4.81309 284.803 4.90611 284.803 5.00007C284.803 5.09402 284.785 5.18705 284.75 5.27383C284.714 5.3606 284.663 5.43942 284.597 5.50577L280.192 10L284.597 14.4942C284.729 14.6283 284.803 14.8103 284.803 14.9999C284.803 15.1896 284.729 15.3715 284.597 15.5056C284.466 15.6398 284.288 15.7151 284.102 15.7151C283.916 15.7151 283.738 15.6398 283.606 15.5056L278.707 10.5057C278.642 10.4394 278.59 10.3605 278.555 10.2738C278.52 10.187 278.501 10.094 278.501 10C278.501 9.90605 278.52 9.81302 278.555 9.72624C278.59 9.63946 278.642 9.56064 278.707 9.49429L283.606 4.49436C283.671 4.42784 283.749 4.37507 283.834 4.33906C283.919 4.30305 284.01 4.28451 284.102 4.28451C284.194 4.28451 284.285 4.30305 284.37 4.33906C284.455 4.37507 284.532 4.42784 284.597 4.49436ZM293.405 4.49436C293.34 4.56071 293.288 4.63953 293.253 4.72631C293.218 4.81309 293.2 4.90611 293.2 5.00007C293.2 5.09402 293.218 5.18705 293.253 5.27383C293.288 5.3606 293.34 5.43942 293.405 5.50577L297.81 10L293.405 14.4942C293.34 14.5606 293.289 14.6395 293.253 14.7262C293.218 14.813 293.2 14.906 293.2 14.9999C293.2 15.0939 293.218 15.1869 293.253 15.2736C293.289 15.3604 293.34 15.4392 293.405 15.5056C293.47 15.5721 293.548 15.6247 293.633 15.6607C293.718 15.6966 293.809 15.7151 293.901 15.7151C293.993 15.7151 294.084 15.6966 294.169 15.6607C294.254 15.6247 294.331 15.5721 294.396 15.5056L299.296 10.5057C299.361 10.4394 299.413 10.3605 299.448 10.2738C299.483 10.187 299.501 10.094 299.501 10C299.501 9.90605 299.483 9.81302 299.448 9.72624C299.413 9.63946 299.361 9.56064 299.296 9.49429L294.396 4.49436C294.331 4.42784 294.254 4.37507 294.169 4.33906C294.084 4.30305 293.993 4.28451 293.901 4.28451C293.809 4.28451 293.718 4.30305 293.633 4.33906C293.547 4.37507 293.47 4.42784 293.405 4.49436Z" fill="#F1F5F9"/>
</svg>
