<svg width="368" height="30" viewBox="0 0 368 30" fill="none" xmlns="http://www.w3.org/2000/svg">
<path d="M2.68884 0.28125H6.42322V23H2.68884V0.28125ZM4.43884 19.4219H17.5951V23H4.43884V19.4219ZM20.6107 0.28125H24.3295V4.01562H20.6107V0.28125ZM20.6107 6.78125H24.3295V23H20.6107V6.78125ZM28.7513 6.78125H32.4857V23H28.7513V6.78125ZM38.3607 13.1719C38.3607 12.2031 38.1003 11.4531 37.5795 10.9219C37.0586 10.3906 36.3191 10.125 35.3607 10.125C34.4441 10.125 33.7357 10.375 33.2357 10.875C32.7357 11.3646 32.4857 12.0625 32.4857 12.9688L32.1576 9.60938C32.6472 8.60938 33.2618 7.84896 34.0013 7.32812C34.7513 6.80729 35.6316 6.54688 36.642 6.54688C38.3711 6.54688 39.7097 7.125 40.6576 8.28125C41.6159 9.42708 42.0951 11.0521 42.0951 13.1562V23H38.3607V13.1719ZM52.2201 29.5938C50.9701 29.5938 49.8503 29.3646 48.8607 28.9062C47.8711 28.4583 47.1003 27.8229 46.5482 27L49.0638 24.7031C49.4493 25.1927 49.9128 25.5677 50.4545 25.8281C51.0066 26.0885 51.5795 26.2188 52.1732 26.2188C53.2357 26.2188 54.0743 25.9271 54.6888 25.3438C55.3034 24.7708 55.6107 23.9583 55.6107 22.9062V6.78125H59.3451V22.5156C59.3451 24.0052 59.0638 25.2812 58.5013 26.3438C57.9493 27.4062 57.1368 28.2135 56.0638 28.7656C55.0013 29.3177 53.7201 29.5938 52.2201 29.5938ZM51.6888 23.2656C50.5222 23.2656 49.5222 23 48.6888 22.4688C47.8659 21.9271 47.2357 21.151 46.7982 20.1406C46.3711 19.1198 46.1576 17.8906 46.1576 16.4531V13.3594C46.1576 11.9219 46.3711 10.6927 46.7982 9.67188C47.2253 8.64062 47.8451 7.85938 48.6576 7.32812C49.4805 6.78646 50.4649 6.51562 51.6107 6.51562C52.5274 6.51562 53.3607 6.77083 54.1107 7.28125C54.8711 7.79167 55.4805 8.51042 55.9388 9.4375L55.6107 12.8906C55.6107 12.2656 55.5013 11.7344 55.2826 11.2969C55.0638 10.8594 54.7461 10.526 54.3295 10.2969C53.9128 10.0677 53.4076 9.95312 52.8138 9.95312C51.8868 9.95312 51.168 10.2552 50.6576 10.8594C50.1472 11.4635 49.892 12.3073 49.892 13.3906V16.4531C49.892 17.526 50.1472 18.3594 50.6576 18.9531C51.168 19.5365 51.8868 19.8281 52.8138 19.8281C53.4076 19.8281 53.9128 19.7135 54.3295 19.4844C54.7461 19.2448 55.0638 18.9062 55.2826 18.4688C55.5013 18.0312 55.6107 17.5052 55.6107 16.8906L55.8295 20.4531C55.5066 21.2969 54.9857 21.9792 54.267 22.5C53.5586 23.0104 52.6993 23.2656 51.6888 23.2656ZM73.4232 6.78125H77.142V23H73.4232V6.78125ZM67.6107 16.6406C67.6107 17.599 67.8659 18.3438 68.3763 18.875C68.8868 19.3958 69.6055 19.6562 70.5326 19.6562C71.4597 19.6562 72.1732 19.4115 72.6732 18.9219C73.1732 18.4219 73.4232 17.7083 73.4232 16.7812L73.642 20.25C73.3295 21.0938 72.8086 21.8021 72.0795 22.375C71.3503 22.9479 70.4597 23.2344 69.4076 23.2344C67.6472 23.2344 66.2826 22.6667 65.3138 21.5312C64.3555 20.3958 63.8763 18.7917 63.8763 16.7188V6.78125H67.6107V16.6406ZM90.7357 12.7188C90.7357 11.8125 90.4649 11.1094 89.9232 10.6094C89.392 10.1094 88.6368 9.85938 87.6576 9.85938C87.0326 9.85938 86.418 9.95833 85.8138 10.1562C85.2097 10.3542 84.668 10.6302 84.1888 10.9844L81.7045 8.89062C82.3399 8.15104 83.1732 7.57812 84.2045 7.17188C85.2357 6.75521 86.3816 6.54688 87.642 6.54688C89.017 6.54688 90.1941 6.78646 91.1732 7.26562C92.1524 7.73438 92.8972 8.42188 93.4076 9.32812C93.9284 10.224 94.1888 11.3073 94.1888 12.5781V23H90.7357V12.7188ZM86.4857 23.2344C84.6211 23.2344 83.2253 22.8229 82.2982 22C81.3711 21.1667 80.9076 19.9062 80.9076 18.2188C80.9076 16.6146 81.3763 15.4115 82.3138 14.6094C83.2513 13.8073 84.6576 13.4062 86.5326 13.4062H90.8763L91.0951 16.3125H86.5482C85.8086 16.3125 85.2513 16.4688 84.8763 16.7812C84.5118 17.0938 84.3295 17.5729 84.3295 18.2188C84.3295 18.8958 84.5691 19.401 85.0482 19.7344C85.5274 20.0573 86.2513 20.2188 87.2201 20.2188C88.4076 20.2188 89.2878 20.0885 89.8607 19.8281C90.4441 19.5677 90.7357 19.1615 90.7357 18.6094L91.0638 20.9219C90.8868 21.4323 90.5743 21.8594 90.1263 22.2031C89.6888 22.5469 89.1576 22.8073 88.5326 22.9844C87.9076 23.151 87.2253 23.2344 86.4857 23.2344ZM104.314 29.5938C103.064 29.5938 101.944 29.3646 100.954 28.9062C99.9649 28.4583 99.1941 27.8229 98.642 27L101.158 24.7031C101.543 25.1927 102.007 25.5677 102.548 25.8281C103.1 26.0885 103.673 26.2188 104.267 26.2188C105.329 26.2188 106.168 25.9271 106.783 25.3438C107.397 24.7708 107.704 23.9583 107.704 22.9062V6.78125H111.439V22.5156C111.439 24.0052 111.158 25.2812 110.595 26.3438C110.043 27.4062 109.231 28.2135 108.158 28.7656C107.095 29.3177 105.814 29.5938 104.314 29.5938ZM103.783 23.2656C102.616 23.2656 101.616 23 100.783 22.4688C99.9597 21.9271 99.3295 21.151 98.892 20.1406C98.4649 19.1198 98.2513 17.8906 98.2513 16.4531V13.3594C98.2513 11.9219 98.4649 10.6927 98.892 9.67188C99.3191 8.64062 99.9388 7.85938 100.751 7.32812C101.574 6.78646 102.559 6.51562 103.704 6.51562C104.621 6.51562 105.454 6.77083 106.204 7.28125C106.965 7.79167 107.574 8.51042 108.033 9.4375L107.704 12.8906C107.704 12.2656 107.595 11.7344 107.376 11.2969C107.158 10.8594 106.84 10.526 106.423 10.2969C106.007 10.0677 105.501 9.95312 104.908 9.95312C103.981 9.95312 103.262 10.2552 102.751 10.8594C102.241 11.4635 101.986 12.3073 101.986 13.3906V16.4531C101.986 17.526 102.241 18.3594 102.751 18.9531C103.262 19.5365 103.981 19.8281 104.908 19.8281C105.501 19.8281 106.007 19.7135 106.423 19.4844C106.84 19.2448 107.158 18.9062 107.376 18.4688C107.595 18.0312 107.704 17.5052 107.704 16.8906L107.923 20.4531C107.6 21.2969 107.079 21.9792 106.361 22.5C105.652 23.0104 104.793 23.2656 103.783 23.2656ZM122.767 23.2344C121.236 23.2344 119.928 22.9531 118.845 22.3906C117.762 21.8281 116.934 21.0052 116.361 19.9219C115.788 18.8281 115.501 17.5104 115.501 15.9688V14.1406C115.501 12.5365 115.772 11.1667 116.314 10.0312C116.866 8.89583 117.663 8.03125 118.704 7.4375C119.757 6.84375 121.017 6.54688 122.486 6.54688C123.871 6.54688 125.053 6.89583 126.033 7.59375C127.022 8.28125 127.772 9.28125 128.283 10.5938C128.803 11.9062 129.064 13.4896 129.064 15.3438V16.4062H118.048V13.6719H125.595L125.579 13.5C125.475 12.3646 125.158 11.4844 124.626 10.8594C124.095 10.2344 123.382 9.92188 122.486 9.92188C121.361 9.92188 120.491 10.276 119.876 10.9844C119.262 11.6823 118.954 12.6771 118.954 13.9688V16.0312C118.954 17.2604 119.288 18.2083 119.954 18.875C120.621 19.5312 121.559 19.8594 122.767 19.8594C123.382 19.8594 123.986 19.7448 124.579 19.5156C125.184 19.276 125.725 18.9479 126.204 18.5312L128.642 20.8125C127.819 21.5833 126.892 22.1823 125.861 22.6094C124.84 23.026 123.809 23.2344 122.767 23.2344ZM133.126 6.78125H136.861V23H133.126V6.78125ZM142.736 13.1719C142.736 12.2031 142.475 11.4531 141.954 10.9219C141.434 10.3906 140.694 10.125 139.736 10.125C138.819 10.125 138.111 10.375 137.611 10.875C137.111 11.3646 136.861 12.0625 136.861 12.9688L136.533 9.60938C137.022 8.60938 137.637 7.84896 138.376 7.32812C139.126 6.80729 140.007 6.54688 141.017 6.54688C142.746 6.54688 144.085 7.125 145.033 8.28125C145.991 9.42708 146.47 11.0521 146.47 13.1562V23H142.736V13.1719ZM156.97 23.2344C156.001 23.2344 155.079 23.1458 154.204 22.9688C153.329 22.7812 152.507 22.5104 151.736 22.1562C150.975 21.8021 150.288 21.3698 149.673 20.8594L151.939 18.0469C152.762 18.6302 153.6 19.0729 154.454 19.375C155.319 19.6771 156.158 19.8281 156.97 19.8281C158.106 19.8281 158.965 19.6771 159.548 19.375C160.142 19.0625 160.439 18.6146 160.439 18.0312C160.439 17.5833 160.293 17.25 160.001 17.0312C159.71 16.8021 159.34 16.6458 158.892 16.5625C158.454 16.4792 157.835 16.401 157.033 16.3281C156.897 16.3177 156.757 16.3073 156.611 16.2969C156.465 16.2865 156.324 16.2708 156.189 16.25C156.147 16.25 156.106 16.25 156.064 16.25C156.022 16.2396 155.981 16.2344 155.939 16.2344C154.803 16.1094 153.871 15.9375 153.142 15.7188C152.413 15.4896 151.798 15.0573 151.298 14.4219C150.809 13.7865 150.564 12.875 150.564 11.6875C150.564 10.5729 150.809 9.63542 151.298 8.875C151.798 8.10417 152.527 7.52604 153.486 7.14062C154.444 6.74479 155.621 6.54688 157.017 6.54688C157.85 6.54688 158.663 6.63021 159.454 6.79688C160.246 6.95312 161.001 7.1875 161.72 7.5C162.449 7.80208 163.137 8.18229 163.783 8.64062L161.548 11.3594C160.788 10.901 160.017 10.5521 159.236 10.3125C158.465 10.0729 157.715 9.95312 156.986 9.95312C156.007 9.95312 155.262 10.0938 154.751 10.375C154.241 10.6562 153.986 11.0729 153.986 11.625C153.986 11.9792 154.126 12.25 154.408 12.4375C154.689 12.625 155.038 12.7552 155.454 12.8281C155.882 12.8906 156.496 12.9583 157.298 13.0312C157.382 13.0417 157.46 13.0521 157.533 13.0625C157.616 13.0625 157.699 13.0677 157.783 13.0781C157.814 13.0781 157.85 13.0781 157.892 13.0781C157.934 13.0781 157.975 13.0833 158.017 13.0938C159.215 13.2083 160.21 13.3802 161.001 13.6094C161.793 13.8385 162.465 14.2969 163.017 14.9844C163.569 15.6615 163.845 16.651 163.845 17.9531C163.845 19.099 163.585 20.0677 163.064 20.8594C162.543 21.6406 161.767 22.2344 160.736 22.6406C159.715 23.0365 158.46 23.2344 156.97 23.2344ZM187.001 13.0781V16.6406H176.189V13.0781H187.001ZM202.314 19.4688H209.017C210.319 19.4688 211.288 19.1979 211.923 18.6562C212.559 18.1042 212.876 17.3385 212.876 16.3594V16.3125C212.876 15.6354 212.751 15.0573 212.501 14.5781C212.251 14.099 211.866 13.7344 211.345 13.4844C210.824 13.224 210.178 13.0938 209.408 13.0938H202.314V9.59375H209.408C210.439 9.59375 211.225 9.34375 211.767 8.84375C212.309 8.34375 212.579 7.61979 212.579 6.67188C212.579 5.73438 212.293 5.02604 211.72 4.54688C211.147 4.05729 210.303 3.8125 209.189 3.8125H202.314V0.28125H209.548C211.017 0.28125 212.257 0.53125 213.267 1.03125C214.288 1.52083 215.053 2.22396 215.564 3.14062C216.085 4.05729 216.345 5.15625 216.345 6.4375C216.345 7.27083 216.178 8.03125 215.845 8.71875C215.522 9.39583 215.038 9.96354 214.392 10.4219C213.757 10.8802 212.975 11.1927 212.048 11.3594C213.007 11.4948 213.829 11.8125 214.517 12.3125C215.204 12.8021 215.731 13.4323 216.095 14.2031C216.46 14.9635 216.642 15.8177 216.642 16.7656V16.8125C216.642 18.0729 216.366 19.1719 215.814 20.1094C215.272 21.0365 214.486 21.75 213.454 22.25C212.434 22.75 211.22 23 209.814 23H202.314V19.4688ZM200.439 0.28125H204.158V23H200.439V0.28125ZM229.829 12.7188C229.829 11.8125 229.559 11.1094 229.017 10.6094C228.486 10.1094 227.731 9.85938 226.751 9.85938C226.126 9.85938 225.512 9.95833 224.908 10.1562C224.303 10.3542 223.762 10.6302 223.283 10.9844L220.798 8.89062C221.434 8.15104 222.267 7.57812 223.298 7.17188C224.329 6.75521 225.475 6.54688 226.736 6.54688C228.111 6.54688 229.288 6.78646 230.267 7.26562C231.246 7.73438 231.991 8.42188 232.501 9.32812C233.022 10.224 233.283 11.3073 233.283 12.5781V23H229.829V12.7188ZM225.579 23.2344C223.715 23.2344 222.319 22.8229 221.392 22C220.465 21.1667 220.001 19.9062 220.001 18.2188C220.001 16.6146 220.47 15.4115 221.408 14.6094C222.345 13.8073 223.751 13.4062 225.626 13.4062H229.97L230.189 16.3125H225.642C224.902 16.3125 224.345 16.4688 223.97 16.7812C223.606 17.0938 223.423 17.5729 223.423 18.2188C223.423 18.8958 223.663 19.401 224.142 19.7344C224.621 20.0573 225.345 20.2188 226.314 20.2188C227.501 20.2188 228.382 20.0885 228.954 19.8281C229.538 19.5677 229.829 19.1615 229.829 18.6094L230.158 20.9219C229.981 21.4323 229.668 21.8594 229.22 22.2031C228.783 22.5469 228.251 22.8073 227.626 22.9844C227.001 23.151 226.319 23.2344 225.579 23.2344ZM244.517 23.2344C243.007 23.2344 241.715 22.9531 240.642 22.3906C239.569 21.8177 238.751 20.9896 238.189 19.9062C237.626 18.8125 237.345 17.4948 237.345 15.9531V13.75C237.345 12.2292 237.626 10.9323 238.189 9.85938C238.751 8.77604 239.569 7.95312 240.642 7.39062C241.715 6.82812 243.007 6.54688 244.517 6.54688C245.382 6.54688 246.194 6.65104 246.954 6.85938C247.725 7.05729 248.413 7.34896 249.017 7.73438C249.632 8.11979 250.142 8.58854 250.548 9.14062L248.017 11.5156C247.59 11.0677 247.09 10.724 246.517 10.4844C245.944 10.2448 245.345 10.125 244.72 10.125C243.564 10.125 242.668 10.4427 242.033 11.0781C241.397 11.7031 241.079 12.5938 241.079 13.75V15.9531C241.079 17.1406 241.392 18.0573 242.017 18.7031C242.652 19.3385 243.553 19.6562 244.72 19.6562C245.356 19.6562 245.96 19.526 246.533 19.2656C247.106 19.0052 247.6 18.6354 248.017 18.1562L250.548 20.6875C250.132 21.2292 249.616 21.6927 249.001 22.0781C248.397 22.4531 247.71 22.7396 246.939 22.9375C246.178 23.1354 245.371 23.2344 244.517 23.2344ZM255.439 17L263.392 6.78125H267.533L255.626 21.25L255.439 17ZM253.751 0.28125H257.486V23H253.751V0.28125ZM259.236 14.125L262.033 12L268.329 23H264.126L259.236 14.125ZM281.501 13.0781V16.6406H270.689V13.0781H281.501ZM292.829 23.2344C291.298 23.2344 289.991 22.9531 288.908 22.3906C287.824 21.8281 286.996 21.0052 286.423 19.9219C285.85 18.8281 285.564 17.5104 285.564 15.9688V14.1406C285.564 12.5365 285.835 11.1667 286.376 10.0312C286.928 8.89583 287.725 8.03125 288.767 7.4375C289.819 6.84375 291.079 6.54688 292.548 6.54688C293.934 6.54688 295.116 6.89583 296.095 7.59375C297.085 8.28125 297.835 9.28125 298.345 10.5938C298.866 11.9062 299.126 13.4896 299.126 15.3438V16.4062H288.111V13.6719H295.658L295.642 13.5C295.538 12.3646 295.22 11.4844 294.689 10.8594C294.158 10.2344 293.444 9.92188 292.548 9.92188C291.423 9.92188 290.553 10.276 289.939 10.9844C289.324 11.6823 289.017 12.6771 289.017 13.9688V16.0312C289.017 17.2604 289.35 18.2083 290.017 18.875C290.684 19.5312 291.621 19.8594 292.829 19.8594C293.444 19.8594 294.048 19.7448 294.642 19.5156C295.246 19.276 295.788 18.9479 296.267 18.5312L298.704 20.8125C297.882 21.5833 296.954 22.1823 295.923 22.6094C294.902 23.026 293.871 23.2344 292.829 23.2344ZM303.189 6.78125H306.923V23H303.189V6.78125ZM312.798 13.1719C312.798 12.2031 312.538 11.4531 312.017 10.9219C311.496 10.3906 310.757 10.125 309.798 10.125C308.882 10.125 308.173 10.375 307.673 10.875C307.173 11.3646 306.923 12.0625 306.923 12.9688L306.595 9.60938C307.085 8.60938 307.699 7.84896 308.439 7.32812C309.189 6.80729 310.069 6.54688 311.079 6.54688C312.809 6.54688 314.147 7.125 315.095 8.28125C316.053 9.42708 316.533 11.0521 316.533 13.1562V23H312.798V13.1719ZM330.048 0.28125H333.783V23H330.048V0.28125ZM326.126 23.2656C324.96 23.2656 323.96 23 323.126 22.4688C322.303 21.9271 321.673 21.151 321.236 20.1406C320.809 19.1198 320.595 17.8906 320.595 16.4531V13.3594C320.595 11.9219 320.809 10.6927 321.236 9.67188C321.663 8.64062 322.283 7.85938 323.095 7.32812C323.918 6.78646 324.902 6.51562 326.048 6.51562C326.965 6.51562 327.798 6.77083 328.548 7.28125C329.309 7.79167 329.918 8.51042 330.376 9.4375L330.048 12.8906C330.048 12.2656 329.939 11.7344 329.72 11.2969C329.501 10.8594 329.184 10.526 328.767 10.2969C328.35 10.0677 327.845 9.95312 327.251 9.95312C326.324 9.95312 325.606 10.2552 325.095 10.8594C324.585 11.4635 324.329 12.3073 324.329 13.3906V16.4531C324.329 17.526 324.585 18.3594 325.095 18.9531C325.606 19.5365 326.324 19.8281 327.251 19.8281C327.845 19.8281 328.35 19.7135 328.767 19.4844C329.184 19.2448 329.501 18.9062 329.72 18.4688C329.939 18.0312 330.048 17.5052 330.048 16.8906L330.267 20.4531C329.944 21.2969 329.423 21.9792 328.704 22.5C327.996 23.0104 327.137 23.2656 326.126 23.2656Z" fill="#F1F5F9"/>
<path d="M347.752 11.3637V11.6363C349.331 11.8068 350.104 12.6644 350.104 14.3112V17.3154C350.104 19.1444 350.717 19.8867 352.232 19.8867H352.661V21.5H352.07C349.537 21.5 348.343 20.2311 348.343 17.5679V15.02C348.343 13.191 347.752 12.5858 346.001 12.5858V10.4142C347.752 10.4142 348.343 9.80895 348.343 7.97998V5.43213C348.343 2.76891 349.535 1.5 352.07 1.5H352.661V3.11164H352.232C350.717 3.11164 350.104 3.85393 350.104 5.6829V8.68883C350.104 10.3339 349.331 11.1916 347.752 11.3637ZM366.251 11.6363V11.3637C364.671 11.1916 363.898 10.3339 363.898 8.68883V5.6829C363.898 3.85393 363.285 3.11164 361.771 3.11164H361.342V1.5H361.932C364.467 1.5 365.66 2.76891 365.66 5.43213V7.97998C365.66 9.80895 366.251 10.4142 368.001 10.4142V12.5858C366.251 12.5858 365.66 13.191 365.66 15.02V17.5679C365.66 20.2311 364.466 21.5 361.932 21.5H361.342V19.8884H361.771C363.285 19.8884 363.898 19.1461 363.898 17.3171V14.3112C363.898 12.6661 364.671 11.8085 366.251 11.6363Z" fill="#F1F5F9"/>
</svg>
