<svg width="391" height="30" viewBox="0 0 391 30" fill="none" xmlns="http://www.w3.org/2000/svg">
<path d="M2.65759 0.28125H6.39197V23H2.65759V0.28125ZM4.40759 19.4219H17.5638V23H4.40759V19.4219ZM29.7357 12.7188C29.7357 11.8125 29.4649 11.1094 28.9232 10.6094C28.392 10.1094 27.6368 9.85938 26.6576 9.85938C26.0326 9.85938 25.418 9.95833 24.8138 10.1562C24.2097 10.3542 23.668 10.6302 23.1888 10.9844L20.7045 8.89062C21.3399 8.15104 22.1732 7.57812 23.2045 7.17188C24.2357 6.75521 25.3816 6.54688 26.642 6.54688C28.017 6.54688 29.1941 6.78646 30.1732 7.26562C31.1524 7.73438 31.8972 8.42188 32.4076 9.32812C32.9284 10.224 33.1888 11.3073 33.1888 12.5781V23H29.7357V12.7188ZM25.4857 23.2344C23.6211 23.2344 22.2253 22.8229 21.2982 22C20.3711 21.1667 19.9076 19.9062 19.9076 18.2188C19.9076 16.6146 20.3763 15.4115 21.3138 14.6094C22.2513 13.8073 23.6576 13.4062 25.5326 13.4062H29.8763L30.0951 16.3125H25.5482C24.8086 16.3125 24.2513 16.4688 23.8763 16.7812C23.5118 17.0938 23.3295 17.5729 23.3295 18.2188C23.3295 18.8958 23.5691 19.401 24.0482 19.7344C24.5274 20.0573 25.2513 20.2188 26.2201 20.2188C27.4076 20.2188 28.2878 20.0885 28.8607 19.8281C29.4441 19.5677 29.7357 19.1615 29.7357 18.6094L30.0638 20.9219C29.8868 21.4323 29.5743 21.8594 29.1263 22.2031C28.6888 22.5469 28.1576 22.8073 27.5326 22.9844C26.9076 23.151 26.2253 23.2344 25.4857 23.2344ZM50.2045 6.78125L43.142 26.7969C42.8816 27.5365 42.5482 28.1198 42.142 28.5469C41.7461 28.9844 41.2513 29.2969 40.6576 29.4844C40.0638 29.6719 39.3347 29.7656 38.4701 29.7656H37.6732V26.1562H38.4701C39.0013 26.1562 39.4284 26.0469 39.7513 25.8281C40.0847 25.6094 40.3555 25.2396 40.5638 24.7188L46.5638 6.78125H50.2045ZM35.5326 6.78125H39.1732L44.392 20.875L42.1576 24.3281L35.5326 6.78125ZM58.7826 23.2344C57.3451 23.2344 56.1107 22.9583 55.0795 22.4062C54.0586 21.8542 53.2774 21.0521 52.7357 20C52.2045 18.9375 51.9388 17.6615 51.9388 16.1719V13.5312C51.9388 12.0625 52.2045 10.8073 52.7357 9.76562C53.2774 8.71354 54.0586 7.91667 55.0795 7.375C56.1107 6.82292 57.3451 6.54688 58.7826 6.54688C60.2201 6.54688 61.4493 6.82292 62.4701 7.375C63.5013 7.91667 64.2826 8.71354 64.8138 9.76562C65.3555 10.8073 65.6263 12.0625 65.6263 13.5312V16.2188C65.6263 17.6979 65.3555 18.9635 64.8138 20.0156C64.2826 21.0573 63.5013 21.8542 62.4701 22.4062C61.4493 22.9583 60.2201 23.2344 58.7826 23.2344ZM58.7826 19.6562C59.7722 19.6562 60.5378 19.3594 61.0795 18.7656C61.6211 18.1615 61.892 17.3125 61.892 16.2188V13.5312C61.892 12.4479 61.6211 11.6094 61.0795 11.0156C60.5378 10.4219 59.7722 10.125 58.7826 10.125C57.793 10.125 57.0274 10.4219 56.4857 11.0156C55.9441 11.6094 55.6732 12.4479 55.6732 13.5312V16.2188C55.6732 17.3125 55.9388 18.1615 56.4701 18.7656C57.0118 19.3594 57.7826 19.6562 58.7826 19.6562ZM78.9857 6.78125H82.7045V23H78.9857V6.78125ZM73.1732 16.6406C73.1732 17.599 73.4284 18.3438 73.9388 18.875C74.4493 19.3958 75.168 19.6562 76.0951 19.6562C77.0222 19.6562 77.7357 19.4115 78.2357 18.9219C78.7357 18.4219 78.9857 17.7083 78.9857 16.7812L79.2045 20.25C78.892 21.0938 78.3711 21.8021 77.642 22.375C76.9128 22.9479 76.0222 23.2344 74.9701 23.2344C73.2097 23.2344 71.8451 22.6667 70.8763 21.5312C69.918 20.3958 69.4388 18.7917 69.4388 16.7188V6.78125H73.1732V16.6406ZM91.6263 23.0781C90.2618 23.0781 89.2618 22.7188 88.6263 22C87.9909 21.2708 87.6732 20.1979 87.6732 18.7812V2.0625H91.4076V18.2656C91.4076 18.6615 91.4857 18.9688 91.642 19.1875C91.7982 19.3958 92.0274 19.5 92.3295 19.5H93.6263V23.0781H91.6263ZM86.0013 6.78125H93.6263V10.0469H86.0013V6.78125ZM108.751 19.4219H114.048C115.59 19.4219 116.783 19.0365 117.626 18.2656C118.481 17.4948 118.908 16.401 118.908 14.9844V8.29688C118.908 6.88021 118.481 5.78646 117.626 5.01562C116.783 4.24479 115.59 3.85938 114.048 3.85938H108.751V0.28125H113.954C115.809 0.28125 117.392 0.598958 118.704 1.23438C120.027 1.86979 121.033 2.79688 121.72 4.01562C122.408 5.23438 122.751 6.70312 122.751 8.42188V14.8594C122.751 16.5365 122.413 17.9844 121.736 19.2031C121.059 20.4219 120.059 21.3594 118.736 22.0156C117.423 22.6719 115.824 23 113.939 23H108.751V19.4219ZM106.595 0.28125H110.329V23H106.595V0.28125ZM136.329 12.7188C136.329 11.8125 136.059 11.1094 135.517 10.6094C134.986 10.1094 134.231 9.85938 133.251 9.85938C132.626 9.85938 132.012 9.95833 131.408 10.1562C130.803 10.3542 130.262 10.6302 129.783 10.9844L127.298 8.89062C127.934 8.15104 128.767 7.57812 129.798 7.17188C130.829 6.75521 131.975 6.54688 133.236 6.54688C134.611 6.54688 135.788 6.78646 136.767 7.26562C137.746 7.73438 138.491 8.42188 139.001 9.32812C139.522 10.224 139.783 11.3073 139.783 12.5781V23H136.329V12.7188ZM132.079 23.2344C130.215 23.2344 128.819 22.8229 127.892 22C126.965 21.1667 126.501 19.9062 126.501 18.2188C126.501 16.6146 126.97 15.4115 127.908 14.6094C128.845 13.8073 130.251 13.4062 132.126 13.4062H136.47L136.689 16.3125H132.142C131.402 16.3125 130.845 16.4688 130.47 16.7812C130.106 17.0938 129.923 17.5729 129.923 18.2188C129.923 18.8958 130.163 19.401 130.642 19.7344C131.121 20.0573 131.845 20.2188 132.814 20.2188C134.001 20.2188 134.882 20.0885 135.454 19.8281C136.038 19.5677 136.329 19.1615 136.329 18.6094L136.658 20.9219C136.481 21.4323 136.168 21.8594 135.72 22.2031C135.283 22.5469 134.751 22.8073 134.126 22.9844C133.501 23.151 132.819 23.2344 132.079 23.2344ZM153.22 0.28125H156.954V23H153.22V0.28125ZM154.97 19.4219H168.126V23H154.97V19.4219ZM177.626 23.2344C176.189 23.2344 174.954 22.9583 173.923 22.4062C172.902 21.8542 172.121 21.0521 171.579 20C171.048 18.9375 170.783 17.6615 170.783 16.1719V13.5312C170.783 12.0625 171.048 10.8073 171.579 9.76562C172.121 8.71354 172.902 7.91667 173.923 7.375C174.954 6.82292 176.189 6.54688 177.626 6.54688C179.064 6.54688 180.293 6.82292 181.314 7.375C182.345 7.91667 183.126 8.71354 183.658 9.76562C184.199 10.8073 184.47 12.0625 184.47 13.5312V16.2188C184.47 17.6979 184.199 18.9635 183.658 20.0156C183.126 21.0573 182.345 21.8542 181.314 22.4062C180.293 22.9583 179.064 23.2344 177.626 23.2344ZM177.626 19.6562C178.616 19.6562 179.382 19.3594 179.923 18.7656C180.465 18.1615 180.736 17.3125 180.736 16.2188V13.5312C180.736 12.4479 180.465 11.6094 179.923 11.0156C179.382 10.4219 178.616 10.125 177.626 10.125C176.637 10.125 175.871 10.4219 175.329 11.0156C174.788 11.6094 174.517 12.4479 174.517 13.5312V16.2188C174.517 17.3125 174.783 18.1615 175.314 18.7656C175.856 19.3594 176.626 19.6562 177.626 19.6562ZM197.829 6.78125H201.548V23H197.829V6.78125ZM192.017 16.6406C192.017 17.599 192.272 18.3438 192.783 18.875C193.293 19.3958 194.012 19.6562 194.939 19.6562C195.866 19.6562 196.579 19.4115 197.079 18.9219C197.579 18.4219 197.829 17.7083 197.829 16.7812L198.048 20.25C197.736 21.0938 197.215 21.8021 196.486 22.375C195.757 22.9479 194.866 23.2344 193.814 23.2344C192.053 23.2344 190.689 22.6667 189.72 21.5312C188.762 20.3958 188.283 18.7917 188.283 16.7188V6.78125H192.017V16.6406ZM206.095 6.78125H209.829V23H206.095V6.78125ZM215.704 13.1719C215.704 12.2031 215.444 11.4531 214.923 10.9219C214.402 10.3906 213.663 10.125 212.704 10.125C211.788 10.125 211.079 10.375 210.579 10.875C210.079 11.3646 209.829 12.0625 209.829 12.9688L209.501 9.60938C209.991 8.60938 210.606 7.84896 211.345 7.32812C212.095 6.80729 212.975 6.54688 213.986 6.54688C215.715 6.54688 217.053 7.125 218.001 8.28125C218.96 9.42708 219.439 11.0521 219.439 13.1562V23H215.704V13.1719ZM233.017 12.7188C233.017 11.8125 232.746 11.1094 232.204 10.6094C231.673 10.1094 230.918 9.85938 229.939 9.85938C229.314 9.85938 228.699 9.95833 228.095 10.1562C227.491 10.3542 226.949 10.6302 226.47 10.9844L223.986 8.89062C224.621 8.15104 225.454 7.57812 226.486 7.17188C227.517 6.75521 228.663 6.54688 229.923 6.54688C231.298 6.54688 232.475 6.78646 233.454 7.26562C234.434 7.73438 235.178 8.42188 235.689 9.32812C236.21 10.224 236.47 11.3073 236.47 12.5781V23H233.017V12.7188ZM228.767 23.2344C226.902 23.2344 225.507 22.8229 224.579 22C223.652 21.1667 223.189 19.9062 223.189 18.2188C223.189 16.6146 223.658 15.4115 224.595 14.6094C225.533 13.8073 226.939 13.4062 228.814 13.4062H233.158L233.376 16.3125H228.829C228.09 16.3125 227.533 16.4688 227.158 16.7812C226.793 17.0938 226.611 17.5729 226.611 18.2188C226.611 18.8958 226.85 19.401 227.329 19.7344C227.809 20.0573 228.533 20.2188 229.501 20.2188C230.689 20.2188 231.569 20.0885 232.142 19.8281C232.725 19.5677 233.017 19.1615 233.017 18.6094L233.345 20.9219C233.168 21.4323 232.856 21.8594 232.408 22.2031C231.97 22.5469 231.439 22.8073 230.814 22.9844C230.189 23.151 229.507 23.2344 228.767 23.2344ZM256.892 23.2344C255.798 23.2344 254.746 23.1302 253.736 22.9219C252.736 22.7031 251.793 22.3854 250.908 21.9688C250.033 21.5521 249.231 21.0365 248.501 20.4219L250.486 17.4375C251.361 18.1771 252.34 18.7396 253.423 19.125C254.517 19.5 255.673 19.6875 256.892 19.6875C258.413 19.6875 259.59 19.4167 260.423 18.875C261.267 18.3333 261.689 17.5677 261.689 16.5781V16.5625C261.689 15.8646 261.501 15.3125 261.126 14.9062C260.751 14.4896 260.262 14.1875 259.658 14C259.053 13.8021 258.277 13.6198 257.329 13.4531C257.298 13.4427 257.267 13.4375 257.236 13.4375C257.204 13.4375 257.173 13.4323 257.142 13.4219L256.861 13.375C255.34 13.125 254.09 12.8281 253.111 12.4844C252.132 12.1406 251.298 11.526 250.611 10.6406C249.923 9.75521 249.579 8.5 249.579 6.875V6.85938C249.579 5.42188 249.902 4.19271 250.548 3.17188C251.194 2.15104 252.132 1.375 253.361 0.84375C254.59 0.3125 256.069 0.046875 257.798 0.046875C258.611 0.046875 259.423 0.140625 260.236 0.328125C261.059 0.505208 261.861 0.770833 262.642 1.125C263.434 1.46875 264.199 1.90104 264.939 2.42188L263.126 5.5C262.251 4.875 261.361 4.40104 260.454 4.07812C259.548 3.75521 258.663 3.59375 257.798 3.59375C256.361 3.59375 255.246 3.85938 254.454 4.39062C253.673 4.91146 253.283 5.65104 253.283 6.60938V6.625C253.283 7.34375 253.486 7.91146 253.892 8.32812C254.298 8.74479 254.803 9.05208 255.408 9.25C256.022 9.4375 256.876 9.64062 257.97 9.85938C258.012 9.86979 258.048 9.88021 258.079 9.89062C258.121 9.89062 258.163 9.89583 258.204 9.90625C258.257 9.91667 258.314 9.92708 258.376 9.9375C258.439 9.94792 258.496 9.95833 258.548 9.96875C259.954 10.25 261.126 10.5885 262.064 10.9844C263.012 11.3802 263.803 12.0156 264.439 12.8906C265.074 13.7656 265.392 14.9583 265.392 16.4688V16.5C265.392 17.9167 265.059 19.1302 264.392 20.1406C263.725 21.151 262.757 21.9219 261.486 22.4531C260.215 22.974 258.684 23.2344 256.892 23.2344ZM271.001 17L278.954 6.78125H283.095L271.189 21.25L271.001 17ZM269.314 0.28125H273.048V23H269.314V0.28125ZM274.798 14.125L277.595 12L283.892 23H279.689L274.798 14.125ZM298.736 6.78125L291.673 26.7969C291.413 27.5365 291.079 28.1198 290.673 28.5469C290.277 28.9844 289.783 29.2969 289.189 29.4844C288.595 29.6719 287.866 29.7656 287.001 29.7656H286.204V26.1562H287.001C287.533 26.1562 287.96 26.0469 288.283 25.8281C288.616 25.6094 288.887 25.2396 289.095 24.7188L295.095 6.78125H298.736ZM284.064 6.78125H287.704L292.923 20.875L290.689 24.3281L284.064 6.78125ZM304.986 18.2344C304.986 18.6302 305.085 18.9375 305.283 19.1562C305.481 19.3646 305.762 19.4688 306.126 19.4688H307.236V23.0469H305.204C303.954 23.0469 302.981 22.6719 302.283 21.9219C301.595 21.1719 301.251 20.1146 301.251 18.75V0.28125H304.986V18.2344ZM319.423 12.7188C319.423 11.8125 319.152 11.1094 318.611 10.6094C318.079 10.1094 317.324 9.85938 316.345 9.85938C315.72 9.85938 315.106 9.95833 314.501 10.1562C313.897 10.3542 313.356 10.6302 312.876 10.9844L310.392 8.89062C311.027 8.15104 311.861 7.57812 312.892 7.17188C313.923 6.75521 315.069 6.54688 316.329 6.54688C317.704 6.54688 318.882 6.78646 319.861 7.26562C320.84 7.73438 321.585 8.42188 322.095 9.32812C322.616 10.224 322.876 11.3073 322.876 12.5781V23H319.423V12.7188ZM315.173 23.2344C313.309 23.2344 311.913 22.8229 310.986 22C310.059 21.1667 309.595 19.9062 309.595 18.2188C309.595 16.6146 310.064 15.4115 311.001 14.6094C311.939 13.8073 313.345 13.4062 315.22 13.4062H319.564L319.783 16.3125H315.236C314.496 16.3125 313.939 16.4688 313.564 16.7812C313.199 17.0938 313.017 17.5729 313.017 18.2188C313.017 18.8958 313.257 19.401 313.736 19.7344C314.215 20.0573 314.939 20.2188 315.908 20.2188C317.095 20.2188 317.975 20.0885 318.548 19.8281C319.132 19.5677 319.423 19.1615 319.423 18.6094L319.751 20.9219C319.574 21.4323 319.262 21.8594 318.814 22.2031C318.376 22.5469 317.845 22.8073 317.22 22.9844C316.595 23.151 315.913 23.2344 315.173 23.2344ZM327.408 6.78125H331.142V23H327.408V6.78125ZM337.017 13.1719C337.017 12.2031 336.757 11.4531 336.236 10.9219C335.715 10.3906 334.975 10.125 334.017 10.125C333.1 10.125 332.392 10.375 331.892 10.875C331.392 11.3646 331.142 12.0625 331.142 12.9688L330.814 9.60938C331.303 8.60938 331.918 7.84896 332.658 7.32812C333.408 6.80729 334.288 6.54688 335.298 6.54688C337.027 6.54688 338.366 7.125 339.314 8.28125C340.272 9.42708 340.751 11.0521 340.751 13.1562V23H337.017V13.1719ZM354.267 0.28125H358.001V23H354.267V0.28125ZM350.345 23.2656C349.178 23.2656 348.178 23 347.345 22.4688C346.522 21.9271 345.892 21.151 345.454 20.1406C345.027 19.1198 344.814 17.8906 344.814 16.4531V13.3594C344.814 11.9219 345.027 10.6927 345.454 9.67188C345.882 8.64062 346.501 7.85938 347.314 7.32812C348.137 6.78646 349.121 6.51562 350.267 6.51562C351.184 6.51562 352.017 6.77083 352.767 7.28125C353.527 7.79167 354.137 8.51042 354.595 9.4375L354.267 12.8906C354.267 12.2656 354.158 11.7344 353.939 11.2969C353.72 10.8594 353.402 10.526 352.986 10.2969C352.569 10.0677 352.064 9.95312 351.47 9.95312C350.543 9.95312 349.824 10.2552 349.314 10.8594C348.803 11.4635 348.548 12.3073 348.548 13.3906V16.4531C348.548 17.526 348.803 18.3594 349.314 18.9531C349.824 19.5365 350.543 19.8281 351.47 19.8281C352.064 19.8281 352.569 19.7135 352.986 19.4844C353.402 19.2448 353.72 18.9062 353.939 18.4688C354.158 18.0312 354.267 17.5052 354.267 16.8906L354.486 20.4531C354.163 21.2969 353.642 21.9792 352.923 22.5C352.215 23.0104 351.356 23.2656 350.345 23.2656ZM369.329 23.2344C367.798 23.2344 366.491 22.9531 365.408 22.3906C364.324 21.8281 363.496 21.0052 362.923 19.9219C362.35 18.8281 362.064 17.5104 362.064 15.9688V14.1406C362.064 12.5365 362.335 11.1667 362.876 10.0312C363.428 8.89583 364.225 8.03125 365.267 7.4375C366.319 6.84375 367.579 6.54688 369.048 6.54688C370.434 6.54688 371.616 6.89583 372.595 7.59375C373.585 8.28125 374.335 9.28125 374.845 10.5938C375.366 11.9062 375.626 13.4896 375.626 15.3438V16.4062H364.611V13.6719H372.158L372.142 13.5C372.038 12.3646 371.72 11.4844 371.189 10.8594C370.658 10.2344 369.944 9.92188 369.048 9.92188C367.923 9.92188 367.053 10.276 366.439 10.9844C365.824 11.6823 365.517 12.6771 365.517 13.9688V16.0312C365.517 17.2604 365.85 18.2083 366.517 18.875C367.184 19.5312 368.121 19.8594 369.329 19.8594C369.944 19.8594 370.548 19.7448 371.142 19.5156C371.746 19.276 372.288 18.9479 372.767 18.5312L375.204 20.8125C374.382 21.5833 373.454 22.1823 372.423 22.6094C371.402 23.026 370.371 23.2344 369.329 23.2344ZM379.689 6.78125H383.579V23H379.689V6.78125ZM388.72 10.9531C388.47 10.6823 388.163 10.4792 387.798 10.3438C387.434 10.1979 387.012 10.125 386.533 10.125C385.595 10.125 384.866 10.4062 384.345 10.9688C383.835 11.5208 383.579 12.2917 383.579 13.2812L383.251 9.60938C383.72 8.64062 384.329 7.89062 385.079 7.35938C385.84 6.81771 386.673 6.54688 387.579 6.54688C388.288 6.54688 388.928 6.65625 389.501 6.875C390.074 7.08333 390.574 7.39583 391.001 7.8125L388.72 10.9531Z" fill="#F1F5F9"/>
</svg>
