<svg width="116" height="20" viewBox="0 0 116 20" fill="none" xmlns="http://www.w3.org/2000/svg">
<path d="M13.6342 1.46094H16.8685V18.5H14.2435V5.50391L14.3607 6.25391L10.6342 16.3672H8.38416L4.65759 6.48828L4.77478 5.50391V18.5H2.14978V1.46094H5.38416L9.50916 12.8281L13.6342 1.46094ZM25.3998 18.6758C24.3217 18.6758 23.3959 18.4688 22.6224 18.0547C21.8568 17.6406 21.2709 17.0391 20.8646 16.25C20.4662 15.4531 20.267 14.4961 20.267 13.3789V11.3984C20.267 10.2969 20.4662 9.35547 20.8646 8.57422C21.2709 7.78516 21.8568 7.1875 22.6224 6.78125C23.3959 6.36719 24.3217 6.16016 25.3998 6.16016C26.4779 6.16016 27.3998 6.36719 28.1654 6.78125C28.9388 7.1875 29.5248 7.78516 29.9232 8.57422C30.3295 9.35547 30.5326 10.2969 30.5326 11.3984V13.4141C30.5326 14.5234 30.3295 15.4727 29.9232 16.2617C29.5248 17.043 28.9388 17.6406 28.1654 18.0547C27.3998 18.4688 26.4779 18.6758 25.3998 18.6758ZM25.3998 15.9922C26.142 15.9922 26.7162 15.7695 27.1224 15.3242C27.5287 14.8711 27.7318 14.2344 27.7318 13.4141V11.3984C27.7318 10.5859 27.5287 9.95703 27.1224 9.51172C26.7162 9.06641 26.142 8.84375 25.3998 8.84375C24.6576 8.84375 24.0834 9.06641 23.6771 9.51172C23.2709 9.95703 23.0677 10.5859 23.0677 11.3984V13.4141C23.0677 14.2344 23.267 14.8711 23.6654 15.3242C24.0717 15.7695 24.6498 15.9922 25.3998 15.9922ZM39.4388 18.6758C38.7045 18.6758 38.0677 18.4961 37.5287 18.1367C36.9896 17.7695 36.5912 17.2539 36.3334 16.5898L36.4974 13.9297C36.4974 14.3906 36.5795 14.7852 36.7435 15.1133C36.9076 15.4336 37.1459 15.6797 37.4584 15.8516C37.7709 16.0234 38.1498 16.1094 38.5951 16.1094C39.2904 16.1094 39.8295 15.8906 40.2123 15.4531C40.5951 15.0156 40.7865 14.3945 40.7865 13.5898V11.3047C40.7865 10.4844 40.5951 9.85156 40.2123 9.40625C39.8295 8.95312 39.2904 8.72656 38.5951 8.72656C38.1498 8.72656 37.7709 8.8125 37.4584 8.98438C37.1459 9.14844 36.9076 9.39453 36.7435 9.72266C36.5795 10.0508 36.4974 10.4453 36.4974 10.9062L36.2513 8.38672C36.5951 7.67578 37.0482 7.12891 37.6107 6.74609C38.181 6.35547 38.8099 6.16016 39.4974 6.16016C40.3568 6.16016 41.0912 6.35938 41.7006 6.75781C42.3177 7.15625 42.7865 7.74219 43.1068 8.51562C43.4271 9.28125 43.5873 10.207 43.5873 11.293V13.5898C43.5873 14.6602 43.4232 15.5781 43.0951 16.3438C42.7748 17.1016 42.3021 17.6797 41.6771 18.0781C41.0521 18.4766 40.306 18.6758 39.4388 18.6758ZM33.6967 1.46094H36.4974V18.5H33.6967V1.46094ZM46.6693 1.46094H49.4584V4.26172H46.6693V1.46094ZM46.6693 6.33594H49.4584V18.5H46.6693V6.33594ZM55.5756 14.9258C55.5756 15.2227 55.6498 15.4531 55.7982 15.6172C55.9467 15.7734 56.1576 15.8516 56.431 15.8516H57.2631V18.5352H55.7396C54.8021 18.5352 54.0717 18.2539 53.5482 17.6914C53.0326 17.1289 52.7748 16.3359 52.7748 15.3125V1.46094H55.5756V14.9258ZM64.8334 18.6758C63.6849 18.6758 62.7045 18.4648 61.892 18.043C61.0795 17.6211 60.4584 17.0039 60.0287 16.1914C59.599 15.3711 59.3842 14.3828 59.3842 13.2266V11.8555C59.3842 10.6523 59.5873 9.625 59.9935 8.77344C60.4076 7.92188 61.0052 7.27344 61.7865 6.82812C62.5756 6.38281 63.5209 6.16016 64.6224 6.16016C65.6615 6.16016 66.5482 6.42187 67.2826 6.94531C68.0248 7.46094 68.5873 8.21094 68.9701 9.19531C69.3607 10.1797 69.556 11.3672 69.556 12.7578V13.5547H61.2943V11.5039H66.9545L66.9427 11.375C66.8646 10.5234 66.6263 9.86328 66.2279 9.39453C65.8295 8.92578 65.2943 8.69141 64.6224 8.69141C63.7787 8.69141 63.1263 8.95703 62.6654 9.48828C62.2045 10.0117 61.974 10.7578 61.974 11.7266V13.2734C61.974 14.1953 62.224 14.9062 62.724 15.4062C63.224 15.8984 63.9271 16.1445 64.8334 16.1445C65.2943 16.1445 65.7474 16.0586 66.1927 15.8867C66.6459 15.707 67.0521 15.4609 67.4115 15.1484L69.2396 16.8594C68.6224 17.4375 67.9271 17.8867 67.1537 18.207C66.3881 18.5195 65.6146 18.6758 64.8334 18.6758Z" fill="#F1F5F9"/>
<path d="M81.0013 20C81.24 17.1756 82.1086 14.5756 83.6073 12.2C85.1059 9.8243 87.1009 7.93698 89.5923 6.53799L86.6491 1.46993C86.49 1.23237 86.4502 0.981605 86.5298 0.717644C86.6093 0.453683 86.7816 0.255712 87.0468 0.123731C87.2589 -0.00824909 87.4976 -0.0346447 87.7627 0.0445436C88.0279 0.123732 88.24 0.282108 88.3991 0.519673L91.3423 5.58772C93.6226 4.63747 96.0089 4.16234 98.5013 4.16234C100.994 4.16234 103.38 4.63747 105.66 5.58772L108.604 0.519673C108.763 0.282108 108.975 0.123732 109.24 0.0445436C109.505 -0.0346447 109.744 -0.00824909 109.956 0.123731C110.221 0.255712 110.393 0.453683 110.473 0.717644C110.552 0.981605 110.513 1.23237 110.354 1.46993L107.41 6.53799C109.903 7.93698 111.898 9.8243 113.395 12.2C114.893 14.5756 115.762 17.1756 116.001 20H81.0013ZM90.5468 15.6446C91.1036 15.6446 91.5745 15.453 91.9595 15.0697C92.3445 14.6865 92.5365 14.2182 92.5354 13.6649C92.5344 13.1117 92.3419 12.6429 91.9579 12.2586C91.574 11.8742 91.1036 11.6831 90.5468 11.6852C89.99 11.6873 89.5191 11.879 89.1341 12.2601C88.7491 12.6413 88.5571 13.1096 88.5582 13.6649C88.5592 14.2203 88.7517 14.6891 89.1357 15.0713C89.5196 15.4535 89.99 15.6446 90.5468 15.6446ZM106.456 15.6446C107.013 15.6446 107.484 15.453 107.869 15.0697C108.254 14.6865 108.446 14.2182 108.445 13.6649C108.443 13.1117 108.251 12.6429 107.867 12.2586C107.483 11.8742 107.013 11.6831 106.456 11.6852C105.899 11.6873 105.428 11.879 105.043 12.2601C104.658 12.6413 104.466 13.1096 104.467 13.6649C104.468 14.2203 104.661 14.6891 105.045 15.0713C105.429 15.4535 105.899 15.6446 106.456 15.6446Z" fill="#F1F5F9"/>
</svg>
