<svg width="230" height="24" viewBox="0 0 230 24" fill="none" xmlns="http://www.w3.org/2000/svg">
<path d="M4.31384 10.0469H12.142C12.6628 10.0469 13.1211 9.92188 13.517 9.67188C13.9232 9.41146 14.2357 9.04688 14.4545 8.57812C14.6732 8.10938 14.7878 7.5625 14.7982 6.9375C14.7982 6.32292 14.6888 5.78125 14.4701 5.3125C14.2513 4.84375 13.9388 4.48438 13.5326 4.23438C13.1368 3.97396 12.6732 3.84375 12.142 3.84375H4.31384V0.265625H12.2513C13.5326 0.265625 14.6576 0.541667 15.6263 1.09375C16.5951 1.64583 17.3451 2.42708 17.8763 3.4375C18.418 4.44792 18.6888 5.61458 18.6888 6.9375C18.6888 8.27083 18.418 9.44271 17.8763 10.4531C17.3451 11.4635 16.5899 12.2448 15.6107 12.7969C14.642 13.349 13.5222 13.625 12.2513 13.625H4.31384V10.0469ZM2.76697 0.265625H6.50134V23H2.76697V0.265625ZM9.79822 12.9219L13.6732 12.2031L19.642 23H15.1576L9.79822 12.9219ZM29.5013 23.2344C27.9701 23.2344 26.6628 22.9531 25.5795 22.3906C24.4961 21.8281 23.668 21.0052 23.0951 19.9219C22.5222 18.8281 22.2357 17.5104 22.2357 15.9688V14.1406C22.2357 12.5365 22.5066 11.1667 23.0482 10.0312C23.6003 8.89583 24.3972 8.03125 25.4388 7.4375C26.4909 6.84375 27.7513 6.54688 29.2201 6.54688C30.6055 6.54688 31.7878 6.89583 32.767 7.59375C33.7566 8.28125 34.5066 9.28125 35.017 10.5938C35.5378 11.9062 35.7982 13.4896 35.7982 15.3438V16.4062H24.7826V13.6719H32.3295L32.3138 13.5C32.2097 12.3646 31.892 11.4844 31.3607 10.8594C30.8295 10.2344 30.1159 9.92188 29.2201 9.92188C28.0951 9.92188 27.2253 10.276 26.6107 10.9844C25.9961 11.6823 25.6888 12.6771 25.6888 13.9688V16.0312C25.6888 17.2604 26.0222 18.2083 26.6888 18.875C27.3555 19.5312 28.293 19.8594 29.5013 19.8594C30.1159 19.8594 30.7201 19.7448 31.3138 19.5156C31.918 19.276 32.4597 18.9479 32.9388 18.5312L35.3763 20.8125C34.5534 21.5833 33.6263 22.1823 32.5951 22.6094C31.5743 23.026 30.543 23.2344 29.5013 23.2344ZM48.8451 0.28125H52.5795V23H48.8451V0.28125ZM44.9232 23.2656C43.7566 23.2656 42.7566 23 41.9232 22.4688C41.1003 21.9271 40.4701 21.151 40.0326 20.1406C39.6055 19.1198 39.392 17.8906 39.392 16.4531V13.3594C39.392 11.9219 39.6055 10.6927 40.0326 9.67188C40.4597 8.64062 41.0795 7.85938 41.892 7.32812C42.7149 6.78646 43.6993 6.51562 44.8451 6.51562C45.7618 6.51562 46.5951 6.77083 47.3451 7.28125C48.1055 7.79167 48.7149 8.51042 49.1732 9.4375L48.8451 12.8906C48.8451 12.2656 48.7357 11.7344 48.517 11.2969C48.2982 10.8594 47.9805 10.526 47.5638 10.2969C47.1472 10.0677 46.642 9.95312 46.0482 9.95312C45.1211 9.95312 44.4024 10.2552 43.892 10.8594C43.3816 11.4635 43.1263 12.3073 43.1263 13.3906V16.4531C43.1263 17.526 43.3816 18.3594 43.892 18.9531C44.4024 19.5365 45.1211 19.8281 46.0482 19.8281C46.642 19.8281 47.1472 19.7135 47.5638 19.4844C47.9805 19.2448 48.2982 18.9062 48.517 18.4688C48.7357 18.0312 48.8451 17.5052 48.8451 16.8906L49.0638 20.4531C48.7409 21.2969 48.2201 21.9792 47.5013 22.5C46.793 23.0104 45.9336 23.2656 44.9232 23.2656ZM63.9076 23.2344C62.3763 23.2344 61.0691 22.9531 59.9857 22.3906C58.9024 21.8281 58.0743 21.0052 57.5013 19.9219C56.9284 18.8281 56.642 17.5104 56.642 15.9688V14.1406C56.642 12.5365 56.9128 11.1667 57.4545 10.0312C58.0066 8.89583 58.8034 8.03125 59.8451 7.4375C60.8972 6.84375 62.1576 6.54688 63.6263 6.54688C65.0118 6.54688 66.1941 6.89583 67.1732 7.59375C68.1628 8.28125 68.9128 9.28125 69.4232 10.5938C69.9441 11.9062 70.2045 13.4896 70.2045 15.3438V16.4062H59.1888V13.6719H66.7357L66.7201 13.5C66.6159 12.3646 66.2982 11.4844 65.767 10.8594C65.2357 10.2344 64.5222 9.92188 63.6263 9.92188C62.5013 9.92188 61.6316 10.276 61.017 10.9844C60.4024 11.6823 60.0951 12.6771 60.0951 13.9688V16.0312C60.0951 17.2604 60.4284 18.2083 61.0951 18.875C61.7618 19.5312 62.6993 19.8594 63.9076 19.8594C64.5222 19.8594 65.1263 19.7448 65.7201 19.5156C66.3243 19.276 66.8659 18.9479 67.3451 18.5312L69.7826 20.8125C68.9597 21.5833 68.0326 22.1823 67.0013 22.6094C65.9805 23.026 64.9493 23.2344 63.9076 23.2344ZM80.2357 23.2344C79.267 23.2344 78.3451 23.1458 77.4701 22.9688C76.5951 22.7812 75.7722 22.5104 75.0013 22.1562C74.2409 21.8021 73.5534 21.3698 72.9388 20.8594L75.2045 18.0469C76.0274 18.6302 76.8659 19.0729 77.7201 19.375C78.5847 19.6771 79.4232 19.8281 80.2357 19.8281C81.3711 19.8281 82.2305 19.6771 82.8138 19.375C83.4076 19.0625 83.7045 18.6146 83.7045 18.0312C83.7045 17.5833 83.5586 17.25 83.267 17.0312C82.9753 16.8021 82.6055 16.6458 82.1576 16.5625C81.7201 16.4792 81.1003 16.401 80.2982 16.3281C80.1628 16.3177 80.0222 16.3073 79.8763 16.2969C79.7305 16.2865 79.5899 16.2708 79.4545 16.25C79.4128 16.25 79.3711 16.25 79.3295 16.25C79.2878 16.2396 79.2461 16.2344 79.2045 16.2344C78.0691 16.1094 77.1368 15.9375 76.4076 15.7188C75.6784 15.4896 75.0638 15.0573 74.5638 14.4219C74.0743 13.7865 73.8295 12.875 73.8295 11.6875C73.8295 10.5729 74.0743 9.63542 74.5638 8.875C75.0638 8.10417 75.793 7.52604 76.7513 7.14062C77.7097 6.74479 78.8868 6.54688 80.2826 6.54688C81.1159 6.54688 81.9284 6.63021 82.7201 6.79688C83.5118 6.95312 84.267 7.1875 84.9857 7.5C85.7149 7.80208 86.4024 8.18229 87.0482 8.64062L84.8138 11.3594C84.0534 10.901 83.2826 10.5521 82.5013 10.3125C81.7305 10.0729 80.9805 9.95312 80.2513 9.95312C79.2722 9.95312 78.5274 10.0938 78.017 10.375C77.5066 10.6562 77.2513 11.0729 77.2513 11.625C77.2513 11.9792 77.392 12.25 77.6732 12.4375C77.9545 12.625 78.3034 12.7552 78.7201 12.8281C79.1472 12.8906 79.7618 12.9583 80.5638 13.0312C80.6472 13.0417 80.7253 13.0521 80.7982 13.0625C80.8816 13.0625 80.9649 13.0677 81.0482 13.0781C81.0795 13.0781 81.1159 13.0781 81.1576 13.0781C81.1993 13.0781 81.2409 13.0833 81.2826 13.0938C82.4805 13.2083 83.4753 13.3802 84.267 13.6094C85.0586 13.8385 85.7305 14.2969 86.2826 14.9844C86.8347 15.6615 87.1107 16.651 87.1107 17.9531C87.1107 19.099 86.8503 20.0677 86.3295 20.8594C85.8086 21.6406 85.0326 22.2344 84.0013 22.6406C82.9805 23.0365 81.7253 23.2344 80.2357 23.2344ZM106.751 23.2344C105.658 23.2344 104.606 23.1302 103.595 22.9219C102.595 22.7031 101.652 22.3854 100.767 21.9688C99.892 21.5521 99.0899 21.0365 98.3607 20.4219L100.345 17.4375C101.22 18.1771 102.199 18.7396 103.283 19.125C104.376 19.5 105.533 19.6875 106.751 19.6875C108.272 19.6875 109.449 19.4167 110.283 18.875C111.126 18.3333 111.548 17.5677 111.548 16.5781V16.5625C111.548 15.8646 111.361 15.3125 110.986 14.9062C110.611 14.4896 110.121 14.1875 109.517 14C108.913 13.8021 108.137 13.6198 107.189 13.4531C107.158 13.4427 107.126 13.4375 107.095 13.4375C107.064 13.4375 107.033 13.4323 107.001 13.4219L106.72 13.375C105.199 13.125 103.949 12.8281 102.97 12.4844C101.991 12.1406 101.158 11.526 100.47 10.6406C99.7826 9.75521 99.4388 8.5 99.4388 6.875V6.85938C99.4388 5.42188 99.7618 4.19271 100.408 3.17188C101.053 2.15104 101.991 1.375 103.22 0.84375C104.449 0.3125 105.928 0.046875 107.658 0.046875C108.47 0.046875 109.283 0.140625 110.095 0.328125C110.918 0.505208 111.72 0.770833 112.501 1.125C113.293 1.46875 114.059 1.90104 114.798 2.42188L112.986 5.5C112.111 4.875 111.22 4.40104 110.314 4.07812C109.408 3.75521 108.522 3.59375 107.658 3.59375C106.22 3.59375 105.106 3.85938 104.314 4.39062C103.533 4.91146 103.142 5.65104 103.142 6.60938V6.625C103.142 7.34375 103.345 7.91146 103.751 8.32812C104.158 8.74479 104.663 9.05208 105.267 9.25C105.882 9.4375 106.736 9.64062 107.829 9.85938C107.871 9.86979 107.908 9.88021 107.939 9.89062C107.981 9.89062 108.022 9.89583 108.064 9.90625C108.116 9.91667 108.173 9.92708 108.236 9.9375C108.298 9.94792 108.356 9.95833 108.408 9.96875C109.814 10.25 110.986 10.5885 111.923 10.9844C112.871 11.3802 113.663 12.0156 114.298 12.8906C114.934 13.7656 115.251 14.9583 115.251 16.4688V16.5C115.251 17.9167 114.918 19.1302 114.251 20.1406C113.585 21.151 112.616 21.9219 111.345 22.4531C110.074 22.974 108.543 23.2344 106.751 23.2344ZM125.548 23.2344C124.111 23.2344 122.876 22.9583 121.845 22.4062C120.824 21.8542 120.043 21.0521 119.501 20C118.97 18.9375 118.704 17.6615 118.704 16.1719V13.5312C118.704 12.0625 118.97 10.8073 119.501 9.76562C120.043 8.71354 120.824 7.91667 121.845 7.375C122.876 6.82292 124.111 6.54688 125.548 6.54688C126.986 6.54688 128.215 6.82292 129.236 7.375C130.267 7.91667 131.048 8.71354 131.579 9.76562C132.121 10.8073 132.392 12.0625 132.392 13.5312V16.2188C132.392 17.6979 132.121 18.9635 131.579 20.0156C131.048 21.0573 130.267 21.8542 129.236 22.4062C128.215 22.9583 126.986 23.2344 125.548 23.2344ZM125.548 19.6562C126.538 19.6562 127.303 19.3594 127.845 18.7656C128.387 18.1615 128.658 17.3125 128.658 16.2188V13.5312C128.658 12.4479 128.387 11.6094 127.845 11.0156C127.303 10.4219 126.538 10.125 125.548 10.125C124.559 10.125 123.793 10.4219 123.251 11.0156C122.71 11.6094 122.439 12.4479 122.439 13.5312V16.2188C122.439 17.3125 122.704 18.1615 123.236 18.7656C123.777 19.3594 124.548 19.6562 125.548 19.6562ZM143.314 23.2344C141.803 23.2344 140.512 22.9531 139.439 22.3906C138.366 21.8177 137.548 20.9896 136.986 19.9062C136.423 18.8125 136.142 17.4948 136.142 15.9531V13.75C136.142 12.2292 136.423 10.9323 136.986 9.85938C137.548 8.77604 138.366 7.95312 139.439 7.39062C140.512 6.82812 141.803 6.54688 143.314 6.54688C144.178 6.54688 144.991 6.65104 145.751 6.85938C146.522 7.05729 147.21 7.34896 147.814 7.73438C148.428 8.11979 148.939 8.58854 149.345 9.14062L146.814 11.5156C146.387 11.0677 145.887 10.724 145.314 10.4844C144.741 10.2448 144.142 10.125 143.517 10.125C142.361 10.125 141.465 10.4427 140.829 11.0781C140.194 11.7031 139.876 12.5938 139.876 13.75V15.9531C139.876 17.1406 140.189 18.0573 140.814 18.7031C141.449 19.3385 142.35 19.6562 143.517 19.6562C144.152 19.6562 144.757 19.526 145.329 19.2656C145.902 19.0052 146.397 18.6354 146.814 18.1562L149.345 20.6875C148.928 21.2292 148.413 21.6927 147.798 22.0781C147.194 22.4531 146.507 22.7396 145.736 22.9375C144.975 23.1354 144.168 23.2344 143.314 23.2344ZM152.439 0.28125H156.158V4.01562H152.439V0.28125ZM152.439 6.78125H156.158V23H152.439V6.78125ZM169.626 12.7188C169.626 11.8125 169.356 11.1094 168.814 10.6094C168.283 10.1094 167.527 9.85938 166.548 9.85938C165.923 9.85938 165.309 9.95833 164.704 10.1562C164.1 10.3542 163.559 10.6302 163.079 10.9844L160.595 8.89062C161.231 8.15104 162.064 7.57812 163.095 7.17188C164.126 6.75521 165.272 6.54688 166.533 6.54688C167.908 6.54688 169.085 6.78646 170.064 7.26562C171.043 7.73438 171.788 8.42188 172.298 9.32812C172.819 10.224 173.079 11.3073 173.079 12.5781V23H169.626V12.7188ZM165.376 23.2344C163.512 23.2344 162.116 22.8229 161.189 22C160.262 21.1667 159.798 19.9062 159.798 18.2188C159.798 16.6146 160.267 15.4115 161.204 14.6094C162.142 13.8073 163.548 13.4062 165.423 13.4062H169.767L169.986 16.3125H165.439C164.699 16.3125 164.142 16.4688 163.767 16.7812C163.402 17.0938 163.22 17.5729 163.22 18.2188C163.22 18.8958 163.46 19.401 163.939 19.7344C164.418 20.0573 165.142 20.2188 166.111 20.2188C167.298 20.2188 168.178 20.0885 168.751 19.8281C169.335 19.5677 169.626 19.1615 169.626 18.6094L169.954 20.9219C169.777 21.4323 169.465 21.8594 169.017 22.2031C168.579 22.5469 168.048 22.8073 167.423 22.9844C166.798 23.151 166.116 23.2344 165.376 23.2344ZM177.501 0.28125H181.22V4.01562H177.501V0.28125ZM177.501 6.78125H181.22V23H177.501V6.78125ZM191.611 23.2344C190.642 23.2344 189.72 23.1458 188.845 22.9688C187.97 22.7812 187.147 22.5104 186.376 22.1562C185.616 21.8021 184.928 21.3698 184.314 20.8594L186.579 18.0469C187.402 18.6302 188.241 19.0729 189.095 19.375C189.96 19.6771 190.798 19.8281 191.611 19.8281C192.746 19.8281 193.606 19.6771 194.189 19.375C194.783 19.0625 195.079 18.6146 195.079 18.0312C195.079 17.5833 194.934 17.25 194.642 17.0312C194.35 16.8021 193.981 16.6458 193.533 16.5625C193.095 16.4792 192.475 16.401 191.673 16.3281C191.538 16.3177 191.397 16.3073 191.251 16.2969C191.106 16.2865 190.965 16.2708 190.829 16.25C190.788 16.25 190.746 16.25 190.704 16.25C190.663 16.2396 190.621 16.2344 190.579 16.2344C189.444 16.1094 188.512 15.9375 187.783 15.7188C187.053 15.4896 186.439 15.0573 185.939 14.4219C185.449 13.7865 185.204 12.875 185.204 11.6875C185.204 10.5729 185.449 9.63542 185.939 8.875C186.439 8.10417 187.168 7.52604 188.126 7.14062C189.085 6.74479 190.262 6.54688 191.658 6.54688C192.491 6.54688 193.303 6.63021 194.095 6.79688C194.887 6.95312 195.642 7.1875 196.361 7.5C197.09 7.80208 197.777 8.18229 198.423 8.64062L196.189 11.3594C195.428 10.901 194.658 10.5521 193.876 10.3125C193.106 10.0729 192.356 9.95312 191.626 9.95312C190.647 9.95312 189.902 10.0938 189.392 10.375C188.882 10.6562 188.626 11.0729 188.626 11.625C188.626 11.9792 188.767 12.25 189.048 12.4375C189.329 12.625 189.678 12.7552 190.095 12.8281C190.522 12.8906 191.137 12.9583 191.939 13.0312C192.022 13.0417 192.1 13.0521 192.173 13.0625C192.257 13.0625 192.34 13.0677 192.423 13.0781C192.454 13.0781 192.491 13.0781 192.533 13.0781C192.574 13.0781 192.616 13.0833 192.658 13.0938C193.856 13.2083 194.85 13.3802 195.642 13.6094C196.434 13.8385 197.106 14.2969 197.658 14.9844C198.21 15.6615 198.486 16.651 198.486 17.9531C198.486 19.099 198.225 20.0677 197.704 20.8594C197.184 21.6406 196.408 22.2344 195.376 22.6406C194.356 23.0365 193.1 23.2344 191.611 23.2344Z" fill="#F1F5F9"/>
<path d="M220.001 21.5C222.654 21.5 225.197 20.4464 227.072 18.5711C228.948 16.6957 230.001 14.1522 230.001 11.5C230.001 8.84784 228.948 6.3043 227.072 4.42893C225.197 2.55357 222.654 1.5 220.001 1.5C217.349 1.5 214.806 2.55357 212.93 4.42893C211.055 6.3043 210.001 8.84784 210.001 11.5C210.001 14.1522 211.055 16.6957 212.93 18.5711C214.806 20.4464 217.349 21.5 220.001 21.5ZM218.751 9.625C218.751 10.66 218.191 11.5 217.501 11.5C216.811 11.5 216.251 10.66 216.251 9.625C216.251 8.59 216.811 7.75 217.501 7.75C218.191 7.75 218.751 8.59 218.751 9.625ZM215.358 13.4588C215.501 13.3759 215.672 13.3534 215.832 13.3963C215.992 13.4392 216.128 13.544 216.211 13.6875C216.595 14.3529 217.148 14.9055 217.813 15.2895C218.478 15.6735 219.233 15.8755 220.001 15.875C220.77 15.8755 221.524 15.6735 222.19 15.2895C222.855 14.9055 223.407 14.3529 223.791 13.6875C223.832 13.6158 223.887 13.553 223.952 13.5025C224.017 13.452 224.091 13.4148 224.171 13.3932C224.25 13.3716 224.333 13.366 224.415 13.3766C224.497 13.3872 224.576 13.4139 224.647 13.4551C224.719 13.4964 224.781 13.5513 224.831 13.6168C224.881 13.6822 224.918 13.757 224.939 13.8367C224.96 13.9163 224.965 13.9994 224.954 14.0811C224.943 14.1627 224.916 14.2414 224.874 14.3125C224.38 15.1679 223.67 15.8783 222.815 16.372C221.959 16.8657 220.989 17.1254 220.001 17.125C219.014 17.1254 218.043 16.8657 217.188 16.372C216.333 15.8783 215.622 15.1679 215.129 14.3125C215.046 14.169 215.024 13.9984 215.066 13.8383C215.109 13.6781 215.214 13.5416 215.358 13.4588ZM222.501 11.5C221.811 11.5 221.251 10.66 221.251 9.625C221.251 8.59 221.811 7.75 222.501 7.75C223.191 7.75 223.751 8.59 223.751 9.625C223.751 10.66 223.191 11.5 222.501 11.5Z" fill="#F1F5F9"/>
</svg>
