<svg width="394" height="25" viewBox="0 0 394 25" fill="none" xmlns="http://www.w3.org/2000/svg">
<path d="M6.86462 2.96094H8.90369L15.3021 20H12.2904L7.88416 7.30859L3.47791 20H0.466187L6.86462 2.96094ZM3.47791 14.082H12.4427V16.7656H3.47791V14.082ZM21.8881 20.1758C21.1615 20.1758 20.4701 20.1094 19.8138 19.9766C19.1576 19.8359 18.5404 19.6328 17.9623 19.3672C17.392 19.1016 16.8763 18.7773 16.4154 18.3945L18.1146 16.2852C18.7318 16.7227 19.3607 17.0547 20.0013 17.2812C20.6498 17.5078 21.2787 17.6211 21.8881 17.6211C22.7396 17.6211 23.3842 17.5078 23.8217 17.2812C24.267 17.0469 24.4896 16.7109 24.4896 16.2734C24.4896 15.9375 24.3802 15.6875 24.1615 15.5234C23.9427 15.3516 23.6654 15.2344 23.3295 15.1719C23.0013 15.1094 22.5365 15.0508 21.9349 14.9961C21.8334 14.9883 21.7279 14.9805 21.6185 14.9727C21.5092 14.9648 21.4037 14.9531 21.3021 14.9375C21.2709 14.9375 21.2396 14.9375 21.2084 14.9375C21.1771 14.9297 21.1459 14.9258 21.1146 14.9258C20.2631 14.832 19.5638 14.7031 19.017 14.5391C18.4701 14.3672 18.0092 14.043 17.6342 13.5664C17.267 13.0898 17.0834 12.4062 17.0834 11.5156C17.0834 10.6797 17.267 9.97656 17.6342 9.40625C18.0092 8.82812 18.556 8.39453 19.2748 8.10547C19.9935 7.80859 20.8763 7.66016 21.9232 7.66016C22.5482 7.66016 23.1576 7.72266 23.7513 7.84766C24.3451 7.96484 24.9115 8.14062 25.4506 8.375C25.9974 8.60156 26.5131 8.88672 26.9974 9.23047L25.3217 11.2695C24.7513 10.9258 24.1732 10.6641 23.5873 10.4844C23.0092 10.3047 22.4467 10.2148 21.8998 10.2148C21.1654 10.2148 20.6068 10.3203 20.224 10.5312C19.8412 10.7422 19.6498 11.0547 19.6498 11.4688C19.6498 11.7344 19.7552 11.9375 19.9662 12.0781C20.1771 12.2188 20.4388 12.3164 20.7513 12.3711C21.0717 12.418 21.5326 12.4688 22.1342 12.5234C22.1967 12.5312 22.2552 12.5391 22.3099 12.5469C22.3724 12.5469 22.4349 12.5508 22.4974 12.5586C22.5209 12.5586 22.5482 12.5586 22.5795 12.5586C22.6107 12.5586 22.642 12.5625 22.6732 12.5703C23.5717 12.6562 24.3177 12.7852 24.9115 12.957C25.5052 13.1289 26.0092 13.4727 26.4232 13.9883C26.8373 14.4961 27.0443 15.2383 27.0443 16.2148C27.0443 17.0742 26.849 17.8008 26.4584 18.3945C26.0677 18.9805 25.4857 19.4258 24.7123 19.7305C23.9467 20.0273 23.0052 20.1758 21.8881 20.1758ZM34.3334 20.1758C33.6068 20.1758 32.9154 20.1094 32.2592 19.9766C31.6029 19.8359 30.9857 19.6328 30.4076 19.3672C29.8373 19.1016 29.3217 18.7773 28.8607 18.3945L30.5599 16.2852C31.1771 16.7227 31.806 17.0547 32.4467 17.2812C33.0951 17.5078 33.724 17.6211 34.3334 17.6211C35.1849 17.6211 35.8295 17.5078 36.267 17.2812C36.7123 17.0469 36.9349 16.7109 36.9349 16.2734C36.9349 15.9375 36.8256 15.6875 36.6068 15.5234C36.3881 15.3516 36.1107 15.2344 35.7748 15.1719C35.4467 15.1094 34.9818 15.0508 34.3802 14.9961C34.2787 14.9883 34.1732 14.9805 34.0638 14.9727C33.9545 14.9648 33.849 14.9531 33.7474 14.9375C33.7162 14.9375 33.6849 14.9375 33.6537 14.9375C33.6224 14.9297 33.5912 14.9258 33.5599 14.9258C32.7084 14.832 32.0092 14.7031 31.4623 14.5391C30.9154 14.3672 30.4545 14.043 30.0795 13.5664C29.7123 13.0898 29.5287 12.4062 29.5287 11.5156C29.5287 10.6797 29.7123 9.97656 30.0795 9.40625C30.4545 8.82812 31.0013 8.39453 31.7201 8.10547C32.4388 7.80859 33.3217 7.66016 34.3685 7.66016C34.9935 7.66016 35.6029 7.72266 36.1967 7.84766C36.7904 7.96484 37.3568 8.14062 37.8959 8.375C38.4427 8.60156 38.9584 8.88672 39.4427 9.23047L37.767 11.2695C37.1967 10.9258 36.6185 10.6641 36.0326 10.4844C35.4545 10.3047 34.892 10.2148 34.3451 10.2148C33.6107 10.2148 33.0521 10.3203 32.6693 10.5312C32.2865 10.7422 32.0951 11.0547 32.0951 11.4688C32.0951 11.7344 32.2006 11.9375 32.4115 12.0781C32.6224 12.2188 32.8842 12.3164 33.1967 12.3711C33.517 12.418 33.9779 12.4688 34.5795 12.5234C34.642 12.5312 34.7006 12.5391 34.7552 12.5469C34.8177 12.5469 34.8802 12.5508 34.9427 12.5586C34.9662 12.5586 34.9935 12.5586 35.0248 12.5586C35.056 12.5586 35.0873 12.5625 35.1185 12.5703C36.017 12.6562 36.7631 12.7852 37.3568 12.957C37.9506 13.1289 38.4545 13.4727 38.8685 13.9883C39.2826 14.4961 39.4896 15.2383 39.4896 16.2148C39.4896 17.0742 39.2943 17.8008 38.9037 18.3945C38.5131 18.9805 37.931 19.4258 37.1576 19.7305C36.392 20.0273 35.4506 20.1758 34.3334 20.1758ZM42.2201 2.96094H45.0092V5.76172H42.2201V2.96094ZM42.2201 7.83594H45.0092V20H42.2201V7.83594ZM52.8021 20.1758C52.0756 20.1758 51.3842 20.1094 50.7279 19.9766C50.0717 19.8359 49.4545 19.6328 48.8763 19.3672C48.306 19.1016 47.7904 18.7773 47.3295 18.3945L49.0287 16.2852C49.6459 16.7227 50.2748 17.0547 50.9154 17.2812C51.5638 17.5078 52.1927 17.6211 52.8021 17.6211C53.6537 17.6211 54.2982 17.5078 54.7357 17.2812C55.181 17.0469 55.4037 16.7109 55.4037 16.2734C55.4037 15.9375 55.2943 15.6875 55.0756 15.5234C54.8568 15.3516 54.5795 15.2344 54.2435 15.1719C53.9154 15.1094 53.4506 15.0508 52.849 14.9961C52.7474 14.9883 52.642 14.9805 52.5326 14.9727C52.4232 14.9648 52.3177 14.9531 52.2162 14.9375C52.1849 14.9375 52.1537 14.9375 52.1224 14.9375C52.0912 14.9297 52.0599 14.9258 52.0287 14.9258C51.1771 14.832 50.4779 14.7031 49.931 14.5391C49.3842 14.3672 48.9232 14.043 48.5482 13.5664C48.181 13.0898 47.9974 12.4062 47.9974 11.5156C47.9974 10.6797 48.181 9.97656 48.5482 9.40625C48.9232 8.82812 49.4701 8.39453 50.1888 8.10547C50.9076 7.80859 51.7904 7.66016 52.8373 7.66016C53.4623 7.66016 54.0717 7.72266 54.6654 7.84766C55.2592 7.96484 55.8256 8.14062 56.3646 8.375C56.9115 8.60156 57.4271 8.88672 57.9115 9.23047L56.2357 11.2695C55.6654 10.9258 55.0873 10.6641 54.5013 10.4844C53.9232 10.3047 53.3607 10.2148 52.8138 10.2148C52.0795 10.2148 51.5209 10.3203 51.1381 10.5312C50.7552 10.7422 50.5638 11.0547 50.5638 11.4688C50.5638 11.7344 50.6693 11.9375 50.8802 12.0781C51.0912 12.2188 51.3529 12.3164 51.6654 12.3711C51.9857 12.418 52.4467 12.4688 53.0482 12.5234C53.1107 12.5312 53.1693 12.5391 53.224 12.5469C53.2865 12.5469 53.349 12.5508 53.4115 12.5586C53.4349 12.5586 53.4623 12.5586 53.4935 12.5586C53.5248 12.5586 53.556 12.5625 53.5873 12.5703C54.4857 12.6562 55.2318 12.7852 55.8256 12.957C56.4193 13.1289 56.9232 13.4727 57.3373 13.9883C57.7513 14.4961 57.9584 15.2383 57.9584 16.2148C57.9584 17.0742 57.7631 17.8008 57.3724 18.3945C56.9818 18.9805 56.3998 19.4258 55.6263 19.7305C54.8607 20.0273 53.9193 20.1758 52.8021 20.1758ZM64.0521 20.0586C63.0287 20.0586 62.2787 19.7891 61.8021 19.25C61.3256 18.7031 61.0873 17.8984 61.0873 16.8359V4.29688H63.8881V16.4492C63.8881 16.7461 63.9467 16.9766 64.0638 17.1406C64.181 17.2969 64.3529 17.375 64.5795 17.375H65.5521V20.0586H64.0521ZM59.8334 7.83594H65.5521V10.2852H59.8334V7.83594ZM73.6967 20.1758C72.5482 20.1758 71.5677 19.9648 70.7552 19.543C69.9427 19.1211 69.3217 18.5039 68.892 17.6914C68.4623 16.8711 68.2474 15.8828 68.2474 14.7266V13.3555C68.2474 12.1523 68.4506 11.125 68.8568 10.2734C69.2709 9.42188 69.8685 8.77344 70.6498 8.32812C71.4388 7.88281 72.3842 7.66016 73.4857 7.66016C74.5248 7.66016 75.4115 7.92187 76.1459 8.44531C76.8881 8.96094 77.4506 9.71094 77.8334 10.6953C78.224 11.6797 78.4193 12.8672 78.4193 14.2578V15.0547H70.1576V13.0039H75.8177L75.806 12.875C75.7279 12.0234 75.4896 11.3633 75.0912 10.8945C74.6927 10.4258 74.1576 10.1914 73.4857 10.1914C72.642 10.1914 71.9896 10.457 71.5287 10.9883C71.0677 11.5117 70.8373 12.2578 70.8373 13.2266V14.7734C70.8373 15.6953 71.0873 16.4062 71.5873 16.9062C72.0873 17.3984 72.7904 17.6445 73.6967 17.6445C74.1576 17.6445 74.6107 17.5586 75.056 17.3867C75.5092 17.207 75.9154 16.9609 76.2748 16.6484L78.1029 18.3594C77.4857 18.9375 76.7904 19.3867 76.017 19.707C75.2513 20.0195 74.4779 20.1758 73.6967 20.1758ZM77.2826 4.40234L75.7123 5.84375L73.3685 3.61719L71.0248 5.84375L69.4545 4.40234L73.3685 0.675781L77.2826 4.40234ZM81.4662 7.83594H84.267V20H81.4662V7.83594ZM88.6732 12.6289C88.6732 11.9023 88.4779 11.3398 88.0873 10.9414C87.6967 10.543 87.142 10.3438 86.4232 10.3438C85.7357 10.3438 85.2045 10.5312 84.8295 10.9062C84.4545 11.2734 84.267 11.7969 84.267 12.4766L84.0209 9.95703C84.3881 9.20703 84.849 8.63672 85.4037 8.24609C85.9662 7.85547 86.6263 7.66016 87.3842 7.66016C88.681 7.66016 89.6849 8.09375 90.3959 8.96094C91.1146 9.82031 91.474 11.0391 91.474 12.6172V20H88.6732V12.6289ZM99.8998 20.1758C98.767 20.1758 97.7982 19.9648 96.9935 19.543C96.1888 19.1133 95.5756 18.4922 95.1537 17.6797C94.7318 16.8594 94.5209 15.8711 94.5209 14.7148V13.0625C94.5209 11.9219 94.7318 10.9492 95.1537 10.1445C95.5756 9.33203 96.1888 8.71484 96.9935 8.29297C97.7982 7.87109 98.767 7.66016 99.8998 7.66016C100.548 7.66016 101.158 7.73828 101.728 7.89453C102.306 8.04297 102.822 8.26172 103.275 8.55078C103.736 8.83984 104.119 9.19141 104.423 9.60547L102.525 11.3867C102.204 11.0508 101.829 10.793 101.4 10.6133C100.97 10.4336 100.521 10.3438 100.052 10.3438C99.1849 10.3438 98.5131 10.582 98.0365 11.0586C97.5599 11.5273 97.3217 12.1953 97.3217 13.0625V14.7148C97.3217 15.6055 97.556 16.293 98.0248 16.7773C98.5013 17.2539 99.1771 17.4922 100.052 17.4922C100.529 17.4922 100.982 17.3945 101.411 17.1992C101.841 17.0039 102.212 16.7266 102.525 16.3672L104.423 18.2656C104.111 18.6719 103.724 19.0195 103.263 19.3086C102.81 19.5898 102.294 19.8047 101.716 19.9531C101.146 20.1016 100.54 20.1758 99.8998 20.1758ZM106.744 2.96094H109.533V5.76172H106.744V2.96094ZM106.744 7.83594H109.533V20H106.744V7.83594ZM119.634 12.2891C119.634 11.6094 119.431 11.082 119.025 10.707C118.626 10.332 118.06 10.1445 117.326 10.1445C116.857 10.1445 116.396 10.2188 115.943 10.3672C115.49 10.5156 115.083 10.7227 114.724 10.9883L112.861 9.41797C113.337 8.86328 113.962 8.43359 114.736 8.12891C115.509 7.81641 116.369 7.66016 117.314 7.66016C118.345 7.66016 119.228 7.83984 119.962 8.19922C120.697 8.55078 121.255 9.06641 121.638 9.74609C122.029 10.418 122.224 11.2305 122.224 12.1836V20H119.634V12.2891ZM116.447 20.1758C115.048 20.1758 114.001 19.8672 113.306 19.25C112.611 18.625 112.263 17.6797 112.263 16.4141C112.263 15.2109 112.615 14.3086 113.318 13.707C114.021 13.1055 115.076 12.8047 116.482 12.8047H119.74L119.904 14.9844H116.494C115.939 14.9844 115.521 15.1016 115.24 15.3359C114.966 15.5703 114.829 15.9297 114.829 16.4141C114.829 16.9219 115.009 17.3008 115.369 17.5508C115.728 17.793 116.271 17.9141 116.997 17.9141C117.888 17.9141 118.548 17.8164 118.978 17.6211C119.415 17.4258 119.634 17.1211 119.634 16.707L119.88 18.4414C119.747 18.8242 119.513 19.1445 119.177 19.4023C118.849 19.6602 118.451 19.8555 117.982 19.9883C117.513 20.1133 117.001 20.1758 116.447 20.1758ZM134.693 4.35547H137.482V20H134.693V4.35547ZM129.958 2.96094H142.216V5.64453H129.958V2.96094ZM147.431 20.1758C146.283 20.1758 145.302 19.9648 144.49 19.543C143.677 19.1211 143.056 18.5039 142.626 17.6914C142.197 16.8711 141.982 15.8828 141.982 14.7266V13.3555C141.982 12.1523 142.185 11.125 142.591 10.2734C143.005 9.42188 143.603 8.77344 144.384 8.32812C145.173 7.88281 146.119 7.66016 147.22 7.66016C148.259 7.66016 149.146 7.92187 149.88 8.44531C150.622 8.96094 151.185 9.71094 151.568 10.6953C151.958 11.6797 152.154 12.8672 152.154 14.2578V15.0547H143.892V13.0039H149.552L149.54 12.875C149.462 12.0234 149.224 11.3633 148.826 10.8945C148.427 10.4258 147.892 10.1914 147.22 10.1914C146.376 10.1914 145.724 10.457 145.263 10.9883C144.802 11.5117 144.572 12.2578 144.572 13.2266V14.7734C144.572 15.6953 144.822 16.4062 145.322 16.9062C145.822 17.3984 146.525 17.6445 147.431 17.6445C147.892 17.6445 148.345 17.5586 148.79 17.3867C149.244 17.207 149.65 16.9609 150.009 16.6484L151.837 18.3594C151.22 18.9375 150.525 19.3867 149.751 19.707C148.986 20.0195 148.212 20.1758 147.431 20.1758ZM145.556 4.40234L148.908 0.242188L150.888 1.90625L147.314 5.84375L145.556 4.40234ZM160.228 20.1758C159.095 20.1758 158.126 19.9648 157.322 19.543C156.517 19.1133 155.904 18.4922 155.482 17.6797C155.06 16.8594 154.849 15.8711 154.849 14.7148V13.0625C154.849 11.9219 155.06 10.9492 155.482 10.1445C155.904 9.33203 156.517 8.71484 157.322 8.29297C158.126 7.87109 159.095 7.66016 160.228 7.66016C160.876 7.66016 161.486 7.73828 162.056 7.89453C162.634 8.04297 163.15 8.26172 163.603 8.55078C164.064 8.83984 164.447 9.19141 164.751 9.60547L162.853 11.3867C162.533 11.0508 162.158 10.793 161.728 10.6133C161.298 10.4336 160.849 10.3438 160.38 10.3438C159.513 10.3438 158.841 10.582 158.365 11.0586C157.888 11.5273 157.65 12.1953 157.65 13.0625V14.7148C157.65 15.6055 157.884 16.293 158.353 16.7773C158.829 17.2539 159.505 17.4922 160.38 17.4922C160.857 17.4922 161.31 17.3945 161.74 17.1992C162.169 17.0039 162.54 16.7266 162.853 16.3672L164.751 18.2656C164.439 18.6719 164.052 19.0195 163.591 19.3086C163.138 19.5898 162.622 19.8047 162.044 19.9531C161.474 20.1016 160.869 20.1758 160.228 20.1758ZM167.154 7.83594H169.954V20H167.154V7.83594ZM174.361 12.6289C174.361 11.9023 174.165 11.3398 173.775 10.9414C173.384 10.543 172.829 10.3438 172.111 10.3438C171.423 10.3438 170.892 10.5312 170.517 10.9062C170.142 11.2734 169.954 11.7969 169.954 12.4766L169.708 9.95703C170.076 9.20703 170.536 8.63672 171.091 8.24609C171.654 7.85547 172.314 7.66016 173.072 7.66016C174.369 7.66016 175.372 8.09375 176.083 8.96094C176.802 9.82031 177.161 11.0391 177.161 12.6172V20H174.361V12.6289ZM180.478 2.96094H183.267V5.76172H180.478V2.96094ZM180.478 7.83594H183.267V20H180.478V7.83594ZM191.611 20.1758C190.478 20.1758 189.509 19.9648 188.704 19.543C187.9 19.1133 187.286 18.4922 186.865 17.6797C186.443 16.8594 186.232 15.8711 186.232 14.7148V13.0625C186.232 11.9219 186.443 10.9492 186.865 10.1445C187.286 9.33203 187.9 8.71484 188.704 8.29297C189.509 7.87109 190.478 7.66016 191.611 7.66016C192.259 7.66016 192.869 7.73828 193.439 7.89453C194.017 8.04297 194.533 8.26172 194.986 8.55078C195.447 8.83984 195.829 9.19141 196.134 9.60547L194.236 11.3867C193.915 11.0508 193.54 10.793 193.111 10.6133C192.681 10.4336 192.232 10.3438 191.763 10.3438C190.896 10.3438 190.224 10.582 189.747 11.0586C189.271 11.5273 189.033 12.1953 189.033 13.0625V14.7148C189.033 15.6055 189.267 16.293 189.736 16.7773C190.212 17.2539 190.888 17.4922 191.763 17.4922C192.24 17.4922 192.693 17.3945 193.122 17.1992C193.552 17.0039 193.923 16.7266 194.236 16.3672L196.134 18.2656C195.822 18.6719 195.435 19.0195 194.974 19.3086C194.521 19.5898 194.005 19.8047 193.427 19.9531C192.857 20.1016 192.251 20.1758 191.611 20.1758ZM205.322 12.2891C205.322 11.6094 205.119 11.082 204.712 10.707C204.314 10.332 203.747 10.1445 203.013 10.1445C202.544 10.1445 202.083 10.2188 201.63 10.3672C201.177 10.5156 200.771 10.7227 200.411 10.9883L198.548 9.41797C199.025 8.86328 199.65 8.43359 200.423 8.12891C201.197 7.81641 202.056 7.66016 203.001 7.66016C204.033 7.66016 204.915 7.83984 205.65 8.19922C206.384 8.55078 206.943 9.06641 207.326 9.74609C207.716 10.418 207.911 11.2305 207.911 12.1836V20H205.322V12.2891ZM202.134 20.1758C200.736 20.1758 199.689 19.8672 198.994 19.25C198.298 18.625 197.951 17.6797 197.951 16.4141C197.951 15.2109 198.302 14.3086 199.005 13.707C199.708 13.1055 200.763 12.8047 202.169 12.8047H205.427L205.591 14.9844H202.181C201.626 14.9844 201.208 15.1016 200.927 15.3359C200.654 15.5703 200.517 15.9297 200.517 16.4141C200.517 16.9219 200.697 17.3008 201.056 17.5508C201.415 17.793 201.958 17.9141 202.685 17.9141C203.576 17.9141 204.236 17.8164 204.665 17.6211C205.103 17.4258 205.322 17.1211 205.322 16.707L205.568 18.4414C205.435 18.8242 205.201 19.1445 204.865 19.4023C204.536 19.6602 204.138 19.8555 203.669 19.9883C203.201 20.1133 202.689 20.1758 202.134 20.1758ZM225.865 12.5586V15.2305H217.755V12.5586H225.865ZM241.181 20.1758C240.361 20.1758 239.572 20.0977 238.814 19.9414C238.064 19.7773 237.357 19.5391 236.693 19.2266C236.036 18.9141 235.435 18.5273 234.888 18.0664L236.376 15.8281C237.033 16.3828 237.767 16.8047 238.579 17.0938C239.4 17.375 240.267 17.5156 241.181 17.5156C242.322 17.5156 243.204 17.3125 243.829 16.9062C244.462 16.5 244.779 15.9258 244.779 15.1836V15.1719C244.779 14.6484 244.638 14.2344 244.357 13.9297C244.076 13.6172 243.708 13.3906 243.255 13.25C242.802 13.1016 242.22 12.9648 241.509 12.8398C241.486 12.832 241.462 12.8281 241.439 12.8281C241.415 12.8281 241.392 12.8242 241.369 12.8164L241.158 12.7812C240.017 12.5938 239.079 12.3711 238.345 12.1133C237.611 11.8555 236.986 11.3945 236.47 10.7305C235.954 10.0664 235.697 9.125 235.697 7.90625V7.89453C235.697 6.81641 235.939 5.89453 236.423 5.12891C236.908 4.36328 237.611 3.78125 238.533 3.38281C239.454 2.98438 240.564 2.78516 241.861 2.78516C242.47 2.78516 243.079 2.85547 243.689 2.99609C244.306 3.12891 244.908 3.32812 245.494 3.59375C246.087 3.85156 246.661 4.17578 247.216 4.56641L245.857 6.875C245.201 6.40625 244.533 6.05078 243.853 5.80859C243.173 5.56641 242.509 5.44531 241.861 5.44531C240.783 5.44531 239.947 5.64453 239.353 6.04297C238.767 6.43359 238.474 6.98828 238.474 7.70703V7.71875C238.474 8.25781 238.626 8.68359 238.931 8.99609C239.236 9.30859 239.615 9.53906 240.068 9.6875C240.529 9.82812 241.169 9.98047 241.99 10.1445C242.021 10.1523 242.048 10.1602 242.072 10.168C242.103 10.168 242.134 10.1719 242.165 10.1797C242.204 10.1875 242.247 10.1953 242.294 10.2031C242.341 10.2109 242.384 10.2188 242.423 10.2266C243.478 10.4375 244.357 10.6914 245.06 10.9883C245.771 11.2852 246.365 11.7617 246.841 12.418C247.318 13.0742 247.556 13.9688 247.556 15.1016V15.125C247.556 16.1875 247.306 17.0977 246.806 17.8555C246.306 18.6133 245.579 19.1914 244.626 19.5898C243.673 19.9805 242.525 20.1758 241.181 20.1758ZM250.497 7.83594H253.298V24.9453H250.497V7.83594ZM256.24 20.1758C255.505 20.1758 254.869 19.9961 254.329 19.6367C253.79 19.2695 253.392 18.7539 253.134 18.0898L253.298 15.4297C253.298 15.8906 253.38 16.2852 253.544 16.6133C253.708 16.9336 253.947 17.1797 254.259 17.3516C254.572 17.5234 254.951 17.6094 255.396 17.6094C256.091 17.6094 256.63 17.3906 257.013 16.9531C257.396 16.5156 257.587 15.8945 257.587 15.0898V12.8047C257.587 11.9844 257.396 11.3516 257.013 10.9062C256.63 10.4531 256.091 10.2266 255.396 10.2266C254.951 10.2266 254.572 10.3125 254.259 10.4844C253.947 10.6484 253.708 10.8945 253.544 11.2227C253.38 11.5508 253.298 11.9453 253.298 12.4062L253.052 9.88672C253.396 9.17578 253.849 8.62891 254.411 8.24609C254.982 7.85547 255.611 7.66016 256.298 7.66016C257.158 7.66016 257.892 7.85938 258.501 8.25781C259.119 8.65625 259.587 9.24219 259.908 10.0156C260.228 10.7812 260.388 11.707 260.388 12.793V15.0898C260.388 16.1602 260.224 17.0781 259.896 17.8438C259.576 18.6016 259.103 19.1797 258.478 19.5781C257.853 19.9766 257.107 20.1758 256.24 20.1758ZM263.552 7.83594H266.47V20H263.552V7.83594ZM270.326 10.9648C270.138 10.7617 269.908 10.6094 269.634 10.5078C269.361 10.3984 269.044 10.3438 268.685 10.3438C267.982 10.3438 267.435 10.5547 267.044 10.9766C266.661 11.3906 266.47 11.9688 266.47 12.7109L266.224 9.95703C266.576 9.23047 267.033 8.66797 267.595 8.26953C268.165 7.86328 268.79 7.66016 269.47 7.66016C270.001 7.66016 270.482 7.74219 270.911 7.90625C271.341 8.0625 271.716 8.29688 272.036 8.60938L270.326 10.9648ZM273.712 2.96094H276.501V5.76172H273.712V2.96094ZM273.712 7.83594H276.501V20H273.712V7.83594ZM279.818 7.83594H282.619V20H279.818V7.83594ZM287.025 12.6289C287.025 11.9023 286.829 11.3398 286.439 10.9414C286.048 10.543 285.494 10.3438 284.775 10.3438C284.087 10.3438 283.556 10.5312 283.181 10.9062C282.806 11.2734 282.619 11.7969 282.619 12.4766L282.372 9.95703C282.74 9.20703 283.201 8.63672 283.755 8.24609C284.318 7.85547 284.978 7.66016 285.736 7.66016C287.033 7.66016 288.036 8.09375 288.747 8.96094C289.466 9.82031 289.826 11.0391 289.826 12.6172V20H287.025V12.6289ZM297.419 24.9453C296.482 24.9453 295.642 24.7734 294.9 24.4297C294.158 24.0938 293.579 23.6172 293.165 23L295.052 21.2773C295.341 21.6445 295.689 21.9258 296.095 22.1211C296.509 22.3164 296.939 22.4141 297.384 22.4141C298.181 22.4141 298.81 22.1953 299.271 21.7578C299.732 21.3281 299.962 20.7188 299.962 19.9297V7.83594H302.763V19.6367C302.763 20.7539 302.552 21.7109 302.13 22.5078C301.716 23.3047 301.107 23.9102 300.302 24.3242C299.505 24.7383 298.544 24.9453 297.419 24.9453ZM297.021 20.1992C296.146 20.1992 295.396 20 294.771 19.6016C294.154 19.1953 293.681 18.6133 293.353 17.8555C293.033 17.0898 292.872 16.168 292.872 15.0898V12.7695C292.872 11.6914 293.033 10.7695 293.353 10.0039C293.673 9.23047 294.138 8.64453 294.747 8.24609C295.365 7.83984 296.103 7.63672 296.962 7.63672C297.65 7.63672 298.275 7.82812 298.837 8.21094C299.408 8.59375 299.865 9.13281 300.208 9.82812L299.962 12.418C299.962 11.9492 299.88 11.5508 299.716 11.2227C299.552 10.8945 299.314 10.6445 299.001 10.4727C298.689 10.3008 298.31 10.2148 297.865 10.2148C297.169 10.2148 296.63 10.4414 296.247 10.8945C295.865 11.3477 295.673 11.9805 295.673 12.793V15.0898C295.673 15.8945 295.865 16.5195 296.247 16.9648C296.63 17.4023 297.169 17.6211 297.865 17.6211C298.31 17.6211 298.689 17.5352 299.001 17.3633C299.314 17.1836 299.552 16.9297 299.716 16.6016C299.88 16.2734 299.962 15.8789 299.962 15.418L300.126 18.0898C299.884 18.7227 299.494 19.2344 298.954 19.625C298.423 20.0078 297.779 20.1992 297.021 20.1992ZM311.083 2.96094H314.036L317.892 15.3242L321.747 2.96094H324.701L319.087 20H316.697L311.083 2.96094ZM333.267 7.83594H336.056V20H333.267V7.83594ZM328.908 15.2305C328.908 15.9492 329.099 16.5078 329.482 16.9062C329.865 17.2969 330.404 17.4922 331.099 17.4922C331.794 17.4922 332.329 17.3086 332.704 16.9414C333.079 16.5664 333.267 16.0312 333.267 15.3359L333.431 17.9375C333.197 18.5703 332.806 19.1016 332.259 19.5312C331.712 19.9609 331.044 20.1758 330.255 20.1758C328.935 20.1758 327.911 19.75 327.185 18.8984C326.466 18.0469 326.107 16.8438 326.107 15.2891V7.83594H328.908V15.2305ZM344.564 20.1758C343.415 20.1758 342.435 19.9648 341.622 19.543C340.81 19.1211 340.189 18.5039 339.759 17.6914C339.329 16.8711 339.115 15.8828 339.115 14.7266V13.3555C339.115 12.1523 339.318 11.125 339.724 10.2734C340.138 9.42188 340.736 8.77344 341.517 8.32812C342.306 7.88281 343.251 7.66016 344.353 7.66016C345.392 7.66016 346.279 7.92187 347.013 8.44531C347.755 8.96094 348.318 9.71094 348.701 10.6953C349.091 11.6797 349.286 12.8672 349.286 14.2578V15.0547H341.025V13.0039H346.685L346.673 12.875C346.595 12.0234 346.357 11.3633 345.958 10.8945C345.56 10.4258 345.025 10.1914 344.353 10.1914C343.509 10.1914 342.857 10.457 342.396 10.9883C341.935 11.5117 341.704 12.2578 341.704 13.2266V14.7734C341.704 15.6953 341.954 16.4062 342.454 16.9062C342.954 17.3984 343.658 17.6445 344.564 17.6445C345.025 17.6445 345.478 17.5586 345.923 17.3867C346.376 17.207 346.783 16.9609 347.142 16.6484L348.97 18.3594C348.353 18.9375 347.658 19.3867 346.884 19.707C346.119 20.0195 345.345 20.1758 344.564 20.1758ZM363.771 2.96094H365.81L372.208 20H369.197L364.79 7.30859L360.384 20H357.372L363.771 2.96094ZM360.384 14.082H369.349V16.7656H360.384V14.082ZM375.9 10.707H381.349C381.802 10.707 382.197 10.6055 382.533 10.4023C382.876 10.1914 383.142 9.89453 383.329 9.51172C383.525 9.12891 383.622 8.6875 383.622 8.1875C383.622 7.67969 383.529 7.23438 383.341 6.85156C383.154 6.46875 382.888 6.17188 382.544 5.96094C382.201 5.75 381.802 5.64453 381.349 5.64453H375.9V2.96094H381.267C382.306 2.96094 383.22 3.17969 384.009 3.61719C384.798 4.04688 385.411 4.65625 385.849 5.44531C386.286 6.23437 386.505 7.14844 386.505 8.1875C386.505 9.22656 386.286 10.1406 385.849 10.9297C385.411 11.7109 384.798 12.3164 384.009 12.7461C383.22 13.1758 382.306 13.3906 381.267 13.3906H375.9V10.707ZM374.552 2.96094H377.353V20H374.552V2.96094ZM392.013 20H389.154V2.96094H392.013V20Z" fill="#F1F5F9"/>
</svg>
