<svg width="421" height="26" viewBox="0 0 421 26" fill="none" xmlns="http://www.w3.org/2000/svg">
<path d="M6.95837 2.96094H8.99744L15.3959 20H12.3842L7.97791 7.30859L3.57166 20H0.559937L6.95837 2.96094ZM3.57166 14.082H12.5365V16.7656H3.57166V14.082ZM21.9818 20.1758C21.2552 20.1758 20.5638 20.1094 19.9076 19.9766C19.2513 19.8359 18.6342 19.6328 18.056 19.3672C17.4857 19.1016 16.9701 18.7773 16.5092 18.3945L18.2084 16.2852C18.8256 16.7227 19.4545 17.0547 20.0951 17.2812C20.7435 17.5078 21.3724 17.6211 21.9818 17.6211C22.8334 17.6211 23.4779 17.5078 23.9154 17.2812C24.3607 17.0469 24.5834 16.7109 24.5834 16.2734C24.5834 15.9375 24.474 15.6875 24.2552 15.5234C24.0365 15.3516 23.7592 15.2344 23.4232 15.1719C23.0951 15.1094 22.6302 15.0508 22.0287 14.9961C21.9271 14.9883 21.8217 14.9805 21.7123 14.9727C21.6029 14.9648 21.4974 14.9531 21.3959 14.9375C21.3646 14.9375 21.3334 14.9375 21.3021 14.9375C21.2709 14.9297 21.2396 14.9258 21.2084 14.9258C20.3568 14.832 19.6576 14.7031 19.1107 14.5391C18.5638 14.3672 18.1029 14.043 17.7279 13.5664C17.3607 13.0898 17.1771 12.4062 17.1771 11.5156C17.1771 10.6797 17.3607 9.97656 17.7279 9.40625C18.1029 8.82812 18.6498 8.39453 19.3685 8.10547C20.0873 7.80859 20.9701 7.66016 22.017 7.66016C22.642 7.66016 23.2513 7.72266 23.8451 7.84766C24.4388 7.96484 25.0052 8.14062 25.5443 8.375C26.0912 8.60156 26.6068 8.88672 27.0912 9.23047L25.4154 11.2695C24.8451 10.9258 24.267 10.6641 23.681 10.4844C23.1029 10.3047 22.5404 10.2148 21.9935 10.2148C21.2592 10.2148 20.7006 10.3203 20.3177 10.5312C19.9349 10.7422 19.7435 11.0547 19.7435 11.4688C19.7435 11.7344 19.849 11.9375 20.0599 12.0781C20.2709 12.2188 20.5326 12.3164 20.8451 12.3711C21.1654 12.418 21.6263 12.4688 22.2279 12.5234C22.2904 12.5312 22.349 12.5391 22.4037 12.5469C22.4662 12.5469 22.5287 12.5508 22.5912 12.5586C22.6146 12.5586 22.642 12.5586 22.6732 12.5586C22.7045 12.5586 22.7357 12.5625 22.767 12.5703C23.6654 12.6562 24.4115 12.7852 25.0052 12.957C25.599 13.1289 26.1029 13.4727 26.517 13.9883C26.931 14.4961 27.1381 15.2383 27.1381 16.2148C27.1381 17.0742 26.9427 17.8008 26.5521 18.3945C26.1615 18.9805 25.5795 19.4258 24.806 19.7305C24.0404 20.0273 23.099 20.1758 21.9818 20.1758ZM34.4271 20.1758C33.7006 20.1758 33.0092 20.1094 32.3529 19.9766C31.6967 19.8359 31.0795 19.6328 30.5013 19.3672C29.931 19.1016 29.4154 18.7773 28.9545 18.3945L30.6537 16.2852C31.2709 16.7227 31.8998 17.0547 32.5404 17.2812C33.1888 17.5078 33.8177 17.6211 34.4271 17.6211C35.2787 17.6211 35.9232 17.5078 36.3607 17.2812C36.806 17.0469 37.0287 16.7109 37.0287 16.2734C37.0287 15.9375 36.9193 15.6875 36.7006 15.5234C36.4818 15.3516 36.2045 15.2344 35.8685 15.1719C35.5404 15.1094 35.0756 15.0508 34.474 14.9961C34.3724 14.9883 34.267 14.9805 34.1576 14.9727C34.0482 14.9648 33.9427 14.9531 33.8412 14.9375C33.8099 14.9375 33.7787 14.9375 33.7474 14.9375C33.7162 14.9297 33.6849 14.9258 33.6537 14.9258C32.8021 14.832 32.1029 14.7031 31.556 14.5391C31.0092 14.3672 30.5482 14.043 30.1732 13.5664C29.806 13.0898 29.6224 12.4062 29.6224 11.5156C29.6224 10.6797 29.806 9.97656 30.1732 9.40625C30.5482 8.82812 31.0951 8.39453 31.8138 8.10547C32.5326 7.80859 33.4154 7.66016 34.4623 7.66016C35.0873 7.66016 35.6967 7.72266 36.2904 7.84766C36.8842 7.96484 37.4506 8.14062 37.9896 8.375C38.5365 8.60156 39.0521 8.88672 39.5365 9.23047L37.8607 11.2695C37.2904 10.9258 36.7123 10.6641 36.1263 10.4844C35.5482 10.3047 34.9857 10.2148 34.4388 10.2148C33.7045 10.2148 33.1459 10.3203 32.7631 10.5312C32.3802 10.7422 32.1888 11.0547 32.1888 11.4688C32.1888 11.7344 32.2943 11.9375 32.5052 12.0781C32.7162 12.2188 32.9779 12.3164 33.2904 12.3711C33.6107 12.418 34.0717 12.4688 34.6732 12.5234C34.7357 12.5312 34.7943 12.5391 34.849 12.5469C34.9115 12.5469 34.974 12.5508 35.0365 12.5586C35.0599 12.5586 35.0873 12.5586 35.1185 12.5586C35.1498 12.5586 35.181 12.5625 35.2123 12.5703C36.1107 12.6562 36.8568 12.7852 37.4506 12.957C38.0443 13.1289 38.5482 13.4727 38.9623 13.9883C39.3763 14.4961 39.5834 15.2383 39.5834 16.2148C39.5834 17.0742 39.3881 17.8008 38.9974 18.3945C38.6068 18.9805 38.0248 19.4258 37.2513 19.7305C36.4857 20.0273 35.5443 20.1758 34.4271 20.1758ZM42.3138 2.96094H45.1029V5.76172H42.3138V2.96094ZM42.3138 7.83594H45.1029V20H42.3138V7.83594ZM52.8959 20.1758C52.1693 20.1758 51.4779 20.1094 50.8217 19.9766C50.1654 19.8359 49.5482 19.6328 48.9701 19.3672C48.3998 19.1016 47.8842 18.7773 47.4232 18.3945L49.1224 16.2852C49.7396 16.7227 50.3685 17.0547 51.0092 17.2812C51.6576 17.5078 52.2865 17.6211 52.8959 17.6211C53.7474 17.6211 54.392 17.5078 54.8295 17.2812C55.2748 17.0469 55.4974 16.7109 55.4974 16.2734C55.4974 15.9375 55.3881 15.6875 55.1693 15.5234C54.9506 15.3516 54.6732 15.2344 54.3373 15.1719C54.0092 15.1094 53.5443 15.0508 52.9427 14.9961C52.8412 14.9883 52.7357 14.9805 52.6263 14.9727C52.517 14.9648 52.4115 14.9531 52.3099 14.9375C52.2787 14.9375 52.2474 14.9375 52.2162 14.9375C52.1849 14.9297 52.1537 14.9258 52.1224 14.9258C51.2709 14.832 50.5717 14.7031 50.0248 14.5391C49.4779 14.3672 49.017 14.043 48.642 13.5664C48.2748 13.0898 48.0912 12.4062 48.0912 11.5156C48.0912 10.6797 48.2748 9.97656 48.642 9.40625C49.017 8.82812 49.5638 8.39453 50.2826 8.10547C51.0013 7.80859 51.8842 7.66016 52.931 7.66016C53.556 7.66016 54.1654 7.72266 54.7592 7.84766C55.3529 7.96484 55.9193 8.14062 56.4584 8.375C57.0052 8.60156 57.5209 8.88672 58.0052 9.23047L56.3295 11.2695C55.7592 10.9258 55.181 10.6641 54.5951 10.4844C54.017 10.3047 53.4545 10.2148 52.9076 10.2148C52.1732 10.2148 51.6146 10.3203 51.2318 10.5312C50.849 10.7422 50.6576 11.0547 50.6576 11.4688C50.6576 11.7344 50.7631 11.9375 50.974 12.0781C51.1849 12.2188 51.4467 12.3164 51.7592 12.3711C52.0795 12.418 52.5404 12.4688 53.142 12.5234C53.2045 12.5312 53.2631 12.5391 53.3177 12.5469C53.3802 12.5469 53.4427 12.5508 53.5052 12.5586C53.5287 12.5586 53.556 12.5586 53.5873 12.5586C53.6185 12.5586 53.6498 12.5625 53.681 12.5703C54.5795 12.6562 55.3256 12.7852 55.9193 12.957C56.5131 13.1289 57.017 13.4727 57.431 13.9883C57.8451 14.4961 58.0521 15.2383 58.0521 16.2148C58.0521 17.0742 57.8568 17.8008 57.4662 18.3945C57.0756 18.9805 56.4935 19.4258 55.7201 19.7305C54.9545 20.0273 54.0131 20.1758 52.8959 20.1758ZM64.1459 20.0586C63.1224 20.0586 62.3724 19.7891 61.8959 19.25C61.4193 18.7031 61.181 17.8984 61.181 16.8359V4.29688H63.9818V16.4492C63.9818 16.7461 64.0404 16.9766 64.1576 17.1406C64.2748 17.2969 64.4467 17.375 64.6732 17.375H65.6459V20.0586H64.1459ZM59.9271 7.83594H65.6459V10.2852H59.9271V7.83594ZM73.7904 20.1758C72.642 20.1758 71.6615 19.9648 70.849 19.543C70.0365 19.1211 69.4154 18.5039 68.9857 17.6914C68.556 16.8711 68.3412 15.8828 68.3412 14.7266V13.3555C68.3412 12.1523 68.5443 11.125 68.9506 10.2734C69.3646 9.42188 69.9623 8.77344 70.7435 8.32812C71.5326 7.88281 72.4779 7.66016 73.5795 7.66016C74.6185 7.66016 75.5052 7.92187 76.2396 8.44531C76.9818 8.96094 77.5443 9.71094 77.9271 10.6953C78.3177 11.6797 78.5131 12.8672 78.5131 14.2578V15.0547H70.2513V13.0039H75.9115L75.8998 12.875C75.8217 12.0234 75.5834 11.3633 75.1849 10.8945C74.7865 10.4258 74.2513 10.1914 73.5795 10.1914C72.7357 10.1914 72.0834 10.457 71.6224 10.9883C71.1615 11.5117 70.931 12.2578 70.931 13.2266V14.7734C70.931 15.6953 71.181 16.4062 71.681 16.9062C72.181 17.3984 72.8842 17.6445 73.7904 17.6445C74.2513 17.6445 74.7045 17.5586 75.1498 17.3867C75.6029 17.207 76.0092 16.9609 76.3685 16.6484L78.1967 18.3594C77.5795 18.9375 76.8842 19.3867 76.1107 19.707C75.3451 20.0195 74.5717 20.1758 73.7904 20.1758ZM77.3763 4.40234L75.806 5.84375L73.4623 3.61719L71.1185 5.84375L69.5482 4.40234L73.4623 0.675781L77.3763 4.40234ZM81.5599 7.83594H84.3607V20H81.5599V7.83594ZM88.767 12.6289C88.767 11.9023 88.5717 11.3398 88.181 10.9414C87.7904 10.543 87.2357 10.3438 86.517 10.3438C85.8295 10.3438 85.2982 10.5312 84.9232 10.9062C84.5482 11.2734 84.3607 11.7969 84.3607 12.4766L84.1146 9.95703C84.4818 9.20703 84.9427 8.63672 85.4974 8.24609C86.0599 7.85547 86.7201 7.66016 87.4779 7.66016C88.7748 7.66016 89.7787 8.09375 90.4896 8.96094C91.2084 9.82031 91.5677 11.0391 91.5677 12.6172V20H88.767V12.6289ZM99.9935 20.1758C98.8607 20.1758 97.892 19.9648 97.0873 19.543C96.2826 19.1133 95.6693 18.4922 95.2474 17.6797C94.8256 16.8594 94.6146 15.8711 94.6146 14.7148V13.0625C94.6146 11.9219 94.8256 10.9492 95.2474 10.1445C95.6693 9.33203 96.2826 8.71484 97.0873 8.29297C97.892 7.87109 98.8607 7.66016 99.9935 7.66016C100.642 7.66016 101.251 7.73828 101.822 7.89453C102.4 8.04297 102.915 8.26172 103.369 8.55078C103.829 8.83984 104.212 9.19141 104.517 9.60547L102.619 11.3867C102.298 11.0508 101.923 10.793 101.494 10.6133C101.064 10.4336 100.615 10.3438 100.146 10.3438C99.2787 10.3438 98.6068 10.582 98.1302 11.0586C97.6537 11.5273 97.4154 12.1953 97.4154 13.0625V14.7148C97.4154 15.6055 97.6498 16.293 98.1185 16.7773C98.5951 17.2539 99.2709 17.4922 100.146 17.4922C100.622 17.4922 101.076 17.3945 101.505 17.1992C101.935 17.0039 102.306 16.7266 102.619 16.3672L104.517 18.2656C104.204 18.6719 103.818 19.0195 103.357 19.3086C102.904 19.5898 102.388 19.8047 101.81 19.9531C101.24 20.1016 100.634 20.1758 99.9935 20.1758ZM106.837 2.96094H109.626V5.76172H106.837V2.96094ZM106.837 7.83594H109.626V20H106.837V7.83594ZM119.728 12.2891C119.728 11.6094 119.525 11.082 119.119 10.707C118.72 10.332 118.154 10.1445 117.419 10.1445C116.951 10.1445 116.49 10.2188 116.036 10.3672C115.583 10.5156 115.177 10.7227 114.818 10.9883L112.954 9.41797C113.431 8.86328 114.056 8.43359 114.829 8.12891C115.603 7.81641 116.462 7.66016 117.408 7.66016C118.439 7.66016 119.322 7.83984 120.056 8.19922C120.79 8.55078 121.349 9.06641 121.732 9.74609C122.122 10.418 122.318 11.2305 122.318 12.1836V20H119.728V12.2891ZM116.54 20.1758C115.142 20.1758 114.095 19.8672 113.4 19.25C112.704 18.625 112.357 17.6797 112.357 16.4141C112.357 15.2109 112.708 14.3086 113.411 13.707C114.115 13.1055 115.169 12.8047 116.576 12.8047H119.833L119.997 14.9844H116.587C116.033 14.9844 115.615 15.1016 115.333 15.3359C115.06 15.5703 114.923 15.9297 114.923 16.4141C114.923 16.9219 115.103 17.3008 115.462 17.5508C115.822 17.793 116.365 17.9141 117.091 17.9141C117.982 17.9141 118.642 17.8164 119.072 17.6211C119.509 17.4258 119.728 17.1211 119.728 16.707L119.974 18.4414C119.841 18.8242 119.607 19.1445 119.271 19.4023C118.943 19.6602 118.544 19.8555 118.076 19.9883C117.607 20.1133 117.095 20.1758 116.54 20.1758ZM134.786 4.35547H137.576V20H134.786V4.35547ZM130.052 2.96094H142.31V5.64453H130.052V2.96094ZM147.525 20.1758C146.376 20.1758 145.396 19.9648 144.583 19.543C143.771 19.1211 143.15 18.5039 142.72 17.6914C142.29 16.8711 142.076 15.8828 142.076 14.7266V13.3555C142.076 12.1523 142.279 11.125 142.685 10.2734C143.099 9.42188 143.697 8.77344 144.478 8.32812C145.267 7.88281 146.212 7.66016 147.314 7.66016C148.353 7.66016 149.24 7.92187 149.974 8.44531C150.716 8.96094 151.279 9.71094 151.661 10.6953C152.052 11.6797 152.247 12.8672 152.247 14.2578V15.0547H143.986V13.0039H149.646L149.634 12.875C149.556 12.0234 149.318 11.3633 148.919 10.8945C148.521 10.4258 147.986 10.1914 147.314 10.1914C146.47 10.1914 145.818 10.457 145.357 10.9883C144.896 11.5117 144.665 12.2578 144.665 13.2266V14.7734C144.665 15.6953 144.915 16.4062 145.415 16.9062C145.915 17.3984 146.619 17.6445 147.525 17.6445C147.986 17.6445 148.439 17.5586 148.884 17.3867C149.337 17.207 149.744 16.9609 150.103 16.6484L151.931 18.3594C151.314 18.9375 150.619 19.3867 149.845 19.707C149.079 20.0195 148.306 20.1758 147.525 20.1758ZM145.65 4.40234L149.001 0.242188L150.982 1.90625L147.408 5.84375L145.65 4.40234ZM160.322 20.1758C159.189 20.1758 158.22 19.9648 157.415 19.543C156.611 19.1133 155.997 18.4922 155.576 17.6797C155.154 16.8594 154.943 15.8711 154.943 14.7148V13.0625C154.943 11.9219 155.154 10.9492 155.576 10.1445C155.997 9.33203 156.611 8.71484 157.415 8.29297C158.22 7.87109 159.189 7.66016 160.322 7.66016C160.97 7.66016 161.579 7.73828 162.15 7.89453C162.728 8.04297 163.244 8.26172 163.697 8.55078C164.158 8.83984 164.54 9.19141 164.845 9.60547L162.947 11.3867C162.626 11.0508 162.251 10.793 161.822 10.6133C161.392 10.4336 160.943 10.3438 160.474 10.3438C159.607 10.3438 158.935 10.582 158.458 11.0586C157.982 11.5273 157.744 12.1953 157.744 13.0625V14.7148C157.744 15.6055 157.978 16.293 158.447 16.7773C158.923 17.2539 159.599 17.4922 160.474 17.4922C160.951 17.4922 161.404 17.3945 161.833 17.1992C162.263 17.0039 162.634 16.7266 162.947 16.3672L164.845 18.2656C164.533 18.6719 164.146 19.0195 163.685 19.3086C163.232 19.5898 162.716 19.8047 162.138 19.9531C161.568 20.1016 160.962 20.1758 160.322 20.1758ZM167.247 7.83594H170.048V20H167.247V7.83594ZM174.454 12.6289C174.454 11.9023 174.259 11.3398 173.869 10.9414C173.478 10.543 172.923 10.3438 172.204 10.3438C171.517 10.3438 170.986 10.5312 170.611 10.9062C170.236 11.2734 170.048 11.7969 170.048 12.4766L169.802 9.95703C170.169 9.20703 170.63 8.63672 171.185 8.24609C171.747 7.85547 172.408 7.66016 173.165 7.66016C174.462 7.66016 175.466 8.09375 176.177 8.96094C176.896 9.82031 177.255 11.0391 177.255 12.6172V20H174.454V12.6289ZM180.572 2.96094H183.361V5.76172H180.572V2.96094ZM180.572 7.83594H183.361V20H180.572V7.83594ZM191.704 20.1758C190.572 20.1758 189.603 19.9648 188.798 19.543C187.994 19.1133 187.38 18.4922 186.958 17.6797C186.536 16.8594 186.326 15.8711 186.326 14.7148V13.0625C186.326 11.9219 186.536 10.9492 186.958 10.1445C187.38 9.33203 187.994 8.71484 188.798 8.29297C189.603 7.87109 190.572 7.66016 191.704 7.66016C192.353 7.66016 192.962 7.73828 193.533 7.89453C194.111 8.04297 194.626 8.26172 195.079 8.55078C195.54 8.83984 195.923 9.19141 196.228 9.60547L194.329 11.3867C194.009 11.0508 193.634 10.793 193.204 10.6133C192.775 10.4336 192.326 10.3438 191.857 10.3438C190.99 10.3438 190.318 10.582 189.841 11.0586C189.365 11.5273 189.126 12.1953 189.126 13.0625V14.7148C189.126 15.6055 189.361 16.293 189.829 16.7773C190.306 17.2539 190.982 17.4922 191.857 17.4922C192.333 17.4922 192.786 17.3945 193.216 17.1992C193.646 17.0039 194.017 16.7266 194.329 16.3672L196.228 18.2656C195.915 18.6719 195.529 19.0195 195.068 19.3086C194.615 19.5898 194.099 19.8047 193.521 19.9531C192.951 20.1016 192.345 20.1758 191.704 20.1758ZM205.415 12.2891C205.415 11.6094 205.212 11.082 204.806 10.707C204.408 10.332 203.841 10.1445 203.107 10.1445C202.638 10.1445 202.177 10.2188 201.724 10.3672C201.271 10.5156 200.865 10.7227 200.505 10.9883L198.642 9.41797C199.119 8.86328 199.744 8.43359 200.517 8.12891C201.29 7.81641 202.15 7.66016 203.095 7.66016C204.126 7.66016 205.009 7.83984 205.744 8.19922C206.478 8.55078 207.036 9.06641 207.419 9.74609C207.81 10.418 208.005 11.2305 208.005 12.1836V20H205.415V12.2891ZM202.228 20.1758C200.829 20.1758 199.783 19.8672 199.087 19.25C198.392 18.625 198.044 17.6797 198.044 16.4141C198.044 15.2109 198.396 14.3086 199.099 13.707C199.802 13.1055 200.857 12.8047 202.263 12.8047H205.521L205.685 14.9844H202.275C201.72 14.9844 201.302 15.1016 201.021 15.3359C200.747 15.5703 200.611 15.9297 200.611 16.4141C200.611 16.9219 200.79 17.3008 201.15 17.5508C201.509 17.793 202.052 17.9141 202.779 17.9141C203.669 17.9141 204.329 17.8164 204.759 17.6211C205.197 17.4258 205.415 17.1211 205.415 16.707L205.661 18.4414C205.529 18.8242 205.294 19.1445 204.958 19.4023C204.63 19.6602 204.232 19.8555 203.763 19.9883C203.294 20.1133 202.783 20.1758 202.228 20.1758ZM225.958 12.5586V15.2305H217.849V12.5586H225.958ZM241.275 20.1758C240.454 20.1758 239.665 20.0977 238.908 19.9414C238.158 19.7773 237.451 19.5391 236.786 19.2266C236.13 18.9141 235.529 18.5273 234.982 18.0664L236.47 15.8281C237.126 16.3828 237.861 16.8047 238.673 17.0938C239.494 17.375 240.361 17.5156 241.275 17.5156C242.415 17.5156 243.298 17.3125 243.923 16.9062C244.556 16.5 244.872 15.9258 244.872 15.1836V15.1719C244.872 14.6484 244.732 14.2344 244.451 13.9297C244.169 13.6172 243.802 13.3906 243.349 13.25C242.896 13.1016 242.314 12.9648 241.603 12.8398C241.579 12.832 241.556 12.8281 241.533 12.8281C241.509 12.8281 241.486 12.8242 241.462 12.8164L241.251 12.7812C240.111 12.5938 239.173 12.3711 238.439 12.1133C237.704 11.8555 237.079 11.3945 236.564 10.7305C236.048 10.0664 235.79 9.125 235.79 7.90625V7.89453C235.79 6.81641 236.033 5.89453 236.517 5.12891C237.001 4.36328 237.704 3.78125 238.626 3.38281C239.548 2.98438 240.658 2.78516 241.954 2.78516C242.564 2.78516 243.173 2.85547 243.783 2.99609C244.4 3.12891 245.001 3.32812 245.587 3.59375C246.181 3.85156 246.755 4.17578 247.31 4.56641L245.951 6.875C245.294 6.40625 244.626 6.05078 243.947 5.80859C243.267 5.56641 242.603 5.44531 241.954 5.44531C240.876 5.44531 240.04 5.64453 239.447 6.04297C238.861 6.43359 238.568 6.98828 238.568 7.70703V7.71875C238.568 8.25781 238.72 8.68359 239.025 8.99609C239.329 9.30859 239.708 9.53906 240.161 9.6875C240.622 9.82812 241.263 9.98047 242.083 10.1445C242.115 10.1523 242.142 10.1602 242.165 10.168C242.197 10.168 242.228 10.1719 242.259 10.1797C242.298 10.1875 242.341 10.1953 242.388 10.2031C242.435 10.2109 242.478 10.2188 242.517 10.2266C243.572 10.4375 244.451 10.6914 245.154 10.9883C245.865 11.2852 246.458 11.7617 246.935 12.418C247.411 13.0742 247.65 13.9688 247.65 15.1016V15.125C247.65 16.1875 247.4 17.0977 246.9 17.8555C246.4 18.6133 245.673 19.1914 244.72 19.5898C243.767 19.9805 242.619 20.1758 241.275 20.1758ZM250.591 7.83594H253.392V24.9453H250.591V7.83594ZM256.333 20.1758C255.599 20.1758 254.962 19.9961 254.423 19.6367C253.884 19.2695 253.486 18.7539 253.228 18.0898L253.392 15.4297C253.392 15.8906 253.474 16.2852 253.638 16.6133C253.802 16.9336 254.04 17.1797 254.353 17.3516C254.665 17.5234 255.044 17.6094 255.49 17.6094C256.185 17.6094 256.724 17.3906 257.107 16.9531C257.49 16.5156 257.681 15.8945 257.681 15.0898V12.8047C257.681 11.9844 257.49 11.3516 257.107 10.9062C256.724 10.4531 256.185 10.2266 255.49 10.2266C255.044 10.2266 254.665 10.3125 254.353 10.4844C254.04 10.6484 253.802 10.8945 253.638 11.2227C253.474 11.5508 253.392 11.9453 253.392 12.4062L253.146 9.88672C253.49 9.17578 253.943 8.62891 254.505 8.24609C255.076 7.85547 255.704 7.66016 256.392 7.66016C257.251 7.66016 257.986 7.85938 258.595 8.25781C259.212 8.65625 259.681 9.24219 260.001 10.0156C260.322 10.7812 260.482 11.707 260.482 12.793V15.0898C260.482 16.1602 260.318 17.0781 259.99 17.8438C259.669 18.6016 259.197 19.1797 258.572 19.5781C257.947 19.9766 257.201 20.1758 256.333 20.1758ZM263.646 7.83594H266.564V20H263.646V7.83594ZM270.419 10.9648C270.232 10.7617 270.001 10.6094 269.728 10.5078C269.454 10.3984 269.138 10.3438 268.779 10.3438C268.076 10.3438 267.529 10.5547 267.138 10.9766C266.755 11.3906 266.564 11.9688 266.564 12.7109L266.318 9.95703C266.669 9.23047 267.126 8.66797 267.689 8.26953C268.259 7.86328 268.884 7.66016 269.564 7.66016C270.095 7.66016 270.576 7.74219 271.005 7.90625C271.435 8.0625 271.81 8.29688 272.13 8.60938L270.419 10.9648ZM273.806 2.96094H276.595V5.76172H273.806V2.96094ZM273.806 7.83594H276.595V20H273.806V7.83594ZM279.911 7.83594H282.712V20H279.911V7.83594ZM287.119 12.6289C287.119 11.9023 286.923 11.3398 286.533 10.9414C286.142 10.543 285.587 10.3438 284.869 10.3438C284.181 10.3438 283.65 10.5312 283.275 10.9062C282.9 11.2734 282.712 11.7969 282.712 12.4766L282.466 9.95703C282.833 9.20703 283.294 8.63672 283.849 8.24609C284.411 7.85547 285.072 7.66016 285.829 7.66016C287.126 7.66016 288.13 8.09375 288.841 8.96094C289.56 9.82031 289.919 11.0391 289.919 12.6172V20H287.119V12.6289ZM297.513 24.9453C296.576 24.9453 295.736 24.7734 294.994 24.4297C294.251 24.0938 293.673 23.6172 293.259 23L295.146 21.2773C295.435 21.6445 295.783 21.9258 296.189 22.1211C296.603 22.3164 297.033 22.4141 297.478 22.4141C298.275 22.4141 298.904 22.1953 299.365 21.7578C299.826 21.3281 300.056 20.7188 300.056 19.9297V7.83594H302.857V19.6367C302.857 20.7539 302.646 21.7109 302.224 22.5078C301.81 23.3047 301.201 23.9102 300.396 24.3242C299.599 24.7383 298.638 24.9453 297.513 24.9453ZM297.115 20.1992C296.24 20.1992 295.49 20 294.865 19.6016C294.247 19.1953 293.775 18.6133 293.447 17.8555C293.126 17.0898 292.966 16.168 292.966 15.0898V12.7695C292.966 11.6914 293.126 10.7695 293.447 10.0039C293.767 9.23047 294.232 8.64453 294.841 8.24609C295.458 7.83984 296.197 7.63672 297.056 7.63672C297.744 7.63672 298.369 7.82812 298.931 8.21094C299.501 8.59375 299.958 9.13281 300.302 9.82812L300.056 12.418C300.056 11.9492 299.974 11.5508 299.81 11.2227C299.646 10.8945 299.408 10.6445 299.095 10.4727C298.783 10.3008 298.404 10.2148 297.958 10.2148C297.263 10.2148 296.724 10.4414 296.341 10.8945C295.958 11.3477 295.767 11.9805 295.767 12.793V15.0898C295.767 15.8945 295.958 16.5195 296.341 16.9648C296.724 17.4023 297.263 17.6211 297.958 17.6211C298.404 17.6211 298.783 17.5352 299.095 17.3633C299.408 17.1836 299.646 16.9297 299.81 16.6016C299.974 16.2734 300.056 15.8789 300.056 15.418L300.22 18.0898C299.978 18.7227 299.587 19.2344 299.048 19.625C298.517 20.0078 297.872 20.1992 297.115 20.1992ZM315.326 4.35547H318.115V20H315.326V4.35547ZM310.591 2.96094H322.849V5.64453H310.591V2.96094ZM324.255 2.96094H327.056V20H324.255V2.96094ZM331.462 12.6289C331.462 11.9023 331.267 11.3398 330.876 10.9414C330.486 10.543 329.931 10.3438 329.212 10.3438C328.525 10.3438 327.994 10.5273 327.619 10.8945C327.244 11.2617 327.056 11.7812 327.056 12.4531L326.81 9.93359C327.177 9.19922 327.638 8.63672 328.193 8.24609C328.755 7.85547 329.415 7.66016 330.173 7.66016C331.47 7.66016 332.474 8.09375 333.185 8.96094C333.904 9.82031 334.263 11.0391 334.263 12.6172V20H331.462V12.6289ZM347.025 7.83594L341.728 22.8477C341.533 23.4023 341.283 23.8398 340.978 24.1602C340.681 24.4883 340.31 24.7227 339.865 24.8633C339.419 25.0039 338.872 25.0742 338.224 25.0742H337.626V22.3672H338.224C338.622 22.3672 338.943 22.2852 339.185 22.1211C339.435 21.957 339.638 21.6797 339.794 21.2891L344.294 7.83594H347.025ZM336.021 7.83594H338.751L342.665 18.4062L340.99 20.9961L336.021 7.83594ZM363.267 12.8047C363.267 12.0156 363.072 11.4102 362.681 10.9883C362.29 10.5586 361.736 10.3438 361.017 10.3438C360.337 10.3438 359.81 10.5508 359.435 10.9648C359.068 11.3711 358.884 11.9531 358.884 12.7109L358.345 10.1328C358.728 9.34375 359.228 8.73438 359.845 8.30469C360.47 7.875 361.161 7.66016 361.919 7.66016C362.794 7.66016 363.54 7.85938 364.158 8.25781C364.783 8.65625 365.255 9.24219 365.576 10.0156C365.904 10.7812 366.068 11.707 366.068 12.793V20H363.267V12.8047ZM348.911 7.83594H351.712V20H348.911V7.83594ZM356.095 12.8047C356.095 12.0156 355.9 11.4102 355.509 10.9883C355.126 10.5586 354.579 10.3438 353.869 10.3438C353.181 10.3438 352.65 10.5312 352.275 10.9062C351.9 11.2734 351.712 11.7969 351.712 12.4766L351.466 9.95703C351.833 9.21484 352.302 8.64844 352.872 8.25781C353.443 7.85938 354.095 7.66016 354.829 7.66016C355.681 7.66016 356.411 7.85938 357.021 8.25781C357.63 8.65625 358.091 9.24219 358.404 10.0156C358.724 10.7812 358.884 11.707 358.884 12.793V20H356.095V12.8047ZM374.564 20.1758C373.415 20.1758 372.435 19.9648 371.622 19.543C370.81 19.1211 370.189 18.5039 369.759 17.6914C369.329 16.8711 369.115 15.8828 369.115 14.7266V13.3555C369.115 12.1523 369.318 11.125 369.724 10.2734C370.138 9.42188 370.736 8.77344 371.517 8.32812C372.306 7.88281 373.251 7.66016 374.353 7.66016C375.392 7.66016 376.279 7.92187 377.013 8.44531C377.755 8.96094 378.318 9.71094 378.701 10.6953C379.091 11.6797 379.286 12.8672 379.286 14.2578V15.0547H371.025V13.0039H376.685L376.673 12.875C376.595 12.0234 376.357 11.3633 375.958 10.8945C375.56 10.4258 375.025 10.1914 374.353 10.1914C373.509 10.1914 372.857 10.457 372.396 10.9883C371.935 11.5117 371.704 12.2578 371.704 13.2266V14.7734C371.704 15.6953 371.954 16.4062 372.454 16.9062C372.954 17.3984 373.658 17.6445 374.564 17.6445C375.025 17.6445 375.478 17.5586 375.923 17.3867C376.376 17.207 376.783 16.9609 377.142 16.6484L378.97 18.3594C378.353 18.9375 377.658 19.3867 376.884 19.707C376.119 20.0195 375.345 20.1758 374.564 20.1758ZM385.134 16.4258C385.134 16.7227 385.208 16.9531 385.357 17.1172C385.505 17.2734 385.716 17.3516 385.99 17.3516H386.822V20.0352H385.298C384.361 20.0352 383.63 19.7539 383.107 19.1914C382.591 18.6289 382.333 17.8359 382.333 16.8125V2.96094H385.134V16.4258ZM394.392 20.1758C393.244 20.1758 392.263 19.9648 391.451 19.543C390.638 19.1211 390.017 18.5039 389.587 17.6914C389.158 16.8711 388.943 15.8828 388.943 14.7266V13.3555C388.943 12.1523 389.146 11.125 389.552 10.2734C389.966 9.42188 390.564 8.77344 391.345 8.32812C392.134 7.88281 393.079 7.66016 394.181 7.66016C395.22 7.66016 396.107 7.92187 396.841 8.44531C397.583 8.96094 398.146 9.71094 398.529 10.6953C398.919 11.6797 399.115 12.8672 399.115 14.2578V15.0547H390.853V13.0039H396.513L396.501 12.875C396.423 12.0234 396.185 11.3633 395.786 10.8945C395.388 10.4258 394.853 10.1914 394.181 10.1914C393.337 10.1914 392.685 10.457 392.224 10.9883C391.763 11.5117 391.533 12.2578 391.533 13.2266V14.7734C391.533 15.6953 391.783 16.4062 392.283 16.9062C392.783 17.3984 393.486 17.6445 394.392 17.6445C394.853 17.6445 395.306 17.5586 395.751 17.3867C396.204 17.207 396.611 16.9609 396.97 16.6484L398.798 18.3594C398.181 18.9375 397.486 19.3867 396.712 19.707C395.947 20.0195 395.173 20.1758 394.392 20.1758ZM408.947 12.2891C408.947 11.6094 408.744 11.082 408.337 10.707C407.939 10.332 407.372 10.1445 406.638 10.1445C406.169 10.1445 405.708 10.2188 405.255 10.3672C404.802 10.5156 404.396 10.7227 404.036 10.9883L402.173 9.41797C402.65 8.86328 403.275 8.43359 404.048 8.12891C404.822 7.81641 405.681 7.66016 406.626 7.66016C407.658 7.66016 408.54 7.83984 409.275 8.19922C410.009 8.55078 410.568 9.06641 410.951 9.74609C411.341 10.418 411.536 11.2305 411.536 12.1836V20H408.947V12.2891ZM405.759 20.1758C404.361 20.1758 403.314 19.8672 402.619 19.25C401.923 18.625 401.576 17.6797 401.576 16.4141C401.576 15.2109 401.927 14.3086 402.63 13.707C403.333 13.1055 404.388 12.8047 405.794 12.8047H409.052L409.216 14.9844H405.806C405.251 14.9844 404.833 15.1016 404.552 15.3359C404.279 15.5703 404.142 15.9297 404.142 16.4141C404.142 16.9219 404.322 17.3008 404.681 17.5508C405.04 17.793 405.583 17.9141 406.31 17.9141C407.201 17.9141 407.861 17.8164 408.29 17.6211C408.728 17.4258 408.947 17.1211 408.947 16.707L409.193 18.4414C409.06 18.8242 408.826 19.1445 408.49 19.4023C408.161 19.6602 407.763 19.8555 407.294 19.9883C406.826 20.1133 406.314 20.1758 405.759 20.1758ZM415.286 6.18359C415.286 5.10547 415.533 4.30078 416.025 3.76953C416.525 3.23047 417.29 2.96094 418.322 2.96094H420.314V5.52734H418.779C418.552 5.52734 418.38 5.61328 418.263 5.78516C418.146 5.95703 418.087 6.17969 418.087 6.45312V20H415.286V6.18359ZM413.997 7.83594H420.314V10.2266H413.997V7.83594Z" fill="#F1F5F9"/>
</svg>
