<svg width="315" height="21" viewBox="0 0 315 21" fill="none" xmlns="http://www.w3.org/2000/svg">
<path d="M6.93884 2.96094H8.97791L15.3763 20H12.3646L7.95837 7.30859L3.55212 20H0.540405L6.93884 2.96094ZM3.55212 14.082H12.517V16.7656H3.55212V14.082ZM21.9623 20.1758C21.2357 20.1758 20.5443 20.1094 19.8881 19.9766C19.2318 19.8359 18.6146 19.6328 18.0365 19.3672C17.4662 19.1016 16.9506 18.7773 16.4896 18.3945L18.1888 16.2852C18.806 16.7227 19.4349 17.0547 20.0756 17.2812C20.724 17.5078 21.3529 17.6211 21.9623 17.6211C22.8138 17.6211 23.4584 17.5078 23.8959 17.2812C24.3412 17.0469 24.5638 16.7109 24.5638 16.2734C24.5638 15.9375 24.4545 15.6875 24.2357 15.5234C24.017 15.3516 23.7396 15.2344 23.4037 15.1719C23.0756 15.1094 22.6107 15.0508 22.0092 14.9961C21.9076 14.9883 21.8021 14.9805 21.6927 14.9727C21.5834 14.9648 21.4779 14.9531 21.3763 14.9375C21.3451 14.9375 21.3138 14.9375 21.2826 14.9375C21.2513 14.9297 21.2201 14.9258 21.1888 14.9258C20.3373 14.832 19.6381 14.7031 19.0912 14.5391C18.5443 14.3672 18.0834 14.043 17.7084 13.5664C17.3412 13.0898 17.1576 12.4062 17.1576 11.5156C17.1576 10.6797 17.3412 9.97656 17.7084 9.40625C18.0834 8.82812 18.6302 8.39453 19.349 8.10547C20.0677 7.80859 20.9506 7.66016 21.9974 7.66016C22.6224 7.66016 23.2318 7.72266 23.8256 7.84766C24.4193 7.96484 24.9857 8.14062 25.5248 8.375C26.0717 8.60156 26.5873 8.88672 27.0717 9.23047L25.3959 11.2695C24.8256 10.9258 24.2474 10.6641 23.6615 10.4844C23.0834 10.3047 22.5209 10.2148 21.974 10.2148C21.2396 10.2148 20.681 10.3203 20.2982 10.5312C19.9154 10.7422 19.724 11.0547 19.724 11.4688C19.724 11.7344 19.8295 11.9375 20.0404 12.0781C20.2513 12.2188 20.5131 12.3164 20.8256 12.3711C21.1459 12.418 21.6068 12.4688 22.2084 12.5234C22.2709 12.5312 22.3295 12.5391 22.3842 12.5469C22.4467 12.5469 22.5092 12.5508 22.5717 12.5586C22.5951 12.5586 22.6224 12.5586 22.6537 12.5586C22.6849 12.5586 22.7162 12.5625 22.7474 12.5703C23.6459 12.6562 24.392 12.7852 24.9857 12.957C25.5795 13.1289 26.0834 13.4727 26.4974 13.9883C26.9115 14.4961 27.1185 15.2383 27.1185 16.2148C27.1185 17.0742 26.9232 17.8008 26.5326 18.3945C26.142 18.9805 25.5599 19.4258 24.7865 19.7305C24.0209 20.0273 23.0795 20.1758 21.9623 20.1758ZM34.4076 20.1758C33.681 20.1758 32.9896 20.1094 32.3334 19.9766C31.6771 19.8359 31.0599 19.6328 30.4818 19.3672C29.9115 19.1016 29.3959 18.7773 28.9349 18.3945L30.6342 16.2852C31.2513 16.7227 31.8802 17.0547 32.5209 17.2812C33.1693 17.5078 33.7982 17.6211 34.4076 17.6211C35.2592 17.6211 35.9037 17.5078 36.3412 17.2812C36.7865 17.0469 37.0092 16.7109 37.0092 16.2734C37.0092 15.9375 36.8998 15.6875 36.681 15.5234C36.4623 15.3516 36.1849 15.2344 35.849 15.1719C35.5209 15.1094 35.056 15.0508 34.4545 14.9961C34.3529 14.9883 34.2474 14.9805 34.1381 14.9727C34.0287 14.9648 33.9232 14.9531 33.8217 14.9375C33.7904 14.9375 33.7592 14.9375 33.7279 14.9375C33.6967 14.9297 33.6654 14.9258 33.6342 14.9258C32.7826 14.832 32.0834 14.7031 31.5365 14.5391C30.9896 14.3672 30.5287 14.043 30.1537 13.5664C29.7865 13.0898 29.6029 12.4062 29.6029 11.5156C29.6029 10.6797 29.7865 9.97656 30.1537 9.40625C30.5287 8.82812 31.0756 8.39453 31.7943 8.10547C32.5131 7.80859 33.3959 7.66016 34.4427 7.66016C35.0677 7.66016 35.6771 7.72266 36.2709 7.84766C36.8646 7.96484 37.431 8.14062 37.9701 8.375C38.517 8.60156 39.0326 8.88672 39.517 9.23047L37.8412 11.2695C37.2709 10.9258 36.6927 10.6641 36.1068 10.4844C35.5287 10.3047 34.9662 10.2148 34.4193 10.2148C33.6849 10.2148 33.1263 10.3203 32.7435 10.5312C32.3607 10.7422 32.1693 11.0547 32.1693 11.4688C32.1693 11.7344 32.2748 11.9375 32.4857 12.0781C32.6967 12.2188 32.9584 12.3164 33.2709 12.3711C33.5912 12.418 34.0521 12.4688 34.6537 12.5234C34.7162 12.5312 34.7748 12.5391 34.8295 12.5469C34.892 12.5469 34.9545 12.5508 35.017 12.5586C35.0404 12.5586 35.0677 12.5586 35.099 12.5586C35.1302 12.5586 35.1615 12.5625 35.1927 12.5703C36.0912 12.6562 36.8373 12.7852 37.431 12.957C38.0248 13.1289 38.5287 13.4727 38.9427 13.9883C39.3568 14.4961 39.5638 15.2383 39.5638 16.2148C39.5638 17.0742 39.3685 17.8008 38.9779 18.3945C38.5873 18.9805 38.0052 19.4258 37.2318 19.7305C36.4662 20.0273 35.5248 20.1758 34.4076 20.1758ZM42.2943 2.96094H45.0834V5.76172H42.2943V2.96094ZM42.2943 7.83594H45.0834V20H42.2943V7.83594ZM52.8763 20.1758C52.1498 20.1758 51.4584 20.1094 50.8021 19.9766C50.1459 19.8359 49.5287 19.6328 48.9506 19.3672C48.3802 19.1016 47.8646 18.7773 47.4037 18.3945L49.1029 16.2852C49.7201 16.7227 50.349 17.0547 50.9896 17.2812C51.6381 17.5078 52.267 17.6211 52.8763 17.6211C53.7279 17.6211 54.3724 17.5078 54.8099 17.2812C55.2552 17.0469 55.4779 16.7109 55.4779 16.2734C55.4779 15.9375 55.3685 15.6875 55.1498 15.5234C54.931 15.3516 54.6537 15.2344 54.3177 15.1719C53.9896 15.1094 53.5248 15.0508 52.9232 14.9961C52.8217 14.9883 52.7162 14.9805 52.6068 14.9727C52.4974 14.9648 52.392 14.9531 52.2904 14.9375C52.2592 14.9375 52.2279 14.9375 52.1967 14.9375C52.1654 14.9297 52.1342 14.9258 52.1029 14.9258C51.2513 14.832 50.5521 14.7031 50.0052 14.5391C49.4584 14.3672 48.9974 14.043 48.6224 13.5664C48.2552 13.0898 48.0717 12.4062 48.0717 11.5156C48.0717 10.6797 48.2552 9.97656 48.6224 9.40625C48.9974 8.82812 49.5443 8.39453 50.2631 8.10547C50.9818 7.80859 51.8646 7.66016 52.9115 7.66016C53.5365 7.66016 54.1459 7.72266 54.7396 7.84766C55.3334 7.96484 55.8998 8.14062 56.4388 8.375C56.9857 8.60156 57.5013 8.88672 57.9857 9.23047L56.3099 11.2695C55.7396 10.9258 55.1615 10.6641 54.5756 10.4844C53.9974 10.3047 53.4349 10.2148 52.8881 10.2148C52.1537 10.2148 51.5951 10.3203 51.2123 10.5312C50.8295 10.7422 50.6381 11.0547 50.6381 11.4688C50.6381 11.7344 50.7435 11.9375 50.9545 12.0781C51.1654 12.2188 51.4271 12.3164 51.7396 12.3711C52.0599 12.418 52.5209 12.4688 53.1224 12.5234C53.1849 12.5312 53.2435 12.5391 53.2982 12.5469C53.3607 12.5469 53.4232 12.5508 53.4857 12.5586C53.5092 12.5586 53.5365 12.5586 53.5677 12.5586C53.599 12.5586 53.6302 12.5625 53.6615 12.5703C54.5599 12.6562 55.306 12.7852 55.8998 12.957C56.4935 13.1289 56.9974 13.4727 57.4115 13.9883C57.8256 14.4961 58.0326 15.2383 58.0326 16.2148C58.0326 17.0742 57.8373 17.8008 57.4467 18.3945C57.056 18.9805 56.474 19.4258 55.7006 19.7305C54.9349 20.0273 53.9935 20.1758 52.8763 20.1758ZM64.1263 20.0586C63.1029 20.0586 62.3529 19.7891 61.8763 19.25C61.3998 18.7031 61.1615 17.8984 61.1615 16.8359V4.29688H63.9623V16.4492C63.9623 16.7461 64.0209 16.9766 64.1381 17.1406C64.2552 17.2969 64.4271 17.375 64.6537 17.375H65.6263V20.0586H64.1263ZM59.9076 7.83594H65.6263V10.2852H59.9076V7.83594ZM73.7709 20.1758C72.6224 20.1758 71.642 19.9648 70.8295 19.543C70.017 19.1211 69.3959 18.5039 68.9662 17.6914C68.5365 16.8711 68.3217 15.8828 68.3217 14.7266V13.3555C68.3217 12.1523 68.5248 11.125 68.931 10.2734C69.3451 9.42188 69.9427 8.77344 70.724 8.32812C71.5131 7.88281 72.4584 7.66016 73.5599 7.66016C74.599 7.66016 75.4857 7.92187 76.2201 8.44531C76.9623 8.96094 77.5248 9.71094 77.9076 10.6953C78.2982 11.6797 78.4935 12.8672 78.4935 14.2578V15.0547H70.2318V13.0039H75.892L75.8802 12.875C75.8021 12.0234 75.5638 11.3633 75.1654 10.8945C74.767 10.4258 74.2318 10.1914 73.5599 10.1914C72.7162 10.1914 72.0638 10.457 71.6029 10.9883C71.142 11.5117 70.9115 12.2578 70.9115 13.2266V14.7734C70.9115 15.6953 71.1615 16.4062 71.6615 16.9062C72.1615 17.3984 72.8646 17.6445 73.7709 17.6445C74.2318 17.6445 74.6849 17.5586 75.1302 17.3867C75.5834 17.207 75.9896 16.9609 76.349 16.6484L78.1771 18.3594C77.5599 18.9375 76.8646 19.3867 76.0912 19.707C75.3256 20.0195 74.5521 20.1758 73.7709 20.1758ZM77.3568 4.40234L75.7865 5.84375L73.4427 3.61719L71.099 5.84375L69.5287 4.40234L73.4427 0.675781L77.3568 4.40234ZM81.5404 7.83594H84.3412V20H81.5404V7.83594ZM88.7474 12.6289C88.7474 11.9023 88.5521 11.3398 88.1615 10.9414C87.7709 10.543 87.2162 10.3438 86.4974 10.3438C85.8099 10.3438 85.2787 10.5312 84.9037 10.9062C84.5287 11.2734 84.3412 11.7969 84.3412 12.4766L84.0951 9.95703C84.4623 9.20703 84.9232 8.63672 85.4779 8.24609C86.0404 7.85547 86.7006 7.66016 87.4584 7.66016C88.7552 7.66016 89.7592 8.09375 90.4701 8.96094C91.1888 9.82031 91.5482 11.0391 91.5482 12.6172V20H88.7474V12.6289ZM99.974 20.1758C98.8412 20.1758 97.8724 19.9648 97.0677 19.543C96.2631 19.1133 95.6498 18.4922 95.2279 17.6797C94.806 16.8594 94.5951 15.8711 94.5951 14.7148V13.0625C94.5951 11.9219 94.806 10.9492 95.2279 10.1445C95.6498 9.33203 96.2631 8.71484 97.0677 8.29297C97.8724 7.87109 98.8412 7.66016 99.974 7.66016C100.622 7.66016 101.232 7.73828 101.802 7.89453C102.38 8.04297 102.896 8.26172 103.349 8.55078C103.81 8.83984 104.193 9.19141 104.497 9.60547L102.599 11.3867C102.279 11.0508 101.904 10.793 101.474 10.6133C101.044 10.4336 100.595 10.3438 100.126 10.3438C99.2592 10.3438 98.5873 10.582 98.1107 11.0586C97.6342 11.5273 97.3959 12.1953 97.3959 13.0625V14.7148C97.3959 15.6055 97.6302 16.293 98.099 16.7773C98.5756 17.2539 99.2513 17.4922 100.126 17.4922C100.603 17.4922 101.056 17.3945 101.486 17.1992C101.915 17.0039 102.286 16.7266 102.599 16.3672L104.497 18.2656C104.185 18.6719 103.798 19.0195 103.337 19.3086C102.884 19.5898 102.369 19.8047 101.79 19.9531C101.22 20.1016 100.615 20.1758 99.974 20.1758ZM106.818 2.96094H109.607V5.76172H106.818V2.96094ZM106.818 7.83594H109.607V20H106.818V7.83594ZM119.708 12.2891C119.708 11.6094 119.505 11.082 119.099 10.707C118.701 10.332 118.134 10.1445 117.4 10.1445C116.931 10.1445 116.47 10.2188 116.017 10.3672C115.564 10.5156 115.158 10.7227 114.798 10.9883L112.935 9.41797C113.411 8.86328 114.036 8.43359 114.81 8.12891C115.583 7.81641 116.443 7.66016 117.388 7.66016C118.419 7.66016 119.302 7.83984 120.036 8.19922C120.771 8.55078 121.329 9.06641 121.712 9.74609C122.103 10.418 122.298 11.2305 122.298 12.1836V20H119.708V12.2891ZM116.521 20.1758C115.122 20.1758 114.076 19.8672 113.38 19.25C112.685 18.625 112.337 17.6797 112.337 16.4141C112.337 15.2109 112.689 14.3086 113.392 13.707C114.095 13.1055 115.15 12.8047 116.556 12.8047H119.814L119.978 14.9844H116.568C116.013 14.9844 115.595 15.1016 115.314 15.3359C115.04 15.5703 114.904 15.9297 114.904 16.4141C114.904 16.9219 115.083 17.3008 115.443 17.5508C115.802 17.793 116.345 17.9141 117.072 17.9141C117.962 17.9141 118.622 17.8164 119.052 17.6211C119.49 17.4258 119.708 17.1211 119.708 16.707L119.954 18.4414C119.822 18.8242 119.587 19.1445 119.251 19.4023C118.923 19.6602 118.525 19.8555 118.056 19.9883C117.587 20.1133 117.076 20.1758 116.521 20.1758ZM134.767 4.35547H137.556V20H134.767V4.35547ZM130.033 2.96094H142.29V5.64453H130.033V2.96094ZM147.505 20.1758C146.357 20.1758 145.376 19.9648 144.564 19.543C143.751 19.1211 143.13 18.5039 142.701 17.6914C142.271 16.8711 142.056 15.8828 142.056 14.7266V13.3555C142.056 12.1523 142.259 11.125 142.665 10.2734C143.079 9.42188 143.677 8.77344 144.458 8.32812C145.247 7.88281 146.193 7.66016 147.294 7.66016C148.333 7.66016 149.22 7.92187 149.954 8.44531C150.697 8.96094 151.259 9.71094 151.642 10.6953C152.033 11.6797 152.228 12.8672 152.228 14.2578V15.0547H143.966V13.0039H149.626L149.615 12.875C149.536 12.0234 149.298 11.3633 148.9 10.8945C148.501 10.4258 147.966 10.1914 147.294 10.1914C146.451 10.1914 145.798 10.457 145.337 10.9883C144.876 11.5117 144.646 12.2578 144.646 13.2266V14.7734C144.646 15.6953 144.896 16.4062 145.396 16.9062C145.896 17.3984 146.599 17.6445 147.505 17.6445C147.966 17.6445 148.419 17.5586 148.865 17.3867C149.318 17.207 149.724 16.9609 150.083 16.6484L151.911 18.3594C151.294 18.9375 150.599 19.3867 149.826 19.707C149.06 20.0195 148.286 20.1758 147.505 20.1758ZM145.63 4.40234L148.982 0.242188L150.962 1.90625L147.388 5.84375L145.63 4.40234ZM160.302 20.1758C159.169 20.1758 158.201 19.9648 157.396 19.543C156.591 19.1133 155.978 18.4922 155.556 17.6797C155.134 16.8594 154.923 15.8711 154.923 14.7148V13.0625C154.923 11.9219 155.134 10.9492 155.556 10.1445C155.978 9.33203 156.591 8.71484 157.396 8.29297C158.201 7.87109 159.169 7.66016 160.302 7.66016C160.951 7.66016 161.56 7.73828 162.13 7.89453C162.708 8.04297 163.224 8.26172 163.677 8.55078C164.138 8.83984 164.521 9.19141 164.826 9.60547L162.927 11.3867C162.607 11.0508 162.232 10.793 161.802 10.6133C161.372 10.4336 160.923 10.3438 160.454 10.3438C159.587 10.3438 158.915 10.582 158.439 11.0586C157.962 11.5273 157.724 12.1953 157.724 13.0625V14.7148C157.724 15.6055 157.958 16.293 158.427 16.7773C158.904 17.2539 159.579 17.4922 160.454 17.4922C160.931 17.4922 161.384 17.3945 161.814 17.1992C162.244 17.0039 162.615 16.7266 162.927 16.3672L164.826 18.2656C164.513 18.6719 164.126 19.0195 163.665 19.3086C163.212 19.5898 162.697 19.8047 162.119 19.9531C161.548 20.1016 160.943 20.1758 160.302 20.1758ZM167.228 7.83594H170.029V20H167.228V7.83594ZM174.435 12.6289C174.435 11.9023 174.24 11.3398 173.849 10.9414C173.458 10.543 172.904 10.3438 172.185 10.3438C171.497 10.3438 170.966 10.5312 170.591 10.9062C170.216 11.2734 170.029 11.7969 170.029 12.4766L169.783 9.95703C170.15 9.20703 170.611 8.63672 171.165 8.24609C171.728 7.85547 172.388 7.66016 173.146 7.66016C174.443 7.66016 175.447 8.09375 176.158 8.96094C176.876 9.82031 177.236 11.0391 177.236 12.6172V20H174.435V12.6289ZM180.552 2.96094H183.341V5.76172H180.552V2.96094ZM180.552 7.83594H183.341V20H180.552V7.83594ZM191.685 20.1758C190.552 20.1758 189.583 19.9648 188.779 19.543C187.974 19.1133 187.361 18.4922 186.939 17.6797C186.517 16.8594 186.306 15.8711 186.306 14.7148V13.0625C186.306 11.9219 186.517 10.9492 186.939 10.1445C187.361 9.33203 187.974 8.71484 188.779 8.29297C189.583 7.87109 190.552 7.66016 191.685 7.66016C192.333 7.66016 192.943 7.73828 193.513 7.89453C194.091 8.04297 194.607 8.26172 195.06 8.55078C195.521 8.83984 195.904 9.19141 196.208 9.60547L194.31 11.3867C193.99 11.0508 193.615 10.793 193.185 10.6133C192.755 10.4336 192.306 10.3438 191.837 10.3438C190.97 10.3438 190.298 10.582 189.822 11.0586C189.345 11.5273 189.107 12.1953 189.107 13.0625V14.7148C189.107 15.6055 189.341 16.293 189.81 16.7773C190.286 17.2539 190.962 17.4922 191.837 17.4922C192.314 17.4922 192.767 17.3945 193.197 17.1992C193.626 17.0039 193.997 16.7266 194.31 16.3672L196.208 18.2656C195.896 18.6719 195.509 19.0195 195.048 19.3086C194.595 19.5898 194.079 19.8047 193.501 19.9531C192.931 20.1016 192.326 20.1758 191.685 20.1758ZM205.396 12.2891C205.396 11.6094 205.193 11.082 204.786 10.707C204.388 10.332 203.822 10.1445 203.087 10.1445C202.619 10.1445 202.158 10.2188 201.704 10.3672C201.251 10.5156 200.845 10.7227 200.486 10.9883L198.622 9.41797C199.099 8.86328 199.724 8.43359 200.497 8.12891C201.271 7.81641 202.13 7.66016 203.076 7.66016C204.107 7.66016 204.99 7.83984 205.724 8.19922C206.458 8.55078 207.017 9.06641 207.4 9.74609C207.79 10.418 207.986 11.2305 207.986 12.1836V20H205.396V12.2891ZM202.208 20.1758C200.81 20.1758 199.763 19.8672 199.068 19.25C198.372 18.625 198.025 17.6797 198.025 16.4141C198.025 15.2109 198.376 14.3086 199.079 13.707C199.783 13.1055 200.837 12.8047 202.244 12.8047H205.501L205.665 14.9844H202.255C201.701 14.9844 201.283 15.1016 201.001 15.3359C200.728 15.5703 200.591 15.9297 200.591 16.4141C200.591 16.9219 200.771 17.3008 201.13 17.5508C201.49 17.793 202.033 17.9141 202.759 17.9141C203.65 17.9141 204.31 17.8164 204.74 17.6211C205.177 17.4258 205.396 17.1211 205.396 16.707L205.642 18.4414C205.509 18.8242 205.275 19.1445 204.939 19.4023C204.611 19.6602 204.212 19.8555 203.744 19.9883C203.275 20.1133 202.763 20.1758 202.208 20.1758ZM225.939 12.5586V15.2305H217.829V12.5586H225.939ZM236.017 2.96094H238.818V20H236.017V2.96094ZM237.329 17.3164H247.197V20H237.329V17.3164ZM256.326 12.2891C256.326 11.6094 256.122 11.082 255.716 10.707C255.318 10.332 254.751 10.1445 254.017 10.1445C253.548 10.1445 253.087 10.2188 252.634 10.3672C252.181 10.5156 251.775 10.7227 251.415 10.9883L249.552 9.41797C250.029 8.86328 250.654 8.43359 251.427 8.12891C252.201 7.81641 253.06 7.66016 254.005 7.66016C255.036 7.66016 255.919 7.83984 256.654 8.19922C257.388 8.55078 257.947 9.06641 258.329 9.74609C258.72 10.418 258.915 11.2305 258.915 12.1836V20H256.326V12.2891ZM253.138 20.1758C251.74 20.1758 250.693 19.8672 249.997 19.25C249.302 18.625 248.954 17.6797 248.954 16.4141C248.954 15.2109 249.306 14.3086 250.009 13.707C250.712 13.1055 251.767 12.8047 253.173 12.8047H256.431L256.595 14.9844H253.185C252.63 14.9844 252.212 15.1016 251.931 15.3359C251.658 15.5703 251.521 15.9297 251.521 16.4141C251.521 16.9219 251.701 17.3008 252.06 17.5508C252.419 17.793 252.962 17.9141 253.689 17.9141C254.579 17.9141 255.24 17.8164 255.669 17.6211C256.107 17.4258 256.326 17.1211 256.326 16.707L256.572 18.4414C256.439 18.8242 256.204 19.1445 255.869 19.4023C255.54 19.6602 255.142 19.8555 254.673 19.9883C254.204 20.1133 253.693 20.1758 253.138 20.1758ZM262.314 7.83594H265.232V20H262.314V7.83594ZM269.087 10.9648C268.9 10.7617 268.669 10.6094 268.396 10.5078C268.122 10.3984 267.806 10.3438 267.447 10.3438C266.744 10.3438 266.197 10.5547 265.806 10.9766C265.423 11.3906 265.232 11.9688 265.232 12.7109L264.986 9.95703C265.337 9.23047 265.794 8.66797 266.357 8.26953C266.927 7.86328 267.552 7.66016 268.232 7.66016C268.763 7.66016 269.244 7.74219 269.673 7.90625C270.103 8.0625 270.478 8.29688 270.798 8.60938L269.087 10.9648ZM279.341 12.2891C279.341 11.6094 279.138 11.082 278.732 10.707C278.333 10.332 277.767 10.1445 277.033 10.1445C276.564 10.1445 276.103 10.2188 275.65 10.3672C275.197 10.5156 274.79 10.7227 274.431 10.9883L272.568 9.41797C273.044 8.86328 273.669 8.43359 274.443 8.12891C275.216 7.81641 276.076 7.66016 277.021 7.66016C278.052 7.66016 278.935 7.83984 279.669 8.19922C280.404 8.55078 280.962 9.06641 281.345 9.74609C281.736 10.418 281.931 11.2305 281.931 12.1836V20H279.341V12.2891ZM276.154 20.1758C274.755 20.1758 273.708 19.8672 273.013 19.25C272.318 18.625 271.97 17.6797 271.97 16.4141C271.97 15.2109 272.322 14.3086 273.025 13.707C273.728 13.1055 274.783 12.8047 276.189 12.8047H279.447L279.611 14.9844H276.201C275.646 14.9844 275.228 15.1016 274.947 15.3359C274.673 15.5703 274.536 15.9297 274.536 16.4141C274.536 16.9219 274.716 17.3008 275.076 17.5508C275.435 17.793 275.978 17.9141 276.704 17.9141C277.595 17.9141 278.255 17.8164 278.685 17.6211C279.122 17.4258 279.341 17.1211 279.341 16.707L279.587 18.4414C279.454 18.8242 279.22 19.1445 278.884 19.4023C278.556 19.6602 278.158 19.8555 277.689 19.9883C277.22 20.1133 276.708 20.1758 276.154 20.1758ZM292.021 7.83594H294.869L290.298 20H288.259L283.689 7.83594H286.536L289.279 15.9922L292.021 7.83594ZM301.841 20.1758C300.693 20.1758 299.712 19.9648 298.9 19.543C298.087 19.1211 297.466 18.5039 297.036 17.6914C296.607 16.8711 296.392 15.8828 296.392 14.7266V13.3555C296.392 12.1523 296.595 11.125 297.001 10.2734C297.415 9.42188 298.013 8.77344 298.794 8.32812C299.583 7.88281 300.529 7.66016 301.63 7.66016C302.669 7.66016 303.556 7.92187 304.29 8.44531C305.033 8.96094 305.595 9.71094 305.978 10.6953C306.369 11.6797 306.564 12.8672 306.564 14.2578V15.0547H298.302V13.0039H303.962L303.951 12.875C303.872 12.0234 303.634 11.3633 303.236 10.8945C302.837 10.4258 302.302 10.1914 301.63 10.1914C300.786 10.1914 300.134 10.457 299.673 10.9883C299.212 11.5117 298.982 12.2578 298.982 13.2266V14.7734C298.982 15.6953 299.232 16.4062 299.732 16.9062C300.232 17.3984 300.935 17.6445 301.841 17.6445C302.302 17.6445 302.755 17.5586 303.201 17.3867C303.654 17.207 304.06 16.9609 304.419 16.6484L306.247 18.3594C305.63 18.9375 304.935 19.3867 304.161 19.707C303.396 20.0195 302.622 20.1758 301.841 20.1758ZM312.411 16.4258C312.411 16.7227 312.486 16.9531 312.634 17.1172C312.783 17.2734 312.994 17.3516 313.267 17.3516H314.099V20.0352H312.576C311.638 20.0352 310.908 19.7539 310.384 19.1914C309.869 18.6289 309.611 17.8359 309.611 16.8125V2.96094H312.411V16.4258Z" fill="#F1F5F9"/>
</svg>
