<svg width="561" height="34" viewBox="0 0 561 34" fill="none" xmlns="http://www.w3.org/2000/svg">
<path d="M9.11072 4.28125H11.8295L20.3607 27H16.3451L10.4701 10.0781L4.59509 27H0.579468L9.11072 4.28125ZM4.59509 19.1094H16.5482V22.6875H4.59509V19.1094ZM29.142 27.2344C28.1732 27.2344 27.2513 27.1458 26.3763 26.9688C25.5013 26.7812 24.6784 26.5104 23.9076 26.1562C23.1472 25.8021 22.4597 25.3698 21.8451 24.8594L24.1107 22.0469C24.9336 22.6302 25.7722 23.0729 26.6263 23.375C27.4909 23.6771 28.3295 23.8281 29.142 23.8281C30.2774 23.8281 31.1368 23.6771 31.7201 23.375C32.3138 23.0625 32.6107 22.6146 32.6107 22.0312C32.6107 21.5833 32.4649 21.25 32.1732 21.0312C31.8816 20.8021 31.5118 20.6458 31.0638 20.5625C30.6263 20.4792 30.0066 20.401 29.2045 20.3281C29.0691 20.3177 28.9284 20.3073 28.7826 20.2969C28.6368 20.2865 28.4961 20.2708 28.3607 20.25C28.3191 20.25 28.2774 20.25 28.2357 20.25C28.1941 20.2396 28.1524 20.2344 28.1107 20.2344C26.9753 20.1094 26.043 19.9375 25.3138 19.7188C24.5847 19.4896 23.9701 19.0573 23.4701 18.4219C22.9805 17.7865 22.7357 16.875 22.7357 15.6875C22.7357 14.5729 22.9805 13.6354 23.4701 12.875C23.9701 12.1042 24.6993 11.526 25.6576 11.1406C26.6159 10.7448 27.793 10.5469 29.1888 10.5469C30.0222 10.5469 30.8347 10.6302 31.6263 10.7969C32.418 10.9531 33.1732 11.1875 33.892 11.5C34.6211 11.8021 35.3086 12.1823 35.9545 12.6406L33.7201 15.3594C32.9597 14.901 32.1888 14.5521 31.4076 14.3125C30.6368 14.0729 29.8868 13.9531 29.1576 13.9531C28.1784 13.9531 27.4336 14.0938 26.9232 14.375C26.4128 14.6562 26.1576 15.0729 26.1576 15.625C26.1576 15.9792 26.2982 16.25 26.5795 16.4375C26.8607 16.625 27.2097 16.7552 27.6263 16.8281C28.0534 16.8906 28.668 16.9583 29.4701 17.0312C29.5534 17.0417 29.6316 17.0521 29.7045 17.0625C29.7878 17.0625 29.8711 17.0677 29.9545 17.0781C29.9857 17.0781 30.0222 17.0781 30.0638 17.0781C30.1055 17.0781 30.1472 17.0833 30.1888 17.0938C31.3868 17.2083 32.3816 17.3802 33.1732 17.6094C33.9649 17.8385 34.6368 18.2969 35.1888 18.9844C35.7409 19.6615 36.017 20.651 36.017 21.9531C36.017 23.099 35.7566 24.0677 35.2357 24.8594C34.7149 25.6406 33.9388 26.2344 32.9076 26.6406C31.8868 27.0365 30.6316 27.2344 29.142 27.2344ZM45.7357 27.2344C44.767 27.2344 43.8451 27.1458 42.9701 26.9688C42.0951 26.7812 41.2722 26.5104 40.5013 26.1562C39.7409 25.8021 39.0534 25.3698 38.4388 24.8594L40.7045 22.0469C41.5274 22.6302 42.3659 23.0729 43.2201 23.375C44.0847 23.6771 44.9232 23.8281 45.7357 23.8281C46.8711 23.8281 47.7305 23.6771 48.3138 23.375C48.9076 23.0625 49.2045 22.6146 49.2045 22.0312C49.2045 21.5833 49.0586 21.25 48.767 21.0312C48.4753 20.8021 48.1055 20.6458 47.6576 20.5625C47.2201 20.4792 46.6003 20.401 45.7982 20.3281C45.6628 20.3177 45.5222 20.3073 45.3763 20.2969C45.2305 20.2865 45.0899 20.2708 44.9545 20.25C44.9128 20.25 44.8711 20.25 44.8295 20.25C44.7878 20.2396 44.7461 20.2344 44.7045 20.2344C43.5691 20.1094 42.6368 19.9375 41.9076 19.7188C41.1784 19.4896 40.5638 19.0573 40.0638 18.4219C39.5743 17.7865 39.3295 16.875 39.3295 15.6875C39.3295 14.5729 39.5743 13.6354 40.0638 12.875C40.5638 12.1042 41.293 11.526 42.2513 11.1406C43.2097 10.7448 44.3868 10.5469 45.7826 10.5469C46.6159 10.5469 47.4284 10.6302 48.2201 10.7969C49.0118 10.9531 49.767 11.1875 50.4857 11.5C51.2149 11.8021 51.9024 12.1823 52.5482 12.6406L50.3138 15.3594C49.5534 14.901 48.7826 14.5521 48.0013 14.3125C47.2305 14.0729 46.4805 13.9531 45.7513 13.9531C44.7722 13.9531 44.0274 14.0938 43.517 14.375C43.0066 14.6562 42.7513 15.0729 42.7513 15.625C42.7513 15.9792 42.892 16.25 43.1732 16.4375C43.4545 16.625 43.8034 16.7552 44.2201 16.8281C44.6472 16.8906 45.2618 16.9583 46.0638 17.0312C46.1472 17.0417 46.2253 17.0521 46.2982 17.0625C46.3816 17.0625 46.4649 17.0677 46.5482 17.0781C46.5795 17.0781 46.6159 17.0781 46.6576 17.0781C46.6993 17.0781 46.7409 17.0833 46.7826 17.0938C47.9805 17.2083 48.9753 17.3802 49.767 17.6094C50.5586 17.8385 51.2305 18.2969 51.7826 18.9844C52.3347 19.6615 52.6107 20.651 52.6107 21.9531C52.6107 23.099 52.3503 24.0677 51.8295 24.8594C51.3086 25.6406 50.5326 26.2344 49.5013 26.6406C48.4805 27.0365 47.2253 27.2344 45.7357 27.2344ZM56.2513 4.28125H59.9701V8.01562H56.2513V4.28125ZM56.2513 10.7812H59.9701V27H56.2513V10.7812ZM70.3607 27.2344C69.392 27.2344 68.4701 27.1458 67.5951 26.9688C66.7201 26.7812 65.8972 26.5104 65.1263 26.1562C64.3659 25.8021 63.6784 25.3698 63.0638 24.8594L65.3295 22.0469C66.1524 22.6302 66.9909 23.0729 67.8451 23.375C68.7097 23.6771 69.5482 23.8281 70.3607 23.8281C71.4961 23.8281 72.3555 23.6771 72.9388 23.375C73.5326 23.0625 73.8295 22.6146 73.8295 22.0312C73.8295 21.5833 73.6836 21.25 73.392 21.0312C73.1003 20.8021 72.7305 20.6458 72.2826 20.5625C71.8451 20.4792 71.2253 20.401 70.4232 20.3281C70.2878 20.3177 70.1472 20.3073 70.0013 20.2969C69.8555 20.2865 69.7149 20.2708 69.5795 20.25C69.5378 20.25 69.4961 20.25 69.4545 20.25C69.4128 20.2396 69.3711 20.2344 69.3295 20.2344C68.1941 20.1094 67.2618 19.9375 66.5326 19.7188C65.8034 19.4896 65.1888 19.0573 64.6888 18.4219C64.1993 17.7865 63.9545 16.875 63.9545 15.6875C63.9545 14.5729 64.1993 13.6354 64.6888 12.875C65.1888 12.1042 65.918 11.526 66.8763 11.1406C67.8347 10.7448 69.0118 10.5469 70.4076 10.5469C71.2409 10.5469 72.0534 10.6302 72.8451 10.7969C73.6368 10.9531 74.392 11.1875 75.1107 11.5C75.8399 11.8021 76.5274 12.1823 77.1732 12.6406L74.9388 15.3594C74.1784 14.901 73.4076 14.5521 72.6263 14.3125C71.8555 14.0729 71.1055 13.9531 70.3763 13.9531C69.3972 13.9531 68.6524 14.0938 68.142 14.375C67.6316 14.6562 67.3763 15.0729 67.3763 15.625C67.3763 15.9792 67.517 16.25 67.7982 16.4375C68.0795 16.625 68.4284 16.7552 68.8451 16.8281C69.2722 16.8906 69.8868 16.9583 70.6888 17.0312C70.7722 17.0417 70.8503 17.0521 70.9232 17.0625C71.0066 17.0625 71.0899 17.0677 71.1732 17.0781C71.2045 17.0781 71.2409 17.0781 71.2826 17.0781C71.3243 17.0781 71.3659 17.0833 71.4076 17.0938C72.6055 17.2083 73.6003 17.3802 74.392 17.6094C75.1836 17.8385 75.8555 18.2969 76.4076 18.9844C76.9597 19.6615 77.2357 20.651 77.2357 21.9531C77.2357 23.099 76.9753 24.0677 76.4545 24.8594C75.9336 25.6406 75.1576 26.2344 74.1263 26.6406C73.1055 27.0365 71.8503 27.2344 70.3607 27.2344ZM85.3607 27.0781C83.9961 27.0781 82.9961 26.7188 82.3607 26C81.7253 25.2708 81.4076 24.1979 81.4076 22.7812V6.0625H85.142V22.2656C85.142 22.6615 85.2201 22.9688 85.3763 23.1875C85.5326 23.3958 85.7618 23.5 86.0638 23.5H87.3607V27.0781H85.3607ZM79.7357 10.7812H87.3607V14.0469H79.7357V10.7812ZM98.2201 27.2344C96.6888 27.2344 95.3816 26.9531 94.2982 26.3906C93.2149 25.8281 92.3868 25.0052 91.8138 23.9219C91.2409 22.8281 90.9545 21.5104 90.9545 19.9688V18.1406C90.9545 16.5365 91.2253 15.1667 91.767 14.0312C92.3191 12.8958 93.1159 12.0312 94.1576 11.4375C95.2097 10.8438 96.4701 10.5469 97.9388 10.5469C99.3243 10.5469 100.507 10.8958 101.486 11.5938C102.475 12.2812 103.225 13.2812 103.736 14.5938C104.257 15.9062 104.517 17.4896 104.517 19.3438V20.4062H93.5013V17.6719H101.048L101.033 17.5C100.928 16.3646 100.611 15.4844 100.079 14.8594C99.5482 14.2344 98.8347 13.9219 97.9388 13.9219C96.8138 13.9219 95.9441 14.276 95.3295 14.9844C94.7149 15.6823 94.4076 16.6771 94.4076 17.9688V20.0312C94.4076 21.2604 94.7409 22.2083 95.4076 22.875C96.0743 23.5312 97.0118 23.8594 98.2201 23.8594C98.8347 23.8594 99.4388 23.7448 100.033 23.5156C100.637 23.276 101.178 22.9479 101.658 22.5312L104.095 24.8125C103.272 25.5833 102.345 26.1823 101.314 26.6094C100.293 27.026 99.2618 27.2344 98.2201 27.2344ZM103.001 6.20312L100.908 8.125L97.7826 5.15625L94.6576 8.125L92.5638 6.20312L97.7826 1.23438L103.001 6.20312ZM108.579 10.7812H112.314V27H108.579V10.7812ZM118.189 17.1719C118.189 16.2031 117.928 15.4531 117.408 14.9219C116.887 14.3906 116.147 14.125 115.189 14.125C114.272 14.125 113.564 14.375 113.064 14.875C112.564 15.3646 112.314 16.0625 112.314 16.9688L111.986 13.6094C112.475 12.6094 113.09 11.849 113.829 11.3281C114.579 10.8073 115.46 10.5469 116.47 10.5469C118.199 10.5469 119.538 11.125 120.486 12.2812C121.444 13.4271 121.923 15.0521 121.923 17.1562V27H118.189V17.1719ZM133.158 27.2344C131.647 27.2344 130.356 26.9531 129.283 26.3906C128.21 25.8177 127.392 24.9896 126.829 23.9062C126.267 22.8125 125.986 21.4948 125.986 19.9531V17.75C125.986 16.2292 126.267 14.9323 126.829 13.8594C127.392 12.776 128.21 11.9531 129.283 11.3906C130.356 10.8281 131.647 10.5469 133.158 10.5469C134.022 10.5469 134.835 10.651 135.595 10.8594C136.366 11.0573 137.053 11.349 137.658 11.7344C138.272 12.1198 138.783 12.5885 139.189 13.1406L136.658 15.5156C136.231 15.0677 135.731 14.724 135.158 14.4844C134.585 14.2448 133.986 14.125 133.361 14.125C132.204 14.125 131.309 14.4427 130.673 15.0781C130.038 15.7031 129.72 16.5938 129.72 17.75V19.9531C129.72 21.1406 130.033 22.0573 130.658 22.7031C131.293 23.3385 132.194 23.6562 133.361 23.6562C133.996 23.6562 134.6 23.526 135.173 23.2656C135.746 23.0052 136.241 22.6354 136.658 22.1562L139.189 24.6875C138.772 25.2292 138.257 25.6927 137.642 26.0781C137.038 26.4531 136.35 26.7396 135.579 26.9375C134.819 27.1354 134.012 27.2344 133.158 27.2344ZM142.283 4.28125H146.001V8.01562H142.283V4.28125ZM142.283 10.7812H146.001V27H142.283V10.7812ZM159.47 16.7188C159.47 15.8125 159.199 15.1094 158.658 14.6094C158.126 14.1094 157.371 13.8594 156.392 13.8594C155.767 13.8594 155.152 13.9583 154.548 14.1562C153.944 14.3542 153.402 14.6302 152.923 14.9844L150.439 12.8906C151.074 12.151 151.908 11.5781 152.939 11.1719C153.97 10.7552 155.116 10.5469 156.376 10.5469C157.751 10.5469 158.928 10.7865 159.908 11.2656C160.887 11.7344 161.632 12.4219 162.142 13.3281C162.663 14.224 162.923 15.3073 162.923 16.5781V27H159.47V16.7188ZM155.22 27.2344C153.356 27.2344 151.96 26.8229 151.033 26C150.106 25.1667 149.642 23.9062 149.642 22.2188C149.642 20.6146 150.111 19.4115 151.048 18.6094C151.986 17.8073 153.392 17.4062 155.267 17.4062H159.611L159.829 20.3125H155.283C154.543 20.3125 153.986 20.4688 153.611 20.7812C153.246 21.0938 153.064 21.5729 153.064 22.2188C153.064 22.8958 153.303 23.401 153.783 23.7344C154.262 24.0573 154.986 24.2188 155.954 24.2188C157.142 24.2188 158.022 24.0885 158.595 23.8281C159.178 23.5677 159.47 23.1615 159.47 22.6094L159.798 24.9219C159.621 25.4323 159.309 25.8594 158.861 26.2031C158.423 26.5469 157.892 26.8073 157.267 26.9844C156.642 27.151 155.96 27.2344 155.22 27.2344ZM179.548 6.14062H183.267V27H179.548V6.14062ZM173.236 4.28125H189.579V7.85938H173.236V4.28125ZM196.533 27.2344C195.001 27.2344 193.694 26.9531 192.611 26.3906C191.527 25.8281 190.699 25.0052 190.126 23.9219C189.553 22.8281 189.267 21.5104 189.267 19.9688V18.1406C189.267 16.5365 189.538 15.1667 190.079 14.0312C190.632 12.8958 191.428 12.0312 192.47 11.4375C193.522 10.8438 194.783 10.5469 196.251 10.5469C197.637 10.5469 198.819 10.8958 199.798 11.5938C200.788 12.2812 201.538 13.2812 202.048 14.5938C202.569 15.9062 202.829 17.4896 202.829 19.3438V20.4062H191.814V17.6719H199.361L199.345 17.5C199.241 16.3646 198.923 15.4844 198.392 14.8594C197.861 14.2344 197.147 13.9219 196.251 13.9219C195.126 13.9219 194.257 14.276 193.642 14.9844C193.027 15.6823 192.72 16.6771 192.72 17.9688V20.0312C192.72 21.2604 193.053 22.2083 193.72 22.875C194.387 23.5312 195.324 23.8594 196.533 23.8594C197.147 23.8594 197.751 23.7448 198.345 23.5156C198.949 23.276 199.491 22.9479 199.97 22.5312L202.408 24.8125C201.585 25.5833 200.658 26.1823 199.626 26.6094C198.606 27.026 197.574 27.2344 196.533 27.2344ZM194.033 6.20312L198.501 0.65625L201.142 2.875L196.376 8.125L194.033 6.20312ZM213.595 27.2344C212.085 27.2344 210.793 26.9531 209.72 26.3906C208.647 25.8177 207.829 24.9896 207.267 23.9062C206.704 22.8125 206.423 21.4948 206.423 19.9531V17.75C206.423 16.2292 206.704 14.9323 207.267 13.8594C207.829 12.776 208.647 11.9531 209.72 11.3906C210.793 10.8281 212.085 10.5469 213.595 10.5469C214.46 10.5469 215.272 10.651 216.033 10.8594C216.803 11.0573 217.491 11.349 218.095 11.7344C218.71 12.1198 219.22 12.5885 219.626 13.1406L217.095 15.5156C216.668 15.0677 216.168 14.724 215.595 14.4844C215.022 14.2448 214.423 14.125 213.798 14.125C212.642 14.125 211.746 14.4427 211.111 15.0781C210.475 15.7031 210.158 16.5938 210.158 17.75V19.9531C210.158 21.1406 210.47 22.0573 211.095 22.7031C211.731 23.3385 212.632 23.6562 213.798 23.6562C214.434 23.6562 215.038 23.526 215.611 23.2656C216.184 23.0052 216.678 22.6354 217.095 22.1562L219.626 24.6875C219.21 25.2292 218.694 25.6927 218.079 26.0781C217.475 26.4531 216.788 26.7396 216.017 26.9375C215.257 27.1354 214.449 27.2344 213.595 27.2344ZM222.829 10.7812H226.564V27H222.829V10.7812ZM232.439 17.1719C232.439 16.2031 232.178 15.4531 231.658 14.9219C231.137 14.3906 230.397 14.125 229.439 14.125C228.522 14.125 227.814 14.375 227.314 14.875C226.814 15.3646 226.564 16.0625 226.564 16.9688L226.236 13.6094C226.725 12.6094 227.34 11.849 228.079 11.3281C228.829 10.8073 229.71 10.5469 230.72 10.5469C232.449 10.5469 233.788 11.125 234.736 12.2812C235.694 13.4271 236.173 15.0521 236.173 17.1562V27H232.439V17.1719ZM240.595 4.28125H244.314V8.01562H240.595V4.28125ZM240.595 10.7812H244.314V27H240.595V10.7812ZM255.439 27.2344C253.928 27.2344 252.637 26.9531 251.564 26.3906C250.491 25.8177 249.673 24.9896 249.111 23.9062C248.548 22.8125 248.267 21.4948 248.267 19.9531V17.75C248.267 16.2292 248.548 14.9323 249.111 13.8594C249.673 12.776 250.491 11.9531 251.564 11.3906C252.637 10.8281 253.928 10.5469 255.439 10.5469C256.303 10.5469 257.116 10.651 257.876 10.8594C258.647 11.0573 259.335 11.349 259.939 11.7344C260.553 12.1198 261.064 12.5885 261.47 13.1406L258.939 15.5156C258.512 15.0677 258.012 14.724 257.439 14.4844C256.866 14.2448 256.267 14.125 255.642 14.125C254.486 14.125 253.59 14.4427 252.954 15.0781C252.319 15.7031 252.001 16.5938 252.001 17.75V19.9531C252.001 21.1406 252.314 22.0573 252.939 22.7031C253.574 23.3385 254.475 23.6562 255.642 23.6562C256.277 23.6562 256.882 23.526 257.454 23.2656C258.027 23.0052 258.522 22.6354 258.939 22.1562L261.47 24.6875C261.053 25.2292 260.538 25.6927 259.923 26.0781C259.319 26.4531 258.632 26.7396 257.861 26.9375C257.1 27.1354 256.293 27.2344 255.439 27.2344ZM273.72 16.7188C273.72 15.8125 273.449 15.1094 272.908 14.6094C272.376 14.1094 271.621 13.8594 270.642 13.8594C270.017 13.8594 269.402 13.9583 268.798 14.1562C268.194 14.3542 267.652 14.6302 267.173 14.9844L264.689 12.8906C265.324 12.151 266.158 11.5781 267.189 11.1719C268.22 10.7552 269.366 10.5469 270.626 10.5469C272.001 10.5469 273.178 10.7865 274.158 11.2656C275.137 11.7344 275.882 12.4219 276.392 13.3281C276.913 14.224 277.173 15.3073 277.173 16.5781V27H273.72V16.7188ZM269.47 27.2344C267.606 27.2344 266.21 26.8229 265.283 26C264.356 25.1667 263.892 23.9062 263.892 22.2188C263.892 20.6146 264.361 19.4115 265.298 18.6094C266.236 17.8073 267.642 17.4062 269.517 17.4062H273.861L274.079 20.3125H269.533C268.793 20.3125 268.236 20.4688 267.861 20.7812C267.496 21.0938 267.314 21.5729 267.314 22.2188C267.314 22.8958 267.553 23.401 268.033 23.7344C268.512 24.0573 269.236 24.2188 270.204 24.2188C271.392 24.2188 272.272 24.0885 272.845 23.8281C273.428 23.5677 273.72 23.1615 273.72 22.6094L274.048 24.9219C273.871 25.4323 273.559 25.8594 273.111 26.2031C272.673 26.5469 272.142 26.8073 271.517 26.9844C270.892 27.151 270.21 27.2344 269.47 27.2344ZM301.111 17.0781V20.6406H290.298V17.0781H301.111ZM321.533 27.2344C320.439 27.2344 319.387 27.1302 318.376 26.9219C317.376 26.7031 316.434 26.3854 315.548 25.9688C314.673 25.5521 313.871 25.0365 313.142 24.4219L315.126 21.4375C316.001 22.1771 316.981 22.7396 318.064 23.125C319.158 23.5 320.314 23.6875 321.533 23.6875C323.053 23.6875 324.231 23.4167 325.064 22.875C325.908 22.3333 326.329 21.5677 326.329 20.5781V20.5625C326.329 19.8646 326.142 19.3125 325.767 18.9062C325.392 18.4896 324.902 18.1875 324.298 18C323.694 17.8021 322.918 17.6198 321.97 17.4531C321.939 17.4427 321.908 17.4375 321.876 17.4375C321.845 17.4375 321.814 17.4323 321.783 17.4219L321.501 17.375C319.981 17.125 318.731 16.8281 317.751 16.4844C316.772 16.1406 315.939 15.526 315.251 14.6406C314.564 13.7552 314.22 12.5 314.22 10.875V10.8594C314.22 9.42188 314.543 8.19271 315.189 7.17188C315.835 6.15104 316.772 5.375 318.001 4.84375C319.231 4.3125 320.71 4.04688 322.439 4.04688C323.251 4.04688 324.064 4.14062 324.876 4.32812C325.699 4.50521 326.501 4.77083 327.283 5.125C328.074 5.46875 328.84 5.90104 329.579 6.42188L327.767 9.5C326.892 8.875 326.001 8.40104 325.095 8.07812C324.189 7.75521 323.303 7.59375 322.439 7.59375C321.001 7.59375 319.887 7.85938 319.095 8.39062C318.314 8.91146 317.923 9.65104 317.923 10.6094V10.625C317.923 11.3438 318.126 11.9115 318.533 12.3281C318.939 12.7448 319.444 13.0521 320.048 13.25C320.663 13.4375 321.517 13.6406 322.611 13.8594C322.652 13.8698 322.689 13.8802 322.72 13.8906C322.762 13.8906 322.803 13.8958 322.845 13.9062C322.897 13.9167 322.954 13.9271 323.017 13.9375C323.079 13.9479 323.137 13.9583 323.189 13.9688C324.595 14.25 325.767 14.5885 326.704 14.9844C327.652 15.3802 328.444 16.0156 329.079 16.8906C329.715 17.7656 330.033 18.9583 330.033 20.4688V20.5C330.033 21.9167 329.699 23.1302 329.033 24.1406C328.366 25.151 327.397 25.9219 326.126 26.4531C324.856 26.974 323.324 27.2344 321.533 27.2344ZM333.954 10.7812H337.689V33.5938H333.954V10.7812ZM341.611 27.2344C340.632 27.2344 339.783 26.9948 339.064 26.5156C338.345 26.026 337.814 25.3385 337.47 24.4531L337.689 20.9062C337.689 21.5208 337.798 22.0469 338.017 22.4844C338.236 22.9115 338.553 23.2396 338.97 23.4688C339.387 23.6979 339.892 23.8125 340.486 23.8125C341.413 23.8125 342.132 23.5208 342.642 22.9375C343.152 22.3542 343.408 21.526 343.408 20.4531V17.4062C343.408 16.3125 343.152 15.4688 342.642 14.875C342.132 14.2708 341.413 13.9688 340.486 13.9688C339.892 13.9688 339.387 14.0833 338.97 14.3125C338.553 14.5312 338.236 14.8594 338.017 15.2969C337.798 15.7344 337.689 16.2604 337.689 16.875L337.361 13.5156C337.819 12.5677 338.423 11.8385 339.173 11.3281C339.934 10.8073 340.772 10.5469 341.689 10.5469C342.835 10.5469 343.814 10.8125 344.626 11.3438C345.449 11.875 346.074 12.6562 346.501 13.6875C346.928 14.7083 347.142 15.9427 347.142 17.3906V20.4531C347.142 21.8802 346.923 23.1042 346.486 24.125C346.059 25.1354 345.428 25.9062 344.595 26.4375C343.762 26.9688 342.767 27.2344 341.611 27.2344ZM351.361 10.7812H355.251V27H351.361V10.7812ZM360.392 14.9531C360.142 14.6823 359.835 14.4792 359.47 14.3438C359.106 14.1979 358.684 14.125 358.204 14.125C357.267 14.125 356.538 14.4062 356.017 14.9688C355.507 15.5208 355.251 16.2917 355.251 17.2812L354.923 13.6094C355.392 12.6406 356.001 11.8906 356.751 11.3594C357.512 10.8177 358.345 10.5469 359.251 10.5469C359.96 10.5469 360.6 10.6562 361.173 10.875C361.746 11.0833 362.246 11.3958 362.673 11.8125L360.392 14.9531ZM364.908 4.28125H368.626V8.01562H364.908V4.28125ZM364.908 10.7812H368.626V27H364.908V10.7812ZM373.048 10.7812H376.783V27H373.048V10.7812ZM382.658 17.1719C382.658 16.2031 382.397 15.4531 381.876 14.9219C381.356 14.3906 380.616 14.125 379.658 14.125C378.741 14.125 378.033 14.375 377.533 14.875C377.033 15.3646 376.783 16.0625 376.783 16.9688L376.454 13.6094C376.944 12.6094 377.559 11.849 378.298 11.3281C379.048 10.8073 379.928 10.5469 380.939 10.5469C382.668 10.5469 384.007 11.125 384.954 12.2812C385.913 13.4271 386.392 15.0521 386.392 17.1562V27H382.658V17.1719ZM396.517 33.5938C395.267 33.5938 394.147 33.3646 393.158 32.9062C392.168 32.4583 391.397 31.8229 390.845 31L393.361 28.7031C393.746 29.1927 394.21 29.5677 394.751 29.8281C395.303 30.0885 395.876 30.2188 396.47 30.2188C397.533 30.2188 398.371 29.9271 398.986 29.3438C399.6 28.7708 399.908 27.9583 399.908 26.9062V10.7812H403.642V26.5156C403.642 28.0052 403.361 29.2812 402.798 30.3438C402.246 31.4062 401.434 32.2135 400.361 32.7656C399.298 33.3177 398.017 33.5938 396.517 33.5938ZM395.986 27.2656C394.819 27.2656 393.819 27 392.986 26.4688C392.163 25.9271 391.533 25.151 391.095 24.1406C390.668 23.1198 390.454 21.8906 390.454 20.4531V17.3594C390.454 15.9219 390.668 14.6927 391.095 13.6719C391.522 12.6406 392.142 11.8594 392.954 11.3281C393.777 10.7865 394.762 10.5156 395.908 10.5156C396.824 10.5156 397.658 10.7708 398.408 11.2812C399.168 11.7917 399.777 12.5104 400.236 13.4375L399.908 16.8906C399.908 16.2656 399.798 15.7344 399.579 15.2969C399.361 14.8594 399.043 14.526 398.626 14.2969C398.21 14.0677 397.704 13.9531 397.111 13.9531C396.184 13.9531 395.465 14.2552 394.954 14.8594C394.444 15.4635 394.189 16.3073 394.189 17.3906V20.4531C394.189 21.526 394.444 22.3594 394.954 22.9531C395.465 23.5365 396.184 23.8281 397.111 23.8281C397.704 23.8281 398.21 23.7135 398.626 23.4844C399.043 23.2448 399.361 22.9062 399.579 22.4688C399.798 22.0312 399.908 21.5052 399.908 20.8906L400.126 24.4531C399.803 25.2969 399.283 25.9792 398.564 26.5C397.856 27.0104 396.996 27.2656 395.986 27.2656ZM420.267 6.14062H423.986V27H420.267V6.14062ZM413.954 4.28125H430.298V7.85938H413.954V4.28125ZM432.173 4.28125H435.908V27H432.173V4.28125ZM441.783 17.1719C441.783 16.2031 441.522 15.4531 441.001 14.9219C440.481 14.3906 439.741 14.125 438.783 14.125C437.866 14.125 437.158 14.3698 436.658 14.8594C436.158 15.349 435.908 16.0417 435.908 16.9375L435.579 13.5781C436.069 12.599 436.684 11.849 437.423 11.3281C438.173 10.8073 439.053 10.5469 440.064 10.5469C441.793 10.5469 443.132 11.125 444.079 12.2812C445.038 13.4271 445.517 15.0521 445.517 17.1562V27H441.783V17.1719ZM462.533 10.7812L455.47 30.7969C455.21 31.5365 454.876 32.1198 454.47 32.5469C454.074 32.9844 453.579 33.2969 452.986 33.4844C452.392 33.6719 451.663 33.7656 450.798 33.7656H450.001V30.1562H450.798C451.329 30.1562 451.757 30.0469 452.079 29.8281C452.413 29.6094 452.684 29.2396 452.892 28.7188L458.892 10.7812H462.533ZM447.861 10.7812H451.501L456.72 24.875L454.486 28.3281L447.861 10.7812ZM484.189 17.4062C484.189 16.3542 483.928 15.5469 483.408 14.9844C482.887 14.4115 482.147 14.125 481.189 14.125C480.283 14.125 479.579 14.401 479.079 14.9531C478.59 15.4948 478.345 16.2708 478.345 17.2812L477.626 13.8438C478.137 12.7917 478.803 11.9792 479.626 11.4062C480.46 10.8333 481.382 10.5469 482.392 10.5469C483.559 10.5469 484.553 10.8125 485.376 11.3438C486.21 11.875 486.84 12.6562 487.267 13.6875C487.704 14.7083 487.923 15.9427 487.923 17.3906V27H484.189V17.4062ZM465.048 10.7812H468.783V27H465.048V10.7812ZM474.626 17.4062C474.626 16.3542 474.366 15.5469 473.845 14.9844C473.335 14.4115 472.606 14.125 471.658 14.125C470.741 14.125 470.033 14.375 469.533 14.875C469.033 15.3646 468.783 16.0625 468.783 16.9688L468.454 13.6094C468.944 12.6198 469.569 11.8646 470.329 11.3438C471.09 10.8125 471.96 10.5469 472.939 10.5469C474.074 10.5469 475.048 10.8125 475.861 11.3438C476.673 11.875 477.288 12.6562 477.704 13.6875C478.132 14.7083 478.345 15.9427 478.345 17.3906V27H474.626V17.4062ZM499.251 27.2344C497.72 27.2344 496.413 26.9531 495.329 26.3906C494.246 25.8281 493.418 25.0052 492.845 23.9219C492.272 22.8281 491.986 21.5104 491.986 19.9688V18.1406C491.986 16.5365 492.257 15.1667 492.798 14.0312C493.35 12.8958 494.147 12.0312 495.189 11.4375C496.241 10.8438 497.501 10.5469 498.97 10.5469C500.356 10.5469 501.538 10.8958 502.517 11.5938C503.507 12.2812 504.257 13.2812 504.767 14.5938C505.288 15.9062 505.548 17.4896 505.548 19.3438V20.4062H494.533V17.6719H502.079L502.064 17.5C501.96 16.3646 501.642 15.4844 501.111 14.8594C500.579 14.2344 499.866 13.9219 498.97 13.9219C497.845 13.9219 496.975 14.276 496.361 14.9844C495.746 15.6823 495.439 16.6771 495.439 17.9688V20.0312C495.439 21.2604 495.772 22.2083 496.439 22.875C497.106 23.5312 498.043 23.8594 499.251 23.8594C499.866 23.8594 500.47 23.7448 501.064 23.5156C501.668 23.276 502.21 22.9479 502.689 22.5312L505.126 24.8125C504.303 25.5833 503.376 26.1823 502.345 26.6094C501.324 27.026 500.293 27.2344 499.251 27.2344ZM513.345 22.2344C513.345 22.6302 513.444 22.9375 513.642 23.1562C513.84 23.3646 514.121 23.4688 514.486 23.4688H515.595V27.0469H513.564C512.314 27.0469 511.34 26.6719 510.642 25.9219C509.954 25.1719 509.611 24.1146 509.611 22.75V4.28125H513.345V22.2344ZM525.689 27.2344C524.158 27.2344 522.85 26.9531 521.767 26.3906C520.684 25.8281 519.856 25.0052 519.283 23.9219C518.71 22.8281 518.423 21.5104 518.423 19.9688V18.1406C518.423 16.5365 518.694 15.1667 519.236 14.0312C519.788 12.8958 520.585 12.0312 521.626 11.4375C522.678 10.8438 523.939 10.5469 525.408 10.5469C526.793 10.5469 527.975 10.8958 528.954 11.5938C529.944 12.2812 530.694 13.2812 531.204 14.5938C531.725 15.9062 531.986 17.4896 531.986 19.3438V20.4062H520.97V17.6719H528.517L528.501 17.5C528.397 16.3646 528.079 15.4844 527.548 14.8594C527.017 14.2344 526.303 13.9219 525.408 13.9219C524.283 13.9219 523.413 14.276 522.798 14.9844C522.184 15.6823 521.876 16.6771 521.876 17.9688V20.0312C521.876 21.2604 522.21 22.2083 522.876 22.875C523.543 23.5312 524.481 23.8594 525.689 23.8594C526.303 23.8594 526.908 23.7448 527.501 23.5156C528.106 23.276 528.647 22.9479 529.126 22.5312L531.564 24.8125C530.741 25.5833 529.814 26.1823 528.783 26.6094C527.762 27.026 526.731 27.2344 525.689 27.2344ZM545.095 16.7188C545.095 15.8125 544.824 15.1094 544.283 14.6094C543.751 14.1094 542.996 13.8594 542.017 13.8594C541.392 13.8594 540.777 13.9583 540.173 14.1562C539.569 14.3542 539.027 14.6302 538.548 14.9844L536.064 12.8906C536.699 12.151 537.533 11.5781 538.564 11.1719C539.595 10.7552 540.741 10.5469 542.001 10.5469C543.376 10.5469 544.553 10.7865 545.533 11.2656C546.512 11.7344 547.257 12.4219 547.767 13.3281C548.288 14.224 548.548 15.3073 548.548 16.5781V27H545.095V16.7188ZM540.845 27.2344C538.981 27.2344 537.585 26.8229 536.658 26C535.731 25.1667 535.267 23.9062 535.267 22.2188C535.267 20.6146 535.736 19.4115 536.673 18.6094C537.611 17.8073 539.017 17.4062 540.892 17.4062H545.236L545.454 20.3125H540.908C540.168 20.3125 539.611 20.4688 539.236 20.7812C538.871 21.0938 538.689 21.5729 538.689 22.2188C538.689 22.8958 538.928 23.401 539.408 23.7344C539.887 24.0573 540.611 24.2188 541.579 24.2188C542.767 24.2188 543.647 24.0885 544.22 23.8281C544.803 23.5677 545.095 23.1615 545.095 22.6094L545.423 24.9219C545.246 25.4323 544.934 25.8594 544.486 26.2031C544.048 26.5469 543.517 26.8073 542.892 26.9844C542.267 27.151 541.585 27.2344 540.845 27.2344ZM553.548 8.57812C553.548 7.14062 553.876 6.06771 554.533 5.35938C555.199 4.64062 556.22 4.28125 557.595 4.28125H560.251V7.70312H558.204C557.902 7.70312 557.673 7.81771 557.517 8.04688C557.361 8.27604 557.283 8.57292 557.283 8.9375V27H553.548V8.57812ZM551.829 10.7812H560.251V13.9688H551.829V10.7812Z" fill="#F1F5F9"/>
</svg>
