<svg width="283" height="23" viewBox="0 0 283 23" fill="none" xmlns="http://www.w3.org/2000/svg">
<path d="M5.67712 2.35547H8.46619V18H5.67712V2.35547ZM0.942749 0.960938H13.2006V3.64453H0.942749V0.960938ZM18.4154 18.1758C17.267 18.1758 16.2865 17.9648 15.474 17.543C14.6615 17.1211 14.0404 16.5039 13.6107 15.6914C13.181 14.8711 12.9662 13.8828 12.9662 12.7266V11.3555C12.9662 10.1523 13.1693 9.125 13.5756 8.27344C13.9896 7.42188 14.5873 6.77344 15.3685 6.32812C16.1576 5.88281 17.1029 5.66016 18.2045 5.66016C19.2435 5.66016 20.1302 5.92187 20.8646 6.44531C21.6068 6.96094 22.1693 7.71094 22.5521 8.69531C22.9427 9.67969 23.1381 10.8672 23.1381 12.2578V13.0547H14.8763V11.0039H20.5365L20.5248 10.875C20.4467 10.0234 20.2084 9.36328 19.8099 8.89453C19.4115 8.42578 18.8763 8.19141 18.2045 8.19141C17.3607 8.19141 16.7084 8.45703 16.2474 8.98828C15.7865 9.51172 15.556 10.2578 15.556 11.2266V12.7734C15.556 13.6953 15.806 14.4062 16.306 14.9062C16.806 15.3984 17.5092 15.6445 18.4154 15.6445C18.8763 15.6445 19.3295 15.5586 19.7748 15.3867C20.2279 15.207 20.6342 14.9609 20.9935 14.6484L22.8217 16.3594C22.2045 16.9375 21.5092 17.3867 20.7357 17.707C19.9701 18.0195 19.1967 18.1758 18.4154 18.1758ZM30.6615 18.1758C29.9349 18.1758 29.2435 18.1094 28.5873 17.9766C27.931 17.8359 27.3138 17.6328 26.7357 17.3672C26.1654 17.1016 25.6498 16.7773 25.1888 16.3945L26.8881 14.2852C27.5052 14.7227 28.1342 15.0547 28.7748 15.2812C29.4232 15.5078 30.0521 15.6211 30.6615 15.6211C31.5131 15.6211 32.1576 15.5078 32.5951 15.2812C33.0404 15.0469 33.2631 14.7109 33.2631 14.2734C33.2631 13.9375 33.1537 13.6875 32.9349 13.5234C32.7162 13.3516 32.4388 13.2344 32.1029 13.1719C31.7748 13.1094 31.3099 13.0508 30.7084 12.9961C30.6068 12.9883 30.5013 12.9805 30.392 12.9727C30.2826 12.9648 30.1771 12.9531 30.0756 12.9375C30.0443 12.9375 30.0131 12.9375 29.9818 12.9375C29.9506 12.9297 29.9193 12.9258 29.8881 12.9258C29.0365 12.832 28.3373 12.7031 27.7904 12.5391C27.2435 12.3672 26.7826 12.043 26.4076 11.5664C26.0404 11.0898 25.8568 10.4062 25.8568 9.51562C25.8568 8.67969 26.0404 7.97656 26.4076 7.40625C26.7826 6.82812 27.3295 6.39453 28.0482 6.10547C28.767 5.80859 29.6498 5.66016 30.6967 5.66016C31.3217 5.66016 31.931 5.72266 32.5248 5.84766C33.1185 5.96484 33.6849 6.14062 34.224 6.375C34.7709 6.60156 35.2865 6.88672 35.7709 7.23047L34.0951 9.26953C33.5248 8.92578 32.9467 8.66406 32.3607 8.48438C31.7826 8.30469 31.2201 8.21484 30.6732 8.21484C29.9388 8.21484 29.3802 8.32031 28.9974 8.53125C28.6146 8.74219 28.4232 9.05469 28.4232 9.46875C28.4232 9.73438 28.5287 9.9375 28.7396 10.0781C28.9506 10.2188 29.2123 10.3164 29.5248 10.3711C29.8451 10.418 30.306 10.4688 30.9076 10.5234C30.9701 10.5312 31.0287 10.5391 31.0834 10.5469C31.1459 10.5469 31.2084 10.5508 31.2709 10.5586C31.2943 10.5586 31.3217 10.5586 31.3529 10.5586C31.3842 10.5586 31.4154 10.5625 31.4467 10.5703C32.3451 10.6562 33.0912 10.7852 33.6849 10.957C34.2787 11.1289 34.7826 11.4727 35.1967 11.9883C35.6107 12.4961 35.8177 13.2383 35.8177 14.2148C35.8177 15.0742 35.6224 15.8008 35.2318 16.3945C34.8412 16.9805 34.2592 17.4258 33.4857 17.7305C32.7201 18.0273 31.7787 18.1758 30.6615 18.1758ZM41.9115 18.0586C40.8881 18.0586 40.1381 17.7891 39.6615 17.25C39.1849 16.7031 38.9467 15.8984 38.9467 14.8359V2.29688H41.7474V14.4492C41.7474 14.7461 41.806 14.9766 41.9232 15.1406C42.0404 15.2969 42.2123 15.375 42.4388 15.375H43.4115V18.0586H41.9115ZM37.6927 5.83594H43.4115V8.28516H37.6927V5.83594ZM51.556 18.1758C50.4076 18.1758 49.4271 17.9648 48.6146 17.543C47.8021 17.1211 47.181 16.5039 46.7513 15.6914C46.3217 14.8711 46.1068 13.8828 46.1068 12.7266V11.3555C46.1068 10.1523 46.3099 9.125 46.7162 8.27344C47.1302 7.42188 47.7279 6.77344 48.5092 6.32812C49.2982 5.88281 50.2435 5.66016 51.3451 5.66016C52.3842 5.66016 53.2709 5.92187 54.0052 6.44531C54.7474 6.96094 55.3099 7.71094 55.6927 8.69531C56.0834 9.67969 56.2787 10.8672 56.2787 12.2578V13.0547H48.017V11.0039H53.6771L53.6654 10.875C53.5873 10.0234 53.349 9.36328 52.9506 8.89453C52.5521 8.42578 52.017 8.19141 51.3451 8.19141C50.5013 8.19141 49.849 8.45703 49.3881 8.98828C48.9271 9.51172 48.6967 10.2578 48.6967 11.2266V12.7734C48.6967 13.6953 48.9467 14.4062 49.4467 14.9062C49.9467 15.3984 50.6498 15.6445 51.556 15.6445C52.017 15.6445 52.4701 15.5586 52.9154 15.3867C53.3685 15.207 53.7748 14.9609 54.1342 14.6484L55.9623 16.3594C55.3451 16.9375 54.6498 17.3867 53.8763 17.707C53.1107 18.0195 52.3373 18.1758 51.556 18.1758ZM67.6224 15.3164H71.5951C72.7513 15.3164 73.6459 15.0273 74.2787 14.4492C74.9193 13.8711 75.2396 13.0508 75.2396 11.9883V6.97266C75.2396 5.91016 74.9193 5.08984 74.2787 4.51172C73.6459 3.93359 72.7513 3.64453 71.5951 3.64453H67.6224V0.960938H71.5248C72.9154 0.960938 74.1029 1.19922 75.0873 1.67578C76.0795 2.15234 76.8334 2.84766 77.349 3.76172C77.8646 4.67578 78.1224 5.77734 78.1224 7.06641V11.8945C78.1224 13.1523 77.8685 14.2383 77.3607 15.1523C76.8529 16.0664 76.1029 16.7695 75.1107 17.2617C74.1263 17.7539 72.9271 18 71.5131 18H67.6224V15.3164ZM66.0052 0.960938H68.806V18H66.0052V0.960938ZM86.6185 18.1758C85.4701 18.1758 84.4896 17.9648 83.6771 17.543C82.8646 17.1211 82.2435 16.5039 81.8138 15.6914C81.3842 14.8711 81.1693 13.8828 81.1693 12.7266V11.3555C81.1693 10.1523 81.3724 9.125 81.7787 8.27344C82.1927 7.42188 82.7904 6.77344 83.5717 6.32812C84.3607 5.88281 85.306 5.66016 86.4076 5.66016C87.4467 5.66016 88.3334 5.92187 89.0677 6.44531C89.8099 6.96094 90.3724 7.71094 90.7552 8.69531C91.1459 9.67969 91.3412 10.8672 91.3412 12.2578V13.0547H83.0795V11.0039H88.7396L88.7279 10.875C88.6498 10.0234 88.4115 9.36328 88.0131 8.89453C87.6146 8.42578 87.0795 8.19141 86.4076 8.19141C85.5638 8.19141 84.9115 8.45703 84.4506 8.98828C83.9896 9.51172 83.7592 10.2578 83.7592 11.2266V12.7734C83.7592 13.6953 84.0092 14.4062 84.5092 14.9062C85.0092 15.3984 85.7123 15.6445 86.6185 15.6445C87.0795 15.6445 87.5326 15.5586 87.9779 15.3867C88.431 15.207 88.8373 14.9609 89.1967 14.6484L91.0248 16.3594C90.4076 16.9375 89.7123 17.3867 88.9388 17.707C88.1732 18.0195 87.3998 18.1758 86.6185 18.1758ZM100.962 5.83594H103.81L99.2396 18H97.2006L92.6302 5.83594H95.4779L98.2201 13.9922L100.962 5.83594ZM118.294 18.1758C117.06 18.1758 115.986 17.9219 115.072 17.4141C114.165 16.8984 113.466 16.1641 112.974 15.2109C112.49 14.2578 112.247 13.1289 112.247 11.8242V7.14844C112.247 5.84375 112.49 4.71484 112.974 3.76172C113.466 2.80859 114.165 2.07422 115.072 1.55859C115.986 1.04297 117.06 0.785156 118.294 0.785156C119.318 0.785156 120.244 1.00391 121.072 1.44141C121.908 1.87891 122.599 2.51172 123.146 3.33984C123.701 4.16016 124.079 5.13281 124.283 6.25781H121.4C121.259 5.71094 121.036 5.23438 120.732 4.82812C120.427 4.41406 120.064 4.09766 119.642 3.87891C119.228 3.66016 118.779 3.55078 118.294 3.55078C117.646 3.55078 117.083 3.69922 116.607 3.99609C116.138 4.28516 115.775 4.69922 115.517 5.23828C115.259 5.77734 115.13 6.41406 115.13 7.14844V11.8242C115.13 12.5586 115.259 13.1953 115.517 13.7344C115.775 14.2734 116.138 14.6875 116.607 14.9766C117.083 15.2656 117.646 15.4102 118.294 15.4102C118.786 15.4102 119.24 15.3047 119.654 15.0938C120.076 14.8828 120.439 14.5742 120.744 14.168C121.048 13.7617 121.267 13.2734 121.4 12.7031H124.283C124.072 13.8281 123.689 14.8047 123.134 15.6328C122.587 16.4531 121.896 17.082 121.06 17.5195C120.232 17.957 119.31 18.1758 118.294 18.1758ZM134.009 10.2891C134.009 9.60938 133.806 9.08203 133.4 8.70703C133.001 8.33203 132.435 8.14453 131.701 8.14453C131.232 8.14453 130.771 8.21875 130.318 8.36719C129.865 8.51562 129.458 8.72266 129.099 8.98828L127.236 7.41797C127.712 6.86328 128.337 6.43359 129.111 6.12891C129.884 5.81641 130.744 5.66016 131.689 5.66016C132.72 5.66016 133.603 5.83984 134.337 6.19922C135.072 6.55078 135.63 7.06641 136.013 7.74609C136.404 8.41797 136.599 9.23047 136.599 10.1836V18H134.009V10.2891ZM130.822 18.1758C129.423 18.1758 128.376 17.8672 127.681 17.25C126.986 16.625 126.638 15.6797 126.638 14.4141C126.638 13.2109 126.99 12.3086 127.693 11.707C128.396 11.1055 129.451 10.8047 130.857 10.8047H134.115L134.279 12.9844H130.869C130.314 12.9844 129.896 13.1016 129.615 13.3359C129.341 13.5703 129.204 13.9297 129.204 14.4141C129.204 14.9219 129.384 15.3008 129.744 15.5508C130.103 15.793 130.646 15.9141 131.372 15.9141C132.263 15.9141 132.923 15.8164 133.353 15.6211C133.79 15.4258 134.009 15.1211 134.009 14.707L134.255 16.4414C134.122 16.8242 133.888 17.1445 133.552 17.4023C133.224 17.6602 132.826 17.8555 132.357 17.9883C131.888 18.1133 131.376 18.1758 130.822 18.1758ZM139.997 5.83594H142.915V18H139.997V5.83594ZM146.771 8.96484C146.583 8.76172 146.353 8.60938 146.079 8.50781C145.806 8.39844 145.49 8.34375 145.13 8.34375C144.427 8.34375 143.88 8.55469 143.49 8.97656C143.107 9.39062 142.915 9.96875 142.915 10.7109L142.669 7.95703C143.021 7.23047 143.478 6.66797 144.04 6.26953C144.611 5.86328 145.236 5.66016 145.915 5.66016C146.447 5.66016 146.927 5.74219 147.357 5.90625C147.786 6.0625 148.161 6.29688 148.482 6.60938L146.771 8.96484ZM156.744 0.960938H159.544V18H156.744V0.960938ZM153.802 18.1992C152.927 18.1992 152.177 18 151.552 17.6016C150.935 17.1953 150.462 16.6133 150.134 15.8555C149.814 15.0898 149.654 14.168 149.654 13.0898V10.7695C149.654 9.69141 149.814 8.76953 150.134 8.00391C150.454 7.23047 150.919 6.64453 151.529 6.24609C152.146 5.83984 152.884 5.63672 153.744 5.63672C154.431 5.63672 155.056 5.82812 155.619 6.21094C156.189 6.59375 156.646 7.13281 156.99 7.82812L156.744 10.418C156.744 9.94922 156.661 9.55078 156.497 9.22266C156.333 8.89453 156.095 8.64453 155.783 8.47266C155.47 8.30078 155.091 8.21484 154.646 8.21484C153.951 8.21484 153.411 8.44141 153.029 8.89453C152.646 9.34766 152.454 9.98047 152.454 10.793V13.0898C152.454 13.8945 152.646 14.5195 153.029 14.9648C153.411 15.4023 153.951 15.6211 154.646 15.6211C155.091 15.6211 155.47 15.5352 155.783 15.3633C156.095 15.1836 156.333 14.9297 156.497 14.6016C156.661 14.2734 156.744 13.8789 156.744 13.418L156.908 16.0898C156.665 16.7227 156.275 17.2344 155.736 17.625C155.204 18.0078 154.56 18.1992 153.802 18.1992ZM170.103 5.83594H172.892V18H170.103V5.83594ZM165.744 13.2305C165.744 13.9492 165.935 14.5078 166.318 14.9062C166.701 15.2969 167.24 15.4922 167.935 15.4922C168.63 15.4922 169.165 15.3086 169.54 14.9414C169.915 14.5664 170.103 14.0312 170.103 13.3359L170.267 15.9375C170.033 16.5703 169.642 17.1016 169.095 17.5312C168.548 17.9609 167.88 18.1758 167.091 18.1758C165.771 18.1758 164.747 17.75 164.021 16.8984C163.302 16.0469 162.943 14.8438 162.943 13.2891V5.83594H165.744V13.2305ZM190.658 10.8047C190.658 10.0156 190.462 9.41016 190.072 8.98828C189.681 8.55859 189.126 8.34375 188.408 8.34375C187.728 8.34375 187.201 8.55078 186.826 8.96484C186.458 9.37109 186.275 9.95312 186.275 10.7109L185.736 8.13281C186.119 7.34375 186.619 6.73438 187.236 6.30469C187.861 5.875 188.552 5.66016 189.31 5.66016C190.185 5.66016 190.931 5.85938 191.548 6.25781C192.173 6.65625 192.646 7.24219 192.966 8.01562C193.294 8.78125 193.458 9.70703 193.458 10.793V18H190.658V10.8047ZM176.302 5.83594H179.103V18H176.302V5.83594ZM183.486 10.8047C183.486 10.0156 183.29 9.41016 182.9 8.98828C182.517 8.55859 181.97 8.34375 181.259 8.34375C180.572 8.34375 180.04 8.53125 179.665 8.90625C179.29 9.27344 179.103 9.79688 179.103 10.4766L178.857 7.95703C179.224 7.21484 179.693 6.64844 180.263 6.25781C180.833 5.85938 181.486 5.66016 182.22 5.66016C183.072 5.66016 183.802 5.85938 184.411 6.25781C185.021 6.65625 185.482 7.24219 185.794 8.01562C186.115 8.78125 186.275 9.70703 186.275 10.793V18H183.486V10.8047ZM201.954 18.1758C200.806 18.1758 199.826 17.9648 199.013 17.543C198.201 17.1211 197.579 16.5039 197.15 15.6914C196.72 14.8711 196.505 13.8828 196.505 12.7266V11.3555C196.505 10.1523 196.708 9.125 197.115 8.27344C197.529 7.42188 198.126 6.77344 198.908 6.32812C199.697 5.88281 200.642 5.66016 201.744 5.66016C202.783 5.66016 203.669 5.92187 204.404 6.44531C205.146 6.96094 205.708 7.71094 206.091 8.69531C206.482 9.67969 206.677 10.8672 206.677 12.2578V13.0547H198.415V11.0039H204.076L204.064 10.875C203.986 10.0234 203.747 9.36328 203.349 8.89453C202.951 8.42578 202.415 8.19141 201.744 8.19141C200.9 8.19141 200.247 8.45703 199.786 8.98828C199.326 9.51172 199.095 10.2578 199.095 11.2266V12.7734C199.095 13.6953 199.345 14.4062 199.845 14.9062C200.345 15.3984 201.048 15.6445 201.954 15.6445C202.415 15.6445 202.869 15.5586 203.314 15.3867C203.767 15.207 204.173 14.9609 204.533 14.6484L206.361 16.3594C205.744 16.9375 205.048 17.3867 204.275 17.707C203.509 18.0195 202.736 18.1758 201.954 18.1758ZM218.021 15.3164H221.994C223.15 15.3164 224.044 15.0273 224.677 14.4492C225.318 13.8711 225.638 13.0508 225.638 11.9883V6.97266C225.638 5.91016 225.318 5.08984 224.677 4.51172C224.044 3.93359 223.15 3.64453 221.994 3.64453H218.021V0.960938H221.923C223.314 0.960938 224.501 1.19922 225.486 1.67578C226.478 2.15234 227.232 2.84766 227.747 3.76172C228.263 4.67578 228.521 5.77734 228.521 7.06641V11.8945C228.521 13.1523 228.267 14.2383 227.759 15.1523C227.251 16.0664 226.501 16.7695 225.509 17.2617C224.525 17.7539 223.326 18 221.911 18H218.021V15.3164ZM216.404 0.960938H219.204V18H216.404V0.960938ZM231.837 0.960938H234.626V3.76172H231.837V0.960938ZM231.837 5.83594H234.626V18H231.837V5.83594ZM242.138 22.9453C241.201 22.9453 240.361 22.7734 239.619 22.4297C238.876 22.0938 238.298 21.6172 237.884 21L239.771 19.2773C240.06 19.6445 240.408 19.9258 240.814 20.1211C241.228 20.3164 241.658 20.4141 242.103 20.4141C242.9 20.4141 243.529 20.1953 243.99 19.7578C244.451 19.3281 244.681 18.7188 244.681 17.9297V5.83594H247.482V17.6367C247.482 18.7539 247.271 19.7109 246.849 20.5078C246.435 21.3047 245.826 21.9102 245.021 22.3242C244.224 22.7383 243.263 22.9453 242.138 22.9453ZM241.74 18.1992C240.865 18.1992 240.115 18 239.49 17.6016C238.872 17.1953 238.4 16.6133 238.072 15.8555C237.751 15.0898 237.591 14.168 237.591 13.0898V10.7695C237.591 9.69141 237.751 8.76953 238.072 8.00391C238.392 7.23047 238.857 6.64453 239.466 6.24609C240.083 5.83984 240.822 5.63672 241.681 5.63672C242.369 5.63672 242.994 5.82812 243.556 6.21094C244.126 6.59375 244.583 7.13281 244.927 7.82812L244.681 10.418C244.681 9.94922 244.599 9.55078 244.435 9.22266C244.271 8.89453 244.033 8.64453 243.72 8.47266C243.408 8.30078 243.029 8.21484 242.583 8.21484C241.888 8.21484 241.349 8.44141 240.966 8.89453C240.583 9.34766 240.392 9.98047 240.392 10.793V13.0898C240.392 13.8945 240.583 14.5195 240.966 14.9648C241.349 15.4023 241.888 15.6211 242.583 15.6211C243.029 15.6211 243.408 15.5352 243.72 15.3633C244.033 15.1836 244.271 14.9297 244.435 14.6016C244.599 14.2734 244.681 13.8789 244.681 13.418L244.845 16.0898C244.603 16.7227 244.212 17.2344 243.673 17.625C243.142 18.0078 242.497 18.1992 241.74 18.1992ZM250.798 0.960938H253.587V3.76172H250.798V0.960938ZM250.798 5.83594H253.587V18H250.798V5.83594ZM260.185 18.0586C259.161 18.0586 258.411 17.7891 257.935 17.25C257.458 16.7031 257.22 15.8984 257.22 14.8359V2.29688H260.021V14.4492C260.021 14.7461 260.079 14.9766 260.197 15.1406C260.314 15.2969 260.486 15.375 260.712 15.375H261.685V18.0586H260.185ZM255.966 5.83594H261.685V8.28516H255.966V5.83594ZM271.517 10.2891C271.517 9.60938 271.314 9.08203 270.908 8.70703C270.509 8.33203 269.943 8.14453 269.208 8.14453C268.74 8.14453 268.279 8.21875 267.826 8.36719C267.372 8.51562 266.966 8.72266 266.607 8.98828L264.744 7.41797C265.22 6.86328 265.845 6.43359 266.619 6.12891C267.392 5.81641 268.251 5.66016 269.197 5.66016C270.228 5.66016 271.111 5.83984 271.845 6.19922C272.579 6.55078 273.138 7.06641 273.521 7.74609C273.911 8.41797 274.107 9.23047 274.107 10.1836V18H271.517V10.2891ZM268.329 18.1758C266.931 18.1758 265.884 17.8672 265.189 17.25C264.494 16.625 264.146 15.6797 264.146 14.4141C264.146 13.2109 264.497 12.3086 265.201 11.707C265.904 11.1055 266.958 10.8047 268.365 10.8047H271.622L271.786 12.9844H268.376C267.822 12.9844 267.404 13.1016 267.122 13.3359C266.849 13.5703 266.712 13.9297 266.712 14.4141C266.712 14.9219 266.892 15.3008 267.251 15.5508C267.611 15.793 268.154 15.9141 268.88 15.9141C269.771 15.9141 270.431 15.8164 270.861 15.6211C271.298 15.4258 271.517 15.1211 271.517 14.707L271.763 16.4414C271.63 16.8242 271.396 17.1445 271.06 17.4023C270.732 17.6602 270.333 17.8555 269.865 17.9883C269.396 18.1133 268.884 18.1758 268.329 18.1758ZM280.306 14.4258C280.306 14.7227 280.38 14.9531 280.529 15.1172C280.677 15.2734 280.888 15.3516 281.161 15.3516H281.994V18.0352H280.47C279.533 18.0352 278.802 17.7539 278.279 17.1914C277.763 16.6289 277.505 15.8359 277.505 14.8125V0.960938H280.306V14.4258Z" fill="#F1F5F9"/>
</svg>
