<svg width="123" height="37" viewBox="0 0 123 37" fill="none" xmlns="http://www.w3.org/2000/svg">
<rect x="0.000732422" width="123.001" height="37" rx="18.5" fill="#0D423B"/>
<path d="M17.1492 9.96094H19.1882L25.5867 27H22.575L18.1687 14.3086L13.7625 27H10.7507L17.1492 9.96094ZM13.7625 21.082H22.7273V23.7656H13.7625V21.082ZM32.7234 27.1758C31.5906 27.1758 30.6218 26.9648 29.8171 26.543C29.0125 26.1133 28.3992 25.4922 27.9773 24.6797C27.5554 23.8594 27.3445 22.8711 27.3445 21.7148V20.0625C27.3445 18.9219 27.5554 17.9492 27.9773 17.1445C28.3992 16.332 29.0125 15.7148 29.8171 15.293C30.6218 14.8711 31.5906 14.6602 32.7234 14.6602C33.3718 14.6602 33.9812 14.7383 34.5515 14.8945C35.1296 15.043 35.6453 15.2617 36.0984 15.5508C36.5593 15.8398 36.9421 16.1914 37.2468 16.6055L35.3484 18.3867C35.0281 18.0508 34.6531 17.793 34.2234 17.6133C33.7937 17.4336 33.3445 17.3438 32.8757 17.3438C32.0085 17.3438 31.3367 17.582 30.8601 18.0586C30.3835 18.5273 30.1453 19.1953 30.1453 20.0625V21.7148C30.1453 22.6055 30.3796 23.293 30.8484 23.7773C31.325 24.2539 32.0007 24.4922 32.8757 24.4922C33.3523 24.4922 33.8054 24.3945 34.2351 24.1992C34.6648 24.0039 35.0359 23.7266 35.3484 23.3672L37.2468 25.2656C36.9343 25.6719 36.5476 26.0195 36.0867 26.3086C35.6335 26.5898 35.1179 26.8047 34.5398 26.9531C33.9695 27.1016 33.364 27.1758 32.7234 27.1758ZM44.6765 27.1758C43.5437 27.1758 42.575 26.9648 41.7703 26.543C40.9656 26.1133 40.3523 25.4922 39.9304 24.6797C39.5085 23.8594 39.2976 22.8711 39.2976 21.7148V20.0625C39.2976 18.9219 39.5085 17.9492 39.9304 17.1445C40.3523 16.332 40.9656 15.7148 41.7703 15.293C42.575 14.8711 43.5437 14.6602 44.6765 14.6602C45.325 14.6602 45.9343 14.7383 46.5046 14.8945C47.0828 15.043 47.5984 15.2617 48.0515 15.5508C48.5125 15.8398 48.8953 16.1914 49.2 16.6055L47.3015 18.3867C46.9812 18.0508 46.6062 17.793 46.1765 17.6133C45.7468 17.4336 45.2976 17.3438 44.8289 17.3438C43.9617 17.3438 43.2898 17.582 42.8132 18.0586C42.3367 18.5273 42.0984 19.1953 42.0984 20.0625V21.7148C42.0984 22.6055 42.3328 23.293 42.8015 23.7773C43.2781 24.2539 43.9539 24.4922 44.8289 24.4922C45.3054 24.4922 45.7585 24.3945 46.1882 24.1992C46.6179 24.0039 46.989 23.7266 47.3015 23.3672L49.2 25.2656C48.8875 25.6719 48.5007 26.0195 48.0398 26.3086C47.5867 26.5898 47.071 26.8047 46.4929 26.9531C45.9226 27.1016 45.3171 27.1758 44.6765 27.1758ZM56.7 27.1758C55.5515 27.1758 54.571 26.9648 53.7585 26.543C52.946 26.1211 52.325 25.5039 51.8953 24.6914C51.4656 23.8711 51.2507 22.8828 51.2507 21.7266V20.3555C51.2507 19.1523 51.4539 18.125 51.8601 17.2734C52.2742 16.4219 52.8718 15.7734 53.6531 15.3281C54.4421 14.8828 55.3875 14.6602 56.489 14.6602C57.5281 14.6602 58.4148 14.9219 59.1492 15.4453C59.8914 15.9609 60.4539 16.7109 60.8367 17.6953C61.2273 18.6797 61.4226 19.8672 61.4226 21.2578V22.0547H53.1609V20.0039H58.821L58.8093 19.875C58.7312 19.0234 58.4929 18.3633 58.0945 17.8945C57.696 17.4258 57.1609 17.1914 56.489 17.1914C55.6453 17.1914 54.9929 17.457 54.532 17.9883C54.071 18.5117 53.8406 19.2578 53.8406 20.2266V21.7734C53.8406 22.6953 54.0906 23.4062 54.5906 23.9062C55.0906 24.3984 55.7937 24.6445 56.7 24.6445C57.1609 24.6445 57.614 24.5586 58.0593 24.3867C58.5125 24.207 58.9187 23.9609 59.2781 23.6484L61.1062 25.3594C60.489 25.9375 59.7937 26.3867 59.0203 26.707C58.2546 27.0195 57.4812 27.1758 56.7 27.1758ZM68.946 27.1758C68.2195 27.1758 67.5281 27.1094 66.8718 26.9766C66.2156 26.8359 65.5984 26.6328 65.0203 26.3672C64.45 26.1016 63.9343 25.7773 63.4734 25.3945L65.1726 23.2852C65.7898 23.7227 66.4187 24.0547 67.0593 24.2812C67.7078 24.5078 68.3367 24.6211 68.946 24.6211C69.7976 24.6211 70.4421 24.5078 70.8796 24.2812C71.325 24.0469 71.5476 23.7109 71.5476 23.2734C71.5476 22.9375 71.4382 22.6875 71.2195 22.5234C71.0007 22.3516 70.7234 22.2344 70.3875 22.1719C70.0593 22.1094 69.5945 22.0508 68.9929 21.9961C68.8914 21.9883 68.7859 21.9805 68.6765 21.9727C68.5671 21.9648 68.4617 21.9531 68.3601 21.9375C68.3289 21.9375 68.2976 21.9375 68.2664 21.9375C68.2351 21.9297 68.2039 21.9258 68.1726 21.9258C67.321 21.832 66.6218 21.7031 66.075 21.5391C65.5281 21.3672 65.0671 21.043 64.6921 20.5664C64.325 20.0898 64.1414 19.4062 64.1414 18.5156C64.1414 17.6797 64.325 16.9766 64.6921 16.4062C65.0671 15.8281 65.614 15.3945 66.3328 15.1055C67.0515 14.8086 67.9343 14.6602 68.9812 14.6602C69.6062 14.6602 70.2156 14.7227 70.8093 14.8477C71.4031 14.9648 71.9695 15.1406 72.5085 15.375C73.0554 15.6016 73.571 15.8867 74.0554 16.2305L72.3796 18.2695C71.8093 17.9258 71.2312 17.6641 70.6453 17.4844C70.0671 17.3047 69.5046 17.2148 68.9578 17.2148C68.2234 17.2148 67.6648 17.3203 67.282 17.5312C66.8992 17.7422 66.7078 18.0547 66.7078 18.4688C66.7078 18.7344 66.8132 18.9375 67.0242 19.0781C67.2351 19.2188 67.4968 19.3164 67.8093 19.3711C68.1296 19.418 68.5906 19.4688 69.1921 19.5234C69.2546 19.5312 69.3132 19.5391 69.3679 19.5469C69.4304 19.5469 69.4929 19.5508 69.5554 19.5586C69.5789 19.5586 69.6062 19.5586 69.6375 19.5586C69.6687 19.5586 69.7 19.5625 69.7312 19.5703C70.6296 19.6562 71.3757 19.7852 71.9695 19.957C72.5632 20.1289 73.0671 20.4727 73.4812 20.9883C73.8953 21.4961 74.1023 22.2383 74.1023 23.2148C74.1023 24.0742 73.907 24.8008 73.5164 25.3945C73.1257 25.9805 72.5437 26.4258 71.7703 26.7305C71.0046 27.0273 70.0632 27.1758 68.946 27.1758ZM81.3914 27.1758C80.6648 27.1758 79.9734 27.1094 79.3171 26.9766C78.6609 26.8359 78.0437 26.6328 77.4656 26.3672C76.8953 26.1016 76.3796 25.7773 75.9187 25.3945L77.6179 23.2852C78.2351 23.7227 78.864 24.0547 79.5046 24.2812C80.1531 24.5078 80.782 24.6211 81.3914 24.6211C82.2429 24.6211 82.8875 24.5078 83.325 24.2812C83.7703 24.0469 83.9929 23.7109 83.9929 23.2734C83.9929 22.9375 83.8835 22.6875 83.6648 22.5234C83.446 22.3516 83.1687 22.2344 82.8328 22.1719C82.5046 22.1094 82.0398 22.0508 81.4382 21.9961C81.3367 21.9883 81.2312 21.9805 81.1218 21.9727C81.0125 21.9648 80.907 21.9531 80.8054 21.9375C80.7742 21.9375 80.7429 21.9375 80.7117 21.9375C80.6804 21.9297 80.6492 21.9258 80.6179 21.9258C79.7664 21.832 79.0671 21.7031 78.5203 21.5391C77.9734 21.3672 77.5125 21.043 77.1375 20.5664C76.7703 20.0898 76.5867 19.4062 76.5867 18.5156C76.5867 17.6797 76.7703 16.9766 77.1375 16.4062C77.5125 15.8281 78.0593 15.3945 78.7781 15.1055C79.4968 14.8086 80.3796 14.6602 81.4265 14.6602C82.0515 14.6602 82.6609 14.7227 83.2546 14.8477C83.8484 14.9648 84.4148 15.1406 84.9539 15.375C85.5007 15.6016 86.0164 15.8867 86.5007 16.2305L84.825 18.2695C84.2546 17.9258 83.6765 17.6641 83.0906 17.4844C82.5125 17.3047 81.95 17.2148 81.4031 17.2148C80.6687 17.2148 80.1101 17.3203 79.7273 17.5312C79.3445 17.7422 79.1531 18.0547 79.1531 18.4688C79.1531 18.7344 79.2585 18.9375 79.4695 19.0781C79.6804 19.2188 79.9421 19.3164 80.2546 19.3711C80.575 19.418 81.0359 19.4688 81.6375 19.5234C81.7 19.5312 81.7585 19.5391 81.8132 19.5469C81.8757 19.5469 81.9382 19.5508 82.0007 19.5586C82.0242 19.5586 82.0515 19.5586 82.0828 19.5586C82.114 19.5586 82.1453 19.5625 82.1765 19.5703C83.075 19.6562 83.821 19.7852 84.4148 19.957C85.0085 20.1289 85.5125 20.4727 85.9265 20.9883C86.3406 21.4961 86.5476 22.2383 86.5476 23.2148C86.5476 24.0742 86.3523 24.8008 85.9617 25.3945C85.571 25.9805 84.989 26.4258 84.2156 26.7305C83.45 27.0273 82.5085 27.1758 81.3914 27.1758Z" fill="#F1F5F9"/>
<path d="M101.05 17.2355L99.1914 19.0456C98.429 19.7879 98.0007 20.7947 98.0007 21.8445C98.0007 22.8943 98.429 23.9011 99.1914 24.6434C99.9538 25.3857 100.988 25.8027 102.066 25.8027C103.144 25.8027 104.178 25.3857 104.94 24.6434L107.417 22.2304C107.877 21.7827 108.22 21.2342 108.417 20.6308C108.614 20.0275 108.659 19.3869 108.549 18.7629C108.439 18.139 108.177 17.5498 107.785 17.0448C107.393 16.5398 106.882 16.1338 106.295 15.8608L105.501 16.6339C105.421 16.7126 105.351 16.8008 105.293 16.8965C105.746 17.0234 106.157 17.2632 106.486 17.5924C106.815 17.9215 107.05 18.3285 107.168 18.7732C107.286 19.2178 107.282 19.6847 107.158 20.1277C107.034 20.5707 106.793 20.9744 106.459 21.299L103.984 23.7106C103.475 24.2057 102.786 24.4839 102.067 24.4839C101.347 24.4839 100.658 24.2057 100.149 23.7106C99.6409 23.2155 99.3552 22.544 99.3552 21.8438C99.3552 21.1437 99.6409 20.4721 100.149 19.977L101.224 18.9322C101.072 18.379 101.014 17.8069 101.05 17.2355Z" fill="#F1F5F9"/>
<path d="M103.586 14.7684C103.126 15.2161 102.783 15.7646 102.586 16.368C102.389 16.9713 102.344 17.6119 102.454 18.2358C102.564 18.8598 102.826 19.449 103.218 19.954C103.61 20.459 104.121 20.865 104.707 21.1379L105.757 20.1142C105.298 19.9942 104.879 19.7586 104.543 19.431C104.207 19.1035 103.965 18.6956 103.842 18.2482C103.719 17.8008 103.719 17.3298 103.842 16.8825C103.965 16.4352 104.207 16.0273 104.543 15.6998L107.019 13.2881C107.527 12.793 108.217 12.5149 108.936 12.5149C109.655 12.5149 110.345 12.793 110.853 13.2881C111.362 13.7833 111.648 14.4548 111.648 15.1549C111.648 15.8551 111.362 16.5266 110.853 17.0217L109.779 18.0666C109.931 18.6207 109.989 19.1946 109.952 19.7646L111.811 17.9545C112.574 17.2122 113.002 16.2054 113.002 15.1556C113.002 14.1058 112.574 13.099 111.811 12.3567C111.049 11.6144 110.015 11.1974 108.937 11.1974C107.859 11.1974 106.825 11.6144 106.062 12.3567L103.586 14.7684Z" fill="#F1F5F9"/>
</svg>
