<svg width="232" height="37" viewBox="0 0 232 37" fill="none" xmlns="http://www.w3.org/2000/svg">
<rect x="0.000732422" width="232.001" height="37" rx="18.5" fill="#0D423B"/>
<path d="M16.9929 9.96094H19.032L25.4304 27H22.4187L18.0125 14.3086L13.6062 27H10.5945L16.9929 9.96094ZM13.6062 21.082H22.571V23.7656H13.6062V21.082ZM34.2781 9.96094H37.0789V27H34.2781V9.96094ZM31.3367 27.1992C30.4617 27.1992 29.7117 27 29.0867 26.6016C28.4695 26.1953 27.9968 25.6133 27.6687 24.8555C27.3484 24.0898 27.1882 23.168 27.1882 22.0898V19.7695C27.1882 18.6914 27.3484 17.7695 27.6687 17.0039C27.989 16.2305 28.4539 15.6445 29.0632 15.2461C29.6804 14.8398 30.4187 14.6367 31.2781 14.6367C31.9656 14.6367 32.5906 14.8281 33.1531 15.2109C33.7234 15.5938 34.1804 16.1328 34.5242 16.8281L34.2781 19.418C34.2781 18.9492 34.196 18.5508 34.032 18.2227C33.8679 17.8945 33.6296 17.6445 33.3171 17.4727C33.0046 17.3008 32.6257 17.2148 32.1804 17.2148C31.4851 17.2148 30.946 17.4414 30.5632 17.8945C30.1804 18.3477 29.989 18.9805 29.989 19.793V22.0898C29.989 22.8945 30.1804 23.5195 30.5632 23.9648C30.946 24.4023 31.4851 24.6211 32.1804 24.6211C32.6257 24.6211 33.0046 24.5352 33.3171 24.3633C33.6296 24.1836 33.8679 23.9297 34.032 23.6016C34.196 23.2734 34.2781 22.8789 34.2781 22.418L34.4421 25.0898C34.2 25.7227 33.8093 26.2344 33.2703 26.625C32.739 27.0078 32.0945 27.1992 31.3367 27.1992ZM45.2585 27.1758C44.1804 27.1758 43.2546 26.9688 42.4812 26.5547C41.7156 26.1406 41.1296 25.5391 40.7234 24.75C40.325 23.9531 40.1257 22.9961 40.1257 21.8789V19.8984C40.1257 18.7969 40.325 17.8555 40.7234 17.0742C41.1296 16.2852 41.7156 15.6875 42.4812 15.2812C43.2546 14.8672 44.1804 14.6602 45.2585 14.6602C46.3367 14.6602 47.2585 14.8672 48.0242 15.2812C48.7976 15.6875 49.3835 16.2852 49.782 17.0742C50.1882 17.8555 50.3914 18.7969 50.3914 19.8984V21.9141C50.3914 23.0234 50.1882 23.9727 49.782 24.7617C49.3835 25.543 48.7976 26.1406 48.0242 26.5547C47.2585 26.9688 46.3367 27.1758 45.2585 27.1758ZM45.2585 24.4922C46.0007 24.4922 46.575 24.2695 46.9812 23.8242C47.3875 23.3711 47.5906 22.7344 47.5906 21.9141V19.8984C47.5906 19.0859 47.3875 18.457 46.9812 18.0117C46.575 17.5664 46.0007 17.3438 45.2585 17.3438C44.5164 17.3438 43.9421 17.5664 43.5359 18.0117C43.1296 18.457 42.9265 19.0859 42.9265 19.8984V21.9141C42.9265 22.7344 43.1257 23.3711 43.5242 23.8242C43.9304 24.2695 44.5085 24.4922 45.2585 24.4922ZM59.2976 27.1758C58.5632 27.1758 57.9265 26.9961 57.3875 26.6367C56.8484 26.2695 56.45 25.7539 56.1921 25.0898L56.3562 22.4297C56.3562 22.8906 56.4382 23.2852 56.6023 23.6133C56.7664 23.9336 57.0046 24.1797 57.3171 24.3516C57.6296 24.5234 58.0085 24.6094 58.4539 24.6094C59.1492 24.6094 59.6882 24.3906 60.071 23.9531C60.4539 23.5156 60.6453 22.8945 60.6453 22.0898V19.8047C60.6453 18.9844 60.4539 18.3516 60.071 17.9062C59.6882 17.4531 59.1492 17.2266 58.4539 17.2266C58.0085 17.2266 57.6296 17.3125 57.3171 17.4844C57.0046 17.6484 56.7664 17.8945 56.6023 18.2227C56.4382 18.5508 56.3562 18.9453 56.3562 19.4062L56.1101 16.8867C56.4539 16.1758 56.907 15.6289 57.4695 15.2461C58.0398 14.8555 58.6687 14.6602 59.3562 14.6602C60.2156 14.6602 60.95 14.8594 61.5593 15.2578C62.1765 15.6562 62.6453 16.2422 62.9656 17.0156C63.2859 17.7812 63.446 18.707 63.446 19.793V22.0898C63.446 23.1602 63.282 24.0781 62.9539 24.8438C62.6335 25.6016 62.1609 26.1797 61.5359 26.5781C60.9109 26.9766 60.1648 27.1758 59.2976 27.1758ZM53.5554 9.96094H56.3562V27H53.5554V9.96094ZM71.7078 27.1758C70.5593 27.1758 69.5789 26.9648 68.7664 26.543C67.9539 26.1211 67.3328 25.5039 66.9031 24.6914C66.4734 23.8711 66.2585 22.8828 66.2585 21.7266V20.3555C66.2585 19.1523 66.4617 18.125 66.8679 17.2734C67.282 16.4219 67.8796 15.7734 68.6609 15.3281C69.45 14.8828 70.3953 14.6602 71.4968 14.6602C72.5359 14.6602 73.4226 14.9219 74.157 15.4453C74.8992 15.9609 75.4617 16.7109 75.8445 17.6953C76.2351 18.6797 76.4304 19.8672 76.4304 21.2578V22.0547H68.1687V20.0039H73.8289L73.8171 19.875C73.739 19.0234 73.5007 18.3633 73.1023 17.8945C72.7039 17.4258 72.1687 17.1914 71.4968 17.1914C70.6531 17.1914 70.0007 17.457 69.5398 17.9883C69.0789 18.5117 68.8484 19.2578 68.8484 20.2266V21.7734C68.8484 22.6953 69.0984 23.4062 69.5984 23.9062C70.0984 24.3984 70.8015 24.6445 71.7078 24.6445C72.1687 24.6445 72.6218 24.5586 73.0671 24.3867C73.5203 24.207 73.9265 23.9609 74.2859 23.6484L76.114 25.3594C75.4968 25.9375 74.8015 26.3867 74.0281 26.707C73.2625 27.0195 72.489 27.1758 71.7078 27.1758ZM90.3523 19.7695L90.0125 19.1953L84.4226 9.96094H87.4578L91.4187 16.6641L91.8406 17.3555L97.6648 27H94.6296L90.3523 19.7695ZM90.3171 16.8867L94.3718 9.96094H97.407L91.7703 19.3828L87.3171 27H84.282L90.3171 16.8867ZM101.626 24.3164H105.598C106.755 24.3164 107.649 24.0273 108.282 23.4492C108.923 22.8711 109.243 22.0508 109.243 20.9883V15.9727C109.243 14.9102 108.923 14.0898 108.282 13.5117C107.649 12.9336 106.755 12.6445 105.598 12.6445H101.626V9.96094H105.528C106.919 9.96094 108.106 10.1992 109.091 10.6758C110.083 11.1523 110.837 11.8477 111.352 12.7617C111.868 13.6758 112.126 14.7773 112.126 16.0664V20.8945C112.126 22.1523 111.872 23.2383 111.364 24.1523C110.856 25.0664 110.106 25.7695 109.114 26.2617C108.13 26.7539 106.93 27 105.516 27H101.626V24.3164ZM100.009 9.96094H102.809V27H100.009V9.96094ZM123.552 17.707H129.001C129.454 17.707 129.848 17.6055 130.184 17.4023C130.528 17.1914 130.794 16.8945 130.981 16.5117C131.177 16.1289 131.274 15.6875 131.274 15.1875C131.274 14.6797 131.18 14.2344 130.993 13.8516C130.805 13.4688 130.54 13.1719 130.196 12.9609C129.852 12.75 129.454 12.6445 129.001 12.6445H123.552V9.96094H128.919C129.958 9.96094 130.872 10.1797 131.661 10.6172C132.45 11.0469 133.063 11.6562 133.501 12.4453C133.938 13.2344 134.157 14.1484 134.157 15.1875C134.157 16.2266 133.938 17.1406 133.501 17.9297C133.063 18.7109 132.45 19.3164 131.661 19.7461C130.872 20.1758 129.958 20.3906 128.919 20.3906H123.552V17.707ZM122.204 9.96094H125.005V27H122.204V9.96094ZM136.337 14.8359H139.255V27H136.337V14.8359ZM143.11 17.9648C142.923 17.7617 142.692 17.6094 142.419 17.5078C142.145 17.3984 141.829 17.3438 141.469 17.3438C140.766 17.3438 140.219 17.5547 139.829 17.9766C139.446 18.3906 139.255 18.9688 139.255 19.7109L139.009 16.957C139.36 16.2305 139.817 15.668 140.38 15.2695C140.95 14.8633 141.575 14.6602 142.255 14.6602C142.786 14.6602 143.266 14.7422 143.696 14.9062C144.126 15.0625 144.501 15.2969 144.821 15.6094L143.11 17.9648ZM151.126 27.1758C150.048 27.1758 149.122 26.9688 148.348 26.5547C147.583 26.1406 146.997 25.5391 146.591 24.75C146.192 23.9531 145.993 22.9961 145.993 21.8789V19.8984C145.993 18.7969 146.192 17.8555 146.591 17.0742C146.997 16.2852 147.583 15.6875 148.348 15.2812C149.122 14.8672 150.048 14.6602 151.126 14.6602C152.204 14.6602 153.126 14.8672 153.891 15.2812C154.665 15.6875 155.251 16.2852 155.649 17.0742C156.055 17.8555 156.259 18.7969 156.259 19.8984V21.9141C156.259 23.0234 156.055 23.9727 155.649 24.7617C155.251 25.543 154.665 26.1406 153.891 26.5547C153.126 26.9688 152.204 27.1758 151.126 27.1758ZM151.126 24.4922C151.868 24.4922 152.442 24.2695 152.848 23.8242C153.255 23.3711 153.458 22.7344 153.458 21.9141V19.8984C153.458 19.0859 153.255 18.457 152.848 18.0117C152.442 17.5664 151.868 17.3438 151.126 17.3438C150.384 17.3438 149.809 17.5664 149.403 18.0117C148.997 18.457 148.794 19.0859 148.794 19.8984V21.9141C148.794 22.7344 148.993 23.3711 149.391 23.8242C149.798 24.2695 150.376 24.4922 151.126 24.4922ZM157.782 29.2617H158.825C159.083 29.2617 159.282 29.1797 159.423 29.0156C159.563 28.8594 159.634 28.6328 159.634 28.3359V14.8359H162.434V28.7227C162.434 29.7461 162.173 30.5391 161.649 31.1016C161.134 31.6641 160.407 31.9453 159.469 31.9453H157.782V29.2617ZM159.61 9.96094H162.458V12.7617H159.61V9.96094ZM170.966 27.1758C169.817 27.1758 168.837 26.9648 168.024 26.543C167.212 26.1211 166.591 25.5039 166.161 24.6914C165.731 23.8711 165.516 22.8828 165.516 21.7266V20.3555C165.516 19.1523 165.719 18.125 166.126 17.2734C166.54 16.4219 167.137 15.7734 167.919 15.3281C168.708 14.8828 169.653 14.6602 170.755 14.6602C171.794 14.6602 172.68 14.9219 173.415 15.4453C174.157 15.9609 174.719 16.7109 175.102 17.6953C175.493 18.6797 175.688 19.8672 175.688 21.2578V22.0547H167.427V20.0039H173.087L173.075 19.875C172.997 19.0234 172.759 18.3633 172.36 17.8945C171.962 17.4258 171.427 17.1914 170.755 17.1914C169.911 17.1914 169.259 17.457 168.798 17.9883C168.337 18.5117 168.106 19.2578 168.106 20.2266V21.7734C168.106 22.6953 168.356 23.4062 168.856 23.9062C169.356 24.3984 170.059 24.6445 170.966 24.6445C171.427 24.6445 171.88 24.5586 172.325 24.3867C172.778 24.207 173.184 23.9609 173.544 23.6484L175.372 25.3594C174.755 25.9375 174.059 26.3867 173.286 26.707C172.52 27.0195 171.747 27.1758 170.966 27.1758ZM183.762 27.1758C182.63 27.1758 181.661 26.9648 180.856 26.543C180.052 26.1133 179.438 25.4922 179.016 24.6797C178.594 23.8594 178.384 22.8711 178.384 21.7148V20.0625C178.384 18.9219 178.594 17.9492 179.016 17.1445C179.438 16.332 180.052 15.7148 180.856 15.293C181.661 14.8711 182.63 14.6602 183.762 14.6602C184.411 14.6602 185.02 14.7383 185.591 14.8945C186.169 15.043 186.684 15.2617 187.137 15.5508C187.598 15.8398 187.981 16.1914 188.286 16.6055L186.387 18.3867C186.067 18.0508 185.692 17.793 185.262 17.6133C184.833 17.4336 184.384 17.3438 183.915 17.3438C183.048 17.3438 182.376 17.582 181.899 18.0586C181.423 18.5273 181.184 19.1953 181.184 20.0625V21.7148C181.184 22.6055 181.419 23.293 181.887 23.7773C182.364 24.2539 183.04 24.4922 183.915 24.4922C184.391 24.4922 184.844 24.3945 185.274 24.1992C185.704 24.0039 186.075 23.7266 186.387 23.3672L188.286 25.2656C187.973 25.6719 187.587 26.0195 187.126 26.3086C186.673 26.5898 186.157 26.8047 185.579 26.9531C185.009 27.1016 184.403 27.1758 183.762 27.1758ZM193.969 27.0586C192.946 27.0586 192.196 26.7891 191.719 26.25C191.243 25.7031 191.005 24.8984 191.005 23.8359V11.2969H193.805V23.4492C193.805 23.7461 193.864 23.9766 193.981 24.1406C194.098 24.2969 194.27 24.375 194.497 24.375H195.469V27.0586H193.969ZM189.751 14.8359H195.469V17.2852H189.751V14.8359Z" fill="#F1F5F9"/>
<path d="M210.05 17.2355L208.191 19.0456C207.429 19.7879 207.001 20.7947 207.001 21.8445C207.001 22.8943 207.429 23.9011 208.191 24.6434C208.954 25.3857 209.988 25.8027 211.066 25.8027C212.144 25.8027 213.178 25.3857 213.94 24.6434L216.417 22.2304C216.877 21.7827 217.22 21.2342 217.417 20.6308C217.614 20.0275 217.659 19.3869 217.549 18.7629C217.439 18.139 217.177 17.5498 216.785 17.0448C216.393 16.5398 215.882 16.1338 215.295 15.8608L214.501 16.6339C214.421 16.7126 214.351 16.8008 214.293 16.8965C214.746 17.0234 215.157 17.2632 215.486 17.5924C215.815 17.9215 216.05 18.3285 216.168 18.7732C216.286 19.2178 216.282 19.6847 216.158 20.1277C216.034 20.5707 215.793 20.9744 215.459 21.299L212.984 23.7106C212.475 24.2057 211.786 24.4839 211.067 24.4839C210.347 24.4839 209.658 24.2057 209.149 23.7106C208.641 23.2155 208.355 22.544 208.355 21.8438C208.355 21.1437 208.641 20.4721 209.149 19.977L210.224 18.9322C210.072 18.379 210.014 17.8069 210.05 17.2355Z" fill="#F1F5F9"/>
<path d="M212.586 14.7684C212.126 15.2161 211.783 15.7646 211.586 16.368C211.389 16.9713 211.344 17.6119 211.454 18.2358C211.564 18.8598 211.826 19.449 212.218 19.954C212.61 20.459 213.121 20.865 213.707 21.1379L214.757 20.1142C214.298 19.9942 213.879 19.7586 213.543 19.431C213.207 19.1035 212.965 18.6956 212.842 18.2482C212.719 17.8008 212.719 17.3298 212.842 16.8825C212.965 16.4352 213.207 16.0273 213.543 15.6998L216.019 13.2881C216.527 12.793 217.217 12.5149 217.936 12.5149C218.655 12.5149 219.345 12.793 219.853 13.2881C220.362 13.7833 220.648 14.4548 220.648 15.1549C220.648 15.8551 220.362 16.5266 219.853 17.0217L218.779 18.0666C218.931 18.6207 218.989 19.1946 218.952 19.7646L220.811 17.9545C221.574 17.2122 222.002 16.2054 222.002 15.1556C222.002 14.1058 221.574 13.099 220.811 12.3567C220.049 11.6144 219.015 11.1974 217.937 11.1974C216.859 11.1974 215.825 11.6144 215.062 12.3567L212.586 14.7684Z" fill="#F1F5F9"/>
</svg>
