<svg width="195" height="37" viewBox="0 0 195 37" fill="none" xmlns="http://www.w3.org/2000/svg">
<rect x="0.000732422" width="195.001" height="37" rx="18.5" fill="#0D423B"/>
<path d="M12.4617 9.96094H15.2625V27H12.4617V9.96094ZM13.6335 17.3555H22.1296V20.0273H13.6335V17.3555ZM13.6335 9.96094H23.4187V12.6445H13.6335V9.96094ZM25.9265 9.96094H28.7156V12.7617H25.9265V9.96094ZM25.9265 14.8359H28.7156V27H25.9265V14.8359ZM36.2273 31.9453C35.2898 31.9453 34.45 31.7734 33.7078 31.4297C32.9656 31.0938 32.3875 30.6172 31.9734 30L33.8601 28.2773C34.1492 28.6445 34.4968 28.9258 34.9031 29.1211C35.3171 29.3164 35.7468 29.4141 36.1921 29.4141C36.989 29.4141 37.6179 29.1953 38.0789 28.7578C38.5398 28.3281 38.7703 27.7188 38.7703 26.9297V14.8359H41.571V26.6367C41.571 27.7539 41.3601 28.7109 40.9382 29.5078C40.5242 30.3047 39.9148 30.9102 39.1101 31.3242C38.3132 31.7383 37.3523 31.9453 36.2273 31.9453ZM35.8289 27.1992C34.9539 27.1992 34.2039 27 33.5789 26.6016C32.9617 26.1953 32.489 25.6133 32.1609 24.8555C31.8406 24.0898 31.6804 23.168 31.6804 22.0898V19.7695C31.6804 18.6914 31.8406 17.7695 32.1609 17.0039C32.4812 16.2305 32.946 15.6445 33.5554 15.2461C34.1726 14.8398 34.9109 14.6367 35.7703 14.6367C36.4578 14.6367 37.0828 14.8281 37.6453 15.2109C38.2156 15.5938 38.6726 16.1328 39.0164 16.8281L38.7703 19.418C38.7703 18.9492 38.6882 18.5508 38.5242 18.2227C38.3601 17.8945 38.1218 17.6445 37.8093 17.4727C37.4968 17.3008 37.1179 17.2148 36.6726 17.2148C35.9773 17.2148 35.4382 17.4414 35.0554 17.8945C34.6726 18.3477 34.4812 18.9805 34.4812 19.793V22.0898C34.4812 22.8945 34.6726 23.5195 35.0554 23.9648C35.4382 24.4023 35.9773 24.6211 36.6726 24.6211C37.1179 24.6211 37.4968 24.5352 37.8093 24.3633C38.1218 24.1836 38.3601 23.9297 38.5242 23.6016C38.6882 23.2734 38.7703 22.8789 38.7703 22.418L38.9343 25.0898C38.6921 25.7227 38.3015 26.2344 37.7625 26.625C37.2312 27.0078 36.5867 27.1992 35.8289 27.1992ZM59.325 19.8047C59.325 19.0156 59.1296 18.4102 58.739 17.9883C58.3484 17.5586 57.7937 17.3438 57.075 17.3438C56.3953 17.3438 55.8679 17.5508 55.4929 17.9648C55.1257 18.3711 54.9421 18.9531 54.9421 19.7109L54.4031 17.1328C54.7859 16.3438 55.2859 15.7344 55.9031 15.3047C56.5281 14.875 57.2195 14.6602 57.9773 14.6602C58.8523 14.6602 59.5984 14.8594 60.2156 15.2578C60.8406 15.6562 61.3132 16.2422 61.6335 17.0156C61.9617 17.7812 62.1257 18.707 62.1257 19.793V27H59.325V19.8047ZM44.9695 14.8359H47.7703V27H44.9695V14.8359ZM52.1531 19.8047C52.1531 19.0156 51.9578 18.4102 51.5671 17.9883C51.1843 17.5586 50.6375 17.3438 49.9265 17.3438C49.239 17.3438 48.7078 17.5312 48.3328 17.9062C47.9578 18.2734 47.7703 18.7969 47.7703 19.4766L47.5242 16.957C47.8914 16.2148 48.3601 15.6484 48.9304 15.2578C49.5007 14.8594 50.1531 14.6602 50.8875 14.6602C51.739 14.6602 52.4695 14.8594 53.0789 15.2578C53.6882 15.6562 54.1492 16.2422 54.4617 17.0156C54.782 17.7812 54.9421 18.707 54.9421 19.793V27H52.1531V19.8047ZM72.3093 19.2891C72.3093 18.6094 72.1062 18.082 71.7 17.707C71.3015 17.332 70.7351 17.1445 70.0007 17.1445C69.532 17.1445 69.071 17.2188 68.6179 17.3672C68.1648 17.5156 67.7585 17.7227 67.3992 17.9883L65.5359 16.418C66.0125 15.8633 66.6375 15.4336 67.4109 15.1289C68.1843 14.8164 69.0437 14.6602 69.989 14.6602C71.0203 14.6602 71.9031 14.8398 72.6375 15.1992C73.3718 15.5508 73.9304 16.0664 74.3132 16.7461C74.7039 17.418 74.8992 18.2305 74.8992 19.1836V27H72.3093V19.2891ZM69.1218 27.1758C67.7234 27.1758 66.6765 26.8672 65.9812 26.25C65.2859 25.625 64.9382 24.6797 64.9382 23.4141C64.9382 22.2109 65.2898 21.3086 65.9929 20.707C66.696 20.1055 67.7507 19.8047 69.157 19.8047H72.4148L72.5789 21.9844H69.1687C68.614 21.9844 68.196 22.1016 67.9148 22.3359C67.6414 22.5703 67.5046 22.9297 67.5046 23.4141C67.5046 23.9219 67.6843 24.3008 68.0437 24.5508C68.4031 24.793 68.946 24.9141 69.6726 24.9141C70.5632 24.9141 71.2234 24.8164 71.6531 24.6211C72.0906 24.4258 72.3093 24.1211 72.3093 23.707L72.5554 25.4414C72.4226 25.8242 72.1882 26.1445 71.8523 26.4023C71.5242 26.6602 71.1257 26.8555 70.657 26.9883C70.1882 27.1133 69.6765 27.1758 69.1218 27.1758ZM86.325 17.707H91.7742C92.2273 17.707 92.6218 17.6055 92.9578 17.4023C93.3015 17.1914 93.5671 16.8945 93.7546 16.5117C93.95 16.1289 94.0476 15.6875 94.0476 15.1875C94.0476 14.6797 93.9539 14.2344 93.7664 13.8516C93.5789 13.4688 93.3132 13.1719 92.9695 12.9609C92.6257 12.75 92.2273 12.6445 91.7742 12.6445H86.325V9.96094H91.6921C92.7312 9.96094 93.6453 10.1797 94.4343 10.6172C95.2234 11.0469 95.8367 11.6562 96.2742 12.4453C96.7117 13.2344 96.9304 14.1484 96.9304 15.1875C96.9304 16.2266 96.7117 17.1406 96.2742 17.9297C95.8367 18.7109 95.2234 19.3164 94.4343 19.7461C93.6453 20.1758 92.7312 20.3906 91.6921 20.3906H86.325V17.707ZM84.9773 9.96094H87.7781V27H84.9773V9.96094ZM99.1101 14.8359H102.028V27H99.1101V14.8359ZM105.884 17.9648C105.696 17.7617 105.466 17.6094 105.192 17.5078C104.919 17.3984 104.602 17.3438 104.243 17.3438C103.54 17.3438 102.993 17.5547 102.602 17.9766C102.219 18.3906 102.028 18.9688 102.028 19.7109L101.782 16.957C102.134 16.2305 102.591 15.668 103.153 15.2695C103.723 14.8633 104.348 14.6602 105.028 14.6602C105.559 14.6602 106.04 14.7422 106.469 14.9062C106.899 15.0625 107.274 15.2969 107.594 15.6094L105.884 17.9648ZM113.899 27.1758C112.821 27.1758 111.895 26.9688 111.122 26.5547C110.356 26.1406 109.77 25.5391 109.364 24.75C108.966 23.9531 108.766 22.9961 108.766 21.8789V19.8984C108.766 18.7969 108.966 17.8555 109.364 17.0742C109.77 16.2852 110.356 15.6875 111.122 15.2812C111.895 14.8672 112.821 14.6602 113.899 14.6602C114.977 14.6602 115.899 14.8672 116.665 15.2812C117.438 15.6875 118.024 16.2852 118.423 17.0742C118.829 17.8555 119.032 18.7969 119.032 19.8984V21.9141C119.032 23.0234 118.829 23.9727 118.423 24.7617C118.024 25.543 117.438 26.1406 116.665 26.5547C115.899 26.9688 114.977 27.1758 113.899 27.1758ZM113.899 24.4922C114.641 24.4922 115.216 24.2695 115.622 23.8242C116.028 23.3711 116.231 22.7344 116.231 21.9141V19.8984C116.231 19.0859 116.028 18.457 115.622 18.0117C115.216 17.5664 114.641 17.3438 113.899 17.3438C113.157 17.3438 112.583 17.5664 112.177 18.0117C111.77 18.457 111.567 19.0859 111.567 19.8984V21.9141C111.567 22.7344 111.766 23.3711 112.165 23.8242C112.571 24.2695 113.149 24.4922 113.899 24.4922ZM120.555 29.2617H121.598C121.856 29.2617 122.055 29.1797 122.196 29.0156C122.337 28.8594 122.407 28.6328 122.407 28.3359V14.8359H125.208V28.7227C125.208 29.7461 124.946 30.5391 124.423 31.1016C123.907 31.6641 123.18 31.9453 122.243 31.9453H120.555V29.2617ZM122.384 9.96094H125.231V12.7617H122.384V9.96094ZM133.739 27.1758C132.591 27.1758 131.61 26.9648 130.798 26.543C129.985 26.1211 129.364 25.5039 128.934 24.6914C128.505 23.8711 128.29 22.8828 128.29 21.7266V20.3555C128.29 19.1523 128.493 18.125 128.899 17.2734C129.313 16.4219 129.911 15.7734 130.692 15.3281C131.481 14.8828 132.427 14.6602 133.528 14.6602C134.567 14.6602 135.454 14.9219 136.188 15.4453C136.93 15.9609 137.493 16.7109 137.876 17.6953C138.266 18.6797 138.462 19.8672 138.462 21.2578V22.0547H130.2V20.0039H135.86L135.848 19.875C135.77 19.0234 135.532 18.3633 135.134 17.8945C134.735 17.4258 134.2 17.1914 133.528 17.1914C132.684 17.1914 132.032 17.457 131.571 17.9883C131.11 18.5117 130.88 19.2578 130.88 20.2266V21.7734C130.88 22.6953 131.13 23.4062 131.63 23.9062C132.13 24.3984 132.833 24.6445 133.739 24.6445C134.2 24.6445 134.653 24.5586 135.098 24.3867C135.552 24.207 135.958 23.9609 136.317 23.6484L138.145 25.3594C137.528 25.9375 136.833 26.3867 136.059 26.707C135.294 27.0195 134.52 27.1758 133.739 27.1758ZM146.536 27.1758C145.403 27.1758 144.434 26.9648 143.63 26.543C142.825 26.1133 142.212 25.4922 141.79 24.6797C141.368 23.8594 141.157 22.8711 141.157 21.7148V20.0625C141.157 18.9219 141.368 17.9492 141.79 17.1445C142.212 16.332 142.825 15.7148 143.63 15.293C144.434 14.8711 145.403 14.6602 146.536 14.6602C147.184 14.6602 147.794 14.7383 148.364 14.8945C148.942 15.043 149.458 15.2617 149.911 15.5508C150.372 15.8398 150.755 16.1914 151.059 16.6055L149.161 18.3867C148.841 18.0508 148.466 17.793 148.036 17.6133C147.606 17.4336 147.157 17.3438 146.688 17.3438C145.821 17.3438 145.149 17.582 144.673 18.0586C144.196 18.5273 143.958 19.1953 143.958 20.0625V21.7148C143.958 22.6055 144.192 23.293 144.661 23.7773C145.137 24.2539 145.813 24.4922 146.688 24.4922C147.165 24.4922 147.618 24.3945 148.048 24.1992C148.477 24.0039 148.848 23.7266 149.161 23.3672L151.059 25.2656C150.747 25.6719 150.36 26.0195 149.899 26.3086C149.446 26.5898 148.93 26.8047 148.352 26.9531C147.782 27.1016 147.177 27.1758 146.536 27.1758ZM156.743 27.0586C155.719 27.0586 154.969 26.7891 154.493 26.25C154.016 25.7031 153.778 24.8984 153.778 23.8359V11.2969H156.579V23.4492C156.579 23.7461 156.637 23.9766 156.755 24.1406C156.872 24.2969 157.044 24.375 157.27 24.375H158.243V27.0586H156.743ZM152.524 14.8359H158.243V17.2852H152.524V14.8359Z" fill="#F1F5F9"/>
<path d="M173.05 17.2355L171.191 19.0456C170.429 19.7879 170.001 20.7947 170.001 21.8445C170.001 22.8943 170.429 23.9011 171.191 24.6434C171.954 25.3857 172.988 25.8027 174.066 25.8027C175.144 25.8027 176.178 25.3857 176.94 24.6434L179.417 22.2304C179.877 21.7827 180.22 21.2342 180.417 20.6308C180.614 20.0275 180.659 19.3869 180.549 18.7629C180.439 18.139 180.177 17.5498 179.785 17.0448C179.393 16.5398 178.882 16.1338 178.295 15.8608L177.501 16.6339C177.421 16.7126 177.351 16.8008 177.293 16.8965C177.746 17.0234 178.157 17.2632 178.486 17.5924C178.815 17.9215 179.05 18.3285 179.168 18.7732C179.286 19.2178 179.282 19.6847 179.158 20.1277C179.034 20.5707 178.793 20.9744 178.459 21.299L175.984 23.7106C175.475 24.2057 174.786 24.4839 174.067 24.4839C173.347 24.4839 172.658 24.2057 172.149 23.7106C171.641 23.2155 171.355 22.544 171.355 21.8438C171.355 21.1437 171.641 20.4721 172.149 19.977L173.224 18.9322C173.072 18.379 173.014 17.8069 173.05 17.2355Z" fill="#F1F5F9"/>
<path d="M175.586 14.7684C175.126 15.2161 174.783 15.7646 174.586 16.368C174.389 16.9713 174.344 17.6119 174.454 18.2358C174.564 18.8598 174.826 19.449 175.218 19.954C175.61 20.459 176.121 20.865 176.707 21.1379L177.757 20.1142C177.298 19.9942 176.879 19.7586 176.543 19.431C176.207 19.1035 175.965 18.6956 175.842 18.2482C175.719 17.8008 175.719 17.3298 175.842 16.8825C175.965 16.4352 176.207 16.0273 176.543 15.6998L179.019 13.2881C179.527 12.793 180.217 12.5149 180.936 12.5149C181.655 12.5149 182.345 12.793 182.853 13.2881C183.362 13.7833 183.648 14.4548 183.648 15.1549C183.648 15.8551 183.362 16.5266 182.853 17.0217L181.779 18.0666C181.931 18.6207 181.989 19.1946 181.952 19.7646L183.811 17.9545C184.574 17.2122 185.002 16.2054 185.002 15.1556C185.002 14.1058 184.574 13.099 183.811 12.3567C183.049 11.6144 182.015 11.1974 180.937 11.1974C179.859 11.1974 178.825 11.6144 178.062 12.3567L175.586 14.7684Z" fill="#F1F5F9"/>
</svg>
