<svg width="201" height="37" viewBox="0 0 201 37" fill="none" xmlns="http://www.w3.org/2000/svg">
<rect x="0.000732422" width="201.001" height="37" rx="18.5" fill="#0D423B"/>
<path d="M24.3445 17.6484V20.8008C24.3445 22.0664 24.0906 23.1836 23.5828 24.1523C23.0828 25.1133 22.3718 25.8594 21.45 26.3906C20.5359 26.9141 19.4734 27.1758 18.2625 27.1758C17.0437 27.1758 15.9695 26.9297 15.0398 26.4375C14.1101 25.9375 13.3875 25.2344 12.8718 24.3281C12.364 23.4219 12.1101 22.3711 12.1101 21.1758V16.1484C12.1101 14.8828 12.3601 13.7695 12.8601 12.8086C13.3679 11.8477 14.0789 11.1055 14.9929 10.582C15.9148 10.0508 16.9812 9.78516 18.1921 9.78516C19.1843 9.78516 20.1023 9.99609 20.946 10.418C21.7898 10.832 22.4929 11.4219 23.0554 12.1875C23.6179 12.9531 24.0007 13.8398 24.2039 14.8477H21.1804C21.0476 14.3789 20.8289 13.9766 20.5242 13.6406C20.2273 13.3047 19.8718 13.0508 19.4578 12.8789C19.0515 12.6992 18.6296 12.6094 18.1921 12.6094C17.5515 12.6094 16.989 12.7578 16.5046 13.0547C16.0281 13.3438 15.657 13.7578 15.3914 14.2969C15.1257 14.8281 14.9929 15.4453 14.9929 16.1484V21.1758C14.9929 21.8086 15.1257 22.3672 15.3914 22.8516C15.6648 23.3281 16.0476 23.6992 16.5398 23.9648C17.0398 24.2227 17.614 24.3516 18.2625 24.3516C18.9031 24.3516 19.4656 24.2148 19.95 23.9414C20.4343 23.6602 20.8054 23.2578 21.0632 22.7344C21.3289 22.2031 21.4617 21.5742 21.4617 20.8477V20.332H18.4382V17.6484H24.3445ZM27.6609 9.96094H30.45V12.7617H27.6609V9.96094ZM27.6609 14.8359H30.45V27H27.6609V14.8359ZM37.0476 27.0586C36.0242 27.0586 35.2742 26.7891 34.7976 26.25C34.321 25.7031 34.0828 24.8984 34.0828 23.8359V11.2969H36.8835V23.4492C36.8835 23.7461 36.9421 23.9766 37.0593 24.1406C37.1765 24.2969 37.3484 24.375 37.575 24.375H38.5476V27.0586H37.0476ZM32.8289 14.8359H38.5476V17.2852H32.8289V14.8359ZM51.3328 9.96094H54.1335V27H51.3328V9.96094ZM41.8289 9.96094H44.6296V27H41.8289V9.96094ZM43.3171 17.2383H53.0085V19.9219H43.3171V17.2383ZM65.0437 14.8359H67.8328V27H65.0437V14.8359ZM60.6843 22.2305C60.6843 22.9492 60.8757 23.5078 61.2585 23.9062C61.6414 24.2969 62.1804 24.4922 62.8757 24.4922C63.571 24.4922 64.1062 24.3086 64.4812 23.9414C64.8562 23.5664 65.0437 23.0312 65.0437 22.3359L65.2078 24.9375C64.9734 25.5703 64.5828 26.1016 64.0359 26.5312C63.489 26.9609 62.821 27.1758 62.032 27.1758C60.7117 27.1758 59.6882 26.75 58.9617 25.8984C58.2429 25.0469 57.8835 23.8438 57.8835 22.2891V14.8359H60.6843V22.2305ZM76.9851 27.1758C76.2507 27.1758 75.614 26.9961 75.075 26.6367C74.5359 26.2695 74.1375 25.7539 73.8796 25.0898L74.0437 22.4297C74.0437 22.8906 74.1257 23.2852 74.2898 23.6133C74.4539 23.9336 74.6921 24.1797 75.0046 24.3516C75.3171 24.5234 75.696 24.6094 76.1414 24.6094C76.8367 24.6094 77.3757 24.3906 77.7585 23.9531C78.1414 23.5156 78.3328 22.8945 78.3328 22.0898V19.8047C78.3328 18.9844 78.1414 18.3516 77.7585 17.9062C77.3757 17.4531 76.8367 17.2266 76.1414 17.2266C75.696 17.2266 75.3171 17.3125 75.0046 17.4844C74.6921 17.6484 74.4539 17.8945 74.2898 18.2227C74.1257 18.5508 74.0437 18.9453 74.0437 19.4062L73.7976 16.8867C74.1414 16.1758 74.5945 15.6289 75.157 15.2461C75.7273 14.8555 76.3562 14.6602 77.0437 14.6602C77.9031 14.6602 78.6375 14.8594 79.2468 15.2578C79.864 15.6562 80.3328 16.2422 80.6531 17.0156C80.9734 17.7812 81.1335 18.707 81.1335 19.793V22.0898C81.1335 23.1602 80.9695 24.0781 80.6414 24.8438C80.321 25.6016 79.8484 26.1797 79.2234 26.5781C78.5984 26.9766 77.8523 27.1758 76.9851 27.1758ZM71.2429 9.96094H74.0437V27H71.2429V9.96094ZM92.325 17.707H97.7742C98.2273 17.707 98.6218 17.6055 98.9578 17.4023C99.3015 17.1914 99.5671 16.8945 99.7546 16.5117C99.95 16.1289 100.048 15.6875 100.048 15.1875C100.048 14.6797 99.9539 14.2344 99.7664 13.8516C99.5789 13.4688 99.3132 13.1719 98.9695 12.9609C98.6257 12.75 98.2273 12.6445 97.7742 12.6445H92.325V9.96094H97.6921C98.7312 9.96094 99.6453 10.1797 100.434 10.6172C101.223 11.0469 101.837 11.6562 102.274 12.4453C102.712 13.2344 102.93 14.1484 102.93 15.1875C102.93 16.2266 102.712 17.1406 102.274 17.9297C101.837 18.7109 101.223 19.3164 100.434 19.7461C99.6453 20.1758 98.7312 20.3906 97.6921 20.3906H92.325V17.707ZM90.9773 9.96094H93.7781V27H90.9773V9.96094ZM105.11 14.8359H108.028V27H105.11V14.8359ZM111.884 17.9648C111.696 17.7617 111.466 17.6094 111.192 17.5078C110.919 17.3984 110.602 17.3438 110.243 17.3438C109.54 17.3438 108.993 17.5547 108.602 17.9766C108.219 18.3906 108.028 18.9688 108.028 19.7109L107.782 16.957C108.134 16.2305 108.591 15.668 109.153 15.2695C109.723 14.8633 110.348 14.6602 111.028 14.6602C111.559 14.6602 112.04 14.7422 112.469 14.9062C112.899 15.0625 113.274 15.2969 113.594 15.6094L111.884 17.9648ZM119.899 27.1758C118.821 27.1758 117.895 26.9688 117.122 26.5547C116.356 26.1406 115.77 25.5391 115.364 24.75C114.966 23.9531 114.766 22.9961 114.766 21.8789V19.8984C114.766 18.7969 114.966 17.8555 115.364 17.0742C115.77 16.2852 116.356 15.6875 117.122 15.2812C117.895 14.8672 118.821 14.6602 119.899 14.6602C120.977 14.6602 121.899 14.8672 122.665 15.2812C123.438 15.6875 124.024 16.2852 124.423 17.0742C124.829 17.8555 125.032 18.7969 125.032 19.8984V21.9141C125.032 23.0234 124.829 23.9727 124.423 24.7617C124.024 25.543 123.438 26.1406 122.665 26.5547C121.899 26.9688 120.977 27.1758 119.899 27.1758ZM119.899 24.4922C120.641 24.4922 121.216 24.2695 121.622 23.8242C122.028 23.3711 122.231 22.7344 122.231 21.9141V19.8984C122.231 19.0859 122.028 18.457 121.622 18.0117C121.216 17.5664 120.641 17.3438 119.899 17.3438C119.157 17.3438 118.583 17.5664 118.177 18.0117C117.77 18.457 117.567 19.0859 117.567 19.8984V21.9141C117.567 22.7344 117.766 23.3711 118.165 23.8242C118.571 24.2695 119.149 24.4922 119.899 24.4922ZM126.555 29.2617H127.598C127.856 29.2617 128.055 29.1797 128.196 29.0156C128.337 28.8594 128.407 28.6328 128.407 28.3359V14.8359H131.208V28.7227C131.208 29.7461 130.946 30.5391 130.423 31.1016C129.907 31.6641 129.18 31.9453 128.243 31.9453H126.555V29.2617ZM128.384 9.96094H131.231V12.7617H128.384V9.96094ZM139.739 27.1758C138.591 27.1758 137.61 26.9648 136.798 26.543C135.985 26.1211 135.364 25.5039 134.934 24.6914C134.505 23.8711 134.29 22.8828 134.29 21.7266V20.3555C134.29 19.1523 134.493 18.125 134.899 17.2734C135.313 16.4219 135.911 15.7734 136.692 15.3281C137.481 14.8828 138.427 14.6602 139.528 14.6602C140.567 14.6602 141.454 14.9219 142.188 15.4453C142.93 15.9609 143.493 16.7109 143.876 17.6953C144.266 18.6797 144.462 19.8672 144.462 21.2578V22.0547H136.2V20.0039H141.86L141.848 19.875C141.77 19.0234 141.532 18.3633 141.134 17.8945C140.735 17.4258 140.2 17.1914 139.528 17.1914C138.684 17.1914 138.032 17.457 137.571 17.9883C137.11 18.5117 136.88 19.2578 136.88 20.2266V21.7734C136.88 22.6953 137.13 23.4062 137.63 23.9062C138.13 24.3984 138.833 24.6445 139.739 24.6445C140.2 24.6445 140.653 24.5586 141.098 24.3867C141.552 24.207 141.958 23.9609 142.317 23.6484L144.145 25.3594C143.528 25.9375 142.833 26.3867 142.059 26.707C141.294 27.0195 140.52 27.1758 139.739 27.1758ZM152.536 27.1758C151.403 27.1758 150.434 26.9648 149.63 26.543C148.825 26.1133 148.212 25.4922 147.79 24.6797C147.368 23.8594 147.157 22.8711 147.157 21.7148V20.0625C147.157 18.9219 147.368 17.9492 147.79 17.1445C148.212 16.332 148.825 15.7148 149.63 15.293C150.434 14.8711 151.403 14.6602 152.536 14.6602C153.184 14.6602 153.794 14.7383 154.364 14.8945C154.942 15.043 155.458 15.2617 155.911 15.5508C156.372 15.8398 156.755 16.1914 157.059 16.6055L155.161 18.3867C154.841 18.0508 154.466 17.793 154.036 17.6133C153.606 17.4336 153.157 17.3438 152.688 17.3438C151.821 17.3438 151.149 17.582 150.673 18.0586C150.196 18.5273 149.958 19.1953 149.958 20.0625V21.7148C149.958 22.6055 150.192 23.293 150.661 23.7773C151.137 24.2539 151.813 24.4922 152.688 24.4922C153.165 24.4922 153.618 24.3945 154.048 24.1992C154.477 24.0039 154.848 23.7266 155.161 23.3672L157.059 25.2656C156.747 25.6719 156.36 26.0195 155.899 26.3086C155.446 26.5898 154.93 26.8047 154.352 26.9531C153.782 27.1016 153.177 27.1758 152.536 27.1758ZM162.743 27.0586C161.719 27.0586 160.969 26.7891 160.493 26.25C160.016 25.7031 159.778 24.8984 159.778 23.8359V11.2969H162.579V23.4492C162.579 23.7461 162.637 23.9766 162.755 24.1406C162.872 24.2969 163.044 24.375 163.27 24.375H164.243V27.0586H162.743ZM158.524 14.8359H164.243V17.2852H158.524V14.8359Z" fill="#F1F5F9"/>
<path d="M179.05 17.2355L177.191 19.0456C176.429 19.7879 176.001 20.7947 176.001 21.8445C176.001 22.8943 176.429 23.9011 177.191 24.6434C177.954 25.3857 178.988 25.8027 180.066 25.8027C181.144 25.8027 182.178 25.3857 182.94 24.6434L185.417 22.2304C185.877 21.7827 186.22 21.2342 186.417 20.6308C186.614 20.0275 186.659 19.3869 186.549 18.7629C186.439 18.139 186.177 17.5498 185.785 17.0448C185.393 16.5398 184.882 16.1338 184.295 15.8608L183.501 16.6339C183.421 16.7126 183.351 16.8008 183.293 16.8965C183.746 17.0234 184.157 17.2632 184.486 17.5924C184.815 17.9215 185.05 18.3285 185.168 18.7732C185.286 19.2178 185.282 19.6847 185.158 20.1277C185.034 20.5707 184.793 20.9744 184.459 21.299L181.984 23.7106C181.475 24.2057 180.786 24.4839 180.067 24.4839C179.347 24.4839 178.658 24.2057 178.149 23.7106C177.641 23.2155 177.355 22.544 177.355 21.8438C177.355 21.1437 177.641 20.4721 178.149 19.977L179.224 18.9322C179.072 18.379 179.014 17.8069 179.05 17.2355Z" fill="#F1F5F9"/>
<path d="M181.586 14.7684C181.126 15.2161 180.783 15.7646 180.586 16.368C180.389 16.9713 180.344 17.6119 180.454 18.2358C180.564 18.8598 180.826 19.449 181.218 19.954C181.61 20.459 182.121 20.865 182.707 21.1379L183.757 20.1142C183.298 19.9942 182.879 19.7586 182.543 19.431C182.207 19.1035 181.965 18.6956 181.842 18.2482C181.719 17.8008 181.719 17.3298 181.842 16.8825C181.965 16.4352 182.207 16.0273 182.543 15.6998L185.019 13.2881C185.527 12.793 186.217 12.5149 186.936 12.5149C187.655 12.5149 188.345 12.793 188.853 13.2881C189.362 13.7833 189.648 14.4548 189.648 15.1549C189.648 15.8551 189.362 16.5266 188.853 17.0217L187.779 18.0666C187.931 18.6207 187.989 19.1946 187.952 19.7646L189.811 17.9545C190.574 17.2122 191.002 16.2054 191.002 15.1556C191.002 14.1058 190.574 13.099 189.811 12.3567C189.049 11.6144 188.015 11.1974 186.937 11.1974C185.859 11.1974 184.825 11.6144 184.062 12.3567L181.586 14.7684Z" fill="#F1F5F9"/>
</svg>
