<svg width="197" height="37" viewBox="0 0 197 37" fill="none" xmlns="http://www.w3.org/2000/svg">
<rect x="0.000732422" width="197.001" height="37" rx="18.5" fill="#0D423B"/>
<path d="M18.1726 27.1758C16.9617 27.1758 15.8953 26.918 14.9734 26.4023C14.0515 25.8789 13.3367 25.1445 12.8289 24.1992C12.321 23.2461 12.0671 22.1445 12.0671 20.8945V16.0664C12.0671 14.8164 12.321 13.7188 12.8289 12.7734C13.3367 11.8203 14.0515 11.0859 14.9734 10.5703C15.8953 10.0469 16.9617 9.78516 18.1726 9.78516C19.3835 9.78516 20.45 10.0469 21.3718 10.5703C22.2937 11.0859 23.0085 11.8203 23.5164 12.7734C24.0242 13.7188 24.2781 14.8164 24.2781 16.0664V20.8945C24.2781 22.1445 24.0242 23.2461 23.5164 24.1992C23.0085 25.1445 22.2937 25.8789 21.3718 26.4023C20.45 26.918 19.3835 27.1758 18.1726 27.1758ZM18.1726 24.3984C18.8132 24.3984 19.3757 24.2578 19.8601 23.9766C20.3523 23.6953 20.7312 23.2969 20.9968 22.7812C21.2625 22.2578 21.3953 21.6562 21.3953 20.9766V15.9844C21.3953 15.3047 21.2625 14.707 20.9968 14.1914C20.7312 13.668 20.3523 13.2656 19.8601 12.9844C19.3757 12.7031 18.8132 12.5625 18.1726 12.5625C17.532 12.5625 16.9656 12.7031 16.4734 12.9844C15.989 13.2656 15.614 13.668 15.3484 14.1914C15.0828 14.707 14.95 15.3047 14.95 15.9844V20.9766C14.95 21.6562 15.0828 22.2578 15.3484 22.7812C15.614 23.2969 15.989 23.6953 16.4734 23.9766C16.9656 24.2578 17.532 24.3984 18.1726 24.3984ZM27.6765 14.8359H30.4773V27H27.6765V14.8359ZM34.8835 19.6289C34.8835 18.9023 34.6882 18.3398 34.2976 17.9414C33.907 17.543 33.3523 17.3438 32.6335 17.3438C31.946 17.3438 31.4148 17.5312 31.0398 17.9062C30.6648 18.2734 30.4773 18.7969 30.4773 19.4766L30.2312 16.957C30.5984 16.207 31.0593 15.6367 31.614 15.2461C32.1765 14.8555 32.8367 14.6602 33.5945 14.6602C34.8914 14.6602 35.8953 15.0938 36.6062 15.9609C37.325 16.8203 37.6843 18.0391 37.6843 19.6172V27H34.8835V19.6289ZM43.8835 23.4258C43.8835 23.7227 43.9578 23.9531 44.1062 24.1172C44.2546 24.2734 44.4656 24.3516 44.739 24.3516H45.571V27.0352H44.0476C43.1101 27.0352 42.3796 26.7539 41.8562 26.1914C41.3406 25.6289 41.0828 24.8359 41.0828 23.8125V9.96094H43.8835V23.4258ZM47.9617 9.96094H50.7507V12.7617H47.9617V9.96094ZM47.9617 14.8359H50.7507V27H47.9617V14.8359ZM54.0671 14.8359H56.8679V27H54.0671V14.8359ZM61.2742 19.6289C61.2742 18.9023 61.0789 18.3398 60.6882 17.9414C60.2976 17.543 59.7429 17.3438 59.0242 17.3438C58.3367 17.3438 57.8054 17.5312 57.4304 17.9062C57.0554 18.2734 56.8679 18.7969 56.8679 19.4766L56.6218 16.957C56.989 16.207 57.45 15.6367 58.0046 15.2461C58.5671 14.8555 59.2273 14.6602 59.9851 14.6602C61.282 14.6602 62.2859 15.0938 62.9968 15.9609C63.7156 16.8203 64.075 18.0391 64.075 19.6172V27H61.2742V19.6289ZM72.571 27.1758C71.4226 27.1758 70.4421 26.9648 69.6296 26.543C68.8171 26.1211 68.196 25.5039 67.7664 24.6914C67.3367 23.8711 67.1218 22.8828 67.1218 21.7266V20.3555C67.1218 19.1523 67.325 18.125 67.7312 17.2734C68.1453 16.4219 68.7429 15.7734 69.5242 15.3281C70.3132 14.8828 71.2585 14.6602 72.3601 14.6602C73.3992 14.6602 74.2859 14.9219 75.0203 15.4453C75.7625 15.9609 76.325 16.7109 76.7078 17.6953C77.0984 18.6797 77.2937 19.8672 77.2937 21.2578V22.0547H69.032V20.0039H74.6921L74.6804 19.875C74.6023 19.0234 74.364 18.3633 73.9656 17.8945C73.5671 17.4258 73.032 17.1914 72.3601 17.1914C71.5164 17.1914 70.864 17.457 70.4031 17.9883C69.9421 18.5117 69.7117 19.2578 69.7117 20.2266V21.7734C69.7117 22.6953 69.9617 23.4062 70.4617 23.9062C70.9617 24.3984 71.6648 24.6445 72.571 24.6445C73.032 24.6445 73.4851 24.5586 73.9304 24.3867C74.3835 24.207 74.7898 23.9609 75.1492 23.6484L76.9773 25.3594C76.3601 25.9375 75.6648 26.3867 74.8914 26.707C74.1257 27.0195 73.3523 27.1758 72.571 27.1758ZM88.3679 17.707H93.8171C94.2703 17.707 94.6648 17.6055 95.0007 17.4023C95.3445 17.1914 95.6101 16.8945 95.7976 16.5117C95.9929 16.1289 96.0906 15.6875 96.0906 15.1875C96.0906 14.6797 95.9968 14.2344 95.8093 13.8516C95.6218 13.4688 95.3562 13.1719 95.0125 12.9609C94.6687 12.75 94.2703 12.6445 93.8171 12.6445H88.3679V9.96094H93.7351C94.7742 9.96094 95.6882 10.1797 96.4773 10.6172C97.2664 11.0469 97.8796 11.6562 98.3171 12.4453C98.7546 13.2344 98.9734 14.1484 98.9734 15.1875C98.9734 16.2266 98.7546 17.1406 98.3171 17.9297C97.8796 18.7109 97.2664 19.3164 96.4773 19.7461C95.6882 20.1758 94.7742 20.3906 93.7351 20.3906H88.3679V17.707ZM87.0203 9.96094H89.821V27H87.0203V9.96094ZM101.153 14.8359H104.071V27H101.153V14.8359ZM107.927 17.9648C107.739 17.7617 107.509 17.6094 107.235 17.5078C106.962 17.3984 106.645 17.3438 106.286 17.3438C105.583 17.3438 105.036 17.5547 104.645 17.9766C104.262 18.3906 104.071 18.9688 104.071 19.7109L103.825 16.957C104.177 16.2305 104.634 15.668 105.196 15.2695C105.766 14.8633 106.391 14.6602 107.071 14.6602C107.602 14.6602 108.083 14.7422 108.512 14.9062C108.942 15.0625 109.317 15.2969 109.637 15.6094L107.927 17.9648ZM115.942 27.1758C114.864 27.1758 113.938 26.9688 113.165 26.5547C112.399 26.1406 111.813 25.5391 111.407 24.75C111.009 23.9531 110.809 22.9961 110.809 21.8789V19.8984C110.809 18.7969 111.009 17.8555 111.407 17.0742C111.813 16.2852 112.399 15.6875 113.165 15.2812C113.938 14.8672 114.864 14.6602 115.942 14.6602C117.02 14.6602 117.942 14.8672 118.708 15.2812C119.481 15.6875 120.067 16.2852 120.466 17.0742C120.872 17.8555 121.075 18.7969 121.075 19.8984V21.9141C121.075 23.0234 120.872 23.9727 120.466 24.7617C120.067 25.543 119.481 26.1406 118.708 26.5547C117.942 26.9688 117.02 27.1758 115.942 27.1758ZM115.942 24.4922C116.684 24.4922 117.259 24.2695 117.665 23.8242C118.071 23.3711 118.274 22.7344 118.274 21.9141V19.8984C118.274 19.0859 118.071 18.457 117.665 18.0117C117.259 17.5664 116.684 17.3438 115.942 17.3438C115.2 17.3438 114.626 17.5664 114.219 18.0117C113.813 18.457 113.61 19.0859 113.61 19.8984V21.9141C113.61 22.7344 113.809 23.3711 114.208 23.8242C114.614 24.2695 115.192 24.4922 115.942 24.4922ZM122.598 29.2617H123.641C123.899 29.2617 124.098 29.1797 124.239 29.0156C124.38 28.8594 124.45 28.6328 124.45 28.3359V14.8359H127.251V28.7227C127.251 29.7461 126.989 30.5391 126.466 31.1016C125.95 31.6641 125.223 31.9453 124.286 31.9453H122.598V29.2617ZM124.427 9.96094H127.274V12.7617H124.427V9.96094ZM135.782 27.1758C134.634 27.1758 133.653 26.9648 132.841 26.543C132.028 26.1211 131.407 25.5039 130.977 24.6914C130.548 23.8711 130.333 22.8828 130.333 21.7266V20.3555C130.333 19.1523 130.536 18.125 130.942 17.2734C131.356 16.4219 131.954 15.7734 132.735 15.3281C133.524 14.8828 134.469 14.6602 135.571 14.6602C136.61 14.6602 137.497 14.9219 138.231 15.4453C138.973 15.9609 139.536 16.7109 139.919 17.6953C140.309 18.6797 140.505 19.8672 140.505 21.2578V22.0547H132.243V20.0039H137.903L137.891 19.875C137.813 19.0234 137.575 18.3633 137.177 17.8945C136.778 17.4258 136.243 17.1914 135.571 17.1914C134.727 17.1914 134.075 17.457 133.614 17.9883C133.153 18.5117 132.923 19.2578 132.923 20.2266V21.7734C132.923 22.6953 133.173 23.4062 133.673 23.9062C134.173 24.3984 134.876 24.6445 135.782 24.6445C136.243 24.6445 136.696 24.5586 137.141 24.3867C137.594 24.207 138.001 23.9609 138.36 23.6484L140.188 25.3594C139.571 25.9375 138.876 26.3867 138.102 26.707C137.337 27.0195 136.563 27.1758 135.782 27.1758ZM148.579 27.1758C147.446 27.1758 146.477 26.9648 145.673 26.543C144.868 26.1133 144.255 25.4922 143.833 24.6797C143.411 23.8594 143.2 22.8711 143.2 21.7148V20.0625C143.2 18.9219 143.411 17.9492 143.833 17.1445C144.255 16.332 144.868 15.7148 145.673 15.293C146.477 14.8711 147.446 14.6602 148.579 14.6602C149.227 14.6602 149.837 14.7383 150.407 14.8945C150.985 15.043 151.501 15.2617 151.954 15.5508C152.415 15.8398 152.798 16.1914 153.102 16.6055L151.204 18.3867C150.884 18.0508 150.509 17.793 150.079 17.6133C149.649 17.4336 149.2 17.3438 148.731 17.3438C147.864 17.3438 147.192 17.582 146.716 18.0586C146.239 18.5273 146.001 19.1953 146.001 20.0625V21.7148C146.001 22.6055 146.235 23.293 146.704 23.7773C147.18 24.2539 147.856 24.4922 148.731 24.4922C149.208 24.4922 149.661 24.3945 150.091 24.1992C150.52 24.0039 150.891 23.7266 151.204 23.3672L153.102 25.2656C152.79 25.6719 152.403 26.0195 151.942 26.3086C151.489 26.5898 150.973 26.8047 150.395 26.9531C149.825 27.1016 149.219 27.1758 148.579 27.1758ZM158.786 27.0586C157.762 27.0586 157.012 26.7891 156.536 26.25C156.059 25.7031 155.821 24.8984 155.821 23.8359V11.2969H158.622V23.4492C158.622 23.7461 158.68 23.9766 158.798 24.1406C158.915 24.2969 159.087 24.375 159.313 24.375H160.286V27.0586H158.786ZM154.567 14.8359H160.286V17.2852H154.567V14.8359Z" fill="#F1F5F9"/>
<path d="M175.05 17.2355L173.191 19.0456C172.429 19.7879 172.001 20.7947 172.001 21.8445C172.001 22.8943 172.429 23.9011 173.191 24.6434C173.954 25.3857 174.988 25.8027 176.066 25.8027C177.144 25.8027 178.178 25.3857 178.94 24.6434L181.417 22.2304C181.877 21.7827 182.22 21.2342 182.417 20.6308C182.614 20.0275 182.659 19.3869 182.549 18.7629C182.439 18.139 182.177 17.5498 181.785 17.0448C181.393 16.5398 180.882 16.1338 180.295 15.8608L179.501 16.6339C179.421 16.7126 179.351 16.8008 179.293 16.8965C179.746 17.0234 180.157 17.2632 180.486 17.5924C180.815 17.9215 181.05 18.3285 181.168 18.7732C181.286 19.2178 181.282 19.6847 181.158 20.1277C181.034 20.5707 180.793 20.9744 180.459 21.299L177.984 23.7106C177.475 24.2057 176.786 24.4839 176.067 24.4839C175.347 24.4839 174.658 24.2057 174.149 23.7106C173.641 23.2155 173.355 22.544 173.355 21.8438C173.355 21.1437 173.641 20.4721 174.149 19.977L175.224 18.9322C175.072 18.379 175.014 17.8069 175.05 17.2355Z" fill="#F1F5F9"/>
<path d="M177.586 14.7684C177.126 15.2161 176.783 15.7646 176.586 16.368C176.389 16.9713 176.344 17.6119 176.454 18.2358C176.564 18.8598 176.826 19.449 177.218 19.954C177.61 20.459 178.121 20.865 178.707 21.1379L179.757 20.1142C179.298 19.9942 178.879 19.7586 178.543 19.431C178.207 19.1035 177.965 18.6956 177.842 18.2482C177.719 17.8008 177.719 17.3298 177.842 16.8825C177.965 16.4352 178.207 16.0273 178.543 15.6998L181.019 13.2881C181.527 12.793 182.217 12.5149 182.936 12.5149C183.655 12.5149 184.345 12.793 184.853 13.2881C185.362 13.7833 185.648 14.4548 185.648 15.1549C185.648 15.8551 185.362 16.5266 184.853 17.0217L183.779 18.0666C183.931 18.6207 183.989 19.1946 183.952 19.7646L185.811 17.9545C186.574 17.2122 187.002 16.2054 187.002 15.1556C187.002 14.1058 186.574 13.099 185.811 12.3567C185.049 11.6144 184.015 11.1974 182.937 11.1974C181.859 11.1974 180.825 11.6144 180.062 12.3567L177.586 14.7684Z" fill="#F1F5F9"/>
</svg>
