<svg width="257" height="24" viewBox="0 0 257 24" fill="none" xmlns="http://www.w3.org/2000/svg">
<path d="M1.43466 19V4.45455H10.7528V6.66335H4.0696V10.6122H10.1136V12.821H4.0696V19H1.43466ZM12.8835 19V8.09091H15.3764V9.90909H15.4901C15.6889 9.27936 16.0298 8.79403 16.5128 8.45312C17.0005 8.10748 17.5568 7.93466 18.1818 7.93466C18.3239 7.93466 18.4825 7.94176 18.6577 7.95597C18.8376 7.96544 18.9867 7.98201 19.1051 8.00568V10.3707C18.9962 10.3329 18.8234 10.2997 18.5866 10.2713C18.3546 10.2382 18.1297 10.2216 17.9119 10.2216C17.4432 10.2216 17.0218 10.3234 16.6477 10.527C16.2784 10.7259 15.9872 11.0028 15.7741 11.358C15.5611 11.7131 15.4545 12.1226 15.4545 12.5866V19H12.8835ZM23.7571 19.2202C23.0658 19.2202 22.4432 19.0971 21.8892 18.8509C21.34 18.5999 20.9044 18.2306 20.5824 17.7429C20.2652 17.2552 20.1065 16.6539 20.1065 15.9389C20.1065 15.3234 20.2202 14.8144 20.4474 14.4119C20.6747 14.0095 20.9848 13.6875 21.3778 13.446C21.7708 13.2045 22.2135 13.0223 22.706 12.8991C23.2031 12.7713 23.7169 12.679 24.2472 12.6222C24.8864 12.5559 25.4048 12.4967 25.8026 12.4446C26.2003 12.3878 26.4891 12.3026 26.669 12.1889C26.8537 12.0705 26.946 11.8883 26.946 11.642V11.5994C26.946 11.0644 26.7874 10.6501 26.4702 10.3565C26.1529 10.063 25.696 9.91619 25.0994 9.91619C24.4697 9.91619 23.9702 10.0535 23.6009 10.3281C23.2363 10.6027 22.9901 10.9271 22.8622 11.3011L20.4616 10.9602C20.651 10.2973 20.9635 9.74337 21.3991 9.2983C21.8348 8.84848 22.3674 8.51231 22.9972 8.28977C23.6269 8.0625 24.3229 7.94886 25.0852 7.94886C25.6108 7.94886 26.134 8.01042 26.6548 8.13352C27.1757 8.25663 27.6515 8.46023 28.0824 8.74432C28.5133 9.02367 28.8589 9.40483 29.1193 9.88778C29.3845 10.3707 29.517 10.9744 29.517 11.6989V19H27.0455V17.5014H26.9602C26.804 17.8045 26.5838 18.0885 26.2997 18.3537C26.0204 18.6141 25.6676 18.8248 25.2415 18.9858C24.8201 19.142 24.3253 19.2202 23.7571 19.2202ZM24.4247 17.331C24.9408 17.331 25.3883 17.2292 25.767 17.0256C26.1458 16.8172 26.437 16.5426 26.6406 16.2017C26.849 15.8608 26.9531 15.4891 26.9531 15.0866V13.8011C26.8726 13.8674 26.7353 13.929 26.5412 13.9858C26.3518 14.0426 26.1387 14.0923 25.902 14.1349C25.6652 14.1776 25.4309 14.2154 25.1989 14.2486C24.9669 14.2817 24.7656 14.3101 24.5952 14.3338C24.2116 14.3859 23.8684 14.4711 23.5653 14.5895C23.2623 14.7079 23.0232 14.8736 22.848 15.0866C22.6728 15.295 22.5852 15.5649 22.5852 15.8963C22.5852 16.3698 22.758 16.7273 23.1037 16.9688C23.4493 17.2102 23.8897 17.331 24.4247 17.331ZM32.1023 19V8.09091H34.5597V9.9446H34.6875C34.9148 9.3196 35.2912 8.83191 35.8168 8.48153C36.3423 8.12642 36.9697 7.94886 37.6989 7.94886C38.4375 7.94886 39.0601 8.12879 39.5668 8.48864C40.0781 8.84375 40.438 9.32907 40.6463 9.9446H40.7599C41.0014 9.33854 41.4086 8.85559 41.9815 8.49574C42.5592 8.13116 43.2434 7.94886 44.0341 7.94886C45.0379 7.94886 45.857 8.2661 46.4915 8.90057C47.1259 9.53504 47.4432 10.4607 47.4432 11.6776V19H44.8651V12.0753C44.8651 11.3982 44.6851 10.9034 44.3253 10.5909C43.9654 10.2737 43.5251 10.1151 43.0043 10.1151C42.384 10.1151 41.8987 10.3092 41.5483 10.6974C41.2027 11.081 41.0298 11.5805 41.0298 12.196V19H38.5085V11.9688C38.5085 11.4053 38.3381 10.9555 37.9972 10.6193C37.661 10.2831 37.2206 10.1151 36.6761 10.1151C36.3068 10.1151 35.9706 10.2098 35.6676 10.3991C35.3646 10.5838 35.1231 10.8466 34.9432 11.1875C34.7633 11.5237 34.6733 11.9167 34.6733 12.3665V19H32.1023ZM54.881 19.2131C53.7873 19.2131 52.8427 18.9858 52.0472 18.5312C51.2565 18.072 50.6481 17.4233 50.2219 16.5852C49.7958 15.7424 49.5827 14.7505 49.5827 13.6094C49.5827 12.4872 49.7958 11.5024 50.2219 10.6548C50.6528 9.80256 51.2541 9.13968 52.0259 8.66619C52.7977 8.18797 53.7044 7.94886 54.7461 7.94886C55.4184 7.94886 56.0529 8.05777 56.6495 8.27557C57.2508 8.48864 57.7811 8.82008 58.2404 9.26989C58.7044 9.7197 59.069 10.2926 59.3342 10.9886C59.5993 11.6799 59.7319 12.5038 59.7319 13.4602V14.2486H50.7901V12.5156H57.2674C57.2627 12.0232 57.1561 11.5852 56.9478 11.2017C56.7395 10.8134 56.4483 10.508 56.0742 10.2855C55.7049 10.063 55.274 9.9517 54.7816 9.9517C54.256 9.9517 53.7944 10.0795 53.3967 10.3352C52.9989 10.5862 52.6888 10.9176 52.4663 11.3295C52.2485 11.7367 52.1372 12.1842 52.1325 12.6719V14.1847C52.1325 14.8191 52.2485 15.3636 52.4805 15.8182C52.7125 16.268 53.0368 16.6136 53.4535 16.8551C53.8701 17.0919 54.3578 17.2102 54.9165 17.2102C55.2906 17.2102 55.6291 17.1581 55.9322 17.054C56.2352 16.9451 56.498 16.7865 56.7205 16.5781C56.9431 16.3698 57.1112 16.1117 57.2248 15.804L59.6254 16.0739C59.4738 16.7083 59.185 17.2623 58.7589 17.7358C58.3375 18.2045 57.7977 18.5691 57.1396 18.8295C56.4814 19.0852 55.7286 19.2131 54.881 19.2131ZM64.0998 19L61.0174 8.09091H63.6381L65.5558 15.7614H65.6552L67.6154 8.09091H70.2077L72.168 15.7188H72.2745L74.1637 8.09091H76.7915L73.7021 19H71.0245L68.979 11.6278H68.8299L66.7844 19H64.0998ZM83.0327 19.2131C81.9673 19.2131 81.044 18.9787 80.2628 18.5099C79.4815 18.0412 78.8755 17.3854 78.4446 16.5426C78.0185 15.6998 77.8054 14.715 77.8054 13.5881C77.8054 12.4612 78.0185 11.474 78.4446 10.6264C78.8755 9.77888 79.4815 9.12074 80.2628 8.65199C81.044 8.18324 81.9673 7.94886 83.0327 7.94886C84.098 7.94886 85.0213 8.18324 85.8026 8.65199C86.5838 9.12074 87.1875 9.77888 87.6136 10.6264C88.0445 11.474 88.2599 12.4612 88.2599 13.5881C88.2599 14.715 88.0445 15.6998 87.6136 16.5426C87.1875 17.3854 86.5838 18.0412 85.8026 18.5099C85.0213 18.9787 84.098 19.2131 83.0327 19.2131ZM83.0469 17.1534C83.6245 17.1534 84.1075 16.9948 84.4957 16.6776C84.884 16.3556 85.1728 15.9247 85.3622 15.3849C85.5563 14.8452 85.6534 14.2438 85.6534 13.581C85.6534 12.9134 85.5563 12.3097 85.3622 11.7699C85.1728 11.2254 84.884 10.7921 84.4957 10.4702C84.1075 10.1482 83.6245 9.98722 83.0469 9.98722C82.455 9.98722 81.9626 10.1482 81.5696 10.4702C81.1813 10.7921 80.8902 11.2254 80.696 11.7699C80.5066 12.3097 80.4119 12.9134 80.4119 13.581C80.4119 14.2438 80.5066 14.8452 80.696 15.3849C80.8902 15.9247 81.1813 16.3556 81.5696 16.6776C81.9626 16.9948 82.455 17.1534 83.0469 17.1534ZM90.4421 19V8.09091H92.935V9.90909H93.0487C93.2475 9.27936 93.5884 8.79403 94.0714 8.45312C94.5591 8.10748 95.1154 7.93466 95.7404 7.93466C95.8825 7.93466 96.0411 7.94176 96.2163 7.95597C96.3962 7.96544 96.5453 7.98201 96.6637 8.00568V10.3707C96.5548 10.3329 96.382 10.2997 96.1452 10.2713C95.9132 10.2382 95.6883 10.2216 95.4705 10.2216C95.0018 10.2216 94.5804 10.3234 94.2063 10.527C93.837 10.7259 93.5458 11.0028 93.3327 11.358C93.1197 11.7131 93.0131 12.1226 93.0131 12.5866V19H90.4421ZM100.716 15.5767L100.708 12.473H101.12L105.041 8.09091H108.045L103.223 13.4602H102.69L100.716 15.5767ZM98.3718 19V4.45455H100.943V19H98.3718ZM105.218 19L101.667 14.0355L103.4 12.2244L108.294 19H105.218ZM118.381 10.9744L116.037 11.2301C115.971 10.9934 115.855 10.7708 115.689 10.5625C115.528 10.3542 115.31 10.1861 115.036 10.0582C114.761 9.9304 114.425 9.86648 114.027 9.86648C113.492 9.86648 113.042 9.98248 112.678 10.2145C112.318 10.4465 112.14 10.7472 112.145 11.1165C112.14 11.4337 112.256 11.6918 112.493 11.8906C112.734 12.0895 113.132 12.2528 113.686 12.3807L115.547 12.7784C116.579 13.0009 117.346 13.3537 117.848 13.8366C118.355 14.3196 118.61 14.9517 118.615 15.733C118.61 16.4195 118.409 17.0256 118.011 17.5511C117.618 18.072 117.071 18.4792 116.371 18.7727C115.67 19.0663 114.865 19.2131 113.956 19.2131C112.621 19.2131 111.546 18.9337 110.732 18.375C109.917 17.8116 109.432 17.0279 109.276 16.0241L111.783 15.7827C111.896 16.2751 112.138 16.6468 112.507 16.8977C112.876 17.1487 113.357 17.2741 113.949 17.2741C114.56 17.2741 115.05 17.1487 115.419 16.8977C115.793 16.6468 115.98 16.3366 115.98 15.9673C115.98 15.6548 115.859 15.3968 115.618 15.1932C115.381 14.9896 115.012 14.8333 114.51 14.7244L112.649 14.3338C111.603 14.116 110.829 13.7491 110.327 13.233C109.825 12.7121 109.576 12.054 109.581 11.2585C109.576 10.5862 109.759 10.0038 110.128 9.51136C110.502 9.0142 111.02 8.63068 111.683 8.3608C112.351 8.08617 113.12 7.94886 113.991 7.94886C115.27 7.94886 116.276 8.22112 117.01 8.76562C117.749 9.31013 118.205 10.0464 118.381 10.9744ZM132.308 10.669V12.7855H125.76V10.669H132.308ZM140.087 19V4.45455H145.655C146.706 4.45455 147.58 4.62026 148.276 4.9517C148.977 5.27841 149.5 5.72585 149.846 6.29403C150.196 6.86222 150.371 7.50616 150.371 8.22585C150.371 8.81771 150.257 9.32434 150.03 9.74574C149.803 10.1624 149.498 10.5009 149.114 10.7614C148.73 11.0218 148.302 11.2088 147.828 11.3224V11.4645C148.345 11.4929 148.839 11.6515 149.313 11.9403C149.791 12.2244 150.182 12.6269 150.485 13.1477C150.788 13.6686 150.939 14.2983 150.939 15.0369C150.939 15.7898 150.757 16.4669 150.392 17.0682C150.028 17.6648 149.479 18.1359 148.745 18.4815C148.011 18.8272 147.087 19 145.975 19H140.087ZM142.722 16.7983H145.556C146.512 16.7983 147.201 16.616 147.623 16.2514C148.049 15.8821 148.262 15.4086 148.262 14.831C148.262 14.4001 148.155 14.0118 147.942 13.6662C147.729 13.3158 147.426 13.0412 147.033 12.8423C146.64 12.6387 146.171 12.5369 145.627 12.5369H142.722V16.7983ZM142.722 10.6406H145.328C145.783 10.6406 146.193 10.5578 146.557 10.392C146.922 10.2216 147.208 9.98248 147.417 9.67472C147.63 9.36222 147.736 8.9929 147.736 8.56676C147.736 8.00331 147.537 7.5393 147.14 7.17472C146.747 6.81013 146.162 6.62784 145.385 6.62784H142.722V10.6406ZM156.257 19.2202C155.566 19.2202 154.943 19.0971 154.389 18.8509C153.84 18.5999 153.404 18.2306 153.082 17.7429C152.765 17.2552 152.607 16.6539 152.607 15.9389C152.607 15.3234 152.72 14.8144 152.947 14.4119C153.175 14.0095 153.485 13.6875 153.878 13.446C154.271 13.2045 154.714 13.0223 155.206 12.8991C155.703 12.7713 156.217 12.679 156.747 12.6222C157.386 12.5559 157.905 12.4967 158.303 12.4446C158.7 12.3878 158.989 12.3026 159.169 12.1889C159.354 12.0705 159.446 11.8883 159.446 11.642V11.5994C159.446 11.0644 159.287 10.6501 158.97 10.3565C158.653 10.063 158.196 9.91619 157.599 9.91619C156.97 9.91619 156.47 10.0535 156.101 10.3281C155.736 10.6027 155.49 10.9271 155.362 11.3011L152.962 10.9602C153.151 10.2973 153.464 9.74337 153.899 9.2983C154.335 8.84848 154.867 8.51231 155.497 8.28977C156.127 8.0625 156.823 7.94886 157.585 7.94886C158.111 7.94886 158.634 8.01042 159.155 8.13352C159.676 8.25663 160.152 8.46023 160.582 8.74432C161.013 9.02367 161.359 9.40483 161.619 9.88778C161.884 10.3707 162.017 10.9744 162.017 11.6989V19H159.545V17.5014H159.46C159.304 17.8045 159.084 18.0885 158.8 18.3537C158.52 18.6141 158.168 18.8248 157.741 18.9858C157.32 19.142 156.825 19.2202 156.257 19.2202ZM156.925 17.331C157.441 17.331 157.888 17.2292 158.267 17.0256C158.646 16.8172 158.937 16.5426 159.141 16.2017C159.349 15.8608 159.453 15.4891 159.453 15.0866V13.8011C159.373 13.8674 159.235 13.929 159.041 13.9858C158.852 14.0426 158.639 14.0923 158.402 14.1349C158.165 14.1776 157.931 14.2154 157.699 14.2486C157.467 14.2817 157.266 14.3101 157.095 14.3338C156.712 14.3859 156.368 14.4711 156.065 14.5895C155.762 14.7079 155.523 14.8736 155.348 15.0866C155.173 15.295 155.085 15.5649 155.085 15.8963C155.085 16.3698 155.258 16.7273 155.604 16.9688C155.949 17.2102 156.39 17.331 156.925 17.331ZM169.361 19.2131C168.272 19.2131 167.337 18.974 166.555 18.4957C165.779 18.0175 165.18 17.357 164.759 16.5142C164.342 15.6667 164.134 14.6913 164.134 13.5881C164.134 12.4801 164.347 11.5024 164.773 10.6548C165.199 9.80256 165.8 9.13968 166.577 8.66619C167.358 8.18797 168.281 7.94886 169.347 7.94886C170.232 7.94886 171.016 8.11222 171.697 8.43892C172.384 8.76089 172.931 9.2178 173.338 9.80966C173.745 10.3968 173.977 11.0833 174.034 11.8693H171.577C171.477 11.3437 171.241 10.9058 170.866 10.5554C170.497 10.2003 170.002 10.0227 169.382 10.0227C168.857 10.0227 168.395 10.1648 167.997 10.4489C167.599 10.7282 167.289 11.1307 167.067 11.6562C166.849 12.1818 166.74 12.8116 166.74 13.5455C166.74 14.2888 166.849 14.928 167.067 15.4631C167.285 15.9934 167.59 16.4029 167.983 16.6918C168.381 16.9759 168.847 17.1179 169.382 17.1179C169.761 17.1179 170.099 17.0469 170.398 16.9048C170.701 16.758 170.954 16.5473 171.158 16.2727C171.361 15.9981 171.501 15.6643 171.577 15.2713H174.034C173.973 16.0431 173.745 16.7273 173.352 17.3239C172.959 17.9157 172.424 18.3797 171.747 18.7159C171.07 19.0473 170.275 19.2131 169.361 19.2131ZM178.489 15.5767L178.482 12.473H178.894L182.814 8.09091H185.819L180.996 13.4602H180.463L178.489 15.5767ZM176.145 19V4.45455H178.716V19H176.145ZM182.992 19L179.441 14.0355L181.174 12.2244L186.067 19H182.992ZM193.597 11.8835V14H187.049V11.8835H193.597ZM201.131 19.2131C200.037 19.2131 199.093 18.9858 198.297 18.5312C197.507 18.072 196.898 17.4233 196.472 16.5852C196.046 15.7424 195.833 14.7505 195.833 13.6094C195.833 12.4872 196.046 11.5024 196.472 10.6548C196.903 9.80256 197.504 9.13968 198.276 8.66619C199.048 8.18797 199.954 7.94886 200.996 7.94886C201.668 7.94886 202.303 8.05777 202.9 8.27557C203.501 8.48864 204.031 8.82008 204.49 9.26989C204.954 9.7197 205.319 10.2926 205.584 10.9886C205.849 11.6799 205.982 12.5038 205.982 13.4602V14.2486H197.04V12.5156H203.517C203.513 12.0232 203.406 11.5852 203.198 11.2017C202.989 10.8134 202.698 10.508 202.324 10.2855C201.955 10.063 201.524 9.9517 201.032 9.9517C200.506 9.9517 200.044 10.0795 199.647 10.3352C199.249 10.5862 198.939 10.9176 198.716 11.3295C198.498 11.7367 198.387 12.1842 198.382 12.6719V14.1847C198.382 14.8191 198.498 15.3636 198.73 15.8182C198.962 16.268 199.287 16.6136 199.703 16.8551C200.12 17.0919 200.608 17.2102 201.167 17.2102C201.541 17.2102 201.879 17.1581 202.182 17.054C202.485 16.9451 202.748 16.7865 202.971 16.5781C203.193 16.3698 203.361 16.1117 203.475 15.804L205.875 16.0739C205.724 16.7083 205.435 17.2623 205.009 17.7358C204.587 18.2045 204.048 18.5691 203.39 18.8295C202.731 19.0852 201.979 19.2131 201.131 19.2131ZM210.728 12.608V19H208.157V8.09091H210.614V9.9446H210.742C210.993 9.33381 211.393 8.84848 211.942 8.48864C212.496 8.12879 213.181 7.94886 213.995 7.94886C214.748 7.94886 215.404 8.10985 215.962 8.43182C216.526 8.75379 216.961 9.22017 217.269 9.83097C217.582 10.4418 217.736 11.1828 217.731 12.054V19H215.16V12.4517C215.16 11.7225 214.97 11.152 214.592 10.7401C214.218 10.3281 213.699 10.1222 213.036 10.1222C212.586 10.1222 212.186 10.2216 211.836 10.4205C211.49 10.6146 211.218 10.8963 211.019 11.2656C210.825 11.6349 210.728 12.0824 210.728 12.608ZM224.393 19.1918C223.536 19.1918 222.769 18.9716 222.092 18.5312C221.415 18.0909 220.879 17.4517 220.487 16.6136C220.094 15.7756 219.897 14.7576 219.897 13.5597C219.897 12.3475 220.096 11.3248 220.494 10.4915C220.896 9.65341 221.438 9.02131 222.12 8.59517C222.802 8.1643 223.562 7.94886 224.4 7.94886C225.039 7.94886 225.565 8.05777 225.977 8.27557C226.388 8.48864 226.715 8.74669 226.957 9.04972C227.198 9.34801 227.385 9.62973 227.518 9.89489H227.624V4.45455H230.202V19H227.674V17.2812H227.518C227.385 17.5464 227.193 17.8281 226.942 18.1264C226.692 18.42 226.36 18.6709 225.948 18.8793C225.536 19.0876 225.018 19.1918 224.393 19.1918ZM225.11 17.0824C225.655 17.0824 226.119 16.9356 226.502 16.642C226.886 16.3437 227.177 15.9295 227.376 15.3991C227.575 14.8688 227.674 14.2509 227.674 13.5455C227.674 12.84 227.575 12.2268 227.376 11.706C227.182 11.1851 226.893 10.7803 226.509 10.4915C226.13 10.2027 225.664 10.0582 225.11 10.0582C224.537 10.0582 224.059 10.2074 223.675 10.5057C223.292 10.804 223.003 11.2159 222.809 11.7415C222.615 12.267 222.518 12.8684 222.518 13.5455C222.518 14.2273 222.615 14.8357 222.809 15.3707C223.008 15.901 223.299 16.3201 223.683 16.6278C224.071 16.9309 224.547 17.0824 225.11 17.0824Z" fill="black"/>
<path d="M238.591 11.8774V12.1226C240.027 12.2761 240.73 13.048 240.73 14.5301V17.2339C240.73 18.88 241.287 19.548 242.664 19.548H243.054V21H242.517C240.214 21 239.129 19.858 239.129 17.4611V15.168C239.129 13.5219 238.591 12.9773 237 12.9773V11.0227C238.591 11.0227 239.129 10.4781 239.129 8.83198V6.53891C239.129 4.14202 240.213 3 242.517 3H243.054V4.45047H242.664C241.287 4.45047 240.73 5.11853 240.73 6.76461V9.46995C240.73 10.9505 240.027 11.7224 238.591 11.8774ZM255.409 12.1226V11.8774C253.973 11.7224 253.27 10.9505 253.27 9.46995V6.76461C253.27 5.11853 252.713 4.45047 251.336 4.45047H250.946V3H251.483C253.787 3 254.871 4.14202 254.871 6.53891V8.83198C254.871 10.4781 255.409 11.0227 257 11.0227V12.9773C255.409 12.9773 254.871 13.5219 254.871 15.168V17.4611C254.871 19.858 253.786 21 251.483 21H250.946V19.5495H251.336C252.713 19.5495 253.27 18.8815 253.27 17.2354V14.5301C253.27 13.0495 253.973 12.2776 255.409 12.1226Z" fill="black"/>
</svg>
