<svg width="254" height="24" viewBox="0 0 254 24" fill="none" xmlns="http://www.w3.org/2000/svg">
<path d="M1.43466 19V4.45455H4.0696V16.7912H10.4759V19H1.43466ZM12.6491 19V8.09091H15.2202V19H12.6491ZM13.9418 6.54261C13.5346 6.54261 13.1842 6.40767 12.8906 6.13778C12.5971 5.86316 12.4503 5.53409 12.4503 5.15057C12.4503 4.76231 12.5971 4.43324 12.8906 4.16335C13.1842 3.88873 13.5346 3.75142 13.9418 3.75142C14.3537 3.75142 14.7041 3.88873 14.9929 4.16335C15.2865 4.43324 15.4332 4.76231 15.4332 5.15057C15.4332 5.53409 15.2865 5.86316 14.9929 6.13778C14.7041 6.40767 14.3537 6.54261 13.9418 6.54261ZM20.435 12.608V19H17.864V8.09091H20.3214V9.9446H20.4492C20.7002 9.33381 21.1003 8.84848 21.6495 8.48864C22.2035 8.12879 22.8877 7.94886 23.7021 7.94886C24.4549 7.94886 25.1107 8.10985 25.6694 8.43182C26.2328 8.75379 26.6684 9.22017 26.9762 9.83097C27.2887 10.4418 27.4426 11.1828 27.4379 12.054V19H24.8668V12.4517C24.8668 11.7225 24.6774 11.152 24.2987 10.7401C23.9246 10.3281 23.4061 10.1222 22.7433 10.1222C22.2934 10.1222 21.8933 10.2216 21.543 10.4205C21.1973 10.6146 20.9251 10.8963 20.7262 11.2656C20.5321 11.6349 20.435 12.0824 20.435 12.608ZM34.7958 23.3182C33.8725 23.3182 33.0794 23.1927 32.4165 22.9418C31.7537 22.6955 31.221 22.3641 30.8185 21.9474C30.4161 21.5308 30.1367 21.0691 29.9805 20.5625L32.2958 20.0014C32.4 20.2145 32.5515 20.4252 32.7504 20.6335C32.9492 20.8466 33.2167 21.0218 33.5529 21.1591C33.8938 21.3011 34.3223 21.3722 34.8384 21.3722C35.5676 21.3722 36.1713 21.1946 36.6495 20.8395C37.1277 20.4891 37.3668 19.9115 37.3668 19.1065V17.0398H37.239C37.1064 17.3049 36.9123 17.5772 36.6566 17.8565C36.4057 18.1359 36.0719 18.3703 35.6552 18.5597C35.2433 18.7491 34.7248 18.8438 34.0998 18.8438C33.2617 18.8438 32.5018 18.6473 31.82 18.2543C31.1429 17.8565 30.6031 17.2647 30.2006 16.4787C29.8029 15.688 29.604 14.6984 29.604 13.5099C29.604 12.312 29.8029 11.3011 30.2006 10.4773C30.6031 9.64867 31.1452 9.02131 31.8271 8.59517C32.5089 8.1643 33.2688 7.94886 34.1069 7.94886C34.7461 7.94886 35.2717 8.05777 35.6836 8.27557C36.1003 8.48864 36.4317 8.74669 36.6779 9.04972C36.9241 9.34801 37.1112 9.62973 37.239 9.89489H37.381V8.09091H39.9165V19.1776C39.9165 20.1103 39.694 20.8821 39.2489 21.4929C38.8039 22.1037 38.1954 22.5606 37.4237 22.8636C36.6519 23.1667 35.7759 23.3182 34.7958 23.3182ZM34.8171 16.8267C35.3616 16.8267 35.8256 16.6941 36.2092 16.429C36.5927 16.1638 36.8839 15.7827 37.0827 15.2855C37.2816 14.7884 37.381 14.1918 37.381 13.4957C37.381 12.8092 37.2816 12.2079 37.0827 11.6918C36.8886 11.1757 36.5998 10.7756 36.2163 10.4915C35.8375 10.2027 35.3711 10.0582 34.8171 10.0582C34.2442 10.0582 33.766 10.2074 33.3825 10.5057C32.9989 10.804 32.7101 11.2135 32.516 11.7344C32.3219 12.2505 32.2248 12.8376 32.2248 13.4957C32.2248 14.1634 32.3219 14.7481 32.516 15.25C32.7148 15.7472 33.006 16.1354 33.3896 16.4148C33.7778 16.6894 34.2537 16.8267 34.8171 16.8267ZM49.5046 14.4119V8.09091H52.0756V19H49.5827V17.0611H49.4691C49.2229 17.6719 48.8181 18.1714 48.2546 18.5597C47.6959 18.9479 47.007 19.142 46.1879 19.142C45.4729 19.142 44.8408 18.9834 44.2915 18.6662C43.747 18.3442 43.3209 17.8778 43.0131 17.267C42.7054 16.6515 42.5515 15.9081 42.5515 15.0369V8.09091H45.1225V14.6392C45.1225 15.3305 45.3119 15.8797 45.6907 16.2869C46.0695 16.6941 46.5666 16.8977 47.1822 16.8977C47.561 16.8977 47.9279 16.8054 48.283 16.6207C48.6381 16.4361 48.9293 16.1615 49.1566 15.7969C49.3886 15.4276 49.5046 14.9659 49.5046 14.4119ZM57.8587 19.2202C57.1674 19.2202 56.5447 19.0971 55.9908 18.8509C55.4415 18.5999 55.0059 18.2306 54.6839 17.7429C54.3667 17.2552 54.2081 16.6539 54.2081 15.9389C54.2081 15.3234 54.3217 14.8144 54.549 14.4119C54.7763 14.0095 55.0864 13.6875 55.4794 13.446C55.8724 13.2045 56.3151 13.0223 56.8075 12.8991C57.3047 12.7713 57.8184 12.679 58.3487 12.6222C58.9879 12.5559 59.5064 12.4967 59.9041 12.4446C60.3018 12.3878 60.5907 12.3026 60.7706 12.1889C60.9553 12.0705 61.0476 11.8883 61.0476 11.642V11.5994C61.0476 11.0644 60.889 10.6501 60.5717 10.3565C60.2545 10.063 59.7976 9.91619 59.201 9.91619C58.5713 9.91619 58.0717 10.0535 57.7024 10.3281C57.3378 10.6027 57.0916 10.9271 56.9638 11.3011L54.5632 10.9602C54.7526 10.2973 55.0651 9.74337 55.5007 9.2983C55.9363 8.84848 56.469 8.51231 57.0987 8.28977C57.7285 8.0625 58.4245 7.94886 59.1868 7.94886C59.7124 7.94886 60.2356 8.01042 60.7564 8.13352C61.2772 8.25663 61.7531 8.46023 62.1839 8.74432C62.6148 9.02367 62.9605 9.40483 63.2209 9.88778C63.486 10.3707 63.6186 10.9744 63.6186 11.6989V19H61.147V17.5014H61.0618C60.9055 17.8045 60.6854 18.0885 60.4013 18.3537C60.1219 18.6141 59.7692 18.8248 59.343 18.9858C58.9216 19.142 58.4268 19.2202 57.8587 19.2202ZM58.5263 17.331C59.0424 17.331 59.4898 17.2292 59.8686 17.0256C60.2474 16.8172 60.5386 16.5426 60.7422 16.2017C60.9505 15.8608 61.0547 15.4891 61.0547 15.0866V13.8011C60.9742 13.8674 60.8369 13.929 60.6428 13.9858C60.4534 14.0426 60.2403 14.0923 60.0036 14.1349C59.7668 14.1776 59.5324 14.2154 59.3004 14.2486C59.0684 14.2817 58.8672 14.3101 58.6967 14.3338C58.3132 14.3859 57.9699 14.4711 57.6669 14.5895C57.3639 14.7079 57.1248 14.8736 56.9496 15.0866C56.7744 15.295 56.6868 15.5649 56.6868 15.8963C56.6868 16.3698 56.8596 16.7273 57.2053 16.9688C57.5509 17.2102 57.9912 17.331 58.5263 17.331ZM70.9482 23.3182C70.0249 23.3182 69.2318 23.1927 68.5689 22.9418C67.906 22.6955 67.3733 22.3641 66.9709 21.9474C66.5684 21.5308 66.2891 21.0691 66.1328 20.5625L68.4482 20.0014C68.5523 20.2145 68.7038 20.4252 68.9027 20.6335C69.1016 20.8466 69.3691 21.0218 69.7053 21.1591C70.0462 21.3011 70.4747 21.3722 70.9908 21.3722C71.7199 21.3722 72.3236 21.1946 72.8018 20.8395C73.2801 20.4891 73.5192 19.9115 73.5192 19.1065V17.0398H73.3913C73.2588 17.3049 73.0646 17.5772 72.8089 17.8565C72.558 18.1359 72.2242 18.3703 71.8075 18.5597C71.3956 18.7491 70.8771 18.8438 70.2521 18.8438C69.4141 18.8438 68.6541 18.6473 67.9723 18.2543C67.2952 17.8565 66.7554 17.2647 66.353 16.4787C65.9553 15.688 65.7564 14.6984 65.7564 13.5099C65.7564 12.312 65.9553 11.3011 66.353 10.4773C66.7554 9.64867 67.2976 9.02131 67.9794 8.59517C68.6612 8.1643 69.4212 7.94886 70.2592 7.94886C70.8984 7.94886 71.424 8.05777 71.8359 8.27557C72.2526 8.48864 72.584 8.74669 72.8303 9.04972C73.0765 9.34801 73.2635 9.62973 73.3913 9.89489H73.5334V8.09091H76.0689V19.1776C76.0689 20.1103 75.8464 20.8821 75.4013 21.4929C74.9562 22.1037 74.3478 22.5606 73.576 22.8636C72.8042 23.1667 71.9283 23.3182 70.9482 23.3182ZM70.9695 16.8267C71.514 16.8267 71.978 16.6941 72.3615 16.429C72.745 16.1638 73.0362 15.7827 73.2351 15.2855C73.4339 14.7884 73.5334 14.1918 73.5334 13.4957C73.5334 12.8092 73.4339 12.2079 73.2351 11.6918C73.041 11.1757 72.7521 10.7756 72.3686 10.4915C71.9898 10.2027 71.5234 10.0582 70.9695 10.0582C70.3965 10.0582 69.9183 10.2074 69.5348 10.5057C69.1513 10.804 68.8625 11.2135 68.6683 11.7344C68.4742 12.2505 68.3771 12.8376 68.3771 13.4957C68.3771 14.1634 68.4742 14.7481 68.6683 15.25C68.8672 15.7472 69.1584 16.1354 69.5419 16.4148C69.9302 16.6894 70.406 16.8267 70.9695 16.8267ZM83.5334 19.2131C82.4396 19.2131 81.495 18.9858 80.6996 18.5312C79.9089 18.072 79.3004 17.4233 78.8743 16.5852C78.4482 15.7424 78.2351 14.7505 78.2351 13.6094C78.2351 12.4872 78.4482 11.5024 78.8743 10.6548C79.3052 9.80256 79.9065 9.13968 80.6783 8.66619C81.45 8.18797 82.3568 7.94886 83.3984 7.94886C84.0708 7.94886 84.7053 8.05777 85.3018 8.27557C85.9032 8.48864 86.4335 8.82008 86.8928 9.26989C87.3568 9.7197 87.7214 10.2926 87.9865 10.9886C88.2517 11.6799 88.3842 12.5038 88.3842 13.4602V14.2486H79.4425V12.5156H85.9197C85.915 12.0232 85.8085 11.5852 85.6001 11.2017C85.3918 10.8134 85.1006 10.508 84.7266 10.2855C84.3572 10.063 83.9264 9.9517 83.4339 9.9517C82.9084 9.9517 82.4467 10.0795 82.049 10.3352C81.6513 10.5862 81.3411 10.9176 81.1186 11.3295C80.9008 11.7367 80.7895 12.1842 80.7848 12.6719V14.1847C80.7848 14.8191 80.9008 15.3636 81.1328 15.8182C81.3648 16.268 81.6892 16.6136 82.1058 16.8551C82.5225 17.0919 83.0102 17.2102 83.5689 17.2102C83.9429 17.2102 84.2815 17.1581 84.5845 17.054C84.8875 16.9451 85.1503 16.7865 85.3729 16.5781C85.5954 16.3698 85.7635 16.1117 85.8771 15.804L88.2777 16.0739C88.1262 16.7083 87.8374 17.2623 87.4112 17.7358C86.9898 18.2045 86.45 18.5691 85.7919 18.8295C85.1338 19.0852 84.3809 19.2131 83.5334 19.2131ZM93.1303 12.608V19H90.5593V8.09091H93.0167V9.9446H93.1445C93.3955 9.33381 93.7956 8.84848 94.3448 8.48864C94.8988 8.12879 95.583 7.94886 96.3974 7.94886C97.1502 7.94886 97.806 8.10985 98.3647 8.43182C98.9281 8.75379 99.3638 9.22017 99.6715 9.83097C99.984 10.4418 100.138 11.1828 100.133 12.054V19H97.5621V12.4517C97.5621 11.7225 97.3728 11.152 96.994 10.7401C96.6199 10.3281 96.1014 10.1222 95.4386 10.1222C94.9888 10.1222 94.5887 10.2216 94.2383 10.4205C93.8926 10.6146 93.6204 10.8963 93.4215 11.2656C93.2274 11.6349 93.1303 12.0824 93.1303 12.608ZM111.369 10.9744L109.025 11.2301C108.959 10.9934 108.843 10.7708 108.677 10.5625C108.516 10.3542 108.298 10.1861 108.024 10.0582C107.749 9.9304 107.413 9.86648 107.015 9.86648C106.48 9.86648 106.03 9.98248 105.666 10.2145C105.306 10.4465 105.128 10.7472 105.133 11.1165C105.128 11.4337 105.244 11.6918 105.481 11.8906C105.723 12.0895 106.12 12.2528 106.674 12.3807L108.535 12.7784C109.567 13.0009 110.334 13.3537 110.836 13.8366C111.343 14.3196 111.599 14.9517 111.603 15.733C111.599 16.4195 111.397 17.0256 111 17.5511C110.607 18.072 110.06 18.4792 109.359 18.7727C108.658 19.0663 107.853 19.2131 106.944 19.2131C105.609 19.2131 104.534 18.9337 103.72 18.375C102.905 17.8116 102.42 17.0279 102.264 16.0241L104.771 15.7827C104.885 16.2751 105.126 16.6468 105.495 16.8977C105.865 17.1487 106.345 17.2741 106.937 17.2741C107.548 17.2741 108.038 17.1487 108.407 16.8977C108.781 16.6468 108.968 16.3366 108.968 15.9673C108.968 15.6548 108.848 15.3968 108.606 15.1932C108.369 14.9896 108 14.8333 107.498 14.7244L105.637 14.3338C104.591 14.116 103.817 13.7491 103.315 13.233C102.813 12.7121 102.565 12.054 102.569 11.2585C102.565 10.5862 102.747 10.0038 103.116 9.51136C103.49 9.0142 104.009 8.63068 104.672 8.3608C105.339 8.08617 106.109 7.94886 106.98 7.94886C108.258 7.94886 109.264 8.22112 109.998 8.76562C110.737 9.31013 111.194 10.0464 111.369 10.9744ZM125.297 10.669V12.7855H118.748V10.669H125.297ZM133.075 19V4.45455H142.393V6.66335H135.71V10.6122H141.754V12.821H135.71V19H133.075ZM144.524 19V8.09091H147.017V9.90909H147.131C147.33 9.27936 147.67 8.79403 148.153 8.45312C148.641 8.10748 149.197 7.93466 149.822 7.93466C149.964 7.93466 150.123 7.94176 150.298 7.95597C150.478 7.96544 150.627 7.98201 150.746 8.00568V10.3707C150.637 10.3329 150.464 10.2997 150.227 10.2713C149.995 10.2382 149.77 10.2216 149.553 10.2216C149.084 10.2216 148.662 10.3234 148.288 10.527C147.919 10.7259 147.628 11.0028 147.415 11.358C147.202 11.7131 147.095 12.1226 147.095 12.5866V19H144.524ZM156.763 19.2131C155.698 19.2131 154.775 18.9787 153.993 18.5099C153.212 18.0412 152.606 17.3854 152.175 16.5426C151.749 15.6998 151.536 14.715 151.536 13.5881C151.536 12.4612 151.749 11.474 152.175 10.6264C152.606 9.77888 153.212 9.12074 153.993 8.65199C154.775 8.18324 155.698 7.94886 156.763 7.94886C157.828 7.94886 158.752 8.18324 159.533 8.65199C160.314 9.12074 160.918 9.77888 161.344 10.6264C161.775 11.474 161.99 12.4612 161.99 13.5881C161.99 14.715 161.775 15.6998 161.344 16.5426C160.918 17.3854 160.314 18.0412 159.533 18.5099C158.752 18.9787 157.828 19.2131 156.763 19.2131ZM156.777 17.1534C157.355 17.1534 157.838 16.9948 158.226 16.6776C158.614 16.3556 158.903 15.9247 159.093 15.3849C159.287 14.8452 159.384 14.2438 159.384 13.581C159.384 12.9134 159.287 12.3097 159.093 11.7699C158.903 11.2254 158.614 10.7921 158.226 10.4702C157.838 10.1482 157.355 9.98722 156.777 9.98722C156.185 9.98722 155.693 10.1482 155.3 10.4702C154.912 10.7921 154.621 11.2254 154.426 11.7699C154.237 12.3097 154.142 12.9134 154.142 13.581C154.142 14.2438 154.237 14.8452 154.426 15.3849C154.621 15.9247 154.912 16.3556 155.3 16.6776C155.693 16.9948 156.185 17.1534 156.777 17.1534ZM166.744 12.608V19H164.173V8.09091H166.63V9.9446H166.758C167.009 9.33381 167.409 8.84848 167.958 8.48864C168.512 8.12879 169.196 7.94886 170.011 7.94886C170.763 7.94886 171.419 8.10985 171.978 8.43182C172.541 8.75379 172.977 9.22017 173.285 9.83097C173.597 10.4418 173.751 11.1828 173.746 12.054V19H171.175V12.4517C171.175 11.7225 170.986 11.152 170.607 10.7401C170.233 10.3281 169.715 10.1222 169.052 10.1222C168.602 10.1222 168.202 10.2216 167.852 10.4205C167.506 10.6146 167.234 10.8963 167.035 11.2656C166.841 11.6349 166.744 12.0824 166.744 12.608ZM181.808 8.09091V10.0795H175.536V8.09091H181.808ZM177.085 5.47727H179.656V15.7188C179.656 16.0644 179.708 16.3295 179.812 16.5142C179.921 16.6941 180.063 16.8172 180.238 16.8835C180.413 16.9498 180.607 16.983 180.82 16.983C180.981 16.983 181.128 16.9711 181.261 16.9474C181.398 16.9238 181.502 16.9025 181.573 16.8835L182.006 18.8935C181.869 18.9408 181.673 18.9929 181.417 19.0497C181.166 19.1065 180.858 19.1397 180.494 19.1491C179.85 19.1681 179.27 19.071 178.754 18.858C178.237 18.6402 177.828 18.304 177.525 17.8494C177.227 17.3949 177.08 16.8267 177.085 16.1449V5.47727ZM190.218 11.8835V14H183.67V11.8835H190.218ZM197.752 19.2131C196.658 19.2131 195.714 18.9858 194.918 18.5312C194.128 18.072 193.519 17.4233 193.093 16.5852C192.667 15.7424 192.454 14.7505 192.454 13.6094C192.454 12.4872 192.667 11.5024 193.093 10.6548C193.524 9.80256 194.125 9.13968 194.897 8.66619C195.669 8.18797 196.576 7.94886 197.617 7.94886C198.29 7.94886 198.924 8.05777 199.521 8.27557C200.122 8.48864 200.652 8.82008 201.112 9.26989C201.576 9.7197 201.94 10.2926 202.205 10.9886C202.47 11.6799 202.603 12.5038 202.603 13.4602V14.2486H193.661V12.5156H200.138C200.134 12.0232 200.027 11.5852 199.819 11.2017C199.611 10.8134 199.319 10.508 198.945 10.2855C198.576 10.063 198.145 9.9517 197.653 9.9517C197.127 9.9517 196.665 10.0795 196.268 10.3352C195.87 10.5862 195.56 10.9176 195.337 11.3295C195.12 11.7367 195.008 12.1842 195.004 12.6719V14.1847C195.004 14.8191 195.12 15.3636 195.352 15.8182C195.584 16.268 195.908 16.6136 196.325 16.8551C196.741 17.0919 197.229 17.2102 197.788 17.2102C198.162 17.2102 198.5 17.1581 198.803 17.054C199.106 16.9451 199.369 16.7865 199.592 16.5781C199.814 16.3698 199.982 16.1117 200.096 15.804L202.496 16.0739C202.345 16.7083 202.056 17.2623 201.63 17.7358C201.209 18.2045 200.669 18.5691 200.011 18.8295C199.353 19.0852 198.6 19.2131 197.752 19.2131ZM207.349 12.608V19H204.778V8.09091H207.235V9.9446H207.363C207.614 9.33381 208.014 8.84848 208.564 8.48864C209.118 8.12879 209.802 7.94886 210.616 7.94886C211.369 7.94886 212.025 8.10985 212.583 8.43182C213.147 8.75379 213.583 9.22017 213.89 9.83097C214.203 10.4418 214.357 11.1828 214.352 12.054V19H211.781V12.4517C211.781 11.7225 211.592 11.152 211.213 10.7401C210.839 10.3281 210.32 10.1222 209.657 10.1222C209.208 10.1222 208.807 10.2216 208.457 10.4205C208.111 10.6146 207.839 10.8963 207.64 11.2656C207.446 11.6349 207.349 12.0824 207.349 12.608ZM221.014 19.1918C220.157 19.1918 219.39 18.9716 218.713 18.5312C218.036 18.0909 217.501 17.4517 217.108 16.6136C216.715 15.7756 216.518 14.7576 216.518 13.5597C216.518 12.3475 216.717 11.3248 217.115 10.4915C217.517 9.65341 218.059 9.02131 218.741 8.59517C219.423 8.1643 220.183 7.94886 221.021 7.94886C221.66 7.94886 222.186 8.05777 222.598 8.27557C223.01 8.48864 223.336 8.74669 223.578 9.04972C223.819 9.34801 224.006 9.62973 224.139 9.89489H224.245V4.45455H226.824V19H224.295V17.2812H224.139C224.006 17.5464 223.815 17.8281 223.564 18.1264C223.313 18.42 222.981 18.6709 222.569 18.8793C222.157 19.0876 221.639 19.1918 221.014 19.1918ZM221.731 17.0824C222.276 17.0824 222.74 16.9356 223.123 16.642C223.507 16.3437 223.798 15.9295 223.997 15.3991C224.196 14.8688 224.295 14.2509 224.295 13.5455C224.295 12.84 224.196 12.2268 223.997 11.706C223.803 11.1851 223.514 10.7803 223.13 10.4915C222.752 10.2027 222.285 10.0582 221.731 10.0582C221.158 10.0582 220.68 10.2074 220.297 10.5057C219.913 10.804 219.624 11.2159 219.43 11.7415C219.236 12.267 219.139 12.8684 219.139 13.5455C219.139 14.2273 219.236 14.8357 219.43 15.3707C219.629 15.901 219.92 16.3201 220.304 16.6278C220.692 16.9309 221.168 17.0824 221.731 17.0824Z" fill="black"/>
<path d="M247.304 2.87819C247.329 2.793 247.338 2.70348 247.33 2.61475C247.322 2.52602 247.297 2.43981 247.256 2.36105C247.215 2.28229 247.159 2.21251 247.091 2.15571C247.024 2.0989 246.946 2.05618 246.862 2.02998C246.779 2.00378 246.691 1.99462 246.604 2.00302C246.516 2.01141 246.432 2.03721 246.354 2.07892C246.277 2.12063 246.208 2.17745 246.153 2.24613C246.097 2.31481 246.055 2.394 246.029 2.47919L240.696 20.1218C240.644 20.2939 240.662 20.4799 240.744 20.639C240.827 20.798 240.969 20.9171 241.138 20.97C241.307 21.0229 241.489 21.0053 241.646 20.9211C241.802 20.8368 241.919 20.6929 241.971 20.5208L247.304 2.87819ZM239.806 6.26964C239.868 6.33267 239.917 6.40755 239.951 6.48999C239.984 6.57243 240.002 6.66081 240.002 6.75006C240.002 6.83932 239.984 6.9277 239.951 7.01013C239.917 7.09257 239.868 7.16745 239.806 7.23049L235.61 11.5L239.806 15.7695C239.931 15.8969 240.001 16.0697 240.001 16.2499C240.001 16.4301 239.931 16.6029 239.806 16.7304C239.681 16.8578 239.511 16.9294 239.334 16.9294C239.157 16.9294 238.987 16.8578 238.862 16.7304L234.196 11.9804C234.134 11.9174 234.085 11.8425 234.051 11.7601C234.017 11.6776 234 11.5893 234 11.5C234 11.4107 234.017 11.3224 234.051 11.2399C234.085 11.1575 234.134 11.0826 234.196 11.0196L238.862 6.26964C238.924 6.20645 238.997 6.15631 239.078 6.1221C239.159 6.0879 239.246 6.07029 239.334 6.07029C239.422 6.07029 239.508 6.0879 239.589 6.1221C239.67 6.15631 239.744 6.20645 239.806 6.26964ZM248.194 6.26964C248.132 6.33267 248.083 6.40755 248.049 6.48999C248.016 6.57243 247.998 6.66081 247.998 6.75006C247.998 6.83932 248.016 6.9277 248.049 7.01013C248.083 7.09257 248.132 7.16745 248.194 7.23049L252.39 11.5L248.194 15.7695C248.132 15.8326 248.083 15.9075 248.049 15.9899C248.016 16.0724 247.999 16.1607 247.999 16.2499C247.999 16.3392 248.016 16.4275 248.049 16.5099C248.083 16.5924 248.132 16.6673 248.194 16.7304C248.256 16.7934 248.33 16.8435 248.411 16.8776C248.492 16.9118 248.578 16.9294 248.666 16.9294C248.754 16.9294 248.841 16.9118 248.922 16.8776C249.003 16.8435 249.076 16.7934 249.138 16.7304L253.804 11.9804C253.866 11.9174 253.915 11.8425 253.949 11.7601C253.983 11.6776 254 11.5893 254 11.5C254 11.4107 253.983 11.3224 253.949 11.2399C253.915 11.1575 253.866 11.0826 253.804 11.0196L249.138 6.26964C249.076 6.20645 249.003 6.15631 248.922 6.1221C248.841 6.0879 248.754 6.07029 248.666 6.07029C248.578 6.07029 248.492 6.0879 248.411 6.1221C248.33 6.15631 248.256 6.20645 248.194 6.26964Z" fill="black"/>
</svg>
