<svg width="126" height="34" viewBox="0 0 126 34" fill="none" xmlns="http://www.w3.org/2000/svg">
<path d="M13.8849 12.3622H11.2287C11.1529 11.9266 11.0133 11.5407 10.8097 11.2045C10.6061 10.8636 10.3527 10.5748 10.0497 10.3381C9.74669 10.1013 9.40104 9.92377 9.01278 9.8054C8.62926 9.68229 8.21496 9.62074 7.76989 9.62074C6.97917 9.62074 6.27841 9.8196 5.66761 10.2173C5.05682 10.6103 4.5786 11.188 4.23295 11.9503C3.88731 12.7079 3.71449 13.6335 3.71449 14.7273C3.71449 15.84 3.88731 16.7775 4.23295 17.5398C4.58333 18.2973 5.06155 18.8703 5.66761 19.2585C6.27841 19.642 6.9768 19.8338 7.76278 19.8338C8.19839 19.8338 8.60559 19.777 8.98438 19.6634C9.3679 19.545 9.71117 19.3722 10.0142 19.1449C10.322 18.9176 10.58 18.6383 10.7884 18.3068C11.0014 17.9754 11.1482 17.5966 11.2287 17.1705L13.8849 17.1847C13.7855 17.8759 13.5701 18.5246 13.2386 19.1307C12.9119 19.7367 12.4834 20.2718 11.9531 20.7358C11.4228 21.1951 10.8026 21.5549 10.0923 21.8153C9.3821 22.071 8.59375 22.1989 7.72727 22.1989C6.44886 22.1989 5.30777 21.9029 4.30398 21.3111C3.30019 20.7192 2.50947 19.8646 1.93182 18.7472C1.35417 17.6297 1.06534 16.2898 1.06534 14.7273C1.06534 13.16 1.35653 11.8201 1.93892 10.7074C2.52131 9.58996 3.31439 8.73532 4.31818 8.14347C5.32197 7.55161 6.45833 7.25568 7.72727 7.25568C8.53693 7.25568 9.28977 7.36932 9.9858 7.59659C10.6818 7.82386 11.3021 8.15767 11.8466 8.59801C12.3911 9.03362 12.8385 9.56866 13.1889 10.2031C13.544 10.8329 13.776 11.5526 13.8849 12.3622ZM16.1843 22V11.0909H18.6772V12.9091H18.7908C18.9897 12.2794 19.3306 11.794 19.8136 11.4531C20.3013 11.1075 20.8576 10.9347 21.4826 10.9347C21.6246 10.9347 21.7833 10.9418 21.9585 10.956C22.1384 10.9654 22.2875 10.982 22.4059 11.0057V13.3707C22.297 13.3329 22.1242 13.2997 21.8874 13.2713C21.6554 13.2382 21.4305 13.2216 21.2127 13.2216C20.744 13.2216 20.3226 13.3234 19.9485 13.527C19.5792 13.7259 19.288 14.0028 19.0749 14.358C18.8619 14.7131 18.7553 15.1226 18.7553 15.5866V22H16.1843ZM31.0671 17.4119V11.0909H33.6381V22H31.1452V20.0611H31.0316C30.7854 20.6719 30.3806 21.1714 29.8171 21.5597C29.2584 21.9479 28.5695 22.142 27.7504 22.142C27.0354 22.142 26.4033 21.9834 25.854 21.6662C25.3095 21.3442 24.8834 20.8778 24.5756 20.267C24.2679 19.6515 24.114 18.9081 24.114 18.0369V11.0909H26.685V17.6392C26.685 18.3305 26.8744 18.8797 27.2532 19.2869C27.632 19.6941 28.1291 19.8977 28.7447 19.8977C29.1235 19.8977 29.4904 19.8054 29.8455 19.6207C30.2006 19.4361 30.4918 19.1615 30.7191 18.7969C30.9511 18.4276 31.0671 17.9659 31.0671 17.4119ZM40.3303 22.1918C39.4732 22.1918 38.7062 21.9716 38.0291 21.5312C37.352 21.0909 36.817 20.4517 36.424 19.6136C36.031 18.7756 35.8345 17.7576 35.8345 16.5597C35.8345 15.3475 36.0334 14.3248 36.4311 13.4915C36.8336 12.6534 37.3757 12.0213 38.0575 11.5952C38.7393 11.1643 39.4993 10.9489 40.3374 10.9489C40.9766 10.9489 41.5021 11.0578 41.9141 11.2756C42.326 11.4886 42.6527 11.7467 42.8942 12.0497C43.1357 12.348 43.3227 12.6297 43.4553 12.8949H43.5618V7.45455H46.1399V22H43.6115V20.2812H43.4553C43.3227 20.5464 43.1309 20.8281 42.88 21.1264C42.629 21.42 42.2976 21.6709 41.8857 21.8793C41.4737 22.0876 40.9553 22.1918 40.3303 22.1918ZM41.0476 20.0824C41.5921 20.0824 42.0561 19.9356 42.4396 19.642C42.8232 19.3437 43.1143 18.9295 43.3132 18.3991C43.5121 17.8688 43.6115 17.2509 43.6115 16.5455C43.6115 15.84 43.5121 15.2268 43.3132 14.706C43.1191 14.1851 42.8303 13.7803 42.4467 13.4915C42.0679 13.2027 41.6016 13.0582 41.0476 13.0582C40.4747 13.0582 39.9964 13.2074 39.6129 13.5057C39.2294 13.804 38.9406 14.2159 38.7464 14.7415C38.5523 15.267 38.4553 15.8684 38.4553 16.5455C38.4553 17.2273 38.5523 17.8357 38.7464 18.3707C38.9453 18.901 39.2365 19.3201 39.62 19.6278C40.0083 19.9309 40.4841 20.0824 41.0476 20.0824ZM61.859 11.4531C61.7927 10.8329 61.5134 10.3499 61.021 10.0043C60.5333 9.65862 59.8988 9.4858 59.1175 9.4858C58.5683 9.4858 58.0972 9.56866 57.7042 9.73438C57.3112 9.90009 57.0105 10.125 56.8022 10.4091C56.5939 10.6932 56.4873 11.0175 56.4826 11.3821C56.4826 11.6851 56.5513 11.9479 56.6886 12.1705C56.8306 12.393 57.0224 12.5824 57.2638 12.7386C57.5053 12.8902 57.7728 13.018 58.0664 13.1222C58.36 13.2263 58.6559 13.3139 58.9542 13.3849L60.3178 13.7259C60.8671 13.8537 61.395 14.0265 61.9016 14.2443C62.413 14.4621 62.8699 14.7367 63.2724 15.0682C63.6796 15.3996 64.0015 15.7997 64.2383 16.2685C64.475 16.7372 64.5934 17.2865 64.5934 17.9162C64.5934 18.7685 64.3756 19.5189 63.94 20.1676C63.5044 20.8116 62.8746 21.3158 62.0508 21.6804C61.2317 22.0402 60.2397 22.2202 59.0749 22.2202C57.9433 22.2202 56.9608 22.045 56.1275 21.6946C55.2989 21.3442 54.6502 20.8329 54.1815 20.1605C53.7174 19.4882 53.4665 18.669 53.4286 17.7031H56.021C56.0588 18.2098 56.2151 18.6312 56.4897 18.9673C56.7643 19.3035 57.1218 19.5545 57.5621 19.7202C58.0072 19.8859 58.5044 19.9688 59.0536 19.9688C59.6265 19.9688 60.1284 19.8835 60.5593 19.7131C60.9949 19.5379 61.3358 19.2964 61.582 18.9886C61.8282 18.6761 61.9537 18.3116 61.9585 17.8949C61.9537 17.5161 61.8424 17.2036 61.6246 16.9574C61.4068 16.7064 61.1014 16.4981 60.7085 16.3324C60.3202 16.1619 59.8656 16.0104 59.3448 15.8778L57.69 15.4517C56.4921 15.1439 55.5451 14.6776 54.8491 14.0526C54.1578 13.4228 53.8121 12.5871 53.8121 11.5455C53.8121 10.6884 54.0442 9.93797 54.5082 9.29403C54.9769 8.65009 55.6138 8.15057 56.4187 7.79545C57.2236 7.43561 58.1351 7.25568 59.1531 7.25568C60.1853 7.25568 61.0896 7.43561 61.8661 7.79545C62.6474 8.15057 63.2605 8.64536 63.7056 9.27983C64.1507 9.90956 64.3803 10.634 64.3945 11.4531H61.859ZM68.4268 26.0909C68.0765 26.0909 67.7521 26.0625 67.4538 26.0057C67.1603 25.9536 66.9259 25.892 66.7507 25.821L67.3473 23.8182C67.7214 23.9271 68.0552 23.9792 68.3487 23.9744C68.6423 23.9697 68.9003 23.8774 69.1229 23.6974C69.3501 23.5223 69.5419 23.2287 69.6982 22.8168L69.9183 22.2273L65.9624 11.0909H68.6896L71.2038 19.3295H71.3175L73.8388 11.0909H76.5732L72.2053 23.321C72.0017 23.8987 71.7318 24.3935 71.3956 24.8054C71.0594 25.2221 70.6475 25.5393 70.1598 25.7571C69.6768 25.9796 69.0992 26.0909 68.4268 26.0909ZM86.9744 13.9744L84.6307 14.2301C84.5644 13.9934 84.4484 13.7708 84.2827 13.5625C84.1217 13.3542 83.9039 13.1861 83.6293 13.0582C83.3546 12.9304 83.0185 12.8665 82.6207 12.8665C82.0857 12.8665 81.6359 12.9825 81.2713 13.2145C80.9115 13.4465 80.7339 13.7472 80.7386 14.1165C80.7339 14.4337 80.8499 14.6918 81.0866 14.8906C81.3281 15.0895 81.7259 15.2528 82.2798 15.3807L84.1406 15.7784C85.1728 16.0009 85.9399 16.3537 86.4418 16.8366C86.9484 17.3196 87.2041 17.9517 87.2088 18.733C87.2041 19.4195 87.0028 20.0256 86.6051 20.5511C86.2121 21.072 85.6652 21.4792 84.9645 21.7727C84.2637 22.0663 83.4588 22.2131 82.5497 22.2131C81.2145 22.2131 80.1397 21.9337 79.3253 21.375C78.5109 20.8116 78.0256 20.0279 77.8693 19.0241L80.3764 18.7827C80.4901 19.2751 80.7315 19.6468 81.1009 19.8977C81.4702 20.1487 81.9508 20.2741 82.5426 20.2741C83.1534 20.2741 83.6435 20.1487 84.0128 19.8977C84.3868 19.6468 84.5739 19.3366 84.5739 18.9673C84.5739 18.6548 84.4531 18.3968 84.2116 18.1932C83.9749 17.9896 83.6056 17.8333 83.1037 17.7244L81.2429 17.3338C80.1965 17.116 79.4223 16.7491 78.9205 16.233C78.4186 15.7121 78.17 15.054 78.1747 14.2585C78.17 13.5862 78.3523 13.0038 78.7216 12.5114C79.0956 12.0142 79.6141 11.6307 80.277 11.3608C80.9446 11.0862 81.714 10.9489 82.5852 10.9489C83.8636 10.9489 84.8698 11.2211 85.6037 11.7656C86.3423 12.3101 86.7992 13.0464 86.9744 13.9744ZM94.7763 11.0909V13.0795H88.505V11.0909H94.7763ZM90.0533 8.47727H92.6243V18.7188C92.6243 19.0644 92.6764 19.3295 92.7805 19.5142C92.8894 19.6941 93.0315 19.8172 93.2067 19.8835C93.3819 19.9498 93.576 19.983 93.7891 19.983C93.95 19.983 94.0968 19.9711 94.2294 19.9474C94.3667 19.9238 94.4709 19.9025 94.5419 19.8835L94.9751 21.8935C94.8378 21.9408 94.6413 21.9929 94.3857 22.0497C94.1347 22.1065 93.8269 22.1397 93.4624 22.1491C92.8184 22.1681 92.2384 22.071 91.7223 21.858C91.2062 21.6402 90.7966 21.304 90.4936 20.8494C90.1953 20.3949 90.0485 19.8267 90.0533 19.1449V8.47727ZM101.639 22.2131C100.545 22.2131 99.6005 21.9858 98.805 21.5312C98.0143 21.072 97.4059 20.4233 96.9798 19.5852C96.5536 18.7424 96.3406 17.7505 96.3406 16.6094C96.3406 15.4872 96.5536 14.5024 96.9798 13.6548C97.4106 12.8026 98.012 12.1397 98.7837 11.6662C99.5555 11.188 100.462 10.9489 101.504 10.9489C102.176 10.9489 102.811 11.0578 103.407 11.2756C104.009 11.4886 104.539 11.8201 104.998 12.2699C105.462 12.7197 105.827 13.2926 106.092 13.9886C106.357 14.6799 106.49 15.5038 106.49 16.4602V17.2486H97.5479V15.5156H104.025C104.02 15.0232 103.914 14.5852 103.706 14.2017C103.497 13.8134 103.206 13.508 102.832 13.2855C102.463 13.063 102.032 12.9517 101.539 12.9517C101.014 12.9517 100.552 13.0795 100.154 13.3352C99.7567 13.5862 99.4466 13.9176 99.2241 14.3295C99.0063 14.7367 98.895 15.1842 98.8903 15.6719V17.1847C98.8903 17.8191 99.0063 18.3636 99.2383 18.8182C99.4703 19.268 99.7946 19.6136 100.211 19.8551C100.628 20.0919 101.116 20.2102 101.674 20.2102C102.048 20.2102 102.387 20.1581 102.69 20.054C102.993 19.9451 103.256 19.7865 103.478 19.5781C103.701 19.3698 103.869 19.1117 103.983 18.804L106.383 19.0739C106.232 19.7083 105.943 20.2623 105.517 20.7358C105.095 21.2045 104.556 21.5691 103.897 21.8295C103.239 22.0852 102.486 22.2131 101.639 22.2131ZM108.665 22V11.0909H111.122V12.9446H111.25C111.477 12.3196 111.854 11.8319 112.379 11.4815C112.905 11.1264 113.532 10.9489 114.261 10.9489C115 10.9489 115.623 11.1288 116.129 11.4886C116.641 11.8437 117 12.3291 117.209 12.9446H117.322C117.564 12.3385 117.971 11.8556 118.544 11.4957C119.122 11.1312 119.806 10.9489 120.597 10.9489C121.6 10.9489 122.42 11.2661 123.054 11.9006C123.688 12.535 124.006 13.4607 124.006 14.6776V22H121.428V15.0753C121.428 14.3982 121.248 13.9034 120.888 13.5909C120.528 13.2737 120.088 13.1151 119.567 13.1151C118.946 13.1151 118.461 13.3092 118.111 13.6974C117.765 14.081 117.592 14.5805 117.592 15.196V22H115.071V14.9688C115.071 14.4053 114.901 13.9555 114.56 13.6193C114.223 13.2831 113.783 13.1151 113.239 13.1151C112.869 13.1151 112.533 13.2098 112.23 13.3991C111.927 13.5838 111.686 13.8466 111.506 14.1875C111.326 14.5237 111.236 14.9167 111.236 15.3665V22H108.665Z" fill="black"/>
</svg>
