<svg width="118" height="24" viewBox="0 0 118 24" fill="none" xmlns="http://www.w3.org/2000/svg">
<path d="M6.36364 19H1.43466V4.45455H6.46307C7.9072 4.45455 9.14773 4.74574 10.1847 5.32812C11.2263 5.90578 12.0265 6.73674 12.5852 7.82102C13.1439 8.9053 13.4233 10.2027 13.4233 11.7131C13.4233 13.2282 13.1416 14.5303 12.5781 15.6193C12.0194 16.7083 11.2121 17.544 10.1562 18.1264C9.10511 18.7088 7.84091 19 6.36364 19ZM4.0696 16.7202H6.2358C7.24905 16.7202 8.09422 16.5355 8.77131 16.1662C9.44839 15.7921 9.95739 15.2358 10.2983 14.4972C10.6392 13.7538 10.8097 12.8258 10.8097 11.7131C10.8097 10.6004 10.6392 9.67708 10.2983 8.94318C9.95739 8.20455 9.45313 7.65294 8.78551 7.28835C8.12263 6.91903 7.29877 6.73438 6.31392 6.73438H4.0696V16.7202ZM18.9524 19.2202C18.2611 19.2202 17.6385 19.0971 17.0845 18.8509C16.5353 18.5999 16.0997 18.2306 15.7777 17.7429C15.4605 17.2552 15.3018 16.6539 15.3018 15.9389C15.3018 15.3234 15.4155 14.8144 15.6428 14.4119C15.87 14.0095 16.1802 13.6875 16.5732 13.446C16.9661 13.2045 17.4089 13.0223 17.9013 12.8991C18.3984 12.7713 18.9122 12.679 19.4425 12.6222C20.0817 12.5559 20.6001 12.4967 20.9979 12.4446C21.3956 12.3878 21.6844 12.3026 21.8643 12.1889C22.049 12.0705 22.1413 11.8883 22.1413 11.642V11.5994C22.1413 11.0644 21.9827 10.6501 21.6655 10.3565C21.3482 10.063 20.8913 9.91619 20.2947 9.91619C19.665 9.91619 19.1655 10.0535 18.7962 10.3281C18.4316 10.6027 18.1854 10.9271 18.0575 11.3011L15.657 10.9602C15.8464 10.2973 16.1589 9.74337 16.5945 9.2983C17.0301 8.84848 17.5627 8.51231 18.1925 8.28977C18.8222 8.0625 19.5182 7.94886 20.2805 7.94886C20.8061 7.94886 21.3293 8.01042 21.8501 8.13352C22.371 8.25663 22.8468 8.46023 23.2777 8.74432C23.7086 9.02367 24.0542 9.40483 24.3146 9.88778C24.5798 10.3707 24.7124 10.9744 24.7124 11.6989V19H22.2408V17.5014H22.1555C21.9993 17.8045 21.7791 18.0885 21.495 18.3537C21.2157 18.6141 20.8629 18.8248 20.4368 18.9858C20.0154 19.142 19.5206 19.2202 18.9524 19.2202ZM19.62 17.331C20.1361 17.331 20.5836 17.2292 20.9624 17.0256C21.3411 16.8172 21.6323 16.5426 21.8359 16.2017C22.0443 15.8608 22.1484 15.4891 22.1484 15.0866V13.8011C22.0679 13.8674 21.9306 13.929 21.7365 13.9858C21.5471 14.0426 21.334 14.0923 21.0973 14.1349C20.8606 14.1776 20.6262 14.2154 20.3942 14.2486C20.1622 14.2817 19.9609 14.3101 19.7905 14.3338C19.407 14.3859 19.0637 14.4711 18.7607 14.5895C18.4576 14.7079 18.2185 14.8736 18.0433 15.0866C17.8681 15.295 17.7805 15.5649 17.7805 15.8963C17.7805 16.3698 17.9534 16.7273 18.299 16.9688C18.6446 17.2102 19.085 17.331 19.62 17.331ZM32.745 8.09091V10.0795H26.4737V8.09091H32.745ZM28.022 5.47727H30.593V15.7188C30.593 16.0644 30.6451 16.3295 30.7493 16.5142C30.8582 16.6941 31.0002 16.8172 31.1754 16.8835C31.3506 16.9498 31.5447 16.983 31.7578 16.983C31.9188 16.983 32.0656 16.9711 32.1982 16.9474C32.3355 16.9238 32.4396 16.9025 32.5107 16.8835L32.9439 18.8935C32.8066 18.9408 32.6101 18.9929 32.3544 19.0497C32.1035 19.1065 31.7957 19.1397 31.4311 19.1491C30.7872 19.1681 30.2071 19.071 29.6911 18.858C29.175 18.6402 28.7654 18.304 28.4624 17.8494C28.1641 17.3949 28.0173 16.8267 28.022 16.1449V5.47727ZM38.0344 19.2202C37.3432 19.2202 36.7205 19.0971 36.1665 18.8509C35.6173 18.5999 35.1817 18.2306 34.8597 17.7429C34.5425 17.2552 34.3839 16.6539 34.3839 15.9389C34.3839 15.3234 34.4975 14.8144 34.7248 14.4119C34.9521 14.0095 35.2622 13.6875 35.6552 13.446C36.0482 13.2045 36.4909 13.0223 36.9833 12.8991C37.4805 12.7713 37.9942 12.679 38.5245 12.6222C39.1637 12.5559 39.6822 12.4967 40.0799 12.4446C40.4776 12.3878 40.7665 12.3026 40.9464 12.1889C41.131 12.0705 41.2234 11.8883 41.2234 11.642V11.5994C41.2234 11.0644 41.0647 10.6501 40.7475 10.3565C40.4303 10.063 39.9734 9.91619 39.3768 9.91619C38.747 9.91619 38.2475 10.0535 37.8782 10.3281C37.5136 10.6027 37.2674 10.9271 37.1396 11.3011L34.739 10.9602C34.9284 10.2973 35.2409 9.74337 35.6765 9.2983C36.1121 8.84848 36.6448 8.51231 37.2745 8.28977C37.9042 8.0625 38.6003 7.94886 39.3626 7.94886C39.8881 7.94886 40.4113 8.01042 40.9322 8.13352C41.453 8.25663 41.9289 8.46023 42.3597 8.74432C42.7906 9.02367 43.1362 9.40483 43.3967 9.88778C43.6618 10.3707 43.7944 10.9744 43.7944 11.6989V19H41.3228V17.5014H41.2376C41.0813 17.8045 40.8612 18.0885 40.5771 18.3537C40.2977 18.6141 39.945 18.8248 39.5188 18.9858C39.0974 19.142 38.6026 19.2202 38.0344 19.2202ZM38.7021 17.331C39.2182 17.331 39.6656 17.2292 40.0444 17.0256C40.4232 16.8172 40.7144 16.5426 40.918 16.2017C41.1263 15.8608 41.2305 15.4891 41.2305 15.0866V13.8011C41.15 13.8674 41.0127 13.929 40.8185 13.9858C40.6291 14.0426 40.4161 14.0923 40.1793 14.1349C39.9426 14.1776 39.7082 14.2154 39.4762 14.2486C39.2442 14.2817 39.043 14.3101 38.8725 14.3338C38.489 14.3859 38.1457 14.4711 37.8427 14.5895C37.5397 14.7079 37.3005 14.8736 37.1254 15.0866C36.9502 15.295 36.8626 15.5649 36.8626 15.8963C36.8626 16.3698 37.0354 16.7273 37.381 16.9688C37.7267 17.2102 38.167 17.331 38.7021 17.331ZM46.4933 19V4.45455H49.0643V9.89489H49.1708C49.3034 9.62973 49.4904 9.34801 49.7319 9.04972C49.9734 8.74669 50.3001 8.48864 50.712 8.27557C51.1239 8.05777 51.6495 7.94886 52.2887 7.94886C53.1315 7.94886 53.8915 8.1643 54.5685 8.59517C55.2504 9.02131 55.7901 9.65341 56.1879 10.4915C56.5903 11.3248 56.7915 12.3475 56.7915 13.5597C56.7915 14.7576 56.5951 15.7756 56.2021 16.6136C55.8091 17.4517 55.274 18.0909 54.5969 18.5312C53.9199 18.9716 53.1528 19.1918 52.2958 19.1918C51.6708 19.1918 51.1523 19.0876 50.7404 18.8793C50.3285 18.6709 49.997 18.42 49.7461 18.1264C49.4999 17.8281 49.3081 17.5464 49.1708 17.2812H49.0217V19H46.4933ZM49.0146 13.5455C49.0146 14.2509 49.114 14.8688 49.3129 15.3991C49.5165 15.9295 49.8076 16.3437 50.1864 16.642C50.57 16.9356 51.034 17.0824 51.5785 17.0824C52.1467 17.0824 52.6225 16.9309 53.006 16.6278C53.3896 16.3201 53.6784 15.901 53.8725 15.3707C54.0714 14.8357 54.1708 14.2273 54.1708 13.5455C54.1708 12.8684 54.0737 12.267 53.8796 11.7415C53.6855 11.2159 53.3967 10.804 53.0131 10.5057C52.6296 10.2074 52.1514 10.0582 51.5785 10.0582C51.0292 10.0582 50.5629 10.2027 50.1793 10.4915C49.7958 10.7803 49.5046 11.1851 49.3058 11.706C49.1116 12.2268 49.0146 12.84 49.0146 13.5455ZM62.1165 19.2202C61.4252 19.2202 60.8026 19.0971 60.2486 18.8509C59.6993 18.5999 59.2637 18.2306 58.9418 17.7429C58.6245 17.2552 58.4659 16.6539 58.4659 15.9389C58.4659 15.3234 58.5795 14.8144 58.8068 14.4119C59.0341 14.0095 59.3442 13.6875 59.7372 13.446C60.1302 13.2045 60.5729 13.0223 61.0653 12.8991C61.5625 12.7713 62.0762 12.679 62.6065 12.6222C63.2457 12.5559 63.7642 12.4967 64.1619 12.4446C64.5597 12.3878 64.8485 12.3026 65.0284 12.1889C65.2131 12.0705 65.3054 11.8883 65.3054 11.642V11.5994C65.3054 11.0644 65.1468 10.6501 64.8295 10.3565C64.5123 10.063 64.0554 9.91619 63.4588 9.91619C62.8291 9.91619 62.3295 10.0535 61.9602 10.3281C61.5956 10.6027 61.3494 10.9271 61.2216 11.3011L58.821 10.9602C59.0104 10.2973 59.3229 9.74337 59.7585 9.2983C60.1941 8.84848 60.7268 8.51231 61.3565 8.28977C61.9863 8.0625 62.6823 7.94886 63.4446 7.94886C63.9702 7.94886 64.4934 8.01042 65.0142 8.13352C65.535 8.25663 66.0109 8.46023 66.4418 8.74432C66.8726 9.02367 67.2183 9.40483 67.4787 9.88778C67.7438 10.3707 67.8764 10.9744 67.8764 11.6989V19H65.4048V17.5014H65.3196C65.1634 17.8045 64.9432 18.0885 64.6591 18.3537C64.3797 18.6141 64.027 18.8248 63.6009 18.9858C63.1795 19.142 62.6847 19.2202 62.1165 19.2202ZM62.7841 17.331C63.3002 17.331 63.7476 17.2292 64.1264 17.0256C64.5052 16.8172 64.7964 16.5426 65 16.2017C65.2083 15.8608 65.3125 15.4891 65.3125 15.0866V13.8011C65.232 13.8674 65.0947 13.929 64.9006 13.9858C64.7112 14.0426 64.4981 14.0923 64.2614 14.1349C64.0246 14.1776 63.7902 14.2154 63.5582 14.2486C63.3262 14.2817 63.125 14.3101 62.9545 14.3338C62.571 14.3859 62.2277 14.4711 61.9247 14.5895C61.6217 14.7079 61.3826 14.8736 61.2074 15.0866C61.0322 15.295 60.9446 15.5649 60.9446 15.8963C60.9446 16.3698 61.1174 16.7273 61.4631 16.9688C61.8087 17.2102 62.2491 17.331 62.7841 17.331ZM79.0838 10.9744L76.7401 11.2301C76.6738 10.9934 76.5578 10.7708 76.392 10.5625C76.2311 10.3542 76.0133 10.1861 75.7386 10.0582C75.464 9.9304 75.1278 9.86648 74.7301 9.86648C74.1951 9.86648 73.7453 9.98248 73.3807 10.2145C73.0208 10.4465 72.8433 10.7472 72.848 11.1165C72.8433 11.4337 72.9593 11.6918 73.196 11.8906C73.4375 12.0895 73.8352 12.2528 74.3892 12.3807L76.25 12.7784C77.2822 13.0009 78.0492 13.3537 78.5511 13.8366C79.0578 14.3196 79.3134 14.9517 79.3182 15.733C79.3134 16.4195 79.1122 17.0256 78.7145 17.5511C78.3215 18.072 77.7746 18.4792 77.0739 18.7727C76.3731 19.0663 75.5682 19.2131 74.6591 19.2131C73.3239 19.2131 72.2491 18.9337 71.4347 18.375C70.6203 17.8116 70.1349 17.0279 69.9787 16.0241L72.4858 15.7827C72.5994 16.2751 72.8409 16.6468 73.2102 16.8977C73.5795 17.1487 74.0601 17.2741 74.652 17.2741C75.2628 17.2741 75.7528 17.1487 76.1222 16.8977C76.4962 16.6468 76.6832 16.3366 76.6832 15.9673C76.6832 15.6548 76.5625 15.3968 76.321 15.1932C76.0843 14.9896 75.715 14.8333 75.2131 14.7244L73.3523 14.3338C72.3059 14.116 71.5317 13.7491 71.0298 13.233C70.5279 12.7121 70.2794 12.054 70.2841 11.2585C70.2794 10.5862 70.4616 10.0038 70.831 9.51136C71.205 9.0142 71.7235 8.63068 72.3864 8.3608C73.054 8.08617 73.8234 7.94886 74.6946 7.94886C75.973 7.94886 76.9792 8.22112 77.7131 8.76562C78.4517 9.31013 78.9086 10.0464 79.0838 10.9744ZM86.2678 19.2131C85.174 19.2131 84.2294 18.9858 83.4339 18.5312C82.6432 18.072 82.0348 17.4233 81.6087 16.5852C81.1825 15.7424 80.9695 14.7505 80.9695 13.6094C80.9695 12.4872 81.1825 11.5024 81.6087 10.6548C82.0395 9.80256 82.6409 9.13968 83.4126 8.66619C84.1844 8.18797 85.0911 7.94886 86.1328 7.94886C86.8052 7.94886 87.4396 8.05777 88.0362 8.27557C88.6375 8.48864 89.1679 8.82008 89.6271 9.26989C90.0911 9.7197 90.4557 10.2926 90.7209 10.9886C90.986 11.6799 91.1186 12.5038 91.1186 13.4602V14.2486H82.1768V12.5156H88.6541C88.6494 12.0232 88.5429 11.5852 88.3345 11.2017C88.1262 10.8134 87.835 10.508 87.4609 10.2855C87.0916 10.063 86.6607 9.9517 86.1683 9.9517C85.6428 9.9517 85.1811 10.0795 84.7834 10.3352C84.3857 10.5862 84.0755 10.9176 83.853 11.3295C83.6352 11.7367 83.5239 12.1842 83.5192 12.6719V14.1847C83.5192 14.8191 83.6352 15.3636 83.8672 15.8182C84.0992 16.268 84.4235 16.6136 84.8402 16.8551C85.2569 17.0919 85.7446 17.2102 86.3033 17.2102C86.6773 17.2102 87.0159 17.1581 87.3189 17.054C87.6219 16.9451 87.8847 16.7865 88.1072 16.5781C88.3298 16.3698 88.4979 16.1117 88.6115 15.804L91.0121 16.0739C90.8606 16.7083 90.5717 17.2623 90.1456 17.7358C89.7242 18.2045 89.1844 18.5691 88.5263 18.8295C87.8681 19.0852 87.1153 19.2131 86.2678 19.2131Z" fill="black"/>
<path d="M111.047 14.1947C111.981 13.9396 112.791 13.3542 113.327 12.5473C113.862 11.7404 114.087 10.7666 113.959 9.80659C113.831 8.84658 113.359 7.96551 112.631 7.32681C111.903 6.68811 110.968 6.33513 110 6.33334C109.043 6.33297 108.118 6.67573 107.392 7.29942C106.666 7.92311 106.188 8.78639 106.044 9.73256C105.9 10.6787 106.1 11.6451 106.608 12.4562C107.116 13.2673 107.898 13.8695 108.812 14.1533C109.701 13.5667 110.673 12.94 111.419 12.4627C111.717 12.2707 112.063 12.616 111.872 12.916L111.045 14.196L111.047 14.1947ZM111.333 10.3333C111.333 10.687 111.193 11.0261 110.943 11.2762C110.693 11.5262 110.354 11.6667 110 11.6667C109.646 11.6667 109.307 11.5262 109.057 11.2762C108.807 11.0261 108.667 10.687 108.667 10.3333C108.667 9.97972 108.807 9.64058 109.057 9.39054C109.307 9.14049 109.646 9.00001 110 9.00001C110.354 9.00001 110.693 9.14049 110.943 9.39054C111.193 9.64058 111.333 9.97972 111.333 10.3333Z" fill="black"/>
<path d="M104.667 1C103.959 1 103.281 1.28095 102.781 1.78105C102.281 2.28115 102 2.95942 102 3.66667V19.6667C102 20.3739 102.281 21.0522 102.781 21.5523C103.281 22.0524 103.959 22.3333 104.667 22.3333H115.333C116.041 22.3333 116.719 22.0524 117.219 21.5523C117.719 21.0522 118 20.3739 118 19.6667V3.66667C118 2.95942 117.719 2.28115 117.219 1.78105C116.719 1.28095 116.041 1 115.333 1H104.667ZM116.667 3C116.667 3.17681 116.596 3.34638 116.471 3.4714C116.346 3.59643 116.177 3.66667 116 3.66667C115.823 3.66667 115.654 3.59643 115.529 3.4714C115.404 3.34638 115.333 3.17681 115.333 3C115.333 2.82319 115.404 2.65362 115.529 2.5286C115.654 2.40357 115.823 2.33333 116 2.33333C116.177 2.33333 116.346 2.40357 116.471 2.5286C116.596 2.65362 116.667 2.82319 116.667 3ZM116.667 20.3333C116.667 20.5101 116.596 20.6797 116.471 20.8047C116.346 20.9298 116.177 21 116 21C115.823 21 115.654 20.9298 115.529 20.8047C115.404 20.6797 115.333 20.5101 115.333 20.3333C115.333 20.1565 115.404 19.987 115.529 19.8619C115.654 19.7369 115.823 19.6667 116 19.6667C116.177 19.6667 116.346 19.7369 116.471 19.8619C116.596 19.987 116.667 20.1565 116.667 20.3333ZM104 21C103.823 21 103.654 20.9298 103.529 20.8047C103.404 20.6797 103.333 20.5101 103.333 20.3333C103.333 20.1565 103.404 19.987 103.529 19.8619C103.654 19.7369 103.823 19.6667 104 19.6667C104.177 19.6667 104.346 19.7369 104.471 19.8619C104.596 19.987 104.667 20.1565 104.667 20.3333C104.667 20.5101 104.596 20.6797 104.471 20.8047C104.346 20.9298 104.177 21 104 21ZM104.667 3C104.667 3.17681 104.596 3.34638 104.471 3.4714C104.346 3.59643 104.177 3.66667 104 3.66667C103.823 3.66667 103.654 3.59643 103.529 3.4714C103.404 3.34638 103.333 3.17681 103.333 3C103.333 2.82319 103.404 2.65362 103.529 2.5286C103.654 2.40357 103.823 2.33333 104 2.33333C104.177 2.33333 104.346 2.40357 104.471 2.5286C104.596 2.65362 104.667 2.82319 104.667 3ZM108.509 17.9027C108.234 18.1785 107.86 18.3335 107.47 18.3336C107.08 18.3338 106.706 18.179 106.43 17.9033C106.154 17.6277 105.999 17.2538 105.999 16.8638C105.999 16.6707 106.037 16.4795 106.111 16.3011C106.185 16.1227 106.293 15.9606 106.429 15.824C106.563 15.6933 106.957 15.4053 107.489 15.04C106.344 14.4292 105.461 13.4218 105.005 12.2064C104.549 10.991 104.553 9.65121 105.014 8.43801C105.475 7.22482 106.363 6.22154 107.512 5.6162C108.66 5.01086 109.989 4.84501 111.251 5.14974C112.513 5.45447 113.62 6.20885 114.365 7.27152C115.111 8.33418 115.443 9.63217 115.3 10.9222C115.157 12.2123 114.548 13.4059 113.588 14.2793C112.628 15.1527 111.382 15.646 110.084 15.6667C109.368 16.7507 108.724 17.6867 108.509 17.9027Z" fill="black"/>
</svg>
