<svg width="249" height="24" viewBox="0 0 249 24" fill="none" xmlns="http://www.w3.org/2000/svg">
<path d="M1.43466 19V4.45455H4.0696V16.7912H10.4759V19H1.43466ZM15.7884 19.2202C15.0971 19.2202 14.4744 19.0971 13.9205 18.8509C13.3712 18.5999 12.9356 18.2306 12.6136 17.7429C12.2964 17.2552 12.1378 16.6539 12.1378 15.9389C12.1378 15.3234 12.2514 14.8144 12.4787 14.4119C12.706 14.0095 13.0161 13.6875 13.4091 13.446C13.8021 13.2045 14.2448 13.0223 14.7372 12.8991C15.2344 12.7713 15.7481 12.679 16.2784 12.6222C16.9176 12.5559 17.4361 12.4967 17.8338 12.4446C18.2315 12.3878 18.5204 12.3026 18.7003 12.1889C18.8849 12.0705 18.9773 11.8883 18.9773 11.642V11.5994C18.9773 11.0644 18.8187 10.6501 18.5014 10.3565C18.1842 10.063 17.7273 9.91619 17.1307 9.91619C16.5009 9.91619 16.0014 10.0535 15.6321 10.3281C15.2675 10.6027 15.0213 10.9271 14.8935 11.3011L12.4929 10.9602C12.6823 10.2973 12.9948 9.74337 13.4304 9.2983C13.866 8.84848 14.3987 8.51231 15.0284 8.28977C15.6581 8.0625 16.3542 7.94886 17.1165 7.94886C17.642 7.94886 18.1652 8.01042 18.6861 8.13352C19.2069 8.25663 19.6828 8.46023 20.1136 8.74432C20.5445 9.02367 20.8902 9.40483 21.1506 9.88778C21.4157 10.3707 21.5483 10.9744 21.5483 11.6989V19H19.0767V17.5014H18.9915C18.8352 17.8045 18.6151 18.0885 18.331 18.3537C18.0516 18.6141 17.6989 18.8248 17.2727 18.9858C16.8513 19.142 16.3565 19.2202 15.7884 19.2202ZM16.456 17.331C16.9721 17.331 17.4195 17.2292 17.7983 17.0256C18.1771 16.8172 18.4683 16.5426 18.6719 16.2017C18.8802 15.8608 18.9844 15.4891 18.9844 15.0866V13.8011C18.9039 13.8674 18.7666 13.929 18.5724 13.9858C18.383 14.0426 18.17 14.0923 17.9332 14.1349C17.6965 14.1776 17.4621 14.2154 17.2301 14.2486C16.9981 14.2817 16.7969 14.3101 16.6264 14.3338C16.2429 14.3859 15.8996 14.4711 15.5966 14.5895C15.2936 14.7079 15.0545 14.8736 14.8793 15.0866C14.7041 15.295 14.6165 15.5649 14.6165 15.8963C14.6165 16.3698 14.7893 16.7273 15.1349 16.9688C15.4806 17.2102 15.9209 17.331 16.456 17.331ZM26.7045 12.608V19H24.1335V8.09091H26.5909V9.9446H26.7188C26.9697 9.33381 27.3698 8.84848 27.919 8.48864C28.473 8.12879 29.1572 7.94886 29.9716 7.94886C30.7244 7.94886 31.3802 8.10985 31.9389 8.43182C32.5024 8.75379 32.938 9.22017 33.2457 9.83097C33.5582 10.4418 33.7121 11.1828 33.7074 12.054V19H31.1364V12.4517C31.1364 11.7225 30.947 11.152 30.5682 10.7401C30.1941 10.3281 29.6757 10.1222 29.0128 10.1222C28.563 10.1222 28.1629 10.2216 27.8125 10.4205C27.4669 10.6146 27.1946 10.8963 26.9957 11.2656C26.8016 11.6349 26.7045 12.0824 26.7045 12.608ZM41.0653 23.3182C40.142 23.3182 39.349 23.1927 38.6861 22.9418C38.0232 22.6955 37.4905 22.3641 37.0881 21.9474C36.6856 21.5308 36.4062 21.0691 36.25 20.5625L38.5653 20.0014C38.6695 20.2145 38.821 20.4252 39.0199 20.6335C39.2188 20.8466 39.4863 21.0218 39.8224 21.1591C40.1634 21.3011 40.5919 21.3722 41.108 21.3722C41.8371 21.3722 42.4408 21.1946 42.919 20.8395C43.3973 20.4891 43.6364 19.9115 43.6364 19.1065V17.0398H43.5085C43.3759 17.3049 43.1818 17.5772 42.9261 17.8565C42.6752 18.1359 42.3414 18.3703 41.9247 18.5597C41.5128 18.7491 40.9943 18.8438 40.3693 18.8438C39.5312 18.8438 38.7713 18.6473 38.0895 18.2543C37.4124 17.8565 36.8726 17.2647 36.4702 16.4787C36.0724 15.688 35.8736 14.6984 35.8736 13.5099C35.8736 12.312 36.0724 11.3011 36.4702 10.4773C36.8726 9.64867 37.4148 9.02131 38.0966 8.59517C38.7784 8.1643 39.5384 7.94886 40.3764 7.94886C41.0156 7.94886 41.5412 8.05777 41.9531 8.27557C42.3698 8.48864 42.7012 8.74669 42.9474 9.04972C43.1937 9.34801 43.3807 9.62973 43.5085 9.89489H43.6506V8.09091H46.1861V19.1776C46.1861 20.1103 45.9635 20.8821 45.5185 21.4929C45.0734 22.1037 44.465 22.5606 43.6932 22.8636C42.9214 23.1667 42.0455 23.3182 41.0653 23.3182ZM41.0866 16.8267C41.6312 16.8267 42.0952 16.6941 42.4787 16.429C42.8622 16.1638 43.1534 15.7827 43.3523 15.2855C43.5511 14.7884 43.6506 14.1918 43.6506 13.4957C43.6506 12.8092 43.5511 12.2079 43.3523 11.6918C43.1581 11.1757 42.8693 10.7756 42.4858 10.4915C42.107 10.2027 41.6406 10.0582 41.0866 10.0582C40.5137 10.0582 40.0355 10.2074 39.652 10.5057C39.2685 10.804 38.9796 11.2135 38.7855 11.7344C38.5914 12.2505 38.4943 12.8376 38.4943 13.4957C38.4943 14.1634 38.5914 14.7481 38.7855 15.25C38.9844 15.7472 39.2756 16.1354 39.6591 16.4148C40.0473 16.6894 40.5232 16.8267 41.0866 16.8267ZM55.7741 14.4119V8.09091H58.3452V19H55.8523V17.0611H55.7386C55.4924 17.6719 55.0876 18.1714 54.5241 18.5597C53.9654 18.9479 53.2765 19.142 52.4574 19.142C51.7424 19.142 51.1103 18.9834 50.5611 18.6662C50.0166 18.3442 49.5904 17.8778 49.2827 17.267C48.9749 16.6515 48.821 15.9081 48.821 15.0369V8.09091H51.392V14.6392C51.392 15.3305 51.5814 15.8797 51.9602 16.2869C52.339 16.6941 52.8362 16.8977 53.4517 16.8977C53.8305 16.8977 54.1974 16.8054 54.5526 16.6207C54.9077 16.4361 55.1989 16.1615 55.4261 15.7969C55.6581 15.4276 55.7741 14.9659 55.7741 14.4119ZM64.1282 19.2202C63.4369 19.2202 62.8143 19.0971 62.2603 18.8509C61.7111 18.5999 61.2754 18.2306 60.9535 17.7429C60.6362 17.2552 60.4776 16.6539 60.4776 15.9389C60.4776 15.3234 60.5913 14.8144 60.8185 14.4119C61.0458 14.0095 61.3559 13.6875 61.7489 13.446C62.1419 13.2045 62.5846 13.0223 63.0771 12.8991C63.5742 12.7713 64.0879 12.679 64.6183 12.6222C65.2575 12.5559 65.7759 12.4967 66.1737 12.4446C66.5714 12.3878 66.8602 12.3026 67.0401 12.1889C67.2248 12.0705 67.3171 11.8883 67.3171 11.642V11.5994C67.3171 11.0644 67.1585 10.6501 66.8413 10.3565C66.524 10.063 66.0671 9.91619 65.4705 9.91619C64.8408 9.91619 64.3413 10.0535 63.9719 10.3281C63.6074 10.6027 63.3612 10.9271 63.2333 11.3011L60.8327 10.9602C61.0221 10.2973 61.3346 9.74337 61.7702 9.2983C62.2058 8.84848 62.7385 8.51231 63.3683 8.28977C63.998 8.0625 64.694 7.94886 65.4563 7.94886C65.9819 7.94886 66.5051 8.01042 67.0259 8.13352C67.5468 8.25663 68.0226 8.46023 68.4535 8.74432C68.8844 9.02367 69.23 9.40483 69.4904 9.88778C69.7556 10.3707 69.8881 10.9744 69.8881 11.6989V19H67.4165V17.5014H67.3313C67.1751 17.8045 66.9549 18.0885 66.6708 18.3537C66.3915 18.6141 66.0387 18.8248 65.6126 18.9858C65.1912 19.142 64.6964 19.2202 64.1282 19.2202ZM64.7958 17.331C65.3119 17.331 65.7594 17.2292 66.1381 17.0256C66.5169 16.8172 66.8081 16.5426 67.0117 16.2017C67.2201 15.8608 67.3242 15.4891 67.3242 15.0866V13.8011C67.2437 13.8674 67.1064 13.929 66.9123 13.9858C66.7229 14.0426 66.5098 14.0923 66.2731 14.1349C66.0363 14.1776 65.802 14.2154 65.57 14.2486C65.3379 14.2817 65.1367 14.3101 64.9663 14.3338C64.5827 14.3859 64.2395 14.4711 63.9364 14.5895C63.6334 14.7079 63.3943 14.8736 63.2191 15.0866C63.0439 15.295 62.9563 15.5649 62.9563 15.8963C62.9563 16.3698 63.1291 16.7273 63.4748 16.9688C63.8204 17.2102 64.2608 17.331 64.7958 17.331ZM77.2177 23.3182C76.2944 23.3182 75.5013 23.1927 74.8384 22.9418C74.1755 22.6955 73.6429 22.3641 73.2404 21.9474C72.8379 21.5308 72.5586 21.0691 72.4023 20.5625L74.7177 20.0014C74.8219 20.2145 74.9734 20.4252 75.1722 20.6335C75.3711 20.8466 75.6386 21.0218 75.9748 21.1591C76.3157 21.3011 76.7442 21.3722 77.2603 21.3722C77.9895 21.3722 78.5932 21.1946 79.0714 20.8395C79.5496 20.4891 79.7887 19.9115 79.7887 19.1065V17.0398H79.6609C79.5283 17.3049 79.3342 17.5772 79.0785 17.8565C78.8275 18.1359 78.4937 18.3703 78.0771 18.5597C77.6651 18.7491 77.1467 18.8438 76.5217 18.8438C75.6836 18.8438 74.9237 18.6473 74.2418 18.2543C73.5647 17.8565 73.025 17.2647 72.6225 16.4787C72.2248 15.688 72.0259 14.6984 72.0259 13.5099C72.0259 12.312 72.2248 11.3011 72.6225 10.4773C73.025 9.64867 73.5671 9.02131 74.2489 8.59517C74.9308 8.1643 75.6907 7.94886 76.5288 7.94886C77.168 7.94886 77.6935 8.05777 78.1055 8.27557C78.5221 8.48864 78.8536 8.74669 79.0998 9.04972C79.346 9.34801 79.533 9.62973 79.6609 9.89489H79.8029V8.09091H82.3384V19.1776C82.3384 20.1103 82.1159 20.8821 81.6708 21.4929C81.2257 22.1037 80.6173 22.5606 79.8455 22.8636C79.0737 23.1667 78.1978 23.3182 77.2177 23.3182ZM77.239 16.8267C77.7835 16.8267 78.2475 16.6941 78.631 16.429C79.0146 16.1638 79.3058 15.7827 79.5046 15.2855C79.7035 14.7884 79.8029 14.1918 79.8029 13.4957C79.8029 12.8092 79.7035 12.2079 79.5046 11.6918C79.3105 11.1757 79.0217 10.7756 78.6381 10.4915C78.2594 10.2027 77.793 10.0582 77.239 10.0582C76.6661 10.0582 76.1879 10.2074 75.8043 10.5057C75.4208 10.804 75.132 11.2135 74.9379 11.7344C74.7437 12.2505 74.6467 12.8376 74.6467 13.4957C74.6467 14.1634 74.7437 14.7481 74.9379 15.25C75.1367 15.7472 75.4279 16.1354 75.8114 16.4148C76.1997 16.6894 76.6755 16.8267 77.239 16.8267ZM89.8029 19.2131C88.7092 19.2131 87.7646 18.9858 86.9691 18.5312C86.1784 18.072 85.57 17.4233 85.1438 16.5852C84.7177 15.7424 84.5046 14.7505 84.5046 13.6094C84.5046 12.4872 84.7177 11.5024 85.1438 10.6548C85.5747 9.80256 86.176 9.13968 86.9478 8.66619C87.7196 8.18797 88.6263 7.94886 89.668 7.94886C90.3403 7.94886 90.9748 8.05777 91.5714 8.27557C92.1727 8.48864 92.703 8.82008 93.1623 9.26989C93.6263 9.7197 93.9909 10.2926 94.256 10.9886C94.5212 11.6799 94.6538 12.5038 94.6538 13.4602V14.2486H85.712V12.5156H92.1893C92.1845 12.0232 92.078 11.5852 91.8697 11.2017C91.6613 10.8134 91.3701 10.508 90.9961 10.2855C90.6268 10.063 90.1959 9.9517 89.7035 9.9517C89.1779 9.9517 88.7163 10.0795 88.3185 10.3352C87.9208 10.5862 87.6107 10.9176 87.3881 11.3295C87.1703 11.7367 87.0591 12.1842 87.0543 12.6719V14.1847C87.0543 14.8191 87.1703 15.3636 87.4023 15.8182C87.6344 16.268 87.9587 16.6136 88.3754 16.8551C88.792 17.0919 89.2797 17.2102 89.8384 17.2102C90.2125 17.2102 90.551 17.1581 90.854 17.054C91.1571 16.9451 91.4199 16.7865 91.6424 16.5781C91.8649 16.3698 92.033 16.1117 92.1467 15.804L94.5472 16.0739C94.3957 16.7083 94.1069 17.2623 93.6808 17.7358C93.2594 18.2045 92.7196 18.5691 92.0614 18.8295C91.4033 19.0852 90.6504 19.2131 89.8029 19.2131ZM105.451 10.9744L103.107 11.2301C103.041 10.9934 102.925 10.7708 102.759 10.5625C102.598 10.3542 102.38 10.1861 102.106 10.0582C101.831 9.9304 101.495 9.86648 101.097 9.86648C100.562 9.86648 100.112 9.98248 99.7479 10.2145C99.388 10.4465 99.2105 10.7472 99.2152 11.1165C99.2105 11.4337 99.3265 11.6918 99.5632 11.8906C99.8047 12.0895 100.202 12.2528 100.756 12.3807L102.617 12.7784C103.649 13.0009 104.416 13.3537 104.918 13.8366C105.425 14.3196 105.681 14.9517 105.685 15.733C105.681 16.4195 105.479 17.0256 105.082 17.5511C104.689 18.072 104.142 18.4792 103.441 18.7727C102.74 19.0663 101.935 19.2131 101.026 19.2131C99.6911 19.2131 98.6162 18.9337 97.8018 18.375C96.9875 17.8116 96.5021 17.0279 96.3459 16.0241L98.853 15.7827C98.9666 16.2751 99.2081 16.6468 99.5774 16.8977C99.9467 17.1487 100.427 17.2741 101.019 17.2741C101.63 17.2741 102.12 17.1487 102.489 16.8977C102.863 16.6468 103.05 16.3366 103.05 15.9673C103.05 15.6548 102.93 15.3968 102.688 15.1932C102.451 14.9896 102.082 14.8333 101.58 14.7244L99.7195 14.3338C98.6731 14.116 97.8989 13.7491 97.397 13.233C96.8951 12.7121 96.6465 12.054 96.6513 11.2585C96.6465 10.5862 96.8288 10.0038 97.1982 9.51136C97.5722 9.0142 98.0907 8.63068 98.7536 8.3608C99.4212 8.08617 100.191 7.94886 101.062 7.94886C102.34 7.94886 103.346 8.22112 104.08 8.76562C104.819 9.31013 105.276 10.0464 105.451 10.9744ZM119.379 10.669V12.7855H112.83V10.669H119.379ZM127.157 19V4.45455H132.725C133.777 4.45455 134.65 4.62026 135.346 4.9517C136.047 5.27841 136.57 5.72585 136.916 6.29403C137.266 6.86222 137.441 7.50616 137.441 8.22585C137.441 8.81771 137.328 9.32434 137.1 9.74574C136.873 10.1624 136.568 10.5009 136.184 10.7614C135.801 11.0218 135.372 11.2088 134.899 11.3224V11.4645C135.415 11.4929 135.91 11.6515 136.383 11.9403C136.861 12.2244 137.252 12.6269 137.555 13.1477C137.858 13.6686 138.01 14.2983 138.01 15.0369C138.01 15.7898 137.827 16.4669 137.463 17.0682C137.098 17.6648 136.549 18.1359 135.815 18.4815C135.081 18.8272 134.158 19 133.045 19H127.157ZM129.792 16.7983H132.626C133.583 16.7983 134.271 16.616 134.693 16.2514C135.119 15.8821 135.332 15.4086 135.332 14.831C135.332 14.4001 135.225 14.0118 135.012 13.6662C134.799 13.3158 134.496 13.0412 134.103 12.8423C133.71 12.6387 133.242 12.5369 132.697 12.5369H129.792V16.7983ZM129.792 10.6406H132.399C132.853 10.6406 133.263 10.5578 133.627 10.392C133.992 10.2216 134.279 9.98248 134.487 9.67472C134.7 9.36222 134.806 8.9929 134.806 8.56676C134.806 8.00331 134.608 7.5393 134.21 7.17472C133.817 6.81013 133.232 6.62784 132.456 6.62784H129.792V10.6406ZM143.327 19.2202C142.636 19.2202 142.013 19.0971 141.46 18.8509C140.91 18.5999 140.475 18.2306 140.153 17.7429C139.835 17.2552 139.677 16.6539 139.677 15.9389C139.677 15.3234 139.79 14.8144 140.018 14.4119C140.245 14.0095 140.555 13.6875 140.948 13.446C141.341 13.2045 141.784 13.0223 142.276 12.8991C142.773 12.7713 143.287 12.679 143.817 12.6222C144.457 12.5559 144.975 12.4967 145.373 12.4446C145.771 12.3878 146.059 12.3026 146.239 12.1889C146.424 12.0705 146.516 11.8883 146.516 11.642V11.5994C146.516 11.0644 146.358 10.6501 146.04 10.3565C145.723 10.063 145.266 9.91619 144.67 9.91619C144.04 9.91619 143.54 10.0535 143.171 10.3281C142.807 10.6027 142.56 10.9271 142.433 11.3011L140.032 10.9602C140.221 10.2973 140.534 9.74337 140.969 9.2983C141.405 8.84848 141.938 8.51231 142.567 8.28977C143.197 8.0625 143.893 7.94886 144.656 7.94886C145.181 7.94886 145.704 8.01042 146.225 8.13352C146.746 8.25663 147.222 8.46023 147.653 8.74432C148.084 9.02367 148.429 9.40483 148.69 9.88778C148.955 10.3707 149.087 10.9744 149.087 11.6989V19H146.616V17.5014H146.531C146.374 17.8045 146.154 18.0885 145.87 18.3537C145.591 18.6141 145.238 18.8248 144.812 18.9858C144.39 19.142 143.896 19.2202 143.327 19.2202ZM143.995 17.331C144.511 17.331 144.959 17.2292 145.337 17.0256C145.716 16.8172 146.007 16.5426 146.211 16.2017C146.419 15.8608 146.523 15.4891 146.523 15.0866V13.8011C146.443 13.8674 146.306 13.929 146.112 13.9858C145.922 14.0426 145.709 14.0923 145.472 14.1349C145.236 14.1776 145.001 14.2154 144.769 14.2486C144.537 14.2817 144.336 14.3101 144.165 14.3338C143.782 14.3859 143.439 14.4711 143.136 14.5895C142.833 14.7079 142.594 14.8736 142.418 15.0866C142.243 15.295 142.156 15.5649 142.156 15.8963C142.156 16.3698 142.328 16.7273 142.674 16.9688C143.02 17.2102 143.46 17.331 143.995 17.331ZM156.431 19.2131C155.342 19.2131 154.407 18.974 153.626 18.4957C152.849 18.0175 152.25 17.357 151.829 16.5142C151.412 15.6667 151.204 14.6913 151.204 13.5881C151.204 12.4801 151.417 11.5024 151.843 10.6548C152.269 9.80256 152.871 9.13968 153.647 8.66619C154.428 8.18797 155.352 7.94886 156.417 7.94886C157.302 7.94886 158.086 8.11222 158.768 8.43892C159.454 8.76089 160.001 9.2178 160.408 9.80966C160.816 10.3968 161.048 11.0833 161.104 11.8693H158.647C158.548 11.3437 158.311 10.9058 157.937 10.5554C157.567 10.2003 157.073 10.0227 156.452 10.0227C155.927 10.0227 155.465 10.1648 155.067 10.4489C154.67 10.7282 154.36 11.1307 154.137 11.6562C153.919 12.1818 153.81 12.8116 153.81 13.5455C153.81 14.2888 153.919 14.928 154.137 15.4631C154.355 15.9934 154.66 16.4029 155.053 16.6918C155.451 16.9759 155.917 17.1179 156.452 17.1179C156.831 17.1179 157.17 17.0469 157.468 16.9048C157.771 16.758 158.024 16.5473 158.228 16.2727C158.432 15.9981 158.571 15.6643 158.647 15.2713H161.104C161.043 16.0431 160.816 16.7273 160.423 17.3239C160.03 17.9157 159.495 18.3797 158.817 18.7159C158.14 19.0473 157.345 19.2131 156.431 19.2131ZM165.559 15.5767L165.552 12.473H165.964L169.885 8.09091H172.889L168.066 13.4602H167.534L165.559 15.5767ZM163.216 19V4.45455H165.787V19H163.216ZM170.062 19L166.511 14.0355L168.244 12.2244L173.137 19H170.062ZM180.668 11.8835V14H174.119V11.8835H180.668ZM188.201 19.2131C187.108 19.2131 186.163 18.9858 185.368 18.5312C184.577 18.072 183.968 17.4233 183.542 16.5852C183.116 15.7424 182.903 14.7505 182.903 13.6094C182.903 12.4872 183.116 11.5024 183.542 10.6548C183.973 9.80256 184.574 9.13968 185.346 8.66619C186.118 8.18797 187.025 7.94886 188.066 7.94886C188.739 7.94886 189.373 8.05777 189.97 8.27557C190.571 8.48864 191.101 8.82008 191.561 9.26989C192.025 9.7197 192.389 10.2926 192.654 10.9886C192.92 11.6799 193.052 12.5038 193.052 13.4602V14.2486H184.11V12.5156H190.588C190.583 12.0232 190.476 11.5852 190.268 11.2017C190.06 10.8134 189.769 10.508 189.395 10.2855C189.025 10.063 188.594 9.9517 188.102 9.9517C187.576 9.9517 187.115 10.0795 186.717 10.3352C186.319 10.5862 186.009 10.9176 185.787 11.3295C185.569 11.7367 185.458 12.1842 185.453 12.6719V14.1847C185.453 14.8191 185.569 15.3636 185.801 15.8182C186.033 16.268 186.357 16.6136 186.774 16.8551C187.19 17.0919 187.678 17.2102 188.237 17.2102C188.611 17.2102 188.949 17.1581 189.252 17.054C189.556 16.9451 189.818 16.7865 190.041 16.5781C190.263 16.3698 190.431 16.1117 190.545 15.804L192.946 16.0739C192.794 16.7083 192.505 17.2623 192.079 17.7358C191.658 18.2045 191.118 18.5691 190.46 18.8295C189.802 19.0852 189.049 19.2131 188.201 19.2131ZM197.798 12.608V19H195.227V8.09091H197.685V9.9446H197.812C198.063 9.33381 198.464 8.84848 199.013 8.48864C199.567 8.12879 200.251 7.94886 201.065 7.94886C201.818 7.94886 202.474 8.10985 203.033 8.43182C203.596 8.75379 204.032 9.22017 204.339 9.83097C204.652 10.4418 204.806 11.1828 204.801 12.054V19H202.23V12.4517C202.23 11.7225 202.041 11.152 201.662 10.7401C201.288 10.3281 200.769 10.1222 200.107 10.1222C199.657 10.1222 199.257 10.2216 198.906 10.4205C198.561 10.6146 198.288 10.8963 198.089 11.2656C197.895 11.6349 197.798 12.0824 197.798 12.608ZM211.463 19.1918C210.606 19.1918 209.839 18.9716 209.162 18.5312C208.485 18.0909 207.95 17.4517 207.557 16.6136C207.164 15.7756 206.967 14.7576 206.967 13.5597C206.967 12.3475 207.166 11.3248 207.564 10.4915C207.966 9.65341 208.509 9.02131 209.19 8.59517C209.872 8.1643 210.632 7.94886 211.47 7.94886C212.109 7.94886 212.635 8.05777 213.047 8.27557C213.459 8.48864 213.786 8.74669 214.027 9.04972C214.268 9.34801 214.455 9.62973 214.588 9.89489H214.695V4.45455H217.273V19H214.744V17.2812H214.588C214.455 17.5464 214.264 17.8281 214.013 18.1264C213.762 18.42 213.43 18.6709 213.018 18.8793C212.607 19.0876 212.088 19.1918 211.463 19.1918ZM212.18 17.0824C212.725 17.0824 213.189 16.9356 213.572 16.642C213.956 16.3437 214.247 15.9295 214.446 15.3991C214.645 14.8688 214.744 14.2509 214.744 13.5455C214.744 12.84 214.645 12.2268 214.446 11.706C214.252 11.1851 213.963 10.7803 213.58 10.4915C213.201 10.2027 212.734 10.0582 212.18 10.0582C211.607 10.0582 211.129 10.2074 210.746 10.5057C210.362 10.804 210.073 11.2159 209.879 11.7415C209.685 12.267 209.588 12.8684 209.588 13.5455C209.588 14.2273 209.685 14.8357 209.879 15.3707C210.078 15.901 210.369 16.3201 210.753 16.6278C211.141 16.9309 211.617 17.0824 212.18 17.0824Z" fill="black"/>
<path d="M230.591 11.8774V12.1226C232.027 12.2761 232.73 13.048 232.73 14.5301V17.2339C232.73 18.88 233.287 19.548 234.664 19.548H235.054V21H234.517C232.214 21 231.129 19.858 231.129 17.4611V15.168C231.129 13.5219 230.591 12.9773 229 12.9773V11.0227C230.591 11.0227 231.129 10.4781 231.129 8.83198V6.53891C231.129 4.14202 232.213 3 234.517 3H235.054V4.45047H234.664C233.287 4.45047 232.73 5.11853 232.73 6.76461V9.46995C232.73 10.9505 232.027 11.7224 230.591 11.8774ZM247.409 12.1226V11.8774C245.973 11.7224 245.27 10.9505 245.27 9.46995V6.76461C245.27 5.11853 244.713 4.45047 243.336 4.45047H242.946V3H243.483C245.787 3 246.871 4.14202 246.871 6.53891V8.83198C246.871 10.4781 247.409 11.0227 249 11.0227V12.9773C247.409 12.9773 246.871 13.5219 246.871 15.168V17.4611C246.871 19.858 245.786 21 243.483 21H242.946V19.5495H243.336C244.713 19.5495 245.27 18.8815 245.27 17.2354V14.5301C245.27 13.0495 245.973 12.2776 247.409 12.1226Z" fill="black"/>
</svg>
