<svg width="144" height="39" viewBox="0 0 144 39" fill="none" xmlns="http://www.w3.org/2000/svg">
<path d="M1.76136 31V7.72727H11.375C13.1174 7.72727 14.6212 8.06818 15.8864 8.75C17.1591 9.42424 18.1402 10.3674 18.8295 11.5795C19.5189 12.7841 19.8636 14.1856 19.8636 15.7841C19.8636 17.3902 19.5114 18.7955 18.8068 20C18.1098 21.197 17.1136 22.125 15.8182 22.7841C14.5227 23.4432 12.9848 23.7727 11.2045 23.7727H5.27273V19.3409H10.1591C11.0076 19.3409 11.7159 19.1932 12.2841 18.8977C12.8598 18.6023 13.2955 18.1894 13.5909 17.6591C13.8864 17.1212 14.0341 16.4962 14.0341 15.7841C14.0341 15.0644 13.8864 14.4432 13.5909 13.9205C13.2955 13.3902 12.8598 12.9811 12.2841 12.6932C11.7083 12.4053 11 12.2614 10.1591 12.2614H7.38636V31H1.76136ZM22.6364 31V13.5455H28.0341V16.7273H28.2159C28.5341 15.5758 29.053 14.7197 29.7727 14.1591C30.4924 13.5909 31.3295 13.3068 32.2841 13.3068C32.5417 13.3068 32.8068 13.3258 33.0795 13.3636C33.3523 13.3939 33.6061 13.4432 33.8409 13.5114V18.3409C33.5758 18.25 33.2273 18.178 32.7955 18.125C32.3712 18.072 31.9924 18.0455 31.6591 18.0455C31 18.0455 30.4053 18.1932 29.875 18.4886C29.3523 18.7765 28.9394 19.1818 28.6364 19.7045C28.3409 20.2197 28.1932 20.8258 28.1932 21.5227V31H22.6364ZM43.3466 31.3295C41.5133 31.3295 39.9375 30.9545 38.6193 30.2045C37.3087 29.447 36.2973 28.3939 35.5852 27.0455C34.8807 25.6894 34.5284 24.1174 34.5284 22.3295C34.5284 20.5341 34.8807 18.9621 35.5852 17.6136C36.2973 16.2576 37.3087 15.2045 38.6193 14.4545C39.9375 13.697 41.5133 13.3182 43.3466 13.3182C45.1799 13.3182 46.7519 13.697 48.0625 14.4545C49.3807 15.2045 50.392 16.2576 51.0966 17.6136C51.8087 18.9621 52.1648 20.5341 52.1648 22.3295C52.1648 24.1174 51.8087 25.6894 51.0966 27.0455C50.392 28.3939 49.3807 29.447 48.0625 30.2045C46.7519 30.9545 45.1799 31.3295 43.3466 31.3295ZM43.3807 27.1364C44.0473 27.1364 44.6117 26.9318 45.0739 26.5227C45.536 26.1136 45.8883 25.5455 46.1307 24.8182C46.3807 24.0909 46.5057 23.25 46.5057 22.2955C46.5057 21.3258 46.3807 20.4773 46.1307 19.75C45.8883 19.0227 45.536 18.4545 45.0739 18.0455C44.6117 17.6364 44.0473 17.4318 43.3807 17.4318C42.6913 17.4318 42.108 17.6364 41.6307 18.0455C41.161 18.4545 40.8011 19.0227 40.5511 19.75C40.3087 20.4773 40.1875 21.3258 40.1875 22.2955C40.1875 23.25 40.3087 24.0909 40.5511 24.8182C40.8011 25.5455 41.161 26.1136 41.6307 26.5227C42.108 26.9318 42.6913 27.1364 43.3807 27.1364ZM55.0114 13.5455H60.5682V31.7273C60.5682 33.1667 60.2727 34.3106 59.6818 35.1591C59.0985 36.0076 58.2727 36.6174 57.2045 36.9886C56.1364 37.3598 54.875 37.5455 53.4205 37.5455C53.2235 37.5455 53.0379 37.5417 52.8636 37.5341C52.6894 37.5265 52.5 37.5189 52.2955 37.5114V33.2955C52.4318 33.3106 52.553 33.322 52.6591 33.3295C52.7652 33.3371 52.8712 33.3409 52.9773 33.3409C53.7424 33.3409 54.2727 33.197 54.5682 32.9091C54.8636 32.6288 55.0114 32.197 55.0114 31.6136V13.5455ZM57.7841 11.5114C57.0038 11.5114 56.3333 11.2538 55.7727 10.7386C55.2121 10.2159 54.9318 9.58712 54.9318 8.85227C54.9318 8.125 55.2121 7.50379 55.7727 6.98864C56.3333 6.46591 57.0038 6.20454 57.7841 6.20454C58.572 6.20454 59.2424 6.46591 59.7955 6.98864C60.3561 7.50379 60.6364 8.125 60.6364 8.85227C60.6364 9.58712 60.3561 10.2159 59.7955 10.7386C59.2424 11.2538 58.572 11.5114 57.7841 11.5114ZM72.2642 31.3295C70.4384 31.3295 68.8627 30.9697 67.5369 30.25C66.2188 29.5227 65.2036 28.4886 64.4915 27.1477C63.7869 25.7992 63.4347 24.197 63.4347 22.3409C63.4347 20.5379 63.7907 18.9621 64.5028 17.6136C65.215 16.2576 66.2188 15.2045 67.5142 14.4545C68.8097 13.697 70.3362 13.3182 72.0938 13.3182C73.3362 13.3182 74.4725 13.5114 75.5028 13.8977C76.5331 14.2841 77.4233 14.8561 78.1733 15.6136C78.9233 16.3712 79.5066 17.3068 79.9233 18.4205C80.34 19.5265 80.5483 20.7955 80.5483 22.2273V23.6136H65.3778V20.3864H75.3778C75.3703 19.7955 75.2301 19.2689 74.9574 18.8068C74.6847 18.3447 74.3097 17.9848 73.8324 17.7273C73.3627 17.4621 72.821 17.3295 72.2074 17.3295C71.5862 17.3295 71.0294 17.4697 70.5369 17.75C70.0445 18.0227 69.6544 18.3977 69.3665 18.875C69.0786 19.3447 68.9271 19.8788 68.9119 20.4773V23.7614C68.9119 24.4735 69.0521 25.0985 69.3324 25.6364C69.6127 26.1667 70.0104 26.5795 70.5256 26.875C71.0407 27.1705 71.6544 27.3182 72.3665 27.3182C72.8589 27.3182 73.3059 27.25 73.7074 27.1136C74.1089 26.9773 74.4536 26.7765 74.7415 26.5114C75.0294 26.2462 75.2453 25.9205 75.3892 25.5341L80.4915 25.6818C80.2794 26.8258 79.8134 27.822 79.0938 28.6705C78.3816 29.5114 77.446 30.1667 76.2869 30.6364C75.1278 31.0985 73.7869 31.3295 72.2642 31.3295ZM91.5341 31.3295C89.6932 31.3295 88.1136 30.9508 86.7955 30.1932C85.4848 29.4356 84.4773 28.3826 83.7727 27.0341C83.0682 25.678 82.7159 24.1098 82.7159 22.3295C82.7159 20.5417 83.0682 18.9735 83.7727 17.625C84.4848 16.2689 85.4962 15.2121 86.8068 14.4545C88.125 13.697 89.697 13.3182 91.5227 13.3182C93.1364 13.3182 94.5417 13.6098 95.7386 14.1932C96.9432 14.7765 97.8826 15.6023 98.5568 16.6705C99.2386 17.7311 99.5985 18.9773 99.6364 20.4091H94.4432C94.3371 19.5152 94.0341 18.8144 93.5341 18.3068C93.0417 17.7992 92.3977 17.5455 91.6023 17.5455C90.9583 17.5455 90.3939 17.7273 89.9091 18.0909C89.4242 18.447 89.0455 18.9773 88.7727 19.6818C88.5076 20.3788 88.375 21.2424 88.375 22.2727C88.375 23.303 88.5076 24.1742 88.7727 24.8864C89.0455 25.5909 89.4242 26.125 89.9091 26.4886C90.3939 26.8447 90.9583 27.0227 91.6023 27.0227C92.1174 27.0227 92.572 26.9129 92.9659 26.6932C93.3674 26.4735 93.697 26.1515 93.9545 25.7273C94.2121 25.2955 94.375 24.7727 94.4432 24.1591H99.6364C99.5833 25.5985 99.2235 26.8561 98.5568 27.9318C97.8977 29.0076 96.9697 29.8447 95.7727 30.4432C94.5833 31.0341 93.1705 31.3295 91.5341 31.3295ZM112.332 13.5455V17.6364H101.321V13.5455H112.332ZM103.628 9.36364H109.185V25.5114C109.185 25.8523 109.238 26.1288 109.344 26.3409C109.457 26.5455 109.62 26.6932 109.832 26.7841C110.045 26.8674 110.298 26.9091 110.594 26.9091C110.806 26.9091 111.029 26.8902 111.264 26.8523C111.507 26.8068 111.688 26.7689 111.81 26.7386L112.651 30.75C112.385 30.8258 112.01 30.9205 111.526 31.0341C111.048 31.1477 110.476 31.2197 109.81 31.25C108.507 31.3106 107.389 31.1591 106.457 30.7955C105.533 30.4242 104.825 29.8485 104.332 29.0682C103.848 28.2879 103.613 27.3068 103.628 26.125V9.36364Z" fill="black"/>
<path fill-rule="evenodd" clip-rule="evenodd" d="M134.625 9.34375C134.625 9.13655 134.543 8.93784 134.396 8.79132C134.25 8.64481 134.051 8.5625 133.844 8.5625H129.156C128.949 8.5625 128.75 8.64481 128.604 8.79132C128.457 8.93784 128.375 9.13655 128.375 9.34375V10.9062C128.375 11.1135 128.457 11.3122 128.604 11.4587C128.75 11.6052 128.949 11.6875 129.156 11.6875H133.844C134.051 11.6875 134.25 11.6052 134.396 11.4587C134.543 11.3122 134.625 11.1135 134.625 10.9062V9.34375ZM126.812 9.34375C126.812 8.72215 127.059 8.12601 127.499 7.68647C127.939 7.24693 128.535 7 129.156 7H133.844C134.465 7 135.061 7.24693 135.501 7.68647C135.941 8.12601 136.188 8.72215 136.188 9.34375V10.9062C136.188 11.5279 135.941 12.124 135.501 12.5635C135.061 13.0031 134.465 13.25 133.844 13.25H129.156C128.535 13.25 127.939 13.0031 127.499 12.5635C127.059 12.124 126.812 11.5279 126.812 10.9062V9.34375ZM123.688 9.34375H125.25V10.9062C125.25 11.9423 125.662 12.9358 126.394 13.6684C127.127 14.4009 128.12 14.8125 129.156 14.8125H133.844C134.357 14.8125 134.865 14.7115 135.339 14.5152C135.813 14.3188 136.243 14.0311 136.606 13.6684C136.969 13.3057 137.256 12.875 137.453 12.4011C137.649 11.9272 137.75 11.4192 137.75 10.9062V9.34375H139.312C140.141 9.34375 140.936 9.67299 141.522 10.259C142.108 10.8451 142.438 11.6399 142.438 12.4688V28.875C142.438 29.7038 142.108 30.4987 141.522 31.0847C140.936 31.6708 140.141 32 139.312 32H123.688C122.859 32 122.064 31.6708 121.478 31.0847C120.892 30.4987 120.562 29.7038 120.562 28.875V12.4688C120.562 11.6399 120.892 10.8451 121.478 10.259C122.064 9.67299 122.859 9.34375 123.688 9.34375Z" fill="black"/>
</svg>
