<svg width="244" height="21" viewBox="0 0 244 21" fill="none" xmlns="http://www.w3.org/2000/svg">
<path d="M0.795455 3.66335V1.45455H12.4006V3.66335H7.90483V16H5.29119V3.66335H0.795455ZM17.7717 16.2131C16.6779 16.2131 15.7333 15.9858 14.9379 15.5312C14.1471 15.072 13.5387 14.4233 13.1126 13.5852C12.6864 12.7424 12.4734 11.7505 12.4734 10.6094C12.4734 9.48722 12.6864 8.50237 13.1126 7.65483C13.5434 6.80256 14.1448 6.13968 14.9165 5.66619C15.6883 5.18797 16.5951 4.94886 17.6367 4.94886C18.3091 4.94886 18.9435 5.05777 19.5401 5.27557C20.1415 5.48864 20.6718 5.82008 21.131 6.26989C21.5951 6.7197 21.9596 7.29261 22.2248 7.98864C22.4899 8.67992 22.6225 9.50379 22.6225 10.4602V11.2486H13.6808V9.51562H20.158C20.1533 9.0232 20.0468 8.58523 19.8384 8.2017C19.6301 7.81345 19.3389 7.50805 18.9648 7.28551C18.5955 7.06297 18.1647 6.9517 17.6722 6.9517C17.1467 6.9517 16.685 7.07955 16.2873 7.33523C15.8896 7.58617 15.5794 7.91761 15.3569 8.32955C15.1391 8.73674 15.0278 9.18419 15.0231 9.67188V11.1847C15.0231 11.8191 15.1391 12.3636 15.3711 12.8182C15.6031 13.268 15.9274 13.6136 16.3441 13.8551C16.7608 14.0919 17.2485 14.2102 17.8072 14.2102C18.1812 14.2102 18.5198 14.1581 18.8228 14.054C19.1258 13.9451 19.3886 13.7865 19.6112 13.5781C19.8337 13.3698 20.0018 13.1117 20.1154 12.804L22.516 13.0739C22.3645 13.7083 22.0756 14.2623 21.6495 14.7358C21.2281 15.2045 20.6883 15.5691 20.0302 15.8295C19.372 16.0852 18.6192 16.2131 17.7717 16.2131ZM33.4197 7.97443L31.076 8.23011C31.0097 7.99337 30.8937 7.77083 30.728 7.5625C30.567 7.35417 30.3492 7.18608 30.0746 7.05824C29.8 6.9304 29.4638 6.86648 29.0661 6.86648C28.531 6.86648 28.0812 6.98248 27.7166 7.21449C27.3568 7.4465 27.1792 7.74716 27.1839 8.11648C27.1792 8.43371 27.2952 8.69176 27.532 8.89062C27.7734 9.08949 28.1712 9.25284 28.7251 9.38068L30.5859 9.77841C31.6181 10.0009 32.3852 10.3537 32.8871 10.8366C33.3937 11.3196 33.6494 11.9517 33.6541 12.733C33.6494 13.4195 33.4482 14.0256 33.0504 14.5511C32.6574 15.072 32.1106 15.4792 31.4098 15.7727C30.709 16.0663 29.9041 16.2131 28.995 16.2131C27.6598 16.2131 26.585 15.9337 25.7706 15.375C24.9562 14.8116 24.4709 14.0279 24.3146 13.0241L26.8217 12.7827C26.9354 13.2751 27.1768 13.6468 27.5462 13.8977C27.9155 14.1487 28.3961 14.2741 28.9879 14.2741C29.5987 14.2741 30.0888 14.1487 30.4581 13.8977C30.8321 13.6468 31.0192 13.3366 31.0192 12.9673C31.0192 12.6548 30.8984 12.3968 30.657 12.1932C30.4202 11.9896 30.0509 11.8333 29.549 11.7244L27.6882 11.3338C26.6418 11.116 25.8677 10.7491 25.3658 10.233C24.8639 9.71212 24.6153 9.05398 24.62 8.25852C24.6153 7.58617 24.7976 7.00379 25.1669 6.51136C25.541 6.0142 26.0594 5.63068 26.7223 5.3608C27.3899 5.08617 28.1593 4.94886 29.0305 4.94886C30.3089 4.94886 31.3151 5.22112 32.049 5.76562C32.7876 6.31013 33.2446 7.0464 33.4197 7.97443ZM41.2216 5.09091V7.07955H34.9503V5.09091H41.2216ZM36.4986 2.47727H39.0696V12.7188C39.0696 13.0644 39.1217 13.3295 39.2259 13.5142C39.3348 13.6941 39.4768 13.8172 39.652 13.8835C39.8272 13.9498 40.0213 13.983 40.2344 13.983C40.3954 13.983 40.5421 13.9711 40.6747 13.9474C40.812 13.9238 40.9162 13.9025 40.9872 13.8835L41.4205 15.8935C41.2831 15.9408 41.0866 15.9929 40.831 16.0497C40.58 16.1065 40.2723 16.1397 39.9077 16.1491C39.2637 16.1681 38.6837 16.071 38.1676 15.858C37.6515 15.6402 37.242 15.304 36.9389 14.8494C36.6406 14.3949 36.4938 13.8267 36.4986 13.1449V2.47727ZM53.3754 16H48.4464V1.45455H53.4748C54.9189 1.45455 56.1594 1.74574 57.1964 2.32812C58.238 2.90578 59.0382 3.73674 59.5969 4.82102C60.1557 5.9053 60.435 7.20265 60.435 8.71307C60.435 10.2282 60.1533 11.5303 59.5898 12.6193C59.0311 13.7083 58.2238 14.544 57.168 15.1264C56.1168 15.7088 54.8526 16 53.3754 16ZM51.0813 13.7202H53.2475C54.2608 13.7202 55.1059 13.5355 55.783 13.1662C56.4601 12.7921 56.9691 12.2358 57.31 11.4972C57.6509 10.7538 57.8214 9.82576 57.8214 8.71307C57.8214 7.60038 57.6509 6.67708 57.31 5.94318C56.9691 5.20455 56.4648 4.65294 55.7972 4.28835C55.1344 3.91903 54.3105 3.73438 53.3256 3.73438H51.0813V13.7202ZM67.6545 16.2131C66.5607 16.2131 65.6161 15.9858 64.8207 15.5312C64.0299 15.072 63.4215 14.4233 62.9954 13.5852C62.5692 12.7424 62.3562 11.7505 62.3562 10.6094C62.3562 9.48722 62.5692 8.50237 62.9954 7.65483C63.4263 6.80256 64.0276 6.13968 64.7994 5.66619C65.5711 5.18797 66.4779 4.94886 67.5195 4.94886C68.1919 4.94886 68.8263 5.05777 69.4229 5.27557C70.0243 5.48864 70.5546 5.82008 71.0138 6.26989C71.4779 6.7197 71.8424 7.29261 72.1076 7.98864C72.3728 8.67992 72.5053 9.50379 72.5053 10.4602V11.2486H63.5636V9.51562H70.0408C70.0361 9.0232 69.9296 8.58523 69.7212 8.2017C69.5129 7.81345 69.2217 7.50805 68.8477 7.28551C68.4783 7.06297 68.0475 6.9517 67.555 6.9517C67.0295 6.9517 66.5678 7.07955 66.1701 7.33523C65.7724 7.58617 65.4622 7.91761 65.2397 8.32955C65.0219 8.73674 64.9106 9.18419 64.9059 9.67188V11.1847C64.9059 11.8191 65.0219 12.3636 65.2539 12.8182C65.4859 13.268 65.8103 13.6136 66.2269 13.8551C66.6436 14.0919 67.1313 14.2102 67.69 14.2102C68.064 14.2102 68.4026 14.1581 68.7056 14.054C69.0086 13.9451 69.2714 13.7865 69.494 13.5781C69.7165 13.3698 69.8846 13.1117 69.9982 12.804L72.3988 13.0739C72.2473 13.7083 71.9585 14.2623 71.5323 14.7358C71.1109 15.2045 70.5711 15.5691 69.913 15.8295C69.2549 16.0852 68.502 16.2131 67.6545 16.2131ZM84.1122 5.09091L80.2273 16H77.3864L73.5014 5.09091H76.2429L78.75 13.1946H78.8636L81.3778 5.09091H84.1122ZM103.416 6.36222H100.76C100.684 5.92661 100.545 5.54072 100.341 5.20455C100.137 4.86364 99.884 4.57481 99.581 4.33807C99.2779 4.10133 98.9323 3.92377 98.544 3.8054C98.1605 3.68229 97.7462 3.62074 97.3011 3.62074C96.5104 3.62074 95.8097 3.8196 95.1989 4.21733C94.5881 4.61032 94.1098 5.18797 93.7642 5.95028C93.4186 6.70786 93.2457 7.63352 93.2457 8.72727C93.2457 9.83996 93.4186 10.7775 93.7642 11.5398C94.1146 12.2973 94.5928 12.8703 95.1989 13.2585C95.8097 13.642 96.508 13.8338 97.294 13.8338C97.7296 13.8338 98.1368 13.777 98.5156 13.6634C98.8991 13.545 99.2424 13.3722 99.5455 13.1449C99.8532 12.9176 100.111 12.6383 100.32 12.3068C100.533 11.9754 100.679 11.5966 100.76 11.1705L103.416 11.1847C103.317 11.8759 103.101 12.5246 102.77 13.1307C102.443 13.7367 102.015 14.2718 101.484 14.7358C100.954 15.1951 100.334 15.5549 99.6236 15.8153C98.9134 16.071 98.125 16.1989 97.2585 16.1989C95.9801 16.1989 94.839 15.9029 93.8352 15.3111C92.8314 14.7192 92.0407 13.8646 91.4631 12.7472C90.8854 11.6297 90.5966 10.2898 90.5966 8.72727C90.5966 7.16004 90.8878 5.82008 91.4702 4.70739C92.0526 3.58996 92.8456 2.73532 93.8494 2.14347C94.8532 1.55161 95.9896 1.25568 97.2585 1.25568C98.0682 1.25568 98.821 1.36932 99.517 1.59659C100.213 1.82386 100.833 2.15767 101.378 2.59801C101.922 3.03362 102.37 3.56866 102.72 4.20312C103.075 4.83286 103.307 5.55256 103.416 6.36222ZM108.855 16.2202C108.163 16.2202 107.541 16.0971 106.987 15.8509C106.438 15.5999 106.002 15.2306 105.68 14.7429C105.363 14.2552 105.204 13.6539 105.204 12.9389C105.204 12.3234 105.318 11.8144 105.545 11.4119C105.772 11.0095 106.083 10.6875 106.475 10.446C106.868 10.2045 107.311 10.0223 107.804 9.89915C108.301 9.77131 108.815 9.67898 109.345 9.62216C109.984 9.55587 110.502 9.49669 110.9 9.4446C111.298 9.38778 111.587 9.30256 111.767 9.18892C111.951 9.07055 112.044 8.88826 112.044 8.64205V8.59943C112.044 8.06439 111.885 7.65009 111.568 7.35653C111.251 7.06297 110.794 6.91619 110.197 6.91619C109.567 6.91619 109.068 7.0535 108.699 7.32812C108.334 7.60275 108.088 7.92708 107.96 8.30114L105.559 7.96023C105.749 7.29735 106.061 6.74337 106.497 6.2983C106.932 5.84848 107.465 5.51231 108.095 5.28977C108.725 5.0625 109.421 4.94886 110.183 4.94886C110.708 4.94886 111.232 5.01042 111.752 5.13352C112.273 5.25663 112.749 5.46023 113.18 5.74432C113.611 6.02367 113.957 6.40483 114.217 6.88778C114.482 7.37074 114.615 7.97443 114.615 8.69886V16H112.143V14.5014H112.058C111.902 14.8045 111.681 15.0885 111.397 15.3537C111.118 15.6141 110.765 15.8248 110.339 15.9858C109.918 16.142 109.423 16.2202 108.855 16.2202ZM109.522 14.331C110.038 14.331 110.486 14.2292 110.865 14.0256C111.243 13.8172 111.535 13.5426 111.738 13.2017C111.947 12.8608 112.051 12.4891 112.051 12.0866V10.8011C111.97 10.8674 111.833 10.929 111.639 10.9858C111.449 11.0426 111.236 11.0923 111 11.1349C110.763 11.1776 110.529 11.2154 110.297 11.2486C110.065 11.2817 109.863 11.3101 109.693 11.3338C109.309 11.3859 108.966 11.4711 108.663 11.5895C108.36 11.7079 108.121 11.8736 107.946 12.0866C107.77 12.295 107.683 12.5649 107.683 12.8963C107.683 13.3698 107.856 13.7273 108.201 13.9688C108.547 14.2102 108.987 14.331 109.522 14.331ZM117.2 16V5.09091H119.693V6.90909H119.806C120.005 6.27936 120.346 5.79403 120.829 5.45312C121.317 5.10748 121.873 4.93466 122.498 4.93466C122.64 4.93466 122.799 4.94176 122.974 4.95597C123.154 4.96544 123.303 4.98201 123.422 5.00568V7.37074C123.313 7.33286 123.14 7.29972 122.903 7.27131C122.671 7.23816 122.446 7.22159 122.228 7.22159C121.76 7.22159 121.338 7.32339 120.964 7.52699C120.595 7.72585 120.304 8.00284 120.091 8.35795C119.877 8.71307 119.771 9.12263 119.771 9.58665V16H117.2ZM128.729 16.1918C127.872 16.1918 127.105 15.9716 126.428 15.5312C125.75 15.0909 125.215 14.4517 124.822 13.6136C124.429 12.7756 124.233 11.7576 124.233 10.5597C124.233 9.34754 124.432 8.32481 124.83 7.49148C125.232 6.65341 125.774 6.02131 126.456 5.59517C127.138 5.1643 127.898 4.94886 128.736 4.94886C129.375 4.94886 129.901 5.05777 130.312 5.27557C130.724 5.48864 131.051 5.74669 131.293 6.04972C131.534 6.34801 131.721 6.62973 131.854 6.89489H131.96V1.45455H134.538V16H132.01V14.2812H131.854C131.721 14.5464 131.529 14.8281 131.278 15.1264C131.027 15.42 130.696 15.6709 130.284 15.8793C129.872 16.0876 129.354 16.1918 128.729 16.1918ZM129.446 14.0824C129.991 14.0824 130.455 13.9356 130.838 13.642C131.222 13.3437 131.513 12.9295 131.712 12.3991C131.911 11.8688 132.01 11.2509 132.01 10.5455C132.01 9.83996 131.911 9.2268 131.712 8.70597C131.518 8.18513 131.229 7.7803 130.845 7.49148C130.466 7.20265 130 7.05824 129.446 7.05824C128.873 7.05824 128.395 7.20739 128.011 7.50568C127.628 7.80398 127.339 8.21591 127.145 8.74148C126.951 9.26705 126.854 9.86837 126.854 10.5455C126.854 11.2273 126.951 11.8357 127.145 12.3707C127.344 12.901 127.635 13.3201 128.018 13.6278C128.407 13.9309 128.883 14.0824 129.446 14.0824ZM144.231 11.4119V5.09091H146.802V16H144.309V14.0611H144.196C143.949 14.6719 143.545 15.1714 142.981 15.5597C142.422 15.9479 141.734 16.142 140.914 16.142C140.199 16.142 139.567 15.9834 139.018 15.6662C138.474 15.3442 138.047 14.8778 137.74 14.267C137.432 13.6515 137.278 12.9081 137.278 12.0369V5.09091H139.849V11.6392C139.849 12.3305 140.038 12.8797 140.417 13.2869C140.796 13.6941 141.293 13.8977 141.909 13.8977C142.288 13.8977 142.654 13.8054 143.01 13.6207C143.365 13.4361 143.656 13.1615 143.883 12.7969C144.115 12.4276 144.231 11.9659 144.231 11.4119ZM149.446 16V5.09091H151.903V6.9446H152.031C152.259 6.3196 152.635 5.83191 153.161 5.48153C153.686 5.12642 154.313 4.94886 155.043 4.94886C155.781 4.94886 156.404 5.12879 156.911 5.48864C157.422 5.84375 157.782 6.32907 157.99 6.9446H158.104C158.345 6.33854 158.752 5.85559 159.325 5.49574C159.903 5.13116 160.587 4.94886 161.378 4.94886C162.382 4.94886 163.201 5.2661 163.835 5.90057C164.47 6.53504 164.787 7.4607 164.787 8.67756V16H162.209V9.07528C162.209 8.3982 162.029 7.90341 161.669 7.59091C161.309 7.27367 160.869 7.11506 160.348 7.11506C159.728 7.11506 159.242 7.30919 158.892 7.69744C158.546 8.08097 158.374 8.58049 158.374 9.19602V16H155.852V8.96875C155.852 8.4053 155.682 7.95549 155.341 7.61932C155.005 7.28314 154.564 7.11506 154.02 7.11506C153.651 7.11506 153.314 7.20975 153.011 7.39915C152.708 7.58381 152.467 7.84659 152.287 8.1875C152.107 8.52367 152.017 8.91667 152.017 9.36648V16H149.446ZM172.225 16.2131C171.131 16.2131 170.186 15.9858 169.391 15.5312C168.6 15.072 167.992 14.4233 167.566 13.5852C167.14 12.7424 166.926 11.7505 166.926 10.6094C166.926 9.48722 167.14 8.50237 167.566 7.65483C167.997 6.80256 168.598 6.13968 169.37 5.66619C170.141 5.18797 171.048 4.94886 172.09 4.94886C172.762 4.94886 173.397 5.05777 173.993 5.27557C174.595 5.48864 175.125 5.82008 175.584 6.26989C176.048 6.7197 176.413 7.29261 176.678 7.98864C176.943 8.67992 177.076 9.50379 177.076 10.4602V11.2486H168.134V9.51562H174.611C174.606 9.0232 174.5 8.58523 174.292 8.2017C174.083 7.81345 173.792 7.50805 173.418 7.28551C173.049 7.06297 172.618 6.9517 172.125 6.9517C171.6 6.9517 171.138 7.07955 170.74 7.33523C170.343 7.58617 170.033 7.91761 169.81 8.32955C169.592 8.73674 169.481 9.18419 169.476 9.67188V11.1847C169.476 11.8191 169.592 12.3636 169.824 12.8182C170.056 13.268 170.381 13.6136 170.797 13.8551C171.214 14.0919 171.702 14.2102 172.26 14.2102C172.634 14.2102 172.973 14.1581 173.276 14.054C173.579 13.9451 173.842 13.7865 174.064 13.5781C174.287 13.3698 174.455 13.1117 174.569 12.804L176.969 13.0739C176.818 13.7083 176.529 14.2623 176.103 14.7358C175.681 15.2045 175.141 15.5691 174.483 15.8295C173.825 16.0852 173.072 16.2131 172.225 16.2131ZM189.254 16H184.325V1.45455H189.354C190.798 1.45455 192.038 1.74574 193.075 2.32812C194.117 2.90578 194.917 3.73674 195.476 4.82102C196.035 5.9053 196.314 7.20265 196.314 8.71307C196.314 10.2282 196.032 11.5303 195.469 12.6193C194.91 13.7083 194.103 14.544 193.047 15.1264C191.996 15.7088 190.732 16 189.254 16ZM186.96 13.7202H189.126C190.14 13.7202 190.985 13.5355 191.662 13.1662C192.339 12.7921 192.848 12.2358 193.189 11.4972C193.53 10.7538 193.7 9.82576 193.7 8.71307C193.7 7.60038 193.53 6.67708 193.189 5.94318C192.848 5.20455 192.344 4.65294 191.676 4.28835C191.013 3.91903 190.189 3.73438 189.205 3.73438H186.96V13.7202ZM198.704 16V5.09091H201.275V16H198.704ZM199.996 3.54261C199.589 3.54261 199.239 3.40767 198.945 3.13778C198.652 2.86316 198.505 2.53409 198.505 2.15057C198.505 1.76231 198.652 1.43324 198.945 1.16335C199.239 0.88873 199.589 0.75142 199.996 0.75142C200.408 0.75142 200.759 0.88873 201.048 1.16335C201.341 1.43324 201.488 1.76231 201.488 2.15057C201.488 2.53409 201.341 2.86316 201.048 3.13778C200.759 3.40767 200.408 3.54261 199.996 3.54261ZM208.663 20.3182C207.74 20.3182 206.947 20.1927 206.284 19.9418C205.621 19.6955 205.088 19.3641 204.686 18.9474C204.283 18.5308 204.004 18.0691 203.848 17.5625L206.163 17.0014C206.267 17.2145 206.419 17.4252 206.618 17.6335C206.816 17.8466 207.084 18.0218 207.42 18.1591C207.761 18.3011 208.19 18.3722 208.706 18.3722C209.435 18.3722 210.038 18.1946 210.517 17.8395C210.995 17.4891 211.234 16.9115 211.234 16.1065V14.0398H211.106C210.974 14.3049 210.779 14.5772 210.524 14.8565C210.273 15.1359 209.939 15.3703 209.522 15.5597C209.11 15.7491 208.592 15.8438 207.967 15.8438C207.129 15.8438 206.369 15.6473 205.687 15.2543C205.01 14.8565 204.47 14.2647 204.068 13.4787C203.67 12.688 203.471 11.6984 203.471 10.5099C203.471 9.31203 203.67 8.30114 204.068 7.47727C204.47 6.64867 205.012 6.02131 205.694 5.59517C206.376 5.1643 207.136 4.94886 207.974 4.94886C208.613 4.94886 209.139 5.05777 209.551 5.27557C209.967 5.48864 210.299 5.74669 210.545 6.04972C210.791 6.34801 210.978 6.62973 211.106 6.89489H211.248V5.09091H213.784V16.1776C213.784 17.1103 213.561 17.8821 213.116 18.4929C212.671 19.1037 212.063 19.5606 211.291 19.8636C210.519 20.1667 209.643 20.3182 208.663 20.3182ZM208.684 13.8267C209.229 13.8267 209.693 13.6941 210.076 13.429C210.46 13.1638 210.751 12.7827 210.95 12.2855C211.149 11.7884 211.248 11.1918 211.248 10.4957C211.248 9.80919 211.149 9.20786 210.95 8.69176C210.756 8.17566 210.467 7.77557 210.083 7.49148C209.705 7.20265 209.238 7.05824 208.684 7.05824C208.111 7.05824 207.633 7.20739 207.25 7.50568C206.866 7.80398 206.577 8.21354 206.383 8.73438C206.189 9.25047 206.092 9.83759 206.092 10.4957C206.092 11.1634 206.189 11.7481 206.383 12.25C206.582 12.7472 206.873 13.1354 207.257 13.4148C207.645 13.6894 208.121 13.8267 208.684 13.8267ZM216.419 16V5.09091H218.99V16H216.419ZM217.711 3.54261C217.304 3.54261 216.954 3.40767 216.66 3.13778C216.367 2.86316 216.22 2.53409 216.22 2.15057C216.22 1.76231 216.367 1.43324 216.66 1.16335C216.954 0.88873 217.304 0.75142 217.711 0.75142C218.123 0.75142 218.474 0.88873 218.762 1.16335C219.056 1.43324 219.203 1.76231 219.203 2.15057C219.203 2.53409 219.056 2.86316 218.762 3.13778C218.474 3.40767 218.123 3.54261 217.711 3.54261ZM227.081 5.09091V7.07955H220.81V5.09091H227.081ZM222.358 2.47727H224.929V12.7188C224.929 13.0644 224.981 13.3295 225.085 13.5142C225.194 13.6941 225.336 13.8172 225.511 13.8835C225.687 13.9498 225.881 13.983 226.094 13.983C226.255 13.983 226.402 13.9711 226.534 13.9474C226.671 13.9238 226.776 13.9025 226.847 13.8835L227.28 15.8935C227.143 15.9408 226.946 15.9929 226.69 16.0497C226.439 16.1065 226.132 16.1397 225.767 16.1491C225.123 16.1681 224.543 16.071 224.027 15.858C223.511 15.6402 223.101 15.304 222.798 14.8494C222.5 14.3949 222.353 13.8267 222.358 13.1449V2.47727ZM232.37 16.2202C231.679 16.2202 231.056 16.0971 230.502 15.8509C229.953 15.5999 229.518 15.2306 229.196 14.7429C228.878 14.2552 228.72 13.6539 228.72 12.9389C228.72 12.3234 228.833 11.8144 229.061 11.4119C229.288 11.0095 229.598 10.6875 229.991 10.446C230.384 10.2045 230.827 10.0223 231.319 9.89915C231.816 9.77131 232.33 9.67898 232.86 9.62216C233.5 9.55587 234.018 9.49669 234.416 9.4446C234.814 9.38778 235.102 9.30256 235.282 9.18892C235.467 9.07055 235.559 8.88826 235.559 8.64205V8.59943C235.559 8.06439 235.401 7.65009 235.083 7.35653C234.766 7.06297 234.309 6.91619 233.713 6.91619C233.083 6.91619 232.583 7.0535 232.214 7.32812C231.85 7.60275 231.603 7.92708 231.475 8.30114L229.075 7.96023C229.264 7.29735 229.577 6.74337 230.012 6.2983C230.448 5.84848 230.981 5.51231 231.61 5.28977C232.24 5.0625 232.936 4.94886 233.699 4.94886C234.224 4.94886 234.747 5.01042 235.268 5.13352C235.789 5.25663 236.265 5.46023 236.696 5.74432C237.127 6.02367 237.472 6.40483 237.733 6.88778C237.998 7.37074 238.13 7.97443 238.13 8.69886V16H235.659V14.5014H235.574C235.417 14.8045 235.197 15.0885 234.913 15.3537C234.634 15.6141 234.281 15.8248 233.855 15.9858C233.433 16.142 232.939 16.2202 232.37 16.2202ZM233.038 14.331C233.554 14.331 234.002 14.2292 234.38 14.0256C234.759 13.8172 235.05 13.5426 235.254 13.2017C235.462 12.8608 235.566 12.4891 235.566 12.0866V10.8011C235.486 10.8674 235.349 10.929 235.154 10.9858C234.965 11.0426 234.752 11.0923 234.515 11.1349C234.279 11.1776 234.044 11.2154 233.812 11.2486C233.58 11.2817 233.379 11.3101 233.208 11.3338C232.825 11.3859 232.482 11.4711 232.179 11.5895C231.876 11.7079 231.636 11.8736 231.461 12.0866C231.286 12.295 231.199 12.5649 231.199 12.8963C231.199 13.3698 231.371 13.7273 231.717 13.9688C232.063 14.2102 232.503 14.331 233.038 14.331ZM243.287 1.45455V16H240.716V1.45455H243.287Z" fill="black"/>
</svg>
