<svg width="168" height="39" viewBox="0 0 168 39" fill="none" xmlns="http://www.w3.org/2000/svg">
<path d="M1.76136 31V7.72727H17.9886V12.2955H7.38636V17.0682H17.1591V21.6477H7.38636V26.4318H17.9886V31H1.76136ZM27.0682 21.0455V31H21.5114V13.5455H26.7955V16.75H26.9886C27.375 15.6818 28.0341 14.8447 28.9659 14.2386C29.8977 13.625 31.0076 13.3182 32.2955 13.3182C33.5227 13.3182 34.5871 13.5947 35.4886 14.1477C36.3977 14.6932 37.1023 15.4583 37.6023 16.4432C38.1098 17.4205 38.3598 18.5644 38.3523 19.875V31H32.7955V20.9659C32.803 19.9962 32.5568 19.2386 32.0568 18.6932C31.5644 18.1477 30.8788 17.875 30 17.875C29.4167 17.875 28.9015 18.0038 28.4545 18.2614C28.0152 18.5114 27.6742 18.8712 27.4318 19.3409C27.197 19.8106 27.0758 20.3788 27.0682 21.0455ZM49.929 37.9091C48.2699 37.9091 46.8494 37.678 45.6676 37.2159C44.4858 36.7538 43.5578 36.1212 42.8835 35.3182C42.2093 34.5152 41.804 33.6061 41.6676 32.5909L46.929 32.2955C47.0275 32.6515 47.2093 32.9621 47.4744 33.2273C47.7472 33.4924 48.0994 33.697 48.5312 33.8409C48.9706 33.9848 49.4858 34.0568 50.0767 34.0568C51.0085 34.0568 51.7775 33.8295 52.3835 33.375C52.9972 32.928 53.304 32.1439 53.304 31.0227V27.9545H53.1108C52.8911 28.4924 52.5578 28.9735 52.1108 29.3977C51.6638 29.822 51.107 30.1553 50.4403 30.3977C49.7813 30.6402 49.0237 30.7614 48.1676 30.7614C46.8949 30.7614 45.7282 30.4659 44.6676 29.875C43.6146 29.2765 42.7699 28.3523 42.1335 27.1023C41.5047 25.8447 41.1903 24.2273 41.1903 22.25C41.1903 20.2121 41.5161 18.5341 42.1676 17.2159C42.8191 15.8902 43.6714 14.9091 44.7244 14.2727C45.785 13.6364 46.9252 13.3182 48.1449 13.3182C49.0616 13.3182 49.8456 13.4773 50.4972 13.7955C51.1563 14.1061 51.6979 14.5076 52.1222 15C52.5464 15.4924 52.8684 16.0038 53.0881 16.5341H53.2472V13.5455H58.7812V31.0682C58.7812 32.5455 58.41 33.7917 57.6676 34.8068C56.9252 35.822 55.8873 36.5909 54.554 37.1136C53.2206 37.6439 51.679 37.9091 49.929 37.9091ZM50.0994 26.7159C50.7737 26.7159 51.3494 26.5379 51.8267 26.1818C52.304 25.8258 52.6714 25.3144 52.929 24.6477C53.1866 23.9811 53.3153 23.1818 53.3153 22.25C53.3153 21.303 53.1866 20.4886 52.929 19.8068C52.679 19.1174 52.3116 18.5871 51.8267 18.2159C51.3494 17.8447 50.7737 17.6591 50.0994 17.6591C49.41 17.6591 48.8267 17.8485 48.3494 18.2273C47.8722 18.6061 47.5085 19.1402 47.2585 19.8295C47.0161 20.5114 46.8949 21.3182 46.8949 22.25C46.8949 23.1818 47.0199 23.9811 47.2699 24.6477C47.5199 25.3144 47.8797 25.8258 48.3494 26.1818C48.8267 26.5379 49.41 26.7159 50.0994 26.7159ZM67.8807 7.72727V31H62.3239V7.72727H67.8807ZM71.4176 31V13.5455H76.9744V31H71.4176ZM74.2017 11.5114C73.4214 11.5114 72.7509 11.2538 72.1903 10.7386C71.6297 10.2159 71.3494 9.58712 71.3494 8.85227C71.3494 8.125 71.6297 7.50379 72.1903 6.98864C72.7509 6.46591 73.4214 6.20454 74.2017 6.20454C74.9896 6.20454 75.66 6.46591 76.2131 6.98864C76.7737 7.50379 77.054 8.125 77.054 8.85227C77.054 9.58712 76.7737 10.2159 76.2131 10.7386C75.66 11.2538 74.9896 11.5114 74.2017 11.5114ZM95.75 18.875L90.6477 19.0114C90.5947 18.6477 90.4508 18.3258 90.2159 18.0455C89.9811 17.7576 89.6742 17.5341 89.2955 17.375C88.9242 17.2083 88.4924 17.125 88 17.125C87.3561 17.125 86.8068 17.2538 86.3523 17.5114C85.9053 17.7689 85.6856 18.1174 85.6932 18.5568C85.6856 18.8977 85.822 19.1932 86.1023 19.4432C86.3902 19.6932 86.9015 19.8939 87.6364 20.0455L91 20.6818C92.7424 21.0152 94.0379 21.5682 94.8864 22.3409C95.7424 23.1136 96.1742 24.1364 96.1818 25.4091C96.1742 26.6061 95.8182 27.6477 95.1136 28.5341C94.4167 29.4205 93.4621 30.1098 92.25 30.6023C91.0379 31.0871 89.6515 31.3295 88.0909 31.3295C85.5985 31.3295 83.6326 30.8182 82.1932 29.7955C80.7614 28.7652 79.9432 27.3864 79.7386 25.6591L85.2273 25.5227C85.3485 26.1591 85.6629 26.6439 86.1705 26.9773C86.678 27.3106 87.3258 27.4773 88.1136 27.4773C88.8258 27.4773 89.4053 27.3447 89.8523 27.0795C90.2992 26.8144 90.5265 26.4621 90.5341 26.0227C90.5265 25.6288 90.3523 25.3144 90.0114 25.0795C89.6705 24.8371 89.1364 24.6477 88.4091 24.5114L85.3636 23.9318C83.6136 23.6136 82.3106 23.0265 81.4545 22.1705C80.5985 21.3068 80.1742 20.2083 80.1818 18.875C80.1742 17.7083 80.4848 16.7121 81.1136 15.8864C81.7424 15.053 82.6364 14.4167 83.7955 13.9773C84.9545 13.5379 86.322 13.3182 87.8977 13.3182C90.2614 13.3182 92.125 13.8144 93.4886 14.8068C94.8523 15.7917 95.6061 17.1477 95.75 18.875ZM104.474 21.0455V31H98.9176V7.72727H104.293V16.75H104.486C104.88 15.6742 105.524 14.8333 106.418 14.2273C107.319 13.6212 108.421 13.3182 109.724 13.3182C110.952 13.3182 112.02 13.5909 112.929 14.1364C113.838 14.6742 114.543 15.4356 115.043 16.4205C115.55 17.4053 115.8 18.5568 115.793 19.875V31H110.236V20.9659C110.243 19.9962 110.001 19.2386 109.509 18.6932C109.016 18.1477 108.323 17.875 107.429 17.875C106.846 17.875 106.33 18.0038 105.884 18.2614C105.444 18.5114 105.099 18.8712 104.849 19.3409C104.607 19.8106 104.482 20.3788 104.474 21.0455Z" fill="white"/>
<g clip-path="url(#clip0_103_32)">
<path d="M123 8.00327H168V32.0002H123V8.00327Z" fill="white"/>
<path d="M123 8.00327H168V9.84989H123V8.00327ZM123 11.695H168V13.5416H123V11.695ZM123 15.3882H168V17.2349H123V15.3882ZM123 19.08H168V20.9266H123V19.08ZM123 22.7717H168V24.6183H123V22.7717ZM123 26.4634H168V28.31H123V26.4634ZM123 30.1551H168V32.0017H123V30.1551Z" fill="#BF0A30"/>
<path d="M123 8H141V20.9218H123V8Z" fill="#002868"/>
<path d="M124.703 9.20068L124.539 8.69001L124.377 9.20068H123.846L124.277 9.51681L124.112 10.0275L124.541 9.70983L124.971 10.0275L124.806 9.51681L125.234 9.20068H124.703ZM127.688 9.20068L127.524 8.69001L127.361 9.20068H126.831L127.26 9.51529L127.095 10.026L127.524 9.70831L127.953 10.026L127.79 9.51529L128.217 9.20068H127.688ZM130.673 9.20068L130.509 8.69001L130.346 9.20068H129.815L130.245 9.51681L130.08 10.026L130.509 9.70831L130.938 10.026L130.775 9.51529L131.202 9.20068H130.673ZM133.656 9.20068L133.493 8.69001L133.329 9.20068H132.798L133.229 9.51681L133.064 10.0275L133.493 9.70983L133.923 10.0275L133.758 9.51681L134.187 9.20068H133.656ZM136.742 9.51529L137.172 9.20068H136.641L136.478 8.69001L136.313 9.20068H135.783L136.212 9.51681L136.049 10.0275L136.478 9.70983L136.907 10.0275L136.742 9.51529ZM139.727 9.51529L140.156 9.19916H139.626L139.463 8.68849L139.298 9.20068H138.767L139.197 9.51681L139.034 10.0275L139.463 9.70983L139.892 10.0275L139.727 9.51529ZM126.032 9.98493L125.868 10.4956H125.339L125.768 10.8117L125.604 11.3224L126.033 11.0063L126.462 11.3224L126.299 10.8117L126.729 10.4956H126.195L126.032 9.98493ZM129.18 10.4956L129.017 9.98493L128.853 10.4956H128.324L128.753 10.8117L128.589 11.3224L129.018 11.0063L129.447 11.3224L129.284 10.8117L129.713 10.4956H129.18ZM132.164 10.4956L132.002 9.98493L131.838 10.4956H131.307L131.738 10.8117L131.573 11.3224L132.003 11.0063L132.432 11.3224L132.269 10.8117L132.698 10.4956H132.164ZM135.149 10.4956L134.985 9.98493L134.823 10.4956H134.292L134.721 10.8117L134.558 11.3224L134.987 11.0063L135.416 11.3224L135.252 10.8117L135.683 10.4956H135.149ZM138.132 10.4956L137.969 9.98493L137.805 10.4956H137.276L137.705 10.8117L137.541 11.3224L137.97 11.0063L138.399 11.3224L138.236 10.8117L138.665 10.4956H138.132ZM124.703 11.792L124.539 11.2798L124.377 11.792L123.846 11.7905L124.277 12.1066L124.112 12.6188L124.541 12.3012L124.971 12.6188L124.806 12.1066L125.237 11.7905L124.703 11.792ZM127.688 11.792L127.524 11.2798L127.361 11.792L126.831 11.7905L127.26 12.1066L127.095 12.6188L127.524 12.3012L127.953 12.6188L127.79 12.1066L128.219 11.7905L127.688 11.792ZM130.673 11.792L130.509 11.2798L130.346 11.792L129.815 11.7905L130.245 12.1066L130.08 12.6188L130.509 12.3012L130.938 12.6188L130.775 12.1066L131.204 11.7905L130.673 11.792ZM133.656 11.792L133.493 11.2798L133.331 11.792L132.8 11.7905L133.23 12.1066L133.065 12.6188L133.494 12.3012L133.925 12.6188L133.76 12.1066L134.19 11.7905L133.656 11.792ZM136.64 11.792L136.476 11.2798L136.313 11.792L135.783 11.7905L136.212 12.1066L136.049 12.6188L136.478 12.3012L136.907 12.6188L136.743 12.1066L137.174 11.7905L136.64 11.792ZM139.727 12.1066L140.156 11.7905L139.626 11.792L139.463 11.2798L139.299 11.792L138.768 11.7905L139.199 12.1066L139.035 12.6188L139.464 12.3012L139.893 12.6188L139.727 12.1066ZM126.032 12.5109L125.868 13.0216H125.339L125.768 13.3377L125.604 13.8484L126.033 13.5323L126.462 13.8484L126.299 13.3377L126.729 13.0216H126.195L126.032 12.5109ZM129.18 13.0216L129.017 12.5109L128.853 13.0216H128.324L128.753 13.3377L128.589 13.8484L129.018 13.5323L129.447 13.8484L129.284 13.3377L129.713 13.0216H129.18ZM132.164 13.0216L132.002 12.5109L131.838 13.0216H131.307L131.738 13.3377L131.573 13.8484L132.003 13.5323L132.432 13.8484L132.269 13.3377L132.698 13.0216H132.164ZM135.149 13.0216L134.985 12.5109L134.823 13.0216H134.292L134.721 13.3377L134.558 13.8484L134.987 13.5323L135.416 13.8484L135.252 13.3377L135.683 13.0216H135.149ZM138.132 13.0216L137.969 12.5109L137.805 13.0216H137.276L137.705 13.3377L137.541 13.8484L137.97 13.5323L138.399 13.8484L138.236 13.3377L138.665 13.0216H138.132ZM124.703 14.318L124.539 13.8058L124.377 14.318L123.846 14.3165L124.277 14.6326L124.11 15.1433L124.539 14.8272L124.97 15.1433L124.805 14.6326L125.235 14.3165L124.703 14.318ZM127.688 14.318L127.524 13.8058L127.361 14.318L126.831 14.3165L127.26 14.6326L127.095 15.1433L127.524 14.8272L127.953 15.1433L127.79 14.6326L128.219 14.3165L127.688 14.318ZM130.673 14.318L130.509 13.8058L130.346 14.318L129.815 14.3165L130.245 14.6326L130.08 15.1433L130.509 14.8272L130.938 15.1433L130.775 14.6326L131.204 14.3165L130.673 14.318ZM133.656 14.318L133.491 13.8058L133.329 14.318L132.798 14.3165L133.229 14.6326L133.064 15.1433L133.493 14.8272L133.923 15.1433L133.758 14.6326L134.189 14.3165L133.656 14.318ZM136.64 14.318L136.476 13.8058L136.313 14.318L135.783 14.3165L136.212 14.6326L136.049 15.1433L136.478 14.8272L136.905 15.1433L136.742 14.6326L137.172 14.3165L136.64 14.318ZM139.727 14.6326L140.156 14.3165L139.626 14.318L139.463 13.8058L139.299 14.318L138.768 14.3165L139.199 14.6326L139.035 15.1433L139.464 14.8272L139.89 15.1433L139.727 14.6326ZM126.032 15.0734L125.868 15.5841H125.339L125.768 15.9002L125.604 16.4109L126.033 16.0947L126.462 16.4109L126.299 15.9002L126.729 15.5841H126.195L126.032 15.0734ZM129.18 15.5841L129.017 15.0734L128.853 15.5841H128.324L128.753 15.9002L128.589 16.4109L129.018 16.0947L129.447 16.4109L129.284 15.9002L129.713 15.5841H129.18ZM132.164 15.5841L132.002 15.0734L131.838 15.5841H131.307L131.738 15.9002L131.573 16.4109L132.003 16.0947L132.432 16.4109L132.269 15.9002L132.698 15.5841H132.164ZM135.149 15.5841L134.985 15.0734L134.822 15.5841H134.291L134.72 15.9002L134.556 16.4109L134.985 16.0947L135.414 16.4109L135.251 15.9002L135.681 15.5841H135.149ZM138.132 15.5841L137.969 15.0734L137.805 15.5841H137.276L137.705 15.9002L137.541 16.4109L137.97 16.0947L138.399 16.4109L138.236 15.9002L138.665 15.5841H138.132ZM124.703 16.882L124.539 16.3698L124.377 16.882L123.846 16.8805L124.277 17.1951L124.112 17.7073L124.541 17.3897L124.971 17.7073L124.806 17.1951L125.237 16.879L124.703 16.882ZM127.688 16.882L127.524 16.3698L127.361 16.882L126.831 16.8805L127.26 17.1951L127.095 17.7073L127.524 17.3897L127.953 17.7073L127.788 17.1951L128.217 16.879L127.688 16.882ZM130.673 16.882L130.509 16.3698L130.346 16.882L129.815 16.8805L130.245 17.1966L130.08 17.7073L130.509 17.3897L130.938 17.7073L130.773 17.1951L131.202 16.879L130.673 16.882ZM133.656 16.882L133.493 16.3698L133.331 16.882L132.8 16.8805L133.23 17.1966L133.065 17.7088L133.494 17.3912L133.925 17.7088L133.76 17.1966L134.19 16.8805L133.656 16.882ZM136.64 16.882L136.476 16.3698L136.313 16.882L135.783 16.8805L136.212 17.1966L136.049 17.7088L136.478 17.3912L136.907 17.7088L136.742 17.1951L137.172 16.879L136.64 16.882ZM139.727 17.1951L140.156 16.879L139.626 16.8805L139.463 16.3683L139.299 16.8805L138.768 16.879L139.199 17.1951L139.035 17.7073L139.464 17.3897L139.893 17.7073L139.727 17.1951ZM126.032 17.5994L125.868 18.1101H125.339L125.768 18.4262L125.604 18.9369L126.033 18.6207L126.462 18.9369L126.296 18.4262L126.726 18.1101H126.195L126.032 17.5994ZM129.18 18.1101L129.017 17.5994L128.853 18.1101H128.324L128.753 18.4262L128.589 18.9369L129.018 18.6207L129.447 18.9369L129.281 18.4262L129.71 18.1101H129.18ZM132.164 18.1101L132.002 17.5994L131.838 18.1101H131.307L131.738 18.4262L131.573 18.9369L132.003 18.6207L132.432 18.9369L132.266 18.4262L132.695 18.1101H132.164ZM135.149 18.1101L134.985 17.5994L134.823 18.1101H134.292L134.721 18.4262L134.558 18.9369L134.987 18.6207L135.416 18.9369L135.249 18.4262L135.68 18.1101H135.149ZM138.132 18.1101L137.969 17.5994L137.805 18.1101H137.276L137.705 18.4262L137.541 18.9369L137.97 18.6207L138.399 18.9369L138.236 18.4262L138.665 18.1101H138.132ZM124.703 19.408L124.539 18.8958L124.377 19.408L123.846 19.4065L124.277 19.7226L124.112 20.2333L124.541 19.9172L124.971 20.2333L124.806 19.7226L125.237 19.4065L124.703 19.408ZM127.688 19.408L127.524 18.8958L127.361 19.408L126.831 19.4065L127.26 19.7226L127.095 20.2318L127.524 19.9156L127.953 20.2318L127.79 19.7211L128.219 19.405L127.688 19.408ZM130.673 19.408L130.509 18.8958L130.346 19.408L129.815 19.4065L130.245 19.7226L130.08 20.2318L130.509 19.9156L130.938 20.2318L130.775 19.7211L131.204 19.405L130.673 19.408ZM133.656 19.408L133.493 18.8958L133.331 19.408L132.8 19.4065L133.23 19.7226L133.065 20.2333L133.494 19.9172L133.925 20.2333L133.76 19.7226L134.19 19.4065L133.656 19.408ZM136.64 19.408L136.476 18.8958L136.313 19.408L135.783 19.4065L136.212 19.7226L136.049 20.2333L136.478 19.9172L136.907 20.2333L136.743 19.7226L137.174 19.4065L136.64 19.408ZM139.727 19.7211L140.156 19.405L139.626 19.4065L139.463 18.8943L139.299 19.4065L138.768 19.405L139.199 19.7211L139.035 20.2318L139.464 19.9156L139.893 20.2318L139.727 19.7211Z" fill="white"/>
</g>
<defs>
<clipPath id="clip0_103_32">
<rect width="45" height="24" fill="white" transform="translate(123 8)"/>
</clipPath>
</defs>
</svg>
