<svg width="270" height="37" viewBox="0 0 270 37" fill="none" xmlns="http://www.w3.org/2000/svg">
<rect x="0.500671" width="269.001" height="37" rx="18.5" fill="#0D423B"/>
<path d="M13.8561 17.707H19.3054C19.7585 17.707 20.153 17.6055 20.489 17.4023C20.8327 17.1914 21.0983 16.8945 21.2858 16.5117C21.4811 16.1289 21.5788 15.6875 21.5788 15.1875C21.5788 14.6797 21.485 14.2344 21.2975 13.8516C21.11 13.4688 20.8444 13.1719 20.5007 12.9609C20.1569 12.75 19.7585 12.6445 19.3054 12.6445H13.8561V9.96094H19.2233C20.2624 9.96094 21.1765 10.1797 21.9655 10.6172C22.7546 11.0469 23.3679 11.6562 23.8054 12.4453C24.2429 13.2344 24.4616 14.1484 24.4616 15.1875C24.4616 16.2266 24.2429 17.1406 23.8054 17.9297C23.3679 18.7109 22.7546 19.3164 21.9655 19.7461C21.1765 20.1758 20.2624 20.3906 19.2233 20.3906H13.8561V17.707ZM12.5085 9.96094H15.3093V27H12.5085V9.96094ZM26.6413 14.8359H29.5593V27H26.6413V14.8359ZM33.4147 17.9648C33.2272 17.7617 32.9968 17.6094 32.7233 17.5078C32.4499 17.3984 32.1335 17.3438 31.7741 17.3438C31.071 17.3438 30.5241 17.5547 30.1335 17.9766C29.7507 18.3906 29.5593 18.9688 29.5593 19.7109L29.3132 16.957C29.6647 16.2305 30.1218 15.668 30.6843 15.2695C31.2546 14.8633 31.8796 14.6602 32.5593 14.6602C33.0905 14.6602 33.571 14.7422 34.0007 14.9062C34.4304 15.0625 34.8054 15.2969 35.1257 15.6094L33.4147 17.9648ZM41.4304 27.1758C40.3522 27.1758 39.4265 26.9688 38.653 26.5547C37.8874 26.1406 37.3015 25.5391 36.8952 24.75C36.4968 23.9531 36.2975 22.9961 36.2975 21.8789V19.8984C36.2975 18.7969 36.4968 17.8555 36.8952 17.0742C37.3015 16.2852 37.8874 15.6875 38.653 15.2812C39.4265 14.8672 40.3522 14.6602 41.4304 14.6602C42.5085 14.6602 43.4304 14.8672 44.196 15.2812C44.9694 15.6875 45.5554 16.2852 45.9538 17.0742C46.36 17.8555 46.5632 18.7969 46.5632 19.8984V21.9141C46.5632 23.0234 46.36 23.9727 45.9538 24.7617C45.5554 25.543 44.9694 26.1406 44.196 26.5547C43.4304 26.9688 42.5085 27.1758 41.4304 27.1758ZM41.4304 24.4922C42.1725 24.4922 42.7468 24.2695 43.153 23.8242C43.5593 23.3711 43.7624 22.7344 43.7624 21.9141V19.8984C43.7624 19.0859 43.5593 18.457 43.153 18.0117C42.7468 17.5664 42.1725 17.3438 41.4304 17.3438C40.6882 17.3438 40.114 17.5664 39.7077 18.0117C39.3015 18.457 39.0983 19.0859 39.0983 19.8984V21.9141C39.0983 22.7344 39.2975 23.3711 39.696 23.8242C40.1022 24.2695 40.6804 24.4922 41.4304 24.4922ZM48.0866 29.2617H49.1296C49.3874 29.2617 49.5866 29.1797 49.7272 29.0156C49.8679 28.8594 49.9382 28.6328 49.9382 28.3359V14.8359H52.739V28.7227C52.739 29.7461 52.4772 30.5391 51.9538 31.1016C51.4382 31.6641 50.7116 31.9453 49.7741 31.9453H48.0866V29.2617ZM49.9147 9.96094H52.7624V12.7617H49.9147V9.96094ZM61.2702 27.1758C60.1218 27.1758 59.1413 26.9648 58.3288 26.543C57.5163 26.1211 56.8952 25.5039 56.4655 24.6914C56.0358 23.8711 55.821 22.8828 55.821 21.7266V20.3555C55.821 19.1523 56.0241 18.125 56.4304 17.2734C56.8444 16.4219 57.4421 15.7734 58.2233 15.3281C59.0124 14.8828 59.9577 14.6602 61.0593 14.6602C62.0983 14.6602 62.985 14.9219 63.7194 15.4453C64.4616 15.9609 65.0241 16.7109 65.4069 17.6953C65.7975 18.6797 65.9929 19.8672 65.9929 21.2578V22.0547H57.7311V20.0039H63.3913L63.3796 19.875C63.3015 19.0234 63.0632 18.3633 62.6647 17.8945C62.2663 17.4258 61.7311 17.1914 61.0593 17.1914C60.2155 17.1914 59.5632 17.457 59.1022 17.9883C58.6413 18.5117 58.4108 19.2578 58.4108 20.2266V21.7734C58.4108 22.6953 58.6608 23.4062 59.1608 23.9062C59.6608 24.3984 60.364 24.6445 61.2702 24.6445C61.7311 24.6445 62.1843 24.5586 62.6296 24.3867C63.0827 24.207 63.489 23.9609 63.8483 23.6484L65.6765 25.3594C65.0593 25.9375 64.364 26.3867 63.5905 26.707C62.8249 27.0195 62.0515 27.1758 61.2702 27.1758ZM72.321 27.0586C71.2975 27.0586 70.5475 26.7891 70.071 26.25C69.5944 25.7031 69.3561 24.8984 69.3561 23.8359V11.2969H72.1569V23.4492C72.1569 23.7461 72.2155 23.9766 72.3327 24.1406C72.4499 24.2969 72.6218 24.375 72.8483 24.375H73.821V27.0586H72.321ZM68.1022 14.8359H73.821V17.2852H68.1022V14.8359ZM81.6491 27.1758C80.571 27.1758 79.6452 26.9688 78.8718 26.5547C78.1061 26.1406 77.5202 25.5391 77.114 24.75C76.7155 23.9531 76.5163 22.9961 76.5163 21.8789V19.8984C76.5163 18.7969 76.7155 17.8555 77.114 17.0742C77.5202 16.2852 78.1061 15.6875 78.8718 15.2812C79.6452 14.8672 80.571 14.6602 81.6491 14.6602C82.7272 14.6602 83.6491 14.8672 84.4147 15.2812C85.1882 15.6875 85.7741 16.2852 86.1725 17.0742C86.5788 17.8555 86.7819 18.7969 86.7819 19.8984V21.9141C86.7819 23.0234 86.5788 23.9727 86.1725 24.7617C85.7741 25.543 85.1882 26.1406 84.4147 26.5547C83.6491 26.9688 82.7272 27.1758 81.6491 27.1758ZM81.6491 24.4922C82.3913 24.4922 82.9655 24.2695 83.3718 23.8242C83.778 23.3711 83.9811 22.7344 83.9811 21.9141V19.8984C83.9811 19.0859 83.778 18.457 83.3718 18.0117C82.9655 17.5664 82.3913 17.3438 81.6491 17.3438C80.9069 17.3438 80.3327 17.5664 79.9265 18.0117C79.5202 18.457 79.3171 19.0859 79.3171 19.8984V21.9141C79.3171 22.7344 79.5163 23.3711 79.9147 23.8242C80.321 24.2695 80.8991 24.4922 81.6491 24.4922ZM96.6257 9.96094H99.6725L107.008 23.0742L106.727 23.3789V9.96094H109.446V26.9883H106.376L99.0632 14.0742L99.3444 13.7695V26.9883H96.6257V9.96094ZM117.977 27.1758C116.899 27.1758 115.973 26.9688 115.2 26.5547C114.434 26.1406 113.848 25.5391 113.442 24.75C113.044 23.9531 112.844 22.9961 112.844 21.8789V19.8984C112.844 18.7969 113.044 17.8555 113.442 17.0742C113.848 16.2852 114.434 15.6875 115.2 15.2812C115.973 14.8672 116.899 14.6602 117.977 14.6602C119.055 14.6602 119.977 14.8672 120.743 15.2812C121.516 15.6875 122.102 16.2852 122.501 17.0742C122.907 17.8555 123.11 18.7969 123.11 19.8984V21.9141C123.11 23.0234 122.907 23.9727 122.501 24.7617C122.102 25.543 121.516 26.1406 120.743 26.5547C119.977 26.9688 119.055 27.1758 117.977 27.1758ZM117.977 24.4922C118.719 24.4922 119.294 24.2695 119.7 23.8242C120.106 23.3711 120.309 22.7344 120.309 21.9141V19.8984C120.309 19.0859 120.106 18.457 119.7 18.0117C119.294 17.5664 118.719 17.3438 117.977 17.3438C117.235 17.3438 116.661 17.5664 116.255 18.0117C115.848 18.457 115.645 19.0859 115.645 19.8984V21.9141C115.645 22.7344 115.844 23.3711 116.243 23.8242C116.649 24.2695 117.227 24.4922 117.977 24.4922ZM137.712 9.96094H139.751L146.149 27H143.137L138.731 14.3086L134.325 27H131.313L137.712 9.96094ZM134.325 21.082H143.29V23.7656H134.325V21.082ZM154.997 9.96094H157.798V27H154.997V9.96094ZM152.055 27.1992C151.18 27.1992 150.43 27 149.805 26.6016C149.188 26.1953 148.716 25.6133 148.387 24.8555C148.067 24.0898 147.907 23.168 147.907 22.0898V19.7695C147.907 18.6914 148.067 17.7695 148.387 17.0039C148.708 16.2305 149.173 15.6445 149.782 15.2461C150.399 14.8398 151.137 14.6367 151.997 14.6367C152.684 14.6367 153.309 14.8281 153.872 15.2109C154.442 15.5938 154.899 16.1328 155.243 16.8281L154.997 19.418C154.997 18.9492 154.915 18.5508 154.751 18.2227C154.587 17.8945 154.348 17.6445 154.036 17.4727C153.723 17.3008 153.344 17.2148 152.899 17.2148C152.204 17.2148 151.665 17.4414 151.282 17.8945C150.899 18.3477 150.708 18.9805 150.708 19.793V22.0898C150.708 22.8945 150.899 23.5195 151.282 23.9648C151.665 24.4023 152.204 24.6211 152.899 24.6211C153.344 24.6211 153.723 24.5352 154.036 24.3633C154.348 24.1836 154.587 23.9297 154.751 23.6016C154.915 23.2734 154.997 22.8789 154.997 22.418L155.161 25.0898C154.919 25.7227 154.528 26.2344 153.989 26.625C153.458 27.0078 152.813 27.1992 152.055 27.1992ZM165.977 27.1758C164.899 27.1758 163.973 26.9688 163.2 26.5547C162.434 26.1406 161.848 25.5391 161.442 24.75C161.044 23.9531 160.844 22.9961 160.844 21.8789V19.8984C160.844 18.7969 161.044 17.8555 161.442 17.0742C161.848 16.2852 162.434 15.6875 163.2 15.2812C163.973 14.8672 164.899 14.6602 165.977 14.6602C167.055 14.6602 167.977 14.8672 168.743 15.2812C169.516 15.6875 170.102 16.2852 170.501 17.0742C170.907 17.8555 171.11 18.7969 171.11 19.8984V21.9141C171.11 23.0234 170.907 23.9727 170.501 24.7617C170.102 25.543 169.516 26.1406 168.743 26.5547C167.977 26.9688 167.055 27.1758 165.977 27.1758ZM165.977 24.4922C166.719 24.4922 167.294 24.2695 167.7 23.8242C168.106 23.3711 168.309 22.7344 168.309 21.9141V19.8984C168.309 19.0859 168.106 18.457 167.7 18.0117C167.294 17.5664 166.719 17.3438 165.977 17.3438C165.235 17.3438 164.661 17.5664 164.255 18.0117C163.848 18.457 163.645 19.0859 163.645 19.8984V21.9141C163.645 22.7344 163.844 23.3711 164.243 23.8242C164.649 24.2695 165.227 24.4922 165.977 24.4922ZM180.016 27.1758C179.282 27.1758 178.645 26.9961 178.106 26.6367C177.567 26.2695 177.169 25.7539 176.911 25.0898L177.075 22.4297C177.075 22.8906 177.157 23.2852 177.321 23.6133C177.485 23.9336 177.723 24.1797 178.036 24.3516C178.348 24.5234 178.727 24.6094 179.173 24.6094C179.868 24.6094 180.407 24.3906 180.79 23.9531C181.173 23.5156 181.364 22.8945 181.364 22.0898V19.8047C181.364 18.9844 181.173 18.3516 180.79 17.9062C180.407 17.4531 179.868 17.2266 179.173 17.2266C178.727 17.2266 178.348 17.3125 178.036 17.4844C177.723 17.6484 177.485 17.8945 177.321 18.2227C177.157 18.5508 177.075 18.9453 177.075 19.4062L176.829 16.8867C177.173 16.1758 177.626 15.6289 178.188 15.2461C178.758 14.8555 179.387 14.6602 180.075 14.6602C180.934 14.6602 181.669 14.8594 182.278 15.2578C182.895 15.6562 183.364 16.2422 183.684 17.0156C184.005 17.7812 184.165 18.707 184.165 19.793V22.0898C184.165 23.1602 184.001 24.0781 183.673 24.8438C183.352 25.6016 182.88 26.1797 182.255 26.5781C181.63 26.9766 180.883 27.1758 180.016 27.1758ZM174.274 9.96094H177.075V27H174.274V9.96094ZM192.426 27.1758C191.278 27.1758 190.298 26.9648 189.485 26.543C188.673 26.1211 188.051 25.5039 187.622 24.6914C187.192 23.8711 186.977 22.8828 186.977 21.7266V20.3555C186.977 19.1523 187.18 18.125 187.587 17.2734C188.001 16.4219 188.598 15.7734 189.38 15.3281C190.169 14.8828 191.114 14.6602 192.216 14.6602C193.255 14.6602 194.141 14.9219 194.876 15.4453C195.618 15.9609 196.18 16.7109 196.563 17.6953C196.954 18.6797 197.149 19.8672 197.149 21.2578V22.0547H188.887V20.0039H194.548L194.536 19.875C194.458 19.0234 194.219 18.3633 193.821 17.8945C193.423 17.4258 192.887 17.1914 192.216 17.1914C191.372 17.1914 190.719 17.457 190.258 17.9883C189.798 18.5117 189.567 19.2578 189.567 20.2266V21.7734C189.567 22.6953 189.817 23.4062 190.317 23.9062C190.817 24.3984 191.52 24.6445 192.426 24.6445C192.887 24.6445 193.341 24.5586 193.786 24.3867C194.239 24.207 194.645 23.9609 195.005 23.6484L196.833 25.3594C196.216 25.9375 195.52 26.3867 194.747 26.707C193.981 27.0195 193.208 27.1758 192.426 27.1758ZM211.071 19.7695L210.731 19.1953L205.141 9.96094H208.176L212.137 16.6641L212.559 17.3555L218.383 27H215.348L211.071 19.7695ZM211.036 16.8867L215.091 9.96094H218.126L212.489 19.3828L208.036 27H205.001L211.036 16.8867ZM222.344 24.3164H226.317C227.473 24.3164 228.368 24.0273 229.001 23.4492C229.641 22.8711 229.962 22.0508 229.962 20.9883V15.9727C229.962 14.9102 229.641 14.0898 229.001 13.5117C228.368 12.9336 227.473 12.6445 226.317 12.6445H222.344V9.96094H226.247C227.637 9.96094 228.825 10.1992 229.809 10.6758C230.801 11.1523 231.555 11.8477 232.071 12.7617C232.587 13.6758 232.844 14.7773 232.844 16.0664V20.8945C232.844 22.1523 232.591 23.2383 232.083 24.1523C231.575 25.0664 230.825 25.7695 229.833 26.2617C228.848 26.7539 227.649 27 226.235 27H222.344V24.3164ZM220.727 9.96094H223.528V27H220.727V9.96094Z" fill="#F1F5F9"/>
<path d="M247.55 17.2355L245.691 19.0456C244.929 19.7879 244.501 20.7947 244.501 21.8445C244.501 22.8943 244.929 23.9011 245.691 24.6434C246.454 25.3857 247.488 25.8027 248.566 25.8027C249.644 25.8027 250.678 25.3857 251.44 24.6434L253.917 22.2304C254.377 21.7827 254.72 21.2342 254.917 20.6308C255.114 20.0275 255.159 19.3869 255.049 18.7629C254.939 18.139 254.677 17.5498 254.285 17.0448C253.893 16.5398 253.382 16.1338 252.795 15.8608L252.001 16.6339C251.921 16.7126 251.851 16.8008 251.793 16.8965C252.246 17.0234 252.657 17.2632 252.986 17.5924C253.315 17.9215 253.55 18.3285 253.668 18.7732C253.786 19.2178 253.782 19.6847 253.658 20.1277C253.534 20.5707 253.293 20.9744 252.959 21.299L250.484 23.7106C249.975 24.2057 249.286 24.4839 248.567 24.4839C247.847 24.4839 247.158 24.2057 246.649 23.7106C246.141 23.2155 245.855 22.544 245.855 21.8438C245.855 21.1437 246.141 20.4721 246.649 19.977L247.724 18.9322C247.572 18.379 247.514 17.8069 247.55 17.2355Z" fill="#F1F5F9"/>
<path d="M250.085 14.7684C249.626 15.2161 249.283 15.7646 249.086 16.368C248.889 16.9713 248.844 17.6119 248.954 18.2358C249.063 18.8598 249.326 19.449 249.718 19.954C250.11 20.459 250.621 20.865 251.207 21.1379L252.257 20.1142C251.798 19.9942 251.379 19.7586 251.043 19.431C250.707 19.1035 250.465 18.6956 250.342 18.2482C250.219 17.8008 250.219 17.3298 250.342 16.8825C250.465 16.4352 250.707 16.0273 251.043 15.6998L253.519 13.2881C254.027 12.793 254.717 12.5149 255.436 12.5149C256.155 12.5149 256.845 12.793 257.353 13.2881C257.862 13.7833 258.148 14.4548 258.148 15.1549C258.148 15.8551 257.862 16.5266 257.353 17.0217L256.279 18.0666C256.431 18.6207 256.489 19.1946 256.452 19.7646L258.311 17.9545C259.074 17.2122 259.502 16.2054 259.502 15.1556C259.502 14.1058 259.074 13.099 258.311 12.3567C257.549 11.6144 256.515 11.1974 255.437 11.1974C254.359 11.1974 253.325 11.6144 252.562 12.3567L250.085 14.7684Z" fill="#F1F5F9"/>
</svg>
