<svg width="233" height="37" viewBox="0 0 233 37" fill="none" xmlns="http://www.w3.org/2000/svg">
<rect x="0.500671" width="232.001" height="37" rx="18.5" fill="#0D423B"/>
<path d="M14.0827 17.707H19.5319C19.985 17.707 20.3796 17.6055 20.7155 17.4023C21.0593 17.1914 21.3249 16.8945 21.5124 16.5117C21.7077 16.1289 21.8054 15.6875 21.8054 15.1875C21.8054 14.6797 21.7116 14.2344 21.5241 13.8516C21.3366 13.4688 21.071 13.1719 20.7272 12.9609C20.3835 12.75 19.985 12.6445 19.5319 12.6445H14.0827V9.96094H19.4499C20.489 9.96094 21.403 10.1797 22.1921 10.6172C22.9811 11.0469 23.5944 11.6562 24.0319 12.4453C24.4694 13.2344 24.6882 14.1484 24.6882 15.1875C24.6882 16.2266 24.4694 17.1406 24.0319 17.9297C23.5944 18.7109 22.9811 19.3164 22.1921 19.7461C21.403 20.1758 20.489 20.3906 19.4499 20.3906H14.0827V17.707ZM12.735 9.96094H15.5358V27H12.735V9.96094ZM26.8679 14.8359H29.7858V27H26.8679V14.8359ZM33.6413 17.9648C33.4538 17.7617 33.2233 17.6094 32.9499 17.5078C32.6765 17.3984 32.36 17.3438 32.0007 17.3438C31.2975 17.3438 30.7507 17.5547 30.36 17.9766C29.9772 18.3906 29.7858 18.9688 29.7858 19.7109L29.5397 16.957C29.8913 16.2305 30.3483 15.668 30.9108 15.2695C31.4811 14.8633 32.1061 14.6602 32.7858 14.6602C33.3171 14.6602 33.7975 14.7422 34.2272 14.9062C34.6569 15.0625 35.0319 15.2969 35.3522 15.6094L33.6413 17.9648ZM41.6569 27.1758C40.5788 27.1758 39.653 26.9688 38.8796 26.5547C38.114 26.1406 37.528 25.5391 37.1218 24.75C36.7233 23.9531 36.5241 22.9961 36.5241 21.8789V19.8984C36.5241 18.7969 36.7233 17.8555 37.1218 17.0742C37.528 16.2852 38.114 15.6875 38.8796 15.2812C39.653 14.8672 40.5788 14.6602 41.6569 14.6602C42.735 14.6602 43.6569 14.8672 44.4225 15.2812C45.196 15.6875 45.7819 16.2852 46.1804 17.0742C46.5866 17.8555 46.7897 18.7969 46.7897 19.8984V21.9141C46.7897 23.0234 46.5866 23.9727 46.1804 24.7617C45.7819 25.543 45.196 26.1406 44.4225 26.5547C43.6569 26.9688 42.735 27.1758 41.6569 27.1758ZM41.6569 24.4922C42.3991 24.4922 42.9733 24.2695 43.3796 23.8242C43.7858 23.3711 43.989 22.7344 43.989 21.9141V19.8984C43.989 19.0859 43.7858 18.457 43.3796 18.0117C42.9733 17.5664 42.3991 17.3438 41.6569 17.3438C40.9147 17.3438 40.3405 17.5664 39.9343 18.0117C39.528 18.457 39.3249 19.0859 39.3249 19.8984V21.9141C39.3249 22.7344 39.5241 23.3711 39.9225 23.8242C40.3288 24.2695 40.9069 24.4922 41.6569 24.4922ZM48.3132 29.2617H49.3561C49.614 29.2617 49.8132 29.1797 49.9538 29.0156C50.0944 28.8594 50.1647 28.6328 50.1647 28.3359V14.8359H52.9655V28.7227C52.9655 29.7461 52.7038 30.5391 52.1804 31.1016C51.6647 31.6641 50.9382 31.9453 50.0007 31.9453H48.3132V29.2617ZM50.1413 9.96094H52.989V12.7617H50.1413V9.96094ZM61.4968 27.1758C60.3483 27.1758 59.3679 26.9648 58.5554 26.543C57.7429 26.1211 57.1218 25.5039 56.6921 24.6914C56.2624 23.8711 56.0475 22.8828 56.0475 21.7266V20.3555C56.0475 19.1523 56.2507 18.125 56.6569 17.2734C57.071 16.4219 57.6686 15.7734 58.4499 15.3281C59.239 14.8828 60.1843 14.6602 61.2858 14.6602C62.3249 14.6602 63.2116 14.9219 63.946 15.4453C64.6882 15.9609 65.2507 16.7109 65.6335 17.6953C66.0241 18.6797 66.2194 19.8672 66.2194 21.2578V22.0547H57.9577V20.0039H63.6179L63.6061 19.875C63.528 19.0234 63.2897 18.3633 62.8913 17.8945C62.4929 17.4258 61.9577 17.1914 61.2858 17.1914C60.4421 17.1914 59.7897 17.457 59.3288 17.9883C58.8679 18.5117 58.6374 19.2578 58.6374 20.2266V21.7734C58.6374 22.6953 58.8874 23.4062 59.3874 23.9062C59.8874 24.3984 60.5905 24.6445 61.4968 24.6445C61.9577 24.6445 62.4108 24.5586 62.8561 24.3867C63.3093 24.207 63.7155 23.9609 64.0749 23.6484L65.903 25.3594C65.2858 25.9375 64.5905 26.3867 63.8171 26.707C63.0515 27.0195 62.278 27.1758 61.4968 27.1758ZM72.5475 27.0586C71.5241 27.0586 70.7741 26.7891 70.2975 26.25C69.821 25.7031 69.5827 24.8984 69.5827 23.8359V11.2969H72.3835V23.4492C72.3835 23.7461 72.4421 23.9766 72.5593 24.1406C72.6765 24.2969 72.8483 24.375 73.0749 24.375H74.0475V27.0586H72.5475ZM68.3288 14.8359H74.0475V17.2852H68.3288V14.8359ZM81.8757 27.1758C80.7975 27.1758 79.8718 26.9688 79.0983 26.5547C78.3327 26.1406 77.7468 25.5391 77.3405 24.75C76.9421 23.9531 76.7429 22.9961 76.7429 21.8789V19.8984C76.7429 18.7969 76.9421 17.8555 77.3405 17.0742C77.7468 16.2852 78.3327 15.6875 79.0983 15.2812C79.8718 14.8672 80.7975 14.6602 81.8757 14.6602C82.9538 14.6602 83.8757 14.8672 84.6413 15.2812C85.4147 15.6875 86.0007 16.2852 86.3991 17.0742C86.8054 17.8555 87.0085 18.7969 87.0085 19.8984V21.9141C87.0085 23.0234 86.8054 23.9727 86.3991 24.7617C86.0007 25.543 85.4147 26.1406 84.6413 26.5547C83.8757 26.9688 82.9538 27.1758 81.8757 27.1758ZM81.8757 24.4922C82.6179 24.4922 83.1921 24.2695 83.5983 23.8242C84.0046 23.3711 84.2077 22.7344 84.2077 21.9141V19.8984C84.2077 19.0859 84.0046 18.457 83.5983 18.0117C83.1921 17.5664 82.6179 17.3438 81.8757 17.3438C81.1335 17.3438 80.5593 17.5664 80.153 18.0117C79.7468 18.457 79.5436 19.0859 79.5436 19.8984V21.9141C79.5436 22.7344 79.7429 23.3711 80.1413 23.8242C80.5475 24.2695 81.1257 24.4922 81.8757 24.4922ZM96.8522 9.96094H99.8991L107.235 23.0742L106.954 23.3789V9.96094H109.673V26.9883H106.602L99.2897 14.0742L99.571 13.7695V26.9883H96.8522V9.96094ZM118.204 27.1758C117.126 27.1758 116.2 26.9688 115.426 26.5547C114.661 26.1406 114.075 25.5391 113.669 24.75C113.27 23.9531 113.071 22.9961 113.071 21.8789V19.8984C113.071 18.7969 113.27 17.8555 113.669 17.0742C114.075 16.2852 114.661 15.6875 115.426 15.2812C116.2 14.8672 117.126 14.6602 118.204 14.6602C119.282 14.6602 120.204 14.8672 120.969 15.2812C121.743 15.6875 122.329 16.2852 122.727 17.0742C123.133 17.8555 123.337 18.7969 123.337 19.8984V21.9141C123.337 23.0234 123.133 23.9727 122.727 24.7617C122.329 25.543 121.743 26.1406 120.969 26.5547C120.204 26.9688 119.282 27.1758 118.204 27.1758ZM118.204 24.4922C118.946 24.4922 119.52 24.2695 119.926 23.8242C120.333 23.3711 120.536 22.7344 120.536 21.9141V19.8984C120.536 19.0859 120.333 18.457 119.926 18.0117C119.52 17.5664 118.946 17.3438 118.204 17.3438C117.462 17.3438 116.887 17.5664 116.481 18.0117C116.075 18.457 115.872 19.0859 115.872 19.8984V21.9141C115.872 22.7344 116.071 23.3711 116.469 23.8242C116.876 24.2695 117.454 24.4922 118.204 24.4922ZM133.18 9.96094H135.981V27H133.18V9.96094ZM134.352 17.3555H142.848V20.0273H134.352V17.3555ZM134.352 9.96094H144.137V12.6445H134.352V9.96094ZM146.645 9.96094H149.434V12.7617H146.645V9.96094ZM146.645 14.8359H149.434V27H146.645V14.8359ZM156.946 31.9453C156.008 31.9453 155.169 31.7734 154.426 31.4297C153.684 31.0938 153.106 30.6172 152.692 30L154.579 28.2773C154.868 28.6445 155.216 28.9258 155.622 29.1211C156.036 29.3164 156.466 29.4141 156.911 29.4141C157.708 29.4141 158.337 29.1953 158.798 28.7578C159.258 28.3281 159.489 27.7188 159.489 26.9297V14.8359H162.29V26.6367C162.29 27.7539 162.079 28.7109 161.657 29.5078C161.243 30.3047 160.633 30.9102 159.829 31.3242C159.032 31.7383 158.071 31.9453 156.946 31.9453ZM156.548 27.1992C155.673 27.1992 154.923 27 154.298 26.6016C153.68 26.1953 153.208 25.6133 152.88 24.8555C152.559 24.0898 152.399 23.168 152.399 22.0898V19.7695C152.399 18.6914 152.559 17.7695 152.88 17.0039C153.2 16.2305 153.665 15.6445 154.274 15.2461C154.891 14.8398 155.63 14.6367 156.489 14.6367C157.176 14.6367 157.801 14.8281 158.364 15.2109C158.934 15.5938 159.391 16.1328 159.735 16.8281L159.489 19.418C159.489 18.9492 159.407 18.5508 159.243 18.2227C159.079 17.8945 158.841 17.6445 158.528 17.4727C158.216 17.3008 157.837 17.2148 157.391 17.2148C156.696 17.2148 156.157 17.4414 155.774 17.8945C155.391 18.3477 155.2 18.9805 155.2 19.793V22.0898C155.2 22.8945 155.391 23.5195 155.774 23.9648C156.157 24.4023 156.696 24.6211 157.391 24.6211C157.837 24.6211 158.216 24.5352 158.528 24.3633C158.841 24.1836 159.079 23.9297 159.243 23.6016C159.407 23.2734 159.489 22.8789 159.489 22.418L159.653 25.0898C159.411 25.7227 159.02 26.2344 158.481 26.625C157.95 27.0078 157.305 27.1992 156.548 27.1992ZM180.044 19.8047C180.044 19.0156 179.848 18.4102 179.458 17.9883C179.067 17.5586 178.512 17.3438 177.794 17.3438C177.114 17.3438 176.587 17.5508 176.212 17.9648C175.844 18.3711 175.661 18.9531 175.661 19.7109L175.122 17.1328C175.505 16.3438 176.005 15.7344 176.622 15.3047C177.247 14.875 177.938 14.6602 178.696 14.6602C179.571 14.6602 180.317 14.8594 180.934 15.2578C181.559 15.6562 182.032 16.2422 182.352 17.0156C182.68 17.7812 182.844 18.707 182.844 19.793V27H180.044V19.8047ZM165.688 14.8359H168.489V27H165.688V14.8359ZM172.872 19.8047C172.872 19.0156 172.676 18.4102 172.286 17.9883C171.903 17.5586 171.356 17.3438 170.645 17.3438C169.958 17.3438 169.426 17.5312 169.051 17.9062C168.676 18.2734 168.489 18.7969 168.489 19.4766L168.243 16.957C168.61 16.2148 169.079 15.6484 169.649 15.2578C170.219 14.8594 170.872 14.6602 171.606 14.6602C172.458 14.6602 173.188 14.8594 173.798 15.2578C174.407 15.6562 174.868 16.2422 175.18 17.0156C175.501 17.7812 175.661 18.707 175.661 19.793V27H172.872V19.8047ZM193.028 19.2891C193.028 18.6094 192.825 18.082 192.419 17.707C192.02 17.332 191.454 17.1445 190.719 17.1445C190.251 17.1445 189.79 17.2188 189.337 17.3672C188.883 17.5156 188.477 17.7227 188.118 17.9883L186.255 16.418C186.731 15.8633 187.356 15.4336 188.13 15.1289C188.903 14.8164 189.762 14.6602 190.708 14.6602C191.739 14.6602 192.622 14.8398 193.356 15.1992C194.091 15.5508 194.649 16.0664 195.032 16.7461C195.423 17.418 195.618 18.2305 195.618 19.1836V27H193.028V19.2891ZM189.841 27.1758C188.442 27.1758 187.395 26.8672 186.7 26.25C186.005 25.625 185.657 24.6797 185.657 23.4141C185.657 22.2109 186.008 21.3086 186.712 20.707C187.415 20.1055 188.469 19.8047 189.876 19.8047H193.133L193.298 21.9844H189.887C189.333 21.9844 188.915 22.1016 188.633 22.3359C188.36 22.5703 188.223 22.9297 188.223 23.4141C188.223 23.9219 188.403 24.3008 188.762 24.5508C189.122 24.793 189.665 24.9141 190.391 24.9141C191.282 24.9141 191.942 24.8164 192.372 24.6211C192.809 24.4258 193.028 24.1211 193.028 23.707L193.274 25.4414C193.141 25.8242 192.907 26.1445 192.571 26.4023C192.243 26.6602 191.844 26.8555 191.376 26.9883C190.907 27.1133 190.395 27.1758 189.841 27.1758Z" fill="#F1F5F9"/>
<path d="M210.55 17.2355L208.691 19.0456C207.929 19.7879 207.501 20.7947 207.501 21.8445C207.501 22.8943 207.929 23.9011 208.691 24.6434C209.454 25.3857 210.488 25.8027 211.566 25.8027C212.644 25.8027 213.678 25.3857 214.44 24.6434L216.917 22.2304C217.377 21.7827 217.72 21.2342 217.917 20.6308C218.114 20.0275 218.159 19.3869 218.049 18.7629C217.939 18.139 217.677 17.5498 217.285 17.0448C216.893 16.5398 216.382 16.1338 215.795 15.8608L215.001 16.6339C214.921 16.7126 214.851 16.8008 214.793 16.8965C215.246 17.0234 215.657 17.2632 215.986 17.5924C216.315 17.9215 216.55 18.3285 216.668 18.7732C216.786 19.2178 216.782 19.6847 216.658 20.1277C216.534 20.5707 216.293 20.9744 215.959 21.299L213.484 23.7106C212.975 24.2057 212.286 24.4839 211.567 24.4839C210.847 24.4839 210.158 24.2057 209.649 23.7106C209.141 23.2155 208.855 22.544 208.855 21.8438C208.855 21.1437 209.141 20.4721 209.649 19.977L210.724 18.9322C210.572 18.379 210.514 17.8069 210.55 17.2355Z" fill="#F1F5F9"/>
<path d="M213.085 14.7684C212.626 15.2161 212.283 15.7646 212.086 16.368C211.889 16.9713 211.844 17.6119 211.954 18.2358C212.063 18.8598 212.326 19.449 212.718 19.954C213.11 20.459 213.621 20.865 214.207 21.1379L215.257 20.1142C214.798 19.9942 214.379 19.7586 214.043 19.431C213.707 19.1035 213.465 18.6956 213.342 18.2482C213.219 17.8008 213.219 17.3298 213.342 16.8825C213.465 16.4352 213.707 16.0273 214.043 15.6998L216.519 13.2881C217.027 12.793 217.717 12.5149 218.436 12.5149C219.155 12.5149 219.845 12.793 220.353 13.2881C220.862 13.7833 221.148 14.4548 221.148 15.1549C221.148 15.8551 220.862 16.5266 220.353 17.0217L219.279 18.0666C219.431 18.6207 219.489 19.1946 219.452 19.7646L221.311 17.9545C222.074 17.2122 222.502 16.2054 222.502 15.1556C222.502 14.1058 222.074 13.099 221.311 12.3567C220.549 11.6144 219.515 11.1974 218.437 11.1974C217.359 11.1974 216.325 11.6144 215.562 12.3567L213.085 14.7684Z" fill="#F1F5F9"/>
</svg>
