<svg width="238" height="37" viewBox="0 0 238 37" fill="none" xmlns="http://www.w3.org/2000/svg">
<rect x="0.500671" width="237.001" height="37" rx="18.5" fill="#0D423B"/>
<path d="M24.6452 17.6484V20.8008C24.6452 22.0664 24.3913 23.1836 23.8835 24.1523C23.3835 25.1133 22.6725 25.8594 21.7507 26.3906C20.8366 26.9141 19.7741 27.1758 18.5632 27.1758C17.3444 27.1758 16.2702 26.9297 15.3405 26.4375C14.4108 25.9375 13.6882 25.2344 13.1725 24.3281C12.6647 23.4219 12.4108 22.3711 12.4108 21.1758V16.1484C12.4108 14.8828 12.6608 13.7695 13.1608 12.8086C13.6686 11.8477 14.3796 11.1055 15.2936 10.582C16.2155 10.0508 17.2819 9.78516 18.4929 9.78516C19.485 9.78516 20.403 9.99609 21.2468 10.418C22.0905 10.832 22.7936 11.4219 23.3561 12.1875C23.9186 12.9531 24.3015 13.8398 24.5046 14.8477H21.4811C21.3483 14.3789 21.1296 13.9766 20.8249 13.6406C20.528 13.3047 20.1725 13.0508 19.7585 12.8789C19.3522 12.6992 18.9304 12.6094 18.4929 12.6094C17.8522 12.6094 17.2897 12.7578 16.8054 13.0547C16.3288 13.3438 15.9577 13.7578 15.6921 14.2969C15.4265 14.8281 15.2936 15.4453 15.2936 16.1484V21.1758C15.2936 21.8086 15.4265 22.3672 15.6921 22.8516C15.9655 23.3281 16.3483 23.6992 16.8405 23.9648C17.3405 24.2227 17.9147 24.3516 18.5632 24.3516C19.2038 24.3516 19.7663 24.2148 20.2507 23.9414C20.735 23.6602 21.1061 23.2578 21.364 22.7344C21.6296 22.2031 21.7624 21.5742 21.7624 20.8477V20.332H18.739V17.6484H24.6452ZM27.9616 9.96094H30.7507V12.7617H27.9616V9.96094ZM27.9616 14.8359H30.7507V27H27.9616V14.8359ZM37.3483 27.0586C36.3249 27.0586 35.5749 26.7891 35.0983 26.25C34.6218 25.7031 34.3835 24.8984 34.3835 23.8359V11.2969H37.1843V23.4492C37.1843 23.7461 37.2429 23.9766 37.36 24.1406C37.4772 24.2969 37.6491 24.375 37.8757 24.375H38.8483V27.0586H37.3483ZM33.1296 14.8359H38.8483V17.2852H33.1296V14.8359ZM51.6335 9.96094H54.4343V27H51.6335V9.96094ZM42.1296 9.96094H44.9304V27H42.1296V9.96094ZM43.6179 17.2383H53.3093V19.9219H43.6179V17.2383ZM65.3444 14.8359H68.1335V27H65.3444V14.8359ZM60.985 22.2305C60.985 22.9492 61.1765 23.5078 61.5593 23.9062C61.9421 24.2969 62.4811 24.4922 63.1765 24.4922C63.8718 24.4922 64.4069 24.3086 64.7819 23.9414C65.1569 23.5664 65.3444 23.0312 65.3444 22.3359L65.5085 24.9375C65.2741 25.5703 64.8835 26.1016 64.3366 26.5312C63.7897 26.9609 63.1218 27.1758 62.3327 27.1758C61.0124 27.1758 59.989 26.75 59.2624 25.8984C58.5436 25.0469 58.1843 23.8438 58.1843 22.2891V14.8359H60.985V22.2305ZM77.2858 27.1758C76.5515 27.1758 75.9147 26.9961 75.3757 26.6367C74.8366 26.2695 74.4382 25.7539 74.1804 25.0898L74.3444 22.4297C74.3444 22.8906 74.4265 23.2852 74.5905 23.6133C74.7546 23.9336 74.9929 24.1797 75.3054 24.3516C75.6179 24.5234 75.9968 24.6094 76.4421 24.6094C77.1374 24.6094 77.6765 24.3906 78.0593 23.9531C78.4421 23.5156 78.6335 22.8945 78.6335 22.0898V19.8047C78.6335 18.9844 78.4421 18.3516 78.0593 17.9062C77.6765 17.4531 77.1374 17.2266 76.4421 17.2266C75.9968 17.2266 75.6179 17.3125 75.3054 17.4844C74.9929 17.6484 74.7546 17.8945 74.5905 18.2227C74.4265 18.5508 74.3444 18.9453 74.3444 19.4062L74.0983 16.8867C74.4421 16.1758 74.8952 15.6289 75.4577 15.2461C76.028 14.8555 76.6569 14.6602 77.3444 14.6602C78.2038 14.6602 78.9382 14.8594 79.5475 15.2578C80.1647 15.6562 80.6335 16.2422 80.9538 17.0156C81.2741 17.7812 81.4343 18.707 81.4343 19.793V22.0898C81.4343 23.1602 81.2702 24.0781 80.9421 24.8438C80.6218 25.6016 80.1491 26.1797 79.5241 26.5781C78.8991 26.9766 78.153 27.1758 77.2858 27.1758ZM71.5436 9.96094H74.3444V27H71.5436V9.96094ZM92.8952 24.3164H96.8679C98.0241 24.3164 98.9186 24.0273 99.5515 23.4492C100.192 22.8711 100.512 22.0508 100.512 20.9883V15.9727C100.512 14.9102 100.192 14.0898 99.5515 13.5117C98.9186 12.9336 98.0241 12.6445 96.8679 12.6445H92.8952V9.96094H96.7975C98.1882 9.96094 99.3757 10.1992 100.36 10.6758C101.352 11.1523 102.106 11.8477 102.622 12.7617C103.137 13.6758 103.395 14.7773 103.395 16.0664V20.8945C103.395 22.1523 103.141 23.2383 102.633 24.1523C102.126 25.0664 101.376 25.7695 100.383 26.2617C99.3991 26.7539 98.1999 27 96.7858 27H92.8952V24.3164ZM91.278 9.96094H94.0788V27H91.278V9.96094ZM111.575 27.1758C110.497 27.1758 109.571 26.9688 108.798 26.5547C108.032 26.1406 107.446 25.5391 107.04 24.75C106.641 23.9531 106.442 22.9961 106.442 21.8789V19.8984C106.442 18.7969 106.641 17.8555 107.04 17.0742C107.446 16.2852 108.032 15.6875 108.798 15.2812C109.571 14.8672 110.497 14.6602 111.575 14.6602C112.653 14.6602 113.575 14.8672 114.341 15.2812C115.114 15.6875 115.7 16.2852 116.098 17.0742C116.505 17.8555 116.708 18.7969 116.708 19.8984V21.9141C116.708 23.0234 116.505 23.9727 116.098 24.7617C115.7 25.543 115.114 26.1406 114.341 26.5547C113.575 26.9688 112.653 27.1758 111.575 27.1758ZM111.575 24.4922C112.317 24.4922 112.891 24.2695 113.298 23.8242C113.704 23.3711 113.907 22.7344 113.907 21.9141V19.8984C113.907 19.0859 113.704 18.457 113.298 18.0117C112.891 17.5664 112.317 17.3438 111.575 17.3438C110.833 17.3438 110.258 17.5664 109.852 18.0117C109.446 18.457 109.243 19.0859 109.243 19.8984V21.9141C109.243 22.7344 109.442 23.3711 109.841 23.8242C110.247 24.2695 110.825 24.4922 111.575 24.4922ZM127.899 17.707H133.348C133.801 17.707 134.196 17.6055 134.532 17.4023C134.876 17.1914 135.141 16.8945 135.329 16.5117C135.524 16.1289 135.622 15.6875 135.622 15.1875C135.622 14.6797 135.528 14.2344 135.341 13.8516C135.153 13.4688 134.887 13.1719 134.544 12.9609C134.2 12.75 133.801 12.6445 133.348 12.6445H127.899V9.96094H133.266C134.305 9.96094 135.219 10.1797 136.008 10.6172C136.798 11.0469 137.411 11.6562 137.848 12.4453C138.286 13.2344 138.505 14.1484 138.505 15.1875C138.505 16.2266 138.286 17.1406 137.848 17.9297C137.411 18.7109 136.798 19.3164 136.008 19.7461C135.219 20.1758 134.305 20.3906 133.266 20.3906H127.899V17.707ZM126.551 9.96094H129.352V27H126.551V9.96094ZM140.684 14.8359H143.602V27H140.684V14.8359ZM147.458 17.9648C147.27 17.7617 147.04 17.6094 146.766 17.5078C146.493 17.3984 146.176 17.3438 145.817 17.3438C145.114 17.3438 144.567 17.5547 144.176 17.9766C143.794 18.3906 143.602 18.9688 143.602 19.7109L143.356 16.957C143.708 16.2305 144.165 15.668 144.727 15.2695C145.298 14.8633 145.923 14.6602 146.602 14.6602C147.133 14.6602 147.614 14.7422 148.044 14.9062C148.473 15.0625 148.848 15.2969 149.169 15.6094L147.458 17.9648ZM155.473 27.1758C154.395 27.1758 153.469 26.9688 152.696 26.5547C151.93 26.1406 151.344 25.5391 150.938 24.75C150.54 23.9531 150.341 22.9961 150.341 21.8789V19.8984C150.341 18.7969 150.54 17.8555 150.938 17.0742C151.344 16.2852 151.93 15.6875 152.696 15.2812C153.469 14.8672 154.395 14.6602 155.473 14.6602C156.551 14.6602 157.473 14.8672 158.239 15.2812C159.012 15.6875 159.598 16.2852 159.997 17.0742C160.403 17.8555 160.606 18.7969 160.606 19.8984V21.9141C160.606 23.0234 160.403 23.9727 159.997 24.7617C159.598 25.543 159.012 26.1406 158.239 26.5547C157.473 26.9688 156.551 27.1758 155.473 27.1758ZM155.473 24.4922C156.216 24.4922 156.79 24.2695 157.196 23.8242C157.602 23.3711 157.805 22.7344 157.805 21.9141V19.8984C157.805 19.0859 157.602 18.457 157.196 18.0117C156.79 17.5664 156.216 17.3438 155.473 17.3438C154.731 17.3438 154.157 17.5664 153.751 18.0117C153.344 18.457 153.141 19.0859 153.141 19.8984V21.9141C153.141 22.7344 153.341 23.3711 153.739 23.8242C154.145 24.2695 154.723 24.4922 155.473 24.4922ZM162.13 29.2617H163.173C163.43 29.2617 163.63 29.1797 163.77 29.0156C163.911 28.8594 163.981 28.6328 163.981 28.3359V14.8359H166.782V28.7227C166.782 29.7461 166.52 30.5391 165.997 31.1016C165.481 31.6641 164.755 31.9453 163.817 31.9453H162.13V29.2617ZM163.958 9.96094H166.805V12.7617H163.958V9.96094ZM175.313 27.1758C174.165 27.1758 173.184 26.9648 172.372 26.543C171.559 26.1211 170.938 25.5039 170.508 24.6914C170.079 23.8711 169.864 22.8828 169.864 21.7266V20.3555C169.864 19.1523 170.067 18.125 170.473 17.2734C170.887 16.4219 171.485 15.7734 172.266 15.3281C173.055 14.8828 174.001 14.6602 175.102 14.6602C176.141 14.6602 177.028 14.9219 177.762 15.4453C178.505 15.9609 179.067 16.7109 179.45 17.6953C179.841 18.6797 180.036 19.8672 180.036 21.2578V22.0547H171.774V20.0039H177.434L177.423 19.875C177.344 19.0234 177.106 18.3633 176.708 17.8945C176.309 17.4258 175.774 17.1914 175.102 17.1914C174.258 17.1914 173.606 17.457 173.145 17.9883C172.684 18.5117 172.454 19.2578 172.454 20.2266V21.7734C172.454 22.6953 172.704 23.4062 173.204 23.9062C173.704 24.3984 174.407 24.6445 175.313 24.6445C175.774 24.6445 176.227 24.5586 176.673 24.3867C177.126 24.207 177.532 23.9609 177.891 23.6484L179.719 25.3594C179.102 25.9375 178.407 26.3867 177.633 26.707C176.868 27.0195 176.094 27.1758 175.313 27.1758ZM186.364 27.0586C185.341 27.0586 184.591 26.7891 184.114 26.25C183.637 25.7031 183.399 24.8984 183.399 23.8359V11.2969H186.2V23.4492C186.2 23.7461 186.258 23.9766 186.376 24.1406C186.493 24.2969 186.665 24.375 186.891 24.375H187.864V27.0586H186.364ZM182.145 14.8359H187.864V17.2852H182.145V14.8359ZM195.692 27.1758C194.614 27.1758 193.688 26.9688 192.915 26.5547C192.149 26.1406 191.563 25.5391 191.157 24.75C190.758 23.9531 190.559 22.9961 190.559 21.8789V19.8984C190.559 18.7969 190.758 17.8555 191.157 17.0742C191.563 16.2852 192.149 15.6875 192.915 15.2812C193.688 14.8672 194.614 14.6602 195.692 14.6602C196.77 14.6602 197.692 14.8672 198.458 15.2812C199.231 15.6875 199.817 16.2852 200.216 17.0742C200.622 17.8555 200.825 18.7969 200.825 19.8984V21.9141C200.825 23.0234 200.622 23.9727 200.216 24.7617C199.817 25.543 199.231 26.1406 198.458 26.5547C197.692 26.9688 196.77 27.1758 195.692 27.1758ZM195.692 24.4922C196.434 24.4922 197.008 24.2695 197.415 23.8242C197.821 23.3711 198.024 22.7344 198.024 21.9141V19.8984C198.024 19.0859 197.821 18.457 197.415 18.0117C197.008 17.5664 196.434 17.3438 195.692 17.3438C194.95 17.3438 194.376 17.5664 193.969 18.0117C193.563 18.457 193.36 19.0859 193.36 19.8984V21.9141C193.36 22.7344 193.559 23.3711 193.958 23.8242C194.364 24.2695 194.942 24.4922 195.692 24.4922Z" fill="#F1F5F9"/>
<path d="M215.55 17.2355L213.691 19.0456C212.929 19.7879 212.501 20.7947 212.501 21.8445C212.501 22.8943 212.929 23.9011 213.691 24.6434C214.454 25.3857 215.488 25.8027 216.566 25.8027C217.644 25.8027 218.678 25.3857 219.44 24.6434L221.917 22.2304C222.377 21.7827 222.72 21.2342 222.917 20.6308C223.114 20.0275 223.159 19.3869 223.049 18.7629C222.939 18.139 222.677 17.5498 222.285 17.0448C221.893 16.5398 221.382 16.1338 220.795 15.8608L220.001 16.6339C219.921 16.7126 219.851 16.8008 219.793 16.8965C220.246 17.0234 220.657 17.2632 220.986 17.5924C221.315 17.9215 221.55 18.3285 221.668 18.7732C221.786 19.2178 221.782 19.6847 221.658 20.1277C221.534 20.5707 221.293 20.9744 220.959 21.299L218.484 23.7106C217.975 24.2057 217.286 24.4839 216.567 24.4839C215.847 24.4839 215.158 24.2057 214.649 23.7106C214.141 23.2155 213.855 22.544 213.855 21.8438C213.855 21.1437 214.141 20.4721 214.649 19.977L215.724 18.9322C215.572 18.379 215.514 17.8069 215.55 17.2355Z" fill="#F1F5F9"/>
<path d="M218.085 14.7684C217.626 15.2161 217.283 15.7646 217.086 16.368C216.889 16.9713 216.844 17.6119 216.954 18.2358C217.063 18.8598 217.326 19.449 217.718 19.954C218.11 20.459 218.621 20.865 219.207 21.1379L220.257 20.1142C219.798 19.9942 219.379 19.7586 219.043 19.431C218.707 19.1035 218.465 18.6956 218.342 18.2482C218.219 17.8008 218.219 17.3298 218.342 16.8825C218.465 16.4352 218.707 16.0273 219.043 15.6998L221.519 13.2881C222.027 12.793 222.717 12.5149 223.436 12.5149C224.155 12.5149 224.845 12.793 225.353 13.2881C225.862 13.7833 226.148 14.4548 226.148 15.1549C226.148 15.8551 225.862 16.5266 225.353 17.0217L224.279 18.0666C224.431 18.6207 224.489 19.1946 224.452 19.7646L226.311 17.9545C227.074 17.2122 227.502 16.2054 227.502 15.1556C227.502 14.1058 227.074 13.099 226.311 12.3567C225.549 11.6144 224.515 11.1974 223.437 11.1974C222.359 11.1974 221.325 11.6144 220.562 12.3567L218.085 14.7684Z" fill="#F1F5F9"/>
</svg>
