<svg width="199" height="37" viewBox="0 0 199 37" fill="none" xmlns="http://www.w3.org/2000/svg">
<rect x="0.500671" width="198.001" height="37" rx="18.5" fill="#0D423B"/>
<path d="M14.2038 17.707H19.653C20.1061 17.707 20.5007 17.6055 20.8366 17.4023C21.1804 17.1914 21.446 16.8945 21.6335 16.5117C21.8288 16.1289 21.9265 15.6875 21.9265 15.1875C21.9265 14.6797 21.8327 14.2344 21.6452 13.8516C21.4577 13.4688 21.1921 13.1719 20.8483 12.9609C20.5046 12.75 20.1061 12.6445 19.653 12.6445H14.2038V9.96094H19.571C20.61 9.96094 21.5241 10.1797 22.3132 10.6172C23.1022 11.0469 23.7155 11.6562 24.153 12.4453C24.5905 13.2344 24.8093 14.1484 24.8093 15.1875C24.8093 16.2266 24.5905 17.1406 24.153 17.9297C23.7155 18.7109 23.1022 19.3164 22.3132 19.7461C21.5241 20.1758 20.61 20.3906 19.571 20.3906H14.2038V17.707ZM12.8561 9.96094H15.6569V27H12.8561V9.96094ZM26.989 14.8359H29.9069V27H26.989V14.8359ZM33.7624 17.9648C33.5749 17.7617 33.3444 17.6094 33.071 17.5078C32.7975 17.3984 32.4811 17.3438 32.1218 17.3438C31.4186 17.3438 30.8718 17.5547 30.4811 17.9766C30.0983 18.3906 29.9069 18.9688 29.9069 19.7109L29.6608 16.957C30.0124 16.2305 30.4694 15.668 31.0319 15.2695C31.6022 14.8633 32.2272 14.6602 32.9069 14.6602C33.4382 14.6602 33.9186 14.7422 34.3483 14.9062C34.778 15.0625 35.153 15.2969 35.4733 15.6094L33.7624 17.9648ZM41.778 27.1758C40.6999 27.1758 39.7741 26.9688 39.0007 26.5547C38.235 26.1406 37.6491 25.5391 37.2429 24.75C36.8444 23.9531 36.6452 22.9961 36.6452 21.8789V19.8984C36.6452 18.7969 36.8444 17.8555 37.2429 17.0742C37.6491 16.2852 38.235 15.6875 39.0007 15.2812C39.7741 14.8672 40.6999 14.6602 41.778 14.6602C42.8561 14.6602 43.778 14.8672 44.5436 15.2812C45.3171 15.6875 45.903 16.2852 46.3015 17.0742C46.7077 17.8555 46.9108 18.7969 46.9108 19.8984V21.9141C46.9108 23.0234 46.7077 23.9727 46.3015 24.7617C45.903 25.543 45.3171 26.1406 44.5436 26.5547C43.778 26.9688 42.8561 27.1758 41.778 27.1758ZM41.778 24.4922C42.5202 24.4922 43.0944 24.2695 43.5007 23.8242C43.9069 23.3711 44.11 22.7344 44.11 21.9141V19.8984C44.11 19.0859 43.9069 18.457 43.5007 18.0117C43.0944 17.5664 42.5202 17.3438 41.778 17.3438C41.0358 17.3438 40.4616 17.5664 40.0554 18.0117C39.6491 18.457 39.446 19.0859 39.446 19.8984V21.9141C39.446 22.7344 39.6452 23.3711 40.0436 23.8242C40.4499 24.2695 41.028 24.4922 41.778 24.4922ZM48.4343 29.2617H49.4772C49.735 29.2617 49.9343 29.1797 50.0749 29.0156C50.2155 28.8594 50.2858 28.6328 50.2858 28.3359V14.8359H53.0866V28.7227C53.0866 29.7461 52.8249 30.5391 52.3015 31.1016C51.7858 31.6641 51.0593 31.9453 50.1218 31.9453H48.4343V29.2617ZM50.2624 9.96094H53.11V12.7617H50.2624V9.96094ZM61.6179 27.1758C60.4694 27.1758 59.489 26.9648 58.6765 26.543C57.864 26.1211 57.2429 25.5039 56.8132 24.6914C56.3835 23.8711 56.1686 22.8828 56.1686 21.7266V20.3555C56.1686 19.1523 56.3718 18.125 56.778 17.2734C57.1921 16.4219 57.7897 15.7734 58.571 15.3281C59.36 14.8828 60.3054 14.6602 61.4069 14.6602C62.446 14.6602 63.3327 14.9219 64.0671 15.4453C64.8093 15.9609 65.3718 16.7109 65.7546 17.6953C66.1452 18.6797 66.3405 19.8672 66.3405 21.2578V22.0547H58.0788V20.0039H63.739L63.7272 19.875C63.6491 19.0234 63.4108 18.3633 63.0124 17.8945C62.614 17.4258 62.0788 17.1914 61.4069 17.1914C60.5632 17.1914 59.9108 17.457 59.4499 17.9883C58.989 18.5117 58.7585 19.2578 58.7585 20.2266V21.7734C58.7585 22.6953 59.0085 23.4062 59.5085 23.9062C60.0085 24.3984 60.7116 24.6445 61.6179 24.6445C62.0788 24.6445 62.5319 24.5586 62.9772 24.3867C63.4304 24.207 63.8366 23.9609 64.196 23.6484L66.0241 25.3594C65.4069 25.9375 64.7116 26.3867 63.9382 26.707C63.1725 27.0195 62.3991 27.1758 61.6179 27.1758ZM72.6686 27.0586C71.6452 27.0586 70.8952 26.7891 70.4186 26.25C69.9421 25.7031 69.7038 24.8984 69.7038 23.8359V11.2969H72.5046V23.4492C72.5046 23.7461 72.5632 23.9766 72.6804 24.1406C72.7975 24.2969 72.9694 24.375 73.196 24.375H74.1686V27.0586H72.6686ZM68.4499 14.8359H74.1686V17.2852H68.4499V14.8359ZM81.9968 27.1758C80.9186 27.1758 79.9929 26.9688 79.2194 26.5547C78.4538 26.1406 77.8679 25.5391 77.4616 24.75C77.0632 23.9531 76.864 22.9961 76.864 21.8789V19.8984C76.864 18.7969 77.0632 17.8555 77.4616 17.0742C77.8679 16.2852 78.4538 15.6875 79.2194 15.2812C79.9929 14.8672 80.9186 14.6602 81.9968 14.6602C83.0749 14.6602 83.9968 14.8672 84.7624 15.2812C85.5358 15.6875 86.1218 16.2852 86.5202 17.0742C86.9265 17.8555 87.1296 18.7969 87.1296 19.8984V21.9141C87.1296 23.0234 86.9265 23.9727 86.5202 24.7617C86.1218 25.543 85.5358 26.1406 84.7624 26.5547C83.9968 26.9688 83.0749 27.1758 81.9968 27.1758ZM81.9968 24.4922C82.739 24.4922 83.3132 24.2695 83.7194 23.8242C84.1257 23.3711 84.3288 22.7344 84.3288 21.9141V19.8984C84.3288 19.0859 84.1257 18.457 83.7194 18.0117C83.3132 17.5664 82.739 17.3438 81.9968 17.3438C81.2546 17.3438 80.6804 17.5664 80.2741 18.0117C79.8679 18.457 79.6647 19.0859 79.6647 19.8984V21.9141C79.6647 22.7344 79.864 23.3711 80.2624 23.8242C80.6686 24.2695 81.2468 24.4922 81.9968 24.4922ZM102.727 27.1758C101.516 27.1758 100.45 26.918 99.528 26.4023C98.6061 25.8789 97.8913 25.1445 97.3835 24.1992C96.8757 23.2461 96.6218 22.1445 96.6218 20.8945V16.0664C96.6218 14.8164 96.8757 13.7188 97.3835 12.7734C97.8913 11.8203 98.6061 11.0859 99.528 10.5703C100.45 10.0469 101.516 9.78516 102.727 9.78516C103.938 9.78516 105.005 10.0469 105.926 10.5703C106.848 11.0859 107.563 11.8203 108.071 12.7734C108.579 13.7188 108.833 14.8164 108.833 16.0664V20.8945C108.833 22.1445 108.579 23.2461 108.071 24.1992C107.563 25.1445 106.848 25.8789 105.926 26.4023C105.005 26.918 103.938 27.1758 102.727 27.1758ZM102.727 24.3984C103.368 24.3984 103.93 24.2578 104.415 23.9766C104.907 23.6953 105.286 23.2969 105.551 22.7812C105.817 22.2578 105.95 21.6562 105.95 20.9766V15.9844C105.95 15.3047 105.817 14.707 105.551 14.1914C105.286 13.668 104.907 13.2656 104.415 12.9844C103.93 12.7031 103.368 12.5625 102.727 12.5625C102.087 12.5625 101.52 12.7031 101.028 12.9844C100.544 13.2656 100.169 13.668 99.903 14.1914C99.6374 14.707 99.5046 15.3047 99.5046 15.9844V20.9766C99.5046 21.6562 99.6374 22.2578 99.903 22.7812C100.169 23.2969 100.544 23.6953 101.028 23.9766C101.52 24.2578 102.087 24.3984 102.727 24.3984ZM112.231 14.8359H115.032V27H112.231V14.8359ZM119.438 19.6289C119.438 18.9023 119.243 18.3398 118.852 17.9414C118.462 17.543 117.907 17.3438 117.188 17.3438C116.501 17.3438 115.969 17.5312 115.594 17.9062C115.219 18.2734 115.032 18.7969 115.032 19.4766L114.786 16.957C115.153 16.207 115.614 15.6367 116.169 15.2461C116.731 14.8555 117.391 14.6602 118.149 14.6602C119.446 14.6602 120.45 15.0938 121.161 15.9609C121.88 16.8203 122.239 18.0391 122.239 19.6172V27H119.438V19.6289ZM128.438 23.4258C128.438 23.7227 128.512 23.9531 128.661 24.1172C128.809 24.2734 129.02 24.3516 129.294 24.3516H130.126V27.0352H128.602C127.665 27.0352 126.934 26.7539 126.411 26.1914C125.895 25.6289 125.637 24.8359 125.637 23.8125V9.96094H128.438V23.4258ZM132.516 9.96094H135.305V12.7617H132.516V9.96094ZM132.516 14.8359H135.305V27H132.516V14.8359ZM138.622 14.8359H141.423V27H138.622V14.8359ZM145.829 19.6289C145.829 18.9023 145.633 18.3398 145.243 17.9414C144.852 17.543 144.298 17.3438 143.579 17.3438C142.891 17.3438 142.36 17.5312 141.985 17.9062C141.61 18.2734 141.423 18.7969 141.423 19.4766L141.176 16.957C141.544 16.207 142.005 15.6367 142.559 15.2461C143.122 14.8555 143.782 14.6602 144.54 14.6602C145.837 14.6602 146.841 15.0938 147.551 15.9609C148.27 16.8203 148.63 18.0391 148.63 19.6172V27H145.829V19.6289ZM157.126 27.1758C155.977 27.1758 154.997 26.9648 154.184 26.543C153.372 26.1211 152.751 25.5039 152.321 24.6914C151.891 23.8711 151.676 22.8828 151.676 21.7266V20.3555C151.676 19.1523 151.88 18.125 152.286 17.2734C152.7 16.4219 153.298 15.7734 154.079 15.3281C154.868 14.8828 155.813 14.6602 156.915 14.6602C157.954 14.6602 158.841 14.9219 159.575 15.4453C160.317 15.9609 160.88 16.7109 161.262 17.6953C161.653 18.6797 161.848 19.8672 161.848 21.2578V22.0547H153.587V20.0039H159.247L159.235 19.875C159.157 19.0234 158.919 18.3633 158.52 17.8945C158.122 17.4258 157.587 17.1914 156.915 17.1914C156.071 17.1914 155.419 17.457 154.958 17.9883C154.497 18.5117 154.266 19.2578 154.266 20.2266V21.7734C154.266 22.6953 154.516 23.4062 155.016 23.9062C155.516 24.3984 156.219 24.6445 157.126 24.6445C157.587 24.6445 158.04 24.5586 158.485 24.3867C158.938 24.207 159.344 23.9609 159.704 23.6484L161.532 25.3594C160.915 25.9375 160.219 26.3867 159.446 26.707C158.68 27.0195 157.907 27.1758 157.126 27.1758Z" fill="#F1F5F9"/>
<path d="M176.55 17.2355L174.691 19.0456C173.929 19.7879 173.501 20.7947 173.501 21.8445C173.501 22.8943 173.929 23.9011 174.691 24.6434C175.454 25.3857 176.488 25.8027 177.566 25.8027C178.644 25.8027 179.678 25.3857 180.44 24.6434L182.917 22.2304C183.377 21.7827 183.72 21.2342 183.917 20.6308C184.114 20.0275 184.159 19.3869 184.049 18.7629C183.939 18.139 183.677 17.5498 183.285 17.0448C182.893 16.5398 182.382 16.1338 181.795 15.8608L181.001 16.6339C180.921 16.7126 180.851 16.8008 180.793 16.8965C181.246 17.0234 181.657 17.2632 181.986 17.5924C182.315 17.9215 182.55 18.3285 182.668 18.7732C182.786 19.2178 182.782 19.6847 182.658 20.1277C182.534 20.5707 182.293 20.9744 181.959 21.299L179.484 23.7106C178.975 24.2057 178.286 24.4839 177.567 24.4839C176.847 24.4839 176.158 24.2057 175.649 23.7106C175.141 23.2155 174.855 22.544 174.855 21.8438C174.855 21.1437 175.141 20.4721 175.649 19.977L176.724 18.9322C176.572 18.379 176.514 17.8069 176.55 17.2355Z" fill="#F1F5F9"/>
<path d="M179.085 14.7684C178.626 15.2161 178.283 15.7646 178.086 16.368C177.889 16.9713 177.844 17.6119 177.954 18.2358C178.063 18.8598 178.326 19.449 178.718 19.954C179.11 20.459 179.621 20.865 180.207 21.1379L181.257 20.1142C180.798 19.9942 180.379 19.7586 180.043 19.431C179.707 19.1035 179.465 18.6956 179.342 18.2482C179.219 17.8008 179.219 17.3298 179.342 16.8825C179.465 16.4352 179.707 16.0273 180.043 15.6998L182.519 13.2881C183.027 12.793 183.717 12.5149 184.436 12.5149C185.155 12.5149 185.845 12.793 186.353 13.2881C186.862 13.7833 187.148 14.4548 187.148 15.1549C187.148 15.8551 186.862 16.5266 186.353 17.0217L185.279 18.0666C185.431 18.6207 185.489 19.1946 185.452 19.7646L187.311 17.9545C188.074 17.2122 188.502 16.2054 188.502 15.1556C188.502 14.1058 188.074 13.099 187.311 12.3567C186.549 11.6144 185.515 11.1974 184.437 11.1974C183.359 11.1974 182.325 11.6144 181.562 12.3567L179.085 14.7684Z" fill="#F1F5F9"/>
</svg>
