<svg width="93" height="39" viewBox="0 0 93 39" fill="none" xmlns="http://www.w3.org/2000/svg">
<path d="M1.76136 31V7.72727H17.9886V12.2955H7.38636V17.0682H17.1591V21.6477H7.38636V26.4318H17.9886V31H1.76136ZM21.5114 31V13.5455H26.9091V16.7273H27.0909C27.4091 15.5758 27.928 14.7197 28.6477 14.1591C29.3674 13.5909 30.2045 13.3068 31.1591 13.3068C31.4167 13.3068 31.6818 13.3258 31.9545 13.3636C32.2273 13.3939 32.4811 13.4432 32.7159 13.5114V18.3409C32.4508 18.25 32.1023 18.178 31.6705 18.125C31.2462 18.072 30.8674 18.0455 30.5341 18.0455C29.875 18.0455 29.2803 18.1932 28.75 18.4886C28.2273 18.7765 27.8144 19.1818 27.5114 19.7045C27.2159 20.2197 27.0682 20.8258 27.0682 21.5227V31H21.5114ZM34.9801 31V13.5455H40.5369V31H34.9801ZM37.7642 11.5114C36.9839 11.5114 36.3134 11.2538 35.7528 10.7386C35.1922 10.2159 34.9119 9.58712 34.9119 8.85227C34.9119 8.125 35.1922 7.50379 35.7528 6.98864C36.3134 6.46591 36.9839 6.20454 37.7642 6.20454C38.5521 6.20454 39.2225 6.46591 39.7756 6.98864C40.3362 7.50379 40.6165 8.125 40.6165 8.85227C40.6165 9.58712 40.3362 10.2159 39.7756 10.7386C39.2225 11.2538 38.5521 11.5114 37.7642 11.5114ZM52.2216 31.3295C50.3807 31.3295 48.8011 30.9508 47.483 30.1932C46.1723 29.4356 45.1648 28.3826 44.4602 27.0341C43.7557 25.678 43.4034 24.1098 43.4034 22.3295C43.4034 20.5417 43.7557 18.9735 44.4602 17.625C45.1723 16.2689 46.1837 15.2121 47.4943 14.4545C48.8125 13.697 50.3845 13.3182 52.2102 13.3182C53.8239 13.3182 55.2292 13.6098 56.4261 14.1932C57.6307 14.7765 58.5701 15.6023 59.2443 16.6705C59.9261 17.7311 60.286 18.9773 60.3239 20.4091H55.1307C55.0246 19.5152 54.7216 18.8144 54.2216 18.3068C53.7292 17.7992 53.0852 17.5455 52.2898 17.5455C51.6458 17.5455 51.0814 17.7273 50.5966 18.0909C50.1117 18.447 49.733 18.9773 49.4602 19.6818C49.1951 20.3788 49.0625 21.2424 49.0625 22.2727C49.0625 23.303 49.1951 24.1742 49.4602 24.8864C49.733 25.5909 50.1117 26.125 50.5966 26.4886C51.0814 26.8447 51.6458 27.0227 52.2898 27.0227C52.8049 27.0227 53.2595 26.9129 53.6534 26.6932C54.0549 26.4735 54.3845 26.1515 54.642 25.7273C54.8996 25.2955 55.0625 24.7727 55.1307 24.1591H60.3239C60.2708 25.5985 59.911 26.8561 59.2443 27.9318C58.5852 29.0076 57.6572 29.8447 56.4602 30.4432C55.2708 31.0341 53.858 31.3295 52.2216 31.3295Z" fill="black"/>
<path d="M69.1881 32C69.1881 32 67.1017 32 67.1017 29.9167C67.1017 27.8333 69.1881 21.5833 79.6206 21.5833C90.0531 21.5833 92.1396 27.8333 92.1396 29.9167C92.1396 32 90.0531 32 90.0531 32H69.1881ZM79.6206 19.5C81.2807 19.5 82.8729 18.8415 84.0467 17.6694C85.2206 16.4973 85.8801 14.9076 85.8801 13.25C85.8801 11.5924 85.2206 10.0027 84.0467 8.83058C82.8729 7.65848 81.2807 7 79.6206 7C77.9605 7 76.3684 7.65848 75.1945 8.83058C74.0206 10.0027 73.3611 11.5924 73.3611 13.25C73.3611 14.9076 74.0206 16.4973 75.1945 17.6694C76.3684 18.8415 77.9605 19.5 79.6206 19.5Z" fill="black"/>
</svg>
