<svg width="213" height="39" viewBox="0 0 213 39" fill="none" xmlns="http://www.w3.org/2000/svg">
<path d="M1.76135 31V7.72727H7.38635V17.0682H16.5568V7.72727H22.1704V31H16.5568V21.6477H7.38635V31H1.76135ZM30.6193 31.2955C29.5057 31.2955 28.517 31.1098 27.6534 30.7386C26.7973 30.3598 26.1193 29.7917 25.6193 29.0341C25.1269 28.2689 24.8807 27.3106 24.8807 26.1591C24.8807 25.1894 25.0511 24.3712 25.392 23.7045C25.7329 23.0379 26.2026 22.4962 26.8011 22.0795C27.3996 21.6629 28.089 21.3485 28.8693 21.1364C29.6496 20.9167 30.4829 20.7689 31.3693 20.6932C32.3617 20.6023 33.161 20.5076 33.767 20.4091C34.3731 20.303 34.8125 20.1553 35.0852 19.9659C35.3655 19.7689 35.5057 19.4924 35.5057 19.1364V19.0795C35.5057 18.4962 35.3049 18.0455 34.9034 17.7273C34.5019 17.4091 33.9602 17.25 33.2784 17.25C32.5435 17.25 31.9526 17.4091 31.5057 17.7273C31.0587 18.0455 30.7746 18.4848 30.6534 19.0455L25.5284 18.8636C25.6799 17.803 26.0701 16.8561 26.6988 16.0227C27.3352 15.1818 28.2064 14.5227 29.3125 14.0455C30.4261 13.5606 31.7632 13.3182 33.3238 13.3182C34.4375 13.3182 35.464 13.4508 36.4034 13.7159C37.3428 13.9735 38.161 14.3523 38.8579 14.8523C39.5549 15.3447 40.0928 15.9508 40.4716 16.6705C40.8579 17.3902 41.0511 18.2121 41.0511 19.1364V31H35.8238V28.5682H35.6875C35.3769 29.1591 34.9792 29.6591 34.4943 30.0682C34.017 30.4773 33.4526 30.7841 32.8011 30.9886C32.1572 31.1932 31.4299 31.2955 30.6193 31.2955ZM32.3352 27.6591C32.9337 27.6591 33.4716 27.5379 33.9488 27.2955C34.4337 27.053 34.8201 26.7197 35.1079 26.2955C35.3958 25.8636 35.5398 25.3636 35.5398 24.7955V23.1364C35.3807 23.2197 35.1875 23.2955 34.9602 23.3636C34.7405 23.4318 34.4981 23.4962 34.2329 23.5568C33.9678 23.6174 33.6951 23.6705 33.4148 23.7159C33.1345 23.7614 32.8655 23.803 32.6079 23.8409C32.0852 23.9242 31.6382 24.053 31.267 24.2273C30.9034 24.4015 30.6231 24.6288 30.4261 24.9091C30.2367 25.1818 30.142 25.5076 30.142 25.8864C30.142 26.4621 30.3466 26.9015 30.7557 27.2045C31.1723 27.5076 31.6988 27.6591 32.3352 27.6591ZM44.4488 31V7.72727H50.0057V16.5341H50.1193C50.3466 16.0038 50.6685 15.4924 51.0852 15C51.5095 14.5076 52.0473 14.1061 52.6988 13.7955C53.3579 13.4773 54.1458 13.3182 55.0625 13.3182C56.2746 13.3182 57.4072 13.6364 58.4602 14.2727C59.5208 14.9091 60.3769 15.8902 61.0284 17.2159C61.6799 18.5417 62.0057 20.2311 62.0057 22.2841C62.0057 24.2614 61.6913 25.9167 61.0625 27.25C60.4413 28.5833 59.6004 29.5833 58.5398 30.25C57.4867 30.9167 56.3163 31.25 55.0284 31.25C54.1496 31.25 53.3882 31.1061 52.7443 30.8182C52.1004 30.5303 51.5587 30.1515 51.1193 29.6818C50.6875 29.2121 50.3542 28.7083 50.1193 28.1705H49.9488V31H44.4488ZM49.892 22.2727C49.892 23.2121 50.017 24.0303 50.267 24.7273C50.5246 25.4242 50.892 25.9659 51.3693 26.3523C51.8542 26.7311 52.4337 26.9205 53.1079 26.9205C53.7898 26.9205 54.3693 26.7311 54.8466 26.3523C55.3238 25.9659 55.6837 25.4242 55.9261 24.7273C56.1761 24.0303 56.3011 23.2121 56.3011 22.2727C56.3011 21.3333 56.1761 20.5189 55.9261 19.8295C55.6837 19.1402 55.3238 18.6061 54.8466 18.2273C54.3769 17.8485 53.7973 17.6591 53.1079 17.6591C52.4261 17.6591 51.8466 17.8447 51.3693 18.2159C50.892 18.5871 50.5246 19.1174 50.267 19.8068C50.017 20.4962 49.892 21.3182 49.892 22.2727ZM64.9176 31V13.5455H70.4744V31H64.9176ZM67.7017 11.5114C66.9214 11.5114 66.2509 11.2538 65.6903 10.7386C65.1297 10.2159 64.8494 9.58712 64.8494 8.85227C64.8494 8.125 65.1297 7.50379 65.6903 6.98864C66.2509 6.46591 66.9214 6.20454 67.7017 6.20454C68.4896 6.20454 69.16 6.46591 69.7131 6.98864C70.2737 7.50379 70.554 8.125 70.554 8.85227C70.554 9.58712 70.2737 10.2159 69.7131 10.7386C69.16 11.2538 68.4896 11.5114 67.7017 11.5114ZM79.5682 7.72727V31H74.0113V7.72727H79.5682ZM83.1051 31V13.5455H88.6619V31H83.1051ZM85.8892 11.5114C85.1089 11.5114 84.4384 11.2538 83.8778 10.7386C83.3172 10.2159 83.0369 9.58712 83.0369 8.85227C83.0369 8.125 83.3172 7.50379 83.8778 6.98864C84.4384 6.46591 85.1089 6.20454 85.8892 6.20454C86.6771 6.20454 87.3475 6.46591 87.9006 6.98864C88.4612 7.50379 88.7415 8.125 88.7415 8.85227C88.7415 9.58712 88.4612 10.2159 87.9006 10.7386C87.3475 11.2538 86.6771 11.5114 85.8892 11.5114ZM98.5738 31.25C97.286 31.25 96.1155 30.9167 95.0625 30.25C94.0095 29.5833 93.1685 28.5833 92.5398 27.25C91.911 25.9167 91.5966 24.2614 91.5966 22.2841C91.5966 20.2311 91.9223 18.5417 92.5738 17.2159C93.2254 15.8902 94.0776 14.9091 95.1307 14.2727C96.1913 13.6364 97.3314 13.3182 98.5511 13.3182C99.4678 13.3182 100.252 13.4773 100.903 13.7955C101.555 14.1061 102.093 14.5076 102.517 15C102.941 15.4924 103.263 16.0038 103.483 16.5341H103.597V7.72727H109.153V31H103.653V28.1705H103.483C103.248 28.7083 102.915 29.2121 102.483 29.6818C102.051 30.1515 101.509 30.5303 100.858 30.8182C100.214 31.1061 99.4526 31.25 98.5738 31.25ZM100.506 26.9205C101.18 26.9205 101.756 26.7311 102.233 26.3523C102.71 25.9659 103.078 25.4242 103.335 24.7273C103.593 24.0303 103.722 23.2121 103.722 22.2727C103.722 21.3182 103.593 20.4962 103.335 19.8068C103.085 19.1174 102.718 18.5871 102.233 18.2159C101.756 17.8447 101.18 17.6591 100.506 17.6591C99.8163 17.6591 99.2329 17.8485 98.7557 18.2273C98.2784 18.6061 97.9148 19.1402 97.6648 19.8295C97.4223 20.5189 97.3011 21.3333 97.3011 22.2727C97.3011 23.2121 97.4261 24.0303 97.6761 24.7273C97.9261 25.4242 98.286 25.9659 98.7557 26.3523C99.2329 26.7311 99.8163 26.9205 100.506 26.9205ZM117.588 31.2955C116.474 31.2955 115.486 31.1098 114.622 30.7386C113.766 30.3598 113.088 29.7917 112.588 29.0341C112.096 28.2689 111.849 27.3106 111.849 26.1591C111.849 25.1894 112.02 24.3712 112.361 23.7045C112.702 23.0379 113.171 22.4962 113.77 22.0795C114.368 21.6629 115.058 21.3485 115.838 21.1364C116.618 20.9167 117.452 20.7689 118.338 20.6932C119.33 20.6023 120.13 20.5076 120.736 20.4091C121.342 20.303 121.781 20.1553 122.054 19.9659C122.334 19.7689 122.474 19.4924 122.474 19.1364V19.0795C122.474 18.4962 122.274 18.0455 121.872 17.7273C121.471 17.4091 120.929 17.25 120.247 17.25C119.512 17.25 118.921 17.4091 118.474 17.7273C118.027 18.0455 117.743 18.4848 117.622 19.0455L112.497 18.8636C112.649 17.803 113.039 16.8561 113.668 16.0227C114.304 15.1818 115.175 14.5227 116.281 14.0455C117.395 13.5606 118.732 13.3182 120.293 13.3182C121.406 13.3182 122.433 13.4508 123.372 13.7159C124.312 13.9735 125.13 14.3523 125.827 14.8523C126.524 15.3447 127.062 15.9508 127.44 16.6705C127.827 17.3902 128.02 18.2121 128.02 19.1364V31H122.793V28.5682H122.656C122.346 29.1591 121.948 29.6591 121.463 30.0682C120.986 30.4773 120.421 30.7841 119.77 30.9886C119.126 31.1932 118.399 31.2955 117.588 31.2955ZM119.304 27.6591C119.902 27.6591 120.44 27.5379 120.918 27.2955C121.402 27.053 121.789 26.7197 122.077 26.2955C122.365 25.8636 122.509 25.3636 122.509 24.7955V23.1364C122.349 23.2197 122.156 23.2955 121.929 23.3636C121.709 23.4318 121.467 23.4962 121.202 23.5568C120.937 23.6174 120.664 23.6705 120.384 23.7159C120.103 23.7614 119.834 23.803 119.577 23.8409C119.054 23.9242 118.607 24.053 118.236 24.2273C117.872 24.4015 117.592 24.6288 117.395 24.9091C117.205 25.1818 117.111 25.5076 117.111 25.8864C117.111 26.4621 117.315 26.9015 117.724 27.2045C118.141 27.5076 118.668 27.6591 119.304 27.6591ZM137.793 31.25C136.505 31.25 135.334 30.9167 134.281 30.25C133.228 29.5833 132.387 28.5833 131.759 27.25C131.13 25.9167 130.815 24.2614 130.815 22.2841C130.815 20.2311 131.141 18.5417 131.793 17.2159C132.444 15.8902 133.296 14.9091 134.349 14.2727C135.41 13.6364 136.55 13.3182 137.77 13.3182C138.687 13.3182 139.471 13.4773 140.122 13.7955C140.774 14.1061 141.312 14.5076 141.736 15C142.16 15.4924 142.482 16.0038 142.702 16.5341H142.815V7.72727H148.372V31H142.872V28.1705H142.702C142.467 28.7083 142.134 29.2121 141.702 29.6818C141.27 30.1515 140.728 30.5303 140.077 30.8182C139.433 31.1061 138.671 31.25 137.793 31.25ZM139.724 26.9205C140.399 26.9205 140.974 26.7311 141.452 26.3523C141.929 25.9659 142.296 25.4242 142.554 24.7273C142.812 24.0303 142.94 23.2121 142.94 22.2727C142.94 21.3182 142.812 20.4962 142.554 19.8068C142.304 19.1174 141.937 18.5871 141.452 18.2159C140.974 17.8447 140.399 17.6591 139.724 17.6591C139.035 17.6591 138.452 17.8485 137.974 18.2273C137.497 18.6061 137.134 19.1402 136.884 19.8295C136.641 20.5189 136.52 21.3333 136.52 22.2727C136.52 23.2121 136.645 24.0303 136.895 24.7273C137.145 25.4242 137.505 25.9659 137.974 26.3523C138.452 26.7311 139.035 26.9205 139.724 26.9205ZM160.045 31.3295C158.22 31.3295 156.644 30.9697 155.318 30.25C154 29.5227 152.985 28.4886 152.273 27.1477C151.568 25.7992 151.216 24.197 151.216 22.3409C151.216 20.5379 151.572 18.9621 152.284 17.6136C152.996 16.2576 154 15.2045 155.295 14.4545C156.591 13.697 158.117 13.3182 159.875 13.3182C161.117 13.3182 162.254 13.5114 163.284 13.8977C164.314 14.2841 165.205 14.8561 165.955 15.6136C166.705 16.3712 167.288 17.3068 167.705 18.4205C168.121 19.5265 168.33 20.7955 168.33 22.2273V23.6136H153.159V20.3864H163.159C163.152 19.7955 163.011 19.2689 162.739 18.8068C162.466 18.3447 162.091 17.9848 161.614 17.7273C161.144 17.4621 160.602 17.3295 159.989 17.3295C159.367 17.3295 158.811 17.4697 158.318 17.75C157.826 18.0227 157.436 18.3977 157.148 18.875C156.86 19.3447 156.708 19.8788 156.693 20.4773V23.7614C156.693 24.4735 156.833 25.0985 157.114 25.6364C157.394 26.1667 157.792 26.5795 158.307 26.875C158.822 27.1705 159.436 27.3182 160.148 27.3182C160.64 27.3182 161.087 27.25 161.489 27.1136C161.89 26.9773 162.235 26.7765 162.523 26.5114C162.811 26.2462 163.027 25.9205 163.17 25.5341L168.273 25.6818C168.061 26.8258 167.595 27.822 166.875 28.6705C166.163 29.5114 165.227 30.1667 164.068 30.6364C162.909 31.0985 161.568 31.3295 160.045 31.3295ZM186.406 18.875L181.304 19.0114C181.251 18.6477 181.107 18.3258 180.872 18.0455C180.637 17.7576 180.33 17.5341 179.952 17.375C179.58 17.2083 179.149 17.125 178.656 17.125C178.012 17.125 177.463 17.2538 177.009 17.5114C176.562 17.7689 176.342 18.1174 176.349 18.5568C176.342 18.8977 176.478 19.1932 176.759 19.4432C177.046 19.6932 177.558 19.8939 178.293 20.0455L181.656 20.6818C183.399 21.0152 184.694 21.5682 185.543 22.3409C186.399 23.1136 186.83 24.1364 186.838 25.4091C186.83 26.6061 186.474 27.6477 185.77 28.5341C185.073 29.4205 184.118 30.1098 182.906 30.6023C181.694 31.0871 180.308 31.3295 178.747 31.3295C176.255 31.3295 174.289 30.8182 172.849 29.7955C171.418 28.7652 170.599 27.3864 170.395 25.6591L175.884 25.5227C176.005 26.1591 176.319 26.6439 176.827 26.9773C177.334 27.3106 177.982 27.4773 178.77 27.4773C179.482 27.4773 180.062 27.3447 180.509 27.0795C180.955 26.8144 181.183 26.4621 181.19 26.0227C181.183 25.6288 181.009 25.3144 180.668 25.0795C180.327 24.8371 179.793 24.6477 179.065 24.5114L176.02 23.9318C174.27 23.6136 172.967 23.0265 172.111 22.1705C171.255 21.3068 170.83 20.2083 170.838 18.875C170.83 17.7083 171.141 16.7121 171.77 15.8864C172.399 15.053 173.293 14.4167 174.452 13.9773C175.611 13.5379 176.978 13.3182 178.554 13.3182C180.918 13.3182 182.781 13.8144 184.145 14.8068C185.509 15.7917 186.262 17.1477 186.406 18.875Z" fill="black"/>
<path d="M193 16.1252C193 14.4533 193.409 12.8073 194.19 11.3344C194.971 9.86143 196.101 8.6073 197.478 7.68398C198.854 6.76066 200.435 6.19688 202.08 6.04298C203.724 5.88909 205.38 6.14987 206.901 6.80205C208.421 7.45422 209.759 8.47748 210.793 9.78047C211.828 11.0835 212.528 12.6256 212.831 14.2692C213.133 15.9128 213.029 17.6068 212.528 19.1997C212.026 20.7927 211.143 22.2351 209.957 23.3982C209.618 23.729 209.358 24.0732 209.202 24.4428L207.932 27.4279C207.867 27.5792 207.76 27.7081 207.625 27.7987C207.489 27.8892 207.329 27.9375 207.167 27.9376H198.833C198.67 27.9378 198.511 27.8897 198.375 27.7991C198.238 27.7086 198.131 27.5795 198.067 27.4279L196.798 24.4411C196.617 24.0467 196.36 23.6923 196.043 23.3982C195.079 22.4552 194.313 21.3251 193.79 20.0755C193.267 18.8259 192.999 17.4824 193 16.1252ZM198 30.4688C198 30.245 198.088 30.0304 198.244 29.8722C198.4 29.7139 198.612 29.625 198.833 29.625H207.167C207.388 29.625 207.6 29.7139 207.756 29.8722C207.912 30.0304 208 30.245 208 30.4688C208 30.6926 207.912 30.9072 207.756 31.0654C207.6 31.2236 207.388 31.3125 207.167 31.3125L206.793 32.0668C206.655 32.3471 206.442 32.5828 206.179 32.7476C205.916 32.9124 205.613 32.9998 205.303 33H200.697C200.387 32.9998 200.084 32.9124 199.821 32.7476C199.558 32.5828 199.345 32.3471 199.207 32.0668L198.833 31.3125C198.612 31.3125 198.4 31.2236 198.244 31.0654C198.088 30.9072 198 30.6926 198 30.4688Z" fill="black"/>
</svg>
