<svg width="180" height="24" viewBox="0 0 180 24" fill="none" xmlns="http://www.w3.org/2000/svg">
<path d="M1.43466 19V4.45455H7.00284C8.05398 4.45455 8.92756 4.62026 9.62358 4.9517C10.3243 5.27841 10.8475 5.72585 11.1932 6.29403C11.5436 6.86222 11.7188 7.50616 11.7188 8.22585C11.7188 8.81771 11.6051 9.32434 11.3778 9.74574C11.1506 10.1624 10.8452 10.5009 10.4616 10.7614C10.0781 11.0218 9.64962 11.2088 9.17614 11.3224V11.4645C9.69224 11.4929 10.187 11.6515 10.6605 11.9403C11.1387 12.2244 11.5294 12.6269 11.8324 13.1477C12.1354 13.6686 12.2869 14.2983 12.2869 15.0369C12.2869 15.7898 12.1046 16.4669 11.7401 17.0682C11.3755 17.6648 10.8262 18.1359 10.0923 18.4815C9.35843 18.8272 8.43513 19 7.32244 19H1.43466ZM4.0696 16.7983H6.90341C7.85985 16.7983 8.54877 16.616 8.97017 16.2514C9.39631 15.8821 9.60938 15.4086 9.60938 14.831C9.60938 14.4001 9.50284 14.0118 9.28977 13.6662C9.0767 13.3158 8.77367 13.0412 8.38068 12.8423C7.98769 12.6387 7.51894 12.5369 6.97443 12.5369H4.0696V16.7983ZM4.0696 10.6406H6.67614C7.13068 10.6406 7.54025 10.5578 7.90483 10.392C8.26941 10.2216 8.55587 9.98248 8.7642 9.67472C8.97727 9.36222 9.08381 8.9929 9.08381 8.56676C9.08381 8.00331 8.88494 7.5393 8.48722 7.17472C8.09422 6.81013 7.50947 6.62784 6.73295 6.62784H4.0696V10.6406ZM17.6048 19.2202C16.9135 19.2202 16.2908 19.0971 15.7369 18.8509C15.1876 18.5999 14.752 18.2306 14.43 17.7429C14.1128 17.2552 13.9542 16.6539 13.9542 15.9389C13.9542 15.3234 14.0678 14.8144 14.2951 14.4119C14.5224 14.0095 14.8325 13.6875 15.2255 13.446C15.6185 13.2045 16.0612 13.0223 16.5536 12.8991C17.0508 12.7713 17.5645 12.679 18.0948 12.6222C18.734 12.5559 19.2525 12.4967 19.6502 12.4446C20.0479 12.3878 20.3368 12.3026 20.5167 12.1889C20.7013 12.0705 20.7937 11.8883 20.7937 11.642V11.5994C20.7937 11.0644 20.6351 10.6501 20.3178 10.3565C20.0006 10.063 19.5437 9.91619 18.9471 9.91619C18.3174 9.91619 17.8178 10.0535 17.4485 10.3281C17.0839 10.6027 16.8377 10.9271 16.7099 11.3011L14.3093 10.9602C14.4987 10.2973 14.8112 9.74337 15.2468 9.2983C15.6824 8.84848 16.2151 8.51231 16.8448 8.28977C17.4746 8.0625 18.1706 7.94886 18.9329 7.94886C19.4585 7.94886 19.9817 8.01042 20.5025 8.13352C21.0233 8.25663 21.4992 8.46023 21.93 8.74432C22.3609 9.02367 22.7066 9.40483 22.967 9.88778C23.2321 10.3707 23.3647 10.9744 23.3647 11.6989V19H20.8931V17.5014H20.8079C20.6516 17.8045 20.4315 18.0885 20.1474 18.3537C19.868 18.6141 19.5153 18.8248 19.0891 18.9858C18.6677 19.142 18.1729 19.2202 17.6048 19.2202ZM18.2724 17.331C18.7885 17.331 19.2359 17.2292 19.6147 17.0256C19.9935 16.8172 20.2847 16.5426 20.4883 16.2017C20.6966 15.8608 20.8008 15.4891 20.8008 15.0866V13.8011C20.7203 13.8674 20.583 13.929 20.3888 13.9858C20.1995 14.0426 19.9864 14.0923 19.7496 14.1349C19.5129 14.1776 19.2785 14.2154 19.0465 14.2486C18.8145 14.2817 18.6133 14.3101 18.4428 14.3338C18.0593 14.3859 17.716 14.4711 17.413 14.5895C17.11 14.7079 16.8709 14.8736 16.6957 15.0866C16.5205 15.295 16.4329 15.5649 16.4329 15.8963C16.4329 16.3698 16.6057 16.7273 16.9513 16.9688C17.297 17.2102 17.7373 17.331 18.2724 17.331ZM28.521 12.608V19H25.9499V8.09091H28.4073V9.9446H28.5352C28.7861 9.33381 29.1862 8.84848 29.7354 8.48864C30.2894 8.12879 30.9736 7.94886 31.788 7.94886C32.5408 7.94886 33.1966 8.10985 33.7553 8.43182C34.3188 8.75379 34.7544 9.22017 35.0621 9.83097C35.3746 10.4418 35.5285 11.1828 35.5238 12.054V19H32.9528V12.4517C32.9528 11.7225 32.7634 11.152 32.3846 10.7401C32.0105 10.3281 31.4921 10.1222 30.8292 10.1222C30.3794 10.1222 29.9793 10.2216 29.6289 10.4205C29.2833 10.6146 29.011 10.8963 28.8121 11.2656C28.618 11.6349 28.521 12.0824 28.521 12.608ZM42.896 19.2131C41.8069 19.2131 40.8718 18.974 40.0906 18.4957C39.314 18.0175 38.7151 17.357 38.2937 16.5142C37.877 15.6667 37.6687 14.6913 37.6687 13.5881C37.6687 12.4801 37.8817 11.5024 38.3079 10.6548C38.734 9.80256 39.3353 9.13968 40.1119 8.66619C40.8931 8.18797 41.8164 7.94886 42.8817 7.94886C43.7672 7.94886 44.5508 8.11222 45.2326 8.43892C45.9192 8.76089 46.466 9.2178 46.8732 9.80966C47.2804 10.3968 47.5124 11.0833 47.5692 11.8693H45.1119C45.0124 11.3437 44.7757 10.9058 44.4016 10.5554C44.0323 10.2003 43.5375 10.0227 42.9173 10.0227C42.3917 10.0227 41.93 10.1648 41.5323 10.4489C41.1346 10.7282 40.8245 11.1307 40.6019 11.6562C40.3841 12.1818 40.2752 12.8116 40.2752 13.5455C40.2752 14.2888 40.3841 14.928 40.6019 15.4631C40.8197 15.9934 41.1251 16.4029 41.5181 16.6918C41.9158 16.9759 42.3822 17.1179 42.9173 17.1179C43.296 17.1179 43.6346 17.0469 43.9329 16.9048C44.2359 16.758 44.4892 16.5473 44.6928 16.2727C44.8964 15.9981 45.0361 15.6643 45.1119 15.2713H47.5692C47.5077 16.0431 47.2804 16.7273 46.8874 17.3239C46.4944 17.9157 45.9594 18.3797 45.2823 18.7159C44.6052 19.0473 43.8098 19.2131 42.896 19.2131ZM54.4389 19.2131C53.3736 19.2131 52.4503 18.9787 51.669 18.5099C50.8878 18.0412 50.2817 17.3854 49.8509 16.5426C49.4247 15.6998 49.2116 14.715 49.2116 13.5881C49.2116 12.4612 49.4247 11.474 49.8509 10.6264C50.2817 9.77888 50.8878 9.12074 51.669 8.65199C52.4503 8.18324 53.3736 7.94886 54.4389 7.94886C55.5043 7.94886 56.4276 8.18324 57.2088 8.65199C57.9901 9.12074 58.5938 9.77888 59.0199 10.6264C59.4508 11.474 59.6662 12.4612 59.6662 13.5881C59.6662 14.715 59.4508 15.6998 59.0199 16.5426C58.5938 17.3854 57.9901 18.0412 57.2088 18.5099C56.4276 18.9787 55.5043 19.2131 54.4389 19.2131ZM54.4531 17.1534C55.0308 17.1534 55.5137 16.9948 55.902 16.6776C56.2902 16.3556 56.5791 15.9247 56.7685 15.3849C56.9626 14.8452 57.0597 14.2438 57.0597 13.581C57.0597 12.9134 56.9626 12.3097 56.7685 11.7699C56.5791 11.2254 56.2902 10.7921 55.902 10.4702C55.5137 10.1482 55.0308 9.98722 54.4531 9.98722C53.8613 9.98722 53.3688 10.1482 52.9759 10.4702C52.5876 10.7921 52.2964 11.2254 52.1023 11.7699C51.9129 12.3097 51.8182 12.9134 51.8182 13.581C51.8182 14.2438 51.9129 14.8452 52.1023 15.3849C52.2964 15.9247 52.5876 16.3556 52.9759 16.6776C53.3688 16.9948 53.8613 17.1534 54.4531 17.1534ZM71.8519 19H66.9229V4.45455H71.9513C73.3955 4.45455 74.636 4.74574 75.6729 5.32812C76.7146 5.90578 77.5148 6.73674 78.0735 7.82102C78.6322 8.9053 78.9116 10.2027 78.9116 11.7131C78.9116 13.2282 78.6299 14.5303 78.0664 15.6193C77.5077 16.7083 76.7004 17.544 75.6445 18.1264C74.5934 18.7088 73.3292 19 71.8519 19ZM69.5579 16.7202H71.7241C72.7373 16.7202 73.5825 16.5355 74.2596 16.1662C74.9367 15.7921 75.4457 15.2358 75.7866 14.4972C76.1275 13.7538 76.2979 12.8258 76.2979 11.7131C76.2979 10.6004 76.1275 9.67708 75.7866 8.94318C75.4457 8.20455 74.9414 7.65294 74.2738 7.28835C73.6109 6.91903 72.7871 6.73438 71.8022 6.73438H69.5579V16.7202ZM86.131 19.2131C85.0373 19.2131 84.0927 18.9858 83.2972 18.5312C82.5065 18.072 81.8981 17.4233 81.4719 16.5852C81.0458 15.7424 80.8327 14.7505 80.8327 13.6094C80.8327 12.4872 81.0458 11.5024 81.4719 10.6548C81.9028 9.80256 82.5041 9.13968 83.2759 8.66619C84.0477 8.18797 84.9544 7.94886 85.9961 7.94886C86.6684 7.94886 87.3029 8.05777 87.8995 8.27557C88.5008 8.48864 89.0311 8.82008 89.4904 9.26989C89.9544 9.7197 90.319 10.2926 90.5842 10.9886C90.8493 11.6799 90.9819 12.5038 90.9819 13.4602V14.2486H82.0401V12.5156H88.5174C88.5127 12.0232 88.4061 11.5852 88.1978 11.2017C87.9895 10.8134 87.6983 10.508 87.3242 10.2855C86.9549 10.063 86.524 9.9517 86.0316 9.9517C85.506 9.9517 85.0444 10.0795 84.6467 10.3352C84.2489 10.5862 83.9388 10.9176 83.7163 11.3295C83.4985 11.7367 83.3872 12.1842 83.3825 12.6719V14.1847C83.3825 14.8191 83.4985 15.3636 83.7305 15.8182C83.9625 16.268 84.2868 16.6136 84.7035 16.8551C85.1201 17.0919 85.6078 17.2102 86.1665 17.2102C86.5406 17.2102 86.8791 17.1581 87.1822 17.054C87.4852 16.9451 87.748 16.7865 87.9705 16.5781C88.1931 16.3698 88.3612 16.1117 88.4748 15.804L90.8754 16.0739C90.7238 16.7083 90.435 17.2623 90.0089 17.7358C89.5875 18.2045 89.0477 18.5691 88.3896 18.8295C87.7314 19.0852 86.9786 19.2131 86.131 19.2131ZM103.161 19H98.2315V4.45455H103.26C104.704 4.45455 105.945 4.74574 106.982 5.32812C108.023 5.90578 108.823 6.73674 109.382 7.82102C109.941 8.9053 110.22 10.2027 110.22 11.7131C110.22 13.2282 109.938 14.5303 109.375 15.6193C108.816 16.7083 108.009 17.544 106.953 18.1264C105.902 18.7088 104.638 19 103.161 19ZM100.866 16.7202H103.033C104.046 16.7202 104.891 16.5355 105.568 16.1662C106.245 15.7921 106.754 15.2358 107.095 14.4972C107.436 13.7538 107.607 12.8258 107.607 11.7131C107.607 10.6004 107.436 9.67708 107.095 8.94318C106.754 8.20455 106.25 7.65294 105.582 7.28835C104.92 6.91903 104.096 6.73438 103.111 6.73438H100.866V16.7202ZM115.749 19.2202C115.058 19.2202 114.435 19.0971 113.881 18.8509C113.332 18.5999 112.897 18.2306 112.575 17.7429C112.257 17.2552 112.099 16.6539 112.099 15.9389C112.099 15.3234 112.212 14.8144 112.44 14.4119C112.667 14.0095 112.977 13.6875 113.37 13.446C113.763 13.2045 114.206 13.0223 114.698 12.8991C115.195 12.7713 115.709 12.679 116.239 12.6222C116.879 12.5559 117.397 12.4967 117.795 12.4446C118.192 12.3878 118.481 12.3026 118.661 12.1889C118.846 12.0705 118.938 11.8883 118.938 11.642V11.5994C118.938 11.0644 118.78 10.6501 118.462 10.3565C118.145 10.063 117.688 9.91619 117.092 9.91619C116.462 9.91619 115.962 10.0535 115.593 10.3281C115.228 10.6027 114.982 10.9271 114.854 11.3011L112.454 10.9602C112.643 10.2973 112.956 9.74337 113.391 9.2983C113.827 8.84848 114.36 8.51231 114.989 8.28977C115.619 8.0625 116.315 7.94886 117.077 7.94886C117.603 7.94886 118.126 8.01042 118.647 8.13352C119.168 8.25663 119.644 8.46023 120.075 8.74432C120.505 9.02367 120.851 9.40483 121.112 9.88778C121.377 10.3707 121.509 10.9744 121.509 11.6989V19H119.038V17.5014H118.952C118.796 17.8045 118.576 18.0885 118.292 18.3537C118.013 18.6141 117.66 18.8248 117.234 18.9858C116.812 19.142 116.317 19.2202 115.749 19.2202ZM116.417 17.331C116.933 17.331 117.38 17.2292 117.759 17.0256C118.138 16.8172 118.429 16.5426 118.633 16.2017C118.841 15.8608 118.945 15.4891 118.945 15.0866V13.8011C118.865 13.8674 118.728 13.929 118.533 13.9858C118.344 14.0426 118.131 14.0923 117.894 14.1349C117.657 14.1776 117.423 14.2154 117.191 14.2486C116.959 14.2817 116.758 14.3101 116.587 14.3338C116.204 14.3859 115.861 14.4711 115.558 14.5895C115.254 14.7079 115.015 14.8736 114.84 15.0866C114.665 15.295 114.577 15.5649 114.577 15.8963C114.577 16.3698 114.75 16.7273 115.096 16.9688C115.442 17.2102 115.882 17.331 116.417 17.331ZM128.143 19.1918C127.286 19.1918 126.519 18.9716 125.842 18.5312C125.165 18.0909 124.629 17.4517 124.237 16.6136C123.844 15.7756 123.647 14.7576 123.647 13.5597C123.647 12.3475 123.846 11.3248 124.244 10.4915C124.646 9.65341 125.188 9.02131 125.87 8.59517C126.552 8.1643 127.312 7.94886 128.15 7.94886C128.789 7.94886 129.315 8.05777 129.727 8.27557C130.138 8.48864 130.465 8.74669 130.707 9.04972C130.948 9.34801 131.135 9.62973 131.268 9.89489H131.374V4.45455H133.952V19H131.424V17.2812H131.268C131.135 17.5464 130.943 17.8281 130.692 18.1264C130.442 18.42 130.11 18.6709 129.698 18.8793C129.286 19.0876 128.768 19.1918 128.143 19.1918ZM128.86 17.0824C129.405 17.0824 129.869 16.9356 130.252 16.642C130.636 16.3437 130.927 15.9295 131.126 15.3991C131.325 14.8688 131.424 14.2509 131.424 13.5455C131.424 12.84 131.325 12.2268 131.126 11.706C130.932 11.1851 130.643 10.7803 130.259 10.4915C129.88 10.2027 129.414 10.0582 128.86 10.0582C128.287 10.0582 127.809 10.2074 127.425 10.5057C127.042 10.804 126.753 11.2159 126.559 11.7415C126.365 12.267 126.268 12.8684 126.268 13.5455C126.268 14.2273 126.365 14.8357 126.559 15.3707C126.758 15.901 127.049 16.3201 127.433 16.6278C127.821 16.9309 128.297 17.0824 128.86 17.0824ZM141.451 19.2131C140.385 19.2131 139.462 18.9787 138.681 18.5099C137.9 18.0412 137.293 17.3854 136.863 16.5426C136.436 15.6998 136.223 14.715 136.223 13.5881C136.223 12.4612 136.436 11.474 136.863 10.6264C137.293 9.77888 137.9 9.12074 138.681 8.65199C139.462 8.18324 140.385 7.94886 141.451 7.94886C142.516 7.94886 143.439 8.18324 144.221 8.65199C145.002 9.12074 145.605 9.77888 146.032 10.6264C146.462 11.474 146.678 12.4612 146.678 13.5881C146.678 14.715 146.462 15.6998 146.032 16.5426C145.605 17.3854 145.002 18.0412 144.221 18.5099C143.439 18.9787 142.516 19.2131 141.451 19.2131ZM141.465 17.1534C142.042 17.1534 142.525 16.9948 142.914 16.6776C143.302 16.3556 143.591 15.9247 143.78 15.3849C143.974 14.8452 144.071 14.2438 144.071 13.581C144.071 12.9134 143.974 12.3097 143.78 11.7699C143.591 11.2254 143.302 10.7921 142.914 10.4702C142.525 10.1482 142.042 9.98722 141.465 9.98722C140.873 9.98722 140.381 10.1482 139.988 10.4702C139.599 10.7921 139.308 11.2254 139.114 11.7699C138.925 12.3097 138.83 12.9134 138.83 13.581C138.83 14.2438 138.925 14.8452 139.114 15.3849C139.308 15.9247 139.599 16.3556 139.988 16.6776C140.381 16.9948 140.873 17.1534 141.465 17.1534ZM157.482 10.9744L155.138 11.2301C155.072 10.9934 154.956 10.7708 154.79 10.5625C154.629 10.3542 154.412 10.1861 154.137 10.0582C153.862 9.9304 153.526 9.86648 153.129 9.86648C152.594 9.86648 152.144 9.98248 151.779 10.2145C151.419 10.4465 151.242 10.7472 151.246 11.1165C151.242 11.4337 151.358 11.6918 151.594 11.8906C151.836 12.0895 152.234 12.2528 152.788 12.3807L154.648 12.7784C155.681 13.0009 156.448 13.3537 156.95 13.8366C157.456 14.3196 157.712 14.9517 157.717 15.733C157.712 16.4195 157.511 17.0256 157.113 17.5511C156.72 18.072 156.173 18.4792 155.472 18.7727C154.772 19.0663 153.967 19.2131 153.058 19.2131C151.722 19.2131 150.647 18.9337 149.833 18.375C149.019 17.8116 148.533 17.0279 148.377 16.0241L150.884 15.7827C150.998 16.2751 151.239 16.6468 151.609 16.8977C151.978 17.1487 152.459 17.2741 153.05 17.2741C153.661 17.2741 154.151 17.1487 154.521 16.8977C154.895 16.6468 155.082 16.3366 155.082 15.9673C155.082 15.6548 154.961 15.3968 154.719 15.1932C154.483 14.9896 154.113 14.8333 153.612 14.7244L151.751 14.3338C150.704 14.116 149.93 13.7491 149.428 13.233C148.926 12.7121 148.678 12.054 148.683 11.2585C148.678 10.5862 148.86 10.0038 149.229 9.51136C149.603 9.0142 150.122 8.63068 150.785 8.3608C151.452 8.08617 152.222 7.94886 153.093 7.94886C154.371 7.94886 155.378 8.22112 156.112 8.76562C156.85 9.31013 157.307 10.0464 157.482 10.9744Z" fill="white"/>
<path d="M173.047 14.1947C173.981 13.9396 174.791 13.3543 175.327 12.5473C175.862 11.7404 176.087 10.7666 175.959 9.80662C175.831 8.84661 175.359 7.96554 174.631 7.32684C173.903 6.68814 172.968 6.33516 172 6.33337C171.043 6.333 170.118 6.67576 169.392 7.29945C168.666 7.92314 168.188 8.78642 168.044 9.73259C167.9 10.6788 168.1 11.6451 168.608 12.4562C169.116 13.2674 169.898 13.8695 170.812 14.1534C171.701 13.5667 172.673 12.94 173.419 12.4627C173.717 12.2707 174.063 12.616 173.872 12.916L173.045 14.196L173.047 14.1947ZM173.333 10.3334C173.333 10.687 173.193 11.0261 172.943 11.2762C172.693 11.5262 172.354 11.6667 172 11.6667C171.646 11.6667 171.307 11.5262 171.057 11.2762C170.807 11.0261 170.667 10.687 170.667 10.3334C170.667 9.97975 170.807 9.64061 171.057 9.39057C171.307 9.14052 171.646 9.00004 172 9.00004C172.354 9.00004 172.693 9.14052 172.943 9.39057C173.193 9.64061 173.333 9.97975 173.333 10.3334Z" fill="white"/>
<path d="M166.667 1C165.959 1 165.281 1.28095 164.781 1.78105C164.281 2.28115 164 2.95942 164 3.66667V19.6667C164 20.3739 164.281 21.0522 164.781 21.5523C165.281 22.0524 165.959 22.3333 166.667 22.3333H177.333C178.041 22.3333 178.719 22.0524 179.219 21.5523C179.719 21.0522 180 20.3739 180 19.6667V3.66667C180 2.95942 179.719 2.28115 179.219 1.78105C178.719 1.28095 178.041 1 177.333 1H166.667ZM178.667 3C178.667 3.17681 178.596 3.34638 178.471 3.4714C178.346 3.59643 178.177 3.66667 178 3.66667C177.823 3.66667 177.654 3.59643 177.529 3.4714C177.404 3.34638 177.333 3.17681 177.333 3C177.333 2.82319 177.404 2.65362 177.529 2.5286C177.654 2.40357 177.823 2.33333 178 2.33333C178.177 2.33333 178.346 2.40357 178.471 2.5286C178.596 2.65362 178.667 2.82319 178.667 3ZM178.667 20.3333C178.667 20.5101 178.596 20.6797 178.471 20.8047C178.346 20.9298 178.177 21 178 21C177.823 21 177.654 20.9298 177.529 20.8047C177.404 20.6797 177.333 20.5101 177.333 20.3333C177.333 20.1565 177.404 19.987 177.529 19.8619C177.654 19.7369 177.823 19.6667 178 19.6667C178.177 19.6667 178.346 19.7369 178.471 19.8619C178.596 19.987 178.667 20.1565 178.667 20.3333ZM166 21C165.823 21 165.654 20.9298 165.529 20.8047C165.404 20.6797 165.333 20.5101 165.333 20.3333C165.333 20.1565 165.404 19.987 165.529 19.8619C165.654 19.7369 165.823 19.6667 166 19.6667C166.177 19.6667 166.346 19.7369 166.471 19.8619C166.596 19.987 166.667 20.1565 166.667 20.3333C166.667 20.5101 166.596 20.6797 166.471 20.8047C166.346 20.9298 166.177 21 166 21ZM166.667 3C166.667 3.17681 166.596 3.34638 166.471 3.4714C166.346 3.59643 166.177 3.66667 166 3.66667C165.823 3.66667 165.654 3.59643 165.529 3.4714C165.404 3.34638 165.333 3.17681 165.333 3C165.333 2.82319 165.404 2.65362 165.529 2.5286C165.654 2.40357 165.823 2.33333 166 2.33333C166.177 2.33333 166.346 2.40357 166.471 2.5286C166.596 2.65362 166.667 2.82319 166.667 3ZM170.509 17.9027C170.234 18.1785 169.86 18.3335 169.47 18.3336C169.08 18.3338 168.706 18.179 168.43 17.9033C168.154 17.6277 167.999 17.2538 167.999 16.8638C167.999 16.6707 168.037 16.4795 168.111 16.3011C168.185 16.1227 168.293 15.9606 168.429 15.824C168.563 15.6933 168.957 15.4053 169.489 15.04C168.344 14.4292 167.461 13.4218 167.005 12.2064C166.549 10.991 166.553 9.65121 167.014 8.43801C167.475 7.22482 168.363 6.22154 169.512 5.6162C170.66 5.01086 171.989 4.84501 173.251 5.14974C174.513 5.45447 175.62 6.20885 176.365 7.27152C177.111 8.33418 177.443 9.63217 177.3 10.9222C177.157 12.2123 176.548 13.4059 175.588 14.2793C174.628 15.1527 173.382 15.646 172.084 15.6667C171.368 16.7507 170.724 17.6867 170.509 17.9027Z" fill="white"/>
</svg>
