<svg width="93" height="24" viewBox="0 0 93 24" fill="none" xmlns="http://www.w3.org/2000/svg">
<path d="M6.36364 19H1.43466V4.45455H6.46307C7.9072 4.45455 9.14773 4.74574 10.1847 5.32812C11.2263 5.90578 12.0265 6.73674 12.5852 7.82102C13.1439 8.9053 13.4233 10.2027 13.4233 11.7131C13.4233 13.2282 13.1416 14.5303 12.5781 15.6193C12.0194 16.7083 11.2121 17.544 10.1562 18.1264C9.10511 18.7088 7.84091 19 6.36364 19ZM4.0696 16.7202H6.2358C7.24905 16.7202 8.09422 16.5355 8.77131 16.1662C9.44839 15.7921 9.95739 15.2358 10.2983 14.4972C10.6392 13.7538 10.8097 12.8258 10.8097 11.7131C10.8097 10.6004 10.6392 9.67708 10.2983 8.94318C9.95739 8.20455 9.45313 7.65294 8.78551 7.28835C8.12263 6.91903 7.29877 6.73438 6.31392 6.73438H4.0696V16.7202ZM20.6428 19.2131C19.549 19.2131 18.6044 18.9858 17.8089 18.5312C17.0182 18.072 16.4098 17.4233 15.9837 16.5852C15.5575 15.7424 15.3445 14.7505 15.3445 13.6094C15.3445 12.4872 15.5575 11.5024 15.9837 10.6548C16.4145 9.80256 17.0159 9.13968 17.7876 8.66619C18.5594 8.18797 19.4661 7.94886 20.5078 7.94886C21.1802 7.94886 21.8146 8.05777 22.4112 8.27557C23.0125 8.48864 23.5429 8.82008 24.0021 9.26989C24.4661 9.7197 24.8307 10.2926 25.0959 10.9886C25.361 11.6799 25.4936 12.5038 25.4936 13.4602V14.2486H16.5518V12.5156H23.0291C23.0244 12.0232 22.9179 11.5852 22.7095 11.2017C22.5012 10.8134 22.21 10.508 21.8359 10.2855C21.4666 10.063 21.0357 9.9517 20.5433 9.9517C20.0178 9.9517 19.5561 10.0795 19.1584 10.3352C18.7607 10.5862 18.4505 10.9176 18.228 11.3295C18.0102 11.7367 17.8989 12.1842 17.8942 12.6719V14.1847C17.8942 14.8191 18.0102 15.3636 18.2422 15.8182C18.4742 16.268 18.7985 16.6136 19.2152 16.8551C19.6319 17.0919 20.1196 17.2102 20.6783 17.2102C21.0523 17.2102 21.3909 17.1581 21.6939 17.054C21.9969 16.9451 22.2597 16.7865 22.4822 16.5781C22.7048 16.3698 22.8729 16.1117 22.9865 15.804L25.3871 16.0739C25.2356 16.7083 24.9467 17.2623 24.5206 17.7358C24.0992 18.2045 23.5594 18.5691 22.9013 18.8295C22.2431 19.0852 21.4903 19.2131 20.6428 19.2131ZM36.2908 10.9744L33.9471 11.2301C33.8808 10.9934 33.7648 10.7708 33.5991 10.5625C33.4381 10.3542 33.2203 10.1861 32.9457 10.0582C32.671 9.9304 32.3349 9.86648 31.9371 9.86648C31.4021 9.86648 30.9523 9.98248 30.5877 10.2145C30.2279 10.4465 30.0503 10.7472 30.055 11.1165C30.0503 11.4337 30.1663 11.6918 30.4031 11.8906C30.6445 12.0895 31.0423 12.2528 31.5962 12.3807L33.457 12.7784C34.4892 13.0009 35.2563 13.3537 35.7582 13.8366C36.2648 14.3196 36.5205 14.9517 36.5252 15.733C36.5205 16.4195 36.3192 17.0256 35.9215 17.5511C35.5285 18.072 34.9817 18.4792 34.2809 18.7727C33.5801 19.0663 32.7752 19.2131 31.8661 19.2131C30.5309 19.2131 29.4561 18.9337 28.6417 18.375C27.8273 17.8116 27.342 17.0279 27.1857 16.0241L29.6928 15.7827C29.8065 16.2751 30.0479 16.6468 30.4173 16.8977C30.7866 17.1487 31.2672 17.2741 31.859 17.2741C32.4698 17.2741 32.9599 17.1487 33.3292 16.8977C33.7032 16.6468 33.8903 16.3366 33.8903 15.9673C33.8903 15.6548 33.7695 15.3968 33.5281 15.1932C33.2913 14.9896 32.922 14.8333 32.4201 14.7244L30.5593 14.3338C29.5129 14.116 28.7388 13.7491 28.2369 13.233C27.735 12.7121 27.4864 12.054 27.4911 11.2585C27.4864 10.5862 27.6687 10.0038 28.038 9.51136C28.4121 9.0142 28.9305 8.63068 29.5934 8.3608C30.261 8.08617 31.0304 7.94886 31.9016 7.94886C33.18 7.94886 34.1862 8.22112 34.9201 8.76562C35.6587 9.31013 36.1156 10.0464 36.2908 10.9744ZM38.6452 19V8.09091H41.2163V19H38.6452ZM39.9379 6.54261C39.5307 6.54261 39.1803 6.40767 38.8867 6.13778C38.5932 5.86316 38.4464 5.53409 38.4464 5.15057C38.4464 4.76231 38.5932 4.43324 38.8867 4.16335C39.1803 3.88873 39.5307 3.75142 39.9379 3.75142C40.3498 3.75142 40.7002 3.88873 40.989 4.16335C41.2826 4.43324 41.4293 4.76231 41.4293 5.15057C41.4293 5.53409 41.2826 5.86316 40.989 6.13778C40.7002 6.40767 40.3498 6.54261 39.9379 6.54261ZM48.6044 23.3182C47.6811 23.3182 46.888 23.1927 46.2251 22.9418C45.5623 22.6955 45.0296 22.3641 44.6271 21.9474C44.2247 21.5308 43.9453 21.0691 43.7891 20.5625L46.1044 20.0014C46.2086 20.2145 46.3601 20.4252 46.5589 20.6335C46.7578 20.8466 47.0253 21.0218 47.3615 21.1591C47.7024 21.3011 48.1309 21.3722 48.647 21.3722C49.3762 21.3722 49.9799 21.1946 50.4581 20.8395C50.9363 20.4891 51.1754 19.9115 51.1754 19.1065V17.0398H51.0476C50.915 17.3049 50.7209 17.5772 50.4652 17.8565C50.2143 18.1359 49.8804 18.3703 49.4638 18.5597C49.0518 18.7491 48.5334 18.8438 47.9084 18.8438C47.0703 18.8438 46.3104 18.6473 45.6286 18.2543C44.9515 17.8565 44.4117 17.2647 44.0092 16.4787C43.6115 15.688 43.4126 14.6984 43.4126 13.5099C43.4126 12.312 43.6115 11.3011 44.0092 10.4773C44.4117 9.64867 44.9538 9.02131 45.6357 8.59517C46.3175 8.1643 47.0774 7.94886 47.9155 7.94886C48.5547 7.94886 49.0803 8.05777 49.4922 8.27557C49.9089 8.48864 50.2403 8.74669 50.4865 9.04972C50.7327 9.34801 50.9197 9.62973 51.0476 9.89489H51.1896V8.09091H53.7251V19.1776C53.7251 20.1103 53.5026 20.8821 53.0575 21.4929C52.6125 22.1037 52.004 22.5606 51.2322 22.8636C50.4605 23.1667 49.5845 23.3182 48.6044 23.3182ZM48.6257 16.8267C49.1702 16.8267 49.6342 16.6941 50.0178 16.429C50.4013 16.1638 50.6925 15.7827 50.8913 15.2855C51.0902 14.7884 51.1896 14.1918 51.1896 13.4957C51.1896 12.8092 51.0902 12.2079 50.8913 11.6918C50.6972 11.1757 50.4084 10.7756 50.0249 10.4915C49.6461 10.2027 49.1797 10.0582 48.6257 10.0582C48.0528 10.0582 47.5746 10.2074 47.1911 10.5057C46.8075 10.804 46.5187 11.2135 46.3246 11.7344C46.1304 12.2505 46.0334 12.8376 46.0334 13.4957C46.0334 14.1634 46.1304 14.7481 46.3246 15.25C46.5234 15.7472 46.8146 16.1354 47.1982 16.4148C47.5864 16.6894 48.0623 16.8267 48.6257 16.8267ZM58.9311 12.608V19H56.3601V8.09091H58.8175V9.9446H58.9453C59.1963 9.33381 59.5964 8.84848 60.1456 8.48864C60.6996 8.12879 61.3838 7.94886 62.1982 7.94886C62.951 7.94886 63.6068 8.10985 64.1655 8.43182C64.7289 8.75379 65.1645 9.22017 65.4723 9.83097C65.7848 10.4418 65.9387 11.1828 65.9339 12.054V19H63.3629V12.4517C63.3629 11.7225 63.1735 11.152 62.7947 10.7401C62.4207 10.3281 61.9022 10.1222 61.2393 10.1222C60.7895 10.1222 60.3894 10.2216 60.0391 10.4205C59.6934 10.6146 59.4212 10.8963 59.2223 11.2656C59.0282 11.6349 58.9311 12.0824 58.9311 12.608Z" fill="white"/>
<path d="M88.5413 14.5875C90.6663 15.2313 93 15.9375 93 12C93 10.0222 92.4135 8.08879 91.3147 6.4443C90.2159 4.79981 88.6541 3.51809 86.8268 2.76121C84.9996 2.00433 82.9889 1.8063 81.0491 2.19215C79.1093 2.578 77.3275 3.53041 75.9289 4.92894C74.5304 6.32746 73.578 8.10929 73.1922 10.0491C72.8063 11.9889 73.0043 13.9996 73.7612 15.8268C74.5181 17.6541 75.7998 19.2159 77.4443 20.3147C79.0888 21.4135 81.0222 22 83 22C85.495 22 85.2825 20.12 85.0613 18.15C84.9063 16.7738 84.7463 15.3538 85.5 14.5C86.0813 13.8413 87.275 14.2038 88.5413 14.5875ZM83 8.25C82.7538 8.25 82.51 8.20151 82.2825 8.10728C82.055 8.01305 81.8483 7.87494 81.6742 7.70083C81.5001 7.52672 81.362 7.32002 81.2677 7.09254C81.1735 6.86505 81.125 6.62123 81.125 6.375C81.125 6.12878 81.1735 5.88496 81.2677 5.65747C81.362 5.42999 81.5001 5.22329 81.6742 5.04918C81.8483 4.87507 82.055 4.73696 82.2825 4.64273C82.51 4.5485 82.7538 4.5 83 4.5C83.4973 4.5 83.9742 4.69755 84.3258 5.04918C84.6775 5.40081 84.875 5.87772 84.875 6.375C84.875 6.87228 84.6775 7.3492 84.3258 7.70083C83.9742 8.05246 83.4973 8.25 83 8.25ZM88.625 12C88.1277 12 87.6508 11.8025 87.2992 11.4508C86.9475 11.0992 86.75 10.6223 86.75 10.125C86.75 9.62772 86.9475 9.15081 87.2992 8.79918C87.6508 8.44755 88.1277 8.25 88.625 8.25C89.1223 8.25 89.5992 8.44755 89.9508 8.79918C90.3025 9.15081 90.5 9.62772 90.5 10.125C90.5 10.6223 90.3025 11.0992 89.9508 11.4508C89.5992 11.8025 89.1223 12 88.625 12ZM79.25 10.125C79.25 10.3712 79.2015 10.615 79.1073 10.8425C79.0131 11.07 78.8749 11.2767 78.7008 11.4508C78.5267 11.6249 78.32 11.763 78.0925 11.8573C77.865 11.9515 77.6212 12 77.375 12C77.1288 12 76.885 11.9515 76.6575 11.8573C76.43 11.763 76.2233 11.6249 76.0492 11.4508C75.8751 11.2767 75.737 11.07 75.6427 10.8425C75.5485 10.615 75.5 10.3712 75.5 10.125C75.5 9.62772 75.6975 9.15081 76.0492 8.79918C76.4008 8.44755 76.8777 8.25 77.375 8.25C77.8723 8.25 78.3492 8.44755 78.7008 8.79918C79.0525 9.15081 79.25 9.62772 79.25 10.125ZM79.875 18.25C79.3777 18.25 78.9008 18.0525 78.5492 17.7008C78.1975 17.3492 78 16.8723 78 16.375C78 15.8777 78.1975 15.4008 78.5492 15.0492C78.9008 14.6975 79.3777 14.5 79.875 14.5C80.3723 14.5 80.8492 14.6975 81.2008 15.0492C81.5525 15.4008 81.75 15.8777 81.75 16.375C81.75 16.8723 81.5525 17.3492 81.2008 17.7008C80.8492 18.0525 80.3723 18.25 79.875 18.25Z" fill="white"/>
</svg>
