<svg width="250" height="24" viewBox="0 0 250 24" fill="none" xmlns="http://www.w3.org/2000/svg">
<path d="M1.43466 19V4.45455H4.0696V16.7912H10.4759V19H1.43466ZM12.6491 19V8.09091H15.2202V19H12.6491ZM13.9418 6.54261C13.5346 6.54261 13.1842 6.40767 12.8906 6.13778C12.5971 5.86316 12.4503 5.53409 12.4503 5.15057C12.4503 4.76231 12.5971 4.43324 12.8906 4.16335C13.1842 3.88873 13.5346 3.75142 13.9418 3.75142C14.3537 3.75142 14.7041 3.88873 14.9929 4.16335C15.2865 4.43324 15.4332 4.76231 15.4332 5.15057C15.4332 5.53409 15.2865 5.86316 14.9929 6.13778C14.7041 6.40767 14.3537 6.54261 13.9418 6.54261ZM20.435 12.608V19H17.864V8.09091H20.3214V9.9446H20.4492C20.7002 9.33381 21.1003 8.84848 21.6495 8.48864C22.2035 8.12879 22.8877 7.94886 23.7021 7.94886C24.4549 7.94886 25.1107 8.10985 25.6694 8.43182C26.2328 8.75379 26.6684 9.22017 26.9762 9.83097C27.2887 10.4418 27.4426 11.1828 27.4379 12.054V19H24.8668V12.4517C24.8668 11.7225 24.6774 11.152 24.2987 10.7401C23.9246 10.3281 23.4061 10.1222 22.7433 10.1222C22.2934 10.1222 21.8933 10.2216 21.543 10.4205C21.1973 10.6146 20.9251 10.8963 20.7262 11.2656C20.5321 11.6349 20.435 12.0824 20.435 12.608ZM34.7958 23.3182C33.8725 23.3182 33.0794 23.1927 32.4165 22.9418C31.7537 22.6955 31.221 22.3641 30.8185 21.9474C30.4161 21.5308 30.1367 21.0691 29.9805 20.5625L32.2958 20.0014C32.4 20.2145 32.5515 20.4252 32.7504 20.6335C32.9492 20.8466 33.2167 21.0218 33.5529 21.1591C33.8938 21.3011 34.3223 21.3722 34.8384 21.3722C35.5676 21.3722 36.1713 21.1946 36.6495 20.8395C37.1277 20.4891 37.3668 19.9115 37.3668 19.1065V17.0398H37.239C37.1064 17.3049 36.9123 17.5772 36.6566 17.8565C36.4057 18.1359 36.0719 18.3703 35.6552 18.5597C35.2433 18.7491 34.7248 18.8438 34.0998 18.8438C33.2617 18.8438 32.5018 18.6473 31.82 18.2543C31.1429 17.8565 30.6031 17.2647 30.2006 16.4787C29.8029 15.688 29.604 14.6984 29.604 13.5099C29.604 12.312 29.8029 11.3011 30.2006 10.4773C30.6031 9.64867 31.1452 9.02131 31.8271 8.59517C32.5089 8.1643 33.2688 7.94886 34.1069 7.94886C34.7461 7.94886 35.2717 8.05777 35.6836 8.27557C36.1003 8.48864 36.4317 8.74669 36.6779 9.04972C36.9241 9.34801 37.1112 9.62973 37.239 9.89489H37.381V8.09091H39.9165V19.1776C39.9165 20.1103 39.694 20.8821 39.2489 21.4929C38.8039 22.1037 38.1954 22.5606 37.4237 22.8636C36.6519 23.1667 35.7759 23.3182 34.7958 23.3182ZM34.8171 16.8267C35.3616 16.8267 35.8256 16.6941 36.2092 16.429C36.5927 16.1638 36.8839 15.7827 37.0827 15.2855C37.2816 14.7884 37.381 14.1918 37.381 13.4957C37.381 12.8092 37.2816 12.2079 37.0827 11.6918C36.8886 11.1757 36.5998 10.7756 36.2163 10.4915C35.8375 10.2027 35.3711 10.0582 34.8171 10.0582C34.2442 10.0582 33.766 10.2074 33.3825 10.5057C32.9989 10.804 32.7101 11.2135 32.516 11.7344C32.3219 12.2505 32.2248 12.8376 32.2248 13.4957C32.2248 14.1634 32.3219 14.7481 32.516 15.25C32.7148 15.7472 33.006 16.1354 33.3896 16.4148C33.7778 16.6894 34.2537 16.8267 34.8171 16.8267ZM49.5046 14.4119V8.09091H52.0756V19H49.5827V17.0611H49.4691C49.2229 17.6719 48.8181 18.1714 48.2546 18.5597C47.6959 18.9479 47.007 19.142 46.1879 19.142C45.4729 19.142 44.8408 18.9834 44.2915 18.6662C43.747 18.3442 43.3209 17.8778 43.0131 17.267C42.7054 16.6515 42.5515 15.9081 42.5515 15.0369V8.09091H45.1225V14.6392C45.1225 15.3305 45.3119 15.8797 45.6907 16.2869C46.0695 16.6941 46.5666 16.8977 47.1822 16.8977C47.561 16.8977 47.9279 16.8054 48.283 16.6207C48.6381 16.4361 48.9293 16.1615 49.1566 15.7969C49.3886 15.4276 49.5046 14.9659 49.5046 14.4119ZM57.8587 19.2202C57.1674 19.2202 56.5447 19.0971 55.9908 18.8509C55.4415 18.5999 55.0059 18.2306 54.6839 17.7429C54.3667 17.2552 54.2081 16.6539 54.2081 15.9389C54.2081 15.3234 54.3217 14.8144 54.549 14.4119C54.7763 14.0095 55.0864 13.6875 55.4794 13.446C55.8724 13.2045 56.3151 13.0223 56.8075 12.8991C57.3047 12.7713 57.8184 12.679 58.3487 12.6222C58.9879 12.5559 59.5064 12.4967 59.9041 12.4446C60.3018 12.3878 60.5907 12.3026 60.7706 12.1889C60.9553 12.0705 61.0476 11.8883 61.0476 11.642V11.5994C61.0476 11.0644 60.889 10.6501 60.5717 10.3565C60.2545 10.063 59.7976 9.91619 59.201 9.91619C58.5713 9.91619 58.0717 10.0535 57.7024 10.3281C57.3378 10.6027 57.0916 10.9271 56.9638 11.3011L54.5632 10.9602C54.7526 10.2973 55.0651 9.74337 55.5007 9.2983C55.9363 8.84848 56.469 8.51231 57.0987 8.28977C57.7285 8.0625 58.4245 7.94886 59.1868 7.94886C59.7124 7.94886 60.2356 8.01042 60.7564 8.13352C61.2772 8.25663 61.7531 8.46023 62.1839 8.74432C62.6148 9.02367 62.9605 9.40483 63.2209 9.88778C63.486 10.3707 63.6186 10.9744 63.6186 11.6989V19H61.147V17.5014H61.0618C60.9055 17.8045 60.6854 18.0885 60.4013 18.3537C60.1219 18.6141 59.7692 18.8248 59.343 18.9858C58.9216 19.142 58.4268 19.2202 57.8587 19.2202ZM58.5263 17.331C59.0424 17.331 59.4898 17.2292 59.8686 17.0256C60.2474 16.8172 60.5386 16.5426 60.7422 16.2017C60.9505 15.8608 61.0547 15.4891 61.0547 15.0866V13.8011C60.9742 13.8674 60.8369 13.929 60.6428 13.9858C60.4534 14.0426 60.2403 14.0923 60.0036 14.1349C59.7668 14.1776 59.5324 14.2154 59.3004 14.2486C59.0684 14.2817 58.8672 14.3101 58.6967 14.3338C58.3132 14.3859 57.9699 14.4711 57.6669 14.5895C57.3639 14.7079 57.1248 14.8736 56.9496 15.0866C56.7744 15.295 56.6868 15.5649 56.6868 15.8963C56.6868 16.3698 56.8596 16.7273 57.2053 16.9688C57.5509 17.2102 57.9912 17.331 58.5263 17.331ZM70.9482 23.3182C70.0249 23.3182 69.2318 23.1927 68.5689 22.9418C67.906 22.6955 67.3733 22.3641 66.9709 21.9474C66.5684 21.5308 66.2891 21.0691 66.1328 20.5625L68.4482 20.0014C68.5523 20.2145 68.7038 20.4252 68.9027 20.6335C69.1016 20.8466 69.3691 21.0218 69.7053 21.1591C70.0462 21.3011 70.4747 21.3722 70.9908 21.3722C71.7199 21.3722 72.3236 21.1946 72.8018 20.8395C73.2801 20.4891 73.5192 19.9115 73.5192 19.1065V17.0398H73.3913C73.2588 17.3049 73.0646 17.5772 72.8089 17.8565C72.558 18.1359 72.2242 18.3703 71.8075 18.5597C71.3956 18.7491 70.8771 18.8438 70.2521 18.8438C69.4141 18.8438 68.6541 18.6473 67.9723 18.2543C67.2952 17.8565 66.7554 17.2647 66.353 16.4787C65.9553 15.688 65.7564 14.6984 65.7564 13.5099C65.7564 12.312 65.9553 11.3011 66.353 10.4773C66.7554 9.64867 67.2976 9.02131 67.9794 8.59517C68.6612 8.1643 69.4212 7.94886 70.2592 7.94886C70.8984 7.94886 71.424 8.05777 71.8359 8.27557C72.2526 8.48864 72.584 8.74669 72.8303 9.04972C73.0765 9.34801 73.2635 9.62973 73.3913 9.89489H73.5334V8.09091H76.0689V19.1776C76.0689 20.1103 75.8464 20.8821 75.4013 21.4929C74.9562 22.1037 74.3478 22.5606 73.576 22.8636C72.8042 23.1667 71.9283 23.3182 70.9482 23.3182ZM70.9695 16.8267C71.514 16.8267 71.978 16.6941 72.3615 16.429C72.745 16.1638 73.0362 15.7827 73.2351 15.2855C73.4339 14.7884 73.5334 14.1918 73.5334 13.4957C73.5334 12.8092 73.4339 12.2079 73.2351 11.6918C73.041 11.1757 72.7521 10.7756 72.3686 10.4915C71.9898 10.2027 71.5234 10.0582 70.9695 10.0582C70.3965 10.0582 69.9183 10.2074 69.5348 10.5057C69.1513 10.804 68.8625 11.2135 68.6683 11.7344C68.4742 12.2505 68.3771 12.8376 68.3771 13.4957C68.3771 14.1634 68.4742 14.7481 68.6683 15.25C68.8672 15.7472 69.1584 16.1354 69.5419 16.4148C69.9302 16.6894 70.406 16.8267 70.9695 16.8267ZM83.5334 19.2131C82.4396 19.2131 81.495 18.9858 80.6996 18.5312C79.9089 18.072 79.3004 17.4233 78.8743 16.5852C78.4482 15.7424 78.2351 14.7505 78.2351 13.6094C78.2351 12.4872 78.4482 11.5024 78.8743 10.6548C79.3052 9.80256 79.9065 9.13968 80.6783 8.66619C81.45 8.18797 82.3568 7.94886 83.3984 7.94886C84.0708 7.94886 84.7053 8.05777 85.3018 8.27557C85.9032 8.48864 86.4335 8.82008 86.8928 9.26989C87.3568 9.7197 87.7214 10.2926 87.9865 10.9886C88.2517 11.6799 88.3842 12.5038 88.3842 13.4602V14.2486H79.4425V12.5156H85.9197C85.915 12.0232 85.8085 11.5852 85.6001 11.2017C85.3918 10.8134 85.1006 10.508 84.7266 10.2855C84.3572 10.063 83.9264 9.9517 83.4339 9.9517C82.9084 9.9517 82.4467 10.0795 82.049 10.3352C81.6513 10.5862 81.3411 10.9176 81.1186 11.3295C80.9008 11.7367 80.7895 12.1842 80.7848 12.6719V14.1847C80.7848 14.8191 80.9008 15.3636 81.1328 15.8182C81.3648 16.268 81.6892 16.6136 82.1058 16.8551C82.5225 17.0919 83.0102 17.2102 83.5689 17.2102C83.9429 17.2102 84.2815 17.1581 84.5845 17.054C84.8875 16.9451 85.1503 16.7865 85.3729 16.5781C85.5954 16.3698 85.7635 16.1117 85.8771 15.804L88.2777 16.0739C88.1262 16.7083 87.8374 17.2623 87.4112 17.7358C86.9898 18.2045 86.45 18.5691 85.7919 18.8295C85.1338 19.0852 84.3809 19.2131 83.5334 19.2131ZM93.1303 12.608V19H90.5593V8.09091H93.0167V9.9446H93.1445C93.3955 9.33381 93.7956 8.84848 94.3448 8.48864C94.8988 8.12879 95.583 7.94886 96.3974 7.94886C97.1502 7.94886 97.806 8.10985 98.3647 8.43182C98.9281 8.75379 99.3638 9.22017 99.6715 9.83097C99.984 10.4418 100.138 11.1828 100.133 12.054V19H97.5621V12.4517C97.5621 11.7225 97.3728 11.152 96.994 10.7401C96.6199 10.3281 96.1014 10.1222 95.4386 10.1222C94.9888 10.1222 94.5887 10.2216 94.2383 10.4205C93.8926 10.6146 93.6204 10.8963 93.4215 11.2656C93.2274 11.6349 93.1303 12.0824 93.1303 12.608ZM111.369 10.9744L109.025 11.2301C108.959 10.9934 108.843 10.7708 108.677 10.5625C108.516 10.3542 108.298 10.1861 108.024 10.0582C107.749 9.9304 107.413 9.86648 107.015 9.86648C106.48 9.86648 106.03 9.98248 105.666 10.2145C105.306 10.4465 105.128 10.7472 105.133 11.1165C105.128 11.4337 105.244 11.6918 105.481 11.8906C105.723 12.0895 106.12 12.2528 106.674 12.3807L108.535 12.7784C109.567 13.0009 110.334 13.3537 110.836 13.8366C111.343 14.3196 111.599 14.9517 111.603 15.733C111.599 16.4195 111.397 17.0256 111 17.5511C110.607 18.072 110.06 18.4792 109.359 18.7727C108.658 19.0663 107.853 19.2131 106.944 19.2131C105.609 19.2131 104.534 18.9337 103.72 18.375C102.905 17.8116 102.42 17.0279 102.264 16.0241L104.771 15.7827C104.885 16.2751 105.126 16.6468 105.495 16.8977C105.865 17.1487 106.345 17.2741 106.937 17.2741C107.548 17.2741 108.038 17.1487 108.407 16.8977C108.781 16.6468 108.968 16.3366 108.968 15.9673C108.968 15.6548 108.848 15.3968 108.606 15.1932C108.369 14.9896 108 14.8333 107.498 14.7244L105.637 14.3338C104.591 14.116 103.817 13.7491 103.315 13.233C102.813 12.7121 102.565 12.054 102.569 11.2585C102.565 10.5862 102.747 10.0038 103.116 9.51136C103.49 9.0142 104.009 8.63068 104.672 8.3608C105.339 8.08617 106.109 7.94886 106.98 7.94886C108.258 7.94886 109.264 8.22112 109.998 8.76562C110.737 9.31013 111.194 10.0464 111.369 10.9744ZM125.297 10.669V12.7855H118.748V10.669H125.297ZM133.075 19V4.45455H138.643C139.695 4.45455 140.568 4.62026 141.264 4.9517C141.965 5.27841 142.488 5.72585 142.834 6.29403C143.184 6.86222 143.359 7.50616 143.359 8.22585C143.359 8.81771 143.246 9.32434 143.018 9.74574C142.791 10.1624 142.486 10.5009 142.102 10.7614C141.719 11.0218 141.29 11.2088 140.817 11.3224V11.4645C141.333 11.4929 141.828 11.6515 142.301 11.9403C142.779 12.2244 143.17 12.6269 143.473 13.1477C143.776 13.6686 143.928 14.2983 143.928 15.0369C143.928 15.7898 143.745 16.4669 143.381 17.0682C143.016 17.6648 142.467 18.1359 141.733 18.4815C140.999 18.8272 140.076 19 138.963 19H133.075ZM135.71 16.7983H138.544C139.5 16.7983 140.189 16.616 140.611 16.2514C141.037 15.8821 141.25 15.4086 141.25 14.831C141.25 14.4001 141.143 14.0118 140.93 13.6662C140.717 13.3158 140.414 13.0412 140.021 12.8423C139.628 12.6387 139.16 12.5369 138.615 12.5369H135.71V16.7983ZM135.71 10.6406H138.317C138.771 10.6406 139.181 10.5578 139.545 10.392C139.91 10.2216 140.196 9.98248 140.405 9.67472C140.618 9.36222 140.724 8.9929 140.724 8.56676C140.724 8.00331 140.526 7.5393 140.128 7.17472C139.735 6.81013 139.15 6.62784 138.374 6.62784H135.71V10.6406ZM149.245 19.2202C148.554 19.2202 147.931 19.0971 147.377 18.8509C146.828 18.5999 146.393 18.2306 146.071 17.7429C145.753 17.2552 145.595 16.6539 145.595 15.9389C145.595 15.3234 145.708 14.8144 145.936 14.4119C146.163 14.0095 146.473 13.6875 146.866 13.446C147.259 13.2045 147.702 13.0223 148.194 12.8991C148.691 12.7713 149.205 12.679 149.735 12.6222C150.375 12.5559 150.893 12.4967 151.291 12.4446C151.689 12.3878 151.977 12.3026 152.157 12.1889C152.342 12.0705 152.434 11.8883 152.434 11.642V11.5994C152.434 11.0644 152.276 10.6501 151.958 10.3565C151.641 10.063 151.184 9.91619 150.588 9.91619C149.958 9.91619 149.458 10.0535 149.089 10.3281C148.725 10.6027 148.478 10.9271 148.35 11.3011L145.95 10.9602C146.139 10.2973 146.452 9.74337 146.887 9.2983C147.323 8.84848 147.856 8.51231 148.485 8.28977C149.115 8.0625 149.811 7.94886 150.574 7.94886C151.099 7.94886 151.622 8.01042 152.143 8.13352C152.664 8.25663 153.14 8.46023 153.571 8.74432C154.002 9.02367 154.347 9.40483 154.608 9.88778C154.873 10.3707 155.005 10.9744 155.005 11.6989V19H152.534V17.5014H152.449C152.292 17.8045 152.072 18.0885 151.788 18.3537C151.509 18.6141 151.156 18.8248 150.73 18.9858C150.308 19.142 149.814 19.2202 149.245 19.2202ZM149.913 17.331C150.429 17.331 150.877 17.2292 151.255 17.0256C151.634 16.8172 151.925 16.5426 152.129 16.2017C152.337 15.8608 152.441 15.4891 152.441 15.0866V13.8011C152.361 13.8674 152.224 13.929 152.029 13.9858C151.84 14.0426 151.627 14.0923 151.39 14.1349C151.154 14.1776 150.919 14.2154 150.687 14.2486C150.455 14.2817 150.254 14.3101 150.083 14.3338C149.7 14.3859 149.357 14.4711 149.054 14.5895C148.751 14.7079 148.511 14.8736 148.336 15.0866C148.161 15.295 148.074 15.5649 148.074 15.8963C148.074 16.3698 148.246 16.7273 148.592 16.9688C148.938 17.2102 149.378 17.331 149.913 17.331ZM162.349 19.2131C161.26 19.2131 160.325 18.974 159.544 18.4957C158.767 18.0175 158.168 17.357 157.747 16.5142C157.33 15.6667 157.122 14.6913 157.122 13.5881C157.122 12.4801 157.335 11.5024 157.761 10.6548C158.187 9.80256 158.788 9.13968 159.565 8.66619C160.346 8.18797 161.27 7.94886 162.335 7.94886C163.22 7.94886 164.004 8.11222 164.686 8.43892C165.372 8.76089 165.919 9.2178 166.326 9.80966C166.734 10.3968 166.966 11.0833 167.022 11.8693H164.565C164.466 11.3437 164.229 10.9058 163.855 10.5554C163.485 10.2003 162.991 10.0227 162.37 10.0227C161.845 10.0227 161.383 10.1648 160.985 10.4489C160.588 10.7282 160.278 11.1307 160.055 11.6562C159.837 12.1818 159.728 12.8116 159.728 13.5455C159.728 14.2888 159.837 14.928 160.055 15.4631C160.273 15.9934 160.578 16.4029 160.971 16.6918C161.369 16.9759 161.835 17.1179 162.37 17.1179C162.749 17.1179 163.088 17.0469 163.386 16.9048C163.689 16.758 163.942 16.5473 164.146 16.2727C164.35 15.9981 164.489 15.6643 164.565 15.2713H167.022C166.961 16.0431 166.734 16.7273 166.341 17.3239C165.948 17.9157 165.413 18.3797 164.735 18.7159C164.058 19.0473 163.263 19.2131 162.349 19.2131ZM171.477 15.5767L171.47 12.473H171.882L175.803 8.09091H178.807L173.984 13.4602H173.452L171.477 15.5767ZM169.134 19V4.45455H171.705V19H169.134ZM175.98 19L172.429 14.0355L174.162 12.2244L179.055 19H175.98ZM186.586 11.8835V14H180.037V11.8835H186.586ZM194.119 19.2131C193.026 19.2131 192.081 18.9858 191.286 18.5312C190.495 18.072 189.886 17.4233 189.46 16.5852C189.034 15.7424 188.821 14.7505 188.821 13.6094C188.821 12.4872 189.034 11.5024 189.46 10.6548C189.891 9.80256 190.492 9.13968 191.264 8.66619C192.036 8.18797 192.943 7.94886 193.984 7.94886C194.657 7.94886 195.291 8.05777 195.888 8.27557C196.489 8.48864 197.019 8.82008 197.479 9.26989C197.943 9.7197 198.307 10.2926 198.572 10.9886C198.838 11.6799 198.97 12.5038 198.97 13.4602V14.2486H190.028V12.5156H196.506C196.501 12.0232 196.394 11.5852 196.186 11.2017C195.978 10.8134 195.687 10.508 195.312 10.2855C194.943 10.063 194.512 9.9517 194.02 9.9517C193.494 9.9517 193.033 10.0795 192.635 10.3352C192.237 10.5862 191.927 10.9176 191.705 11.3295C191.487 11.7367 191.375 12.1842 191.371 12.6719V14.1847C191.371 14.8191 191.487 15.3636 191.719 15.8182C191.951 16.268 192.275 16.6136 192.692 16.8551C193.108 17.0919 193.596 17.2102 194.155 17.2102C194.529 17.2102 194.867 17.1581 195.17 17.054C195.473 16.9451 195.736 16.7865 195.959 16.5781C196.181 16.3698 196.349 16.1117 196.463 15.804L198.864 16.0739C198.712 16.7083 198.423 17.2623 197.997 17.7358C197.576 18.2045 197.036 18.5691 196.378 18.8295C195.72 19.0852 194.967 19.2131 194.119 19.2131ZM203.716 12.608V19H201.145V8.09091H203.603V9.9446H203.73C203.981 9.33381 204.382 8.84848 204.931 8.48864C205.485 8.12879 206.169 7.94886 206.983 7.94886C207.736 7.94886 208.392 8.10985 208.951 8.43182C209.514 8.75379 209.95 9.22017 210.257 9.83097C210.57 10.4418 210.724 11.1828 210.719 12.054V19H208.148V12.4517C208.148 11.7225 207.959 11.152 207.58 10.7401C207.206 10.3281 206.687 10.1222 206.025 10.1222C205.575 10.1222 205.175 10.2216 204.824 10.4205C204.479 10.6146 204.206 10.8963 204.007 11.2656C203.813 11.6349 203.716 12.0824 203.716 12.608ZM217.381 19.1918C216.524 19.1918 215.757 18.9716 215.08 18.5312C214.403 18.0909 213.868 17.4517 213.475 16.6136C213.082 15.7756 212.885 14.7576 212.885 13.5597C212.885 12.3475 213.084 11.3248 213.482 10.4915C213.884 9.65341 214.426 9.02131 215.108 8.59517C215.79 8.1643 216.55 7.94886 217.388 7.94886C218.027 7.94886 218.553 8.05777 218.965 8.27557C219.377 8.48864 219.703 8.74669 219.945 9.04972C220.186 9.34801 220.373 9.62973 220.506 9.89489H220.613V4.45455H223.191V19H220.662V17.2812H220.506C220.373 17.5464 220.182 17.8281 219.931 18.1264C219.68 18.42 219.348 18.6709 218.936 18.8793C218.525 19.0876 218.006 19.1918 217.381 19.1918ZM218.098 17.0824C218.643 17.0824 219.107 16.9356 219.49 16.642C219.874 16.3437 220.165 15.9295 220.364 15.3991C220.563 14.8688 220.662 14.2509 220.662 13.5455C220.662 12.84 220.563 12.2268 220.364 11.706C220.17 11.1851 219.881 10.7803 219.498 10.4915C219.119 10.2027 218.652 10.0582 218.098 10.0582C217.525 10.0582 217.047 10.2074 216.664 10.5057C216.28 10.804 215.991 11.2159 215.797 11.7415C215.603 12.267 215.506 12.8684 215.506 13.5455C215.506 14.2273 215.603 14.8357 215.797 15.3707C215.996 15.901 216.287 16.3201 216.671 16.6278C217.059 16.9309 217.535 17.0824 218.098 17.0824Z" fill="white"/>
<path d="M231.591 11.8774V12.1226C233.027 12.2761 233.73 13.048 233.73 14.5301V17.2339C233.73 18.88 234.287 19.548 235.664 19.548H236.054V21H235.517C233.214 21 232.129 19.858 232.129 17.4611V15.168C232.129 13.5219 231.591 12.9773 230 12.9773V11.0227C231.591 11.0227 232.129 10.4781 232.129 8.83198V6.53891C232.129 4.14202 233.213 3 235.517 3H236.054V4.45047H235.664C234.287 4.45047 233.73 5.11853 233.73 6.76461V9.46995C233.73 10.9505 233.027 11.7224 231.591 11.8774ZM248.409 12.1226V11.8774C246.973 11.7224 246.27 10.9505 246.27 9.46995V6.76461C246.27 5.11853 245.713 4.45047 244.336 4.45047H243.946V3H244.483C246.787 3 247.871 4.14202 247.871 6.53891V8.83198C247.871 10.4781 248.409 11.0227 250 11.0227V12.9773C248.409 12.9773 247.871 13.5219 247.871 15.168V17.4611C247.871 19.858 246.786 21 244.483 21H243.946V19.5495H244.336C245.713 19.5495 246.27 18.8815 246.27 17.2354V14.5301C246.27 13.0495 246.973 12.2776 248.409 12.1226Z" fill="white"/>
</svg>
