<svg width="251" height="39" viewBox="0 0 251 39" fill="none" xmlns="http://www.w3.org/2000/svg">
<path d="M1.76136 31V7.72727H11.375C13.1174 7.72727 14.6212 8.04167 15.8864 8.67045C17.1591 9.29167 18.1402 10.1856 18.8295 11.3523C19.5189 12.5114 19.8636 13.8864 19.8636 15.4773C19.8636 17.0909 19.5114 18.4621 18.8068 19.5909C18.1023 20.7121 17.1023 21.5682 15.8068 22.1591C14.5114 22.7424 12.9773 23.0341 11.2045 23.0341H5.125V18.6023H10.1591C11.0076 18.6023 11.7159 18.4924 12.2841 18.2727C12.8598 18.0455 13.2955 17.7045 13.5909 17.25C13.8864 16.7879 14.0341 16.197 14.0341 15.4773C14.0341 14.7576 13.8864 14.1629 13.5909 13.6932C13.2955 13.2159 12.8598 12.8598 12.2841 12.625C11.7083 12.3826 11 12.2614 10.1591 12.2614H7.38636V31H1.76136ZM14.8636 20.3636L20.6591 31H14.5227L8.84091 20.3636H14.8636ZM30.7642 31.3295C28.9384 31.3295 27.3627 30.9697 26.0369 30.25C24.7188 29.5227 23.7036 28.4886 22.9915 27.1477C22.2869 25.7992 21.9347 24.197 21.9347 22.3409C21.9347 20.5379 22.2907 18.9621 23.0028 17.6136C23.715 16.2576 24.7188 15.2045 26.0142 14.4545C27.3097 13.697 28.8362 13.3182 30.5938 13.3182C31.8362 13.3182 32.9725 13.5114 34.0028 13.8977C35.0331 14.2841 35.9233 14.8561 36.6733 15.6136C37.4233 16.3712 38.0066 17.3068 38.4233 18.4205C38.84 19.5265 39.0483 20.7955 39.0483 22.2273V23.6136H23.8778V20.3864H33.8778C33.8703 19.7955 33.7301 19.2689 33.4574 18.8068C33.1847 18.3447 32.8097 17.9848 32.3324 17.7273C31.8627 17.4621 31.321 17.3295 30.7074 17.3295C30.0862 17.3295 29.5294 17.4697 29.0369 17.75C28.5445 18.0227 28.1544 18.3977 27.8665 18.875C27.5786 19.3447 27.4271 19.8788 27.4119 20.4773V23.7614C27.4119 24.4735 27.5521 25.0985 27.8324 25.6364C28.1127 26.1667 28.5104 26.5795 29.0256 26.875C29.5407 27.1705 30.1544 27.3182 30.8665 27.3182C31.3589 27.3182 31.8059 27.25 32.2074 27.1136C32.6089 26.9773 32.9536 26.7765 33.2415 26.5114C33.5294 26.2462 33.7453 25.9205 33.8892 25.5341L38.9915 25.6818C38.7794 26.8258 38.3134 27.822 37.5938 28.6705C36.8816 29.5114 35.946 30.1667 34.7869 30.6364C33.6278 31.0985 32.2869 31.3295 30.7642 31.3295ZM48.2614 31.25C46.9735 31.25 45.803 30.9167 44.75 30.25C43.697 29.5833 42.8561 28.5833 42.2273 27.25C41.5985 25.9167 41.2841 24.2614 41.2841 22.2841C41.2841 20.2311 41.6098 18.5417 42.2614 17.2159C42.9129 15.8902 43.7652 14.9091 44.8182 14.2727C45.8788 13.6364 47.0189 13.3182 48.2386 13.3182C49.1553 13.3182 49.9394 13.4773 50.5909 13.7955C51.2424 14.1061 51.7803 14.5076 52.2045 15C52.6288 15.4924 52.9508 16.0038 53.1705 16.5341H53.2841V7.72727H58.8409V31H53.3409V28.1705H53.1705C52.9356 28.7083 52.6023 29.2121 52.1705 29.6818C51.7386 30.1515 51.197 30.5303 50.5455 30.8182C49.9015 31.1061 49.1402 31.25 48.2614 31.25ZM50.1932 26.9205C50.8674 26.9205 51.4432 26.7311 51.9205 26.3523C52.3977 25.9659 52.7652 25.4242 53.0227 24.7273C53.2803 24.0303 53.4091 23.2121 53.4091 22.2727C53.4091 21.3182 53.2803 20.4962 53.0227 19.8068C52.7727 19.1174 52.4053 18.5871 51.9205 18.2159C51.4432 17.8447 50.8674 17.6591 50.1932 17.6591C49.5038 17.6591 48.9205 17.8485 48.4432 18.2273C47.9659 18.6061 47.6023 19.1402 47.3523 19.8295C47.1098 20.5189 46.9886 21.3333 46.9886 22.2727C46.9886 23.2121 47.1136 24.0303 47.3636 24.7273C47.6136 25.4242 47.9735 25.9659 48.4432 26.3523C48.9205 26.7311 49.5038 26.9205 50.1932 26.9205ZM70.5142 31.3295C68.6884 31.3295 67.1127 30.9697 65.7869 30.25C64.4688 29.5227 63.4536 28.4886 62.7415 27.1477C62.0369 25.7992 61.6847 24.197 61.6847 22.3409C61.6847 20.5379 62.0407 18.9621 62.7528 17.6136C63.465 16.2576 64.4688 15.2045 65.7642 14.4545C67.0597 13.697 68.5862 13.3182 70.3438 13.3182C71.5862 13.3182 72.7225 13.5114 73.7528 13.8977C74.7831 14.2841 75.6733 14.8561 76.4233 15.6136C77.1733 16.3712 77.7566 17.3068 78.1733 18.4205C78.59 19.5265 78.7983 20.7955 78.7983 22.2273V23.6136H63.6278V20.3864H73.6278C73.6203 19.7955 73.4801 19.2689 73.2074 18.8068C72.9347 18.3447 72.5597 17.9848 72.0824 17.7273C71.6127 17.4621 71.071 17.3295 70.4574 17.3295C69.8362 17.3295 69.2794 17.4697 68.7869 17.75C68.2945 18.0227 67.9044 18.3977 67.6165 18.875C67.3286 19.3447 67.1771 19.8788 67.1619 20.4773V23.7614C67.1619 24.4735 67.3021 25.0985 67.5824 25.6364C67.8627 26.1667 68.2604 26.5795 68.7756 26.875C69.2907 27.1705 69.9044 27.3182 70.6165 27.3182C71.1089 27.3182 71.5559 27.25 71.9574 27.1136C72.3589 26.9773 72.7036 26.7765 72.9915 26.5114C73.2794 26.2462 73.4953 25.9205 73.6392 25.5341L78.7415 25.6818C78.5294 26.8258 78.0634 27.822 77.3438 28.6705C76.6316 29.5114 75.696 30.1667 74.5369 30.6364C73.3778 31.0985 72.0369 31.3295 70.5142 31.3295ZM96.875 18.875L91.7727 19.0114C91.7197 18.6477 91.5758 18.3258 91.3409 18.0455C91.1061 17.7576 90.7992 17.5341 90.4205 17.375C90.0492 17.2083 89.6174 17.125 89.125 17.125C88.4811 17.125 87.9318 17.2538 87.4773 17.5114C87.0303 17.7689 86.8106 18.1174 86.8182 18.5568C86.8106 18.8977 86.947 19.1932 87.2273 19.4432C87.5152 19.6932 88.0265 19.8939 88.7614 20.0455L92.125 20.6818C93.8674 21.0152 95.1629 21.5682 96.0114 22.3409C96.8674 23.1136 97.2992 24.1364 97.3068 25.4091C97.2992 26.6061 96.9432 27.6477 96.2386 28.5341C95.5417 29.4205 94.5871 30.1098 93.375 30.6023C92.1629 31.0871 90.7765 31.3295 89.2159 31.3295C86.7235 31.3295 84.7576 30.8182 83.3182 29.7955C81.8864 28.7652 81.0682 27.3864 80.8636 25.6591L86.3523 25.5227C86.4735 26.1591 86.7879 26.6439 87.2955 26.9773C87.803 27.3106 88.4508 27.4773 89.2386 27.4773C89.9508 27.4773 90.5303 27.3447 90.9773 27.0795C91.4242 26.8144 91.6515 26.4621 91.6591 26.0227C91.6515 25.6288 91.4773 25.3144 91.1364 25.0795C90.7955 24.8371 90.2614 24.6477 89.5341 24.5114L86.4886 23.9318C84.7386 23.6136 83.4356 23.0265 82.5795 22.1705C81.7235 21.3068 81.2992 20.2083 81.3068 18.875C81.2992 17.7083 81.6098 16.7121 82.2386 15.8864C82.8674 15.053 83.7614 14.4167 84.9205 13.9773C86.0795 13.5379 87.447 13.3182 89.0227 13.3182C91.3864 13.3182 93.25 13.8144 94.6136 14.8068C95.9773 15.7917 96.7311 17.1477 96.875 18.875ZM119.497 14.7045C119.421 13.8712 119.084 13.2235 118.486 12.7614C117.895 12.2917 117.05 12.0568 115.952 12.0568C115.224 12.0568 114.618 12.1515 114.134 12.3409C113.649 12.5303 113.285 12.7917 113.043 13.125C112.8 13.4508 112.675 13.8258 112.668 14.25C112.652 14.5985 112.721 14.9053 112.872 15.1705C113.031 15.4356 113.259 15.6705 113.554 15.875C113.857 16.072 114.221 16.2462 114.645 16.3977C115.069 16.5492 115.546 16.6818 116.077 16.7955L118.077 17.25C119.228 17.5 120.243 17.8333 121.122 18.25C122.009 18.6667 122.751 19.1629 123.349 19.7386C123.955 20.3144 124.414 20.9773 124.724 21.7273C125.035 22.4773 125.194 23.3182 125.202 24.25C125.194 25.7197 124.823 26.9811 124.088 28.0341C123.353 29.0871 122.296 29.8939 120.918 30.4545C119.546 31.0152 117.891 31.2955 115.952 31.2955C114.005 31.2955 112.308 31.0038 110.861 30.4205C109.414 29.8371 108.289 28.9508 107.486 27.7614C106.683 26.572 106.27 25.0682 106.247 23.25H111.634C111.679 24 111.88 24.625 112.236 25.125C112.592 25.625 113.08 26.0038 113.702 26.2614C114.33 26.5189 115.058 26.6477 115.884 26.6477C116.641 26.6477 117.285 26.5455 117.815 26.3409C118.353 26.1364 118.766 25.8523 119.054 25.4886C119.342 25.125 119.49 24.7083 119.497 24.2386C119.49 23.7992 119.353 23.4242 119.088 23.1136C118.823 22.7955 118.414 22.5227 117.861 22.2955C117.315 22.0606 116.618 21.8447 115.77 21.6477L113.338 21.0795C111.323 20.6174 109.736 19.8712 108.577 18.8409C107.418 17.803 106.842 16.4015 106.849 14.6364C106.842 13.197 107.228 11.9356 108.009 10.8523C108.789 9.76894 109.868 8.92424 111.247 8.31818C112.626 7.71212 114.198 7.40909 115.963 7.40909C117.766 7.40909 119.33 7.71591 120.656 8.32954C121.99 8.93561 123.024 9.78788 123.759 10.8864C124.493 11.9848 124.868 13.2576 124.884 14.7045H119.497ZM136.19 31.3295C134.357 31.3295 132.781 30.9545 131.463 30.2045C130.152 29.447 129.141 28.3939 128.429 27.0455C127.724 25.6894 127.372 24.1174 127.372 22.3295C127.372 20.5341 127.724 18.9621 128.429 17.6136C129.141 16.2576 130.152 15.2045 131.463 14.4545C132.781 13.697 134.357 13.3182 136.19 13.3182C138.024 13.3182 139.596 13.697 140.906 14.4545C142.224 15.2045 143.236 16.2576 143.94 17.6136C144.652 18.9621 145.009 20.5341 145.009 22.3295C145.009 24.1174 144.652 25.6894 143.94 27.0455C143.236 28.3939 142.224 29.447 140.906 30.2045C139.596 30.9545 138.024 31.3295 136.19 31.3295ZM136.224 27.1364C136.891 27.1364 137.455 26.9318 137.918 26.5227C138.38 26.1136 138.732 25.5455 138.974 24.8182C139.224 24.0909 139.349 23.25 139.349 22.2955C139.349 21.3258 139.224 20.4773 138.974 19.75C138.732 19.0227 138.38 18.4545 137.918 18.0455C137.455 17.6364 136.891 17.4318 136.224 17.4318C135.535 17.4318 134.952 17.6364 134.474 18.0455C134.005 18.4545 133.645 19.0227 133.395 19.75C133.152 20.4773 133.031 21.3258 133.031 22.2955C133.031 23.25 133.152 24.0909 133.395 24.8182C133.645 25.5455 134.005 26.1136 134.474 26.5227C134.952 26.9318 135.535 27.1364 136.224 27.1364ZM156.003 31.3295C154.162 31.3295 152.582 30.9508 151.264 30.1932C149.954 29.4356 148.946 28.3826 148.241 27.0341C147.537 25.678 147.185 24.1098 147.185 22.3295C147.185 20.5417 147.537 18.9735 148.241 17.625C148.954 16.2689 149.965 15.2121 151.276 14.4545C152.594 13.697 154.166 13.3182 155.991 13.3182C157.605 13.3182 159.01 13.6098 160.207 14.1932C161.412 14.7765 162.351 15.6023 163.026 16.6705C163.707 17.7311 164.067 18.9773 164.105 20.4091H158.912C158.806 19.5152 158.503 18.8144 158.003 18.3068C157.51 17.7992 156.866 17.5455 156.071 17.5455C155.427 17.5455 154.863 17.7273 154.378 18.0909C153.893 18.447 153.514 18.9773 153.241 19.6818C152.976 20.3788 152.844 21.2424 152.844 22.2727C152.844 23.303 152.976 24.1742 153.241 24.8864C153.514 25.5909 153.893 26.125 154.378 26.4886C154.863 26.8447 155.427 27.0227 156.071 27.0227C156.586 27.0227 157.041 26.9129 157.435 26.6932C157.836 26.4735 158.166 26.1515 158.423 25.7273C158.681 25.2955 158.844 24.7727 158.912 24.1591H164.105C164.052 25.5985 163.692 26.8561 163.026 27.9318C162.366 29.0076 161.438 29.8447 160.241 30.4432C159.052 31.0341 157.639 31.3295 156.003 31.3295ZM166.949 31V13.5455H172.506V31H166.949ZM169.733 11.5114C168.953 11.5114 168.282 11.2538 167.722 10.7386C167.161 10.2159 166.881 9.58712 166.881 8.85227C166.881 8.125 167.161 7.50379 167.722 6.98864C168.282 6.46591 168.953 6.20454 169.733 6.20454C170.521 6.20454 171.191 6.46591 171.744 6.98864C172.305 7.50379 172.585 8.125 172.585 8.85227C172.585 9.58712 172.305 10.2159 171.744 10.7386C171.191 11.2538 170.521 11.5114 169.733 11.5114ZM180.963 31.2955C179.849 31.2955 178.861 31.1098 177.997 30.7386C177.141 30.3598 176.463 29.7917 175.963 29.0341C175.471 28.2689 175.224 27.3106 175.224 26.1591C175.224 25.1894 175.395 24.3712 175.736 23.7045C176.077 23.0379 176.546 22.4962 177.145 22.0795C177.743 21.6629 178.433 21.3485 179.213 21.1364C179.993 20.9167 180.827 20.7689 181.713 20.6932C182.705 20.6023 183.505 20.5076 184.111 20.4091C184.717 20.303 185.156 20.1553 185.429 19.9659C185.709 19.7689 185.849 19.4924 185.849 19.1364V19.0795C185.849 18.4962 185.649 18.0455 185.247 17.7273C184.846 17.4091 184.304 17.25 183.622 17.25C182.887 17.25 182.296 17.4091 181.849 17.7273C181.402 18.0455 181.118 18.4848 180.997 19.0455L175.872 18.8636C176.024 17.803 176.414 16.8561 177.043 16.0227C177.679 15.1818 178.55 14.5227 179.656 14.0455C180.77 13.5606 182.107 13.3182 183.668 13.3182C184.781 13.3182 185.808 13.4508 186.747 13.7159C187.687 13.9735 188.505 14.3523 189.202 14.8523C189.899 15.3447 190.437 15.9508 190.815 16.6705C191.202 17.3902 191.395 18.2121 191.395 19.1364V31H186.168V28.5682H186.031C185.721 29.1591 185.323 29.6591 184.838 30.0682C184.361 30.4773 183.796 30.7841 183.145 30.9886C182.501 31.1932 181.774 31.2955 180.963 31.2955ZM182.679 27.6591C183.277 27.6591 183.815 27.5379 184.293 27.2955C184.777 27.053 185.164 26.7197 185.452 26.2955C185.74 25.8636 185.884 25.3636 185.884 24.7955V23.1364C185.724 23.2197 185.531 23.2955 185.304 23.3636C185.084 23.4318 184.842 23.4962 184.577 23.5568C184.312 23.6174 184.039 23.6705 183.759 23.7159C183.478 23.7614 183.209 23.803 182.952 23.8409C182.429 23.9242 181.982 24.053 181.611 24.2273C181.247 24.4015 180.967 24.6288 180.77 24.9091C180.58 25.1818 180.486 25.5076 180.486 25.8864C180.486 26.4621 180.69 26.9015 181.099 27.2045C181.516 27.5076 182.043 27.6591 182.679 27.6591ZM194.793 31V13.5455H200.349V31H194.793ZM197.577 11.5114C196.796 11.5114 196.126 11.2538 195.565 10.7386C195.005 10.2159 194.724 9.58712 194.724 8.85227C194.724 8.125 195.005 7.50379 195.565 6.98864C196.126 6.46591 196.796 6.20454 197.577 6.20454C198.365 6.20454 199.035 6.46591 199.588 6.98864C200.149 7.50379 200.429 8.125 200.429 8.85227C200.429 9.58712 200.149 10.2159 199.588 10.7386C199.035 11.2538 198.365 11.5114 197.577 11.5114ZM219.125 18.875L214.023 19.0114C213.97 18.6477 213.826 18.3258 213.591 18.0455C213.356 17.7576 213.049 17.5341 212.67 17.375C212.299 17.2083 211.867 17.125 211.375 17.125C210.731 17.125 210.182 17.2538 209.727 17.5114C209.28 17.7689 209.061 18.1174 209.068 18.5568C209.061 18.8977 209.197 19.1932 209.477 19.4432C209.765 19.6932 210.277 19.8939 211.011 20.0455L214.375 20.6818C216.117 21.0152 217.413 21.5682 218.261 22.3409C219.117 23.1136 219.549 24.1364 219.557 25.4091C219.549 26.6061 219.193 27.6477 218.489 28.5341C217.792 29.4205 216.837 30.1098 215.625 30.6023C214.413 31.0871 213.027 31.3295 211.466 31.3295C208.973 31.3295 207.008 30.8182 205.568 29.7955C204.136 28.7652 203.318 27.3864 203.114 25.6591L208.602 25.5227C208.723 26.1591 209.038 26.6439 209.545 26.9773C210.053 27.3106 210.701 27.4773 211.489 27.4773C212.201 27.4773 212.78 27.3447 213.227 27.0795C213.674 26.8144 213.902 26.4621 213.909 26.0227C213.902 25.6288 213.727 25.3144 213.386 25.0795C213.045 24.8371 212.511 24.6477 211.784 24.5114L208.739 23.9318C206.989 23.6136 205.686 23.0265 204.83 22.1705C203.973 21.3068 203.549 20.2083 203.557 18.875C203.549 17.7083 203.86 16.7121 204.489 15.8864C205.117 15.053 206.011 14.4167 207.17 13.9773C208.33 13.5379 209.697 13.3182 211.273 13.3182C213.636 13.3182 215.5 13.8144 216.864 14.8068C218.227 15.7917 218.981 17.1477 219.125 18.875Z" fill="white"/>
<path d="M238.5 32C241.815 32 244.995 30.683 247.339 28.3388C249.683 25.9946 251 22.8152 251 19.5C251 16.1848 249.683 13.0054 247.339 10.6612C244.995 8.31696 241.815 7 238.5 7C235.185 7 232.005 8.31696 229.661 10.6612C227.317 13.0054 226 16.1848 226 19.5C226 22.8152 227.317 25.9946 229.661 28.3388C232.005 30.683 235.185 32 238.5 32ZM236.938 17.1562C236.938 18.45 236.237 19.5 235.375 19.5C234.513 19.5 233.812 18.45 233.812 17.1562C233.812 15.8625 234.513 14.8125 235.375 14.8125C236.237 14.8125 236.938 15.8625 236.938 17.1562ZM232.695 21.9484C232.875 21.8448 233.088 21.8168 233.288 21.8704C233.488 21.924 233.659 22.0549 233.762 22.2344C234.242 23.0662 234.933 23.7568 235.765 24.2369C236.596 24.7169 237.54 24.9693 238.5 24.9688C239.46 24.9693 240.404 24.7169 241.235 24.2369C242.067 23.7568 242.758 23.0662 243.237 22.2344C243.288 22.1448 243.357 22.0662 243.438 22.0031C243.519 21.9399 243.613 21.8935 243.712 21.8666C243.811 21.8396 243.915 21.8325 244.017 21.8458C244.12 21.8591 244.218 21.8924 244.307 21.9439C244.397 21.9955 244.475 22.0641 244.537 22.146C244.6 22.2278 244.646 22.3212 244.672 22.4208C244.698 22.5204 244.705 22.6243 244.691 22.7263C244.677 22.8284 244.643 22.9267 244.591 23.0156C243.974 24.0849 243.086 24.9728 242.017 25.59C240.947 26.2072 239.735 26.5318 238.5 26.5312C237.265 26.5318 236.053 26.2072 234.983 25.59C233.914 24.9728 233.026 24.0849 232.409 23.0156C232.306 22.8362 232.278 22.6229 232.331 22.4228C232.385 22.2227 232.516 22.052 232.695 21.9484ZM241.625 19.5C240.763 19.5 240.062 18.45 240.062 17.1562C240.062 15.8625 240.763 14.8125 241.625 14.8125C242.487 14.8125 243.188 15.8625 243.188 17.1562C243.188 18.45 242.487 19.5 241.625 19.5Z" fill="white"/>
</svg>
