<svg width="87" height="39" viewBox="0 0 87 39" fill="none" xmlns="http://www.w3.org/2000/svg">
<path d="M2.78259 0.28125H6.51697V23H2.78259V0.28125ZM4.32947 19.4219H17.6888V23H4.32947V19.4219ZM4.32947 9.9375H15.9701V13.5H4.32947V9.9375ZM4.32947 0.28125H17.6888V3.85938H4.32947V0.28125ZM21.5951 6.78125H25.4857V23H21.5951V6.78125ZM30.6263 10.9531C30.3763 10.6823 30.0691 10.4792 29.7045 10.3438C29.3399 10.1979 28.918 10.125 28.4388 10.125C27.5013 10.125 26.7722 10.4062 26.2513 10.9688C25.7409 11.5208 25.4857 12.2917 25.4857 13.2812L25.1576 9.60938C25.6263 8.64062 26.2357 7.89062 26.9857 7.35938C27.7461 6.81771 28.5795 6.54688 29.4857 6.54688C30.1941 6.54688 30.8347 6.65625 31.4076 6.875C31.9805 7.08333 32.4805 7.39583 32.9076 7.8125L30.6263 10.9531ZM35.142 0.28125H38.8607V4.01562H35.142V0.28125ZM35.142 6.78125H38.8607V23H35.142V6.78125ZM49.9857 23.2344C48.4753 23.2344 47.1836 22.9531 46.1107 22.3906C45.0378 21.8177 44.2201 20.9896 43.6576 19.9062C43.0951 18.8125 42.8138 17.4948 42.8138 15.9531V13.75C42.8138 12.2292 43.0951 10.9323 43.6576 9.85938C44.2201 8.77604 45.0378 7.95312 46.1107 7.39062C47.1836 6.82812 48.4753 6.54688 49.9857 6.54688C50.8503 6.54688 51.6628 6.65104 52.4232 6.85938C53.1941 7.05729 53.8816 7.34896 54.4857 7.73438C55.1003 8.11979 55.6107 8.58854 56.017 9.14062L53.4857 11.5156C53.0586 11.0677 52.5586 10.724 51.9857 10.4844C51.4128 10.2448 50.8138 10.125 50.1888 10.125C49.0326 10.125 48.1368 10.4427 47.5013 11.0781C46.8659 11.7031 46.5482 12.5938 46.5482 13.75V15.9531C46.5482 17.1406 46.8607 18.0573 47.4857 18.7031C48.1211 19.3385 49.0222 19.6562 50.1888 19.6562C50.8243 19.6562 51.4284 19.526 52.0013 19.2656C52.5743 19.0052 53.0691 18.6354 53.4857 18.1562L56.017 20.6875C55.6003 21.2292 55.0847 21.6927 54.4701 22.0781C53.8659 22.4531 53.1784 22.7396 52.4076 22.9375C51.6472 23.1354 50.8399 23.2344 49.9857 23.2344Z" fill="#F1F5F9"/>
<path d="M68.668 21.5C68.668 21.5 67.0013 21.5 67.0013 19.8333C67.0013 18.1667 68.668 13.1667 77.0013 13.1667C85.3347 13.1667 87.0013 18.1667 87.0013 19.8333C87.0013 21.5 85.3347 21.5 85.3347 21.5H68.668ZM77.0013 11.5C78.3274 11.5 79.5992 10.9732 80.5369 10.0355C81.4746 9.09785 82.0013 7.82608 82.0013 6.5C82.0013 5.17392 81.4746 3.90215 80.5369 2.96447C79.5992 2.02678 78.3274 1.5 77.0013 1.5C75.6753 1.5 74.4035 2.02678 73.4658 2.96447C72.5281 3.90215 72.0013 5.17392 72.0013 6.5C72.0013 7.82608 72.5281 9.09785 73.4658 10.0355C74.4035 10.9732 75.6753 11.5 77.0013 11.5Z" fill="#F1F5F9"/>
</svg>
