<svg width="297" height="20" viewBox="0 0 297 20" fill="none" xmlns="http://www.w3.org/2000/svg">
<path d="M2.37634 1.46094H5.17712V18.5H2.37634V1.46094ZM3.54822 8.85547H12.0443V11.5273H3.54822V8.85547ZM3.54822 1.46094H13.3334V4.14453H3.54822V1.46094ZM15.5717 6.33594H18.4896V18.5H15.5717V6.33594ZM22.3451 9.46484C22.1576 9.26172 21.9271 9.10938 21.6537 9.00781C21.3802 8.89844 21.0638 8.84375 20.7045 8.84375C20.0013 8.84375 19.4545 9.05469 19.0638 9.47656C18.681 9.89062 18.4896 10.4688 18.4896 11.2109L18.2435 8.45703C18.5951 7.73047 19.0521 7.16797 19.6146 6.76953C20.1849 6.36328 20.8099 6.16016 21.4896 6.16016C22.0209 6.16016 22.5013 6.24219 22.931 6.40625C23.3607 6.5625 23.7357 6.79688 24.056 7.10938L22.3451 9.46484ZM32.599 10.7891C32.599 10.1094 32.3959 9.58203 31.9896 9.20703C31.5912 8.83203 31.0248 8.64453 30.2904 8.64453C29.8217 8.64453 29.3607 8.71875 28.9076 8.86719C28.4545 9.01562 28.0482 9.22266 27.6888 9.48828L25.8256 7.91797C26.3021 7.36328 26.9271 6.93359 27.7006 6.62891C28.474 6.31641 29.3334 6.16016 30.2787 6.16016C31.3099 6.16016 32.1927 6.33984 32.9271 6.69922C33.6615 7.05078 34.2201 7.56641 34.6029 8.24609C34.9935 8.91797 35.1888 9.73047 35.1888 10.6836V18.5H32.599V10.7891ZM29.4115 18.6758C28.0131 18.6758 26.9662 18.3672 26.2709 17.75C25.5756 17.125 25.2279 16.1797 25.2279 14.9141C25.2279 13.7109 25.5795 12.8086 26.2826 12.207C26.9857 11.6055 28.0404 11.3047 29.4467 11.3047H32.7045L32.8685 13.4844H29.4584C28.9037 13.4844 28.4857 13.6016 28.2045 13.8359C27.931 14.0703 27.7943 14.4297 27.7943 14.9141C27.7943 15.4219 27.974 15.8008 28.3334 16.0508C28.6927 16.293 29.2357 16.4141 29.9623 16.4141C30.8529 16.4141 31.5131 16.3164 31.9427 16.1211C32.3802 15.9258 32.599 15.6211 32.599 15.207L32.8451 16.9414C32.7123 17.3242 32.4779 17.6445 32.142 17.9023C31.8138 18.1602 31.4154 18.3555 30.9467 18.4883C30.4779 18.6133 29.9662 18.6758 29.4115 18.6758ZM52.9427 11.3047C52.9427 10.5156 52.7474 9.91016 52.3568 9.48828C51.9662 9.05859 51.4115 8.84375 50.6927 8.84375C50.0131 8.84375 49.4857 9.05078 49.1107 9.46484C48.7435 9.87109 48.5599 10.4531 48.5599 11.2109L48.0209 8.63281C48.4037 7.84375 48.9037 7.23438 49.5209 6.80469C50.1459 6.375 50.8373 6.16016 51.5951 6.16016C52.4701 6.16016 53.2162 6.35938 53.8334 6.75781C54.4584 7.15625 54.931 7.74219 55.2513 8.51562C55.5795 9.28125 55.7435 10.207 55.7435 11.293V18.5H52.9427V11.3047ZM38.5873 6.33594H41.3881V18.5H38.5873V6.33594ZM45.7709 11.3047C45.7709 10.5156 45.5756 9.91016 45.1849 9.48828C44.8021 9.05859 44.2552 8.84375 43.5443 8.84375C42.8568 8.84375 42.3256 9.03125 41.9506 9.40625C41.5756 9.77344 41.3881 10.2969 41.3881 10.9766L41.142 8.45703C41.5092 7.71484 41.9779 7.14844 42.5482 6.75781C43.1185 6.35938 43.7709 6.16016 44.5052 6.16016C45.3568 6.16016 46.0873 6.35938 46.6967 6.75781C47.306 7.15625 47.767 7.74219 48.0795 8.51562C48.3998 9.28125 48.5599 10.207 48.5599 11.293V18.5H45.7709V11.3047ZM64.2396 18.6758C63.0912 18.6758 62.1107 18.4648 61.2982 18.043C60.4857 17.6211 59.8646 17.0039 59.4349 16.1914C59.0052 15.3711 58.7904 14.3828 58.7904 13.2266V11.8555C58.7904 10.6523 58.9935 9.625 59.3998 8.77344C59.8138 7.92188 60.4115 7.27344 61.1927 6.82812C61.9818 6.38281 62.9271 6.16016 64.0287 6.16016C65.0677 6.16016 65.9545 6.42187 66.6888 6.94531C67.431 7.46094 67.9935 8.21094 68.3763 9.19531C68.767 10.1797 68.9623 11.3672 68.9623 12.7578V13.5547H60.7006V11.5039H66.3607L66.349 11.375C66.2709 10.5234 66.0326 9.86328 65.6342 9.39453C65.2357 8.92578 64.7006 8.69141 64.0287 8.69141C63.1849 8.69141 62.5326 8.95703 62.0717 9.48828C61.6107 10.0117 61.3802 10.7578 61.3802 11.7266V13.2734C61.3802 14.1953 61.6302 14.9062 62.1302 15.4062C62.6302 15.8984 63.3334 16.1445 64.2396 16.1445C64.7006 16.1445 65.1537 16.0586 65.599 15.8867C66.0521 15.707 66.4584 15.4609 66.8177 15.1484L68.6459 16.8594C68.0287 17.4375 67.3334 17.8867 66.5599 18.207C65.7943 18.5195 65.0209 18.6758 64.2396 18.6758ZM70.4857 6.33594H73.2748L75.431 14.4336L78.2318 6.33594H80.0131L82.8138 14.4336L84.9701 6.33594H87.7592L84.0092 18.5H81.9115L79.1224 10.332L76.3334 18.5H74.2357L70.4857 6.33594ZM94.6498 18.6758C93.5717 18.6758 92.6459 18.4688 91.8724 18.0547C91.1068 17.6406 90.5209 17.0391 90.1146 16.25C89.7162 15.4531 89.517 14.4961 89.517 13.3789V11.3984C89.517 10.2969 89.7162 9.35547 90.1146 8.57422C90.5209 7.78516 91.1068 7.1875 91.8724 6.78125C92.6459 6.36719 93.5717 6.16016 94.6498 6.16016C95.7279 6.16016 96.6498 6.36719 97.4154 6.78125C98.1888 7.1875 98.7748 7.78516 99.1732 8.57422C99.5795 9.35547 99.7826 10.2969 99.7826 11.3984V13.4141C99.7826 14.5234 99.5795 15.4727 99.1732 16.2617C98.7748 17.043 98.1888 17.6406 97.4154 18.0547C96.6498 18.4688 95.7279 18.6758 94.6498 18.6758ZM94.6498 15.9922C95.392 15.9922 95.9662 15.7695 96.3724 15.3242C96.7787 14.8711 96.9818 14.2344 96.9818 13.4141V11.3984C96.9818 10.5859 96.7787 9.95703 96.3724 9.51172C95.9662 9.06641 95.392 8.84375 94.6498 8.84375C93.9076 8.84375 93.3334 9.06641 92.9271 9.51172C92.5209 9.95703 92.3177 10.5859 92.3177 11.3984V13.4141C92.3177 14.2344 92.517 14.8711 92.9154 15.3242C93.3217 15.7695 93.8998 15.9922 94.6498 15.9922ZM102.947 6.33594H105.865V18.5H102.947V6.33594ZM109.72 9.46484C109.533 9.26172 109.302 9.10938 109.029 9.00781C108.755 8.89844 108.439 8.84375 108.079 8.84375C107.376 8.84375 106.829 9.05469 106.439 9.47656C106.056 9.89062 105.865 10.4688 105.865 11.2109L105.619 8.45703C105.97 7.73047 106.427 7.16797 106.99 6.76953C107.56 6.36328 108.185 6.16016 108.865 6.16016C109.396 6.16016 109.876 6.24219 110.306 6.40625C110.736 6.5625 111.111 6.79688 111.431 7.10938L109.72 9.46484ZM114.454 14L120.419 6.33594H123.525L114.595 17.1875L114.454 14ZM113.189 1.46094H115.99V18.5H113.189V1.46094ZM117.302 11.8438L119.4 10.25L124.122 18.5H120.97L117.302 11.8438ZM130.369 18.6758C129.642 18.6758 128.951 18.6094 128.294 18.4766C127.638 18.3359 127.021 18.1328 126.443 17.8672C125.872 17.6016 125.357 17.2773 124.896 16.8945L126.595 14.7852C127.212 15.2227 127.841 15.5547 128.482 15.7812C129.13 16.0078 129.759 16.1211 130.369 16.1211C131.22 16.1211 131.865 16.0078 132.302 15.7812C132.747 15.5469 132.97 15.2109 132.97 14.7734C132.97 14.4375 132.861 14.1875 132.642 14.0234C132.423 13.8516 132.146 13.7344 131.81 13.6719C131.482 13.6094 131.017 13.5508 130.415 13.4961C130.314 13.4883 130.208 13.4805 130.099 13.4727C129.99 13.4648 129.884 13.4531 129.783 13.4375C129.751 13.4375 129.72 13.4375 129.689 13.4375C129.658 13.4297 129.626 13.4258 129.595 13.4258C128.744 13.332 128.044 13.2031 127.497 13.0391C126.951 12.8672 126.49 12.543 126.115 12.0664C125.747 11.5898 125.564 10.9062 125.564 10.0156C125.564 9.17969 125.747 8.47656 126.115 7.90625C126.49 7.32812 127.036 6.89453 127.755 6.60547C128.474 6.30859 129.357 6.16016 130.404 6.16016C131.029 6.16016 131.638 6.22266 132.232 6.34766C132.826 6.46484 133.392 6.64062 133.931 6.875C134.478 7.10156 134.994 7.38672 135.478 7.73047L133.802 9.76953C133.232 9.42578 132.654 9.16406 132.068 8.98438C131.49 8.80469 130.927 8.71484 130.38 8.71484C129.646 8.71484 129.087 8.82031 128.704 9.03125C128.322 9.24219 128.13 9.55469 128.13 9.96875C128.13 10.2344 128.236 10.4375 128.447 10.5781C128.658 10.7188 128.919 10.8164 129.232 10.8711C129.552 10.918 130.013 10.9688 130.615 11.0234C130.677 11.0312 130.736 11.0391 130.79 11.0469C130.853 11.0469 130.915 11.0508 130.978 11.0586C131.001 11.0586 131.029 11.0586 131.06 11.0586C131.091 11.0586 131.122 11.0625 131.154 11.0703C132.052 11.1562 132.798 11.2852 133.392 11.457C133.986 11.6289 134.49 11.9727 134.904 12.4883C135.318 12.9961 135.525 13.7383 135.525 14.7148C135.525 15.5742 135.329 16.3008 134.939 16.8945C134.548 17.4805 133.966 17.9258 133.193 18.2305C132.427 18.5273 131.486 18.6758 130.369 18.6758ZM152.892 11.0586V13.7305H144.783V11.0586H152.892ZM164.376 15.8516H169.404C170.38 15.8516 171.107 15.6484 171.583 15.2422C172.06 14.8281 172.298 14.2539 172.298 13.5195V13.4844C172.298 12.9766 172.204 12.543 172.017 12.1836C171.829 11.8242 171.54 11.5508 171.15 11.3633C170.759 11.168 170.275 11.0703 169.697 11.0703H164.376V8.44531H169.697C170.47 8.44531 171.06 8.25781 171.466 7.88281C171.872 7.50781 172.076 6.96484 172.076 6.25391C172.076 5.55078 171.861 5.01953 171.431 4.66016C171.001 4.29297 170.369 4.10938 169.533 4.10938H164.376V1.46094H169.802C170.904 1.46094 171.833 1.64844 172.591 2.02344C173.357 2.39062 173.931 2.91797 174.314 3.60547C174.704 4.29297 174.9 5.11719 174.9 6.07812C174.9 6.70312 174.775 7.27344 174.525 7.78906C174.283 8.29688 173.919 8.72266 173.435 9.06641C172.958 9.41016 172.372 9.64453 171.677 9.76953C172.396 9.87109 173.013 10.1094 173.529 10.4844C174.044 10.8516 174.439 11.3242 174.712 11.9023C174.986 12.4727 175.122 13.1133 175.122 13.8242V13.8594C175.122 14.8047 174.915 15.6289 174.501 16.332C174.095 17.0273 173.505 17.5625 172.732 17.9375C171.966 18.3125 171.056 18.5 170.001 18.5H164.376V15.8516ZM162.97 1.46094H165.759V18.5H162.97V1.46094ZM185.013 10.7891C185.013 10.1094 184.81 9.58203 184.404 9.20703C184.005 8.83203 183.439 8.64453 182.704 8.64453C182.236 8.64453 181.775 8.71875 181.322 8.86719C180.869 9.01562 180.462 9.22266 180.103 9.48828L178.24 7.91797C178.716 7.36328 179.341 6.93359 180.115 6.62891C180.888 6.31641 181.747 6.16016 182.693 6.16016C183.724 6.16016 184.607 6.33984 185.341 6.69922C186.076 7.05078 186.634 7.56641 187.017 8.24609C187.408 8.91797 187.603 9.73047 187.603 10.6836V18.5H185.013V10.7891ZM181.826 18.6758C180.427 18.6758 179.38 18.3672 178.685 17.75C177.99 17.125 177.642 16.1797 177.642 14.9141C177.642 13.7109 177.994 12.8086 178.697 12.207C179.4 11.6055 180.454 11.3047 181.861 11.3047H185.119L185.283 13.4844H181.872C181.318 13.4844 180.9 13.6016 180.619 13.8359C180.345 14.0703 180.208 14.4297 180.208 14.9141C180.208 15.4219 180.388 15.8008 180.747 16.0508C181.107 16.293 181.65 16.4141 182.376 16.4141C183.267 16.4141 183.927 16.3164 184.357 16.1211C184.794 15.9258 185.013 15.6211 185.013 15.207L185.259 16.9414C185.126 17.3242 184.892 17.6445 184.556 17.9023C184.228 18.1602 183.829 18.3555 183.361 18.4883C182.892 18.6133 182.38 18.6758 181.826 18.6758ZM196.029 18.6758C194.896 18.6758 193.927 18.4648 193.122 18.043C192.318 17.6133 191.704 16.9922 191.283 16.1797C190.861 15.3594 190.65 14.3711 190.65 13.2148V11.5625C190.65 10.4219 190.861 9.44922 191.283 8.64453C191.704 7.83203 192.318 7.21484 193.122 6.79297C193.927 6.37109 194.896 6.16016 196.029 6.16016C196.677 6.16016 197.286 6.23828 197.857 6.39453C198.435 6.54297 198.951 6.76172 199.404 7.05078C199.865 7.33984 200.247 7.69141 200.552 8.10547L198.654 9.88672C198.333 9.55078 197.958 9.29297 197.529 9.11328C197.099 8.93359 196.65 8.84375 196.181 8.84375C195.314 8.84375 194.642 9.08203 194.165 9.55859C193.689 10.0273 193.451 10.6953 193.451 11.5625V13.2148C193.451 14.1055 193.685 14.793 194.154 15.2773C194.63 15.7539 195.306 15.9922 196.181 15.9922C196.658 15.9922 197.111 15.8945 197.54 15.6992C197.97 15.5039 198.341 15.2266 198.654 14.8672L200.552 16.7656C200.24 17.1719 199.853 17.5195 199.392 17.8086C198.939 18.0898 198.423 18.3047 197.845 18.4531C197.275 18.6016 196.669 18.6758 196.029 18.6758ZM204.22 14L210.185 6.33594H213.29L204.361 17.1875L204.22 14ZM202.954 1.46094H205.755V18.5H202.954V1.46094ZM207.068 11.8438L209.165 10.25L213.888 18.5H210.736L207.068 11.8438ZM223.767 11.0586V13.7305H215.658V11.0586H223.767ZM232.263 18.6758C231.115 18.6758 230.134 18.4648 229.322 18.043C228.509 17.6211 227.888 17.0039 227.458 16.1914C227.029 15.3711 226.814 14.3828 226.814 13.2266V11.8555C226.814 10.6523 227.017 9.625 227.423 8.77344C227.837 7.92188 228.435 7.27344 229.216 6.82812C230.005 6.38281 230.951 6.16016 232.052 6.16016C233.091 6.16016 233.978 6.42187 234.712 6.94531C235.454 7.46094 236.017 8.21094 236.4 9.19531C236.79 10.1797 236.986 11.3672 236.986 12.7578V13.5547H228.724V11.5039H234.384L234.372 11.375C234.294 10.5234 234.056 9.86328 233.658 9.39453C233.259 8.92578 232.724 8.69141 232.052 8.69141C231.208 8.69141 230.556 8.95703 230.095 9.48828C229.634 10.0117 229.404 10.7578 229.404 11.7266V13.2734C229.404 14.1953 229.654 14.9062 230.154 15.4062C230.654 15.8984 231.357 16.1445 232.263 16.1445C232.724 16.1445 233.177 16.0586 233.622 15.8867C234.076 15.707 234.482 15.4609 234.841 15.1484L236.669 16.8594C236.052 17.4375 235.357 17.8867 234.583 18.207C233.818 18.5195 233.044 18.6758 232.263 18.6758ZM240.033 6.33594H242.833V18.5H240.033V6.33594ZM247.24 11.1289C247.24 10.4023 247.044 9.83984 246.654 9.44141C246.263 9.04297 245.708 8.84375 244.99 8.84375C244.302 8.84375 243.771 9.03125 243.396 9.40625C243.021 9.77344 242.833 10.2969 242.833 10.9766L242.587 8.45703C242.954 7.70703 243.415 7.13672 243.97 6.74609C244.533 6.35547 245.193 6.16016 245.951 6.16016C247.247 6.16016 248.251 6.59375 248.962 7.46094C249.681 8.32031 250.04 9.53906 250.04 11.1172V18.5H247.24V11.1289ZM260.177 1.46094H262.978V18.5H260.177V1.46094ZM257.236 18.6992C256.361 18.6992 255.611 18.5 254.986 18.1016C254.369 17.6953 253.896 17.1133 253.568 16.3555C253.247 15.5898 253.087 14.668 253.087 13.5898V11.2695C253.087 10.1914 253.247 9.26953 253.568 8.50391C253.888 7.73047 254.353 7.14453 254.962 6.74609C255.579 6.33984 256.318 6.13672 257.177 6.13672C257.865 6.13672 258.49 6.32812 259.052 6.71094C259.622 7.09375 260.079 7.63281 260.423 8.32812L260.177 10.918C260.177 10.4492 260.095 10.0508 259.931 9.72266C259.767 9.39453 259.529 9.14453 259.216 8.97266C258.904 8.80078 258.525 8.71484 258.079 8.71484C257.384 8.71484 256.845 8.94141 256.462 9.39453C256.079 9.84766 255.888 10.4805 255.888 11.293V13.5898C255.888 14.3945 256.079 15.0195 256.462 15.4648C256.845 15.9023 257.384 16.1211 258.079 16.1211C258.525 16.1211 258.904 16.0352 259.216 15.8633C259.529 15.6836 259.767 15.4297 259.931 15.1016C260.095 14.7734 260.177 14.3789 260.177 13.918L260.341 16.5898C260.099 17.2227 259.708 17.7344 259.169 18.125C258.638 18.5078 257.994 18.6992 257.236 18.6992Z" fill="#F1F5F9"/>
<path d="M276.752 9.86375V10.1363C278.331 10.3068 279.104 11.1644 279.104 12.8112V15.8154C279.104 17.6444 279.717 18.3867 281.232 18.3867H281.661V20H281.07C278.537 20 277.343 18.7311 277.343 16.0679V13.52C277.343 11.691 276.752 11.0858 275.001 11.0858V8.91415C276.752 8.91415 277.343 8.30895 277.343 6.47998V3.93213C277.343 1.26891 278.535 0 281.07 0H281.661V1.61164H281.232C279.717 1.61164 279.104 2.35393 279.104 4.1829V7.18883C279.104 8.83391 278.331 9.69155 276.752 9.86375ZM295.251 10.1363V9.86375C293.671 9.69155 292.898 8.83391 292.898 7.18883V4.1829C292.898 2.35393 292.285 1.61164 290.771 1.61164H290.342V0H290.932C293.467 0 294.66 1.26891 294.66 3.93213V6.47998C294.66 8.30895 295.251 8.91415 297.001 8.91415V11.0858C295.251 11.0858 294.66 11.691 294.66 13.52V16.0679C294.66 18.7311 293.466 20 290.932 20H290.342V18.3884H290.771C292.285 18.3884 292.898 17.6461 292.898 15.8171V12.8112C292.898 11.1661 293.671 10.3085 295.251 10.1363Z" fill="#F1F5F9"/>
</svg>
