<svg width="390" height="24" viewBox="0 0 390 24" fill="none" xmlns="http://www.w3.org/2000/svg">
<path d="M2.78259 0.28125H6.51697V23H2.78259V0.28125ZM4.34509 10.1406H15.6732V13.7031H4.34509V10.1406ZM4.34509 0.28125H17.392V3.85938H4.34509V0.28125ZM20.3763 6.78125H24.267V23H20.3763V6.78125ZM29.4076 10.9531C29.1576 10.6823 28.8503 10.4792 28.4857 10.3438C28.1211 10.1979 27.6993 10.125 27.2201 10.125C26.2826 10.125 25.5534 10.4062 25.0326 10.9688C24.5222 11.5208 24.267 12.2917 24.267 13.2812L23.9388 9.60938C24.4076 8.64062 25.017 7.89062 25.767 7.35938C26.5274 6.81771 27.3607 6.54688 28.267 6.54688C28.9753 6.54688 29.6159 6.65625 30.1888 6.875C30.7618 7.08333 31.2618 7.39583 31.6888 7.8125L29.4076 10.9531ZM43.0795 12.7188C43.0795 11.8125 42.8086 11.1094 42.267 10.6094C41.7357 10.1094 40.9805 9.85938 40.0013 9.85938C39.3763 9.85938 38.7618 9.95833 38.1576 10.1562C37.5534 10.3542 37.0118 10.6302 36.5326 10.9844L34.0482 8.89062C34.6836 8.15104 35.517 7.57812 36.5482 7.17188C37.5795 6.75521 38.7253 6.54688 39.9857 6.54688C41.3607 6.54688 42.5378 6.78646 43.517 7.26562C44.4961 7.73438 45.2409 8.42188 45.7513 9.32812C46.2722 10.224 46.5326 11.3073 46.5326 12.5781V23H43.0795V12.7188ZM38.8295 23.2344C36.9649 23.2344 35.5691 22.8229 34.642 22C33.7149 21.1667 33.2513 19.9062 33.2513 18.2188C33.2513 16.6146 33.7201 15.4115 34.6576 14.6094C35.5951 13.8073 37.0013 13.4062 38.8763 13.4062H43.2201L43.4388 16.3125H38.892C38.1524 16.3125 37.5951 16.4688 37.2201 16.7812C36.8555 17.0938 36.6732 17.5729 36.6732 18.2188C36.6732 18.8958 36.9128 19.401 37.392 19.7344C37.8711 20.0573 38.5951 20.2188 39.5638 20.2188C40.7513 20.2188 41.6316 20.0885 42.2045 19.8281C42.7878 19.5677 43.0795 19.1615 43.0795 18.6094L43.4076 20.9219C43.2305 21.4323 42.918 21.8594 42.4701 22.2031C42.0326 22.5469 41.5013 22.8073 40.8763 22.9844C40.2513 23.151 39.5691 23.2344 38.8295 23.2344ZM70.2045 13.4062C70.2045 12.3542 69.9441 11.5469 69.4232 10.9844C68.9024 10.4115 68.1628 10.125 67.2045 10.125C66.2982 10.125 65.5951 10.401 65.0951 10.9531C64.6055 11.4948 64.3607 12.2708 64.3607 13.2812L63.642 9.84375C64.1524 8.79167 64.8191 7.97917 65.642 7.40625C66.4753 6.83333 67.3972 6.54688 68.4076 6.54688C69.5743 6.54688 70.5691 6.8125 71.392 7.34375C72.2253 7.875 72.8555 8.65625 73.2826 9.6875C73.7201 10.7083 73.9388 11.9427 73.9388 13.3906V23H70.2045V13.4062ZM51.0638 6.78125H54.7982V23H51.0638V6.78125ZM60.642 13.4062C60.642 12.3542 60.3816 11.5469 59.8607 10.9844C59.3503 10.4115 58.6211 10.125 57.6732 10.125C56.7566 10.125 56.0482 10.375 55.5482 10.875C55.0482 11.3646 54.7982 12.0625 54.7982 12.9688L54.4701 9.60938C54.9597 8.61979 55.5847 7.86458 56.3451 7.34375C57.1055 6.8125 57.9753 6.54688 58.9545 6.54688C60.0899 6.54688 61.0638 6.8125 61.8763 7.34375C62.6888 7.875 63.3034 8.65625 63.7201 9.6875C64.1472 10.7083 64.3607 11.9427 64.3607 13.3906V23H60.642V13.4062ZM85.267 23.2344C83.7357 23.2344 82.4284 22.9531 81.3451 22.3906C80.2618 21.8281 79.4336 21.0052 78.8607 19.9219C78.2878 18.8281 78.0013 17.5104 78.0013 15.9688V14.1406C78.0013 12.5365 78.2722 11.1667 78.8138 10.0312C79.3659 8.89583 80.1628 8.03125 81.2045 7.4375C82.2566 6.84375 83.517 6.54688 84.9857 6.54688C86.3711 6.54688 87.5534 6.89583 88.5326 7.59375C89.5222 8.28125 90.2722 9.28125 90.7826 10.5938C91.3034 11.9062 91.5638 13.4896 91.5638 15.3438V16.4062H80.5482V13.6719H88.0951L88.0795 13.5C87.9753 12.3646 87.6576 11.4844 87.1263 10.8594C86.5951 10.2344 85.8816 9.92188 84.9857 9.92188C83.8607 9.92188 82.9909 10.276 82.3763 10.9844C81.7618 11.6823 81.4545 12.6771 81.4545 13.9688V16.0312C81.4545 17.2604 81.7878 18.2083 82.4545 18.875C83.1211 19.5312 84.0586 19.8594 85.267 19.8594C85.8816 19.8594 86.4857 19.7448 87.0795 19.5156C87.6836 19.276 88.2253 18.9479 88.7045 18.5312L91.142 20.8125C90.3191 21.5833 89.392 22.1823 88.3607 22.6094C87.3399 23.026 86.3086 23.2344 85.267 23.2344ZM93.5951 6.78125H97.3138L100.189 17.5781L103.923 6.78125H106.298L110.033 17.5781L112.908 6.78125H116.626L111.626 23H108.829L105.111 12.1094L101.392 23H98.5951L93.5951 6.78125ZM125.814 23.2344C124.376 23.2344 123.142 22.9583 122.111 22.4062C121.09 21.8542 120.309 21.0521 119.767 20C119.236 18.9375 118.97 17.6615 118.97 16.1719V13.5312C118.97 12.0625 119.236 10.8073 119.767 9.76562C120.309 8.71354 121.09 7.91667 122.111 7.375C123.142 6.82292 124.376 6.54688 125.814 6.54688C127.251 6.54688 128.481 6.82292 129.501 7.375C130.533 7.91667 131.314 8.71354 131.845 9.76562C132.387 10.8073 132.658 12.0625 132.658 13.5312V16.2188C132.658 17.6979 132.387 18.9635 131.845 20.0156C131.314 21.0573 130.533 21.8542 129.501 22.4062C128.481 22.9583 127.251 23.2344 125.814 23.2344ZM125.814 19.6562C126.803 19.6562 127.569 19.3594 128.111 18.7656C128.652 18.1615 128.923 17.3125 128.923 16.2188V13.5312C128.923 12.4479 128.652 11.6094 128.111 11.0156C127.569 10.4219 126.803 10.125 125.814 10.125C124.824 10.125 124.059 10.4219 123.517 11.0156C122.975 11.6094 122.704 12.4479 122.704 13.5312V16.2188C122.704 17.3125 122.97 18.1615 123.501 18.7656C124.043 19.3594 124.814 19.6562 125.814 19.6562ZM136.876 6.78125H140.767V23H136.876V6.78125ZM145.908 10.9531C145.658 10.6823 145.35 10.4792 144.986 10.3438C144.621 10.1979 144.199 10.125 143.72 10.125C142.783 10.125 142.053 10.4062 141.533 10.9688C141.022 11.5208 140.767 12.2917 140.767 13.2812L140.439 9.60938C140.908 8.64062 141.517 7.89062 142.267 7.35938C143.027 6.81771 143.861 6.54688 144.767 6.54688C145.475 6.54688 146.116 6.65625 146.689 6.875C147.262 7.08333 147.762 7.39583 148.189 7.8125L145.908 10.9531ZM152.22 17L160.173 6.78125H164.314L152.408 21.25L152.22 17ZM150.533 0.28125H154.267V23H150.533V0.28125ZM156.017 14.125L158.814 12L165.111 23H160.908L156.017 14.125ZM173.439 23.2344C172.47 23.2344 171.548 23.1458 170.673 22.9688C169.798 22.7812 168.975 22.5104 168.204 22.1562C167.444 21.8021 166.757 21.3698 166.142 20.8594L168.408 18.0469C169.231 18.6302 170.069 19.0729 170.923 19.375C171.788 19.6771 172.626 19.8281 173.439 19.8281C174.574 19.8281 175.434 19.6771 176.017 19.375C176.611 19.0625 176.908 18.6146 176.908 18.0312C176.908 17.5833 176.762 17.25 176.47 17.0312C176.178 16.8021 175.809 16.6458 175.361 16.5625C174.923 16.4792 174.303 16.401 173.501 16.3281C173.366 16.3177 173.225 16.3073 173.079 16.2969C172.934 16.2865 172.793 16.2708 172.658 16.25C172.616 16.25 172.574 16.25 172.533 16.25C172.491 16.2396 172.449 16.2344 172.408 16.2344C171.272 16.1094 170.34 15.9375 169.611 15.7188C168.882 15.4896 168.267 15.0573 167.767 14.4219C167.277 13.7865 167.033 12.875 167.033 11.6875C167.033 10.5729 167.277 9.63542 167.767 8.875C168.267 8.10417 168.996 7.52604 169.954 7.14062C170.913 6.74479 172.09 6.54688 173.486 6.54688C174.319 6.54688 175.132 6.63021 175.923 6.79688C176.715 6.95312 177.47 7.1875 178.189 7.5C178.918 7.80208 179.606 8.18229 180.251 8.64062L178.017 11.3594C177.257 10.901 176.486 10.5521 175.704 10.3125C174.934 10.0729 174.184 9.95312 173.454 9.95312C172.475 9.95312 171.731 10.0938 171.22 10.375C170.71 10.6562 170.454 11.0729 170.454 11.625C170.454 11.9792 170.595 12.25 170.876 12.4375C171.158 12.625 171.507 12.7552 171.923 12.8281C172.35 12.8906 172.965 12.9583 173.767 13.0312C173.85 13.0417 173.928 13.0521 174.001 13.0625C174.085 13.0625 174.168 13.0677 174.251 13.0781C174.283 13.0781 174.319 13.0781 174.361 13.0781C174.402 13.0781 174.444 13.0833 174.486 13.0938C175.684 13.2083 176.678 13.3802 177.47 13.6094C178.262 13.8385 178.934 14.2969 179.486 14.9844C180.038 15.6615 180.314 16.651 180.314 17.9531C180.314 19.099 180.053 20.0677 179.533 20.8594C179.012 21.6406 178.236 22.2344 177.204 22.6406C176.184 23.0365 174.928 23.2344 173.439 23.2344ZM203.47 13.0781V16.6406H192.658V13.0781H203.47ZM216.908 0.28125H220.642V23H216.908V0.28125ZM218.47 10.1406H229.798V13.7031H218.47V10.1406ZM218.47 0.28125H231.517V3.85938H218.47V0.28125ZM234.501 6.78125H238.392V23H234.501V6.78125ZM243.533 10.9531C243.283 10.6823 242.975 10.4792 242.611 10.3438C242.246 10.1979 241.824 10.125 241.345 10.125C240.408 10.125 239.678 10.4062 239.158 10.9688C238.647 11.5208 238.392 12.2917 238.392 13.2812L238.064 9.60938C238.533 8.64062 239.142 7.89062 239.892 7.35938C240.652 6.81771 241.486 6.54688 242.392 6.54688C243.1 6.54688 243.741 6.65625 244.314 6.875C244.887 7.08333 245.387 7.39583 245.814 7.8125L243.533 10.9531ZM254.22 23.2344C252.783 23.2344 251.548 22.9583 250.517 22.4062C249.496 21.8542 248.715 21.0521 248.173 20C247.642 18.9375 247.376 17.6615 247.376 16.1719V13.5312C247.376 12.0625 247.642 10.8073 248.173 9.76562C248.715 8.71354 249.496 7.91667 250.517 7.375C251.548 6.82292 252.783 6.54688 254.22 6.54688C255.658 6.54688 256.887 6.82292 257.908 7.375C258.939 7.91667 259.72 8.71354 260.251 9.76562C260.793 10.8073 261.064 12.0625 261.064 13.5312V16.2188C261.064 17.6979 260.793 18.9635 260.251 20.0156C259.72 21.0573 258.939 21.8542 257.908 22.4062C256.887 22.9583 255.658 23.2344 254.22 23.2344ZM254.22 19.6562C255.21 19.6562 255.975 19.3594 256.517 18.7656C257.059 18.1615 257.329 17.3125 257.329 16.2188V13.5312C257.329 12.4479 257.059 11.6094 256.517 11.0156C255.975 10.4219 255.21 10.125 254.22 10.125C253.231 10.125 252.465 10.4219 251.923 11.0156C251.382 11.6094 251.111 12.4479 251.111 13.5312V16.2188C251.111 17.3125 251.376 18.1615 251.908 18.7656C252.449 19.3594 253.22 19.6562 254.22 19.6562ZM265.283 6.78125H269.017V23H265.283V6.78125ZM274.892 13.1719C274.892 12.2031 274.632 11.4531 274.111 10.9219C273.59 10.3906 272.85 10.125 271.892 10.125C270.975 10.125 270.267 10.375 269.767 10.875C269.267 11.3646 269.017 12.0625 269.017 12.9688L268.689 9.60938C269.178 8.60938 269.793 7.84896 270.533 7.32812C271.283 6.80729 272.163 6.54688 273.173 6.54688C274.902 6.54688 276.241 7.125 277.189 8.28125C278.147 9.42708 278.626 11.0521 278.626 13.1562V23H274.892V13.1719ZM287.533 23.0781C286.168 23.0781 285.168 22.7188 284.533 22C283.897 21.2708 283.579 20.1979 283.579 18.7812V2.0625H287.314V18.2656C287.314 18.6615 287.392 18.9688 287.548 19.1875C287.704 19.3958 287.934 19.5 288.236 19.5H289.533V23.0781H287.533ZM281.908 6.78125H289.533V10.0469H281.908V6.78125ZM304.408 13.0781V16.6406H293.595V13.0781H304.408ZM315.736 23.2344C314.204 23.2344 312.897 22.9531 311.814 22.3906C310.731 21.8281 309.902 21.0052 309.329 19.9219C308.757 18.8281 308.47 17.5104 308.47 15.9688V14.1406C308.47 12.5365 308.741 11.1667 309.283 10.0312C309.835 8.89583 310.632 8.03125 311.673 7.4375C312.725 6.84375 313.986 6.54688 315.454 6.54688C316.84 6.54688 318.022 6.89583 319.001 7.59375C319.991 8.28125 320.741 9.28125 321.251 10.5938C321.772 11.9062 322.033 13.4896 322.033 15.3438V16.4062H311.017V13.6719H318.564L318.548 13.5C318.444 12.3646 318.126 11.4844 317.595 10.8594C317.064 10.2344 316.35 9.92188 315.454 9.92188C314.329 9.92188 313.46 10.276 312.845 10.9844C312.231 11.6823 311.923 12.6771 311.923 13.9688V16.0312C311.923 17.2604 312.257 18.2083 312.923 18.875C313.59 19.5312 314.527 19.8594 315.736 19.8594C316.35 19.8594 316.954 19.7448 317.548 19.5156C318.152 19.276 318.694 18.9479 319.173 18.5312L321.611 20.8125C320.788 21.5833 319.861 22.1823 318.829 22.6094C317.809 23.026 316.777 23.2344 315.736 23.2344ZM326.095 6.78125H329.829V23H326.095V6.78125ZM335.704 13.1719C335.704 12.2031 335.444 11.4531 334.923 10.9219C334.402 10.3906 333.663 10.125 332.704 10.125C331.788 10.125 331.079 10.375 330.579 10.875C330.079 11.3646 329.829 12.0625 329.829 12.9688L329.501 9.60938C329.991 8.60938 330.606 7.84896 331.345 7.32812C332.095 6.80729 332.975 6.54688 333.986 6.54688C335.715 6.54688 337.053 7.125 338.001 8.28125C338.96 9.42708 339.439 11.0521 339.439 13.1562V23H335.704V13.1719ZM352.954 0.28125H356.689V23H352.954V0.28125ZM349.033 23.2656C347.866 23.2656 346.866 23 346.033 22.4688C345.21 21.9271 344.579 21.151 344.142 20.1406C343.715 19.1198 343.501 17.8906 343.501 16.4531V13.3594C343.501 11.9219 343.715 10.6927 344.142 9.67188C344.569 8.64062 345.189 7.85938 346.001 7.32812C346.824 6.78646 347.809 6.51562 348.954 6.51562C349.871 6.51562 350.704 6.77083 351.454 7.28125C352.215 7.79167 352.824 8.51042 353.283 9.4375L352.954 12.8906C352.954 12.2656 352.845 11.7344 352.626 11.2969C352.408 10.8594 352.09 10.526 351.673 10.2969C351.257 10.0677 350.751 9.95312 350.158 9.95312C349.231 9.95312 348.512 10.2552 348.001 10.8594C347.491 11.4635 347.236 12.3073 347.236 13.3906V16.4531C347.236 17.526 347.491 18.3594 348.001 18.9531C348.512 19.5365 349.231 19.8281 350.158 19.8281C350.751 19.8281 351.257 19.7135 351.673 19.4844C352.09 19.2448 352.408 18.9062 352.626 18.4688C352.845 18.0312 352.954 17.5052 352.954 16.8906L353.173 20.4531C352.85 21.2969 352.329 21.9792 351.611 22.5C350.902 23.0104 350.043 23.2656 349.033 23.2656Z" fill="#F1F5F9"/>
<path d="M382.97 2.42441C382.997 2.33473 383.007 2.24051 382.998 2.14711C382.989 2.05371 382.963 1.96296 382.92 1.88005C382.877 1.79714 382.818 1.7237 382.747 1.6639C382.676 1.60411 382.595 1.55914 382.507 1.53156C382.419 1.50398 382.327 1.49434 382.235 1.50318C382.144 1.51202 382.055 1.53916 381.973 1.58307C381.892 1.62698 381.82 1.68679 381.762 1.75908C381.703 1.83138 381.659 1.91474 381.632 2.00441L376.033 20.5756C375.978 20.7567 375.996 20.9525 376.083 21.1199C376.17 21.2874 376.318 21.4127 376.496 21.4684C376.673 21.5241 376.865 21.5056 377.029 21.4169C377.193 21.3283 377.316 21.1767 377.371 20.9956L382.97 2.42441ZM375.097 5.99436C375.163 6.06071 375.214 6.13953 375.25 6.22631C375.285 6.31309 375.303 6.40611 375.303 6.50007C375.303 6.59402 375.285 6.68705 375.25 6.77383C375.214 6.8606 375.163 6.93942 375.097 7.00577L370.692 11.5L375.097 15.9942C375.229 16.1283 375.303 16.3103 375.303 16.4999C375.303 16.6896 375.229 16.8715 375.097 17.0056C374.966 17.1398 374.788 17.2151 374.602 17.2151C374.416 17.2151 374.238 17.1398 374.106 17.0056L369.207 12.0057C369.142 11.9394 369.09 11.8605 369.055 11.7738C369.02 11.687 369.001 11.594 369.001 11.5C369.001 11.406 369.02 11.313 369.055 11.2262C369.09 11.1395 369.142 11.0606 369.207 10.9943L374.106 5.99436C374.171 5.92784 374.249 5.87507 374.334 5.83906C374.419 5.80305 374.51 5.78451 374.602 5.78451C374.694 5.78451 374.785 5.80305 374.87 5.83906C374.955 5.87507 375.032 5.92784 375.097 5.99436ZM383.905 5.99436C383.84 6.06071 383.788 6.13953 383.753 6.22631C383.718 6.31309 383.7 6.40611 383.7 6.50007C383.7 6.59402 383.718 6.68705 383.753 6.77383C383.788 6.8606 383.84 6.93942 383.905 7.00577L388.31 11.5L383.905 15.9942C383.84 16.0606 383.789 16.1395 383.753 16.2262C383.718 16.313 383.7 16.406 383.7 16.4999C383.7 16.5939 383.718 16.6869 383.753 16.7736C383.789 16.8604 383.84 16.9392 383.905 17.0056C383.97 17.0721 384.048 17.1247 384.133 17.1607C384.218 17.1966 384.309 17.2151 384.401 17.2151C384.493 17.2151 384.584 17.1966 384.669 17.1607C384.754 17.1247 384.831 17.0721 384.896 17.0056L389.796 12.0057C389.861 11.9394 389.913 11.8605 389.948 11.7738C389.983 11.687 390.001 11.594 390.001 11.5C390.001 11.406 389.983 11.313 389.948 11.2262C389.913 11.1395 389.861 11.0606 389.796 10.9943L384.896 5.99436C384.831 5.92784 384.754 5.87507 384.669 5.83906C384.584 5.80305 384.493 5.78451 384.401 5.78451C384.309 5.78451 384.218 5.80305 384.133 5.83906C384.047 5.87507 383.97 5.92784 383.905 5.99436Z" fill="#F1F5F9"/>
</svg>
