<svg width="365" height="30" viewBox="0 0 365 30" fill="none" xmlns="http://www.w3.org/2000/svg">
<path d="M2.90759 0.28125H6.64197V23H2.90759V0.28125ZM4.65759 19.4219H17.8138V23H4.65759V19.4219ZM29.9857 12.7188C29.9857 11.8125 29.7149 11.1094 29.1732 10.6094C28.642 10.1094 27.8868 9.85938 26.9076 9.85938C26.2826 9.85938 25.668 9.95833 25.0638 10.1562C24.4597 10.3542 23.918 10.6302 23.4388 10.9844L20.9545 8.89062C21.5899 8.15104 22.4232 7.57812 23.4545 7.17188C24.4857 6.75521 25.6316 6.54688 26.892 6.54688C28.267 6.54688 29.4441 6.78646 30.4232 7.26562C31.4024 7.73438 32.1472 8.42188 32.6576 9.32812C33.1784 10.224 33.4388 11.3073 33.4388 12.5781V23H29.9857V12.7188ZM25.7357 23.2344C23.8711 23.2344 22.4753 22.8229 21.5482 22C20.6211 21.1667 20.1576 19.9062 20.1576 18.2188C20.1576 16.6146 20.6263 15.4115 21.5638 14.6094C22.5013 13.8073 23.9076 13.4062 25.7826 13.4062H30.1263L30.3451 16.3125H25.7982C25.0586 16.3125 24.5013 16.4688 24.1263 16.7812C23.7618 17.0938 23.5795 17.5729 23.5795 18.2188C23.5795 18.8958 23.8191 19.401 24.2982 19.7344C24.7774 20.0573 25.5013 20.2188 26.4701 20.2188C27.6576 20.2188 28.5378 20.0885 29.1107 19.8281C29.6941 19.5677 29.9857 19.1615 29.9857 18.6094L30.3138 20.9219C30.1368 21.4323 29.8243 21.8594 29.3763 22.2031C28.9388 22.5469 28.4076 22.8073 27.7826 22.9844C27.1576 23.151 26.4753 23.2344 25.7357 23.2344ZM37.9701 6.78125H41.7045V23H37.9701V6.78125ZM47.5795 13.1719C47.5795 12.2031 47.3191 11.4531 46.7982 10.9219C46.2774 10.3906 45.5378 10.125 44.5795 10.125C43.6628 10.125 42.9545 10.375 42.4545 10.875C41.9545 11.3646 41.7045 12.0625 41.7045 12.9688L41.3763 9.60938C41.8659 8.60938 42.4805 7.84896 43.2201 7.32812C43.9701 6.80729 44.8503 6.54688 45.8607 6.54688C47.5899 6.54688 48.9284 7.125 49.8763 8.28125C50.8347 9.42708 51.3138 11.0521 51.3138 13.1562V23H47.5795V13.1719ZM61.4388 29.5938C60.1888 29.5938 59.0691 29.3646 58.0795 28.9062C57.0899 28.4583 56.3191 27.8229 55.767 27L58.2826 24.7031C58.668 25.1927 59.1316 25.5677 59.6732 25.8281C60.2253 26.0885 60.7982 26.2188 61.392 26.2188C62.4545 26.2188 63.293 25.9271 63.9076 25.3438C64.5222 24.7708 64.8295 23.9583 64.8295 22.9062V6.78125H68.5638V22.5156C68.5638 24.0052 68.2826 25.2812 67.7201 26.3438C67.168 27.4062 66.3555 28.2135 65.2826 28.7656C64.2201 29.3177 62.9388 29.5938 61.4388 29.5938ZM60.9076 23.2656C59.7409 23.2656 58.7409 23 57.9076 22.4688C57.0847 21.9271 56.4545 21.151 56.017 20.1406C55.5899 19.1198 55.3763 17.8906 55.3763 16.4531V13.3594C55.3763 11.9219 55.5899 10.6927 56.017 9.67188C56.4441 8.64062 57.0638 7.85938 57.8763 7.32812C58.6993 6.78646 59.6836 6.51562 60.8295 6.51562C61.7461 6.51562 62.5795 6.77083 63.3295 7.28125C64.0899 7.79167 64.6993 8.51042 65.1576 9.4375L64.8295 12.8906C64.8295 12.2656 64.7201 11.7344 64.5013 11.2969C64.2826 10.8594 63.9649 10.526 63.5482 10.2969C63.1316 10.0677 62.6263 9.95312 62.0326 9.95312C61.1055 9.95312 60.3868 10.2552 59.8763 10.8594C59.3659 11.4635 59.1107 12.3073 59.1107 13.3906V16.4531C59.1107 17.526 59.3659 18.3594 59.8763 18.9531C60.3868 19.5365 61.1055 19.8281 62.0326 19.8281C62.6263 19.8281 63.1316 19.7135 63.5482 19.4844C63.9649 19.2448 64.2826 18.9062 64.5013 18.4688C64.7201 18.0312 64.8295 17.5052 64.8295 16.8906L65.0482 20.4531C64.7253 21.2969 64.2045 21.9792 63.4857 22.5C62.7774 23.0104 61.918 23.2656 60.9076 23.2656ZM82.642 6.78125H86.3607V23H82.642V6.78125ZM76.8295 16.6406C76.8295 17.599 77.0847 18.3438 77.5951 18.875C78.1055 19.3958 78.8243 19.6562 79.7513 19.6562C80.6784 19.6562 81.392 19.4115 81.892 18.9219C82.392 18.4219 82.642 17.7083 82.642 16.7812L82.8607 20.25C82.5482 21.0938 82.0274 21.8021 81.2982 22.375C80.5691 22.9479 79.6784 23.2344 78.6263 23.2344C76.8659 23.2344 75.5013 22.6667 74.5326 21.5312C73.5743 20.3958 73.0951 18.7917 73.0951 16.7188V6.78125H76.8295V16.6406ZM99.9545 12.7188C99.9545 11.8125 99.6836 11.1094 99.142 10.6094C98.6107 10.1094 97.8555 9.85938 96.8763 9.85938C96.2513 9.85938 95.6368 9.95833 95.0326 10.1562C94.4284 10.3542 93.8868 10.6302 93.4076 10.9844L90.9232 8.89062C91.5586 8.15104 92.392 7.57812 93.4232 7.17188C94.4545 6.75521 95.6003 6.54688 96.8607 6.54688C98.2357 6.54688 99.4128 6.78646 100.392 7.26562C101.371 7.73438 102.116 8.42188 102.626 9.32812C103.147 10.224 103.408 11.3073 103.408 12.5781V23H99.9545V12.7188ZM95.7045 23.2344C93.8399 23.2344 92.4441 22.8229 91.517 22C90.5899 21.1667 90.1263 19.9062 90.1263 18.2188C90.1263 16.6146 90.5951 15.4115 91.5326 14.6094C92.4701 13.8073 93.8763 13.4062 95.7513 13.4062H100.095L100.314 16.3125H95.767C95.0274 16.3125 94.4701 16.4688 94.0951 16.7812C93.7305 17.0938 93.5482 17.5729 93.5482 18.2188C93.5482 18.8958 93.7878 19.401 94.267 19.7344C94.7461 20.0573 95.4701 20.2188 96.4388 20.2188C97.6263 20.2188 98.5066 20.0885 99.0795 19.8281C99.6628 19.5677 99.9545 19.1615 99.9545 18.6094L100.283 20.9219C100.106 21.4323 99.793 21.8594 99.3451 22.2031C98.9076 22.5469 98.3763 22.8073 97.7513 22.9844C97.1263 23.151 96.4441 23.2344 95.7045 23.2344ZM113.533 29.5938C112.283 29.5938 111.163 29.3646 110.173 28.9062C109.184 28.4583 108.413 27.8229 107.861 27L110.376 24.7031C110.762 25.1927 111.225 25.5677 111.767 25.8281C112.319 26.0885 112.892 26.2188 113.486 26.2188C114.548 26.2188 115.387 25.9271 116.001 25.3438C116.616 24.7708 116.923 23.9583 116.923 22.9062V6.78125H120.658V22.5156C120.658 24.0052 120.376 25.2812 119.814 26.3438C119.262 27.4062 118.449 28.2135 117.376 28.7656C116.314 29.3177 115.033 29.5938 113.533 29.5938ZM113.001 23.2656C111.835 23.2656 110.835 23 110.001 22.4688C109.178 21.9271 108.548 21.151 108.111 20.1406C107.684 19.1198 107.47 17.8906 107.47 16.4531V13.3594C107.47 11.9219 107.684 10.6927 108.111 9.67188C108.538 8.64062 109.158 7.85938 109.97 7.32812C110.793 6.78646 111.777 6.51562 112.923 6.51562C113.84 6.51562 114.673 6.77083 115.423 7.28125C116.184 7.79167 116.793 8.51042 117.251 9.4375L116.923 12.8906C116.923 12.2656 116.814 11.7344 116.595 11.2969C116.376 10.8594 116.059 10.526 115.642 10.2969C115.225 10.0677 114.72 9.95312 114.126 9.95312C113.199 9.95312 112.481 10.2552 111.97 10.8594C111.46 11.4635 111.204 12.3073 111.204 13.3906V16.4531C111.204 17.526 111.46 18.3594 111.97 18.9531C112.481 19.5365 113.199 19.8281 114.126 19.8281C114.72 19.8281 115.225 19.7135 115.642 19.4844C116.059 19.2448 116.376 18.9062 116.595 18.4688C116.814 18.0312 116.923 17.5052 116.923 16.8906L117.142 20.4531C116.819 21.2969 116.298 21.9792 115.579 22.5C114.871 23.0104 114.012 23.2656 113.001 23.2656ZM131.986 23.2344C130.454 23.2344 129.147 22.9531 128.064 22.3906C126.981 21.8281 126.152 21.0052 125.579 19.9219C125.007 18.8281 124.72 17.5104 124.72 15.9688V14.1406C124.72 12.5365 124.991 11.1667 125.533 10.0312C126.085 8.89583 126.882 8.03125 127.923 7.4375C128.975 6.84375 130.236 6.54688 131.704 6.54688C133.09 6.54688 134.272 6.89583 135.251 7.59375C136.241 8.28125 136.991 9.28125 137.501 10.5938C138.022 11.9062 138.283 13.4896 138.283 15.3438V16.4062H127.267V13.6719H134.814L134.798 13.5C134.694 12.3646 134.376 11.4844 133.845 10.8594C133.314 10.2344 132.6 9.92188 131.704 9.92188C130.579 9.92188 129.71 10.276 129.095 10.9844C128.481 11.6823 128.173 12.6771 128.173 13.9688V16.0312C128.173 17.2604 128.507 18.2083 129.173 18.875C129.84 19.5312 130.777 19.8594 131.986 19.8594C132.6 19.8594 133.204 19.7448 133.798 19.5156C134.402 19.276 134.944 18.9479 135.423 18.5312L137.861 20.8125C137.038 21.5833 136.111 22.1823 135.079 22.6094C134.059 23.026 133.027 23.2344 131.986 23.2344ZM148.314 23.2344C147.345 23.2344 146.423 23.1458 145.548 22.9688C144.673 22.7812 143.85 22.5104 143.079 22.1562C142.319 21.8021 141.632 21.3698 141.017 20.8594L143.283 18.0469C144.106 18.6302 144.944 19.0729 145.798 19.375C146.663 19.6771 147.501 19.8281 148.314 19.8281C149.449 19.8281 150.309 19.6771 150.892 19.375C151.486 19.0625 151.783 18.6146 151.783 18.0312C151.783 17.5833 151.637 17.25 151.345 17.0312C151.053 16.8021 150.684 16.6458 150.236 16.5625C149.798 16.4792 149.178 16.401 148.376 16.3281C148.241 16.3177 148.1 16.3073 147.954 16.2969C147.809 16.2865 147.668 16.2708 147.533 16.25C147.491 16.25 147.449 16.25 147.408 16.25C147.366 16.2396 147.324 16.2344 147.283 16.2344C146.147 16.1094 145.215 15.9375 144.486 15.7188C143.757 15.4896 143.142 15.0573 142.642 14.4219C142.152 13.7865 141.908 12.875 141.908 11.6875C141.908 10.5729 142.152 9.63542 142.642 8.875C143.142 8.10417 143.871 7.52604 144.829 7.14062C145.788 6.74479 146.965 6.54688 148.361 6.54688C149.194 6.54688 150.007 6.63021 150.798 6.79688C151.59 6.95312 152.345 7.1875 153.064 7.5C153.793 7.80208 154.481 8.18229 155.126 8.64062L152.892 11.3594C152.132 10.901 151.361 10.5521 150.579 10.3125C149.809 10.0729 149.059 9.95312 148.329 9.95312C147.35 9.95312 146.606 10.0938 146.095 10.375C145.585 10.6562 145.329 11.0729 145.329 11.625C145.329 11.9792 145.47 12.25 145.751 12.4375C146.033 12.625 146.382 12.7552 146.798 12.8281C147.225 12.8906 147.84 12.9583 148.642 13.0312C148.725 13.0417 148.803 13.0521 148.876 13.0625C148.96 13.0625 149.043 13.0677 149.126 13.0781C149.158 13.0781 149.194 13.0781 149.236 13.0781C149.277 13.0781 149.319 13.0833 149.361 13.0938C150.559 13.2083 151.553 13.3802 152.345 13.6094C153.137 13.8385 153.809 14.2969 154.361 14.9844C154.913 15.6615 155.189 16.651 155.189 17.9531C155.189 19.099 154.928 20.0677 154.408 20.8594C153.887 21.6406 153.111 22.2344 152.079 22.6406C151.059 23.0365 149.803 23.2344 148.314 23.2344ZM178.345 13.0781V16.6406H167.533V13.0781H178.345ZM191.783 0.28125H195.517V23H191.783V0.28125ZM193.345 10.1406H204.673V13.7031H193.345V10.1406ZM193.345 0.28125H206.392V3.85938H193.345V0.28125ZM209.376 6.78125H213.267V23H209.376V6.78125ZM218.408 10.9531C218.158 10.6823 217.85 10.4792 217.486 10.3438C217.121 10.1979 216.699 10.125 216.22 10.125C215.283 10.125 214.553 10.4062 214.033 10.9688C213.522 11.5208 213.267 12.2917 213.267 13.2812L212.939 9.60938C213.408 8.64062 214.017 7.89062 214.767 7.35938C215.527 6.81771 216.361 6.54688 217.267 6.54688C217.975 6.54688 218.616 6.65625 219.189 6.875C219.762 7.08333 220.262 7.39583 220.689 7.8125L218.408 10.9531ZM229.095 23.2344C227.658 23.2344 226.423 22.9583 225.392 22.4062C224.371 21.8542 223.59 21.0521 223.048 20C222.517 18.9375 222.251 17.6615 222.251 16.1719V13.5312C222.251 12.0625 222.517 10.8073 223.048 9.76562C223.59 8.71354 224.371 7.91667 225.392 7.375C226.423 6.82292 227.658 6.54688 229.095 6.54688C230.533 6.54688 231.762 6.82292 232.783 7.375C233.814 7.91667 234.595 8.71354 235.126 9.76562C235.668 10.8073 235.939 12.0625 235.939 13.5312V16.2188C235.939 17.6979 235.668 18.9635 235.126 20.0156C234.595 21.0573 233.814 21.8542 232.783 22.4062C231.762 22.9583 230.533 23.2344 229.095 23.2344ZM229.095 19.6562C230.085 19.6562 230.85 19.3594 231.392 18.7656C231.934 18.1615 232.204 17.3125 232.204 16.2188V13.5312C232.204 12.4479 231.934 11.6094 231.392 11.0156C230.85 10.4219 230.085 10.125 229.095 10.125C228.106 10.125 227.34 10.4219 226.798 11.0156C226.257 11.6094 225.986 12.4479 225.986 13.5312V16.2188C225.986 17.3125 226.251 18.1615 226.783 18.7656C227.324 19.3594 228.095 19.6562 229.095 19.6562ZM240.158 6.78125H243.892V23H240.158V6.78125ZM249.767 13.1719C249.767 12.2031 249.507 11.4531 248.986 10.9219C248.465 10.3906 247.725 10.125 246.767 10.125C245.85 10.125 245.142 10.375 244.642 10.875C244.142 11.3646 243.892 12.0625 243.892 12.9688L243.564 9.60938C244.053 8.60938 244.668 7.84896 245.408 7.32812C246.158 6.80729 247.038 6.54688 248.048 6.54688C249.777 6.54688 251.116 7.125 252.064 8.28125C253.022 9.42708 253.501 11.0521 253.501 13.1562V23H249.767V13.1719ZM262.408 23.0781C261.043 23.0781 260.043 22.7188 259.408 22C258.772 21.2708 258.454 20.1979 258.454 18.7812V2.0625H262.189V18.2656C262.189 18.6615 262.267 18.9688 262.423 19.1875C262.579 19.3958 262.809 19.5 263.111 19.5H264.408V23.0781H262.408ZM256.783 6.78125H264.408V10.0469H256.783V6.78125ZM279.283 13.0781V16.6406H268.47V13.0781H279.283ZM290.611 23.2344C289.079 23.2344 287.772 22.9531 286.689 22.3906C285.606 21.8281 284.777 21.0052 284.204 19.9219C283.632 18.8281 283.345 17.5104 283.345 15.9688V14.1406C283.345 12.5365 283.616 11.1667 284.158 10.0312C284.71 8.89583 285.507 8.03125 286.548 7.4375C287.6 6.84375 288.861 6.54688 290.329 6.54688C291.715 6.54688 292.897 6.89583 293.876 7.59375C294.866 8.28125 295.616 9.28125 296.126 10.5938C296.647 11.9062 296.908 13.4896 296.908 15.3438V16.4062H285.892V13.6719H293.439L293.423 13.5C293.319 12.3646 293.001 11.4844 292.47 10.8594C291.939 10.2344 291.225 9.92188 290.329 9.92188C289.204 9.92188 288.335 10.276 287.72 10.9844C287.106 11.6823 286.798 12.6771 286.798 13.9688V16.0312C286.798 17.2604 287.132 18.2083 287.798 18.875C288.465 19.5312 289.402 19.8594 290.611 19.8594C291.225 19.8594 291.829 19.7448 292.423 19.5156C293.027 19.276 293.569 18.9479 294.048 18.5312L296.486 20.8125C295.663 21.5833 294.736 22.1823 293.704 22.6094C292.684 23.026 291.652 23.2344 290.611 23.2344ZM300.97 6.78125H304.704V23H300.97V6.78125ZM310.579 13.1719C310.579 12.2031 310.319 11.4531 309.798 10.9219C309.277 10.3906 308.538 10.125 307.579 10.125C306.663 10.125 305.954 10.375 305.454 10.875C304.954 11.3646 304.704 12.0625 304.704 12.9688L304.376 9.60938C304.866 8.60938 305.481 7.84896 306.22 7.32812C306.97 6.80729 307.85 6.54688 308.861 6.54688C310.59 6.54688 311.928 7.125 312.876 8.28125C313.835 9.42708 314.314 11.0521 314.314 13.1562V23H310.579V13.1719ZM327.829 0.28125H331.564V23H327.829V0.28125ZM323.908 23.2656C322.741 23.2656 321.741 23 320.908 22.4688C320.085 21.9271 319.454 21.151 319.017 20.1406C318.59 19.1198 318.376 17.8906 318.376 16.4531V13.3594C318.376 11.9219 318.59 10.6927 319.017 9.67188C319.444 8.64062 320.064 7.85938 320.876 7.32812C321.699 6.78646 322.684 6.51562 323.829 6.51562C324.746 6.51562 325.579 6.77083 326.329 7.28125C327.09 7.79167 327.699 8.51042 328.158 9.4375L327.829 12.8906C327.829 12.2656 327.72 11.7344 327.501 11.2969C327.283 10.8594 326.965 10.526 326.548 10.2969C326.132 10.0677 325.626 9.95312 325.033 9.95312C324.106 9.95312 323.387 10.2552 322.876 10.8594C322.366 11.4635 322.111 12.3073 322.111 13.3906V16.4531C322.111 17.526 322.366 18.3594 322.876 18.9531C323.387 19.5365 324.106 19.8281 325.033 19.8281C325.626 19.8281 326.132 19.7135 326.548 19.4844C326.965 19.2448 327.283 18.9062 327.501 18.4688C327.72 18.0312 327.829 17.5052 327.829 16.8906L328.048 20.4531C327.725 21.2969 327.204 21.9792 326.486 22.5C325.777 23.0104 324.918 23.2656 323.908 23.2656Z" fill="#F1F5F9"/>
<path d="M357.97 2.42441C357.997 2.33473 358.007 2.24051 357.998 2.14711C357.989 2.05371 357.963 1.96296 357.92 1.88005C357.877 1.79714 357.818 1.7237 357.747 1.6639C357.676 1.60411 357.595 1.55914 357.507 1.53156C357.419 1.50398 357.327 1.49434 357.235 1.50318C357.144 1.51202 357.055 1.53916 356.973 1.58307C356.892 1.62698 356.82 1.68679 356.762 1.75908C356.703 1.83138 356.659 1.91474 356.632 2.00441L351.033 20.5756C350.978 20.7567 350.996 20.9525 351.083 21.1199C351.17 21.2874 351.318 21.4127 351.496 21.4684C351.673 21.5241 351.865 21.5056 352.029 21.4169C352.193 21.3283 352.316 21.1767 352.371 20.9956L357.97 2.42441ZM350.097 5.99436C350.163 6.06071 350.214 6.13953 350.25 6.22631C350.285 6.31309 350.303 6.40611 350.303 6.50007C350.303 6.59402 350.285 6.68705 350.25 6.77383C350.214 6.8606 350.163 6.93942 350.097 7.00577L345.692 11.5L350.097 15.9942C350.229 16.1283 350.303 16.3103 350.303 16.4999C350.303 16.6896 350.229 16.8715 350.097 17.0056C349.966 17.1398 349.788 17.2151 349.602 17.2151C349.416 17.2151 349.238 17.1398 349.106 17.0056L344.207 12.0057C344.142 11.9394 344.09 11.8605 344.055 11.7738C344.02 11.687 344.001 11.594 344.001 11.5C344.001 11.406 344.02 11.313 344.055 11.2262C344.09 11.1395 344.142 11.0606 344.207 10.9943L349.106 5.99436C349.171 5.92784 349.249 5.87507 349.334 5.83906C349.419 5.80305 349.51 5.78451 349.602 5.78451C349.694 5.78451 349.785 5.80305 349.87 5.83906C349.955 5.87507 350.032 5.92784 350.097 5.99436ZM358.905 5.99436C358.84 6.06071 358.788 6.13953 358.753 6.22631C358.718 6.31309 358.7 6.40611 358.7 6.50007C358.7 6.59402 358.718 6.68705 358.753 6.77383C358.788 6.8606 358.84 6.93942 358.905 7.00577L363.31 11.5L358.905 15.9942C358.84 16.0606 358.789 16.1395 358.753 16.2262C358.718 16.313 358.7 16.406 358.7 16.4999C358.7 16.5939 358.718 16.6869 358.753 16.7736C358.789 16.8604 358.84 16.9392 358.905 17.0056C358.97 17.0721 359.048 17.1247 359.133 17.1607C359.218 17.1966 359.309 17.2151 359.401 17.2151C359.493 17.2151 359.584 17.1966 359.669 17.1607C359.754 17.1247 359.831 17.0721 359.896 17.0056L364.796 12.0057C364.861 11.9394 364.913 11.8605 364.948 11.7738C364.983 11.687 365.001 11.594 365.001 11.5C365.001 11.406 364.983 11.313 364.948 11.2262C364.913 11.1395 364.861 11.0606 364.796 10.9943L359.896 5.99436C359.831 5.92784 359.754 5.87507 359.669 5.83906C359.584 5.80305 359.493 5.78451 359.401 5.78451C359.309 5.78451 359.218 5.80305 359.133 5.83906C359.047 5.87507 358.97 5.92784 358.905 5.99436Z" fill="#F1F5F9"/>
</svg>
