<svg width="282" height="24" viewBox="0 0 282 24" fill="none" xmlns="http://www.w3.org/2000/svg">
<path d="M2.43103 1.46094H5.23181V18.5H2.43103V1.46094ZM3.74353 15.8164H13.6107V18.5H3.74353V15.8164ZM22.7396 10.7891C22.7396 10.1094 22.5365 9.58203 22.1302 9.20703C21.7318 8.83203 21.1654 8.64453 20.431 8.64453C19.9623 8.64453 19.5013 8.71875 19.0482 8.86719C18.5951 9.01562 18.1888 9.22266 17.8295 9.48828L15.9662 7.91797C16.4427 7.36328 17.0677 6.93359 17.8412 6.62891C18.6146 6.31641 19.474 6.16016 20.4193 6.16016C21.4506 6.16016 22.3334 6.33984 23.0677 6.69922C23.8021 7.05078 24.3607 7.56641 24.7435 8.24609C25.1342 8.91797 25.3295 9.73047 25.3295 10.6836V18.5H22.7396V10.7891ZM19.5521 18.6758C18.1537 18.6758 17.1068 18.3672 16.4115 17.75C15.7162 17.125 15.3685 16.1797 15.3685 14.9141C15.3685 13.7109 15.7201 12.8086 16.4232 12.207C17.1263 11.6055 18.181 11.3047 19.5873 11.3047H22.8451L23.0092 13.4844H19.599C19.0443 13.4844 18.6263 13.6016 18.3451 13.8359C18.0717 14.0703 17.9349 14.4297 17.9349 14.9141C17.9349 15.4219 18.1146 15.8008 18.474 16.0508C18.8334 16.293 19.3763 16.4141 20.1029 16.4141C20.9935 16.4141 21.6537 16.3164 22.0834 16.1211C22.5209 15.9258 22.7396 15.6211 22.7396 15.207L22.9857 16.9414C22.8529 17.3242 22.6185 17.6445 22.2826 17.9023C21.9545 18.1602 21.556 18.3555 21.0873 18.4883C20.6185 18.6133 20.1068 18.6758 19.5521 18.6758ZM28.7279 6.33594H31.5287V18.5H28.7279V6.33594ZM35.9349 11.1289C35.9349 10.4023 35.7396 9.83984 35.349 9.44141C34.9584 9.04297 34.4037 8.84375 33.6849 8.84375C32.9974 8.84375 32.4662 9.03125 32.0912 9.40625C31.7162 9.77344 31.5287 10.2969 31.5287 10.9766L31.2826 8.45703C31.6498 7.70703 32.1107 7.13672 32.6654 6.74609C33.2279 6.35547 33.8881 6.16016 34.6459 6.16016C35.9427 6.16016 36.9467 6.59375 37.6576 7.46094C38.3763 8.32031 38.7357 9.53906 38.7357 11.1172V18.5H35.9349V11.1289ZM46.3295 23.4453C45.392 23.4453 44.5521 23.2734 43.8099 22.9297C43.0677 22.5938 42.4896 22.1172 42.0756 21.5L43.9623 19.7773C44.2513 20.1445 44.599 20.4258 45.0052 20.6211C45.4193 20.8164 45.849 20.9141 46.2943 20.9141C47.0912 20.9141 47.7201 20.6953 48.181 20.2578C48.642 19.8281 48.8724 19.2188 48.8724 18.4297V6.33594H51.6732V18.1367C51.6732 19.2539 51.4623 20.2109 51.0404 21.0078C50.6263 21.8047 50.017 22.4102 49.2123 22.8242C48.4154 23.2383 47.4545 23.4453 46.3295 23.4453ZM45.931 18.6992C45.056 18.6992 44.306 18.5 43.681 18.1016C43.0638 17.6953 42.5912 17.1133 42.2631 16.3555C41.9427 15.5898 41.7826 14.668 41.7826 13.5898V11.2695C41.7826 10.1914 41.9427 9.26953 42.2631 8.50391C42.5834 7.73047 43.0482 7.14453 43.6576 6.74609C44.2748 6.33984 45.0131 6.13672 45.8724 6.13672C46.5599 6.13672 47.1849 6.32812 47.7474 6.71094C48.3177 7.09375 48.7748 7.63281 49.1185 8.32812L48.8724 10.918C48.8724 10.4492 48.7904 10.0508 48.6263 9.72266C48.4623 9.39453 48.224 9.14453 47.9115 8.97266C47.599 8.80078 47.2201 8.71484 46.7748 8.71484C46.0795 8.71484 45.5404 8.94141 45.1576 9.39453C44.7748 9.84766 44.5834 10.4805 44.5834 11.293V13.5898C44.5834 14.3945 44.7748 15.0195 45.1576 15.4648C45.5404 15.9023 46.0795 16.1211 46.7748 16.1211C47.2201 16.1211 47.599 16.0352 47.9115 15.8633C48.224 15.6836 48.4623 15.4297 48.6263 15.1016C48.7904 14.7734 48.8724 14.3789 48.8724 13.918L49.0365 16.5898C48.7943 17.2227 48.4037 17.7344 47.8646 18.125C47.3334 18.5078 46.6888 18.6992 45.931 18.6992ZM62.2318 6.33594H65.0209V18.5H62.2318V6.33594ZM57.8724 13.7305C57.8724 14.4492 58.0638 15.0078 58.4467 15.4062C58.8295 15.7969 59.3685 15.9922 60.0638 15.9922C60.7592 15.9922 61.2943 15.8086 61.6693 15.4414C62.0443 15.0664 62.2318 14.5312 62.2318 13.8359L62.3959 16.4375C62.1615 17.0703 61.7709 17.6016 61.224 18.0312C60.6771 18.4609 60.0092 18.6758 59.2201 18.6758C57.8998 18.6758 56.8763 18.25 56.1498 17.3984C55.431 16.5469 55.0717 15.3438 55.0717 13.7891V6.33594H57.8724V13.7305ZM75.2162 10.7891C75.2162 10.1094 75.0131 9.58203 74.6068 9.20703C74.2084 8.83203 73.642 8.64453 72.9076 8.64453C72.4388 8.64453 71.9779 8.71875 71.5248 8.86719C71.0717 9.01562 70.6654 9.22266 70.306 9.48828L68.4427 7.91797C68.9193 7.36328 69.5443 6.93359 70.3177 6.62891C71.0912 6.31641 71.9506 6.16016 72.8959 6.16016C73.9271 6.16016 74.8099 6.33984 75.5443 6.69922C76.2787 7.05078 76.8373 7.56641 77.2201 8.24609C77.6107 8.91797 77.806 9.73047 77.806 10.6836V18.5H75.2162V10.7891ZM72.0287 18.6758C70.6302 18.6758 69.5834 18.3672 68.8881 17.75C68.1927 17.125 67.8451 16.1797 67.8451 14.9141C67.8451 13.7109 68.1967 12.8086 68.8998 12.207C69.6029 11.6055 70.6576 11.3047 72.0638 11.3047H75.3217L75.4857 13.4844H72.0756C71.5209 13.4844 71.1029 13.6016 70.8217 13.8359C70.5482 14.0703 70.4115 14.4297 70.4115 14.9141C70.4115 15.4219 70.5912 15.8008 70.9506 16.0508C71.3099 16.293 71.8529 16.4141 72.5795 16.4141C73.4701 16.4141 74.1302 16.3164 74.5599 16.1211C74.9974 15.9258 75.2162 15.6211 75.2162 15.207L75.4623 16.9414C75.3295 17.3242 75.0951 17.6445 74.7592 17.9023C74.431 18.1602 74.0326 18.3555 73.5638 18.4883C73.0951 18.6133 72.5834 18.6758 72.0287 18.6758ZM85.3998 23.4453C84.4623 23.4453 83.6224 23.2734 82.8802 22.9297C82.1381 22.5938 81.5599 22.1172 81.1459 21.5L83.0326 19.7773C83.3217 20.1445 83.6693 20.4258 84.0756 20.6211C84.4896 20.8164 84.9193 20.9141 85.3646 20.9141C86.1615 20.9141 86.7904 20.6953 87.2513 20.2578C87.7123 19.8281 87.9427 19.2188 87.9427 18.4297V6.33594H90.7435V18.1367C90.7435 19.2539 90.5326 20.2109 90.1107 21.0078C89.6967 21.8047 89.0873 22.4102 88.2826 22.8242C87.4857 23.2383 86.5248 23.4453 85.3998 23.4453ZM85.0013 18.6992C84.1263 18.6992 83.3763 18.5 82.7513 18.1016C82.1342 17.6953 81.6615 17.1133 81.3334 16.3555C81.0131 15.5898 80.8529 14.668 80.8529 13.5898V11.2695C80.8529 10.1914 81.0131 9.26953 81.3334 8.50391C81.6537 7.73047 82.1185 7.14453 82.7279 6.74609C83.3451 6.33984 84.0834 6.13672 84.9427 6.13672C85.6302 6.13672 86.2552 6.32812 86.8177 6.71094C87.3881 7.09375 87.8451 7.63281 88.1888 8.32812L87.9427 10.918C87.9427 10.4492 87.8607 10.0508 87.6967 9.72266C87.5326 9.39453 87.2943 9.14453 86.9818 8.97266C86.6693 8.80078 86.2904 8.71484 85.8451 8.71484C85.1498 8.71484 84.6107 8.94141 84.2279 9.39453C83.8451 9.84766 83.6537 10.4805 83.6537 11.293V13.5898C83.6537 14.3945 83.8451 15.0195 84.2279 15.4648C84.6107 15.9023 85.1498 16.1211 85.8451 16.1211C86.2904 16.1211 86.6693 16.0352 86.9818 15.8633C87.2943 15.6836 87.5326 15.4297 87.6967 15.1016C87.8607 14.7734 87.9427 14.3789 87.9427 13.918L88.1068 16.5898C87.8646 17.2227 87.474 17.7344 86.9349 18.125C86.4037 18.5078 85.7592 18.6992 85.0013 18.6992ZM99.2396 18.6758C98.0912 18.6758 97.1107 18.4648 96.2982 18.043C95.4857 17.6211 94.8646 17.0039 94.4349 16.1914C94.0052 15.3711 93.7904 14.3828 93.7904 13.2266V11.8555C93.7904 10.6523 93.9935 9.625 94.3998 8.77344C94.8138 7.92188 95.4115 7.27344 96.1927 6.82812C96.9818 6.38281 97.9271 6.16016 99.0287 6.16016C100.068 6.16016 100.954 6.42187 101.689 6.94531C102.431 7.46094 102.994 8.21094 103.376 9.19531C103.767 10.1797 103.962 11.3672 103.962 12.7578V13.5547H95.7006V11.5039H101.361L101.349 11.375C101.271 10.5234 101.033 9.86328 100.634 9.39453C100.236 8.92578 99.7006 8.69141 99.0287 8.69141C98.1849 8.69141 97.5326 8.95703 97.0717 9.48828C96.6107 10.0117 96.3802 10.7578 96.3802 11.7266V13.2734C96.3802 14.1953 96.6302 14.9062 97.1302 15.4062C97.6302 15.8984 98.3334 16.1445 99.2396 16.1445C99.7006 16.1445 100.154 16.0586 100.599 15.8867C101.052 15.707 101.458 15.4609 101.818 15.1484L103.646 16.8594C103.029 17.4375 102.333 17.8867 101.56 18.207C100.794 18.5195 100.021 18.6758 99.2396 18.6758ZM111.486 18.6758C110.759 18.6758 110.068 18.6094 109.411 18.4766C108.755 18.3359 108.138 18.1328 107.56 17.8672C106.99 17.6016 106.474 17.2773 106.013 16.8945L107.712 14.7852C108.329 15.2227 108.958 15.5547 109.599 15.7812C110.247 16.0078 110.876 16.1211 111.486 16.1211C112.337 16.1211 112.982 16.0078 113.419 15.7812C113.865 15.5469 114.087 15.2109 114.087 14.7734C114.087 14.4375 113.978 14.1875 113.759 14.0234C113.54 13.8516 113.263 13.7344 112.927 13.6719C112.599 13.6094 112.134 13.5508 111.533 13.4961C111.431 13.4883 111.326 13.4805 111.216 13.4727C111.107 13.4648 111.001 13.4531 110.9 13.4375C110.869 13.4375 110.837 13.4375 110.806 13.4375C110.775 13.4297 110.744 13.4258 110.712 13.4258C109.861 13.332 109.161 13.2031 108.615 13.0391C108.068 12.8672 107.607 12.543 107.232 12.0664C106.865 11.5898 106.681 10.9062 106.681 10.0156C106.681 9.17969 106.865 8.47656 107.232 7.90625C107.607 7.32812 108.154 6.89453 108.872 6.60547C109.591 6.30859 110.474 6.16016 111.521 6.16016C112.146 6.16016 112.755 6.22266 113.349 6.34766C113.943 6.46484 114.509 6.64062 115.048 6.875C115.595 7.10156 116.111 7.38672 116.595 7.73047L114.919 9.76953C114.349 9.42578 113.771 9.16406 113.185 8.98438C112.607 8.80469 112.044 8.71484 111.497 8.71484C110.763 8.71484 110.204 8.82031 109.822 9.03125C109.439 9.24219 109.247 9.55469 109.247 9.96875C109.247 10.2344 109.353 10.4375 109.564 10.5781C109.775 10.7188 110.036 10.8164 110.349 10.8711C110.669 10.918 111.13 10.9688 111.732 11.0234C111.794 11.0312 111.853 11.0391 111.908 11.0469C111.97 11.0469 112.033 11.0508 112.095 11.0586C112.119 11.0586 112.146 11.0586 112.177 11.0586C112.208 11.0586 112.24 11.0625 112.271 11.0703C113.169 11.1562 113.915 11.2852 114.509 11.457C115.103 11.6289 115.607 11.9727 116.021 12.4883C116.435 12.9961 116.642 13.7383 116.642 14.7148C116.642 15.5742 116.447 16.3008 116.056 16.8945C115.665 17.4805 115.083 17.9258 114.31 18.2305C113.544 18.5273 112.603 18.6758 111.486 18.6758ZM134.009 11.0586V13.7305H125.9V11.0586H134.009ZM144.087 1.46094H146.888V18.5H144.087V1.46094ZM145.259 8.85547H153.755V11.5273H145.259V8.85547ZM145.259 1.46094H155.044V4.14453H145.259V1.46094ZM157.283 6.33594H160.201V18.5H157.283V6.33594ZM164.056 9.46484C163.869 9.26172 163.638 9.10938 163.365 9.00781C163.091 8.89844 162.775 8.84375 162.415 8.84375C161.712 8.84375 161.165 9.05469 160.775 9.47656C160.392 9.89062 160.201 10.4688 160.201 11.2109L159.954 8.45703C160.306 7.73047 160.763 7.16797 161.326 6.76953C161.896 6.36328 162.521 6.16016 163.201 6.16016C163.732 6.16016 164.212 6.24219 164.642 6.40625C165.072 6.5625 165.447 6.79688 165.767 7.10938L164.056 9.46484ZM172.072 18.6758C170.994 18.6758 170.068 18.4688 169.294 18.0547C168.529 17.6406 167.943 17.0391 167.536 16.25C167.138 15.4531 166.939 14.4961 166.939 13.3789V11.3984C166.939 10.2969 167.138 9.35547 167.536 8.57422C167.943 7.78516 168.529 7.1875 169.294 6.78125C170.068 6.36719 170.994 6.16016 172.072 6.16016C173.15 6.16016 174.072 6.36719 174.837 6.78125C175.611 7.1875 176.197 7.78516 176.595 8.57422C177.001 9.35547 177.204 10.2969 177.204 11.3984V13.4141C177.204 14.5234 177.001 15.4727 176.595 16.2617C176.197 17.043 175.611 17.6406 174.837 18.0547C174.072 18.4688 173.15 18.6758 172.072 18.6758ZM172.072 15.9922C172.814 15.9922 173.388 15.7695 173.794 15.3242C174.201 14.8711 174.404 14.2344 174.404 13.4141V11.3984C174.404 10.5859 174.201 9.95703 173.794 9.51172C173.388 9.06641 172.814 8.84375 172.072 8.84375C171.329 8.84375 170.755 9.06641 170.349 9.51172C169.943 9.95703 169.74 10.5859 169.74 11.3984V13.4141C169.74 14.2344 169.939 14.8711 170.337 15.3242C170.744 15.7695 171.322 15.9922 172.072 15.9922ZM180.369 6.33594H183.169V18.5H180.369V6.33594ZM187.576 11.1289C187.576 10.4023 187.38 9.83984 186.99 9.44141C186.599 9.04297 186.044 8.84375 185.326 8.84375C184.638 8.84375 184.107 9.03125 183.732 9.40625C183.357 9.77344 183.169 10.2969 183.169 10.9766L182.923 8.45703C183.29 7.70703 183.751 7.13672 184.306 6.74609C184.869 6.35547 185.529 6.16016 186.286 6.16016C187.583 6.16016 188.587 6.59375 189.298 7.46094C190.017 8.32031 190.376 9.53906 190.376 11.1172V18.5H187.576V11.1289ZM197.056 18.5586C196.033 18.5586 195.283 18.2891 194.806 17.75C194.329 17.2031 194.091 16.3984 194.091 15.3359V2.79688H196.892V14.9492C196.892 15.2461 196.951 15.4766 197.068 15.6406C197.185 15.7969 197.357 15.875 197.583 15.875H198.556V18.5586H197.056ZM192.837 6.33594H198.556V8.78516H192.837V6.33594ZM209.712 11.0586V13.7305H201.603V11.0586H209.712ZM218.208 18.6758C217.06 18.6758 216.079 18.4648 215.267 18.043C214.454 17.6211 213.833 17.0039 213.404 16.1914C212.974 15.3711 212.759 14.3828 212.759 13.2266V11.8555C212.759 10.6523 212.962 9.625 213.369 8.77344C213.783 7.92188 214.38 7.27344 215.161 6.82812C215.951 6.38281 216.896 6.16016 217.997 6.16016C219.036 6.16016 219.923 6.42187 220.658 6.94531C221.4 7.46094 221.962 8.21094 222.345 9.19531C222.736 10.1797 222.931 11.3672 222.931 12.7578V13.5547H214.669V11.5039H220.329L220.318 11.375C220.24 10.5234 220.001 9.86328 219.603 9.39453C219.204 8.92578 218.669 8.69141 217.997 8.69141C217.154 8.69141 216.501 8.95703 216.04 9.48828C215.579 10.0117 215.349 10.7578 215.349 11.7266V13.2734C215.349 14.1953 215.599 14.9062 216.099 15.4062C216.599 15.8984 217.302 16.1445 218.208 16.1445C218.669 16.1445 219.122 16.0586 219.568 15.8867C220.021 15.707 220.427 15.4609 220.786 15.1484L222.615 16.8594C221.997 17.4375 221.302 17.8867 220.529 18.207C219.763 18.5195 218.99 18.6758 218.208 18.6758ZM225.978 6.33594H228.779V18.5H225.978V6.33594ZM233.185 11.1289C233.185 10.4023 232.99 9.83984 232.599 9.44141C232.208 9.04297 231.654 8.84375 230.935 8.84375C230.247 8.84375 229.716 9.03125 229.341 9.40625C228.966 9.77344 228.779 10.2969 228.779 10.9766L228.533 8.45703C228.9 7.70703 229.361 7.13672 229.915 6.74609C230.478 6.35547 231.138 6.16016 231.896 6.16016C233.193 6.16016 234.197 6.59375 234.908 7.46094C235.626 8.32031 235.986 9.53906 235.986 11.1172V18.5H233.185V11.1289ZM246.122 1.46094H248.923V18.5H246.122V1.46094ZM243.181 18.6992C242.306 18.6992 241.556 18.5 240.931 18.1016C240.314 17.6953 239.841 17.1133 239.513 16.3555C239.193 15.5898 239.033 14.668 239.033 13.5898V11.2695C239.033 10.1914 239.193 9.26953 239.513 8.50391C239.833 7.73047 240.298 7.14453 240.908 6.74609C241.525 6.33984 242.263 6.13672 243.122 6.13672C243.81 6.13672 244.435 6.32812 244.997 6.71094C245.568 7.09375 246.025 7.63281 246.369 8.32812L246.122 10.918C246.122 10.4492 246.04 10.0508 245.876 9.72266C245.712 9.39453 245.474 9.14453 245.161 8.97266C244.849 8.80078 244.47 8.71484 244.025 8.71484C243.329 8.71484 242.79 8.94141 242.408 9.39453C242.025 9.84766 241.833 10.4805 241.833 11.293V13.5898C241.833 14.3945 242.025 15.0195 242.408 15.4648C242.79 15.9023 243.329 16.1211 244.025 16.1211C244.47 16.1211 244.849 16.0352 245.161 15.8633C245.474 15.6836 245.712 15.4297 245.876 15.1016C246.04 14.7734 246.122 14.3789 246.122 13.918L246.286 16.5898C246.044 17.2227 245.654 17.7344 245.115 18.125C244.583 18.5078 243.939 18.6992 243.181 18.6992Z" fill="#F1F5F9"/>
<path d="M274.97 0.924406C274.997 0.834733 275.007 0.740507 274.998 0.647107C274.989 0.553706 274.963 0.462962 274.92 0.380053C274.877 0.297145 274.818 0.223697 274.747 0.163902C274.676 0.104108 274.595 0.0591382 274.507 0.031561C274.419 0.00398378 274.327 -0.00566098 274.235 0.00317731C274.144 0.0120156 274.055 0.0391639 273.973 0.0830722C273.892 0.12698 273.82 0.186789 273.762 0.259082C273.703 0.331376 273.659 0.414739 273.632 0.504412L268.033 19.0756C267.978 19.2567 267.996 19.4525 268.083 19.6199C268.17 19.7874 268.318 19.9127 268.496 19.9684C268.673 20.0241 268.865 20.0056 269.029 19.9169C269.193 19.8283 269.316 19.6767 269.371 19.4956L274.97 0.924406ZM267.097 4.49436C267.163 4.56071 267.214 4.63953 267.25 4.72631C267.285 4.81309 267.303 4.90611 267.303 5.00007C267.303 5.09402 267.285 5.18705 267.25 5.27383C267.214 5.3606 267.163 5.43942 267.097 5.50577L262.692 10L267.097 14.4942C267.229 14.6283 267.303 14.8103 267.303 14.9999C267.303 15.1896 267.229 15.3715 267.097 15.5056C266.966 15.6398 266.788 15.7151 266.602 15.7151C266.416 15.7151 266.238 15.6398 266.106 15.5056L261.207 10.5057C261.142 10.4394 261.09 10.3605 261.055 10.2738C261.02 10.187 261.001 10.094 261.001 10C261.001 9.90605 261.02 9.81302 261.055 9.72624C261.09 9.63946 261.142 9.56064 261.207 9.49429L266.106 4.49436C266.171 4.42784 266.249 4.37507 266.334 4.33906C266.419 4.30305 266.51 4.28451 266.602 4.28451C266.694 4.28451 266.785 4.30305 266.87 4.33906C266.955 4.37507 267.032 4.42784 267.097 4.49436ZM275.905 4.49436C275.84 4.56071 275.788 4.63953 275.753 4.72631C275.718 4.81309 275.7 4.90611 275.7 5.00007C275.7 5.09402 275.718 5.18705 275.753 5.27383C275.788 5.3606 275.84 5.43942 275.905 5.50577L280.31 10L275.905 14.4942C275.84 14.5606 275.789 14.6395 275.753 14.7262C275.718 14.813 275.7 14.906 275.7 14.9999C275.7 15.0939 275.718 15.1869 275.753 15.2736C275.789 15.3604 275.84 15.4392 275.905 15.5056C275.97 15.5721 276.048 15.6247 276.133 15.6607C276.218 15.6966 276.309 15.7151 276.401 15.7151C276.493 15.7151 276.584 15.6966 276.669 15.6607C276.754 15.6247 276.831 15.5721 276.896 15.5056L281.796 10.5057C281.861 10.4394 281.913 10.3605 281.948 10.2738C281.983 10.187 282.001 10.094 282.001 10C282.001 9.90605 281.983 9.81302 281.948 9.72624C281.913 9.63946 281.861 9.56064 281.796 9.49429L276.896 4.49436C276.831 4.42784 276.754 4.37507 276.669 4.33906C276.584 4.30305 276.493 4.28451 276.401 4.28451C276.309 4.28451 276.218 4.30305 276.133 4.33906C276.047 4.37507 275.97 4.42784 275.905 4.49436Z" fill="#F1F5F9"/>
</svg>
