<svg width="345" height="30" viewBox="0 0 345 30" fill="none" xmlns="http://www.w3.org/2000/svg">
<path d="M2.97009 0.28125H6.70447V23H2.97009V0.28125ZM4.72009 19.4219H17.8763V23H4.72009V19.4219ZM27.3763 23.2344C25.9388 23.2344 24.7045 22.9583 23.6732 22.4062C22.6524 21.8542 21.8711 21.0521 21.3295 20C20.7982 18.9375 20.5326 17.6615 20.5326 16.1719V13.5312C20.5326 12.0625 20.7982 10.8073 21.3295 9.76562C21.8711 8.71354 22.6524 7.91667 23.6732 7.375C24.7045 6.82292 25.9388 6.54688 27.3763 6.54688C28.8138 6.54688 30.043 6.82292 31.0638 7.375C32.0951 7.91667 32.8763 8.71354 33.4076 9.76562C33.9493 10.8073 34.2201 12.0625 34.2201 13.5312V16.2188C34.2201 17.6979 33.9493 18.9635 33.4076 20.0156C32.8763 21.0573 32.0951 21.8542 31.0638 22.4062C30.043 22.9583 28.8138 23.2344 27.3763 23.2344ZM27.3763 19.6562C28.3659 19.6562 29.1316 19.3594 29.6732 18.7656C30.2149 18.1615 30.4857 17.3125 30.4857 16.2188V13.5312C30.4857 12.4479 30.2149 11.6094 29.6732 11.0156C29.1316 10.4219 28.3659 10.125 27.3763 10.125C26.3868 10.125 25.6211 10.4219 25.0795 11.0156C24.5378 11.6094 24.267 12.4479 24.267 13.5312V16.2188C24.267 17.3125 24.5326 18.1615 25.0638 18.7656C25.6055 19.3594 26.3763 19.6562 27.3763 19.6562ZM47.5795 6.78125H51.2982V23H47.5795V6.78125ZM41.767 16.6406C41.767 17.599 42.0222 18.3438 42.5326 18.875C43.043 19.3958 43.7618 19.6562 44.6888 19.6562C45.6159 19.6562 46.3295 19.4115 46.8295 18.9219C47.3295 18.4219 47.5795 17.7083 47.5795 16.7812L47.7982 20.25C47.4857 21.0938 46.9649 21.8021 46.2357 22.375C45.5066 22.9479 44.6159 23.2344 43.5638 23.2344C41.8034 23.2344 40.4388 22.6667 39.4701 21.5312C38.5118 20.3958 38.0326 18.7917 38.0326 16.7188V6.78125H41.767V16.6406ZM55.8451 6.78125H59.5795V23H55.8451V6.78125ZM65.4545 13.1719C65.4545 12.2031 65.1941 11.4531 64.6732 10.9219C64.1524 10.3906 63.4128 10.125 62.4545 10.125C61.5378 10.125 60.8295 10.375 60.3295 10.875C59.8295 11.3646 59.5795 12.0625 59.5795 12.9688L59.2513 9.60938C59.7409 8.60938 60.3555 7.84896 61.0951 7.32812C61.8451 6.80729 62.7253 6.54688 63.7357 6.54688C65.4649 6.54688 66.8034 7.125 67.7513 8.28125C68.7097 9.42708 69.1888 11.0521 69.1888 13.1562V23H65.4545V13.1719ZM82.767 12.7188C82.767 11.8125 82.4961 11.1094 81.9545 10.6094C81.4232 10.1094 80.668 9.85938 79.6888 9.85938C79.0638 9.85938 78.4493 9.95833 77.8451 10.1562C77.2409 10.3542 76.6993 10.6302 76.2201 10.9844L73.7357 8.89062C74.3711 8.15104 75.2045 7.57812 76.2357 7.17188C77.267 6.75521 78.4128 6.54688 79.6732 6.54688C81.0482 6.54688 82.2253 6.78646 83.2045 7.26562C84.1836 7.73438 84.9284 8.42188 85.4388 9.32812C85.9597 10.224 86.2201 11.3073 86.2201 12.5781V23H82.767V12.7188ZM78.517 23.2344C76.6524 23.2344 75.2566 22.8229 74.3295 22C73.4024 21.1667 72.9388 19.9062 72.9388 18.2188C72.9388 16.6146 73.4076 15.4115 74.3451 14.6094C75.2826 13.8073 76.6888 13.4062 78.5638 13.4062H82.9076L83.1263 16.3125H78.5795C77.8399 16.3125 77.2826 16.4688 76.9076 16.7812C76.543 17.0938 76.3607 17.5729 76.3607 18.2188C76.3607 18.8958 76.6003 19.401 77.0795 19.7344C77.5586 20.0573 78.2826 20.2188 79.2513 20.2188C80.4388 20.2188 81.3191 20.0885 81.892 19.8281C82.4753 19.5677 82.767 19.1615 82.767 18.6094L83.0951 20.9219C82.918 21.4323 82.6055 21.8594 82.1576 22.2031C81.7201 22.5469 81.1888 22.8073 80.5638 22.9844C79.9388 23.151 79.2566 23.2344 78.517 23.2344ZM106.642 23.2344C105.548 23.2344 104.496 23.1302 103.486 22.9219C102.486 22.7031 101.543 22.3854 100.658 21.9688C99.7826 21.5521 98.9805 21.0365 98.2513 20.4219L100.236 17.4375C101.111 18.1771 102.09 18.7396 103.173 19.125C104.267 19.5 105.423 19.6875 106.642 19.6875C108.163 19.6875 109.34 19.4167 110.173 18.875C111.017 18.3333 111.439 17.5677 111.439 16.5781V16.5625C111.439 15.8646 111.251 15.3125 110.876 14.9062C110.501 14.4896 110.012 14.1875 109.408 14C108.803 13.8021 108.027 13.6198 107.079 13.4531C107.048 13.4427 107.017 13.4375 106.986 13.4375C106.954 13.4375 106.923 13.4323 106.892 13.4219L106.611 13.375C105.09 13.125 103.84 12.8281 102.861 12.4844C101.882 12.1406 101.048 11.526 100.361 10.6406C99.6732 9.75521 99.3295 8.5 99.3295 6.875V6.85938C99.3295 5.42188 99.6524 4.19271 100.298 3.17188C100.944 2.15104 101.882 1.375 103.111 0.84375C104.34 0.3125 105.819 0.046875 107.548 0.046875C108.361 0.046875 109.173 0.140625 109.986 0.328125C110.809 0.505208 111.611 0.770833 112.392 1.125C113.184 1.46875 113.949 1.90104 114.689 2.42188L112.876 5.5C112.001 4.875 111.111 4.40104 110.204 4.07812C109.298 3.75521 108.413 3.59375 107.548 3.59375C106.111 3.59375 104.996 3.85938 104.204 4.39062C103.423 4.91146 103.033 5.65104 103.033 6.60938V6.625C103.033 7.34375 103.236 7.91146 103.642 8.32812C104.048 8.74479 104.553 9.05208 105.158 9.25C105.772 9.4375 106.626 9.64062 107.72 9.85938C107.762 9.86979 107.798 9.88021 107.829 9.89062C107.871 9.89062 107.913 9.89583 107.954 9.90625C108.007 9.91667 108.064 9.92708 108.126 9.9375C108.189 9.94792 108.246 9.95833 108.298 9.96875C109.704 10.25 110.876 10.5885 111.814 10.9844C112.762 11.3802 113.553 12.0156 114.189 12.8906C114.824 13.7656 115.142 14.9583 115.142 16.4688V16.5C115.142 17.9167 114.809 19.1302 114.142 20.1406C113.475 21.151 112.507 21.9219 111.236 22.4531C109.965 22.974 108.434 23.2344 106.642 23.2344ZM120.751 17L128.704 6.78125H132.845L120.939 21.25L120.751 17ZM119.064 0.28125H122.798V23H119.064V0.28125ZM124.548 14.125L127.345 12L133.642 23H129.439L124.548 14.125ZM148.486 6.78125L141.423 26.7969C141.163 27.5365 140.829 28.1198 140.423 28.5469C140.027 28.9844 139.533 29.2969 138.939 29.4844C138.345 29.6719 137.616 29.7656 136.751 29.7656H135.954V26.1562H136.751C137.283 26.1562 137.71 26.0469 138.033 25.8281C138.366 25.6094 138.637 25.2396 138.845 24.7188L144.845 6.78125H148.486ZM133.814 6.78125H137.454L142.673 20.875L140.439 24.3281L133.814 6.78125ZM154.736 18.2344C154.736 18.6302 154.835 18.9375 155.033 19.1562C155.231 19.3646 155.512 19.4688 155.876 19.4688H156.986V23.0469H154.954C153.704 23.0469 152.731 22.6719 152.033 21.9219C151.345 21.1719 151.001 20.1146 151.001 18.75V0.28125H154.736V18.2344ZM169.173 12.7188C169.173 11.8125 168.902 11.1094 168.361 10.6094C167.829 10.1094 167.074 9.85938 166.095 9.85938C165.47 9.85938 164.856 9.95833 164.251 10.1562C163.647 10.3542 163.106 10.6302 162.626 10.9844L160.142 8.89062C160.777 8.15104 161.611 7.57812 162.642 7.17188C163.673 6.75521 164.819 6.54688 166.079 6.54688C167.454 6.54688 168.632 6.78646 169.611 7.26562C170.59 7.73438 171.335 8.42188 171.845 9.32812C172.366 10.224 172.626 11.3073 172.626 12.5781V23H169.173V12.7188ZM164.923 23.2344C163.059 23.2344 161.663 22.8229 160.736 22C159.809 21.1667 159.345 19.9062 159.345 18.2188C159.345 16.6146 159.814 15.4115 160.751 14.6094C161.689 13.8073 163.095 13.4062 164.97 13.4062H169.314L169.533 16.3125H164.986C164.246 16.3125 163.689 16.4688 163.314 16.7812C162.949 17.0938 162.767 17.5729 162.767 18.2188C162.767 18.8958 163.007 19.401 163.486 19.7344C163.965 20.0573 164.689 20.2188 165.658 20.2188C166.845 20.2188 167.725 20.0885 168.298 19.8281C168.882 19.5677 169.173 19.1615 169.173 18.6094L169.501 20.9219C169.324 21.4323 169.012 21.8594 168.564 22.2031C168.126 22.5469 167.595 22.8073 166.97 22.9844C166.345 23.151 165.663 23.2344 164.923 23.2344ZM177.158 6.78125H180.892V23H177.158V6.78125ZM186.767 13.1719C186.767 12.2031 186.507 11.4531 185.986 10.9219C185.465 10.3906 184.725 10.125 183.767 10.125C182.85 10.125 182.142 10.375 181.642 10.875C181.142 11.3646 180.892 12.0625 180.892 12.9688L180.564 9.60938C181.053 8.60938 181.668 7.84896 182.408 7.32812C183.158 6.80729 184.038 6.54688 185.048 6.54688C186.777 6.54688 188.116 7.125 189.064 8.28125C190.022 9.42708 190.501 11.0521 190.501 13.1562V23H186.767V13.1719ZM204.017 0.28125H207.751V23H204.017V0.28125ZM200.095 23.2656C198.928 23.2656 197.928 23 197.095 22.4688C196.272 21.9271 195.642 21.151 195.204 20.1406C194.777 19.1198 194.564 17.8906 194.564 16.4531V13.3594C194.564 11.9219 194.777 10.6927 195.204 9.67188C195.632 8.64062 196.251 7.85938 197.064 7.32812C197.887 6.78646 198.871 6.51562 200.017 6.51562C200.934 6.51562 201.767 6.77083 202.517 7.28125C203.277 7.79167 203.887 8.51042 204.345 9.4375L204.017 12.8906C204.017 12.2656 203.908 11.7344 203.689 11.2969C203.47 10.8594 203.152 10.526 202.736 10.2969C202.319 10.0677 201.814 9.95312 201.22 9.95312C200.293 9.95312 199.574 10.2552 199.064 10.8594C198.553 11.4635 198.298 12.3073 198.298 13.3906V16.4531C198.298 17.526 198.553 18.3594 199.064 18.9531C199.574 19.5365 200.293 19.8281 201.22 19.8281C201.814 19.8281 202.319 19.7135 202.736 19.4844C203.152 19.2448 203.47 18.9062 203.689 18.4688C203.908 18.0312 204.017 17.5052 204.017 16.8906L204.236 20.4531C203.913 21.2969 203.392 21.9792 202.673 22.5C201.965 23.0104 201.106 23.2656 200.095 23.2656ZM219.079 23.2344C217.548 23.2344 216.241 22.9531 215.158 22.3906C214.074 21.8281 213.246 21.0052 212.673 19.9219C212.1 18.8281 211.814 17.5104 211.814 15.9688V14.1406C211.814 12.5365 212.085 11.1667 212.626 10.0312C213.178 8.89583 213.975 8.03125 215.017 7.4375C216.069 6.84375 217.329 6.54688 218.798 6.54688C220.184 6.54688 221.366 6.89583 222.345 7.59375C223.335 8.28125 224.085 9.28125 224.595 10.5938C225.116 11.9062 225.376 13.4896 225.376 15.3438V16.4062H214.361V13.6719H221.908L221.892 13.5C221.788 12.3646 221.47 11.4844 220.939 10.8594C220.408 10.2344 219.694 9.92188 218.798 9.92188C217.673 9.92188 216.803 10.276 216.189 10.9844C215.574 11.6823 215.267 12.6771 215.267 13.9688V16.0312C215.267 17.2604 215.6 18.2083 216.267 18.875C216.934 19.5312 217.871 19.8594 219.079 19.8594C219.694 19.8594 220.298 19.7448 220.892 19.5156C221.496 19.276 222.038 18.9479 222.517 18.5312L224.954 20.8125C224.132 21.5833 223.204 22.1823 222.173 22.6094C221.152 23.026 220.121 23.2344 219.079 23.2344ZM229.439 6.78125H233.329V23H229.439V6.78125ZM238.47 10.9531C238.22 10.6823 237.913 10.4792 237.548 10.3438C237.184 10.1979 236.762 10.125 236.283 10.125C235.345 10.125 234.616 10.4062 234.095 10.9688C233.585 11.5208 233.329 12.2917 233.329 13.2812L233.001 9.60938C233.47 8.64062 234.079 7.89062 234.829 7.35938C235.59 6.81771 236.423 6.54688 237.329 6.54688C238.038 6.54688 238.678 6.65625 239.251 6.875C239.824 7.08333 240.324 7.39583 240.751 7.8125L238.47 10.9531ZM252.001 0.28125H255.736V23H252.001V0.28125ZM253.751 19.4219H266.908V23H253.751V19.4219ZM279.079 12.7188C279.079 11.8125 278.809 11.1094 278.267 10.6094C277.736 10.1094 276.981 9.85938 276.001 9.85938C275.376 9.85938 274.762 9.95833 274.158 10.1562C273.553 10.3542 273.012 10.6302 272.533 10.9844L270.048 8.89062C270.684 8.15104 271.517 7.57812 272.548 7.17188C273.579 6.75521 274.725 6.54688 275.986 6.54688C277.361 6.54688 278.538 6.78646 279.517 7.26562C280.496 7.73438 281.241 8.42188 281.751 9.32812C282.272 10.224 282.533 11.3073 282.533 12.5781V23H279.079V12.7188ZM274.829 23.2344C272.965 23.2344 271.569 22.8229 270.642 22C269.715 21.1667 269.251 19.9062 269.251 18.2188C269.251 16.6146 269.72 15.4115 270.658 14.6094C271.595 13.8073 273.001 13.4062 274.876 13.4062H279.22L279.439 16.3125H274.892C274.152 16.3125 273.595 16.4688 273.22 16.7812C272.856 17.0938 272.673 17.5729 272.673 18.2188C272.673 18.8958 272.913 19.401 273.392 19.7344C273.871 20.0573 274.595 20.2188 275.564 20.2188C276.751 20.2188 277.632 20.0885 278.204 19.8281C278.788 19.5677 279.079 19.1615 279.079 18.6094L279.408 20.9219C279.231 21.4323 278.918 21.8594 278.47 22.2031C278.033 22.5469 277.501 22.8073 276.876 22.9844C276.251 23.151 275.569 23.2344 274.829 23.2344ZM299.548 6.78125L292.486 26.7969C292.225 27.5365 291.892 28.1198 291.486 28.5469C291.09 28.9844 290.595 29.2969 290.001 29.4844C289.408 29.6719 288.678 29.7656 287.814 29.7656H287.017V26.1562H287.814C288.345 26.1562 288.772 26.0469 289.095 25.8281C289.428 25.6094 289.699 25.2396 289.908 24.7188L295.908 6.78125H299.548ZM284.876 6.78125H288.517L293.736 20.875L291.501 24.3281L284.876 6.78125ZM308.126 23.2344C306.689 23.2344 305.454 22.9583 304.423 22.4062C303.402 21.8542 302.621 21.0521 302.079 20C301.548 18.9375 301.283 17.6615 301.283 16.1719V13.5312C301.283 12.0625 301.548 10.8073 302.079 9.76562C302.621 8.71354 303.402 7.91667 304.423 7.375C305.454 6.82292 306.689 6.54688 308.126 6.54688C309.564 6.54688 310.793 6.82292 311.814 7.375C312.845 7.91667 313.626 8.71354 314.158 9.76562C314.699 10.8073 314.97 12.0625 314.97 13.5312V16.2188C314.97 17.6979 314.699 18.9635 314.158 20.0156C313.626 21.0573 312.845 21.8542 311.814 22.4062C310.793 22.9583 309.564 23.2344 308.126 23.2344ZM308.126 19.6562C309.116 19.6562 309.882 19.3594 310.423 18.7656C310.965 18.1615 311.236 17.3125 311.236 16.2188V13.5312C311.236 12.4479 310.965 11.6094 310.423 11.0156C309.882 10.4219 309.116 10.125 308.126 10.125C307.137 10.125 306.371 10.4219 305.829 11.0156C305.288 11.6094 305.017 12.4479 305.017 13.5312V16.2188C305.017 17.3125 305.283 18.1615 305.814 18.7656C306.356 19.3594 307.126 19.6562 308.126 19.6562ZM328.329 6.78125H332.048V23H328.329V6.78125ZM322.517 16.6406C322.517 17.599 322.772 18.3438 323.283 18.875C323.793 19.3958 324.512 19.6562 325.439 19.6562C326.366 19.6562 327.079 19.4115 327.579 18.9219C328.079 18.4219 328.329 17.7083 328.329 16.7812L328.548 20.25C328.236 21.0938 327.715 21.8021 326.986 22.375C326.257 22.9479 325.366 23.2344 324.314 23.2344C322.553 23.2344 321.189 22.6667 320.22 21.5312C319.262 20.3958 318.783 18.7917 318.783 16.7188V6.78125H322.517V16.6406ZM340.97 23.0781C339.606 23.0781 338.606 22.7188 337.97 22C337.335 21.2708 337.017 20.1979 337.017 18.7812V2.0625H340.751V18.2656C340.751 18.6615 340.829 18.9688 340.986 19.1875C341.142 19.3958 341.371 19.5 341.673 19.5H342.97V23.0781H340.97ZM335.345 6.78125H342.97V10.0469H335.345V6.78125Z" fill="#F1F5F9"/>
</svg>
