<svg width="149" height="24" viewBox="0 0 149 24" fill="none" xmlns="http://www.w3.org/2000/svg">
<path d="M4.64197 10.0469H12.4701C12.9909 10.0469 13.4493 9.92188 13.8451 9.67188C14.2513 9.41146 14.5638 9.04688 14.7826 8.57812C15.0013 8.10938 15.1159 7.5625 15.1263 6.9375C15.1263 6.32292 15.017 5.78125 14.7982 5.3125C14.5795 4.84375 14.267 4.48438 13.8607 4.23438C13.4649 3.97396 13.0013 3.84375 12.4701 3.84375H4.64197V0.265625H12.5795C13.8607 0.265625 14.9857 0.541667 15.9545 1.09375C16.9232 1.64583 17.6732 2.42708 18.2045 3.4375C18.7461 4.44792 19.017 5.61458 19.017 6.9375C19.017 8.27083 18.7461 9.44271 18.2045 10.4531C17.6732 11.4635 16.918 12.2448 15.9388 12.7969C14.9701 13.349 13.8503 13.625 12.5795 13.625H4.64197V10.0469ZM3.09509 0.265625H6.82947V23H3.09509V0.265625ZM10.1263 12.9219L14.0013 12.2031L19.9701 23H15.4857L10.1263 12.9219ZM23.2357 0.28125H26.9545V4.01562H23.2357V0.28125ZM23.2357 6.78125H26.9545V23H23.2357V6.78125ZM40.3607 0.28125H44.0951V23H40.3607V0.28125ZM36.4388 23.2656C35.2722 23.2656 34.2722 23 33.4388 22.4688C32.6159 21.9271 31.9857 21.151 31.5482 20.1406C31.1211 19.1198 30.9076 17.8906 30.9076 16.4531V13.3594C30.9076 11.9219 31.1211 10.6927 31.5482 9.67188C31.9753 8.64062 32.5951 7.85938 33.4076 7.32812C34.2305 6.78646 35.2149 6.51562 36.3607 6.51562C37.2774 6.51562 38.1107 6.77083 38.8607 7.28125C39.6211 7.79167 40.2305 8.51042 40.6888 9.4375L40.3607 12.8906C40.3607 12.2656 40.2513 11.7344 40.0326 11.2969C39.8138 10.8594 39.4961 10.526 39.0795 10.2969C38.6628 10.0677 38.1576 9.95312 37.5638 9.95312C36.6368 9.95312 35.918 10.2552 35.4076 10.8594C34.8972 11.4635 34.642 12.3073 34.642 13.3906V16.4531C34.642 17.526 34.8972 18.3594 35.4076 18.9531C35.918 19.5365 36.6368 19.8281 37.5638 19.8281C38.1576 19.8281 38.6628 19.7135 39.0795 19.4844C39.4961 19.2448 39.8138 18.9062 40.0326 18.4688C40.2513 18.0312 40.3607 17.5052 40.3607 16.8906L40.5795 20.4531C40.2566 21.2969 39.7357 21.9792 39.017 22.5C38.3086 23.0104 37.4493 23.2656 36.4388 23.2656ZM55.4232 23.2344C53.892 23.2344 52.5847 22.9531 51.5013 22.3906C50.418 21.8281 49.5899 21.0052 49.017 19.9219C48.4441 18.8281 48.1576 17.5104 48.1576 15.9688V14.1406C48.1576 12.5365 48.4284 11.1667 48.9701 10.0312C49.5222 8.89583 50.3191 8.03125 51.3607 7.4375C52.4128 6.84375 53.6732 6.54688 55.142 6.54688C56.5274 6.54688 57.7097 6.89583 58.6888 7.59375C59.6784 8.28125 60.4284 9.28125 60.9388 10.5938C61.4597 11.9062 61.7201 13.4896 61.7201 15.3438V16.4062H50.7045V13.6719H58.2513L58.2357 13.5C58.1316 12.3646 57.8138 11.4844 57.2826 10.8594C56.7513 10.2344 56.0378 9.92188 55.142 9.92188C54.017 9.92188 53.1472 10.276 52.5326 10.9844C51.918 11.6823 51.6107 12.6771 51.6107 13.9688V16.0312C51.6107 17.2604 51.9441 18.2083 52.6107 18.875C53.2774 19.5312 54.2149 19.8594 55.4232 19.8594C56.0378 19.8594 56.642 19.7448 57.2357 19.5156C57.8399 19.276 58.3816 18.9479 58.8607 18.5312L61.2982 20.8125C60.4753 21.5833 59.5482 22.1823 58.517 22.6094C57.4961 23.026 56.4649 23.2344 55.4232 23.2344ZM73.0795 23.2344C71.9857 23.2344 70.9336 23.1302 69.9232 22.9219C68.9232 22.7031 67.9805 22.3854 67.0951 21.9688C66.2201 21.5521 65.418 21.0365 64.6888 20.4219L66.6732 17.4375C67.5482 18.1771 68.5274 18.7396 69.6107 19.125C70.7045 19.5 71.8607 19.6875 73.0795 19.6875C74.6003 19.6875 75.7774 19.4167 76.6107 18.875C77.4545 18.3333 77.8763 17.5677 77.8763 16.5781V16.5625C77.8763 15.8646 77.6888 15.3125 77.3138 14.9062C76.9388 14.4896 76.4493 14.1875 75.8451 14C75.2409 13.8021 74.4649 13.6198 73.517 13.4531C73.4857 13.4427 73.4545 13.4375 73.4232 13.4375C73.392 13.4375 73.3607 13.4323 73.3295 13.4219L73.0482 13.375C71.5274 13.125 70.2774 12.8281 69.2982 12.4844C68.3191 12.1406 67.4857 11.526 66.7982 10.6406C66.1107 9.75521 65.767 8.5 65.767 6.875V6.85938C65.767 5.42188 66.0899 4.19271 66.7357 3.17188C67.3816 2.15104 68.3191 1.375 69.5482 0.84375C70.7774 0.3125 72.2566 0.046875 73.9857 0.046875C74.7982 0.046875 75.6107 0.140625 76.4232 0.328125C77.2461 0.505208 78.0482 0.770833 78.8295 1.125C79.6211 1.46875 80.3868 1.90104 81.1263 2.42188L79.3138 5.5C78.4388 4.875 77.5482 4.40104 76.642 4.07812C75.7357 3.75521 74.8503 3.59375 73.9857 3.59375C72.5482 3.59375 71.4336 3.85938 70.642 4.39062C69.8607 4.91146 69.4701 5.65104 69.4701 6.60938V6.625C69.4701 7.34375 69.6732 7.91146 70.0795 8.32812C70.4857 8.74479 70.9909 9.05208 71.5951 9.25C72.2097 9.4375 73.0638 9.64062 74.1576 9.85938C74.1993 9.86979 74.2357 9.88021 74.267 9.89062C74.3086 9.89062 74.3503 9.89583 74.392 9.90625C74.4441 9.91667 74.5013 9.92708 74.5638 9.9375C74.6263 9.94792 74.6836 9.95833 74.7357 9.96875C76.142 10.25 77.3138 10.5885 78.2513 10.9844C79.1993 11.3802 79.9909 12.0156 80.6263 12.8906C81.2618 13.7656 81.5795 14.9583 81.5795 16.4688V16.5C81.5795 17.9167 81.2461 19.1302 80.5795 20.1406C79.9128 21.151 78.9441 21.9219 77.6732 22.4531C76.4024 22.974 74.8711 23.2344 73.0795 23.2344ZM85.5013 0.28125H89.2357V23H85.5013V0.28125ZM95.1107 13.1719C95.1107 12.2031 94.8503 11.4531 94.3295 10.9219C93.8086 10.3906 93.0691 10.125 92.1107 10.125C91.1941 10.125 90.4857 10.3698 89.9857 10.8594C89.4857 11.349 89.2357 12.0417 89.2357 12.9375L88.9076 9.57812C89.3972 8.59896 90.0118 7.84896 90.7513 7.32812C91.5013 6.80729 92.3816 6.54688 93.392 6.54688C95.1211 6.54688 96.4597 7.125 97.4076 8.28125C98.3659 9.42708 98.8451 11.0521 98.8451 13.1562V23H95.1107V13.1719ZM112.423 12.7188C112.423 11.8125 112.152 11.1094 111.611 10.6094C111.079 10.1094 110.324 9.85938 109.345 9.85938C108.72 9.85938 108.106 9.95833 107.501 10.1562C106.897 10.3542 106.356 10.6302 105.876 10.9844L103.392 8.89062C104.027 8.15104 104.861 7.57812 105.892 7.17188C106.923 6.75521 108.069 6.54688 109.329 6.54688C110.704 6.54688 111.882 6.78646 112.861 7.26562C113.84 7.73438 114.585 8.42188 115.095 9.32812C115.616 10.224 115.876 11.3073 115.876 12.5781V23H112.423V12.7188ZM108.173 23.2344C106.309 23.2344 104.913 22.8229 103.986 22C103.059 21.1667 102.595 19.9062 102.595 18.2188C102.595 16.6146 103.064 15.4115 104.001 14.6094C104.939 13.8073 106.345 13.4062 108.22 13.4062H112.564L112.783 16.3125H108.236C107.496 16.3125 106.939 16.4688 106.564 16.7812C106.199 17.0938 106.017 17.5729 106.017 18.2188C106.017 18.8958 106.257 19.401 106.736 19.7344C107.215 20.0573 107.939 20.2188 108.908 20.2188C110.095 20.2188 110.975 20.0885 111.548 19.8281C112.132 19.5677 112.423 19.1615 112.423 18.6094L112.751 20.9219C112.574 21.4323 112.262 21.8594 111.814 22.2031C111.376 22.5469 110.845 22.8073 110.22 22.9844C109.595 23.151 108.913 23.2344 108.173 23.2344ZM120.408 6.78125H124.298V23H120.408V6.78125ZM129.439 10.9531C129.189 10.6823 128.882 10.4792 128.517 10.3438C128.152 10.1979 127.731 10.125 127.251 10.125C126.314 10.125 125.585 10.4062 125.064 10.9688C124.553 11.5208 124.298 12.2917 124.298 13.2812L123.97 9.60938C124.439 8.64062 125.048 7.89062 125.798 7.35938C126.559 6.81771 127.392 6.54688 128.298 6.54688C129.007 6.54688 129.647 6.65625 130.22 6.875C130.793 7.08333 131.293 7.39583 131.72 7.8125L129.439 10.9531ZM140.548 23.2344C139.017 23.2344 137.71 22.9531 136.626 22.3906C135.543 21.8281 134.715 21.0052 134.142 19.9219C133.569 18.8281 133.283 17.5104 133.283 15.9688V14.1406C133.283 12.5365 133.553 11.1667 134.095 10.0312C134.647 8.89583 135.444 8.03125 136.486 7.4375C137.538 6.84375 138.798 6.54688 140.267 6.54688C141.652 6.54688 142.835 6.89583 143.814 7.59375C144.803 8.28125 145.553 9.28125 146.064 10.5938C146.585 11.9062 146.845 13.4896 146.845 15.3438V16.4062H135.829V13.6719H143.376L143.361 13.5C143.257 12.3646 142.939 11.4844 142.408 10.8594C141.876 10.2344 141.163 9.92188 140.267 9.92188C139.142 9.92188 138.272 10.276 137.658 10.9844C137.043 11.6823 136.736 12.6771 136.736 13.9688V16.0312C136.736 17.2604 137.069 18.2083 137.736 18.875C138.402 19.5312 139.34 19.8594 140.548 19.8594C141.163 19.8594 141.767 19.7448 142.361 19.5156C142.965 19.276 143.507 18.9479 143.986 18.5312L146.423 20.8125C145.6 21.5833 144.673 22.1823 143.642 22.6094C142.621 23.026 141.59 23.2344 140.548 23.2344Z" fill="#F1F5F9"/>
</svg>
