<svg width="105" height="24" viewBox="0 0 105 24" fill="none" xmlns="http://www.w3.org/2000/svg">
<path d="M9.79822 23.2344C8.70447 23.2344 7.65238 23.1302 6.64197 22.9219C5.64197 22.7031 4.69926 22.3854 3.81384 21.9688C2.93884 21.5521 2.13676 21.0365 1.40759 20.4219L3.39197 17.4375C4.26697 18.1771 5.24613 18.7396 6.32947 19.125C7.42322 19.5 8.57947 19.6875 9.79822 19.6875C11.3191 19.6875 12.4961 19.4167 13.3295 18.875C14.1732 18.3333 14.5951 17.5677 14.5951 16.5781V16.5625C14.5951 15.8646 14.4076 15.3125 14.0326 14.9062C13.6576 14.4896 13.168 14.1875 12.5638 14C11.9597 13.8021 11.1836 13.6198 10.2357 13.4531C10.2045 13.4427 10.1732 13.4375 10.142 13.4375C10.1107 13.4375 10.0795 13.4323 10.0482 13.4219L9.76697 13.375C8.24613 13.125 6.99613 12.8281 6.01697 12.4844C5.0378 12.1406 4.20447 11.526 3.51697 10.6406C2.82947 9.75521 2.48572 8.5 2.48572 6.875V6.85938C2.48572 5.42188 2.80863 4.19271 3.45447 3.17188C4.1003 2.15104 5.0378 1.375 6.26697 0.84375C7.49613 0.3125 8.9753 0.046875 10.7045 0.046875C11.517 0.046875 12.3295 0.140625 13.142 0.328125C13.9649 0.505208 14.767 0.770833 15.5482 1.125C16.3399 1.46875 17.1055 1.90104 17.8451 2.42188L16.0326 5.5C15.1576 4.875 14.267 4.40104 13.3607 4.07812C12.4545 3.75521 11.5691 3.59375 10.7045 3.59375C9.26697 3.59375 8.15238 3.85938 7.36072 4.39062C6.57947 4.91146 6.18884 5.65104 6.18884 6.60938V6.625C6.18884 7.34375 6.39197 7.91146 6.79822 8.32812C7.20447 8.74479 7.70968 9.05208 8.31384 9.25C8.92843 9.4375 9.78259 9.64062 10.8763 9.85938C10.918 9.86979 10.9545 9.88021 10.9857 9.89062C11.0274 9.89062 11.0691 9.89583 11.1107 9.90625C11.1628 9.91667 11.2201 9.92708 11.2826 9.9375C11.3451 9.94792 11.4024 9.95833 11.4545 9.96875C12.8607 10.25 14.0326 10.5885 14.9701 10.9844C15.918 11.3802 16.7097 12.0156 17.3451 12.8906C17.9805 13.7656 18.2982 14.9583 18.2982 16.4688V16.5C18.2982 17.9167 17.9649 19.1302 17.2982 20.1406C16.6316 21.151 15.6628 21.9219 14.392 22.4531C13.1211 22.974 11.5899 23.2344 9.79822 23.2344ZM23.9076 17L31.8607 6.78125H36.0013L24.0951 21.25L23.9076 17ZM22.2201 0.28125H25.9545V23H22.2201V0.28125ZM27.7045 14.125L30.5013 12L36.7982 23H32.5951L27.7045 14.125ZM39.0482 0.28125H42.767V4.01562H39.0482V0.28125ZM39.0482 6.78125H42.767V23H39.0482V6.78125ZM50.9232 18.2344C50.9232 18.6302 51.0222 18.9375 51.2201 19.1562C51.418 19.3646 51.6993 19.4688 52.0638 19.4688H53.1732V23.0469H51.142C49.892 23.0469 48.918 22.6719 48.2201 21.9219C47.5326 21.1719 47.1888 20.1146 47.1888 18.75V0.28125H50.9232V18.2344ZM60.2045 18.2344C60.2045 18.6302 60.3034 18.9375 60.5013 19.1562C60.6993 19.3646 60.9805 19.4688 61.3451 19.4688H62.4545V23.0469H60.4232C59.1732 23.0469 58.1993 22.6719 57.5013 21.9219C56.8138 21.1719 56.4701 20.1146 56.4701 18.75V0.28125H60.2045V18.2344ZM71.5638 23.2344C70.5951 23.2344 69.6732 23.1458 68.7982 22.9688C67.9232 22.7812 67.1003 22.5104 66.3295 22.1562C65.5691 21.8021 64.8816 21.3698 64.267 20.8594L66.5326 18.0469C67.3555 18.6302 68.1941 19.0729 69.0482 19.375C69.9128 19.6771 70.7513 19.8281 71.5638 19.8281C72.6993 19.8281 73.5586 19.6771 74.142 19.375C74.7357 19.0625 75.0326 18.6146 75.0326 18.0312C75.0326 17.5833 74.8868 17.25 74.5951 17.0312C74.3034 16.8021 73.9336 16.6458 73.4857 16.5625C73.0482 16.4792 72.4284 16.401 71.6263 16.3281C71.4909 16.3177 71.3503 16.3073 71.2045 16.2969C71.0586 16.2865 70.918 16.2708 70.7826 16.25C70.7409 16.25 70.6993 16.25 70.6576 16.25C70.6159 16.2396 70.5743 16.2344 70.5326 16.2344C69.3972 16.1094 68.4649 15.9375 67.7357 15.7188C67.0066 15.4896 66.392 15.0573 65.892 14.4219C65.4024 13.7865 65.1576 12.875 65.1576 11.6875C65.1576 10.5729 65.4024 9.63542 65.892 8.875C66.392 8.10417 67.1211 7.52604 68.0795 7.14062C69.0378 6.74479 70.2149 6.54688 71.6107 6.54688C72.4441 6.54688 73.2566 6.63021 74.0482 6.79688C74.8399 6.95312 75.5951 7.1875 76.3138 7.5C77.043 7.80208 77.7305 8.18229 78.3763 8.64062L76.142 11.3594C75.3816 10.901 74.6107 10.5521 73.8295 10.3125C73.0586 10.0729 72.3086 9.95312 71.5795 9.95312C70.6003 9.95312 69.8555 10.0938 69.3451 10.375C68.8347 10.6562 68.5795 11.0729 68.5795 11.625C68.5795 11.9792 68.7201 12.25 69.0013 12.4375C69.2826 12.625 69.6316 12.7552 70.0482 12.8281C70.4753 12.8906 71.0899 12.9583 71.892 13.0312C71.9753 13.0417 72.0534 13.0521 72.1263 13.0625C72.2097 13.0625 72.293 13.0677 72.3763 13.0781C72.4076 13.0781 72.4441 13.0781 72.4857 13.0781C72.5274 13.0781 72.5691 13.0833 72.6107 13.0938C73.8086 13.2083 74.8034 13.3802 75.5951 13.6094C76.3868 13.8385 77.0586 14.2969 77.6107 14.9844C78.1628 15.6615 78.4388 16.651 78.4388 17.9531C78.4388 19.099 78.1784 20.0677 77.6576 20.8594C77.1368 21.6406 76.3607 22.2344 75.3295 22.6406C74.3086 23.0365 73.0534 23.2344 71.5638 23.2344Z" fill="#F1F5F9"/>
<path d="M90.0013 9.00015C90.0013 7.76168 90.308 6.54247 90.8939 5.4514C91.4799 4.36032 92.327 3.43134 93.3595 2.74739C94.392 2.06345 95.5778 1.64583 96.811 1.53184C98.0442 1.41785 99.2865 1.61102 100.427 2.09411C101.567 2.5772 102.57 3.33517 103.346 4.30035C104.122 5.26552 104.647 6.40786 104.874 7.62535C105.101 8.84284 105.023 10.0976 104.647 11.2776C104.271 12.4575 103.609 13.526 102.719 14.3876C102.465 14.6326 102.27 14.8876 102.153 15.1613L101.2 17.3725C101.152 17.4846 101.072 17.5801 100.97 17.6472C100.868 17.7143 100.748 17.75 100.626 17.75H94.3763C94.2541 17.7503 94.1344 17.7146 94.0322 17.6475C93.93 17.5804 93.8498 17.4848 93.8013 17.3725L92.8501 15.1601C92.7139 14.8679 92.5215 14.6054 92.2838 14.3876C91.5609 13.6891 90.9861 12.852 90.594 11.9263C90.2018 11.0007 90.0002 10.0054 90.0013 9.00015ZM93.7513 19.625C93.7513 19.4593 93.8172 19.3003 93.9344 19.1831C94.0516 19.0659 94.2106 19 94.3763 19H100.626C100.792 19 100.951 19.0659 101.068 19.1831C101.185 19.3003 101.251 19.4593 101.251 19.625C101.251 19.7908 101.185 19.9497 101.068 20.067C100.951 20.1842 100.792 20.25 100.626 20.25L100.346 20.8088C100.243 21.0164 100.083 21.191 99.8858 21.3131C99.6884 21.4351 99.4609 21.4999 99.2288 21.5H95.7738C95.5418 21.4999 95.3143 21.4351 95.1169 21.3131C94.9196 21.191 94.7601 21.0164 94.6563 20.8088L94.3763 20.25C94.2106 20.25 94.0516 20.1842 93.9344 20.067C93.8172 19.9497 93.7513 19.7908 93.7513 19.625Z" fill="#F1F5F9"/>
</svg>
