<svg width="289" height="19" viewBox="0 0 289 19" fill="none" xmlns="http://www.w3.org/2000/svg">
<path d="M4.76697 2.35547H7.55603V18H4.76697V2.35547ZM0.0325928 0.960938H12.2904V3.64453H0.0325928V0.960938ZM17.5052 18.1758C16.3568 18.1758 15.3763 17.9648 14.5638 17.543C13.7513 17.1211 13.1302 16.5039 12.7006 15.6914C12.2709 14.8711 12.056 13.8828 12.056 12.7266V11.3555C12.056 10.1523 12.2592 9.125 12.6654 8.27344C13.0795 7.42188 13.6771 6.77344 14.4584 6.32812C15.2474 5.88281 16.1927 5.66016 17.2943 5.66016C18.3334 5.66016 19.2201 5.92187 19.9545 6.44531C20.6967 6.96094 21.2592 7.71094 21.642 8.69531C22.0326 9.67969 22.2279 10.8672 22.2279 12.2578V13.0547H13.9662V11.0039H19.6263L19.6146 10.875C19.5365 10.0234 19.2982 9.36328 18.8998 8.89453C18.5013 8.42578 17.9662 8.19141 17.2943 8.19141C16.4506 8.19141 15.7982 8.45703 15.3373 8.98828C14.8763 9.51172 14.6459 10.2578 14.6459 11.2266V12.7734C14.6459 13.6953 14.8959 14.4062 15.3959 14.9062C15.8959 15.3984 16.599 15.6445 17.5052 15.6445C17.9662 15.6445 18.4193 15.5586 18.8646 15.3867C19.3177 15.207 19.724 14.9609 20.0834 14.6484L21.9115 16.3594C21.2943 16.9375 20.599 17.3867 19.8256 17.707C19.0599 18.0195 18.2865 18.1758 17.5052 18.1758ZM30.3021 18.1758C29.1693 18.1758 28.2006 17.9648 27.3959 17.543C26.5912 17.1133 25.9779 16.4922 25.556 15.6797C25.1342 14.8594 24.9232 13.8711 24.9232 12.7148V11.0625C24.9232 9.92188 25.1342 8.94922 25.556 8.14453C25.9779 7.33203 26.5912 6.71484 27.3959 6.29297C28.2006 5.87109 29.1693 5.66016 30.3021 5.66016C30.9506 5.66016 31.5599 5.73828 32.1302 5.89453C32.7084 6.04297 33.224 6.26172 33.6771 6.55078C34.1381 6.83984 34.5209 7.19141 34.8256 7.60547L32.9271 9.38672C32.6068 9.05078 32.2318 8.79297 31.8021 8.61328C31.3724 8.43359 30.9232 8.34375 30.4545 8.34375C29.5873 8.34375 28.9154 8.58203 28.4388 9.05859C27.9623 9.52734 27.724 10.1953 27.724 11.0625V12.7148C27.724 13.6055 27.9584 14.293 28.4271 14.7773C28.9037 15.2539 29.5795 15.4922 30.4545 15.4922C30.931 15.4922 31.3842 15.3945 31.8138 15.1992C32.2435 15.0039 32.6146 14.7266 32.9271 14.3672L34.8256 16.2656C34.5131 16.6719 34.1263 17.0195 33.6654 17.3086C33.2123 17.5898 32.6967 17.8047 32.1185 17.9531C31.5482 18.1016 30.9427 18.1758 30.3021 18.1758ZM37.2279 0.960938H40.0287V18H37.2279V0.960938ZM44.4349 10.6289C44.4349 9.90234 44.2396 9.33984 43.849 8.94141C43.4584 8.54297 42.9037 8.34375 42.1849 8.34375C41.4974 8.34375 40.9662 8.52734 40.5912 8.89453C40.2162 9.26172 40.0287 9.78125 40.0287 10.4531L39.7826 7.93359C40.1498 7.19922 40.6107 6.63672 41.1654 6.24609C41.7279 5.85547 42.3881 5.66016 43.1459 5.66016C44.4427 5.66016 45.4467 6.09375 46.1576 6.96094C46.8763 7.82031 47.2357 9.03906 47.2357 10.6172V18H44.4349V10.6289ZM50.6342 5.83594H53.4349V18H50.6342V5.83594ZM57.8412 10.6289C57.8412 9.90234 57.6459 9.33984 57.2552 8.94141C56.8646 8.54297 56.3099 8.34375 55.5912 8.34375C54.9037 8.34375 54.3724 8.53125 53.9974 8.90625C53.6224 9.27344 53.4349 9.79688 53.4349 10.4766L53.1888 7.95703C53.556 7.20703 54.017 6.63672 54.5717 6.24609C55.1342 5.85547 55.7943 5.66016 56.5521 5.66016C57.849 5.66016 58.8529 6.09375 59.5638 6.96094C60.2826 7.82031 60.642 9.03906 60.642 10.6172V18H57.8412V10.6289ZM63.9584 0.960938H66.7474V3.76172H63.9584V0.960938ZM63.9584 5.83594H66.7474V18H63.9584V5.83594ZM75.0912 18.1758C73.9584 18.1758 72.9896 17.9648 72.1849 17.543C71.3802 17.1133 70.767 16.4922 70.3451 15.6797C69.9232 14.8594 69.7123 13.8711 69.7123 12.7148V11.0625C69.7123 9.92188 69.9232 8.94922 70.3451 8.14453C70.767 7.33203 71.3802 6.71484 72.1849 6.29297C72.9896 5.87109 73.9584 5.66016 75.0912 5.66016C75.7396 5.66016 76.349 5.73828 76.9193 5.89453C77.4974 6.04297 78.0131 6.26172 78.4662 6.55078C78.9271 6.83984 79.3099 7.19141 79.6146 7.60547L77.7162 9.38672C77.3959 9.05078 77.0209 8.79297 76.5912 8.61328C76.1615 8.43359 75.7123 8.34375 75.2435 8.34375C74.3763 8.34375 73.7045 8.58203 73.2279 9.05859C72.7513 9.52734 72.5131 10.1953 72.5131 11.0625V12.7148C72.5131 13.6055 72.7474 14.293 73.2162 14.7773C73.6927 15.2539 74.3685 15.4922 75.2435 15.4922C75.7201 15.4922 76.1732 15.3945 76.6029 15.1992C77.0326 15.0039 77.4037 14.7266 77.7162 14.3672L79.6146 16.2656C79.3021 16.6719 78.9154 17.0195 78.4545 17.3086C78.0013 17.5898 77.4857 17.8047 76.9076 17.9531C76.3373 18.1016 75.7318 18.1758 75.0912 18.1758ZM88.8021 10.2891C88.8021 9.60938 88.599 9.08203 88.1927 8.70703C87.7943 8.33203 87.2279 8.14453 86.4935 8.14453C86.0248 8.14453 85.5638 8.21875 85.1107 8.36719C84.6576 8.51562 84.2513 8.72266 83.892 8.98828L82.0287 7.41797C82.5052 6.86328 83.1302 6.43359 83.9037 6.12891C84.6771 5.81641 85.5365 5.66016 86.4818 5.66016C87.5131 5.66016 88.3959 5.83984 89.1302 6.19922C89.8646 6.55078 90.4232 7.06641 90.806 7.74609C91.1967 8.41797 91.392 9.23047 91.392 10.1836V18H88.8021V10.2891ZM85.6146 18.1758C84.2162 18.1758 83.1693 17.8672 82.474 17.25C81.7787 16.625 81.431 15.6797 81.431 14.4141C81.431 13.2109 81.7826 12.3086 82.4857 11.707C83.1888 11.1055 84.2435 10.8047 85.6498 10.8047H88.9076L89.0717 12.9844H85.6615C85.1068 12.9844 84.6888 13.1016 84.4076 13.3359C84.1342 13.5703 83.9974 13.9297 83.9974 14.4141C83.9974 14.9219 84.1771 15.3008 84.5365 15.5508C84.8959 15.793 85.4388 15.9141 86.1654 15.9141C87.056 15.9141 87.7162 15.8164 88.1459 15.6211C88.5834 15.4258 88.8021 15.1211 88.8021 14.707L89.0482 16.4414C88.9154 16.8242 88.681 17.1445 88.3451 17.4023C88.017 17.6602 87.6185 17.8555 87.1498 17.9883C86.681 18.1133 86.1693 18.1758 85.6146 18.1758ZM97.5912 14.4258C97.5912 14.7227 97.6654 14.9531 97.8138 15.1172C97.9623 15.2734 98.1732 15.3516 98.4467 15.3516H99.2787V18.0352H97.7552C96.8177 18.0352 96.0873 17.7539 95.5638 17.1914C95.0482 16.6289 94.7904 15.8359 94.7904 14.8125V0.960938H97.5912V14.4258ZM113.189 0.960938H115.228L121.626 18H118.615L114.208 5.30859L109.802 18H106.79L113.189 0.960938ZM109.802 12.082H118.767V14.7656H109.802V12.082ZM128.212 18.1758C127.486 18.1758 126.794 18.1094 126.138 17.9766C125.482 17.8359 124.865 17.6328 124.286 17.3672C123.716 17.1016 123.201 16.7773 122.74 16.3945L124.439 14.2852C125.056 14.7227 125.685 15.0547 126.326 15.2812C126.974 15.5078 127.603 15.6211 128.212 15.6211C129.064 15.6211 129.708 15.5078 130.146 15.2812C130.591 15.0469 130.814 14.7109 130.814 14.2734C130.814 13.9375 130.704 13.6875 130.486 13.5234C130.267 13.3516 129.99 13.2344 129.654 13.1719C129.326 13.1094 128.861 13.0508 128.259 12.9961C128.158 12.9883 128.052 12.9805 127.943 12.9727C127.833 12.9648 127.728 12.9531 127.626 12.9375C127.595 12.9375 127.564 12.9375 127.533 12.9375C127.501 12.9297 127.47 12.9258 127.439 12.9258C126.587 12.832 125.888 12.7031 125.341 12.5391C124.794 12.3672 124.333 12.043 123.958 11.5664C123.591 11.0898 123.408 10.4062 123.408 9.51562C123.408 8.67969 123.591 7.97656 123.958 7.40625C124.333 6.82812 124.88 6.39453 125.599 6.10547C126.318 5.80859 127.201 5.66016 128.247 5.66016C128.872 5.66016 129.482 5.72266 130.076 5.84766C130.669 5.96484 131.236 6.14062 131.775 6.375C132.322 6.60156 132.837 6.88672 133.322 7.23047L131.646 9.26953C131.076 8.92578 130.497 8.66406 129.911 8.48438C129.333 8.30469 128.771 8.21484 128.224 8.21484C127.49 8.21484 126.931 8.32031 126.548 8.53125C126.165 8.74219 125.974 9.05469 125.974 9.46875C125.974 9.73438 126.079 9.9375 126.29 10.0781C126.501 10.2188 126.763 10.3164 127.076 10.3711C127.396 10.418 127.857 10.4688 128.458 10.5234C128.521 10.5312 128.579 10.5391 128.634 10.5469C128.697 10.5469 128.759 10.5508 128.822 10.5586C128.845 10.5586 128.872 10.5586 128.904 10.5586C128.935 10.5586 128.966 10.5625 128.997 10.5703C129.896 10.6562 130.642 10.7852 131.236 10.957C131.829 11.1289 132.333 11.4727 132.747 11.9883C133.161 12.4961 133.369 13.2383 133.369 14.2148C133.369 15.0742 133.173 15.8008 132.783 16.3945C132.392 16.9805 131.81 17.4258 131.036 17.7305C130.271 18.0273 129.329 18.1758 128.212 18.1758ZM140.658 18.1758C139.931 18.1758 139.24 18.1094 138.583 17.9766C137.927 17.8359 137.31 17.6328 136.732 17.3672C136.161 17.1016 135.646 16.7773 135.185 16.3945L136.884 14.2852C137.501 14.7227 138.13 15.0547 138.771 15.2812C139.419 15.5078 140.048 15.6211 140.658 15.6211C141.509 15.6211 142.154 15.5078 142.591 15.2812C143.036 15.0469 143.259 14.7109 143.259 14.2734C143.259 13.9375 143.15 13.6875 142.931 13.5234C142.712 13.3516 142.435 13.2344 142.099 13.1719C141.771 13.1094 141.306 13.0508 140.704 12.9961C140.603 12.9883 140.497 12.9805 140.388 12.9727C140.279 12.9648 140.173 12.9531 140.072 12.9375C140.04 12.9375 140.009 12.9375 139.978 12.9375C139.947 12.9297 139.915 12.9258 139.884 12.9258C139.033 12.832 138.333 12.7031 137.786 12.5391C137.24 12.3672 136.779 12.043 136.404 11.5664C136.036 11.0898 135.853 10.4062 135.853 9.51562C135.853 8.67969 136.036 7.97656 136.404 7.40625C136.779 6.82812 137.326 6.39453 138.044 6.10547C138.763 5.80859 139.646 5.66016 140.693 5.66016C141.318 5.66016 141.927 5.72266 142.521 5.84766C143.115 5.96484 143.681 6.14062 144.22 6.375C144.767 6.60156 145.283 6.88672 145.767 7.23047L144.091 9.26953C143.521 8.92578 142.943 8.66406 142.357 8.48438C141.779 8.30469 141.216 8.21484 140.669 8.21484C139.935 8.21484 139.376 8.32031 138.994 8.53125C138.611 8.74219 138.419 9.05469 138.419 9.46875C138.419 9.73438 138.525 9.9375 138.736 10.0781C138.947 10.2188 139.208 10.3164 139.521 10.3711C139.841 10.418 140.302 10.4688 140.904 10.5234C140.966 10.5312 141.025 10.5391 141.079 10.5469C141.142 10.5469 141.204 10.5508 141.267 10.5586C141.29 10.5586 141.318 10.5586 141.349 10.5586C141.38 10.5586 141.411 10.5625 141.443 10.5703C142.341 10.6562 143.087 10.7852 143.681 10.957C144.275 11.1289 144.779 11.4727 145.193 11.9883C145.607 12.4961 145.814 13.2383 145.814 14.2148C145.814 15.0742 145.619 15.8008 145.228 16.3945C144.837 16.9805 144.255 17.4258 143.482 17.7305C142.716 18.0273 141.775 18.1758 140.658 18.1758ZM148.544 0.960938H151.333V3.76172H148.544V0.960938ZM148.544 5.83594H151.333V18H148.544V5.83594ZM159.126 18.1758C158.4 18.1758 157.708 18.1094 157.052 17.9766C156.396 17.8359 155.779 17.6328 155.201 17.3672C154.63 17.1016 154.115 16.7773 153.654 16.3945L155.353 14.2852C155.97 14.7227 156.599 15.0547 157.24 15.2812C157.888 15.5078 158.517 15.6211 159.126 15.6211C159.978 15.6211 160.622 15.5078 161.06 15.2812C161.505 15.0469 161.728 14.7109 161.728 14.2734C161.728 13.9375 161.619 13.6875 161.4 13.5234C161.181 13.3516 160.904 13.2344 160.568 13.1719C160.24 13.1094 159.775 13.0508 159.173 12.9961C159.072 12.9883 158.966 12.9805 158.857 12.9727C158.747 12.9648 158.642 12.9531 158.54 12.9375C158.509 12.9375 158.478 12.9375 158.447 12.9375C158.415 12.9297 158.384 12.9258 158.353 12.9258C157.501 12.832 156.802 12.7031 156.255 12.5391C155.708 12.3672 155.247 12.043 154.872 11.5664C154.505 11.0898 154.322 10.4062 154.322 9.51562C154.322 8.67969 154.505 7.97656 154.872 7.40625C155.247 6.82812 155.794 6.39453 156.513 6.10547C157.232 5.80859 158.115 5.66016 159.161 5.66016C159.786 5.66016 160.396 5.72266 160.99 5.84766C161.583 5.96484 162.15 6.14062 162.689 6.375C163.236 6.60156 163.751 6.88672 164.236 7.23047L162.56 9.26953C161.99 8.92578 161.411 8.66406 160.826 8.48438C160.247 8.30469 159.685 8.21484 159.138 8.21484C158.404 8.21484 157.845 8.32031 157.462 8.53125C157.079 8.74219 156.888 9.05469 156.888 9.46875C156.888 9.73438 156.994 9.9375 157.204 10.0781C157.415 10.2188 157.677 10.3164 157.99 10.3711C158.31 10.418 158.771 10.4688 159.372 10.5234C159.435 10.5312 159.494 10.5391 159.548 10.5469C159.611 10.5469 159.673 10.5508 159.736 10.5586C159.759 10.5586 159.786 10.5586 159.818 10.5586C159.849 10.5586 159.88 10.5625 159.911 10.5703C160.81 10.6562 161.556 10.7852 162.15 10.957C162.744 11.1289 163.247 11.4727 163.661 11.9883C164.076 12.4961 164.283 13.2383 164.283 14.2148C164.283 15.0742 164.087 15.8008 163.697 16.3945C163.306 16.9805 162.724 17.4258 161.951 17.7305C161.185 18.0273 160.244 18.1758 159.126 18.1758ZM170.376 18.0586C169.353 18.0586 168.603 17.7891 168.126 17.25C167.65 16.7031 167.411 15.8984 167.411 14.8359V2.29688H170.212V14.4492C170.212 14.7461 170.271 14.9766 170.388 15.1406C170.505 15.2969 170.677 15.375 170.904 15.375H171.876V18.0586H170.376ZM166.158 5.83594H171.876V8.28516H166.158V5.83594ZM181.708 10.2891C181.708 9.60938 181.505 9.08203 181.099 8.70703C180.701 8.33203 180.134 8.14453 179.4 8.14453C178.931 8.14453 178.47 8.21875 178.017 8.36719C177.564 8.51562 177.158 8.72266 176.798 8.98828L174.935 7.41797C175.411 6.86328 176.036 6.43359 176.81 6.12891C177.583 5.81641 178.443 5.66016 179.388 5.66016C180.419 5.66016 181.302 5.83984 182.036 6.19922C182.771 6.55078 183.329 7.06641 183.712 7.74609C184.103 8.41797 184.298 9.23047 184.298 10.1836V18H181.708V10.2891ZM178.521 18.1758C177.122 18.1758 176.076 17.8672 175.38 17.25C174.685 16.625 174.337 15.6797 174.337 14.4141C174.337 13.2109 174.689 12.3086 175.392 11.707C176.095 11.1055 177.15 10.8047 178.556 10.8047H181.814L181.978 12.9844H178.568C178.013 12.9844 177.595 13.1016 177.314 13.3359C177.04 13.5703 176.904 13.9297 176.904 14.4141C176.904 14.9219 177.083 15.3008 177.443 15.5508C177.802 15.793 178.345 15.9141 179.072 15.9141C179.962 15.9141 180.622 15.8164 181.052 15.6211C181.49 15.4258 181.708 15.1211 181.708 14.707L181.954 16.4414C181.822 16.8242 181.587 17.1445 181.251 17.4023C180.923 17.6602 180.525 17.8555 180.056 17.9883C179.587 18.1133 179.076 18.1758 178.521 18.1758ZM187.697 5.83594H190.497V18H187.697V5.83594ZM194.904 10.6289C194.904 9.90234 194.708 9.33984 194.318 8.94141C193.927 8.54297 193.372 8.34375 192.654 8.34375C191.966 8.34375 191.435 8.53125 191.06 8.90625C190.685 9.27344 190.497 9.79688 190.497 10.4766L190.251 7.95703C190.619 7.20703 191.079 6.63672 191.634 6.24609C192.197 5.85547 192.857 5.66016 193.615 5.66016C194.911 5.66016 195.915 6.09375 196.626 6.96094C197.345 7.82031 197.704 9.03906 197.704 10.6172V18H194.904V10.6289ZM206.13 18.1758C204.997 18.1758 204.029 17.9648 203.224 17.543C202.419 17.1133 201.806 16.4922 201.384 15.6797C200.962 14.8594 200.751 13.8711 200.751 12.7148V11.0625C200.751 9.92188 200.962 8.94922 201.384 8.14453C201.806 7.33203 202.419 6.71484 203.224 6.29297C204.029 5.87109 204.997 5.66016 206.13 5.66016C206.779 5.66016 207.388 5.73828 207.958 5.89453C208.536 6.04297 209.052 6.26172 209.505 6.55078C209.966 6.83984 210.349 7.19141 210.654 7.60547L208.755 9.38672C208.435 9.05078 208.06 8.79297 207.63 8.61328C207.201 8.43359 206.751 8.34375 206.283 8.34375C205.415 8.34375 204.744 8.58203 204.267 9.05859C203.79 9.52734 203.552 10.1953 203.552 11.0625V12.7148C203.552 13.6055 203.786 14.293 204.255 14.7773C204.732 15.2539 205.408 15.4922 206.283 15.4922C206.759 15.4922 207.212 15.3945 207.642 15.1992C208.072 15.0039 208.443 14.7266 208.755 14.3672L210.654 16.2656C210.341 16.6719 209.954 17.0195 209.494 17.3086C209.04 17.5898 208.525 17.8047 207.947 17.9531C207.376 18.1016 206.771 18.1758 206.13 18.1758ZM218.154 18.1758C217.005 18.1758 216.025 17.9648 215.212 17.543C214.4 17.1211 213.779 16.5039 213.349 15.6914C212.919 14.8711 212.704 13.8828 212.704 12.7266V11.3555C212.704 10.1523 212.908 9.125 213.314 8.27344C213.728 7.42188 214.326 6.77344 215.107 6.32812C215.896 5.88281 216.841 5.66016 217.943 5.66016C218.982 5.66016 219.869 5.92187 220.603 6.44531C221.345 6.96094 221.908 7.71094 222.29 8.69531C222.681 9.67969 222.876 10.8672 222.876 12.2578V13.0547H214.615V11.0039H220.275L220.263 10.875C220.185 10.0234 219.947 9.36328 219.548 8.89453C219.15 8.42578 218.615 8.19141 217.943 8.19141C217.099 8.19141 216.447 8.45703 215.986 8.98828C215.525 9.51172 215.294 10.2578 215.294 11.2266V12.7734C215.294 13.6953 215.544 14.4062 216.044 14.9062C216.544 15.3984 217.247 15.6445 218.154 15.6445C218.615 15.6445 219.068 15.5586 219.513 15.3867C219.966 15.207 220.372 14.9609 220.732 14.6484L222.56 16.3594C221.943 16.9375 221.247 17.3867 220.474 17.707C219.708 18.0195 218.935 18.1758 218.154 18.1758ZM240.478 10.5586V13.2305H232.369V10.5586H240.478ZM251.904 8.70703H257.353C257.806 8.70703 258.201 8.60547 258.536 8.40234C258.88 8.19141 259.146 7.89453 259.333 7.51172C259.529 7.12891 259.626 6.6875 259.626 6.1875C259.626 5.67969 259.533 5.23438 259.345 4.85156C259.158 4.46875 258.892 4.17188 258.548 3.96094C258.204 3.75 257.806 3.64453 257.353 3.64453H251.904V0.960938H257.271C258.31 0.960938 259.224 1.17969 260.013 1.61719C260.802 2.04688 261.415 2.65625 261.853 3.44531C262.29 4.23437 262.509 5.14844 262.509 6.1875C262.509 7.22656 262.29 8.14062 261.853 8.92969C261.415 9.71094 260.802 10.3164 260.013 10.7461C259.224 11.1758 258.31 11.3906 257.271 11.3906H251.904V8.70703ZM250.556 0.960938H253.357V18H250.556V0.960938ZM269.001 18.1758C267.923 18.1758 266.997 17.9688 266.224 17.5547C265.458 17.1406 264.872 16.5391 264.466 15.75C264.068 14.9531 263.869 13.9961 263.869 12.8789V10.8984C263.869 9.79688 264.068 8.85547 264.466 8.07422C264.872 7.28516 265.458 6.6875 266.224 6.28125C266.997 5.86719 267.923 5.66016 269.001 5.66016C270.079 5.66016 271.001 5.86719 271.767 6.28125C272.54 6.6875 273.126 7.28516 273.525 8.07422C273.931 8.85547 274.134 9.79688 274.134 10.8984V12.9141C274.134 14.0234 273.931 14.9727 273.525 15.7617C273.126 16.543 272.54 17.1406 271.767 17.5547C271.001 17.9688 270.079 18.1758 269.001 18.1758ZM269.001 15.4922C269.744 15.4922 270.318 15.2695 270.724 14.8242C271.13 14.3711 271.333 13.7344 271.333 12.9141V10.8984C271.333 10.0859 271.13 9.45703 270.724 9.01172C270.318 8.56641 269.744 8.34375 269.001 8.34375C268.259 8.34375 267.685 8.56641 267.279 9.01172C266.872 9.45703 266.669 10.0859 266.669 10.8984V12.9141C266.669 13.7344 266.869 14.3711 267.267 14.8242C267.673 15.2695 268.251 15.4922 269.001 15.4922ZM282.079 18.1758C281.001 18.1758 280.076 17.9688 279.302 17.5547C278.536 17.1406 277.951 16.5391 277.544 15.75C277.146 14.9531 276.947 13.9961 276.947 12.8789V10.8984C276.947 9.79688 277.146 8.85547 277.544 8.07422C277.951 7.28516 278.536 6.6875 279.302 6.28125C280.076 5.86719 281.001 5.66016 282.079 5.66016C283.158 5.66016 284.079 5.86719 284.845 6.28125C285.619 6.6875 286.204 7.28516 286.603 8.07422C287.009 8.85547 287.212 9.79688 287.212 10.8984V12.9141C287.212 14.0234 287.009 14.9727 286.603 15.7617C286.204 16.543 285.619 17.1406 284.845 17.5547C284.079 17.9688 283.158 18.1758 282.079 18.1758ZM282.079 15.4922C282.822 15.4922 283.396 15.2695 283.802 14.8242C284.208 14.3711 284.411 13.7344 284.411 12.9141V10.8984C284.411 10.0859 284.208 9.45703 283.802 9.01172C283.396 8.56641 282.822 8.34375 282.079 8.34375C281.337 8.34375 280.763 8.56641 280.357 9.01172C279.951 9.45703 279.747 10.0859 279.747 10.8984V12.9141C279.747 13.7344 279.947 14.3711 280.345 14.8242C280.751 15.2695 281.329 15.4922 282.079 15.4922Z" fill="#F1F5F9"/>
</svg>
