<svg width="440" height="24" viewBox="0 0 440 24" fill="none" xmlns="http://www.w3.org/2000/svg">
<path d="M7.03259 2.14062H10.7513V23H7.03259V2.14062ZM0.720093 0.28125H17.0638V3.85938H0.720093V0.28125ZM24.017 23.2344C22.4857 23.2344 21.1784 22.9531 20.0951 22.3906C19.0118 21.8281 18.1836 21.0052 17.6107 19.9219C17.0378 18.8281 16.7513 17.5104 16.7513 15.9688V14.1406C16.7513 12.5365 17.0222 11.1667 17.5638 10.0312C18.1159 8.89583 18.9128 8.03125 19.9545 7.4375C21.0066 6.84375 22.267 6.54688 23.7357 6.54688C25.1211 6.54688 26.3034 6.89583 27.2826 7.59375C28.2722 8.28125 29.0222 9.28125 29.5326 10.5938C30.0534 11.9062 30.3138 13.4896 30.3138 15.3438V16.4062H19.2982V13.6719H26.8451L26.8295 13.5C26.7253 12.3646 26.4076 11.4844 25.8763 10.8594C25.3451 10.2344 24.6316 9.92188 23.7357 9.92188C22.6107 9.92188 21.7409 10.276 21.1263 10.9844C20.5118 11.6823 20.2045 12.6771 20.2045 13.9688V16.0312C20.2045 17.2604 20.5378 18.2083 21.2045 18.875C21.8711 19.5312 22.8086 19.8594 24.017 19.8594C24.6316 19.8594 25.2357 19.7448 25.8295 19.5156C26.4336 19.276 26.9753 18.9479 27.4545 18.5312L29.892 20.8125C29.0691 21.5833 28.142 22.1823 27.1107 22.6094C26.0899 23.026 25.0586 23.2344 24.017 23.2344ZM41.0795 23.2344C39.5691 23.2344 38.2774 22.9531 37.2045 22.3906C36.1316 21.8177 35.3138 20.9896 34.7513 19.9062C34.1888 18.8125 33.9076 17.4948 33.9076 15.9531V13.75C33.9076 12.2292 34.1888 10.9323 34.7513 9.85938C35.3138 8.77604 36.1316 7.95312 37.2045 7.39062C38.2774 6.82812 39.5691 6.54688 41.0795 6.54688C41.9441 6.54688 42.7566 6.65104 43.517 6.85938C44.2878 7.05729 44.9753 7.34896 45.5795 7.73438C46.1941 8.11979 46.7045 8.58854 47.1107 9.14062L44.5795 11.5156C44.1524 11.0677 43.6524 10.724 43.0795 10.4844C42.5066 10.2448 41.9076 10.125 41.2826 10.125C40.1263 10.125 39.2305 10.4427 38.5951 11.0781C37.9597 11.7031 37.642 12.5938 37.642 13.75V15.9531C37.642 17.1406 37.9545 18.0573 38.5795 18.7031C39.2149 19.3385 40.1159 19.6562 41.2826 19.6562C41.918 19.6562 42.5222 19.526 43.0951 19.2656C43.668 19.0052 44.1628 18.6354 44.5795 18.1562L47.1107 20.6875C46.6941 21.2292 46.1784 21.6927 45.5638 22.0781C44.9597 22.4531 44.2722 22.7396 43.5013 22.9375C42.7409 23.1354 41.9336 23.2344 41.0795 23.2344ZM50.3138 0.28125H54.0482V23H50.3138V0.28125ZM59.9232 13.1719C59.9232 12.2031 59.6628 11.4531 59.142 10.9219C58.6211 10.3906 57.8816 10.125 56.9232 10.125C56.0066 10.125 55.2982 10.3698 54.7982 10.8594C54.2982 11.349 54.0482 12.0417 54.0482 12.9375L53.7201 9.57812C54.2097 8.59896 54.8243 7.84896 55.5638 7.32812C56.3138 6.80729 57.1941 6.54688 58.2045 6.54688C59.9336 6.54688 61.2722 7.125 62.2201 8.28125C63.1784 9.42708 63.6576 11.0521 63.6576 13.1562V23H59.9232V13.1719ZM68.1888 6.78125H71.9232V23H68.1888V6.78125ZM77.7982 13.1719C77.7982 12.2031 77.5378 11.4531 77.017 10.9219C76.4961 10.3906 75.7566 10.125 74.7982 10.125C73.8816 10.125 73.1732 10.375 72.6732 10.875C72.1732 11.3646 71.9232 12.0625 71.9232 12.9688L71.5951 9.60938C72.0847 8.60938 72.6993 7.84896 73.4388 7.32812C74.1888 6.80729 75.0691 6.54688 76.0795 6.54688C77.8086 6.54688 79.1472 7.125 80.0951 8.28125C81.0534 9.42708 81.5326 11.0521 81.5326 13.1562V23H77.7982V13.1719ZM85.9545 0.28125H89.6732V4.01562H85.9545V0.28125ZM85.9545 6.78125H89.6732V23H85.9545V6.78125ZM100.798 23.2344C99.2878 23.2344 97.9961 22.9531 96.9232 22.3906C95.8503 21.8177 95.0326 20.9896 94.4701 19.9062C93.9076 18.8125 93.6263 17.4948 93.6263 15.9531V13.75C93.6263 12.2292 93.9076 10.9323 94.4701 9.85938C95.0326 8.77604 95.8503 7.95312 96.9232 7.39062C97.9961 6.82812 99.2878 6.54688 100.798 6.54688C101.663 6.54688 102.475 6.65104 103.236 6.85938C104.007 7.05729 104.694 7.34896 105.298 7.73438C105.913 8.11979 106.423 8.58854 106.829 9.14062L104.298 11.5156C103.871 11.0677 103.371 10.724 102.798 10.4844C102.225 10.2448 101.626 10.125 101.001 10.125C99.8451 10.125 98.9493 10.4427 98.3138 11.0781C97.6784 11.7031 97.3607 12.5938 97.3607 13.75V15.9531C97.3607 17.1406 97.6732 18.0573 98.2982 18.7031C98.9336 19.3385 99.8347 19.6562 101.001 19.6562C101.637 19.6562 102.241 19.526 102.814 19.2656C103.387 19.0052 103.882 18.6354 104.298 18.1562L106.829 20.6875C106.413 21.2292 105.897 21.6927 105.283 22.0781C104.678 22.4531 103.991 22.7396 103.22 22.9375C102.46 23.1354 101.652 23.2344 100.798 23.2344ZM119.079 12.7188C119.079 11.8125 118.809 11.1094 118.267 10.6094C117.736 10.1094 116.981 9.85938 116.001 9.85938C115.376 9.85938 114.762 9.95833 114.158 10.1562C113.553 10.3542 113.012 10.6302 112.533 10.9844L110.048 8.89062C110.684 8.15104 111.517 7.57812 112.548 7.17188C113.579 6.75521 114.725 6.54688 115.986 6.54688C117.361 6.54688 118.538 6.78646 119.517 7.26562C120.496 7.73438 121.241 8.42188 121.751 9.32812C122.272 10.224 122.533 11.3073 122.533 12.5781V23H119.079V12.7188ZM114.829 23.2344C112.965 23.2344 111.569 22.8229 110.642 22C109.715 21.1667 109.251 19.9062 109.251 18.2188C109.251 16.6146 109.72 15.4115 110.658 14.6094C111.595 13.8073 113.001 13.4062 114.876 13.4062H119.22L119.439 16.3125H114.892C114.152 16.3125 113.595 16.4688 113.22 16.7812C112.856 17.0938 112.673 17.5729 112.673 18.2188C112.673 18.8958 112.913 19.401 113.392 19.7344C113.871 20.0573 114.595 20.2188 115.564 20.2188C116.751 20.2188 117.632 20.0885 118.204 19.8281C118.788 19.5677 119.079 19.1615 119.079 18.6094L119.408 20.9219C119.231 21.4323 118.918 21.8594 118.47 22.2031C118.033 22.5469 117.501 22.8073 116.876 22.9844C116.251 23.151 115.569 23.2344 114.829 23.2344ZM130.798 18.2344C130.798 18.6302 130.897 18.9375 131.095 19.1562C131.293 19.3646 131.574 19.4688 131.939 19.4688H133.048V23.0469H131.017C129.767 23.0469 128.793 22.6719 128.095 21.9219C127.408 21.1719 127.064 20.1146 127.064 18.75V0.28125H130.798V18.2344ZM151.595 0.28125H154.314L162.845 23H158.829L152.954 6.07812L147.079 23H143.064L151.595 0.28125ZM147.079 15.1094H159.033V18.6875H147.079V15.1094ZM171.626 23.2344C170.658 23.2344 169.736 23.1458 168.861 22.9688C167.986 22.7812 167.163 22.5104 166.392 22.1562C165.632 21.8021 164.944 21.3698 164.329 20.8594L166.595 18.0469C167.418 18.6302 168.257 19.0729 169.111 19.375C169.975 19.6771 170.814 19.8281 171.626 19.8281C172.762 19.8281 173.621 19.6771 174.204 19.375C174.798 19.0625 175.095 18.6146 175.095 18.0312C175.095 17.5833 174.949 17.25 174.658 17.0312C174.366 16.8021 173.996 16.6458 173.548 16.5625C173.111 16.4792 172.491 16.401 171.689 16.3281C171.553 16.3177 171.413 16.3073 171.267 16.2969C171.121 16.2865 170.981 16.2708 170.845 16.25C170.803 16.25 170.762 16.25 170.72 16.25C170.678 16.2396 170.637 16.2344 170.595 16.2344C169.46 16.1094 168.527 15.9375 167.798 15.7188C167.069 15.4896 166.454 15.0573 165.954 14.4219C165.465 13.7865 165.22 12.875 165.22 11.6875C165.22 10.5729 165.465 9.63542 165.954 8.875C166.454 8.10417 167.184 7.52604 168.142 7.14062C169.1 6.74479 170.277 6.54688 171.673 6.54688C172.507 6.54688 173.319 6.63021 174.111 6.79688C174.902 6.95312 175.658 7.1875 176.376 7.5C177.106 7.80208 177.793 8.18229 178.439 8.64062L176.204 11.3594C175.444 10.901 174.673 10.5521 173.892 10.3125C173.121 10.0729 172.371 9.95312 171.642 9.95312C170.663 9.95312 169.918 10.0938 169.408 10.375C168.897 10.6562 168.642 11.0729 168.642 11.625C168.642 11.9792 168.783 12.25 169.064 12.4375C169.345 12.625 169.694 12.7552 170.111 12.8281C170.538 12.8906 171.152 12.9583 171.954 13.0312C172.038 13.0417 172.116 13.0521 172.189 13.0625C172.272 13.0625 172.356 13.0677 172.439 13.0781C172.47 13.0781 172.507 13.0781 172.548 13.0781C172.59 13.0781 172.632 13.0833 172.673 13.0938C173.871 13.2083 174.866 13.3802 175.658 13.6094C176.449 13.8385 177.121 14.2969 177.673 14.9844C178.225 15.6615 178.501 16.651 178.501 17.9531C178.501 19.099 178.241 20.0677 177.72 20.8594C177.199 21.6406 176.423 22.2344 175.392 22.6406C174.371 23.0365 173.116 23.2344 171.626 23.2344ZM188.22 23.2344C187.251 23.2344 186.329 23.1458 185.454 22.9688C184.579 22.7812 183.757 22.5104 182.986 22.1562C182.225 21.8021 181.538 21.3698 180.923 20.8594L183.189 18.0469C184.012 18.6302 184.85 19.0729 185.704 19.375C186.569 19.6771 187.408 19.8281 188.22 19.8281C189.356 19.8281 190.215 19.6771 190.798 19.375C191.392 19.0625 191.689 18.6146 191.689 18.0312C191.689 17.5833 191.543 17.25 191.251 17.0312C190.96 16.8021 190.59 16.6458 190.142 16.5625C189.704 16.4792 189.085 16.401 188.283 16.3281C188.147 16.3177 188.007 16.3073 187.861 16.2969C187.715 16.2865 187.574 16.2708 187.439 16.25C187.397 16.25 187.356 16.25 187.314 16.25C187.272 16.2396 187.231 16.2344 187.189 16.2344C186.053 16.1094 185.121 15.9375 184.392 15.7188C183.663 15.4896 183.048 15.0573 182.548 14.4219C182.059 13.7865 181.814 12.875 181.814 11.6875C181.814 10.5729 182.059 9.63542 182.548 8.875C183.048 8.10417 183.777 7.52604 184.736 7.14062C185.694 6.74479 186.871 6.54688 188.267 6.54688C189.1 6.54688 189.913 6.63021 190.704 6.79688C191.496 6.95312 192.251 7.1875 192.97 7.5C193.699 7.80208 194.387 8.18229 195.033 8.64062L192.798 11.3594C192.038 10.901 191.267 10.5521 190.486 10.3125C189.715 10.0729 188.965 9.95312 188.236 9.95312C187.257 9.95312 186.512 10.0938 186.001 10.375C185.491 10.6562 185.236 11.0729 185.236 11.625C185.236 11.9792 185.376 12.25 185.658 12.4375C185.939 12.625 186.288 12.7552 186.704 12.8281C187.132 12.8906 187.746 12.9583 188.548 13.0312C188.632 13.0417 188.71 13.0521 188.783 13.0625C188.866 13.0625 188.949 13.0677 189.033 13.0781C189.064 13.0781 189.1 13.0781 189.142 13.0781C189.184 13.0781 189.225 13.0833 189.267 13.0938C190.465 13.2083 191.46 13.3802 192.251 13.6094C193.043 13.8385 193.715 14.2969 194.267 14.9844C194.819 15.6615 195.095 16.651 195.095 17.9531C195.095 19.099 194.835 20.0677 194.314 20.8594C193.793 21.6406 193.017 22.2344 191.986 22.6406C190.965 23.0365 189.71 23.2344 188.22 23.2344ZM198.736 0.28125H202.454V4.01562H198.736V0.28125ZM198.736 6.78125H202.454V23H198.736V6.78125ZM212.845 23.2344C211.876 23.2344 210.954 23.1458 210.079 22.9688C209.204 22.7812 208.382 22.5104 207.611 22.1562C206.85 21.8021 206.163 21.3698 205.548 20.8594L207.814 18.0469C208.637 18.6302 209.475 19.0729 210.329 19.375C211.194 19.6771 212.033 19.8281 212.845 19.8281C213.981 19.8281 214.84 19.6771 215.423 19.375C216.017 19.0625 216.314 18.6146 216.314 18.0312C216.314 17.5833 216.168 17.25 215.876 17.0312C215.585 16.8021 215.215 16.6458 214.767 16.5625C214.329 16.4792 213.71 16.401 212.908 16.3281C212.772 16.3177 212.632 16.3073 212.486 16.2969C212.34 16.2865 212.199 16.2708 212.064 16.25C212.022 16.25 211.981 16.25 211.939 16.25C211.897 16.2396 211.856 16.2344 211.814 16.2344C210.678 16.1094 209.746 15.9375 209.017 15.7188C208.288 15.4896 207.673 15.0573 207.173 14.4219C206.684 13.7865 206.439 12.875 206.439 11.6875C206.439 10.5729 206.684 9.63542 207.173 8.875C207.673 8.10417 208.402 7.52604 209.361 7.14062C210.319 6.74479 211.496 6.54688 212.892 6.54688C213.725 6.54688 214.538 6.63021 215.329 6.79688C216.121 6.95312 216.876 7.1875 217.595 7.5C218.324 7.80208 219.012 8.18229 219.658 8.64062L217.423 11.3594C216.663 10.901 215.892 10.5521 215.111 10.3125C214.34 10.0729 213.59 9.95312 212.861 9.95312C211.882 9.95312 211.137 10.0938 210.626 10.375C210.116 10.6562 209.861 11.0729 209.861 11.625C209.861 11.9792 210.001 12.25 210.283 12.4375C210.564 12.625 210.913 12.7552 211.329 12.8281C211.757 12.8906 212.371 12.9583 213.173 13.0312C213.257 13.0417 213.335 13.0521 213.408 13.0625C213.491 13.0625 213.574 13.0677 213.658 13.0781C213.689 13.0781 213.725 13.0781 213.767 13.0781C213.809 13.0781 213.85 13.0833 213.892 13.0938C215.09 13.2083 216.085 13.3802 216.876 13.6094C217.668 13.8385 218.34 14.2969 218.892 14.9844C219.444 15.6615 219.72 16.651 219.72 17.9531C219.72 19.099 219.46 20.0677 218.939 20.8594C218.418 21.6406 217.642 22.2344 216.611 22.6406C215.59 23.0365 214.335 23.2344 212.845 23.2344ZM227.845 23.0781C226.481 23.0781 225.481 22.7188 224.845 22C224.21 21.2708 223.892 20.1979 223.892 18.7812V2.0625H227.626V18.2656C227.626 18.6615 227.704 18.9688 227.861 19.1875C228.017 19.3958 228.246 19.5 228.548 19.5H229.845V23.0781H227.845ZM222.22 6.78125H229.845V10.0469H222.22V6.78125ZM242.954 12.7188C242.954 11.8125 242.684 11.1094 242.142 10.6094C241.611 10.1094 240.856 9.85938 239.876 9.85938C239.251 9.85938 238.637 9.95833 238.033 10.1562C237.428 10.3542 236.887 10.6302 236.408 10.9844L233.923 8.89062C234.559 8.15104 235.392 7.57812 236.423 7.17188C237.454 6.75521 238.6 6.54688 239.861 6.54688C241.236 6.54688 242.413 6.78646 243.392 7.26562C244.371 7.73438 245.116 8.42188 245.626 9.32812C246.147 10.224 246.408 11.3073 246.408 12.5781V23H242.954V12.7188ZM238.704 23.2344C236.84 23.2344 235.444 22.8229 234.517 22C233.59 21.1667 233.126 19.9062 233.126 18.2188C233.126 16.6146 233.595 15.4115 234.533 14.6094C235.47 13.8073 236.876 13.4062 238.751 13.4062H243.095L243.314 16.3125H238.767C238.027 16.3125 237.47 16.4688 237.095 16.7812C236.731 17.0938 236.548 17.5729 236.548 18.2188C236.548 18.8958 236.788 19.401 237.267 19.7344C237.746 20.0573 238.47 20.2188 239.439 20.2188C240.626 20.2188 241.507 20.0885 242.079 19.8281C242.663 19.5677 242.954 19.1615 242.954 18.6094L243.283 20.9219C243.106 21.4323 242.793 21.8594 242.345 22.2031C241.908 22.5469 241.376 22.8073 240.751 22.9844C240.126 23.151 239.444 23.2344 238.704 23.2344ZM250.939 6.78125H254.673V23H250.939V6.78125ZM260.548 13.1719C260.548 12.2031 260.288 11.4531 259.767 10.9219C259.246 10.3906 258.507 10.125 257.548 10.125C256.632 10.125 255.923 10.375 255.423 10.875C254.923 11.3646 254.673 12.0625 254.673 12.9688L254.345 9.60938C254.835 8.60938 255.449 7.84896 256.189 7.32812C256.939 6.80729 257.819 6.54688 258.829 6.54688C260.559 6.54688 261.897 7.125 262.845 8.28125C263.803 9.42708 264.283 11.0521 264.283 13.1562V23H260.548V13.1719ZM275.517 23.2344C274.007 23.2344 272.715 22.9531 271.642 22.3906C270.569 21.8177 269.751 20.9896 269.189 19.9062C268.626 18.8125 268.345 17.4948 268.345 15.9531V13.75C268.345 12.2292 268.626 10.9323 269.189 9.85938C269.751 8.77604 270.569 7.95312 271.642 7.39062C272.715 6.82812 274.007 6.54688 275.517 6.54688C276.382 6.54688 277.194 6.65104 277.954 6.85938C278.725 7.05729 279.413 7.34896 280.017 7.73438C280.632 8.11979 281.142 8.58854 281.548 9.14062L279.017 11.5156C278.59 11.0677 278.09 10.724 277.517 10.4844C276.944 10.2448 276.345 10.125 275.72 10.125C274.564 10.125 273.668 10.4427 273.033 11.0781C272.397 11.7031 272.079 12.5938 272.079 13.75V15.9531C272.079 17.1406 272.392 18.0573 273.017 18.7031C273.652 19.3385 274.553 19.6562 275.72 19.6562C276.356 19.6562 276.96 19.526 277.533 19.2656C278.106 19.0052 278.6 18.6354 279.017 18.1562L281.548 20.6875C281.132 21.2292 280.616 21.6927 280.001 22.0781C279.397 22.4531 278.71 22.7396 277.939 22.9375C277.178 23.1354 276.371 23.2344 275.517 23.2344ZM291.548 23.2344C290.017 23.2344 288.71 22.9531 287.626 22.3906C286.543 21.8281 285.715 21.0052 285.142 19.9219C284.569 18.8281 284.283 17.5104 284.283 15.9688V14.1406C284.283 12.5365 284.553 11.1667 285.095 10.0312C285.647 8.89583 286.444 8.03125 287.486 7.4375C288.538 6.84375 289.798 6.54688 291.267 6.54688C292.652 6.54688 293.835 6.89583 294.814 7.59375C295.803 8.28125 296.553 9.28125 297.064 10.5938C297.585 11.9062 297.845 13.4896 297.845 15.3438V16.4062H286.829V13.6719H294.376L294.361 13.5C294.257 12.3646 293.939 11.4844 293.408 10.8594C292.876 10.2344 292.163 9.92188 291.267 9.92188C290.142 9.92188 289.272 10.276 288.658 10.9844C288.043 11.6823 287.736 12.6771 287.736 13.9688V16.0312C287.736 17.2604 288.069 18.2083 288.736 18.875C289.402 19.5312 290.34 19.8594 291.548 19.8594C292.163 19.8594 292.767 19.7448 293.361 19.5156C293.965 19.276 294.507 18.9479 294.986 18.5312L297.423 20.8125C296.6 21.5833 295.673 22.1823 294.642 22.6094C293.621 23.026 292.59 23.2344 291.548 23.2344ZM321.314 13.0781V16.6406H310.501V13.0781H321.314ZM334.751 0.28125H338.486V23H334.751V0.28125ZM336.501 19.4219H349.658V23H336.501V19.4219ZM361.829 12.7188C361.829 11.8125 361.559 11.1094 361.017 10.6094C360.486 10.1094 359.731 9.85938 358.751 9.85938C358.126 9.85938 357.512 9.95833 356.908 10.1562C356.303 10.3542 355.762 10.6302 355.283 10.9844L352.798 8.89062C353.434 8.15104 354.267 7.57812 355.298 7.17188C356.329 6.75521 357.475 6.54688 358.736 6.54688C360.111 6.54688 361.288 6.78646 362.267 7.26562C363.246 7.73438 363.991 8.42188 364.501 9.32812C365.022 10.224 365.283 11.3073 365.283 12.5781V23H361.829V12.7188ZM357.579 23.2344C355.715 23.2344 354.319 22.8229 353.392 22C352.465 21.1667 352.001 19.9062 352.001 18.2188C352.001 16.6146 352.47 15.4115 353.408 14.6094C354.345 13.8073 355.751 13.4062 357.626 13.4062H361.97L362.189 16.3125H357.642C356.902 16.3125 356.345 16.4688 355.97 16.7812C355.606 17.0938 355.423 17.5729 355.423 18.2188C355.423 18.8958 355.663 19.401 356.142 19.7344C356.621 20.0573 357.345 20.2188 358.314 20.2188C359.501 20.2188 360.382 20.0885 360.954 19.8281C361.538 19.5677 361.829 19.1615 361.829 18.6094L362.158 20.9219C361.981 21.4323 361.668 21.8594 361.22 22.2031C360.783 22.5469 360.251 22.8073 359.626 22.9844C359.001 23.151 358.319 23.2344 357.579 23.2344ZM369.814 6.78125H373.704V23H369.814V6.78125ZM378.845 10.9531C378.595 10.6823 378.288 10.4792 377.923 10.3438C377.559 10.1979 377.137 10.125 376.658 10.125C375.72 10.125 374.991 10.4062 374.47 10.9688C373.96 11.5208 373.704 12.2917 373.704 13.2812L373.376 9.60938C373.845 8.64062 374.454 7.89062 375.204 7.35938C375.965 6.81771 376.798 6.54688 377.704 6.54688C378.413 6.54688 379.053 6.65625 379.626 6.875C380.199 7.08333 380.699 7.39583 381.126 7.8125L378.845 10.9531ZM392.517 12.7188C392.517 11.8125 392.246 11.1094 391.704 10.6094C391.173 10.1094 390.418 9.85938 389.439 9.85938C388.814 9.85938 388.199 9.95833 387.595 10.1562C386.991 10.3542 386.449 10.6302 385.97 10.9844L383.486 8.89062C384.121 8.15104 384.954 7.57812 385.986 7.17188C387.017 6.75521 388.163 6.54688 389.423 6.54688C390.798 6.54688 391.975 6.78646 392.954 7.26562C393.934 7.73438 394.678 8.42188 395.189 9.32812C395.71 10.224 395.97 11.3073 395.97 12.5781V23H392.517V12.7188ZM388.267 23.2344C386.402 23.2344 385.007 22.8229 384.079 22C383.152 21.1667 382.689 19.9062 382.689 18.2188C382.689 16.6146 383.158 15.4115 384.095 14.6094C385.033 13.8073 386.439 13.4062 388.314 13.4062H392.658L392.876 16.3125H388.329C387.59 16.3125 387.033 16.4688 386.658 16.7812C386.293 17.0938 386.111 17.5729 386.111 18.2188C386.111 18.8958 386.35 19.401 386.829 19.7344C387.309 20.0573 388.033 20.2188 389.001 20.2188C390.189 20.2188 391.069 20.0885 391.642 19.8281C392.225 19.5677 392.517 19.1615 392.517 18.6094L392.845 20.9219C392.668 21.4323 392.356 21.8594 391.908 22.2031C391.47 22.5469 390.939 22.8073 390.314 22.9844C389.689 23.151 389.007 23.2344 388.267 23.2344ZM409.423 6.78125H413.22L407.126 23H404.408L398.314 6.78125H402.111L405.767 17.6562L409.423 6.78125ZM422.517 23.2344C420.986 23.2344 419.678 22.9531 418.595 22.3906C417.512 21.8281 416.684 21.0052 416.111 19.9219C415.538 18.8281 415.251 17.5104 415.251 15.9688V14.1406C415.251 12.5365 415.522 11.1667 416.064 10.0312C416.616 8.89583 417.413 8.03125 418.454 7.4375C419.507 6.84375 420.767 6.54688 422.236 6.54688C423.621 6.54688 424.803 6.89583 425.783 7.59375C426.772 8.28125 427.522 9.28125 428.033 10.5938C428.553 11.9062 428.814 13.4896 428.814 15.3438V16.4062H417.798V13.6719H425.345L425.329 13.5C425.225 12.3646 424.908 11.4844 424.376 10.8594C423.845 10.2344 423.132 9.92188 422.236 9.92188C421.111 9.92188 420.241 10.276 419.626 10.9844C419.012 11.6823 418.704 12.6771 418.704 13.9688V16.0312C418.704 17.2604 419.038 18.2083 419.704 18.875C420.371 19.5312 421.309 19.8594 422.517 19.8594C423.132 19.8594 423.736 19.7448 424.329 19.5156C424.934 19.276 425.475 18.9479 425.954 18.5312L428.392 20.8125C427.569 21.5833 426.642 22.1823 425.611 22.6094C424.59 23.026 423.559 23.2344 422.517 23.2344ZM436.611 18.2344C436.611 18.6302 436.71 18.9375 436.908 19.1562C437.106 19.3646 437.387 19.4688 437.751 19.4688H438.861V23.0469H436.829C435.579 23.0469 434.606 22.6719 433.908 21.9219C433.22 21.1719 432.876 20.1146 432.876 18.75V0.28125H436.611V18.2344Z" fill="#F1F5F9"/>
</svg>
