<svg width="359" height="30" viewBox="0 0 359 30" fill="none" xmlns="http://www.w3.org/2000/svg">
<path d="M6.31384 2.14062H10.0326V23H6.31384V2.14062ZM0.00134277 0.28125H16.3451V3.85938H0.00134277V0.28125ZM23.2982 23.2344C21.767 23.2344 20.4597 22.9531 19.3763 22.3906C18.293 21.8281 17.4649 21.0052 16.892 19.9219C16.3191 18.8281 16.0326 17.5104 16.0326 15.9688V14.1406C16.0326 12.5365 16.3034 11.1667 16.8451 10.0312C17.3972 8.89583 18.1941 8.03125 19.2357 7.4375C20.2878 6.84375 21.5482 6.54688 23.017 6.54688C24.4024 6.54688 25.5847 6.89583 26.5638 7.59375C27.5534 8.28125 28.3034 9.28125 28.8138 10.5938C29.3347 11.9062 29.5951 13.4896 29.5951 15.3438V16.4062H18.5795V13.6719H26.1263L26.1107 13.5C26.0066 12.3646 25.6888 11.4844 25.1576 10.8594C24.6263 10.2344 23.9128 9.92188 23.017 9.92188C21.892 9.92188 21.0222 10.276 20.4076 10.9844C19.793 11.6823 19.4857 12.6771 19.4857 13.9688V16.0312C19.4857 17.2604 19.8191 18.2083 20.4857 18.875C21.1524 19.5312 22.0899 19.8594 23.2982 19.8594C23.9128 19.8594 24.517 19.7448 25.1107 19.5156C25.7149 19.276 26.2566 18.9479 26.7357 18.5312L29.1732 20.8125C28.3503 21.5833 27.4232 22.1823 26.392 22.6094C25.3711 23.026 24.3399 23.2344 23.2982 23.2344ZM39.6263 23.2344C38.6576 23.2344 37.7357 23.1458 36.8607 22.9688C35.9857 22.7812 35.1628 22.5104 34.392 22.1562C33.6316 21.8021 32.9441 21.3698 32.3295 20.8594L34.5951 18.0469C35.418 18.6302 36.2566 19.0729 37.1107 19.375C37.9753 19.6771 38.8138 19.8281 39.6263 19.8281C40.7618 19.8281 41.6211 19.6771 42.2045 19.375C42.7982 19.0625 43.0951 18.6146 43.0951 18.0312C43.0951 17.5833 42.9493 17.25 42.6576 17.0312C42.3659 16.8021 41.9961 16.6458 41.5482 16.5625C41.1107 16.4792 40.4909 16.401 39.6888 16.3281C39.5534 16.3177 39.4128 16.3073 39.267 16.2969C39.1211 16.2865 38.9805 16.2708 38.8451 16.25C38.8034 16.25 38.7618 16.25 38.7201 16.25C38.6784 16.2396 38.6368 16.2344 38.5951 16.2344C37.4597 16.1094 36.5274 15.9375 35.7982 15.7188C35.0691 15.4896 34.4545 15.0573 33.9545 14.4219C33.4649 13.7865 33.2201 12.875 33.2201 11.6875C33.2201 10.5729 33.4649 9.63542 33.9545 8.875C34.4545 8.10417 35.1836 7.52604 36.142 7.14062C37.1003 6.74479 38.2774 6.54688 39.6732 6.54688C40.5066 6.54688 41.3191 6.63021 42.1107 6.79688C42.9024 6.95312 43.6576 7.1875 44.3763 7.5C45.1055 7.80208 45.793 8.18229 46.4388 8.64062L44.2045 11.3594C43.4441 10.901 42.6732 10.5521 41.892 10.3125C41.1211 10.0729 40.3711 9.95312 39.642 9.95312C38.6628 9.95312 37.918 10.0938 37.4076 10.375C36.8972 10.6562 36.642 11.0729 36.642 11.625C36.642 11.9792 36.7826 12.25 37.0638 12.4375C37.3451 12.625 37.6941 12.7552 38.1107 12.8281C38.5378 12.8906 39.1524 12.9583 39.9545 13.0312C40.0378 13.0417 40.1159 13.0521 40.1888 13.0625C40.2722 13.0625 40.3555 13.0677 40.4388 13.0781C40.4701 13.0781 40.5066 13.0781 40.5482 13.0781C40.5899 13.0781 40.6316 13.0833 40.6732 13.0938C41.8711 13.2083 42.8659 13.3802 43.6576 13.6094C44.4493 13.8385 45.1211 14.2969 45.6732 14.9844C46.2253 15.6615 46.5013 16.651 46.5013 17.9531C46.5013 19.099 46.2409 20.0677 45.7201 20.8594C45.1993 21.6406 44.4232 22.2344 43.392 22.6406C42.3711 23.0365 41.1159 23.2344 39.6263 23.2344ZM54.6263 23.0781C53.2618 23.0781 52.2618 22.7188 51.6263 22C50.9909 21.2708 50.6732 20.1979 50.6732 18.7812V2.0625H54.4076V18.2656C54.4076 18.6615 54.4857 18.9688 54.642 19.1875C54.7982 19.3958 55.0274 19.5 55.3295 19.5H56.6263V23.0781H54.6263ZM49.0013 6.78125H56.6263V10.0469H49.0013V6.78125ZM71.7513 19.4219H77.0482C78.5899 19.4219 79.7826 19.0365 80.6263 18.2656C81.4805 17.4948 81.9076 16.401 81.9076 14.9844V8.29688C81.9076 6.88021 81.4805 5.78646 80.6263 5.01562C79.7826 4.24479 78.5899 3.85938 77.0482 3.85938H71.7513V0.28125H76.9545C78.8086 0.28125 80.392 0.598958 81.7045 1.23438C83.0274 1.86979 84.0326 2.79688 84.7201 4.01562C85.4076 5.23438 85.7513 6.70312 85.7513 8.42188V14.8594C85.7513 16.5365 85.4128 17.9844 84.7357 19.2031C84.0586 20.4219 83.0586 21.3594 81.7357 22.0156C80.4232 22.6719 78.8243 23 76.9388 23H71.7513V19.4219ZM69.5951 0.28125H73.3295V23H69.5951V0.28125ZM97.0795 23.2344C95.5482 23.2344 94.2409 22.9531 93.1576 22.3906C92.0743 21.8281 91.2461 21.0052 90.6732 19.9219C90.1003 18.8281 89.8138 17.5104 89.8138 15.9688V14.1406C89.8138 12.5365 90.0847 11.1667 90.6263 10.0312C91.1784 8.89583 91.9753 8.03125 93.017 7.4375C94.0691 6.84375 95.3295 6.54688 96.7982 6.54688C98.1836 6.54688 99.3659 6.89583 100.345 7.59375C101.335 8.28125 102.085 9.28125 102.595 10.5938C103.116 11.9062 103.376 13.4896 103.376 15.3438V16.4062H92.3607V13.6719H99.9076L99.892 13.5C99.7878 12.3646 99.4701 11.4844 98.9388 10.8594C98.4076 10.2344 97.6941 9.92188 96.7982 9.92188C95.6732 9.92188 94.8034 10.276 94.1888 10.9844C93.5743 11.6823 93.267 12.6771 93.267 13.9688V16.0312C93.267 17.2604 93.6003 18.2083 94.267 18.875C94.9336 19.5312 95.8711 19.8594 97.0795 19.8594C97.6941 19.8594 98.2982 19.7448 98.892 19.5156C99.4961 19.276 100.038 18.9479 100.517 18.5312L102.954 20.8125C102.132 21.5833 101.204 22.1823 100.173 22.6094C99.1524 23.026 98.1211 23.2344 97.0795 23.2344ZM116.204 6.78125H120.001L113.908 23H111.189L105.095 6.78125H108.892L112.548 17.6562L116.204 6.78125ZM139.314 23.2344C137.668 23.2344 136.236 22.8958 135.017 22.2188C133.809 21.5312 132.876 20.5521 132.22 19.2812C131.574 18.0104 131.251 16.5052 131.251 14.7656V8.53125C131.251 6.79167 131.574 5.28646 132.22 4.01562C132.876 2.74479 133.809 1.76562 135.017 1.07812C136.236 0.390625 137.668 0.046875 139.314 0.046875C140.678 0.046875 141.913 0.338542 143.017 0.921875C144.132 1.50521 145.053 2.34896 145.783 3.45312C146.522 4.54688 147.027 5.84375 147.298 7.34375H143.454C143.267 6.61458 142.97 5.97917 142.564 5.4375C142.158 4.88542 141.673 4.46354 141.111 4.17188C140.559 3.88021 139.96 3.73438 139.314 3.73438C138.449 3.73438 137.699 3.93229 137.064 4.32812C136.439 4.71354 135.954 5.26562 135.611 5.98438C135.267 6.70312 135.095 7.55208 135.095 8.53125V14.7656C135.095 15.7448 135.267 16.5938 135.611 17.3125C135.954 18.0312 136.439 18.5833 137.064 18.9688C137.699 19.3542 138.449 19.5469 139.314 19.5469C139.97 19.5469 140.574 19.4062 141.126 19.125C141.689 18.8438 142.173 18.4323 142.579 17.8906C142.986 17.349 143.277 16.6979 143.454 15.9375H147.298C147.017 17.4375 146.507 18.7396 145.767 19.8438C145.038 20.9375 144.116 21.776 143.001 22.3594C141.897 22.9427 140.668 23.2344 139.314 23.2344ZM160.267 12.7188C160.267 11.8125 159.996 11.1094 159.454 10.6094C158.923 10.1094 158.168 9.85938 157.189 9.85938C156.564 9.85938 155.949 9.95833 155.345 10.1562C154.741 10.3542 154.199 10.6302 153.72 10.9844L151.236 8.89062C151.871 8.15104 152.704 7.57812 153.736 7.17188C154.767 6.75521 155.913 6.54688 157.173 6.54688C158.548 6.54688 159.725 6.78646 160.704 7.26562C161.684 7.73438 162.428 8.42188 162.939 9.32812C163.46 10.224 163.72 11.3073 163.72 12.5781V23H160.267V12.7188ZM156.017 23.2344C154.152 23.2344 152.757 22.8229 151.829 22C150.902 21.1667 150.439 19.9062 150.439 18.2188C150.439 16.6146 150.908 15.4115 151.845 14.6094C152.783 13.8073 154.189 13.4062 156.064 13.4062H160.408L160.626 16.3125H156.079C155.34 16.3125 154.783 16.4688 154.408 16.7812C154.043 17.0938 153.861 17.5729 153.861 18.2188C153.861 18.8958 154.1 19.401 154.579 19.7344C155.059 20.0573 155.783 20.2188 156.751 20.2188C157.939 20.2188 158.819 20.0885 159.392 19.8281C159.975 19.5677 160.267 19.1615 160.267 18.6094L160.595 20.9219C160.418 21.4323 160.106 21.8594 159.658 22.2031C159.22 22.5469 158.689 22.8073 158.064 22.9844C157.439 23.151 156.757 23.2344 156.017 23.2344ZM168.251 6.78125H172.142V23H168.251V6.78125ZM177.283 10.9531C177.033 10.6823 176.725 10.4792 176.361 10.3438C175.996 10.1979 175.574 10.125 175.095 10.125C174.158 10.125 173.428 10.4062 172.908 10.9688C172.397 11.5208 172.142 12.2917 172.142 13.2812L171.814 9.60938C172.283 8.64062 172.892 7.89062 173.642 7.35938C174.402 6.81771 175.236 6.54688 176.142 6.54688C176.85 6.54688 177.491 6.65625 178.064 6.875C178.637 7.08333 179.137 7.39583 179.564 7.8125L177.283 10.9531ZM190.579 0.28125H194.314V23H190.579V0.28125ZM186.658 23.2656C185.491 23.2656 184.491 23 183.658 22.4688C182.835 21.9271 182.204 21.151 181.767 20.1406C181.34 19.1198 181.126 17.8906 181.126 16.4531V13.3594C181.126 11.9219 181.34 10.6927 181.767 9.67188C182.194 8.64062 182.814 7.85938 183.626 7.32812C184.449 6.78646 185.434 6.51562 186.579 6.51562C187.496 6.51562 188.329 6.77083 189.079 7.28125C189.84 7.79167 190.449 8.51042 190.908 9.4375L190.579 12.8906C190.579 12.2656 190.47 11.7344 190.251 11.2969C190.033 10.8594 189.715 10.526 189.298 10.2969C188.882 10.0677 188.376 9.95312 187.783 9.95312C186.856 9.95312 186.137 10.2552 185.626 10.8594C185.116 11.4635 184.861 12.3073 184.861 13.3906V16.4531C184.861 17.526 185.116 18.3594 185.626 18.9531C186.137 19.5365 186.856 19.8281 187.783 19.8281C188.376 19.8281 188.882 19.7135 189.298 19.4844C189.715 19.2448 190.033 18.9062 190.251 18.4688C190.47 18.0312 190.579 17.5052 190.579 16.8906L190.798 20.4531C190.475 21.2969 189.954 21.9792 189.236 22.5C188.527 23.0104 187.668 23.2656 186.658 23.2656ZM208.392 6.78125H212.111V23H208.392V6.78125ZM202.579 16.6406C202.579 17.599 202.835 18.3438 203.345 18.875C203.856 19.3958 204.574 19.6562 205.501 19.6562C206.428 19.6562 207.142 19.4115 207.642 18.9219C208.142 18.4219 208.392 17.7083 208.392 16.7812L208.611 20.25C208.298 21.0938 207.777 21.8021 207.048 22.375C206.319 22.9479 205.428 23.2344 204.376 23.2344C202.616 23.2344 201.251 22.6667 200.283 21.5312C199.324 20.3958 198.845 18.7917 198.845 16.7188V6.78125H202.579V16.6406ZM235.798 13.4062C235.798 12.3542 235.538 11.5469 235.017 10.9844C234.496 10.4115 233.757 10.125 232.798 10.125C231.892 10.125 231.189 10.401 230.689 10.9531C230.199 11.4948 229.954 12.2708 229.954 13.2812L229.236 9.84375C229.746 8.79167 230.413 7.97917 231.236 7.40625C232.069 6.83333 232.991 6.54688 234.001 6.54688C235.168 6.54688 236.163 6.8125 236.986 7.34375C237.819 7.875 238.449 8.65625 238.876 9.6875C239.314 10.7083 239.533 11.9427 239.533 13.3906V23H235.798V13.4062ZM216.658 6.78125H220.392V23H216.658V6.78125ZM226.236 13.4062C226.236 12.3542 225.975 11.5469 225.454 10.9844C224.944 10.4115 224.215 10.125 223.267 10.125C222.35 10.125 221.642 10.375 221.142 10.875C220.642 11.3646 220.392 12.0625 220.392 12.9688L220.064 9.60938C220.553 8.61979 221.178 7.86458 221.939 7.34375C222.699 6.8125 223.569 6.54688 224.548 6.54688C225.684 6.54688 226.658 6.8125 227.47 7.34375C228.283 7.875 228.897 8.65625 229.314 9.6875C229.741 10.7083 229.954 11.9427 229.954 13.3906V23H226.236V13.4062ZM250.861 23.2344C249.329 23.2344 248.022 22.9531 246.939 22.3906C245.856 21.8281 245.027 21.0052 244.454 19.9219C243.882 18.8281 243.595 17.5104 243.595 15.9688V14.1406C243.595 12.5365 243.866 11.1667 244.408 10.0312C244.96 8.89583 245.757 8.03125 246.798 7.4375C247.85 6.84375 249.111 6.54688 250.579 6.54688C251.965 6.54688 253.147 6.89583 254.126 7.59375C255.116 8.28125 255.866 9.28125 256.376 10.5938C256.897 11.9062 257.158 13.4896 257.158 15.3438V16.4062H246.142V13.6719H253.689L253.673 13.5C253.569 12.3646 253.251 11.4844 252.72 10.8594C252.189 10.2344 251.475 9.92188 250.579 9.92188C249.454 9.92188 248.585 10.276 247.97 10.9844C247.356 11.6823 247.048 12.6771 247.048 13.9688V16.0312C247.048 17.2604 247.382 18.2083 248.048 18.875C248.715 19.5312 249.652 19.8594 250.861 19.8594C251.475 19.8594 252.079 19.7448 252.673 19.5156C253.277 19.276 253.819 18.9479 254.298 18.5312L256.736 20.8125C255.913 21.5833 254.986 22.1823 253.954 22.6094C252.934 23.026 251.902 23.2344 250.861 23.2344ZM272.283 19.4219H277.579C279.121 19.4219 280.314 19.0365 281.158 18.2656C282.012 17.4948 282.439 16.401 282.439 14.9844V8.29688C282.439 6.88021 282.012 5.78646 281.158 5.01562C280.314 4.24479 279.121 3.85938 277.579 3.85938H272.283V0.28125H277.486C279.34 0.28125 280.923 0.598958 282.236 1.23438C283.559 1.86979 284.564 2.79688 285.251 4.01562C285.939 5.23438 286.283 6.70312 286.283 8.42188V14.8594C286.283 16.5365 285.944 17.9844 285.267 19.2031C284.59 20.4219 283.59 21.3594 282.267 22.0156C280.954 22.6719 279.356 23 277.47 23H272.283V19.4219ZM270.126 0.28125H273.861V23H270.126V0.28125ZM290.704 0.28125H294.423V4.01562H290.704V0.28125ZM290.704 6.78125H294.423V23H290.704V6.78125ZM304.439 29.5938C303.189 29.5938 302.069 29.3646 301.079 28.9062C300.09 28.4583 299.319 27.8229 298.767 27L301.283 24.7031C301.668 25.1927 302.132 25.5677 302.673 25.8281C303.225 26.0885 303.798 26.2188 304.392 26.2188C305.454 26.2188 306.293 25.9271 306.908 25.3438C307.522 24.7708 307.829 23.9583 307.829 22.9062V6.78125H311.564V22.5156C311.564 24.0052 311.283 25.2812 310.72 26.3438C310.168 27.4062 309.356 28.2135 308.283 28.7656C307.22 29.3177 305.939 29.5938 304.439 29.5938ZM303.908 23.2656C302.741 23.2656 301.741 23 300.908 22.4688C300.085 21.9271 299.454 21.151 299.017 20.1406C298.59 19.1198 298.376 17.8906 298.376 16.4531V13.3594C298.376 11.9219 298.59 10.6927 299.017 9.67188C299.444 8.64062 300.064 7.85938 300.876 7.32812C301.699 6.78646 302.684 6.51562 303.829 6.51562C304.746 6.51562 305.579 6.77083 306.329 7.28125C307.09 7.79167 307.699 8.51042 308.158 9.4375L307.829 12.8906C307.829 12.2656 307.72 11.7344 307.501 11.2969C307.283 10.8594 306.965 10.526 306.548 10.2969C306.132 10.0677 305.626 9.95312 305.033 9.95312C304.106 9.95312 303.387 10.2552 302.876 10.8594C302.366 11.4635 302.111 12.3073 302.111 13.3906V16.4531C302.111 17.526 302.366 18.3594 302.876 18.9531C303.387 19.5365 304.106 19.8281 305.033 19.8281C305.626 19.8281 306.132 19.7135 306.548 19.4844C306.965 19.2448 307.283 18.9062 307.501 18.4688C307.72 18.0312 307.829 17.5052 307.829 16.8906L308.048 20.4531C307.725 21.2969 307.204 21.9792 306.486 22.5C305.777 23.0104 304.918 23.2656 303.908 23.2656ZM315.986 0.28125H319.704V4.01562H315.986V0.28125ZM315.986 6.78125H319.704V23H315.986V6.78125ZM328.501 23.0781C327.137 23.0781 326.137 22.7188 325.501 22C324.866 21.2708 324.548 20.1979 324.548 18.7812V2.0625H328.283V18.2656C328.283 18.6615 328.361 18.9688 328.517 19.1875C328.673 19.3958 328.902 19.5 329.204 19.5H330.501V23.0781H328.501ZM322.876 6.78125H330.501V10.0469H322.876V6.78125ZM343.611 12.7188C343.611 11.8125 343.34 11.1094 342.798 10.6094C342.267 10.1094 341.512 9.85938 340.533 9.85938C339.908 9.85938 339.293 9.95833 338.689 10.1562C338.085 10.3542 337.543 10.6302 337.064 10.9844L334.579 8.89062C335.215 8.15104 336.048 7.57812 337.079 7.17188C338.111 6.75521 339.257 6.54688 340.517 6.54688C341.892 6.54688 343.069 6.78646 344.048 7.26562C345.027 7.73438 345.772 8.42188 346.283 9.32812C346.803 10.224 347.064 11.3073 347.064 12.5781V23H343.611V12.7188ZM339.361 23.2344C337.496 23.2344 336.1 22.8229 335.173 22C334.246 21.1667 333.783 19.9062 333.783 18.2188C333.783 16.6146 334.251 15.4115 335.189 14.6094C336.126 13.8073 337.533 13.4062 339.408 13.4062H343.751L343.97 16.3125H339.423C338.684 16.3125 338.126 16.4688 337.751 16.7812C337.387 17.0938 337.204 17.5729 337.204 18.2188C337.204 18.8958 337.444 19.401 337.923 19.7344C338.402 20.0573 339.126 20.2188 340.095 20.2188C341.283 20.2188 342.163 20.0885 342.736 19.8281C343.319 19.5677 343.611 19.1615 343.611 18.6094L343.939 20.9219C343.762 21.4323 343.449 21.8594 343.001 22.2031C342.564 22.5469 342.033 22.8073 341.408 22.9844C340.783 23.151 340.1 23.2344 339.361 23.2344ZM355.329 18.2344C355.329 18.6302 355.428 18.9375 355.626 19.1562C355.824 19.3646 356.106 19.4688 356.47 19.4688H357.579V23.0469H355.548C354.298 23.0469 353.324 22.6719 352.626 21.9219C351.939 21.1719 351.595 20.1146 351.595 18.75V0.28125H355.329V18.2344Z" fill="#F1F5F9"/>
</svg>
