<svg width="121" height="19" viewBox="0 0 121 19" fill="none" xmlns="http://www.w3.org/2000/svg">
<path d="M7.099 0.960938H9.13806L15.5365 18H12.5248L8.11853 5.30859L3.71228 18H0.700562L7.099 0.960938ZM3.71228 12.082H12.6771V14.7656H3.71228V12.082ZM20.9271 18.0586C19.9037 18.0586 19.1537 17.7891 18.6771 17.25C18.2006 16.7031 17.9623 15.8984 17.9623 14.8359V2.29688H20.7631V14.4492C20.7631 14.7461 20.8217 14.9766 20.9388 15.1406C21.056 15.2969 21.2279 15.375 21.4545 15.375H22.4271V18.0586H20.9271ZM16.7084 5.83594H22.4271V8.28516H16.7084V5.83594ZM28.2748 14.4258C28.2748 14.7227 28.349 14.9531 28.4974 15.1172C28.6459 15.2734 28.8568 15.3516 29.1302 15.3516H29.9623V18.0352H28.4388C27.5013 18.0352 26.7709 17.7539 26.2474 17.1914C25.7318 16.6289 25.474 15.8359 25.474 14.8125V0.960938H28.2748V14.4258ZM39.1029 10.2891C39.1029 9.60938 38.8998 9.08203 38.4935 8.70703C38.0951 8.33203 37.5287 8.14453 36.7943 8.14453C36.3256 8.14453 35.8646 8.21875 35.4115 8.36719C34.9584 8.51562 34.5521 8.72266 34.1927 8.98828L32.3295 7.41797C32.806 6.86328 33.431 6.43359 34.2045 6.12891C34.9779 5.81641 35.8373 5.66016 36.7826 5.66016C37.8138 5.66016 38.6967 5.83984 39.431 6.19922C40.1654 6.55078 40.724 7.06641 41.1068 7.74609C41.4974 8.41797 41.6927 9.23047 41.6927 10.1836V18H39.1029V10.2891ZM35.9154 18.1758C34.517 18.1758 33.4701 17.8672 32.7748 17.25C32.0795 16.625 31.7318 15.6797 31.7318 14.4141C31.7318 13.2109 32.0834 12.3086 32.7865 11.707C33.4896 11.1055 34.5443 10.8047 35.9506 10.8047H39.2084L39.3724 12.9844H35.9623C35.4076 12.9844 34.9896 13.1016 34.7084 13.3359C34.4349 13.5703 34.2982 13.9297 34.2982 14.4141C34.2982 14.9219 34.4779 15.3008 34.8373 15.5508C35.1967 15.793 35.7396 15.9141 36.4662 15.9141C37.3568 15.9141 38.017 15.8164 38.4467 15.6211C38.8842 15.4258 39.1029 15.1211 39.1029 14.707L39.349 16.4414C39.2162 16.8242 38.9818 17.1445 38.6459 17.4023C38.3177 17.6602 37.9193 17.8555 37.4506 17.9883C36.9818 18.1133 36.4701 18.1758 35.9154 18.1758ZM49.5677 18.1758C48.8412 18.1758 48.1498 18.1094 47.4935 17.9766C46.8373 17.8359 46.2201 17.6328 45.642 17.3672C45.0717 17.1016 44.556 16.7773 44.0951 16.3945L45.7943 14.2852C46.4115 14.7227 47.0404 15.0547 47.681 15.2812C48.3295 15.5078 48.9584 15.6211 49.5677 15.6211C50.4193 15.6211 51.0638 15.5078 51.5013 15.2812C51.9467 15.0469 52.1693 14.7109 52.1693 14.2734C52.1693 13.9375 52.0599 13.6875 51.8412 13.5234C51.6224 13.3516 51.3451 13.2344 51.0092 13.1719C50.681 13.1094 50.2162 13.0508 49.6146 12.9961C49.5131 12.9883 49.4076 12.9805 49.2982 12.9727C49.1888 12.9648 49.0834 12.9531 48.9818 12.9375C48.9506 12.9375 48.9193 12.9375 48.8881 12.9375C48.8568 12.9297 48.8256 12.9258 48.7943 12.9258C47.9427 12.832 47.2435 12.7031 46.6967 12.5391C46.1498 12.3672 45.6888 12.043 45.3138 11.5664C44.9467 11.0898 44.7631 10.4062 44.7631 9.51562C44.7631 8.67969 44.9467 7.97656 45.3138 7.40625C45.6888 6.82812 46.2357 6.39453 46.9545 6.10547C47.6732 5.80859 48.556 5.66016 49.6029 5.66016C50.2279 5.66016 50.8373 5.72266 51.431 5.84766C52.0248 5.96484 52.5912 6.14062 53.1302 6.375C53.6771 6.60156 54.1927 6.88672 54.6771 7.23047L53.0013 9.26953C52.431 8.92578 51.8529 8.66406 51.267 8.48438C50.6888 8.30469 50.1263 8.21484 49.5795 8.21484C48.8451 8.21484 48.2865 8.32031 47.9037 8.53125C47.5209 8.74219 47.3295 9.05469 47.3295 9.46875C47.3295 9.73438 47.4349 9.9375 47.6459 10.0781C47.8568 10.2188 48.1185 10.3164 48.431 10.3711C48.7513 10.418 49.2123 10.4688 49.8138 10.5234C49.8763 10.5312 49.9349 10.5391 49.9896 10.5469C50.0521 10.5469 50.1146 10.5508 50.1771 10.5586C50.2006 10.5586 50.2279 10.5586 50.2592 10.5586C50.2904 10.5586 50.3217 10.5625 50.3529 10.5703C51.2513 10.6562 51.9974 10.7852 52.5912 10.957C53.1849 11.1289 53.6888 11.4727 54.1029 11.9883C54.517 12.4961 54.724 13.2383 54.724 14.2148C54.724 15.0742 54.5287 15.8008 54.1381 16.3945C53.7474 16.9805 53.1654 17.4258 52.392 17.7305C51.6263 18.0273 50.6849 18.1758 49.5677 18.1758ZM69.9115 18.1758C68.6771 18.1758 67.6029 17.9219 66.6888 17.4141C65.7826 16.8984 65.0834 16.1641 64.5912 15.2109C64.1068 14.2578 63.8646 13.1289 63.8646 11.8242V7.14844C63.8646 5.84375 64.1068 4.71484 64.5912 3.76172C65.0834 2.80859 65.7826 2.07422 66.6888 1.55859C67.6029 1.04297 68.6771 0.785156 69.9115 0.785156C70.9349 0.785156 71.8607 1.00391 72.6888 1.44141C73.5248 1.87891 74.2162 2.51172 74.7631 3.33984C75.3177 4.16016 75.6967 5.13281 75.8998 6.25781H73.017C72.8763 5.71094 72.6537 5.23438 72.349 4.82812C72.0443 4.41406 71.681 4.09766 71.2592 3.87891C70.8451 3.66016 70.3959 3.55078 69.9115 3.55078C69.2631 3.55078 68.7006 3.69922 68.224 3.99609C67.7552 4.28516 67.392 4.69922 67.1342 5.23828C66.8763 5.77734 66.7474 6.41406 66.7474 7.14844V11.8242C66.7474 12.5586 66.8763 13.1953 67.1342 13.7344C67.392 14.2734 67.7552 14.6875 68.224 14.9766C68.7006 15.2656 69.2631 15.4102 69.9115 15.4102C70.4037 15.4102 70.8568 15.3047 71.2709 15.0938C71.6927 14.8828 72.056 14.5742 72.3607 14.168C72.6654 13.7617 72.8842 13.2734 73.017 12.7031H75.8998C75.6888 13.8281 75.306 14.8047 74.7513 15.6328C74.2045 16.4531 73.5131 17.082 72.6771 17.5195C71.849 17.957 70.9271 18.1758 69.9115 18.1758ZM83.6224 18.1758C82.5443 18.1758 81.6185 17.9688 80.8451 17.5547C80.0795 17.1406 79.4935 16.5391 79.0873 15.75C78.6888 14.9531 78.4896 13.9961 78.4896 12.8789V10.8984C78.4896 9.79688 78.6888 8.85547 79.0873 8.07422C79.4935 7.28516 80.0795 6.6875 80.8451 6.28125C81.6185 5.86719 82.5443 5.66016 83.6224 5.66016C84.7006 5.66016 85.6224 5.86719 86.3881 6.28125C87.1615 6.6875 87.7474 7.28516 88.1459 8.07422C88.5521 8.85547 88.7552 9.79688 88.7552 10.8984V12.9141C88.7552 14.0234 88.5521 14.9727 88.1459 15.7617C87.7474 16.543 87.1615 17.1406 86.3881 17.5547C85.6224 17.9688 84.7006 18.1758 83.6224 18.1758ZM83.6224 15.4922C84.3646 15.4922 84.9388 15.2695 85.3451 14.8242C85.7513 14.3711 85.9545 13.7344 85.9545 12.9141V10.8984C85.9545 10.0859 85.7513 9.45703 85.3451 9.01172C84.9388 8.56641 84.3646 8.34375 83.6224 8.34375C82.8802 8.34375 82.306 8.56641 81.8998 9.01172C81.4935 9.45703 81.2904 10.0859 81.2904 10.8984V12.9141C81.2904 13.7344 81.4896 14.3711 81.8881 14.8242C82.2943 15.2695 82.8724 15.4922 83.6224 15.4922ZM98.4935 5.83594H101.341L96.7709 18H94.7318L90.1615 5.83594H93.0092L95.7513 13.9922L98.4935 5.83594ZM103.369 0.960938H106.158V3.76172H103.369V0.960938ZM103.369 5.83594H106.158V18H103.369V5.83594ZM116.212 0.960938H119.013V18H116.212V0.960938ZM113.271 18.1992C112.396 18.1992 111.646 18 111.021 17.6016C110.404 17.1953 109.931 16.6133 109.603 15.8555C109.283 15.0898 109.122 14.168 109.122 13.0898V10.7695C109.122 9.69141 109.283 8.76953 109.603 8.00391C109.923 7.23047 110.388 6.64453 110.997 6.24609C111.615 5.83984 112.353 5.63672 113.212 5.63672C113.9 5.63672 114.525 5.82812 115.087 6.21094C115.658 6.59375 116.115 7.13281 116.458 7.82812L116.212 10.418C116.212 9.94922 116.13 9.55078 115.966 9.22266C115.802 8.89453 115.564 8.64453 115.251 8.47266C114.939 8.30078 114.56 8.21484 114.115 8.21484C113.419 8.21484 112.88 8.44141 112.497 8.89453C112.115 9.34766 111.923 9.98047 111.923 10.793V13.0898C111.923 13.8945 112.115 14.5195 112.497 14.9648C112.88 15.4023 113.419 15.6211 114.115 15.6211C114.56 15.6211 114.939 15.5352 115.251 15.3633C115.564 15.1836 115.802 14.9297 115.966 14.6016C116.13 14.2734 116.212 13.8789 116.212 13.418L116.376 16.0898C116.134 16.7227 115.744 17.2344 115.204 17.625C114.673 18.0078 114.029 18.1992 113.271 18.1992Z" fill="#171717"/>
</svg>
