<svg width="161" height="30" viewBox="0 0 161 30" fill="none" xmlns="http://www.w3.org/2000/svg">
<path d="M10.3295 23.2344C8.68363 23.2344 7.25134 22.8958 6.03259 22.2188C4.82426 21.5312 3.89197 20.5521 3.23572 19.2812C2.58988 18.0104 2.26697 16.5052 2.26697 14.7656V8.53125C2.26697 6.79167 2.58988 5.28646 3.23572 4.01562C3.89197 2.74479 4.82426 1.76562 6.03259 1.07812C7.25134 0.390625 8.68363 0.046875 10.3295 0.046875C11.6941 0.046875 12.9284 0.338542 14.0326 0.921875C15.1472 1.50521 16.0691 2.34896 16.7982 3.45312C17.5378 4.54688 18.043 5.84375 18.3138 7.34375H14.4701C14.2826 6.61458 13.9857 5.97917 13.5795 5.4375C13.1732 4.88542 12.6888 4.46354 12.1263 4.17188C11.5743 3.88021 10.9753 3.73438 10.3295 3.73438C9.46488 3.73438 8.71488 3.93229 8.07947 4.32812C7.45447 4.71354 6.97009 5.26562 6.62634 5.98438C6.28259 6.70312 6.11072 7.55208 6.11072 8.53125V14.7656C6.11072 15.7448 6.28259 16.5938 6.62634 17.3125C6.97009 18.0312 7.45447 18.5833 8.07947 18.9688C8.71488 19.3542 9.46488 19.5469 10.3295 19.5469C10.9857 19.5469 11.5899 19.4062 12.142 19.125C12.7045 18.8438 13.1888 18.4323 13.5951 17.8906C14.0013 17.349 14.293 16.6979 14.4701 15.9375H18.3138C18.0326 17.4375 17.5222 18.7396 16.7826 19.8438C16.0534 20.9375 15.1316 21.776 14.017 22.3594C12.9128 22.9427 11.6836 23.2344 10.3295 23.2344ZM25.9701 18.2344C25.9701 18.6302 26.0691 18.9375 26.267 19.1562C26.4649 19.3646 26.7461 19.4688 27.1107 19.4688H28.2201V23.0469H26.1888C24.9388 23.0469 23.9649 22.6719 23.267 21.9219C22.5795 21.1719 22.2357 20.1146 22.2357 18.75V0.28125H25.9701V18.2344ZM37.892 23.2344C36.4545 23.2344 35.2201 22.9583 34.1888 22.4062C33.168 21.8542 32.3868 21.0521 31.8451 20C31.3138 18.9375 31.0482 17.6615 31.0482 16.1719V13.5312C31.0482 12.0625 31.3138 10.8073 31.8451 9.76562C32.3868 8.71354 33.168 7.91667 34.1888 7.375C35.2201 6.82292 36.4545 6.54688 37.892 6.54688C39.3295 6.54688 40.5586 6.82292 41.5795 7.375C42.6107 7.91667 43.392 8.71354 43.9232 9.76562C44.4649 10.8073 44.7357 12.0625 44.7357 13.5312V16.2188C44.7357 17.6979 44.4649 18.9635 43.9232 20.0156C43.392 21.0573 42.6107 21.8542 41.5795 22.4062C40.5586 22.9583 39.3295 23.2344 37.892 23.2344ZM37.892 19.6562C38.8816 19.6562 39.6472 19.3594 40.1888 18.7656C40.7305 18.1615 41.0013 17.3125 41.0013 16.2188V13.5312C41.0013 12.4479 40.7305 11.6094 40.1888 11.0156C39.6472 10.4219 38.8816 10.125 37.892 10.125C36.9024 10.125 36.1368 10.4219 35.5951 11.0156C35.0534 11.6094 34.7826 12.4479 34.7826 13.5312V16.2188C34.7826 17.3125 35.0482 18.1615 35.5795 18.7656C36.1211 19.3594 36.892 19.6562 37.892 19.6562ZM48.9545 6.78125H52.6888V23H48.9545V6.78125ZM58.5638 13.1719C58.5638 12.2031 58.3034 11.4531 57.7826 10.9219C57.2618 10.3906 56.5222 10.125 55.5638 10.125C54.6472 10.125 53.9388 10.375 53.4388 10.875C52.9388 11.3646 52.6888 12.0625 52.6888 12.9688L52.3607 9.60938C52.8503 8.60938 53.4649 7.84896 54.2045 7.32812C54.9545 6.80729 55.8347 6.54688 56.8451 6.54688C58.5743 6.54688 59.9128 7.125 60.8607 8.28125C61.8191 9.42708 62.2982 11.0521 62.2982 13.1562V23H58.5638V13.1719ZM73.6263 23.2344C72.0951 23.2344 70.7878 22.9531 69.7045 22.3906C68.6211 21.8281 67.793 21.0052 67.2201 19.9219C66.6472 18.8281 66.3607 17.5104 66.3607 15.9688V14.1406C66.3607 12.5365 66.6316 11.1667 67.1732 10.0312C67.7253 8.89583 68.5222 8.03125 69.5638 7.4375C70.6159 6.84375 71.8763 6.54688 73.3451 6.54688C74.7305 6.54688 75.9128 6.89583 76.892 7.59375C77.8816 8.28125 78.6316 9.28125 79.142 10.5938C79.6628 11.9062 79.9232 13.4896 79.9232 15.3438V16.4062H68.9076V13.6719H76.4545L76.4388 13.5C76.3347 12.3646 76.017 11.4844 75.4857 10.8594C74.9545 10.2344 74.2409 9.92188 73.3451 9.92188C72.2201 9.92188 71.3503 10.276 70.7357 10.9844C70.1211 11.6823 69.8138 12.6771 69.8138 13.9688V16.0312C69.8138 17.2604 70.1472 18.2083 70.8138 18.875C71.4805 19.5312 72.418 19.8594 73.6263 19.8594C74.2409 19.8594 74.8451 19.7448 75.4388 19.5156C76.043 19.276 76.5847 18.9479 77.0638 18.5312L79.5013 20.8125C78.6784 21.5833 77.7513 22.1823 76.7201 22.6094C75.6993 23.026 74.668 23.2344 73.6263 23.2344ZM92.892 0.28125H96.6263V23H92.892V0.28125ZM94.642 19.4219H107.798V23H94.642V19.4219ZM117.298 23.2344C115.861 23.2344 114.626 22.9583 113.595 22.4062C112.574 21.8542 111.793 21.0521 111.251 20C110.72 18.9375 110.454 17.6615 110.454 16.1719V13.5312C110.454 12.0625 110.72 10.8073 111.251 9.76562C111.793 8.71354 112.574 7.91667 113.595 7.375C114.626 6.82292 115.861 6.54688 117.298 6.54688C118.736 6.54688 119.965 6.82292 120.986 7.375C122.017 7.91667 122.798 8.71354 123.329 9.76562C123.871 10.8073 124.142 12.0625 124.142 13.5312V16.2188C124.142 17.6979 123.871 18.9635 123.329 20.0156C122.798 21.0573 122.017 21.8542 120.986 22.4062C119.965 22.9583 118.736 23.2344 117.298 23.2344ZM117.298 19.6562C118.288 19.6562 119.053 19.3594 119.595 18.7656C120.137 18.1615 120.408 17.3125 120.408 16.2188V13.5312C120.408 12.4479 120.137 11.6094 119.595 11.0156C119.053 10.4219 118.288 10.125 117.298 10.125C116.309 10.125 115.543 10.4219 115.001 11.0156C114.46 11.6094 114.189 12.4479 114.189 13.5312V16.2188C114.189 17.3125 114.454 18.1615 114.986 18.7656C115.527 19.3594 116.298 19.6562 117.298 19.6562ZM132.095 18.2344C132.095 18.6302 132.194 18.9375 132.392 19.1562C132.59 19.3646 132.871 19.4688 133.236 19.4688H134.345V23.0469H132.314C131.064 23.0469 130.09 22.6719 129.392 21.9219C128.704 21.1719 128.361 20.1146 128.361 18.75V0.28125H132.095V18.2344ZM135.454 26.0156H136.845C137.189 26.0156 137.454 25.9062 137.642 25.6875C137.829 25.4792 137.923 25.1771 137.923 24.7812V6.78125H141.658V25.2969C141.658 26.6615 141.309 27.7188 140.611 28.4688C139.923 29.2188 138.954 29.5938 137.704 29.5938H135.454V26.0156ZM137.892 0.28125H141.689V4.01562H137.892V0.28125ZM155.283 12.7188C155.283 11.8125 155.012 11.1094 154.47 10.6094C153.939 10.1094 153.184 9.85938 152.204 9.85938C151.579 9.85938 150.965 9.95833 150.361 10.1562C149.757 10.3542 149.215 10.6302 148.736 10.9844L146.251 8.89062C146.887 8.15104 147.72 7.57812 148.751 7.17188C149.783 6.75521 150.928 6.54688 152.189 6.54688C153.564 6.54688 154.741 6.78646 155.72 7.26562C156.699 7.73438 157.444 8.42188 157.954 9.32812C158.475 10.224 158.736 11.3073 158.736 12.5781V23H155.283V12.7188ZM151.033 23.2344C149.168 23.2344 147.772 22.8229 146.845 22C145.918 21.1667 145.454 19.9062 145.454 18.2188C145.454 16.6146 145.923 15.4115 146.861 14.6094C147.798 13.8073 149.204 13.4062 151.079 13.4062H155.423L155.642 16.3125H151.095C150.356 16.3125 149.798 16.4688 149.423 16.7812C149.059 17.0938 148.876 17.5729 148.876 18.2188C148.876 18.8958 149.116 19.401 149.595 19.7344C150.074 20.0573 150.798 20.2188 151.767 20.2188C152.954 20.2188 153.835 20.0885 154.408 19.8281C154.991 19.5677 155.283 19.1615 155.283 18.6094L155.611 20.9219C155.434 21.4323 155.121 21.8594 154.673 22.2031C154.236 22.5469 153.704 22.8073 153.079 22.9844C152.454 23.151 151.772 23.2344 151.033 23.2344Z" fill="#171717"/>
</svg>
