<svg width="138" height="24" viewBox="0 0 138 24" fill="none" xmlns="http://www.w3.org/2000/svg">
<path d="M7.724 18.1758C6.48962 18.1758 5.41541 17.9219 4.50134 17.4141C3.59509 16.8984 2.89587 16.1641 2.40369 15.2109C1.91931 14.2578 1.67712 13.1289 1.67712 11.8242V7.14844C1.67712 5.84375 1.91931 4.71484 2.40369 3.76172C2.89587 2.80859 3.59509 2.07422 4.50134 1.55859C5.41541 1.04297 6.48962 0.785156 7.724 0.785156C8.74744 0.785156 9.67322 1.00391 10.5013 1.44141C11.3373 1.87891 12.0287 2.51172 12.5756 3.33984C13.1302 4.16016 13.5092 5.13281 13.7123 6.25781H10.8295C10.6888 5.71094 10.4662 5.23438 10.1615 4.82812C9.85681 4.41406 9.49353 4.09766 9.07166 3.87891C8.65759 3.66016 8.20837 3.55078 7.724 3.55078C7.07556 3.55078 6.51306 3.69922 6.0365 3.99609C5.56775 4.28516 5.20447 4.69922 4.94666 5.23828C4.68884 5.77734 4.55994 6.41406 4.55994 7.14844V11.8242C4.55994 12.5586 4.68884 13.1953 4.94666 13.7344C5.20447 14.2734 5.56775 14.6875 6.0365 14.9766C6.51306 15.2656 7.07556 15.4102 7.724 15.4102C8.21619 15.4102 8.66931 15.3047 9.08337 15.0938C9.50525 14.8828 9.86853 14.5742 10.1732 14.168C10.4779 13.7617 10.6967 13.2734 10.8295 12.7031H13.7123C13.5013 13.8281 13.1185 14.8047 12.5638 15.6328C12.017 16.4531 11.3256 17.082 10.4896 17.5195C9.6615 17.957 8.73962 18.1758 7.724 18.1758ZM16.6537 5.83594H19.5717V18H16.6537V5.83594ZM23.4271 8.96484C23.2396 8.76172 23.0092 8.60938 22.7357 8.50781C22.4623 8.39844 22.1459 8.34375 21.7865 8.34375C21.0834 8.34375 20.5365 8.55469 20.1459 8.97656C19.7631 9.39062 19.5717 9.96875 19.5717 10.7109L19.3256 7.95703C19.6771 7.23047 20.1342 6.66797 20.6967 6.26953C21.267 5.86328 21.892 5.66016 22.5717 5.66016C23.1029 5.66016 23.5834 5.74219 24.0131 5.90625C24.4427 6.0625 24.8177 6.29688 25.1381 6.60938L23.4271 8.96484ZM34.056 5.83594H36.8451V18H34.056V5.83594ZM29.6967 13.2305C29.6967 13.9492 29.8881 14.5078 30.2709 14.9062C30.6537 15.2969 31.1927 15.4922 31.8881 15.4922C32.5834 15.4922 33.1185 15.3086 33.4935 14.9414C33.8685 14.5664 34.056 14.0312 34.056 13.3359L34.2201 15.9375C33.9857 16.5703 33.5951 17.1016 33.0482 17.5312C32.5013 17.9609 31.8334 18.1758 31.0443 18.1758C29.724 18.1758 28.7006 17.75 27.974 16.8984C27.2552 16.0469 26.8959 14.8438 26.8959 13.2891V5.83594H29.6967V13.2305ZM46.9935 0.960938H49.7943V18H46.9935V0.960938ZM44.0521 18.1992C43.1771 18.1992 42.4271 18 41.8021 17.6016C41.1849 17.1953 40.7123 16.6133 40.3842 15.8555C40.0638 15.0898 39.9037 14.168 39.9037 13.0898V10.7695C39.9037 9.69141 40.0638 8.76953 40.3842 8.00391C40.7045 7.23047 41.1693 6.64453 41.7787 6.24609C42.3959 5.83984 43.1342 5.63672 43.9935 5.63672C44.681 5.63672 45.306 5.82812 45.8685 6.21094C46.4388 6.59375 46.8959 7.13281 47.2396 7.82812L46.9935 10.418C46.9935 9.94922 46.9115 9.55078 46.7474 9.22266C46.5834 8.89453 46.3451 8.64453 46.0326 8.47266C45.7201 8.30078 45.3412 8.21484 44.8959 8.21484C44.2006 8.21484 43.6615 8.44141 43.2787 8.89453C42.8959 9.34766 42.7045 9.98047 42.7045 10.793V13.0898C42.7045 13.8945 42.8959 14.5195 43.2787 14.9648C43.6615 15.4023 44.2006 15.6211 44.8959 15.6211C45.3412 15.6211 45.7201 15.5352 46.0326 15.3633C46.3451 15.1836 46.5834 14.9297 46.7474 14.6016C46.9115 14.2734 46.9935 13.8789 46.9935 13.418L47.1576 16.0898C46.9154 16.7227 46.5248 17.2344 45.9857 17.625C45.4545 18.0078 44.8099 18.1992 44.0521 18.1992ZM65.1107 18.1758C64.2904 18.1758 63.5013 18.0977 62.7435 17.9414C61.9935 17.7773 61.2865 17.5391 60.6224 17.2266C59.9662 16.9141 59.3646 16.5273 58.8177 16.0664L60.306 13.8281C60.9623 14.3828 61.6967 14.8047 62.5092 15.0938C63.3295 15.375 64.1967 15.5156 65.1107 15.5156C66.2513 15.5156 67.1342 15.3125 67.7592 14.9062C68.392 14.5 68.7084 13.9258 68.7084 13.1836V13.1719C68.7084 12.6484 68.5677 12.2344 68.2865 11.9297C68.0052 11.6172 67.6381 11.3906 67.1849 11.25C66.7318 11.1016 66.1498 10.9648 65.4388 10.8398C65.4154 10.832 65.392 10.8281 65.3685 10.8281C65.3451 10.8281 65.3217 10.8242 65.2982 10.8164L65.0873 10.7812C63.9467 10.5938 63.0092 10.3711 62.2748 10.1133C61.5404 9.85547 60.9154 9.39453 60.3998 8.73047C59.8842 8.06641 59.6263 7.125 59.6263 5.90625V5.89453C59.6263 4.81641 59.8685 3.89453 60.3529 3.12891C60.8373 2.36328 61.5404 1.78125 62.4623 1.38281C63.3842 0.984375 64.4935 0.785156 65.7904 0.785156C66.3998 0.785156 67.0092 0.855469 67.6185 0.996094C68.2357 1.12891 68.8373 1.32812 69.4232 1.59375C70.017 1.85156 70.5912 2.17578 71.1459 2.56641L69.7865 4.875C69.1302 4.40625 68.4623 4.05078 67.7826 3.80859C67.1029 3.56641 66.4388 3.44531 65.7904 3.44531C64.7123 3.44531 63.8763 3.64453 63.2826 4.04297C62.6967 4.43359 62.4037 4.98828 62.4037 5.70703V5.71875C62.4037 6.25781 62.556 6.68359 62.8607 6.99609C63.1654 7.30859 63.5443 7.53906 63.9974 7.6875C64.4584 7.82812 65.099 7.98047 65.9193 8.14453C65.9506 8.15234 65.9779 8.16016 66.0013 8.16797C66.0326 8.16797 66.0638 8.17188 66.0951 8.17969C66.1342 8.1875 66.1771 8.19531 66.224 8.20312C66.2709 8.21094 66.3138 8.21875 66.3529 8.22656C67.4076 8.4375 68.2865 8.69141 68.9896 8.98828C69.7006 9.28516 70.2943 9.76172 70.7709 10.418C71.2474 11.0742 71.4857 11.9688 71.4857 13.1016V13.125C71.4857 14.1875 71.2357 15.0977 70.7357 15.8555C70.2357 16.6133 69.5092 17.1914 68.556 17.5898C67.6029 17.9805 66.4545 18.1758 65.1107 18.1758ZM84.142 5.83594L78.8451 20.8477C78.6498 21.4023 78.3998 21.8398 78.0951 22.1602C77.7982 22.4883 77.4271 22.7227 76.9818 22.8633C76.5365 23.0039 75.9896 23.0742 75.3412 23.0742H74.7435V20.3672H75.3412C75.7396 20.3672 76.0599 20.2852 76.3021 20.1211C76.5521 19.957 76.7552 19.6797 76.9115 19.2891L81.4115 5.83594H84.142ZM73.1381 5.83594H75.8685L79.7826 16.4062L78.1068 18.9961L73.1381 5.83594ZM90.5052 18.1758C89.7787 18.1758 89.0873 18.1094 88.431 17.9766C87.7748 17.8359 87.1576 17.6328 86.5795 17.3672C86.0092 17.1016 85.4935 16.7773 85.0326 16.3945L86.7318 14.2852C87.349 14.7227 87.9779 15.0547 88.6185 15.2812C89.267 15.5078 89.8959 15.6211 90.5052 15.6211C91.3568 15.6211 92.0013 15.5078 92.4388 15.2812C92.8842 15.0469 93.1068 14.7109 93.1068 14.2734C93.1068 13.9375 92.9974 13.6875 92.7787 13.5234C92.5599 13.3516 92.2826 13.2344 91.9467 13.1719C91.6185 13.1094 91.1537 13.0508 90.5521 12.9961C90.4506 12.9883 90.3451 12.9805 90.2357 12.9727C90.1263 12.9648 90.0209 12.9531 89.9193 12.9375C89.8881 12.9375 89.8568 12.9375 89.8256 12.9375C89.7943 12.9297 89.7631 12.9258 89.7318 12.9258C88.8802 12.832 88.181 12.7031 87.6342 12.5391C87.0873 12.3672 86.6263 12.043 86.2513 11.5664C85.8842 11.0898 85.7006 10.4062 85.7006 9.51562C85.7006 8.67969 85.8842 7.97656 86.2513 7.40625C86.6263 6.82812 87.1732 6.39453 87.892 6.10547C88.6107 5.80859 89.4935 5.66016 90.5404 5.66016C91.1654 5.66016 91.7748 5.72266 92.3685 5.84766C92.9623 5.96484 93.5287 6.14062 94.0677 6.375C94.6146 6.60156 95.1302 6.88672 95.6146 7.23047L93.9388 9.26953C93.3685 8.92578 92.7904 8.66406 92.2045 8.48438C91.6263 8.30469 91.0638 8.21484 90.517 8.21484C89.7826 8.21484 89.224 8.32031 88.8412 8.53125C88.4584 8.74219 88.267 9.05469 88.267 9.46875C88.267 9.73438 88.3724 9.9375 88.5834 10.0781C88.7943 10.2188 89.056 10.3164 89.3685 10.3711C89.6888 10.418 90.1498 10.4688 90.7513 10.5234C90.8138 10.5312 90.8724 10.5391 90.9271 10.5469C90.9896 10.5469 91.0521 10.5508 91.1146 10.5586C91.1381 10.5586 91.1654 10.5586 91.1967 10.5586C91.2279 10.5586 91.2592 10.5625 91.2904 10.5703C92.1888 10.6562 92.9349 10.7852 93.5287 10.957C94.1224 11.1289 94.6263 11.4727 95.0404 11.9883C95.4545 12.4961 95.6615 13.2383 95.6615 14.2148C95.6615 15.0742 95.4662 15.8008 95.0756 16.3945C94.6849 16.9805 94.1029 17.4258 93.3295 17.7305C92.5638 18.0273 91.6224 18.1758 90.5052 18.1758ZM101.755 18.0586C100.732 18.0586 99.9818 17.7891 99.5052 17.25C99.0287 16.7031 98.7904 15.8984 98.7904 14.8359V2.29688H101.591V14.4492C101.591 14.7461 101.65 14.9766 101.767 15.1406C101.884 15.2969 102.056 15.375 102.283 15.375H103.255V18.0586H101.755ZM97.5365 5.83594H103.255V8.28516H97.5365V5.83594ZM111.4 18.1758C110.251 18.1758 109.271 17.9648 108.458 17.543C107.646 17.1211 107.025 16.5039 106.595 15.6914C106.165 14.8711 105.951 13.8828 105.951 12.7266V11.3555C105.951 10.1523 106.154 9.125 106.56 8.27344C106.974 7.42188 107.572 6.77344 108.353 6.32812C109.142 5.88281 110.087 5.66016 111.189 5.66016C112.228 5.66016 113.115 5.92187 113.849 6.44531C114.591 6.96094 115.154 7.71094 115.536 8.69531C115.927 9.67969 116.122 10.8672 116.122 12.2578V13.0547H107.861V11.0039H113.521L113.509 10.875C113.431 10.0234 113.193 9.36328 112.794 8.89453C112.396 8.42578 111.861 8.19141 111.189 8.19141C110.345 8.19141 109.693 8.45703 109.232 8.98828C108.771 9.51172 108.54 10.2578 108.54 11.2266V12.7734C108.54 13.6953 108.79 14.4062 109.29 14.9062C109.79 15.3984 110.494 15.6445 111.4 15.6445C111.861 15.6445 112.314 15.5586 112.759 15.3867C113.212 15.207 113.619 14.9609 113.978 14.6484L115.806 16.3594C115.189 16.9375 114.494 17.3867 113.72 17.707C112.954 18.0195 112.181 18.1758 111.4 18.1758ZM133.525 10.8047C133.525 10.0156 133.329 9.41016 132.939 8.98828C132.548 8.55859 131.994 8.34375 131.275 8.34375C130.595 8.34375 130.068 8.55078 129.693 8.96484C129.326 9.37109 129.142 9.95312 129.142 10.7109L128.603 8.13281C128.986 7.34375 129.486 6.73438 130.103 6.30469C130.728 5.875 131.419 5.66016 132.177 5.66016C133.052 5.66016 133.798 5.85938 134.415 6.25781C135.04 6.65625 135.513 7.24219 135.833 8.01562C136.161 8.78125 136.326 9.70703 136.326 10.793V18H133.525V10.8047ZM119.169 5.83594H121.97V18H119.169V5.83594ZM126.353 10.8047C126.353 10.0156 126.158 9.41016 125.767 8.98828C125.384 8.55859 124.837 8.34375 124.126 8.34375C123.439 8.34375 122.908 8.53125 122.533 8.90625C122.158 9.27344 121.97 9.79688 121.97 10.4766L121.724 7.95703C122.091 7.21484 122.56 6.64844 123.13 6.25781C123.701 5.85938 124.353 5.66016 125.087 5.66016C125.939 5.66016 126.669 5.85938 127.279 6.25781C127.888 6.65625 128.349 7.24219 128.661 8.01562C128.982 8.78125 129.142 9.70703 129.142 10.793V18H126.353V10.8047Z" fill="#171717"/>
</svg>
