<svg width="184" height="30" viewBox="0 0 184 30" fill="none" xmlns="http://www.w3.org/2000/svg">
<path d="M10.2982 23.2344C8.65238 23.2344 7.22009 22.8958 6.00134 22.2188C4.79301 21.5312 3.86072 20.5521 3.20447 19.2812C2.55863 18.0104 2.23572 16.5052 2.23572 14.7656V8.53125C2.23572 6.79167 2.55863 5.28646 3.20447 4.01562C3.86072 2.74479 4.79301 1.76562 6.00134 1.07812C7.22009 0.390625 8.65238 0.046875 10.2982 0.046875C11.6628 0.046875 12.8972 0.338542 14.0013 0.921875C15.1159 1.50521 16.0378 2.34896 16.767 3.45312C17.5066 4.54688 18.0118 5.84375 18.2826 7.34375H14.4388C14.2513 6.61458 13.9545 5.97917 13.5482 5.4375C13.142 4.88542 12.6576 4.46354 12.0951 4.17188C11.543 3.88021 10.9441 3.73438 10.2982 3.73438C9.43363 3.73438 8.68363 3.93229 8.04822 4.32812C7.42322 4.71354 6.93884 5.26562 6.59509 5.98438C6.25134 6.70312 6.07947 7.55208 6.07947 8.53125V14.7656C6.07947 15.7448 6.25134 16.5938 6.59509 17.3125C6.93884 18.0312 7.42322 18.5833 8.04822 18.9688C8.68363 19.3542 9.43363 19.5469 10.2982 19.5469C10.9545 19.5469 11.5586 19.4062 12.1107 19.125C12.6732 18.8438 13.1576 18.4323 13.5638 17.8906C13.9701 17.349 14.2618 16.6979 14.4388 15.9375H18.2826C18.0013 17.4375 17.4909 18.7396 16.7513 19.8438C16.0222 20.9375 15.1003 21.776 13.9857 22.3594C12.8816 22.9427 11.6524 23.2344 10.2982 23.2344ZM22.2045 6.78125H26.0951V23H22.2045V6.78125ZM31.2357 10.9531C30.9857 10.6823 30.6784 10.4792 30.3138 10.3438C29.9493 10.1979 29.5274 10.125 29.0482 10.125C28.1107 10.125 27.3816 10.4062 26.8607 10.9688C26.3503 11.5208 26.0951 12.2917 26.0951 13.2812L25.767 9.60938C26.2357 8.64062 26.8451 7.89062 27.5951 7.35938C28.3555 6.81771 29.1888 6.54688 30.0951 6.54688C30.8034 6.54688 31.4441 6.65625 32.017 6.875C32.5899 7.08333 33.0899 7.39583 33.517 7.8125L31.2357 10.9531ZM45.4076 6.78125H49.1263V23H45.4076V6.78125ZM39.5951 16.6406C39.5951 17.599 39.8503 18.3438 40.3607 18.875C40.8711 19.3958 41.5899 19.6562 42.517 19.6562C43.4441 19.6562 44.1576 19.4115 44.6576 18.9219C45.1576 18.4219 45.4076 17.7083 45.4076 16.7812L45.6263 20.25C45.3138 21.0938 44.793 21.8021 44.0638 22.375C43.3347 22.9479 42.4441 23.2344 41.392 23.2344C39.6316 23.2344 38.267 22.6667 37.2982 21.5312C36.3399 20.3958 35.8607 18.7917 35.8607 16.7188V6.78125H39.5951V16.6406ZM62.6576 0.28125H66.392V23H62.6576V0.28125ZM58.7357 23.2656C57.5691 23.2656 56.5691 23 55.7357 22.4688C54.9128 21.9271 54.2826 21.151 53.8451 20.1406C53.418 19.1198 53.2045 17.8906 53.2045 16.4531V13.3594C53.2045 11.9219 53.418 10.6927 53.8451 9.67188C54.2722 8.64062 54.892 7.85938 55.7045 7.32812C56.5274 6.78646 57.5118 6.51562 58.6576 6.51562C59.5743 6.51562 60.4076 6.77083 61.1576 7.28125C61.918 7.79167 62.5274 8.51042 62.9857 9.4375L62.6576 12.8906C62.6576 12.2656 62.5482 11.7344 62.3295 11.2969C62.1107 10.8594 61.793 10.526 61.3763 10.2969C60.9597 10.0677 60.4545 9.95312 59.8607 9.95312C58.9336 9.95312 58.2149 10.2552 57.7045 10.8594C57.1941 11.4635 56.9388 12.3073 56.9388 13.3906V16.4531C56.9388 17.526 57.1941 18.3594 57.7045 18.9531C58.2149 19.5365 58.9336 19.8281 59.8607 19.8281C60.4545 19.8281 60.9597 19.7135 61.3763 19.4844C61.793 19.2448 62.1107 18.9062 62.3295 18.4688C62.5482 18.0312 62.6576 17.5052 62.6576 16.8906L62.8763 20.4531C62.5534 21.2969 62.0326 21.9792 61.3138 22.5C60.6055 23.0104 59.7461 23.2656 58.7357 23.2656ZM86.8138 23.2344C85.7201 23.2344 84.668 23.1302 83.6576 22.9219C82.6576 22.7031 81.7149 22.3854 80.8295 21.9688C79.9545 21.5521 79.1524 21.0365 78.4232 20.4219L80.4076 17.4375C81.2826 18.1771 82.2618 18.7396 83.3451 19.125C84.4388 19.5 85.5951 19.6875 86.8138 19.6875C88.3347 19.6875 89.5118 19.4167 90.3451 18.875C91.1888 18.3333 91.6107 17.5677 91.6107 16.5781V16.5625C91.6107 15.8646 91.4232 15.3125 91.0482 14.9062C90.6732 14.4896 90.1836 14.1875 89.5795 14C88.9753 13.8021 88.1993 13.6198 87.2513 13.4531C87.2201 13.4427 87.1888 13.4375 87.1576 13.4375C87.1263 13.4375 87.0951 13.4323 87.0638 13.4219L86.7826 13.375C85.2618 13.125 84.0118 12.8281 83.0326 12.4844C82.0534 12.1406 81.2201 11.526 80.5326 10.6406C79.8451 9.75521 79.5013 8.5 79.5013 6.875V6.85938C79.5013 5.42188 79.8243 4.19271 80.4701 3.17188C81.1159 2.15104 82.0534 1.375 83.2826 0.84375C84.5118 0.3125 85.9909 0.046875 87.7201 0.046875C88.5326 0.046875 89.3451 0.140625 90.1576 0.328125C90.9805 0.505208 91.7826 0.770833 92.5638 1.125C93.3555 1.46875 94.1211 1.90104 94.8607 2.42188L93.0482 5.5C92.1732 4.875 91.2826 4.40104 90.3763 4.07812C89.4701 3.75521 88.5847 3.59375 87.7201 3.59375C86.2826 3.59375 85.168 3.85938 84.3763 4.39062C83.5951 4.91146 83.2045 5.65104 83.2045 6.60938V6.625C83.2045 7.34375 83.4076 7.91146 83.8138 8.32812C84.2201 8.74479 84.7253 9.05208 85.3295 9.25C85.9441 9.4375 86.7982 9.64062 87.892 9.85938C87.9336 9.86979 87.9701 9.88021 88.0013 9.89062C88.043 9.89062 88.0847 9.89583 88.1263 9.90625C88.1784 9.91667 88.2357 9.92708 88.2982 9.9375C88.3607 9.94792 88.418 9.95833 88.4701 9.96875C89.8763 10.25 91.0482 10.5885 91.9857 10.9844C92.9336 11.3802 93.7253 12.0156 94.3607 12.8906C94.9961 13.7656 95.3138 14.9583 95.3138 16.4688V16.5C95.3138 17.9167 94.9805 19.1302 94.3138 20.1406C93.6472 21.151 92.6784 21.9219 91.4076 22.4531C90.1368 22.974 88.6055 23.2344 86.8138 23.2344ZM112.189 6.78125L105.126 26.7969C104.866 27.5365 104.533 28.1198 104.126 28.5469C103.731 28.9844 103.236 29.2969 102.642 29.4844C102.048 29.6719 101.319 29.7656 100.454 29.7656H99.6576V26.1562H100.454C100.986 26.1562 101.413 26.0469 101.736 25.8281C102.069 25.6094 102.34 25.2396 102.548 24.7188L108.548 6.78125H112.189ZM97.517 6.78125H101.158L106.376 20.875L104.142 24.3281L97.517 6.78125ZM120.673 23.2344C119.704 23.2344 118.783 23.1458 117.908 22.9688C117.033 22.7812 116.21 22.5104 115.439 22.1562C114.678 21.8021 113.991 21.3698 113.376 20.8594L115.642 18.0469C116.465 18.6302 117.303 19.0729 118.158 19.375C119.022 19.6771 119.861 19.8281 120.673 19.8281C121.809 19.8281 122.668 19.6771 123.251 19.375C123.845 19.0625 124.142 18.6146 124.142 18.0312C124.142 17.5833 123.996 17.25 123.704 17.0312C123.413 16.8021 123.043 16.6458 122.595 16.5625C122.158 16.4792 121.538 16.401 120.736 16.3281C120.6 16.3177 120.46 16.3073 120.314 16.2969C120.168 16.2865 120.027 16.2708 119.892 16.25C119.85 16.25 119.809 16.25 119.767 16.25C119.725 16.2396 119.684 16.2344 119.642 16.2344C118.507 16.1094 117.574 15.9375 116.845 15.7188C116.116 15.4896 115.501 15.0573 115.001 14.4219C114.512 13.7865 114.267 12.875 114.267 11.6875C114.267 10.5729 114.512 9.63542 115.001 8.875C115.501 8.10417 116.231 7.52604 117.189 7.14062C118.147 6.74479 119.324 6.54688 120.72 6.54688C121.553 6.54688 122.366 6.63021 123.158 6.79688C123.949 6.95312 124.704 7.1875 125.423 7.5C126.152 7.80208 126.84 8.18229 127.486 8.64062L125.251 11.3594C124.491 10.901 123.72 10.5521 122.939 10.3125C122.168 10.0729 121.418 9.95312 120.689 9.95312C119.71 9.95312 118.965 10.0938 118.454 10.375C117.944 10.6562 117.689 11.0729 117.689 11.625C117.689 11.9792 117.829 12.25 118.111 12.4375C118.392 12.625 118.741 12.7552 119.158 12.8281C119.585 12.8906 120.199 12.9583 121.001 13.0312C121.085 13.0417 121.163 13.0521 121.236 13.0625C121.319 13.0625 121.402 13.0677 121.486 13.0781C121.517 13.0781 121.553 13.0781 121.595 13.0781C121.637 13.0781 121.678 13.0833 121.72 13.0938C122.918 13.2083 123.913 13.3802 124.704 13.6094C125.496 13.8385 126.168 14.2969 126.72 14.9844C127.272 15.6615 127.548 16.651 127.548 17.9531C127.548 19.099 127.288 20.0677 126.767 20.8594C126.246 21.6406 125.47 22.2344 124.439 22.6406C123.418 23.0365 122.163 23.2344 120.673 23.2344ZM135.673 23.0781C134.309 23.0781 133.309 22.7188 132.673 22C132.038 21.2708 131.72 20.1979 131.72 18.7812V2.0625H135.454V18.2656C135.454 18.6615 135.533 18.9688 135.689 19.1875C135.845 19.3958 136.074 19.5 136.376 19.5H137.673V23.0781H135.673ZM130.048 6.78125H137.673V10.0469H130.048V6.78125ZM148.533 23.2344C147.001 23.2344 145.694 22.9531 144.611 22.3906C143.527 21.8281 142.699 21.0052 142.126 19.9219C141.553 18.8281 141.267 17.5104 141.267 15.9688V14.1406C141.267 12.5365 141.538 11.1667 142.079 10.0312C142.632 8.89583 143.428 8.03125 144.47 7.4375C145.522 6.84375 146.783 6.54688 148.251 6.54688C149.637 6.54688 150.819 6.89583 151.798 7.59375C152.788 8.28125 153.538 9.28125 154.048 10.5938C154.569 11.9062 154.829 13.4896 154.829 15.3438V16.4062H143.814V13.6719H151.361L151.345 13.5C151.241 12.3646 150.923 11.4844 150.392 10.8594C149.861 10.2344 149.147 9.92188 148.251 9.92188C147.126 9.92188 146.257 10.276 145.642 10.9844C145.027 11.6823 144.72 12.6771 144.72 13.9688V16.0312C144.72 17.2604 145.053 18.2083 145.72 18.875C146.387 19.5312 147.324 19.8594 148.533 19.8594C149.147 19.8594 149.751 19.7448 150.345 19.5156C150.949 19.276 151.491 18.9479 151.97 18.5312L154.408 20.8125C153.585 21.5833 152.658 22.1823 151.626 22.6094C150.606 23.026 149.574 23.2344 148.533 23.2344ZM178.033 13.4062C178.033 12.3542 177.772 11.5469 177.251 10.9844C176.731 10.4115 175.991 10.125 175.033 10.125C174.126 10.125 173.423 10.401 172.923 10.9531C172.434 11.4948 172.189 12.2708 172.189 13.2812L171.47 9.84375C171.981 8.79167 172.647 7.97917 173.47 7.40625C174.303 6.83333 175.225 6.54688 176.236 6.54688C177.402 6.54688 178.397 6.8125 179.22 7.34375C180.053 7.875 180.684 8.65625 181.111 9.6875C181.548 10.7083 181.767 11.9427 181.767 13.3906V23H178.033V13.4062ZM158.892 6.78125H162.626V23H158.892V6.78125ZM168.47 13.4062C168.47 12.3542 168.21 11.5469 167.689 10.9844C167.178 10.4115 166.449 10.125 165.501 10.125C164.585 10.125 163.876 10.375 163.376 10.875C162.876 11.3646 162.626 12.0625 162.626 12.9688L162.298 9.60938C162.788 8.61979 163.413 7.86458 164.173 7.34375C164.934 6.8125 165.803 6.54688 166.783 6.54688C167.918 6.54688 168.892 6.8125 169.704 7.34375C170.517 7.875 171.132 8.65625 171.548 9.6875C171.975 10.7083 172.189 11.9427 172.189 13.3906V23H168.47V13.4062Z" fill="#171717"/>
</svg>
