<svg width="128" height="20" viewBox="0 0 128 20" fill="none" xmlns="http://www.w3.org/2000/svg">
<path d="M3.75916 15.8164H7.73181C8.88806 15.8164 9.78259 15.5273 10.4154 14.9492C11.056 14.3711 11.3763 13.5508 11.3763 12.4883V7.47266C11.3763 6.41016 11.056 5.58984 10.4154 5.01172C9.78259 4.43359 8.88806 4.14453 7.73181 4.14453H3.75916V1.46094H7.6615C9.05212 1.46094 10.2396 1.69922 11.224 2.17578C12.2162 2.65234 12.9701 3.34766 13.4857 4.26172C14.0013 5.17578 14.2592 6.27734 14.2592 7.56641V12.3945C14.2592 13.6523 14.0052 14.7383 13.4974 15.6523C12.9896 16.5664 12.2396 17.2695 11.2474 17.7617C10.2631 18.2539 9.06384 18.5 7.64978 18.5H3.75916V15.8164ZM2.14197 1.46094H4.94275V18.5H2.14197V1.46094ZM24.4427 10.7891C24.4427 10.1094 24.2396 9.58203 23.8334 9.20703C23.4349 8.83203 22.8685 8.64453 22.1342 8.64453C21.6654 8.64453 21.2045 8.71875 20.7513 8.86719C20.2982 9.01562 19.892 9.22266 19.5326 9.48828L17.6693 7.91797C18.1459 7.36328 18.7709 6.93359 19.5443 6.62891C20.3177 6.31641 21.1771 6.16016 22.1224 6.16016C23.1537 6.16016 24.0365 6.33984 24.7709 6.69922C25.5052 7.05078 26.0638 7.56641 26.4467 8.24609C26.8373 8.91797 27.0326 9.73047 27.0326 10.6836V18.5H24.4427V10.7891ZM21.2552 18.6758C19.8568 18.6758 18.8099 18.3672 18.1146 17.75C17.4193 17.125 17.0717 16.1797 17.0717 14.9141C17.0717 13.7109 17.4232 12.8086 18.1263 12.207C18.8295 11.6055 19.8842 11.3047 21.2904 11.3047H24.5482L24.7123 13.4844H21.3021C20.7474 13.4844 20.3295 13.6016 20.0482 13.8359C19.7748 14.0703 19.6381 14.4297 19.6381 14.9141C19.6381 15.4219 19.8177 15.8008 20.1771 16.0508C20.5365 16.293 21.0795 16.4141 21.806 16.4141C22.6967 16.4141 23.3568 16.3164 23.7865 16.1211C24.224 15.9258 24.4427 15.6211 24.4427 15.207L24.6888 16.9414C24.556 17.3242 24.3217 17.6445 23.9857 17.9023C23.6576 18.1602 23.2592 18.3555 22.7904 18.4883C22.3217 18.6133 21.8099 18.6758 21.2552 18.6758ZM33.7123 18.5586C32.6888 18.5586 31.9388 18.2891 31.4623 17.75C30.9857 17.2031 30.7474 16.3984 30.7474 15.3359V2.79688H33.5482V14.9492C33.5482 15.2461 33.6068 15.4766 33.724 15.6406C33.8412 15.7969 34.0131 15.875 34.2396 15.875H35.2123V18.5586H33.7123ZM29.4935 6.33594H35.2123V8.78516H29.4935V6.33594ZM45.0443 10.7891C45.0443 10.1094 44.8412 9.58203 44.4349 9.20703C44.0365 8.83203 43.4701 8.64453 42.7357 8.64453C42.267 8.64453 41.806 8.71875 41.3529 8.86719C40.8998 9.01562 40.4935 9.22266 40.1342 9.48828L38.2709 7.91797C38.7474 7.36328 39.3724 6.93359 40.1459 6.62891C40.9193 6.31641 41.7787 6.16016 42.724 6.16016C43.7552 6.16016 44.6381 6.33984 45.3724 6.69922C46.1068 7.05078 46.6654 7.56641 47.0482 8.24609C47.4388 8.91797 47.6342 9.73047 47.6342 10.6836V18.5H45.0443V10.7891ZM41.8568 18.6758C40.4584 18.6758 39.4115 18.3672 38.7162 17.75C38.0209 17.125 37.6732 16.1797 37.6732 14.9141C37.6732 13.7109 38.0248 12.8086 38.7279 12.207C39.431 11.6055 40.4857 11.3047 41.892 11.3047H45.1498L45.3138 13.4844H41.9037C41.349 13.4844 40.931 13.6016 40.6498 13.8359C40.3763 14.0703 40.2396 14.4297 40.2396 14.9141C40.2396 15.4219 40.4193 15.8008 40.7787 16.0508C41.1381 16.293 41.681 16.4141 42.4076 16.4141C43.2982 16.4141 43.9584 16.3164 44.3881 16.1211C44.8256 15.9258 45.0443 15.6211 45.0443 15.207L45.2904 16.9414C45.1576 17.3242 44.9232 17.6445 44.5873 17.9023C44.2592 18.1602 43.8607 18.3555 43.392 18.4883C42.9232 18.6133 42.4115 18.6758 41.8568 18.6758ZM52.6732 15.8516H57.7006C58.6771 15.8516 59.4037 15.6484 59.8802 15.2422C60.3568 14.8281 60.5951 14.2539 60.5951 13.5195V13.4844C60.5951 12.9766 60.5013 12.543 60.3138 12.1836C60.1263 11.8242 59.8373 11.5508 59.4467 11.3633C59.056 11.168 58.5717 11.0703 57.9935 11.0703H52.6732V8.44531H57.9935C58.767 8.44531 59.3568 8.25781 59.7631 7.88281C60.1693 7.50781 60.3724 6.96484 60.3724 6.25391C60.3724 5.55078 60.1576 5.01953 59.7279 4.66016C59.2982 4.29297 58.6654 4.10938 57.8295 4.10938H52.6732V1.46094H58.099C59.2006 1.46094 60.1302 1.64844 60.8881 2.02344C61.6537 2.39062 62.2279 2.91797 62.6107 3.60547C63.0013 4.29297 63.1967 5.11719 63.1967 6.07812C63.1967 6.70312 63.0717 7.27344 62.8217 7.78906C62.5795 8.29688 62.2162 8.72266 61.7318 9.06641C61.2552 9.41016 60.6693 9.64453 59.974 9.76953C60.6927 9.87109 61.3099 10.1094 61.8256 10.4844C62.3412 10.8516 62.7357 11.3242 63.0092 11.9023C63.2826 12.4727 63.4193 13.1133 63.4193 13.8242V13.8594C63.4193 14.8047 63.2123 15.6289 62.7982 16.332C62.392 17.0273 61.8021 17.5625 61.0287 17.9375C60.2631 18.3125 59.3529 18.5 58.2982 18.5H52.6732V15.8516ZM51.267 1.46094H54.056V18.5H51.267V1.46094ZM73.3099 10.7891C73.3099 10.1094 73.1068 9.58203 72.7006 9.20703C72.3021 8.83203 71.7357 8.64453 71.0013 8.64453C70.5326 8.64453 70.0717 8.71875 69.6185 8.86719C69.1654 9.01562 68.7592 9.22266 68.3998 9.48828L66.5365 7.91797C67.0131 7.36328 67.6381 6.93359 68.4115 6.62891C69.1849 6.31641 70.0443 6.16016 70.9896 6.16016C72.0209 6.16016 72.9037 6.33984 73.6381 6.69922C74.3724 7.05078 74.931 7.56641 75.3138 8.24609C75.7045 8.91797 75.8998 9.73047 75.8998 10.6836V18.5H73.3099V10.7891ZM70.1224 18.6758C68.724 18.6758 67.6771 18.3672 66.9818 17.75C66.2865 17.125 65.9388 16.1797 65.9388 14.9141C65.9388 13.7109 66.2904 12.8086 66.9935 12.207C67.6967 11.6055 68.7513 11.3047 70.1576 11.3047H73.4154L73.5795 13.4844H70.1693C69.6146 13.4844 69.1967 13.6016 68.9154 13.8359C68.642 14.0703 68.5052 14.4297 68.5052 14.9141C68.5052 15.4219 68.6849 15.8008 69.0443 16.0508C69.4037 16.293 69.9467 16.4141 70.6732 16.4141C71.5638 16.4141 72.224 16.3164 72.6537 16.1211C73.0912 15.9258 73.3099 15.6211 73.3099 15.207L73.556 16.9414C73.4232 17.3242 73.1888 17.6445 72.8529 17.9023C72.5248 18.1602 72.1263 18.3555 71.6576 18.4883C71.1888 18.6133 70.6771 18.6758 70.1224 18.6758ZM83.7748 18.6758C83.0482 18.6758 82.3568 18.6094 81.7006 18.4766C81.0443 18.3359 80.4271 18.1328 79.849 17.8672C79.2787 17.6016 78.7631 17.2773 78.3021 16.8945L80.0013 14.7852C80.6185 15.2227 81.2474 15.5547 81.8881 15.7812C82.5365 16.0078 83.1654 16.1211 83.7748 16.1211C84.6263 16.1211 85.2709 16.0078 85.7084 15.7812C86.1537 15.5469 86.3763 15.2109 86.3763 14.7734C86.3763 14.4375 86.267 14.1875 86.0482 14.0234C85.8295 13.8516 85.5521 13.7344 85.2162 13.6719C84.8881 13.6094 84.4232 13.5508 83.8217 13.4961C83.7201 13.4883 83.6146 13.4805 83.5052 13.4727C83.3959 13.4648 83.2904 13.4531 83.1888 13.4375C83.1576 13.4375 83.1263 13.4375 83.0951 13.4375C83.0638 13.4297 83.0326 13.4258 83.0013 13.4258C82.1498 13.332 81.4506 13.2031 80.9037 13.0391C80.3568 12.8672 79.8959 12.543 79.5209 12.0664C79.1537 11.5898 78.9701 10.9062 78.9701 10.0156C78.9701 9.17969 79.1537 8.47656 79.5209 7.90625C79.8959 7.32812 80.4427 6.89453 81.1615 6.60547C81.8802 6.30859 82.7631 6.16016 83.8099 6.16016C84.4349 6.16016 85.0443 6.22266 85.6381 6.34766C86.2318 6.46484 86.7982 6.64062 87.3373 6.875C87.8842 7.10156 88.3998 7.38672 88.8842 7.73047L87.2084 9.76953C86.6381 9.42578 86.0599 9.16406 85.474 8.98438C84.8959 8.80469 84.3334 8.71484 83.7865 8.71484C83.0521 8.71484 82.4935 8.82031 82.1107 9.03125C81.7279 9.24219 81.5365 9.55469 81.5365 9.96875C81.5365 10.2344 81.642 10.4375 81.8529 10.5781C82.0638 10.7188 82.3256 10.8164 82.6381 10.8711C82.9584 10.918 83.4193 10.9688 84.0209 11.0234C84.0834 11.0312 84.142 11.0391 84.1967 11.0469C84.2592 11.0469 84.3217 11.0508 84.3842 11.0586C84.4076 11.0586 84.4349 11.0586 84.4662 11.0586C84.4974 11.0586 84.5287 11.0625 84.5599 11.0703C85.4584 11.1562 86.2045 11.2852 86.7982 11.457C87.392 11.6289 87.8959 11.9727 88.3099 12.4883C88.724 12.9961 88.931 13.7383 88.931 14.7148C88.931 15.5742 88.7357 16.3008 88.3451 16.8945C87.9545 17.4805 87.3724 17.9258 86.599 18.2305C85.8334 18.5273 84.892 18.6758 83.7748 18.6758ZM96.8412 18.6758C95.6927 18.6758 94.7123 18.4648 93.8998 18.043C93.0873 17.6211 92.4662 17.0039 92.0365 16.1914C91.6068 15.3711 91.392 14.3828 91.392 13.2266V11.8555C91.392 10.6523 91.5951 9.625 92.0013 8.77344C92.4154 7.92188 93.0131 7.27344 93.7943 6.82812C94.5834 6.38281 95.5287 6.16016 96.6302 6.16016C97.6693 6.16016 98.556 6.42187 99.2904 6.94531C100.033 7.46094 100.595 8.21094 100.978 9.19531C101.369 10.1797 101.564 11.3672 101.564 12.7578V13.5547H93.3021V11.5039H98.9623L98.9506 11.375C98.8724 10.5234 98.6342 9.86328 98.2357 9.39453C97.8373 8.92578 97.3021 8.69141 96.6302 8.69141C95.7865 8.69141 95.1342 8.95703 94.6732 9.48828C94.2123 10.0117 93.9818 10.7578 93.9818 11.7266V13.2734C93.9818 14.1953 94.2318 14.9062 94.7318 15.4062C95.2318 15.8984 95.9349 16.1445 96.8412 16.1445C97.3021 16.1445 97.7552 16.0586 98.2006 15.8867C98.6537 15.707 99.0599 15.4609 99.4193 15.1484L101.247 16.8594C100.63 17.4375 99.9349 17.8867 99.1615 18.207C98.3959 18.5195 97.6224 18.6758 96.8412 18.6758Z" fill="#171717"/>
<path d="M121.483 12.37C122.358 12.1308 123.118 11.5821 123.62 10.8256C124.122 10.0691 124.333 9.15617 124.213 8.25617C124.093 7.35616 123.651 6.53016 122.968 5.93138C122.286 5.33259 121.409 5.00168 120.501 5C119.604 4.99965 118.737 5.32099 118.056 5.9057C117.376 6.49041 116.927 7.29973 116.792 8.18677C116.658 9.07381 116.845 9.97976 117.322 10.7402C117.798 11.5006 118.531 12.0651 119.388 12.3312C120.221 11.7812 121.133 11.1938 121.831 10.7463C122.111 10.5663 122.435 10.89 122.256 11.1713L121.481 12.3713L121.483 12.37ZM121.751 8.75C121.751 9.08152 121.62 9.39946 121.385 9.63388C121.151 9.8683 120.833 10 120.501 10C120.17 10 119.852 9.8683 119.617 9.63388C119.383 9.39946 119.251 9.08152 119.251 8.75C119.251 8.41848 119.383 8.10054 119.617 7.86612C119.852 7.6317 120.17 7.5 120.501 7.5C120.833 7.5 121.151 7.6317 121.385 7.86612C121.62 8.10054 121.751 8.41848 121.751 8.75Z" fill="#171717"/>
<path d="M115.501 0C114.838 0 114.202 0.263392 113.734 0.732233C113.265 1.20107 113.001 1.83696 113.001 2.5V17.5C113.001 18.163 113.265 18.7989 113.734 19.2678C114.202 19.7366 114.838 20 115.501 20H125.501C126.164 20 126.8 19.7366 127.269 19.2678C127.738 18.7989 128.001 18.163 128.001 17.5V2.5C128.001 1.83696 127.738 1.20107 127.269 0.732233C126.8 0.263392 126.164 0 125.501 0L115.501 0ZM126.751 1.875C126.751 2.04076 126.685 2.19973 126.568 2.31694C126.451 2.43415 126.292 2.5 126.126 2.5C125.961 2.5 125.802 2.43415 125.684 2.31694C125.567 2.19973 125.501 2.04076 125.501 1.875C125.501 1.70924 125.567 1.55027 125.684 1.43306C125.802 1.31585 125.961 1.25 126.126 1.25C126.292 1.25 126.451 1.31585 126.568 1.43306C126.685 1.55027 126.751 1.70924 126.751 1.875ZM126.751 18.125C126.751 18.2908 126.685 18.4497 126.568 18.5669C126.451 18.6842 126.292 18.75 126.126 18.75C125.961 18.75 125.802 18.6842 125.684 18.5669C125.567 18.4497 125.501 18.2908 125.501 18.125C125.501 17.9592 125.567 17.8003 125.684 17.6831C125.802 17.5658 125.961 17.5 126.126 17.5C126.292 17.5 126.451 17.5658 126.568 17.6831C126.685 17.8003 126.751 17.9592 126.751 18.125ZM114.876 18.75C114.711 18.75 114.552 18.6842 114.434 18.5669C114.317 18.4497 114.251 18.2908 114.251 18.125C114.251 17.9592 114.317 17.8003 114.434 17.6831C114.552 17.5658 114.711 17.5 114.876 17.5C115.042 17.5 115.201 17.5658 115.318 17.6831C115.435 17.8003 115.501 17.9592 115.501 18.125C115.501 18.2908 115.435 18.4497 115.318 18.5669C115.201 18.6842 115.042 18.75 114.876 18.75ZM115.501 1.875C115.501 2.04076 115.435 2.19973 115.318 2.31694C115.201 2.43415 115.042 2.5 114.876 2.5C114.711 2.5 114.552 2.43415 114.434 2.31694C114.317 2.19973 114.251 2.04076 114.251 1.875C114.251 1.70924 114.317 1.55027 114.434 1.43306C114.552 1.31585 114.711 1.25 114.876 1.25C115.042 1.25 115.201 1.31585 115.318 1.43306C115.435 1.55027 115.501 1.70924 115.501 1.875ZM119.104 15.8463C118.845 16.1048 118.495 16.2502 118.129 16.2503C117.764 16.2504 117.413 16.1053 117.154 15.8469C116.896 15.5885 116.751 15.2379 116.75 14.8723C116.75 14.6913 116.786 14.512 116.855 14.3448C116.924 14.1775 117.026 14.0255 117.154 13.8975C117.279 13.775 117.649 13.505 118.148 13.1625C117.074 12.5899 116.246 11.6454 115.819 10.506C115.391 9.36659 115.394 8.11051 115.827 6.97314C116.26 5.83577 117.092 4.89519 118.168 4.32769C119.245 3.76018 120.491 3.6047 121.674 3.89038C122.857 4.17606 123.895 4.8833 124.594 5.87955C125.293 6.87579 125.604 8.09266 125.47 9.30209C125.336 10.5115 124.765 11.6305 123.865 12.4493C122.965 13.2681 121.797 13.7306 120.58 13.75C119.909 14.7662 119.305 15.6438 119.104 15.8463Z" fill="#171717"/>
</svg>
