<svg width="162" height="24" viewBox="0 0 162 24" fill="none" xmlns="http://www.w3.org/2000/svg">
    <path
        d="M4.84509 19.4219H10.142C11.6836 19.4219 12.8763 19.0365 13.7201 18.2656C14.5743 17.4948 15.0013 16.401 15.0013 14.9844V8.29688C15.0013 6.88021 14.5743 5.78646 13.7201 5.01562C12.8763 4.24479 11.6836 3.85938 10.142 3.85938H4.84509V0.28125H10.0482C11.9024 0.28125 13.4857 0.598958 14.7982 1.23438C16.1211 1.86979 17.1263 2.79688 17.8138 4.01562C18.5013 5.23438 18.8451 6.70312 18.8451 8.42188V14.8594C18.8451 16.5365 18.5066 17.9844 17.8295 19.2031C17.1524 20.4219 16.1524 21.3594 14.8295 22.0156C13.517 22.6719 11.918 23 10.0326 23H4.84509V19.4219ZM2.68884 0.28125H6.42322V23H2.68884V0.28125ZM32.4232 12.7188C32.4232 11.8125 32.1524 11.1094 31.6107 10.6094C31.0795 10.1094 30.3243 9.85938 29.3451 9.85938C28.7201 9.85938 28.1055 9.95833 27.5013 10.1562C26.8972 10.3542 26.3555 10.6302 25.8763 10.9844L23.392 8.89062C24.0274 8.15104 24.8607 7.57812 25.892 7.17188C26.9232 6.75521 28.0691 6.54688 29.3295 6.54688C30.7045 6.54688 31.8816 6.78646 32.8607 7.26562C33.8399 7.73438 34.5847 8.42188 35.0951 9.32812C35.6159 10.224 35.8763 11.3073 35.8763 12.5781V23H32.4232V12.7188ZM28.1732 23.2344C26.3086 23.2344 24.9128 22.8229 23.9857 22C23.0586 21.1667 22.5951 19.9062 22.5951 18.2188C22.5951 16.6146 23.0638 15.4115 24.0013 14.6094C24.9388 13.8073 26.3451 13.4062 28.2201 13.4062H32.5638L32.7826 16.3125H28.2357C27.4961 16.3125 26.9388 16.4688 26.5638 16.7812C26.1993 17.0938 26.017 17.5729 26.017 18.2188C26.017 18.8958 26.2566 19.401 26.7357 19.7344C27.2149 20.0573 27.9388 20.2188 28.9076 20.2188C30.0951 20.2188 30.9753 20.0885 31.5482 19.8281C32.1316 19.5677 32.4232 19.1615 32.4232 18.6094L32.7513 20.9219C32.5743 21.4323 32.2618 21.8594 31.8138 22.2031C31.3763 22.5469 30.8451 22.8073 30.2201 22.9844C29.5951 23.151 28.9128 23.2344 28.1732 23.2344ZM44.7826 23.0781C43.418 23.0781 42.418 22.7188 41.7826 22C41.1472 21.2708 40.8295 20.1979 40.8295 18.7812V2.0625H44.5638V18.2656C44.5638 18.6615 44.642 18.9688 44.7982 19.1875C44.9545 19.3958 45.1836 19.5 45.4857 19.5H46.7826V23.0781H44.7826ZM39.1576 6.78125H46.7826V10.0469H39.1576V6.78125ZM59.892 12.7188C59.892 11.8125 59.6211 11.1094 59.0795 10.6094C58.5482 10.1094 57.793 9.85938 56.8138 9.85938C56.1888 9.85938 55.5743 9.95833 54.9701 10.1562C54.3659 10.3542 53.8243 10.6302 53.3451 10.9844L50.8607 8.89062C51.4961 8.15104 52.3295 7.57812 53.3607 7.17188C54.392 6.75521 55.5378 6.54688 56.7982 6.54688C58.1732 6.54688 59.3503 6.78646 60.3295 7.26562C61.3086 7.73438 62.0534 8.42188 62.5638 9.32812C63.0847 10.224 63.3451 11.3073 63.3451 12.5781V23H59.892V12.7188ZM55.642 23.2344C53.7774 23.2344 52.3816 22.8229 51.4545 22C50.5274 21.1667 50.0638 19.9062 50.0638 18.2188C50.0638 16.6146 50.5326 15.4115 51.4701 14.6094C52.4076 13.8073 53.8138 13.4062 55.6888 13.4062H60.0326L60.2513 16.3125H55.7045C54.9649 16.3125 54.4076 16.4688 54.0326 16.7812C53.668 17.0938 53.4857 17.5729 53.4857 18.2188C53.4857 18.8958 53.7253 19.401 54.2045 19.7344C54.6836 20.0573 55.4076 20.2188 56.3763 20.2188C57.5638 20.2188 58.4441 20.0885 59.017 19.8281C59.6003 19.5677 59.892 19.1615 59.892 18.6094L60.2201 20.9219C60.043 21.4323 59.7305 21.8594 59.2826 22.2031C58.8451 22.5469 58.3138 22.8073 57.6888 22.9844C57.0638 23.151 56.3816 23.2344 55.642 23.2344ZM70.0638 19.4688H76.767C78.0691 19.4688 79.0378 19.1979 79.6732 18.6562C80.3086 18.1042 80.6263 17.3385 80.6263 16.3594V16.3125C80.6263 15.6354 80.5013 15.0573 80.2513 14.5781C80.0013 14.099 79.6159 13.7344 79.0951 13.4844C78.5743 13.224 77.9284 13.0938 77.1576 13.0938H70.0638V9.59375H77.1576C78.1888 9.59375 78.9753 9.34375 79.517 8.84375C80.0586 8.34375 80.3295 7.61979 80.3295 6.67188C80.3295 5.73438 80.043 5.02604 79.4701 4.54688C78.8972 4.05729 78.0534 3.8125 76.9388 3.8125H70.0638V0.28125H77.2982C78.767 0.28125 80.0066 0.53125 81.017 1.03125C82.0378 1.52083 82.8034 2.22396 83.3138 3.14062C83.8347 4.05729 84.0951 5.15625 84.0951 6.4375C84.0951 7.27083 83.9284 8.03125 83.5951 8.71875C83.2722 9.39583 82.7878 9.96354 82.142 10.4219C81.5066 10.8802 80.7253 11.1927 79.7982 11.3594C80.7566 11.4948 81.5795 11.8125 82.267 12.3125C82.9545 12.8021 83.4805 13.4323 83.8451 14.2031C84.2097 14.9635 84.392 15.8177 84.392 16.7656V16.8125C84.392 18.0729 84.1159 19.1719 83.5638 20.1094C83.0222 21.0365 82.2357 21.75 81.2045 22.25C80.1836 22.75 78.9701 23 77.5638 23H70.0638V19.4688ZM68.1888 0.28125H71.9076V23H68.1888V0.28125ZM97.5795 12.7188C97.5795 11.8125 97.3086 11.1094 96.767 10.6094C96.2357 10.1094 95.4805 9.85938 94.5013 9.85938C93.8763 9.85938 93.2618 9.95833 92.6576 10.1562C92.0534 10.3542 91.5118 10.6302 91.0326 10.9844L88.5482 8.89062C89.1836 8.15104 90.017 7.57812 91.0482 7.17188C92.0795 6.75521 93.2253 6.54688 94.4857 6.54688C95.8607 6.54688 97.0378 6.78646 98.017 7.26562C98.9961 7.73438 99.7409 8.42188 100.251 9.32812C100.772 10.224 101.033 11.3073 101.033 12.5781V23H97.5795V12.7188ZM93.3295 23.2344C91.4649 23.2344 90.0691 22.8229 89.142 22C88.2149 21.1667 87.7513 19.9062 87.7513 18.2188C87.7513 16.6146 88.2201 15.4115 89.1576 14.6094C90.0951 13.8073 91.5013 13.4062 93.3763 13.4062H97.7201L97.9388 16.3125H93.392C92.6524 16.3125 92.0951 16.4688 91.7201 16.7812C91.3555 17.0938 91.1732 17.5729 91.1732 18.2188C91.1732 18.8958 91.4128 19.401 91.892 19.7344C92.3711 20.0573 93.0951 20.2188 94.0638 20.2188C95.2513 20.2188 96.1316 20.0885 96.7045 19.8281C97.2878 19.5677 97.5795 19.1615 97.5795 18.6094L97.9076 20.9219C97.7305 21.4323 97.418 21.8594 96.9701 22.2031C96.5326 22.5469 96.0013 22.8073 95.3763 22.9844C94.7513 23.151 94.0691 23.2344 93.3295 23.2344ZM111.533 23.2344C110.564 23.2344 109.642 23.1458 108.767 22.9688C107.892 22.7812 107.069 22.5104 106.298 22.1562C105.538 21.8021 104.85 21.3698 104.236 20.8594L106.501 18.0469C107.324 18.6302 108.163 19.0729 109.017 19.375C109.882 19.6771 110.72 19.8281 111.533 19.8281C112.668 19.8281 113.527 19.6771 114.111 19.375C114.704 19.0625 115.001 18.6146 115.001 18.0312C115.001 17.5833 114.856 17.25 114.564 17.0312C114.272 16.8021 113.902 16.6458 113.454 16.5625C113.017 16.4792 112.397 16.401 111.595 16.3281C111.46 16.3177 111.319 16.3073 111.173 16.2969C111.027 16.2865 110.887 16.2708 110.751 16.25C110.71 16.25 110.668 16.25 110.626 16.25C110.585 16.2396 110.543 16.2344 110.501 16.2344C109.366 16.1094 108.434 15.9375 107.704 15.7188C106.975 15.4896 106.361 15.0573 105.861 14.4219C105.371 13.7865 105.126 12.875 105.126 11.6875C105.126 10.5729 105.371 9.63542 105.861 8.875C106.361 8.10417 107.09 7.52604 108.048 7.14062C109.007 6.74479 110.184 6.54688 111.579 6.54688C112.413 6.54688 113.225 6.63021 114.017 6.79688C114.809 6.95312 115.564 7.1875 116.283 7.5C117.012 7.80208 117.699 8.18229 118.345 8.64062L116.111 11.3594C115.35 10.901 114.579 10.5521 113.798 10.3125C113.027 10.0729 112.277 9.95312 111.548 9.95312C110.569 9.95312 109.824 10.0938 109.314 10.375C108.803 10.6562 108.548 11.0729 108.548 11.625C108.548 11.9792 108.689 12.25 108.97 12.4375C109.251 12.625 109.6 12.7552 110.017 12.8281C110.444 12.8906 111.059 12.9583 111.861 13.0312C111.944 13.0417 112.022 13.0521 112.095 13.0625C112.178 13.0625 112.262 13.0677 112.345 13.0781C112.376 13.0781 112.413 13.0781 112.454 13.0781C112.496 13.0781 112.538 13.0833 112.579 13.0938C113.777 13.2083 114.772 13.3802 115.564 13.6094C116.356 13.8385 117.027 14.2969 117.579 14.9844C118.132 15.6615 118.408 16.651 118.408 17.9531C118.408 19.099 118.147 20.0677 117.626 20.8594C117.106 21.6406 116.329 22.2344 115.298 22.6406C114.277 23.0365 113.022 23.2344 111.533 23.2344ZM128.954 23.2344C127.423 23.2344 126.116 22.9531 125.033 22.3906C123.949 21.8281 123.121 21.0052 122.548 19.9219C121.975 18.8281 121.689 17.5104 121.689 15.9688V14.1406C121.689 12.5365 121.96 11.1667 122.501 10.0312C123.053 8.89583 123.85 8.03125 124.892 7.4375C125.944 6.84375 127.204 6.54688 128.673 6.54688C130.059 6.54688 131.241 6.89583 132.22 7.59375C133.21 8.28125 133.96 9.28125 134.47 10.5938C134.991 11.9062 135.251 13.4896 135.251 15.3438V16.4062H124.236V13.6719H131.783L131.767 13.5C131.663 12.3646 131.345 11.4844 130.814 10.8594C130.283 10.2344 129.569 9.92188 128.673 9.92188C127.548 9.92188 126.678 10.276 126.064 10.9844C125.449 11.6823 125.142 12.6771 125.142 13.9688V16.0312C125.142 17.2604 125.475 18.2083 126.142 18.875C126.809 19.5312 127.746 19.8594 128.954 19.8594C129.569 19.8594 130.173 19.7448 130.767 19.5156C131.371 19.276 131.913 18.9479 132.392 18.5312L134.829 20.8125C134.007 21.5833 133.079 22.1823 132.048 22.6094C131.027 23.026 129.996 23.2344 128.954 23.2344Z"
        fill="#171717" />
    <path
        d="M155.483 13.87C156.358 13.6308 157.118 13.0821 157.62 12.3256C158.122 11.5691 158.333 10.6562 158.213 9.75617C158.093 8.85616 157.651 8.03016 156.968 7.43138C156.286 6.83259 155.409 6.50168 154.501 6.5C153.604 6.49965 152.737 6.82099 152.056 7.4057C151.376 7.99041 150.927 8.79973 150.792 9.68677C150.658 10.5738 150.845 11.4798 151.322 12.2402C151.798 13.0006 152.531 13.5651 153.388 13.8312C154.221 13.2812 155.133 12.6938 155.831 12.2463C156.111 12.0663 156.435 12.39 156.256 12.6713L155.481 13.8713L155.483 13.87ZM155.751 10.25C155.751 10.5815 155.62 10.8995 155.385 11.1339C155.151 11.3683 154.833 11.5 154.501 11.5C154.17 11.5 153.852 11.3683 153.617 11.1339C153.383 10.8995 153.251 10.5815 153.251 10.25C153.251 9.91848 153.383 9.60054 153.617 9.36612C153.852 9.1317 154.17 9 154.501 9C154.833 9 155.151 9.1317 155.385 9.36612C155.62 9.60054 155.751 9.91848 155.751 10.25Z"
        fill="#171717" />
    <path
        d="M149.501 1.5C148.838 1.5 148.202 1.76339 147.734 2.23223C147.265 2.70107 147.001 3.33696 147.001 4V19C147.001 19.663 147.265 20.2989 147.734 20.7678C148.202 21.2366 148.838 21.5 149.501 21.5H159.501C160.164 21.5 160.8 21.2366 161.269 20.7678C161.738 20.2989 162.001 19.663 162.001 19V4C162.001 3.33696 161.738 2.70107 161.269 2.23223C160.8 1.76339 160.164 1.5 159.501 1.5H149.501ZM160.751 3.375C160.751 3.54076 160.685 3.69973 160.568 3.81694C160.451 3.93415 160.292 4 160.126 4C159.961 4 159.802 3.93415 159.684 3.81694C159.567 3.69973 159.501 3.54076 159.501 3.375C159.501 3.20924 159.567 3.05027 159.684 2.93306C159.802 2.81585 159.961 2.75 160.126 2.75C160.292 2.75 160.451 2.81585 160.568 2.93306C160.685 3.05027 160.751 3.20924 160.751 3.375ZM160.751 19.625C160.751 19.7908 160.685 19.9497 160.568 20.0669C160.451 20.1842 160.292 20.25 160.126 20.25C159.961 20.25 159.802 20.1842 159.684 20.0669C159.567 19.9497 159.501 19.7908 159.501 19.625C159.501 19.4592 159.567 19.3003 159.684 19.1831C159.802 19.0658 159.961 19 160.126 19C160.292 19 160.451 19.0658 160.568 19.1831C160.685 19.3003 160.751 19.4592 160.751 19.625ZM148.876 20.25C148.711 20.25 148.552 20.1842 148.434 20.0669C148.317 19.9497 148.251 19.7908 148.251 19.625C148.251 19.4592 148.317 19.3003 148.434 19.1831C148.552 19.0658 148.711 19 148.876 19C149.042 19 149.201 19.0658 149.318 19.1831C149.435 19.3003 149.501 19.4592 149.501 19.625C149.501 19.7908 149.435 19.9497 149.318 20.0669C149.201 20.1842 149.042 20.25 148.876 20.25ZM149.501 3.375C149.501 3.54076 149.435 3.69973 149.318 3.81694C149.201 3.93415 149.042 4 148.876 4C148.711 4 148.552 3.93415 148.434 3.81694C148.317 3.69973 148.251 3.54076 148.251 3.375C148.251 3.20924 148.317 3.05027 148.434 2.93306C148.552 2.81585 148.711 2.75 148.876 2.75C149.042 2.75 149.201 2.81585 149.318 2.93306C149.435 3.05027 149.501 3.20924 149.501 3.375ZM153.104 17.3463C152.845 17.6048 152.495 17.7502 152.129 17.7503C151.764 17.7504 151.413 17.6053 151.154 17.3469C150.896 17.0885 150.751 16.7379 150.75 16.3723C150.75 16.1913 150.786 16.012 150.855 15.8448C150.924 15.6775 151.026 15.5255 151.154 15.3975C151.279 15.275 151.649 15.005 152.148 14.6625C151.074 14.0899 150.246 13.1454 149.819 12.006C149.391 10.8666 149.394 9.61051 149.827 8.47314C150.26 7.33577 151.092 6.39519 152.168 5.82769C153.245 5.26018 154.491 5.1047 155.674 5.39038C156.857 5.67606 157.895 6.3833 158.594 7.37955C159.293 8.37579 159.604 9.59266 159.47 10.8021C159.336 12.0115 158.765 13.1305 157.865 13.9493C156.965 14.7681 155.797 15.2306 154.58 15.25C153.909 16.2662 153.305 17.1438 153.104 17.3463Z"
        fill="#171717" />
</svg>