<svg width="162" height="31" viewBox="0 0 162 31" fill="none" xmlns="http://www.w3.org/2000/svg">
<path d="M3.14197 0.78125H6.87634V23.5H3.14197V0.78125ZM4.68884 19.9219H18.0482V23.5H4.68884V19.9219ZM4.68884 10.4375H16.3295V14H4.68884V10.4375ZM4.68884 0.78125H18.0482V4.35938H4.68884V0.78125ZM21.9545 7.28125H25.6888V23.5H21.9545V7.28125ZM31.5638 13.6719C31.5638 12.7031 31.3034 11.9531 30.7826 11.4219C30.2618 10.8906 29.5222 10.625 28.5638 10.625C27.6472 10.625 26.9388 10.875 26.4388 11.375C25.9388 11.8646 25.6888 12.5625 25.6888 13.4688L25.3607 10.1094C25.8503 9.10938 26.4649 8.34896 27.2045 7.82812C27.9545 7.30729 28.8347 7.04688 29.8451 7.04688C31.5743 7.04688 32.9128 7.625 33.8607 8.78125C34.8191 9.92708 35.2982 11.5521 35.2982 13.6562V23.5H31.5638V13.6719ZM45.4232 30.0938C44.1732 30.0938 43.0534 29.8646 42.0638 29.4062C41.0743 28.9583 40.3034 28.3229 39.7513 27.5L42.267 25.2031C42.6524 25.6927 43.1159 26.0677 43.6576 26.3281C44.2097 26.5885 44.7826 26.7188 45.3763 26.7188C46.4388 26.7188 47.2774 26.4271 47.892 25.8438C48.5066 25.2708 48.8138 24.4583 48.8138 23.4062V7.28125H52.5482V23.0156C52.5482 24.5052 52.267 25.7812 51.7045 26.8438C51.1524 27.9062 50.3399 28.7135 49.267 29.2656C48.2045 29.8177 46.9232 30.0938 45.4232 30.0938ZM44.892 23.7656C43.7253 23.7656 42.7253 23.5 41.892 22.9688C41.0691 22.4271 40.4388 21.651 40.0013 20.6406C39.5743 19.6198 39.3607 18.3906 39.3607 16.9531V13.8594C39.3607 12.4219 39.5743 11.1927 40.0013 10.1719C40.4284 9.14062 41.0482 8.35938 41.8607 7.82812C42.6836 7.28646 43.668 7.01562 44.8138 7.01562C45.7305 7.01562 46.5638 7.27083 47.3138 7.78125C48.0743 8.29167 48.6836 9.01042 49.142 9.9375L48.8138 13.3906C48.8138 12.7656 48.7045 12.2344 48.4857 11.7969C48.267 11.3594 47.9493 11.026 47.5326 10.7969C47.1159 10.5677 46.6107 10.4531 46.017 10.4531C45.0899 10.4531 44.3711 10.7552 43.8607 11.3594C43.3503 11.9635 43.0951 12.8073 43.0951 13.8906V16.9531C43.0951 18.026 43.3503 18.8594 43.8607 19.4531C44.3711 20.0365 45.0899 20.3281 46.017 20.3281C46.6107 20.3281 47.1159 20.2135 47.5326 19.9844C47.9493 19.7448 48.267 19.4062 48.4857 18.9688C48.7045 18.5312 48.8138 18.0052 48.8138 17.3906L49.0326 20.9531C48.7097 21.7969 48.1888 22.4792 47.4701 23C46.7618 23.5104 45.9024 23.7656 44.892 23.7656ZM60.8138 18.7344C60.8138 19.1302 60.9128 19.4375 61.1107 19.6562C61.3086 19.8646 61.5899 19.9688 61.9545 19.9688H63.0638V23.5469H61.0326C59.7826 23.5469 58.8086 23.1719 58.1107 22.4219C57.4232 21.6719 57.0795 20.6146 57.0795 19.25V0.78125H60.8138V18.7344ZM66.2513 0.78125H69.9701V4.51562H66.2513V0.78125ZM66.2513 7.28125H69.9701V23.5H66.2513V7.28125ZM80.3607 23.7344C79.392 23.7344 78.4701 23.6458 77.5951 23.4688C76.7201 23.2812 75.8972 23.0104 75.1263 22.6562C74.3659 22.3021 73.6784 21.8698 73.0638 21.3594L75.3295 18.5469C76.1524 19.1302 76.9909 19.5729 77.8451 19.875C78.7097 20.1771 79.5482 20.3281 80.3607 20.3281C81.4961 20.3281 82.3555 20.1771 82.9388 19.875C83.5326 19.5625 83.8295 19.1146 83.8295 18.5312C83.8295 18.0833 83.6836 17.75 83.392 17.5312C83.1003 17.3021 82.7305 17.1458 82.2826 17.0625C81.8451 16.9792 81.2253 16.901 80.4232 16.8281C80.2878 16.8177 80.1472 16.8073 80.0013 16.7969C79.8555 16.7865 79.7149 16.7708 79.5795 16.75C79.5378 16.75 79.4961 16.75 79.4545 16.75C79.4128 16.7396 79.3711 16.7344 79.3295 16.7344C78.1941 16.6094 77.2618 16.4375 76.5326 16.2188C75.8034 15.9896 75.1888 15.5573 74.6888 14.9219C74.1993 14.2865 73.9545 13.375 73.9545 12.1875C73.9545 11.0729 74.1993 10.1354 74.6888 9.375C75.1888 8.60417 75.918 8.02604 76.8763 7.64062C77.8347 7.24479 79.0118 7.04688 80.4076 7.04688C81.2409 7.04688 82.0534 7.13021 82.8451 7.29688C83.6368 7.45312 84.392 7.6875 85.1107 8C85.8399 8.30208 86.5274 8.68229 87.1732 9.14062L84.9388 11.8594C84.1784 11.401 83.4076 11.0521 82.6263 10.8125C81.8555 10.5729 81.1055 10.4531 80.3763 10.4531C79.3972 10.4531 78.6524 10.5938 78.142 10.875C77.6316 11.1562 77.3763 11.5729 77.3763 12.125C77.3763 12.4792 77.517 12.75 77.7982 12.9375C78.0795 13.125 78.4284 13.2552 78.8451 13.3281C79.2722 13.3906 79.8868 13.4583 80.6888 13.5312C80.7722 13.5417 80.8503 13.5521 80.9232 13.5625C81.0066 13.5625 81.0899 13.5677 81.1732 13.5781C81.2045 13.5781 81.2409 13.5781 81.2826 13.5781C81.3243 13.5781 81.3659 13.5833 81.4076 13.5938C82.6055 13.7083 83.6003 13.8802 84.392 14.1094C85.1836 14.3385 85.8555 14.7969 86.4076 15.4844C86.9597 16.1615 87.2357 17.151 87.2357 18.4531C87.2357 19.599 86.9753 20.5677 86.4545 21.3594C85.9336 22.1406 85.1576 22.7344 84.1263 23.1406C83.1055 23.5365 81.8503 23.7344 80.3607 23.7344ZM90.9857 0.78125H94.7201V23.5H90.9857V0.78125ZM100.595 13.6719C100.595 12.7031 100.335 11.9531 99.8138 11.4219C99.293 10.8906 98.5534 10.625 97.5951 10.625C96.6784 10.625 95.9701 10.8698 95.4701 11.3594C94.9701 11.849 94.7201 12.5417 94.7201 13.4375L94.392 10.0781C94.8816 9.09896 95.4961 8.34896 96.2357 7.82812C96.9857 7.30729 97.8659 7.04688 98.8763 7.04688C100.606 7.04688 101.944 7.625 102.892 8.78125C103.85 9.92708 104.329 11.5521 104.329 13.6562V23.5H100.595V13.6719Z" fill="#171717"/>
<g clip-path="url(#clip0_124_522)">
<path d="M117.001 0.0032959H162.001V24.0003H117.001V0.0032959Z" fill="#F1F5F9"/>
<path d="M117.001 0.0032959H162.001V1.84992H117.001V0.0032959ZM117.001 3.69502H162.001V5.54164H117.001V3.69502ZM117.001 7.38826H162.001V9.23488H117.001V7.38826ZM117.001 11.08H162.001V12.9266H117.001V11.08ZM117.001 14.7717H162.001V16.6183H117.001V14.7717ZM117.001 18.4634H162.001V20.3101H117.001V18.4634ZM117.001 22.1552H162.001V24.0018H117.001V22.1552Z" fill="#BF0A30"/>
<path d="M117.001 0H135.001V12.9218H117.001V0Z" fill="#002868"/>
<path d="M118.704 1.20067L118.54 0.689996L118.378 1.20067H117.847L118.278 1.5168L118.113 2.02747L118.542 1.70982L118.972 2.02747L118.807 1.5168L119.235 1.20067H118.704ZM121.689 1.20067L121.525 0.689996L121.362 1.20067H120.832L121.261 1.51528L121.096 2.02595L121.525 1.7083L121.954 2.02595L121.791 1.51528L122.218 1.20067H121.689ZM124.674 1.20067L124.51 0.689996L124.347 1.20067H123.816L124.246 1.5168L124.081 2.02595L124.51 1.7083L124.939 2.02595L124.776 1.51528L125.203 1.20067H124.674ZM127.657 1.20067L127.494 0.689996L127.33 1.20067H126.799L127.23 1.5168L127.065 2.02747L127.494 1.70982L127.924 2.02747L127.759 1.5168L128.188 1.20067H127.657ZM130.743 1.51528L131.173 1.20067H130.642L130.479 0.689996L130.314 1.20067H129.784L130.213 1.5168L130.05 2.02747L130.479 1.70982L130.908 2.02747L130.743 1.51528ZM133.728 1.51528L134.157 1.19915H133.627L133.464 0.688477L133.299 1.20067H132.768L133.198 1.5168L133.035 2.02747L133.464 1.70982L133.893 2.02747L133.728 1.51528ZM120.033 1.98491L119.869 2.49558H119.34L119.769 2.81171L119.605 3.32238L120.034 3.00625L120.463 3.32238L120.3 2.81171L120.73 2.49558H120.196L120.033 1.98491ZM123.181 2.49558L123.018 1.98491L122.854 2.49558H122.325L122.754 2.81171L122.59 3.32238L123.019 3.00625L123.448 3.32238L123.285 2.81171L123.714 2.49558H123.181ZM126.165 2.49558L126.003 1.98491L125.839 2.49558H125.308L125.739 2.81171L125.574 3.32238L126.004 3.00625L126.433 3.32238L126.27 2.81171L126.699 2.49558H126.165ZM129.15 2.49558L128.986 1.98491L128.824 2.49558H128.293L128.722 2.81171L128.559 3.32238L128.988 3.00625L129.417 3.32238L129.253 2.81171L129.684 2.49558H129.15ZM132.133 2.49558L131.97 1.98491L131.806 2.49558H131.277L131.706 2.81171L131.542 3.32238L131.971 3.00625L132.4 3.32238L132.237 2.81171L132.666 2.49558H132.133ZM118.704 3.79202L118.54 3.27983L118.378 3.79202L117.847 3.7905L118.278 4.10663L118.113 4.61882L118.542 4.30117L118.972 4.61882L118.807 4.10663L119.238 3.7905L118.704 3.79202ZM121.689 3.79202L121.525 3.27983L121.362 3.79202L120.832 3.7905L121.261 4.10663L121.096 4.61882L121.525 4.30117L121.954 4.61882L121.791 4.10663L122.22 3.7905L121.689 3.79202ZM124.674 3.79202L124.51 3.27983L124.347 3.79202L123.816 3.7905L124.246 4.10663L124.081 4.61882L124.51 4.30117L124.939 4.61882L124.776 4.10663L125.205 3.7905L124.674 3.79202ZM127.657 3.79202L127.494 3.27983L127.332 3.79202L126.801 3.7905L127.231 4.10663L127.066 4.61882L127.495 4.30117L127.926 4.61882L127.761 4.10663L128.191 3.7905L127.657 3.79202ZM130.641 3.79202L130.477 3.27983L130.314 3.79202L129.784 3.7905L130.213 4.10663L130.05 4.61882L130.479 4.30117L130.908 4.61882L130.744 4.10663L131.175 3.7905L130.641 3.79202ZM133.728 4.10663L134.157 3.7905L133.627 3.79202L133.464 3.27983L133.3 3.79202L132.769 3.7905L133.2 4.10663L133.036 4.61882L133.465 4.30117L133.894 4.61882L133.728 4.10663ZM120.033 4.51091L119.869 5.02158H119.34L119.769 5.33771L119.605 5.84838L120.034 5.53225L120.463 5.84838L120.3 5.33771L120.73 5.02158H120.196L120.033 4.51091ZM123.181 5.02158L123.018 4.51091L122.854 5.02158H122.325L122.754 5.33771L122.59 5.84838L123.019 5.53225L123.448 5.84838L123.285 5.33771L123.714 5.02158H123.181ZM126.165 5.02158L126.003 4.51091L125.839 5.02158H125.308L125.739 5.33771L125.574 5.84838L126.004 5.53225L126.433 5.84838L126.27 5.33771L126.699 5.02158H126.165ZM129.15 5.02158L128.986 4.51091L128.824 5.02158H128.293L128.722 5.33771L128.559 5.84838L128.988 5.53225L129.417 5.84838L129.253 5.33771L129.684 5.02158H129.15ZM132.133 5.02158L131.97 4.51091L131.806 5.02158H131.277L131.706 5.33771L131.542 5.84838L131.971 5.53225L132.4 5.84838L132.237 5.33771L132.666 5.02158H132.133ZM118.704 6.31801L118.54 5.80582L118.378 6.31801L117.847 6.31649L118.278 6.63262L118.111 7.14329L118.54 6.82716L118.971 7.14329L118.806 6.63262L119.236 6.31649L118.704 6.31801ZM121.689 6.31801L121.525 5.80582L121.362 6.31801L120.832 6.31649L121.261 6.63262L121.096 7.14329L121.525 6.82716L121.954 7.14329L121.791 6.63262L122.22 6.31649L121.689 6.31801ZM124.674 6.31801L124.51 5.80582L124.347 6.31801L123.816 6.31649L124.246 6.63262L124.081 7.14329L124.51 6.82716L124.939 7.14329L124.776 6.63262L125.205 6.31649L124.674 6.31801ZM127.657 6.31801L127.492 5.80582L127.33 6.31801L126.799 6.31649L127.23 6.63262L127.065 7.14329L127.494 6.82716L127.924 7.14329L127.759 6.63262L128.19 6.31649L127.657 6.31801ZM130.641 6.31801L130.477 5.80582L130.314 6.31801L129.784 6.31649L130.213 6.63262L130.05 7.14329L130.479 6.82716L130.906 7.14329L130.743 6.63262L131.173 6.31649L130.641 6.31801ZM133.728 6.63262L134.157 6.31649L133.627 6.31801L133.464 5.80582L133.3 6.31801L132.769 6.31649L133.2 6.63262L133.036 7.14329L133.465 6.82716L133.891 7.14329L133.728 6.63262ZM120.033 7.07338L119.869 7.58405H119.34L119.769 7.90018L119.605 8.41085L120.034 8.09472L120.463 8.41085L120.3 7.90018L120.73 7.58405H120.196L120.033 7.07338ZM123.181 7.58405L123.018 7.07338L122.854 7.58405H122.325L122.754 7.90018L122.59 8.41085L123.019 8.09472L123.448 8.41085L123.285 7.90018L123.714 7.58405H123.181ZM126.165 7.58405L126.003 7.07338L125.839 7.58405H125.308L125.739 7.90018L125.574 8.41085L126.004 8.09472L126.433 8.41085L126.27 7.90018L126.699 7.58405H126.165ZM129.15 7.58405L128.986 7.07338L128.823 7.58405H128.292L128.721 7.90018L128.557 8.41085L128.986 8.09472L129.415 8.41085L129.252 7.90018L129.682 7.58405H129.15ZM132.133 7.58405L131.97 7.07338L131.806 7.58405H131.277L131.706 7.90018L131.542 8.41085L131.971 8.09472L132.4 8.41085L132.237 7.90018L132.666 7.58405H132.133ZM118.704 8.882L118.54 8.36981L118.378 8.882L117.847 8.88048L118.278 9.19509L118.113 9.70728L118.542 9.38964L118.972 9.70728L118.807 9.19509L119.238 8.87897L118.704 8.882ZM121.689 8.882L121.525 8.36981L121.362 8.882L120.832 8.88048L121.261 9.19509L121.096 9.70728L121.525 9.38964L121.954 9.70728L121.789 9.19509L122.218 8.87897L121.689 8.882ZM124.674 8.882L124.51 8.36981L124.347 8.882L123.816 8.88048L124.246 9.19661L124.081 9.70728L124.51 9.38964L124.939 9.70728L124.774 9.19509L125.203 8.87897L124.674 8.882ZM127.657 8.882L127.494 8.36981L127.332 8.882L126.801 8.88048L127.231 9.19661L127.066 9.7088L127.495 9.39116L127.926 9.7088L127.761 9.19661L128.191 8.88048L127.657 8.882ZM130.641 8.882L130.477 8.36981L130.314 8.882L129.784 8.88048L130.213 9.19661L130.05 9.7088L130.479 9.39116L130.908 9.7088L130.743 9.19509L131.173 8.87897L130.641 8.882ZM133.728 9.19509L134.157 8.87897L133.627 8.88048L133.464 8.36829L133.3 8.88048L132.769 8.87897L133.2 9.19509L133.036 9.70728L133.465 9.38964L133.894 9.70728L133.728 9.19509ZM120.033 9.59937L119.869 10.11H119.34L119.769 10.4262L119.605 10.9368L120.034 10.6207L120.463 10.9368L120.297 10.4262L120.727 10.11H120.196L120.033 9.59937ZM123.181 10.11L123.018 9.59937L122.854 10.11H122.325L122.754 10.4262L122.59 10.9368L123.019 10.6207L123.448 10.9368L123.282 10.4262L123.711 10.11H123.181ZM126.165 10.11L126.003 9.59937L125.839 10.11H125.308L125.739 10.4262L125.574 10.9368L126.004 10.6207L126.433 10.9368L126.267 10.4262L126.696 10.11H126.165ZM129.15 10.11L128.986 9.59937L128.824 10.11H128.293L128.722 10.4262L128.559 10.9368L128.988 10.6207L129.417 10.9368L129.25 10.4262L129.681 10.11H129.15ZM132.133 10.11L131.97 9.59937L131.806 10.11H131.277L131.706 10.4262L131.542 10.9368L131.971 10.6207L132.4 10.9368L132.237 10.4262L132.666 10.11H132.133ZM118.704 11.408L118.54 10.8958L118.378 11.408L117.847 11.4065L118.278 11.7226L118.113 12.2333L118.542 11.9172L118.972 12.2333L118.807 11.7226L119.238 11.4065L118.704 11.408ZM121.689 11.408L121.525 10.8958L121.362 11.408L120.832 11.4065L121.261 11.7226L121.096 12.2318L121.525 11.9156L121.954 12.2318L121.791 11.7211L122.22 11.405L121.689 11.408ZM124.674 11.408L124.51 10.8958L124.347 11.408L123.816 11.4065L124.246 11.7226L124.081 12.2318L124.51 11.9156L124.939 12.2318L124.776 11.7211L125.205 11.405L124.674 11.408ZM127.657 11.408L127.494 10.8958L127.332 11.408L126.801 11.4065L127.231 11.7226L127.066 12.2333L127.495 11.9172L127.926 12.2333L127.761 11.7226L128.191 11.4065L127.657 11.408ZM130.641 11.408L130.477 10.8958L130.314 11.408L129.784 11.4065L130.213 11.7226L130.05 12.2333L130.479 11.9172L130.908 12.2333L130.744 11.7226L131.175 11.4065L130.641 11.408ZM133.728 11.7211L134.157 11.405L133.627 11.4065L133.464 10.8943L133.3 11.4065L132.769 11.405L133.2 11.7211L133.036 12.2318L133.465 11.9156L133.894 12.2318L133.728 11.7211Z" fill="#F1F5F9"/>
</g>
<defs>
<clipPath id="clip0_124_522">
<rect width="45" height="24" fill="white" transform="translate(117.001)"/>
</clipPath>
</defs>
</svg>
