<svg width="385" height="24" viewBox="0 0 385 24" fill="none" xmlns="http://www.w3.org/2000/svg">
<path d="M3.00134 0.28125H6.73572V23H3.00134V0.28125ZM4.56384 10.1406H15.892V13.7031H4.56384V10.1406ZM4.56384 0.28125H17.6107V3.85938H4.56384V0.28125ZM20.5951 6.78125H24.4857V23H20.5951V6.78125ZM29.6263 10.9531C29.3763 10.6823 29.0691 10.4792 28.7045 10.3438C28.3399 10.1979 27.918 10.125 27.4388 10.125C26.5013 10.125 25.7722 10.4062 25.2513 10.9688C24.7409 11.5208 24.4857 12.2917 24.4857 13.2812L24.1576 9.60938C24.6263 8.64062 25.2357 7.89062 25.9857 7.35938C26.7461 6.81771 27.5795 6.54688 28.4857 6.54688C29.1941 6.54688 29.8347 6.65625 30.4076 6.875C30.9805 7.08333 31.4805 7.39583 31.9076 7.8125L29.6263 10.9531ZM43.2982 12.7188C43.2982 11.8125 43.0274 11.1094 42.4857 10.6094C41.9545 10.1094 41.1993 9.85938 40.2201 9.85938C39.5951 9.85938 38.9805 9.95833 38.3763 10.1562C37.7722 10.3542 37.2305 10.6302 36.7513 10.9844L34.267 8.89062C34.9024 8.15104 35.7357 7.57812 36.767 7.17188C37.7982 6.75521 38.9441 6.54688 40.2045 6.54688C41.5795 6.54688 42.7566 6.78646 43.7357 7.26562C44.7149 7.73438 45.4597 8.42188 45.9701 9.32812C46.4909 10.224 46.7513 11.3073 46.7513 12.5781V23H43.2982V12.7188ZM39.0482 23.2344C37.1836 23.2344 35.7878 22.8229 34.8607 22C33.9336 21.1667 33.4701 19.9062 33.4701 18.2188C33.4701 16.6146 33.9388 15.4115 34.8763 14.6094C35.8138 13.8073 37.2201 13.4062 39.0951 13.4062H43.4388L43.6576 16.3125H39.1107C38.3711 16.3125 37.8138 16.4688 37.4388 16.7812C37.0743 17.0938 36.892 17.5729 36.892 18.2188C36.892 18.8958 37.1316 19.401 37.6107 19.7344C38.0899 20.0573 38.8138 20.2188 39.7826 20.2188C40.9701 20.2188 41.8503 20.0885 42.4232 19.8281C43.0066 19.5677 43.2982 19.1615 43.2982 18.6094L43.6263 20.9219C43.4493 21.4323 43.1368 21.8594 42.6888 22.2031C42.2513 22.5469 41.7201 22.8073 41.0951 22.9844C40.4701 23.151 39.7878 23.2344 39.0482 23.2344ZM70.4232 13.4062C70.4232 12.3542 70.1628 11.5469 69.642 10.9844C69.1211 10.4115 68.3816 10.125 67.4232 10.125C66.517 10.125 65.8138 10.401 65.3138 10.9531C64.8243 11.4948 64.5795 12.2708 64.5795 13.2812L63.8607 9.84375C64.3711 8.79167 65.0378 7.97917 65.8607 7.40625C66.6941 6.83333 67.6159 6.54688 68.6263 6.54688C69.793 6.54688 70.7878 6.8125 71.6107 7.34375C72.4441 7.875 73.0743 8.65625 73.5013 9.6875C73.9388 10.7083 74.1576 11.9427 74.1576 13.3906V23H70.4232V13.4062ZM51.2826 6.78125H55.017V23H51.2826V6.78125ZM60.8607 13.4062C60.8607 12.3542 60.6003 11.5469 60.0795 10.9844C59.5691 10.4115 58.8399 10.125 57.892 10.125C56.9753 10.125 56.267 10.375 55.767 10.875C55.267 11.3646 55.017 12.0625 55.017 12.9688L54.6888 9.60938C55.1784 8.61979 55.8034 7.86458 56.5638 7.34375C57.3243 6.8125 58.1941 6.54688 59.1732 6.54688C60.3086 6.54688 61.2826 6.8125 62.0951 7.34375C62.9076 7.875 63.5222 8.65625 63.9388 9.6875C64.3659 10.7083 64.5795 11.9427 64.5795 13.3906V23H60.8607V13.4062ZM85.4857 23.2344C83.9545 23.2344 82.6472 22.9531 81.5638 22.3906C80.4805 21.8281 79.6524 21.0052 79.0795 19.9219C78.5066 18.8281 78.2201 17.5104 78.2201 15.9688V14.1406C78.2201 12.5365 78.4909 11.1667 79.0326 10.0312C79.5847 8.89583 80.3816 8.03125 81.4232 7.4375C82.4753 6.84375 83.7357 6.54688 85.2045 6.54688C86.5899 6.54688 87.7722 6.89583 88.7513 7.59375C89.7409 8.28125 90.4909 9.28125 91.0013 10.5938C91.5222 11.9062 91.7826 13.4896 91.7826 15.3438V16.4062H80.767V13.6719H88.3138L88.2982 13.5C88.1941 12.3646 87.8763 11.4844 87.3451 10.8594C86.8138 10.2344 86.1003 9.92188 85.2045 9.92188C84.0795 9.92188 83.2097 10.276 82.5951 10.9844C81.9805 11.6823 81.6732 12.6771 81.6732 13.9688V16.0312C81.6732 17.2604 82.0066 18.2083 82.6732 18.875C83.3399 19.5312 84.2774 19.8594 85.4857 19.8594C86.1003 19.8594 86.7045 19.7448 87.2982 19.5156C87.9024 19.276 88.4441 18.9479 88.9232 18.5312L91.3607 20.8125C90.5378 21.5833 89.6107 22.1823 88.5795 22.6094C87.5586 23.026 86.5274 23.2344 85.4857 23.2344ZM93.8138 6.78125H97.5326L100.408 17.5781L104.142 6.78125H106.517L110.251 17.5781L113.126 6.78125H116.845L111.845 23H109.048L105.329 12.1094L101.611 23H98.8138L93.8138 6.78125ZM126.033 23.2344C124.595 23.2344 123.361 22.9583 122.329 22.4062C121.309 21.8542 120.527 21.0521 119.986 20C119.454 18.9375 119.189 17.6615 119.189 16.1719V13.5312C119.189 12.0625 119.454 10.8073 119.986 9.76562C120.527 8.71354 121.309 7.91667 122.329 7.375C123.361 6.82292 124.595 6.54688 126.033 6.54688C127.47 6.54688 128.699 6.82292 129.72 7.375C130.751 7.91667 131.533 8.71354 132.064 9.76562C132.606 10.8073 132.876 12.0625 132.876 13.5312V16.2188C132.876 17.6979 132.606 18.9635 132.064 20.0156C131.533 21.0573 130.751 21.8542 129.72 22.4062C128.699 22.9583 127.47 23.2344 126.033 23.2344ZM126.033 19.6562C127.022 19.6562 127.788 19.3594 128.329 18.7656C128.871 18.1615 129.142 17.3125 129.142 16.2188V13.5312C129.142 12.4479 128.871 11.6094 128.329 11.0156C127.788 10.4219 127.022 10.125 126.033 10.125C125.043 10.125 124.277 10.4219 123.736 11.0156C123.194 11.6094 122.923 12.4479 122.923 13.5312V16.2188C122.923 17.3125 123.189 18.1615 123.72 18.7656C124.262 19.3594 125.033 19.6562 126.033 19.6562ZM137.095 6.78125H140.986V23H137.095V6.78125ZM146.126 10.9531C145.876 10.6823 145.569 10.4792 145.204 10.3438C144.84 10.1979 144.418 10.125 143.939 10.125C143.001 10.125 142.272 10.4062 141.751 10.9688C141.241 11.5208 140.986 12.2917 140.986 13.2812L140.658 9.60938C141.126 8.64062 141.736 7.89062 142.486 7.35938C143.246 6.81771 144.079 6.54688 144.986 6.54688C145.694 6.54688 146.335 6.65625 146.908 6.875C147.481 7.08333 147.981 7.39583 148.408 7.8125L146.126 10.9531ZM152.439 17L160.392 6.78125H164.533L152.626 21.25L152.439 17ZM150.751 0.28125H154.486V23H150.751V0.28125ZM156.236 14.125L159.033 12L165.329 23H161.126L156.236 14.125ZM173.658 23.2344C172.689 23.2344 171.767 23.1458 170.892 22.9688C170.017 22.7812 169.194 22.5104 168.423 22.1562C167.663 21.8021 166.975 21.3698 166.361 20.8594L168.626 18.0469C169.449 18.6302 170.288 19.0729 171.142 19.375C172.007 19.6771 172.845 19.8281 173.658 19.8281C174.793 19.8281 175.652 19.6771 176.236 19.375C176.829 19.0625 177.126 18.6146 177.126 18.0312C177.126 17.5833 176.981 17.25 176.689 17.0312C176.397 16.8021 176.027 16.6458 175.579 16.5625C175.142 16.4792 174.522 16.401 173.72 16.3281C173.585 16.3177 173.444 16.3073 173.298 16.2969C173.152 16.2865 173.012 16.2708 172.876 16.25C172.835 16.25 172.793 16.25 172.751 16.25C172.71 16.2396 172.668 16.2344 172.626 16.2344C171.491 16.1094 170.559 15.9375 169.829 15.7188C169.1 15.4896 168.486 15.0573 167.986 14.4219C167.496 13.7865 167.251 12.875 167.251 11.6875C167.251 10.5729 167.496 9.63542 167.986 8.875C168.486 8.10417 169.215 7.52604 170.173 7.14062C171.132 6.74479 172.309 6.54688 173.704 6.54688C174.538 6.54688 175.35 6.63021 176.142 6.79688C176.934 6.95312 177.689 7.1875 178.408 7.5C179.137 7.80208 179.824 8.18229 180.47 8.64062L178.236 11.3594C177.475 10.901 176.704 10.5521 175.923 10.3125C175.152 10.0729 174.402 9.95312 173.673 9.95312C172.694 9.95312 171.949 10.0938 171.439 10.375C170.928 10.6562 170.673 11.0729 170.673 11.625C170.673 11.9792 170.814 12.25 171.095 12.4375C171.376 12.625 171.725 12.7552 172.142 12.8281C172.569 12.8906 173.184 12.9583 173.986 13.0312C174.069 13.0417 174.147 13.0521 174.22 13.0625C174.303 13.0625 174.387 13.0677 174.47 13.0781C174.501 13.0781 174.538 13.0781 174.579 13.0781C174.621 13.0781 174.663 13.0833 174.704 13.0938C175.902 13.2083 176.897 13.3802 177.689 13.6094C178.481 13.8385 179.152 14.2969 179.704 14.9844C180.257 15.6615 180.533 16.651 180.533 17.9531C180.533 19.099 180.272 20.0677 179.751 20.8594C179.231 21.6406 178.454 22.2344 177.423 22.6406C176.402 23.0365 175.147 23.2344 173.658 23.2344ZM203.689 13.0781V16.6406H192.876V13.0781H203.689ZM219.001 19.4688H225.704C227.007 19.4688 227.975 19.1979 228.611 18.6562C229.246 18.1042 229.564 17.3385 229.564 16.3594V16.3125C229.564 15.6354 229.439 15.0573 229.189 14.5781C228.939 14.099 228.553 13.7344 228.033 13.4844C227.512 13.224 226.866 13.0938 226.095 13.0938H219.001V9.59375H226.095C227.126 9.59375 227.913 9.34375 228.454 8.84375C228.996 8.34375 229.267 7.61979 229.267 6.67188C229.267 5.73438 228.981 5.02604 228.408 4.54688C227.835 4.05729 226.991 3.8125 225.876 3.8125H219.001V0.28125H226.236C227.704 0.28125 228.944 0.53125 229.954 1.03125C230.975 1.52083 231.741 2.22396 232.251 3.14062C232.772 4.05729 233.033 5.15625 233.033 6.4375C233.033 7.27083 232.866 8.03125 232.533 8.71875C232.21 9.39583 231.725 9.96354 231.079 10.4219C230.444 10.8802 229.663 11.1927 228.736 11.3594C229.694 11.4948 230.517 11.8125 231.204 12.3125C231.892 12.8021 232.418 13.4323 232.783 14.2031C233.147 14.9635 233.329 15.8177 233.329 16.7656V16.8125C233.329 18.0729 233.053 19.1719 232.501 20.1094C231.96 21.0365 231.173 21.75 230.142 22.25C229.121 22.75 227.908 23 226.501 23H219.001V19.4688ZM217.126 0.28125H220.845V23H217.126V0.28125ZM246.517 12.7188C246.517 11.8125 246.246 11.1094 245.704 10.6094C245.173 10.1094 244.418 9.85938 243.439 9.85938C242.814 9.85938 242.199 9.95833 241.595 10.1562C240.991 10.3542 240.449 10.6302 239.97 10.9844L237.486 8.89062C238.121 8.15104 238.954 7.57812 239.986 7.17188C241.017 6.75521 242.163 6.54688 243.423 6.54688C244.798 6.54688 245.975 6.78646 246.954 7.26562C247.934 7.73438 248.678 8.42188 249.189 9.32812C249.71 10.224 249.97 11.3073 249.97 12.5781V23H246.517V12.7188ZM242.267 23.2344C240.402 23.2344 239.007 22.8229 238.079 22C237.152 21.1667 236.689 19.9062 236.689 18.2188C236.689 16.6146 237.158 15.4115 238.095 14.6094C239.033 13.8073 240.439 13.4062 242.314 13.4062H246.658L246.876 16.3125H242.329C241.59 16.3125 241.033 16.4688 240.658 16.7812C240.293 17.0938 240.111 17.5729 240.111 18.2188C240.111 18.8958 240.35 19.401 240.829 19.7344C241.309 20.0573 242.033 20.2188 243.001 20.2188C244.189 20.2188 245.069 20.0885 245.642 19.8281C246.225 19.5677 246.517 19.1615 246.517 18.6094L246.845 20.9219C246.668 21.4323 246.356 21.8594 245.908 22.2031C245.47 22.5469 244.939 22.8073 244.314 22.9844C243.689 23.151 243.007 23.2344 242.267 23.2344ZM261.204 23.2344C259.694 23.2344 258.402 22.9531 257.329 22.3906C256.257 21.8177 255.439 20.9896 254.876 19.9062C254.314 18.8125 254.033 17.4948 254.033 15.9531V13.75C254.033 12.2292 254.314 10.9323 254.876 9.85938C255.439 8.77604 256.257 7.95312 257.329 7.39062C258.402 6.82812 259.694 6.54688 261.204 6.54688C262.069 6.54688 262.882 6.65104 263.642 6.85938C264.413 7.05729 265.1 7.34896 265.704 7.73438C266.319 8.11979 266.829 8.58854 267.236 9.14062L264.704 11.5156C264.277 11.0677 263.777 10.724 263.204 10.4844C262.632 10.2448 262.033 10.125 261.408 10.125C260.251 10.125 259.356 10.4427 258.72 11.0781C258.085 11.7031 257.767 12.5938 257.767 13.75V15.9531C257.767 17.1406 258.079 18.0573 258.704 18.7031C259.34 19.3385 260.241 19.6562 261.408 19.6562C262.043 19.6562 262.647 19.526 263.22 19.2656C263.793 19.0052 264.288 18.6354 264.704 18.1562L267.236 20.6875C266.819 21.2292 266.303 21.6927 265.689 22.0781C265.085 22.4531 264.397 22.7396 263.626 22.9375C262.866 23.1354 262.059 23.2344 261.204 23.2344ZM272.126 17L280.079 6.78125H284.22L272.314 21.25L272.126 17ZM270.439 0.28125H274.173V23H270.439V0.28125ZM275.923 14.125L278.72 12L285.017 23H280.814L275.923 14.125ZM298.189 13.0781V16.6406H287.376V13.0781H298.189ZM309.517 23.2344C307.986 23.2344 306.678 22.9531 305.595 22.3906C304.512 21.8281 303.684 21.0052 303.111 19.9219C302.538 18.8281 302.251 17.5104 302.251 15.9688V14.1406C302.251 12.5365 302.522 11.1667 303.064 10.0312C303.616 8.89583 304.413 8.03125 305.454 7.4375C306.507 6.84375 307.767 6.54688 309.236 6.54688C310.621 6.54688 311.803 6.89583 312.783 7.59375C313.772 8.28125 314.522 9.28125 315.033 10.5938C315.553 11.9062 315.814 13.4896 315.814 15.3438V16.4062H304.798V13.6719H312.345L312.329 13.5C312.225 12.3646 311.908 11.4844 311.376 10.8594C310.845 10.2344 310.132 9.92188 309.236 9.92188C308.111 9.92188 307.241 10.276 306.626 10.9844C306.012 11.6823 305.704 12.6771 305.704 13.9688V16.0312C305.704 17.2604 306.038 18.2083 306.704 18.875C307.371 19.5312 308.309 19.8594 309.517 19.8594C310.132 19.8594 310.736 19.7448 311.329 19.5156C311.934 19.276 312.475 18.9479 312.954 18.5312L315.392 20.8125C314.569 21.5833 313.642 22.1823 312.611 22.6094C311.59 23.026 310.559 23.2344 309.517 23.2344ZM319.876 6.78125H323.611V23H319.876V6.78125ZM329.486 13.1719C329.486 12.2031 329.225 11.4531 328.704 10.9219C328.184 10.3906 327.444 10.125 326.486 10.125C325.569 10.125 324.861 10.375 324.361 10.875C323.861 11.3646 323.611 12.0625 323.611 12.9688L323.283 9.60938C323.772 8.60938 324.387 7.84896 325.126 7.32812C325.876 6.80729 326.757 6.54688 327.767 6.54688C329.496 6.54688 330.835 7.125 331.783 8.28125C332.741 9.42708 333.22 11.0521 333.22 13.1562V23H329.486V13.1719ZM346.736 0.28125H350.47V23H346.736V0.28125ZM342.814 23.2656C341.647 23.2656 340.647 23 339.814 22.4688C338.991 21.9271 338.361 21.151 337.923 20.1406C337.496 19.1198 337.283 17.8906 337.283 16.4531V13.3594C337.283 11.9219 337.496 10.6927 337.923 9.67188C338.35 8.64062 338.97 7.85938 339.783 7.32812C340.606 6.78646 341.59 6.51562 342.736 6.51562C343.652 6.51562 344.486 6.77083 345.236 7.28125C345.996 7.79167 346.606 8.51042 347.064 9.4375L346.736 12.8906C346.736 12.2656 346.626 11.7344 346.408 11.2969C346.189 10.8594 345.871 10.526 345.454 10.2969C345.038 10.0677 344.533 9.95312 343.939 9.95312C343.012 9.95312 342.293 10.2552 341.783 10.8594C341.272 11.4635 341.017 12.3073 341.017 13.3906V16.4531C341.017 17.526 341.272 18.3594 341.783 18.9531C342.293 19.5365 343.012 19.8281 343.939 19.8281C344.533 19.8281 345.038 19.7135 345.454 19.4844C345.871 19.2448 346.189 18.9062 346.408 18.4688C346.626 18.0312 346.736 17.5052 346.736 16.8906L346.954 20.4531C346.632 21.2969 346.111 21.9792 345.392 22.5C344.684 23.0104 343.824 23.2656 342.814 23.2656Z" fill="#171717"/>
<path d="M364.752 11.3637V11.6363C366.331 11.8068 367.104 12.6644 367.104 14.3112V17.3154C367.104 19.1444 367.717 19.8867 369.232 19.8867H369.661V21.5H369.07C366.537 21.5 365.343 20.2311 365.343 17.5679V15.02C365.343 13.191 364.752 12.5858 363.001 12.5858V10.4142C364.752 10.4142 365.343 9.80895 365.343 7.97998V5.43213C365.343 2.76891 366.535 1.5 369.07 1.5H369.661V3.11164H369.232C367.717 3.11164 367.104 3.85393 367.104 5.6829V8.68883C367.104 10.3339 366.331 11.1916 364.752 11.3637ZM383.251 11.6363V11.3637C381.671 11.1916 380.898 10.3339 380.898 8.68883V5.6829C380.898 3.85393 380.285 3.11164 378.771 3.11164H378.342V1.5H378.932C381.467 1.5 382.66 2.76891 382.66 5.43213V7.97998C382.66 9.80895 383.251 10.4142 385.001 10.4142V12.5858C383.251 12.5858 382.66 13.191 382.66 15.02V17.5679C382.66 20.2311 381.466 21.5 378.932 21.5H378.342V19.8884H378.771C380.285 19.8884 380.898 19.1461 380.898 17.3171V14.3112C380.898 12.6661 381.671 11.8085 383.251 11.6363Z" fill="#171717"/>
</svg>
