<svg width="360" height="30" viewBox="0 0 360 30" fill="none" xmlns="http://www.w3.org/2000/svg">
<path d="M3.12634 0.28125H6.86072V23H3.12634V0.28125ZM4.87634 19.4219H18.0326V23H4.87634V19.4219ZM30.2045 12.7188C30.2045 11.8125 29.9336 11.1094 29.392 10.6094C28.8607 10.1094 28.1055 9.85938 27.1263 9.85938C26.5013 9.85938 25.8868 9.95833 25.2826 10.1562C24.6784 10.3542 24.1368 10.6302 23.6576 10.9844L21.1732 8.89062C21.8086 8.15104 22.642 7.57812 23.6732 7.17188C24.7045 6.75521 25.8503 6.54688 27.1107 6.54688C28.4857 6.54688 29.6628 6.78646 30.642 7.26562C31.6211 7.73438 32.3659 8.42188 32.8763 9.32812C33.3972 10.224 33.6576 11.3073 33.6576 12.5781V23H30.2045V12.7188ZM25.9545 23.2344C24.0899 23.2344 22.6941 22.8229 21.767 22C20.8399 21.1667 20.3763 19.9062 20.3763 18.2188C20.3763 16.6146 20.8451 15.4115 21.7826 14.6094C22.7201 13.8073 24.1263 13.4062 26.0013 13.4062H30.3451L30.5638 16.3125H26.017C25.2774 16.3125 24.7201 16.4688 24.3451 16.7812C23.9805 17.0938 23.7982 17.5729 23.7982 18.2188C23.7982 18.8958 24.0378 19.401 24.517 19.7344C24.9961 20.0573 25.7201 20.2188 26.6888 20.2188C27.8763 20.2188 28.7566 20.0885 29.3295 19.8281C29.9128 19.5677 30.2045 19.1615 30.2045 18.6094L30.5326 20.9219C30.3555 21.4323 30.043 21.8594 29.5951 22.2031C29.1576 22.5469 28.6263 22.8073 28.0013 22.9844C27.3763 23.151 26.6941 23.2344 25.9545 23.2344ZM38.1888 6.78125H41.9232V23H38.1888V6.78125ZM47.7982 13.1719C47.7982 12.2031 47.5378 11.4531 47.017 10.9219C46.4961 10.3906 45.7566 10.125 44.7982 10.125C43.8816 10.125 43.1732 10.375 42.6732 10.875C42.1732 11.3646 41.9232 12.0625 41.9232 12.9688L41.5951 9.60938C42.0847 8.60938 42.6993 7.84896 43.4388 7.32812C44.1888 6.80729 45.0691 6.54688 46.0795 6.54688C47.8086 6.54688 49.1472 7.125 50.0951 8.28125C51.0534 9.42708 51.5326 11.0521 51.5326 13.1562V23H47.7982V13.1719ZM61.6576 29.5938C60.4076 29.5938 59.2878 29.3646 58.2982 28.9062C57.3086 28.4583 56.5378 27.8229 55.9857 27L58.5013 24.7031C58.8868 25.1927 59.3503 25.5677 59.892 25.8281C60.4441 26.0885 61.017 26.2188 61.6107 26.2188C62.6732 26.2188 63.5118 25.9271 64.1263 25.3438C64.7409 24.7708 65.0482 23.9583 65.0482 22.9062V6.78125H68.7826V22.5156C68.7826 24.0052 68.5013 25.2812 67.9388 26.3438C67.3868 27.4062 66.5743 28.2135 65.5013 28.7656C64.4388 29.3177 63.1576 29.5938 61.6576 29.5938ZM61.1263 23.2656C59.9597 23.2656 58.9597 23 58.1263 22.4688C57.3034 21.9271 56.6732 21.151 56.2357 20.1406C55.8086 19.1198 55.5951 17.8906 55.5951 16.4531V13.3594C55.5951 11.9219 55.8086 10.6927 56.2357 9.67188C56.6628 8.64062 57.2826 7.85938 58.0951 7.32812C58.918 6.78646 59.9024 6.51562 61.0482 6.51562C61.9649 6.51562 62.7982 6.77083 63.5482 7.28125C64.3086 7.79167 64.918 8.51042 65.3763 9.4375L65.0482 12.8906C65.0482 12.2656 64.9388 11.7344 64.7201 11.2969C64.5013 10.8594 64.1836 10.526 63.767 10.2969C63.3503 10.0677 62.8451 9.95312 62.2513 9.95312C61.3243 9.95312 60.6055 10.2552 60.0951 10.8594C59.5847 11.4635 59.3295 12.3073 59.3295 13.3906V16.4531C59.3295 17.526 59.5847 18.3594 60.0951 18.9531C60.6055 19.5365 61.3243 19.8281 62.2513 19.8281C62.8451 19.8281 63.3503 19.7135 63.767 19.4844C64.1836 19.2448 64.5013 18.9062 64.7201 18.4688C64.9388 18.0312 65.0482 17.5052 65.0482 16.8906L65.267 20.4531C64.9441 21.2969 64.4232 21.9792 63.7045 22.5C62.9961 23.0104 62.1368 23.2656 61.1263 23.2656ZM82.8607 6.78125H86.5795V23H82.8607V6.78125ZM77.0482 16.6406C77.0482 17.599 77.3034 18.3438 77.8138 18.875C78.3243 19.3958 79.043 19.6562 79.9701 19.6562C80.8972 19.6562 81.6107 19.4115 82.1107 18.9219C82.6107 18.4219 82.8607 17.7083 82.8607 16.7812L83.0795 20.25C82.767 21.0938 82.2461 21.8021 81.517 22.375C80.7878 22.9479 79.8972 23.2344 78.8451 23.2344C77.0847 23.2344 75.7201 22.6667 74.7513 21.5312C73.793 20.3958 73.3138 18.7917 73.3138 16.7188V6.78125H77.0482V16.6406ZM100.173 12.7188C100.173 11.8125 99.9024 11.1094 99.3607 10.6094C98.8295 10.1094 98.0743 9.85938 97.0951 9.85938C96.4701 9.85938 95.8555 9.95833 95.2513 10.1562C94.6472 10.3542 94.1055 10.6302 93.6263 10.9844L91.142 8.89062C91.7774 8.15104 92.6107 7.57812 93.642 7.17188C94.6732 6.75521 95.8191 6.54688 97.0795 6.54688C98.4545 6.54688 99.6316 6.78646 100.611 7.26562C101.59 7.73438 102.335 8.42188 102.845 9.32812C103.366 10.224 103.626 11.3073 103.626 12.5781V23H100.173V12.7188ZM95.9232 23.2344C94.0586 23.2344 92.6628 22.8229 91.7357 22C90.8086 21.1667 90.3451 19.9062 90.3451 18.2188C90.3451 16.6146 90.8138 15.4115 91.7513 14.6094C92.6888 13.8073 94.0951 13.4062 95.9701 13.4062H100.314L100.533 16.3125H95.9857C95.2461 16.3125 94.6888 16.4688 94.3138 16.7812C93.9493 17.0938 93.767 17.5729 93.767 18.2188C93.767 18.8958 94.0066 19.401 94.4857 19.7344C94.9649 20.0573 95.6888 20.2188 96.6576 20.2188C97.8451 20.2188 98.7253 20.0885 99.2982 19.8281C99.8816 19.5677 100.173 19.1615 100.173 18.6094L100.501 20.9219C100.324 21.4323 100.012 21.8594 99.5638 22.2031C99.1263 22.5469 98.5951 22.8073 97.9701 22.9844C97.3451 23.151 96.6628 23.2344 95.9232 23.2344ZM113.751 29.5938C112.501 29.5938 111.382 29.3646 110.392 28.9062C109.402 28.4583 108.632 27.8229 108.079 27L110.595 24.7031C110.981 25.1927 111.444 25.5677 111.986 25.8281C112.538 26.0885 113.111 26.2188 113.704 26.2188C114.767 26.2188 115.606 25.9271 116.22 25.3438C116.835 24.7708 117.142 23.9583 117.142 22.9062V6.78125H120.876V22.5156C120.876 24.0052 120.595 25.2812 120.033 26.3438C119.481 27.4062 118.668 28.2135 117.595 28.7656C116.533 29.3177 115.251 29.5938 113.751 29.5938ZM113.22 23.2656C112.053 23.2656 111.053 23 110.22 22.4688C109.397 21.9271 108.767 21.151 108.329 20.1406C107.902 19.1198 107.689 17.8906 107.689 16.4531V13.3594C107.689 11.9219 107.902 10.6927 108.329 9.67188C108.757 8.64062 109.376 7.85938 110.189 7.32812C111.012 6.78646 111.996 6.51562 113.142 6.51562C114.059 6.51562 114.892 6.77083 115.642 7.28125C116.402 7.79167 117.012 8.51042 117.47 9.4375L117.142 12.8906C117.142 12.2656 117.033 11.7344 116.814 11.2969C116.595 10.8594 116.277 10.526 115.861 10.2969C115.444 10.0677 114.939 9.95312 114.345 9.95312C113.418 9.95312 112.699 10.2552 112.189 10.8594C111.678 11.4635 111.423 12.3073 111.423 13.3906V16.4531C111.423 17.526 111.678 18.3594 112.189 18.9531C112.699 19.5365 113.418 19.8281 114.345 19.8281C114.939 19.8281 115.444 19.7135 115.861 19.4844C116.277 19.2448 116.595 18.9062 116.814 18.4688C117.033 18.0312 117.142 17.5052 117.142 16.8906L117.361 20.4531C117.038 21.2969 116.517 21.9792 115.798 22.5C115.09 23.0104 114.231 23.2656 113.22 23.2656ZM132.204 23.2344C130.673 23.2344 129.366 22.9531 128.283 22.3906C127.199 21.8281 126.371 21.0052 125.798 19.9219C125.225 18.8281 124.939 17.5104 124.939 15.9688V14.1406C124.939 12.5365 125.21 11.1667 125.751 10.0312C126.303 8.89583 127.1 8.03125 128.142 7.4375C129.194 6.84375 130.454 6.54688 131.923 6.54688C133.309 6.54688 134.491 6.89583 135.47 7.59375C136.46 8.28125 137.21 9.28125 137.72 10.5938C138.241 11.9062 138.501 13.4896 138.501 15.3438V16.4062H127.486V13.6719H135.033L135.017 13.5C134.913 12.3646 134.595 11.4844 134.064 10.8594C133.533 10.2344 132.819 9.92188 131.923 9.92188C130.798 9.92188 129.928 10.276 129.314 10.9844C128.699 11.6823 128.392 12.6771 128.392 13.9688V16.0312C128.392 17.2604 128.725 18.2083 129.392 18.875C130.059 19.5312 130.996 19.8594 132.204 19.8594C132.819 19.8594 133.423 19.7448 134.017 19.5156C134.621 19.276 135.163 18.9479 135.642 18.5312L138.079 20.8125C137.257 21.5833 136.329 22.1823 135.298 22.6094C134.277 23.026 133.246 23.2344 132.204 23.2344ZM148.533 23.2344C147.564 23.2344 146.642 23.1458 145.767 22.9688C144.892 22.7812 144.069 22.5104 143.298 22.1562C142.538 21.8021 141.85 21.3698 141.236 20.8594L143.501 18.0469C144.324 18.6302 145.163 19.0729 146.017 19.375C146.882 19.6771 147.72 19.8281 148.533 19.8281C149.668 19.8281 150.527 19.6771 151.111 19.375C151.704 19.0625 152.001 18.6146 152.001 18.0312C152.001 17.5833 151.856 17.25 151.564 17.0312C151.272 16.8021 150.902 16.6458 150.454 16.5625C150.017 16.4792 149.397 16.401 148.595 16.3281C148.46 16.3177 148.319 16.3073 148.173 16.2969C148.027 16.2865 147.887 16.2708 147.751 16.25C147.71 16.25 147.668 16.25 147.626 16.25C147.585 16.2396 147.543 16.2344 147.501 16.2344C146.366 16.1094 145.434 15.9375 144.704 15.7188C143.975 15.4896 143.361 15.0573 142.861 14.4219C142.371 13.7865 142.126 12.875 142.126 11.6875C142.126 10.5729 142.371 9.63542 142.861 8.875C143.361 8.10417 144.09 7.52604 145.048 7.14062C146.007 6.74479 147.184 6.54688 148.579 6.54688C149.413 6.54688 150.225 6.63021 151.017 6.79688C151.809 6.95312 152.564 7.1875 153.283 7.5C154.012 7.80208 154.699 8.18229 155.345 8.64062L153.111 11.3594C152.35 10.901 151.579 10.5521 150.798 10.3125C150.027 10.0729 149.277 9.95312 148.548 9.95312C147.569 9.95312 146.824 10.0938 146.314 10.375C145.803 10.6562 145.548 11.0729 145.548 11.625C145.548 11.9792 145.689 12.25 145.97 12.4375C146.251 12.625 146.6 12.7552 147.017 12.8281C147.444 12.8906 148.059 12.9583 148.861 13.0312C148.944 13.0417 149.022 13.0521 149.095 13.0625C149.178 13.0625 149.262 13.0677 149.345 13.0781C149.376 13.0781 149.413 13.0781 149.454 13.0781C149.496 13.0781 149.538 13.0833 149.579 13.0938C150.777 13.2083 151.772 13.3802 152.564 13.6094C153.356 13.8385 154.027 14.2969 154.579 14.9844C155.132 15.6615 155.408 16.651 155.408 17.9531C155.408 19.099 155.147 20.0677 154.626 20.8594C154.106 21.6406 153.329 22.2344 152.298 22.6406C151.277 23.0365 150.022 23.2344 148.533 23.2344ZM178.564 13.0781V16.6406H167.751V13.0781H178.564ZM193.876 19.4688H200.579C201.882 19.4688 202.85 19.1979 203.486 18.6562C204.121 18.1042 204.439 17.3385 204.439 16.3594V16.3125C204.439 15.6354 204.314 15.0573 204.064 14.5781C203.814 14.099 203.428 13.7344 202.908 13.4844C202.387 13.224 201.741 13.0938 200.97 13.0938H193.876V9.59375H200.97C202.001 9.59375 202.788 9.34375 203.329 8.84375C203.871 8.34375 204.142 7.61979 204.142 6.67188C204.142 5.73438 203.856 5.02604 203.283 4.54688C202.71 4.05729 201.866 3.8125 200.751 3.8125H193.876V0.28125H201.111C202.579 0.28125 203.819 0.53125 204.829 1.03125C205.85 1.52083 206.616 2.22396 207.126 3.14062C207.647 4.05729 207.908 5.15625 207.908 6.4375C207.908 7.27083 207.741 8.03125 207.408 8.71875C207.085 9.39583 206.6 9.96354 205.954 10.4219C205.319 10.8802 204.538 11.1927 203.611 11.3594C204.569 11.4948 205.392 11.8125 206.079 12.3125C206.767 12.8021 207.293 13.4323 207.658 14.2031C208.022 14.9635 208.204 15.8177 208.204 16.7656V16.8125C208.204 18.0729 207.928 19.1719 207.376 20.1094C206.835 21.0365 206.048 21.75 205.017 22.25C203.996 22.75 202.783 23 201.376 23H193.876V19.4688ZM192.001 0.28125H195.72V23H192.001V0.28125ZM221.392 12.7188C221.392 11.8125 221.121 11.1094 220.579 10.6094C220.048 10.1094 219.293 9.85938 218.314 9.85938C217.689 9.85938 217.074 9.95833 216.47 10.1562C215.866 10.3542 215.324 10.6302 214.845 10.9844L212.361 8.89062C212.996 8.15104 213.829 7.57812 214.861 7.17188C215.892 6.75521 217.038 6.54688 218.298 6.54688C219.673 6.54688 220.85 6.78646 221.829 7.26562C222.809 7.73438 223.553 8.42188 224.064 9.32812C224.585 10.224 224.845 11.3073 224.845 12.5781V23H221.392V12.7188ZM217.142 23.2344C215.277 23.2344 213.882 22.8229 212.954 22C212.027 21.1667 211.564 19.9062 211.564 18.2188C211.564 16.6146 212.033 15.4115 212.97 14.6094C213.908 13.8073 215.314 13.4062 217.189 13.4062H221.533L221.751 16.3125H217.204C216.465 16.3125 215.908 16.4688 215.533 16.7812C215.168 17.0938 214.986 17.5729 214.986 18.2188C214.986 18.8958 215.225 19.401 215.704 19.7344C216.184 20.0573 216.908 20.2188 217.876 20.2188C219.064 20.2188 219.944 20.0885 220.517 19.8281C221.1 19.5677 221.392 19.1615 221.392 18.6094L221.72 20.9219C221.543 21.4323 221.231 21.8594 220.783 22.2031C220.345 22.5469 219.814 22.8073 219.189 22.9844C218.564 23.151 217.882 23.2344 217.142 23.2344ZM236.079 23.2344C234.569 23.2344 233.277 22.9531 232.204 22.3906C231.132 21.8177 230.314 20.9896 229.751 19.9062C229.189 18.8125 228.908 17.4948 228.908 15.9531V13.75C228.908 12.2292 229.189 10.9323 229.751 9.85938C230.314 8.77604 231.132 7.95312 232.204 7.39062C233.277 6.82812 234.569 6.54688 236.079 6.54688C236.944 6.54688 237.757 6.65104 238.517 6.85938C239.288 7.05729 239.975 7.34896 240.579 7.73438C241.194 8.11979 241.704 8.58854 242.111 9.14062L239.579 11.5156C239.152 11.0677 238.652 10.724 238.079 10.4844C237.507 10.2448 236.908 10.125 236.283 10.125C235.126 10.125 234.231 10.4427 233.595 11.0781C232.96 11.7031 232.642 12.5938 232.642 13.75V15.9531C232.642 17.1406 232.954 18.0573 233.579 18.7031C234.215 19.3385 235.116 19.6562 236.283 19.6562C236.918 19.6562 237.522 19.526 238.095 19.2656C238.668 19.0052 239.163 18.6354 239.579 18.1562L242.111 20.6875C241.694 21.2292 241.178 21.6927 240.564 22.0781C239.96 22.4531 239.272 22.7396 238.501 22.9375C237.741 23.1354 236.934 23.2344 236.079 23.2344ZM247.001 17L254.954 6.78125H259.095L247.189 21.25L247.001 17ZM245.314 0.28125H249.048V23H245.314V0.28125ZM250.798 14.125L253.595 12L259.892 23H255.689L250.798 14.125ZM273.064 13.0781V16.6406H262.251V13.0781H273.064ZM284.392 23.2344C282.861 23.2344 281.553 22.9531 280.47 22.3906C279.387 21.8281 278.559 21.0052 277.986 19.9219C277.413 18.8281 277.126 17.5104 277.126 15.9688V14.1406C277.126 12.5365 277.397 11.1667 277.939 10.0312C278.491 8.89583 279.288 8.03125 280.329 7.4375C281.382 6.84375 282.642 6.54688 284.111 6.54688C285.496 6.54688 286.678 6.89583 287.658 7.59375C288.647 8.28125 289.397 9.28125 289.908 10.5938C290.428 11.9062 290.689 13.4896 290.689 15.3438V16.4062H279.673V13.6719H287.22L287.204 13.5C287.1 12.3646 286.783 11.4844 286.251 10.8594C285.72 10.2344 285.007 9.92188 284.111 9.92188C282.986 9.92188 282.116 10.276 281.501 10.9844C280.887 11.6823 280.579 12.6771 280.579 13.9688V16.0312C280.579 17.2604 280.913 18.2083 281.579 18.875C282.246 19.5312 283.184 19.8594 284.392 19.8594C285.007 19.8594 285.611 19.7448 286.204 19.5156C286.809 19.276 287.35 18.9479 287.829 18.5312L290.267 20.8125C289.444 21.5833 288.517 22.1823 287.486 22.6094C286.465 23.026 285.434 23.2344 284.392 23.2344ZM294.751 6.78125H298.486V23H294.751V6.78125ZM304.361 13.1719C304.361 12.2031 304.1 11.4531 303.579 10.9219C303.059 10.3906 302.319 10.125 301.361 10.125C300.444 10.125 299.736 10.375 299.236 10.875C298.736 11.3646 298.486 12.0625 298.486 12.9688L298.158 9.60938C298.647 8.60938 299.262 7.84896 300.001 7.32812C300.751 6.80729 301.632 6.54688 302.642 6.54688C304.371 6.54688 305.71 7.125 306.658 8.28125C307.616 9.42708 308.095 11.0521 308.095 13.1562V23H304.361V13.1719ZM321.611 0.28125H325.345V23H321.611V0.28125ZM317.689 23.2656C316.522 23.2656 315.522 23 314.689 22.4688C313.866 21.9271 313.236 21.151 312.798 20.1406C312.371 19.1198 312.158 17.8906 312.158 16.4531V13.3594C312.158 11.9219 312.371 10.6927 312.798 9.67188C313.225 8.64062 313.845 7.85938 314.658 7.32812C315.481 6.78646 316.465 6.51562 317.611 6.51562C318.527 6.51562 319.361 6.77083 320.111 7.28125C320.871 7.79167 321.481 8.51042 321.939 9.4375L321.611 12.8906C321.611 12.2656 321.501 11.7344 321.283 11.2969C321.064 10.8594 320.746 10.526 320.329 10.2969C319.913 10.0677 319.408 9.95312 318.814 9.95312C317.887 9.95312 317.168 10.2552 316.658 10.8594C316.147 11.4635 315.892 12.3073 315.892 13.3906V16.4531C315.892 17.526 316.147 18.3594 316.658 18.9531C317.168 19.5365 317.887 19.8281 318.814 19.8281C319.408 19.8281 319.913 19.7135 320.329 19.4844C320.746 19.2448 321.064 18.9062 321.283 18.4688C321.501 18.0312 321.611 17.5052 321.611 16.8906L321.829 20.4531C321.507 21.2969 320.986 21.9792 320.267 22.5C319.559 23.0104 318.699 23.2656 317.689 23.2656Z" fill="#171717"/>
<path d="M339.752 11.3637V11.6363C341.331 11.8068 342.104 12.6644 342.104 14.3112V17.3154C342.104 19.1444 342.717 19.8867 344.232 19.8867H344.661V21.5H344.07C341.537 21.5 340.343 20.2311 340.343 17.5679V15.02C340.343 13.191 339.752 12.5858 338.001 12.5858V10.4142C339.752 10.4142 340.343 9.80895 340.343 7.97998V5.43213C340.343 2.76891 341.535 1.5 344.07 1.5H344.661V3.11164H344.232C342.717 3.11164 342.104 3.85393 342.104 5.6829V8.68883C342.104 10.3339 341.331 11.1916 339.752 11.3637ZM358.251 11.6363V11.3637C356.671 11.1916 355.898 10.3339 355.898 8.68883V5.6829C355.898 3.85393 355.285 3.11164 353.771 3.11164H353.342V1.5H353.932C356.467 1.5 357.66 2.76891 357.66 5.43213V7.97998C357.66 9.80895 358.251 10.4142 360.001 10.4142V12.5858C358.251 12.5858 357.66 13.191 357.66 15.02V17.5679C357.66 20.2311 356.466 21.5 353.932 21.5H353.342V19.8884H353.771C355.285 19.8884 355.898 19.1461 355.898 17.3171V14.3112C355.898 12.6661 356.671 11.8085 358.251 11.6363Z" fill="#171717"/>
</svg>
