<svg width="278" height="24" viewBox="0 0 278 24" fill="none" xmlns="http://www.w3.org/2000/svg">
<path d="M2.34509 1.46094H5.14587V18.5H2.34509V1.46094ZM3.65759 15.8164H13.5248V18.5H3.65759V15.8164ZM22.6537 10.7891C22.6537 10.1094 22.4506 9.58203 22.0443 9.20703C21.6459 8.83203 21.0795 8.64453 20.3451 8.64453C19.8763 8.64453 19.4154 8.71875 18.9623 8.86719C18.5092 9.01562 18.1029 9.22266 17.7435 9.48828L15.8802 7.91797C16.3568 7.36328 16.9818 6.93359 17.7552 6.62891C18.5287 6.31641 19.3881 6.16016 20.3334 6.16016C21.3646 6.16016 22.2474 6.33984 22.9818 6.69922C23.7162 7.05078 24.2748 7.56641 24.6576 8.24609C25.0482 8.91797 25.2435 9.73047 25.2435 10.6836V18.5H22.6537V10.7891ZM19.4662 18.6758C18.0677 18.6758 17.0209 18.3672 16.3256 17.75C15.6302 17.125 15.2826 16.1797 15.2826 14.9141C15.2826 13.7109 15.6342 12.8086 16.3373 12.207C17.0404 11.6055 18.0951 11.3047 19.5013 11.3047H22.7592L22.9232 13.4844H19.5131C18.9584 13.4844 18.5404 13.6016 18.2592 13.8359C17.9857 14.0703 17.849 14.4297 17.849 14.9141C17.849 15.4219 18.0287 15.8008 18.3881 16.0508C18.7474 16.293 19.2904 16.4141 20.017 16.4141C20.9076 16.4141 21.5677 16.3164 21.9974 16.1211C22.4349 15.9258 22.6537 15.6211 22.6537 15.207L22.8998 16.9414C22.767 17.3242 22.5326 17.6445 22.1967 17.9023C21.8685 18.1602 21.4701 18.3555 21.0013 18.4883C20.5326 18.6133 20.0209 18.6758 19.4662 18.6758ZM28.642 6.33594H31.4427V18.5H28.642V6.33594ZM35.849 11.1289C35.849 10.4023 35.6537 9.83984 35.2631 9.44141C34.8724 9.04297 34.3177 8.84375 33.599 8.84375C32.9115 8.84375 32.3802 9.03125 32.0052 9.40625C31.6302 9.77344 31.4427 10.2969 31.4427 10.9766L31.1967 8.45703C31.5638 7.70703 32.0248 7.13672 32.5795 6.74609C33.142 6.35547 33.8021 6.16016 34.5599 6.16016C35.8568 6.16016 36.8607 6.59375 37.5717 7.46094C38.2904 8.32031 38.6498 9.53906 38.6498 11.1172V18.5H35.849V11.1289ZM46.2435 23.4453C45.306 23.4453 44.4662 23.2734 43.724 22.9297C42.9818 22.5938 42.4037 22.1172 41.9896 21.5L43.8763 19.7773C44.1654 20.1445 44.5131 20.4258 44.9193 20.6211C45.3334 20.8164 45.7631 20.9141 46.2084 20.9141C47.0052 20.9141 47.6342 20.6953 48.0951 20.2578C48.556 19.8281 48.7865 19.2188 48.7865 18.4297V6.33594H51.5873V18.1367C51.5873 19.2539 51.3763 20.2109 50.9545 21.0078C50.5404 21.8047 49.931 22.4102 49.1263 22.8242C48.3295 23.2383 47.3685 23.4453 46.2435 23.4453ZM45.8451 18.6992C44.9701 18.6992 44.2201 18.5 43.5951 18.1016C42.9779 17.6953 42.5052 17.1133 42.1771 16.3555C41.8568 15.5898 41.6967 14.668 41.6967 13.5898V11.2695C41.6967 10.1914 41.8568 9.26953 42.1771 8.50391C42.4974 7.73047 42.9623 7.14453 43.5717 6.74609C44.1888 6.33984 44.9271 6.13672 45.7865 6.13672C46.474 6.13672 47.099 6.32812 47.6615 6.71094C48.2318 7.09375 48.6888 7.63281 49.0326 8.32812L48.7865 10.918C48.7865 10.4492 48.7045 10.0508 48.5404 9.72266C48.3763 9.39453 48.1381 9.14453 47.8256 8.97266C47.5131 8.80078 47.1342 8.71484 46.6888 8.71484C45.9935 8.71484 45.4545 8.94141 45.0717 9.39453C44.6888 9.84766 44.4974 10.4805 44.4974 11.293V13.5898C44.4974 14.3945 44.6888 15.0195 45.0717 15.4648C45.4545 15.9023 45.9935 16.1211 46.6888 16.1211C47.1342 16.1211 47.5131 16.0352 47.8256 15.8633C48.1381 15.6836 48.3763 15.4297 48.5404 15.1016C48.7045 14.7734 48.7865 14.3789 48.7865 13.918L48.9506 16.5898C48.7084 17.2227 48.3177 17.7344 47.7787 18.125C47.2474 18.5078 46.6029 18.6992 45.8451 18.6992ZM62.1459 6.33594H64.9349V18.5H62.1459V6.33594ZM57.7865 13.7305C57.7865 14.4492 57.9779 15.0078 58.3607 15.4062C58.7435 15.7969 59.2826 15.9922 59.9779 15.9922C60.6732 15.9922 61.2084 15.8086 61.5834 15.4414C61.9584 15.0664 62.1459 14.5312 62.1459 13.8359L62.3099 16.4375C62.0756 17.0703 61.6849 17.6016 61.1381 18.0312C60.5912 18.4609 59.9232 18.6758 59.1342 18.6758C57.8138 18.6758 56.7904 18.25 56.0638 17.3984C55.3451 16.5469 54.9857 15.3438 54.9857 13.7891V6.33594H57.7865V13.7305ZM75.1302 10.7891C75.1302 10.1094 74.9271 9.58203 74.5209 9.20703C74.1224 8.83203 73.556 8.64453 72.8217 8.64453C72.3529 8.64453 71.892 8.71875 71.4388 8.86719C70.9857 9.01562 70.5795 9.22266 70.2201 9.48828L68.3568 7.91797C68.8334 7.36328 69.4584 6.93359 70.2318 6.62891C71.0052 6.31641 71.8646 6.16016 72.8099 6.16016C73.8412 6.16016 74.724 6.33984 75.4584 6.69922C76.1927 7.05078 76.7513 7.56641 77.1342 8.24609C77.5248 8.91797 77.7201 9.73047 77.7201 10.6836V18.5H75.1302V10.7891ZM71.9427 18.6758C70.5443 18.6758 69.4974 18.3672 68.8021 17.75C68.1068 17.125 67.7592 16.1797 67.7592 14.9141C67.7592 13.7109 68.1107 12.8086 68.8138 12.207C69.517 11.6055 70.5717 11.3047 71.9779 11.3047H75.2357L75.3998 13.4844H71.9896C71.4349 13.4844 71.017 13.6016 70.7357 13.8359C70.4623 14.0703 70.3256 14.4297 70.3256 14.9141C70.3256 15.4219 70.5052 15.8008 70.8646 16.0508C71.224 16.293 71.767 16.4141 72.4935 16.4141C73.3842 16.4141 74.0443 16.3164 74.474 16.1211C74.9115 15.9258 75.1302 15.6211 75.1302 15.207L75.3763 16.9414C75.2435 17.3242 75.0092 17.6445 74.6732 17.9023C74.3451 18.1602 73.9467 18.3555 73.4779 18.4883C73.0092 18.6133 72.4974 18.6758 71.9427 18.6758ZM85.3138 23.4453C84.3763 23.4453 83.5365 23.2734 82.7943 22.9297C82.0521 22.5938 81.474 22.1172 81.0599 21.5L82.9467 19.7773C83.2357 20.1445 83.5834 20.4258 83.9896 20.6211C84.4037 20.8164 84.8334 20.9141 85.2787 20.9141C86.0756 20.9141 86.7045 20.6953 87.1654 20.2578C87.6263 19.8281 87.8568 19.2188 87.8568 18.4297V6.33594H90.6576V18.1367C90.6576 19.2539 90.4467 20.2109 90.0248 21.0078C89.6107 21.8047 89.0013 22.4102 88.1967 22.8242C87.3998 23.2383 86.4388 23.4453 85.3138 23.4453ZM84.9154 18.6992C84.0404 18.6992 83.2904 18.5 82.6654 18.1016C82.0482 17.6953 81.5756 17.1133 81.2474 16.3555C80.9271 15.5898 80.767 14.668 80.767 13.5898V11.2695C80.767 10.1914 80.9271 9.26953 81.2474 8.50391C81.5677 7.73047 82.0326 7.14453 82.642 6.74609C83.2592 6.33984 83.9974 6.13672 84.8568 6.13672C85.5443 6.13672 86.1693 6.32812 86.7318 6.71094C87.3021 7.09375 87.7592 7.63281 88.1029 8.32812L87.8568 10.918C87.8568 10.4492 87.7748 10.0508 87.6107 9.72266C87.4467 9.39453 87.2084 9.14453 86.8959 8.97266C86.5834 8.80078 86.2045 8.71484 85.7592 8.71484C85.0638 8.71484 84.5248 8.94141 84.142 9.39453C83.7592 9.84766 83.5677 10.4805 83.5677 11.293V13.5898C83.5677 14.3945 83.7592 15.0195 84.142 15.4648C84.5248 15.9023 85.0638 16.1211 85.7592 16.1211C86.2045 16.1211 86.5834 16.0352 86.8959 15.8633C87.2084 15.6836 87.4467 15.4297 87.6107 15.1016C87.7748 14.7734 87.8568 14.3789 87.8568 13.918L88.0209 16.5898C87.7787 17.2227 87.3881 17.7344 86.849 18.125C86.3177 18.5078 85.6732 18.6992 84.9154 18.6992ZM99.1537 18.6758C98.0052 18.6758 97.0248 18.4648 96.2123 18.043C95.3998 17.6211 94.7787 17.0039 94.349 16.1914C93.9193 15.3711 93.7045 14.3828 93.7045 13.2266V11.8555C93.7045 10.6523 93.9076 9.625 94.3138 8.77344C94.7279 7.92188 95.3256 7.27344 96.1068 6.82812C96.8959 6.38281 97.8412 6.16016 98.9427 6.16016C99.9818 6.16016 100.869 6.42187 101.603 6.94531C102.345 7.46094 102.908 8.21094 103.29 9.19531C103.681 10.1797 103.876 11.3672 103.876 12.7578V13.5547H95.6146V11.5039H101.275L101.263 11.375C101.185 10.5234 100.947 9.86328 100.548 9.39453C100.15 8.92578 99.6146 8.69141 98.9427 8.69141C98.099 8.69141 97.4467 8.95703 96.9857 9.48828C96.5248 10.0117 96.2943 10.7578 96.2943 11.7266V13.2734C96.2943 14.1953 96.5443 14.9062 97.0443 15.4062C97.5443 15.8984 98.2474 16.1445 99.1537 16.1445C99.6146 16.1445 100.068 16.0586 100.513 15.8867C100.966 15.707 101.372 15.4609 101.732 15.1484L103.56 16.8594C102.943 17.4375 102.247 17.8867 101.474 18.207C100.708 18.5195 99.9349 18.6758 99.1537 18.6758ZM111.4 18.6758C110.673 18.6758 109.982 18.6094 109.326 18.4766C108.669 18.3359 108.052 18.1328 107.474 17.8672C106.904 17.6016 106.388 17.2773 105.927 16.8945L107.626 14.7852C108.244 15.2227 108.872 15.5547 109.513 15.7812C110.161 16.0078 110.79 16.1211 111.4 16.1211C112.251 16.1211 112.896 16.0078 113.333 15.7812C113.779 15.5469 114.001 15.2109 114.001 14.7734C114.001 14.4375 113.892 14.1875 113.673 14.0234C113.454 13.8516 113.177 13.7344 112.841 13.6719C112.513 13.6094 112.048 13.5508 111.447 13.4961C111.345 13.4883 111.24 13.4805 111.13 13.4727C111.021 13.4648 110.915 13.4531 110.814 13.4375C110.783 13.4375 110.751 13.4375 110.72 13.4375C110.689 13.4297 110.658 13.4258 110.626 13.4258C109.775 13.332 109.076 13.2031 108.529 13.0391C107.982 12.8672 107.521 12.543 107.146 12.0664C106.779 11.5898 106.595 10.9062 106.595 10.0156C106.595 9.17969 106.779 8.47656 107.146 7.90625C107.521 7.32812 108.068 6.89453 108.786 6.60547C109.505 6.30859 110.388 6.16016 111.435 6.16016C112.06 6.16016 112.669 6.22266 113.263 6.34766C113.857 6.46484 114.423 6.64062 114.962 6.875C115.509 7.10156 116.025 7.38672 116.509 7.73047L114.833 9.76953C114.263 9.42578 113.685 9.16406 113.099 8.98438C112.521 8.80469 111.958 8.71484 111.411 8.71484C110.677 8.71484 110.119 8.82031 109.736 9.03125C109.353 9.24219 109.161 9.55469 109.161 9.96875C109.161 10.2344 109.267 10.4375 109.478 10.5781C109.689 10.7188 109.951 10.8164 110.263 10.8711C110.583 10.918 111.044 10.9688 111.646 11.0234C111.708 11.0312 111.767 11.0391 111.822 11.0469C111.884 11.0469 111.947 11.0508 112.009 11.0586C112.033 11.0586 112.06 11.0586 112.091 11.0586C112.122 11.0586 112.154 11.0625 112.185 11.0703C113.083 11.1562 113.829 11.2852 114.423 11.457C115.017 11.6289 115.521 11.9727 115.935 12.4883C116.349 12.9961 116.556 13.7383 116.556 14.7148C116.556 15.5742 116.361 16.3008 115.97 16.8945C115.579 17.4805 114.997 17.9258 114.224 18.2305C113.458 18.5273 112.517 18.6758 111.4 18.6758ZM133.923 11.0586V13.7305H125.814V11.0586H133.923ZM145.408 15.8516H150.435C151.411 15.8516 152.138 15.6484 152.615 15.2422C153.091 14.8281 153.329 14.2539 153.329 13.5195V13.4844C153.329 12.9766 153.236 12.543 153.048 12.1836C152.861 11.8242 152.572 11.5508 152.181 11.3633C151.79 11.168 151.306 11.0703 150.728 11.0703H145.408V8.44531H150.728C151.501 8.44531 152.091 8.25781 152.497 7.88281C152.904 7.50781 153.107 6.96484 153.107 6.25391C153.107 5.55078 152.892 5.01953 152.462 4.66016C152.033 4.29297 151.4 4.10938 150.564 4.10938H145.408V1.46094H150.833C151.935 1.46094 152.865 1.64844 153.622 2.02344C154.388 2.39062 154.962 2.91797 155.345 3.60547C155.736 4.29297 155.931 5.11719 155.931 6.07812C155.931 6.70312 155.806 7.27344 155.556 7.78906C155.314 8.29688 154.951 8.72266 154.466 9.06641C153.99 9.41016 153.404 9.64453 152.708 9.76953C153.427 9.87109 154.044 10.1094 154.56 10.4844C155.076 10.8516 155.47 11.3242 155.744 11.9023C156.017 12.4727 156.154 13.1133 156.154 13.8242V13.8594C156.154 14.8047 155.947 15.6289 155.533 16.332C155.126 17.0273 154.536 17.5625 153.763 17.9375C152.997 18.3125 152.087 18.5 151.033 18.5H145.408V15.8516ZM144.001 1.46094H146.79V18.5H144.001V1.46094ZM166.044 10.7891C166.044 10.1094 165.841 9.58203 165.435 9.20703C165.036 8.83203 164.47 8.64453 163.736 8.64453C163.267 8.64453 162.806 8.71875 162.353 8.86719C161.9 9.01562 161.494 9.22266 161.134 9.48828L159.271 7.91797C159.747 7.36328 160.372 6.93359 161.146 6.62891C161.919 6.31641 162.779 6.16016 163.724 6.16016C164.755 6.16016 165.638 6.33984 166.372 6.69922C167.107 7.05078 167.665 7.56641 168.048 8.24609C168.439 8.91797 168.634 9.73047 168.634 10.6836V18.5H166.044V10.7891ZM162.857 18.6758C161.458 18.6758 160.411 18.3672 159.716 17.75C159.021 17.125 158.673 16.1797 158.673 14.9141C158.673 13.7109 159.025 12.8086 159.728 12.207C160.431 11.6055 161.486 11.3047 162.892 11.3047H166.15L166.314 13.4844H162.904C162.349 13.4844 161.931 13.6016 161.65 13.8359C161.376 14.0703 161.24 14.4297 161.24 14.9141C161.24 15.4219 161.419 15.8008 161.779 16.0508C162.138 16.293 162.681 16.4141 163.408 16.4141C164.298 16.4141 164.958 16.3164 165.388 16.1211C165.826 15.9258 166.044 15.6211 166.044 15.207L166.29 16.9414C166.158 17.3242 165.923 17.6445 165.587 17.9023C165.259 18.1602 164.861 18.3555 164.392 18.4883C163.923 18.6133 163.411 18.6758 162.857 18.6758ZM177.06 18.6758C175.927 18.6758 174.958 18.4648 174.154 18.043C173.349 17.6133 172.736 16.9922 172.314 16.1797C171.892 15.3594 171.681 14.3711 171.681 13.2148V11.5625C171.681 10.4219 171.892 9.44922 172.314 8.64453C172.736 7.83203 173.349 7.21484 174.154 6.79297C174.958 6.37109 175.927 6.16016 177.06 6.16016C177.708 6.16016 178.318 6.23828 178.888 6.39453C179.466 6.54297 179.982 6.76172 180.435 7.05078C180.896 7.33984 181.279 7.69141 181.583 8.10547L179.685 9.88672C179.365 9.55078 178.99 9.29297 178.56 9.11328C178.13 8.93359 177.681 8.84375 177.212 8.84375C176.345 8.84375 175.673 9.08203 175.197 9.55859C174.72 10.0273 174.482 10.6953 174.482 11.5625V13.2148C174.482 14.1055 174.716 14.793 175.185 15.2773C175.661 15.7539 176.337 15.9922 177.212 15.9922C177.689 15.9922 178.142 15.8945 178.572 15.6992C179.001 15.5039 179.372 15.2266 179.685 14.8672L181.583 16.7656C181.271 17.1719 180.884 17.5195 180.423 17.8086C179.97 18.0898 179.454 18.3047 178.876 18.4531C178.306 18.6016 177.701 18.6758 177.06 18.6758ZM185.251 14L191.216 6.33594H194.322L185.392 17.1875L185.251 14ZM183.986 1.46094H186.786V18.5H183.986V1.46094ZM188.099 11.8438L190.197 10.25L194.919 18.5H191.767L188.099 11.8438ZM204.798 11.0586V13.7305H196.689V11.0586H204.798ZM213.294 18.6758C212.146 18.6758 211.165 18.4648 210.353 18.043C209.54 17.6211 208.919 17.0039 208.49 16.1914C208.06 15.3711 207.845 14.3828 207.845 13.2266V11.8555C207.845 10.6523 208.048 9.625 208.454 8.77344C208.869 7.92188 209.466 7.27344 210.247 6.82812C211.036 6.38281 211.982 6.16016 213.083 6.16016C214.122 6.16016 215.009 6.42187 215.744 6.94531C216.486 7.46094 217.048 8.21094 217.431 9.19531C217.822 10.1797 218.017 11.3672 218.017 12.7578V13.5547H209.755V11.5039H215.415L215.404 11.375C215.326 10.5234 215.087 9.86328 214.689 9.39453C214.29 8.92578 213.755 8.69141 213.083 8.69141C212.24 8.69141 211.587 8.95703 211.126 9.48828C210.665 10.0117 210.435 10.7578 210.435 11.7266V13.2734C210.435 14.1953 210.685 14.9062 211.185 15.4062C211.685 15.8984 212.388 16.1445 213.294 16.1445C213.755 16.1445 214.208 16.0586 214.654 15.8867C215.107 15.707 215.513 15.4609 215.872 15.1484L217.701 16.8594C217.083 17.4375 216.388 17.8867 215.615 18.207C214.849 18.5195 214.076 18.6758 213.294 18.6758ZM221.064 6.33594H223.865V18.5H221.064V6.33594ZM228.271 11.1289C228.271 10.4023 228.076 9.83984 227.685 9.44141C227.294 9.04297 226.74 8.84375 226.021 8.84375C225.333 8.84375 224.802 9.03125 224.427 9.40625C224.052 9.77344 223.865 10.2969 223.865 10.9766L223.619 8.45703C223.986 7.70703 224.447 7.13672 225.001 6.74609C225.564 6.35547 226.224 6.16016 226.982 6.16016C228.279 6.16016 229.283 6.59375 229.994 7.46094C230.712 8.32031 231.072 9.53906 231.072 11.1172V18.5H228.271V11.1289ZM241.208 1.46094H244.009V18.5H241.208V1.46094ZM238.267 18.6992C237.392 18.6992 236.642 18.5 236.017 18.1016C235.4 17.6953 234.927 17.1133 234.599 16.3555C234.279 15.5898 234.119 14.668 234.119 13.5898V11.2695C234.119 10.1914 234.279 9.26953 234.599 8.50391C234.919 7.73047 235.384 7.14453 235.994 6.74609C236.611 6.33984 237.349 6.13672 238.208 6.13672C238.896 6.13672 239.521 6.32812 240.083 6.71094C240.654 7.09375 241.111 7.63281 241.454 8.32812L241.208 10.918C241.208 10.4492 241.126 10.0508 240.962 9.72266C240.798 9.39453 240.56 9.14453 240.247 8.97266C239.935 8.80078 239.556 8.71484 239.111 8.71484C238.415 8.71484 237.876 8.94141 237.494 9.39453C237.111 9.84766 236.919 10.4805 236.919 11.293V13.5898C236.919 14.3945 237.111 15.0195 237.494 15.4648C237.876 15.9023 238.415 16.1211 239.111 16.1211C239.556 16.1211 239.935 16.0352 240.247 15.8633C240.56 15.6836 240.798 15.4297 240.962 15.1016C241.126 14.7734 241.208 14.3789 241.208 13.918L241.372 16.5898C241.13 17.2227 240.74 17.7344 240.201 18.125C239.669 18.5078 239.025 18.6992 238.267 18.6992Z" fill="#171717"/>
<path d="M257.752 9.86375V10.1363C259.331 10.3068 260.104 11.1644 260.104 12.8112V15.8154C260.104 17.6444 260.717 18.3867 262.232 18.3867H262.661V20H262.07C259.537 20 258.343 18.7311 258.343 16.0679V13.52C258.343 11.691 257.752 11.0858 256.001 11.0858V8.91415C257.752 8.91415 258.343 8.30895 258.343 6.47998V3.93213C258.343 1.26891 259.535 0 262.07 0H262.661V1.61164H262.232C260.717 1.61164 260.104 2.35393 260.104 4.1829V7.18883C260.104 8.83391 259.331 9.69155 257.752 9.86375ZM276.251 10.1363V9.86375C274.671 9.69155 273.898 8.83391 273.898 7.18883V4.1829C273.898 2.35393 273.285 1.61164 271.771 1.61164H271.342V0H271.932C274.467 0 275.66 1.26891 275.66 3.93213V6.47998C275.66 8.30895 276.251 8.91415 278.001 8.91415V11.0858C276.251 11.0858 275.66 11.691 275.66 13.52V16.0679C275.66 18.7311 274.466 20 271.932 20H271.342V18.3884H271.771C273.285 18.3884 273.898 17.6461 273.898 15.8171V12.8112C273.898 11.1661 274.671 10.3085 276.251 10.1363Z" fill="#171717"/>
</svg>
