<svg width="259" height="24" viewBox="0 0 259 24" fill="none" xmlns="http://www.w3.org/2000/svg">
<path d="M2.35291 0.960938H5.15369V18H2.35291V0.960938ZM3.66541 15.3164H13.5326V18H3.66541V15.3164ZM20.6576 18.1758C19.5795 18.1758 18.6537 17.9688 17.8802 17.5547C17.1146 17.1406 16.5287 16.5391 16.1224 15.75C15.724 14.9531 15.5248 13.9961 15.5248 12.8789V10.8984C15.5248 9.79688 15.724 8.85547 16.1224 8.07422C16.5287 7.28516 17.1146 6.6875 17.8802 6.28125C18.6537 5.86719 19.5795 5.66016 20.6576 5.66016C21.7357 5.66016 22.6576 5.86719 23.4232 6.28125C24.1967 6.6875 24.7826 7.28516 25.181 8.07422C25.5873 8.85547 25.7904 9.79688 25.7904 10.8984V12.9141C25.7904 14.0234 25.5873 14.9727 25.181 15.7617C24.7826 16.543 24.1967 17.1406 23.4232 17.5547C22.6576 17.9688 21.7357 18.1758 20.6576 18.1758ZM20.6576 15.4922C21.3998 15.4922 21.974 15.2695 22.3802 14.8242C22.7865 14.3711 22.9896 13.7344 22.9896 12.9141V10.8984C22.9896 10.0859 22.7865 9.45703 22.3802 9.01172C21.974 8.56641 21.3998 8.34375 20.6576 8.34375C19.9154 8.34375 19.3412 8.56641 18.9349 9.01172C18.5287 9.45703 18.3256 10.0859 18.3256 10.8984V12.9141C18.3256 13.7344 18.5248 14.3711 18.9232 14.8242C19.3295 15.2695 19.9076 15.4922 20.6576 15.4922ZM35.8099 5.83594H38.599V18H35.8099V5.83594ZM31.4506 13.2305C31.4506 13.9492 31.642 14.5078 32.0248 14.9062C32.4076 15.2969 32.9467 15.4922 33.642 15.4922C34.3373 15.4922 34.8724 15.3086 35.2474 14.9414C35.6224 14.5664 35.8099 14.0312 35.8099 13.3359L35.974 15.9375C35.7396 16.5703 35.349 17.1016 34.8021 17.5312C34.2552 17.9609 33.5873 18.1758 32.7982 18.1758C31.4779 18.1758 30.4545 17.75 29.7279 16.8984C29.0092 16.0469 28.6498 14.8438 28.6498 13.2891V5.83594H31.4506V13.2305ZM42.0092 5.83594H44.8099V18H42.0092V5.83594ZM49.2162 10.6289C49.2162 9.90234 49.0209 9.33984 48.6302 8.94141C48.2396 8.54297 47.6849 8.34375 46.9662 8.34375C46.2787 8.34375 45.7474 8.53125 45.3724 8.90625C44.9974 9.27344 44.8099 9.79688 44.8099 10.4766L44.5638 7.95703C44.931 7.20703 45.392 6.63672 45.9467 6.24609C46.5092 5.85547 47.1693 5.66016 47.9271 5.66016C49.224 5.66016 50.2279 6.09375 50.9388 6.96094C51.6576 7.82031 52.017 9.03906 52.017 10.6172V18H49.2162V10.6289ZM62.2006 10.2891C62.2006 9.60938 61.9974 9.08203 61.5912 8.70703C61.1927 8.33203 60.6263 8.14453 59.892 8.14453C59.4232 8.14453 58.9623 8.21875 58.5092 8.36719C58.056 8.51562 57.6498 8.72266 57.2904 8.98828L55.4271 7.41797C55.9037 6.86328 56.5287 6.43359 57.3021 6.12891C58.0756 5.81641 58.9349 5.66016 59.8802 5.66016C60.9115 5.66016 61.7943 5.83984 62.5287 6.19922C63.2631 6.55078 63.8217 7.06641 64.2045 7.74609C64.5951 8.41797 64.7904 9.23047 64.7904 10.1836V18H62.2006V10.2891ZM59.0131 18.1758C57.6146 18.1758 56.5677 17.8672 55.8724 17.25C55.1771 16.625 54.8295 15.6797 54.8295 14.4141C54.8295 13.2109 55.181 12.3086 55.8842 11.707C56.5873 11.1055 57.642 10.8047 59.0482 10.8047H62.306L62.4701 12.9844H59.0599C58.5052 12.9844 58.0873 13.1016 57.806 13.3359C57.5326 13.5703 57.3959 13.9297 57.3959 14.4141C57.3959 14.9219 57.5756 15.3008 57.9349 15.5508C58.2943 15.793 58.8373 15.9141 59.5638 15.9141C60.4545 15.9141 61.1146 15.8164 61.5443 15.6211C61.9818 15.4258 62.2006 15.1211 62.2006 14.707L62.4467 16.4414C62.3138 16.8242 62.0795 17.1445 61.7435 17.4023C61.4154 17.6602 61.017 17.8555 60.5482 17.9883C60.0795 18.1133 59.5677 18.1758 59.0131 18.1758ZM80.1068 18.1758C79.2865 18.1758 78.4974 18.0977 77.7396 17.9414C76.9896 17.7773 76.2826 17.5391 75.6185 17.2266C74.9623 16.9141 74.3607 16.5273 73.8138 16.0664L75.3021 13.8281C75.9584 14.3828 76.6927 14.8047 77.5052 15.0938C78.3256 15.375 79.1927 15.5156 80.1068 15.5156C81.2474 15.5156 82.1302 15.3125 82.7552 14.9062C83.3881 14.5 83.7045 13.9258 83.7045 13.1836V13.1719C83.7045 12.6484 83.5638 12.2344 83.2826 11.9297C83.0013 11.6172 82.6342 11.3906 82.181 11.25C81.7279 11.1016 81.1459 10.9648 80.4349 10.8398C80.4115 10.832 80.3881 10.8281 80.3646 10.8281C80.3412 10.8281 80.3177 10.8242 80.2943 10.8164L80.0834 10.7812C78.9427 10.5938 78.0052 10.3711 77.2709 10.1133C76.5365 9.85547 75.9115 9.39453 75.3959 8.73047C74.8802 8.06641 74.6224 7.125 74.6224 5.90625V5.89453C74.6224 4.81641 74.8646 3.89453 75.349 3.12891C75.8334 2.36328 76.5365 1.78125 77.4584 1.38281C78.3802 0.984375 79.4896 0.785156 80.7865 0.785156C81.3959 0.785156 82.0052 0.855469 82.6146 0.996094C83.2318 1.12891 83.8334 1.32812 84.4193 1.59375C85.0131 1.85156 85.5873 2.17578 86.142 2.56641L84.7826 4.875C84.1263 4.40625 83.4584 4.05078 82.7787 3.80859C82.099 3.56641 81.4349 3.44531 80.7865 3.44531C79.7084 3.44531 78.8724 3.64453 78.2787 4.04297C77.6927 4.43359 77.3998 4.98828 77.3998 5.70703V5.71875C77.3998 6.25781 77.5521 6.68359 77.8568 6.99609C78.1615 7.30859 78.5404 7.53906 78.9935 7.6875C79.4545 7.82812 80.0951 7.98047 80.9154 8.14453C80.9467 8.15234 80.974 8.16016 80.9974 8.16797C81.0287 8.16797 81.0599 8.17188 81.0912 8.17969C81.1302 8.1875 81.1732 8.19531 81.2201 8.20312C81.267 8.21094 81.3099 8.21875 81.349 8.22656C82.4037 8.4375 83.2826 8.69141 83.9857 8.98828C84.6967 9.28516 85.2904 9.76172 85.767 10.418C86.2435 11.0742 86.4818 11.9688 86.4818 13.1016V13.125C86.4818 14.1875 86.2318 15.0977 85.7318 15.8555C85.2318 16.6133 84.5052 17.1914 83.5521 17.5898C82.599 17.9805 81.4506 18.1758 80.1068 18.1758ZM90.6888 13.5L96.6537 5.83594H99.7592L90.8295 16.6875L90.6888 13.5ZM89.4232 0.960938H92.224V18H89.4232V0.960938ZM93.5365 11.3438L95.6342 9.75L100.357 18H97.2045L93.5365 11.3438ZM111.49 5.83594L106.193 20.8477C105.997 21.4023 105.747 21.8398 105.443 22.1602C105.146 22.4883 104.775 22.7227 104.329 22.8633C103.884 23.0039 103.337 23.0742 102.689 23.0742H102.091V20.3672H102.689C103.087 20.3672 103.408 20.2852 103.65 20.1211C103.9 19.957 104.103 19.6797 104.259 19.2891L108.759 5.83594H111.49ZM100.486 5.83594H103.216L107.13 16.4062L105.454 18.9961L100.486 5.83594ZM116.177 14.4258C116.177 14.7227 116.251 14.9531 116.4 15.1172C116.548 15.2734 116.759 15.3516 117.033 15.3516H117.865V18.0352H116.341C115.404 18.0352 114.673 17.7539 114.15 17.1914C113.634 16.6289 113.376 15.8359 113.376 14.8125V0.960938H116.177V14.4258ZM127.005 10.2891C127.005 9.60938 126.802 9.08203 126.396 8.70703C125.997 8.33203 125.431 8.14453 124.697 8.14453C124.228 8.14453 123.767 8.21875 123.314 8.36719C122.861 8.51562 122.454 8.72266 122.095 8.98828L120.232 7.41797C120.708 6.86328 121.333 6.43359 122.107 6.12891C122.88 5.81641 123.74 5.66016 124.685 5.66016C125.716 5.66016 126.599 5.83984 127.333 6.19922C128.068 6.55078 128.626 7.06641 129.009 7.74609C129.4 8.41797 129.595 9.23047 129.595 10.1836V18H127.005V10.2891ZM123.818 18.1758C122.419 18.1758 121.372 17.8672 120.677 17.25C119.982 16.625 119.634 15.6797 119.634 14.4141C119.634 13.2109 119.986 12.3086 120.689 11.707C121.392 11.1055 122.447 10.8047 123.853 10.8047H127.111L127.275 12.9844H123.865C123.31 12.9844 122.892 13.1016 122.611 13.3359C122.337 13.5703 122.201 13.9297 122.201 14.4141C122.201 14.9219 122.38 15.3008 122.74 15.5508C123.099 15.793 123.642 15.9141 124.369 15.9141C125.259 15.9141 125.919 15.8164 126.349 15.6211C126.786 15.4258 127.005 15.1211 127.005 14.707L127.251 16.4414C127.119 16.8242 126.884 17.1445 126.548 17.4023C126.22 17.6602 125.822 17.8555 125.353 17.9883C124.884 18.1133 124.372 18.1758 123.818 18.1758ZM132.994 5.83594H135.794V18H132.994V5.83594ZM140.201 10.6289C140.201 9.90234 140.005 9.33984 139.615 8.94141C139.224 8.54297 138.669 8.34375 137.951 8.34375C137.263 8.34375 136.732 8.53125 136.357 8.90625C135.982 9.27344 135.794 9.79688 135.794 10.4766L135.548 7.95703C135.915 7.20703 136.376 6.63672 136.931 6.24609C137.494 5.85547 138.154 5.66016 138.911 5.66016C140.208 5.66016 141.212 6.09375 141.923 6.96094C142.642 7.82031 143.001 9.03906 143.001 10.6172V18H140.201V10.6289ZM153.138 0.960938H155.939V18H153.138V0.960938ZM150.197 18.1992C149.322 18.1992 148.572 18 147.947 17.6016C147.329 17.1953 146.857 16.6133 146.529 15.8555C146.208 15.0898 146.048 14.168 146.048 13.0898V10.7695C146.048 9.69141 146.208 8.76953 146.529 8.00391C146.849 7.23047 147.314 6.64453 147.923 6.24609C148.54 5.83984 149.279 5.63672 150.138 5.63672C150.826 5.63672 151.451 5.82812 152.013 6.21094C152.583 6.59375 153.04 7.13281 153.384 7.82812L153.138 10.418C153.138 9.94922 153.056 9.55078 152.892 9.22266C152.728 8.89453 152.49 8.64453 152.177 8.47266C151.865 8.30078 151.486 8.21484 151.04 8.21484C150.345 8.21484 149.806 8.44141 149.423 8.89453C149.04 9.34766 148.849 9.98047 148.849 10.793V13.0898C148.849 13.8945 149.04 14.5195 149.423 14.9648C149.806 15.4023 150.345 15.6211 151.04 15.6211C151.486 15.6211 151.865 15.5352 152.177 15.3633C152.49 15.1836 152.728 14.9297 152.892 14.6016C153.056 14.2734 153.138 13.8789 153.138 13.418L153.302 16.0898C153.06 16.7227 152.669 17.2344 152.13 17.625C151.599 18.0078 150.954 18.1992 150.197 18.1992ZM164.435 18.1758C163.286 18.1758 162.306 17.9648 161.494 17.543C160.681 17.1211 160.06 16.5039 159.63 15.6914C159.201 14.8711 158.986 13.8828 158.986 12.7266V11.3555C158.986 10.1523 159.189 9.125 159.595 8.27344C160.009 7.42188 160.607 6.77344 161.388 6.32812C162.177 5.88281 163.122 5.66016 164.224 5.66016C165.263 5.66016 166.15 5.92187 166.884 6.44531C167.626 6.96094 168.189 7.71094 168.572 8.69531C168.962 9.67969 169.158 10.8672 169.158 12.2578V13.0547H160.896V11.0039H166.556L166.544 10.875C166.466 10.0234 166.228 9.36328 165.829 8.89453C165.431 8.42578 164.896 8.19141 164.224 8.19141C163.38 8.19141 162.728 8.45703 162.267 8.98828C161.806 9.51172 161.576 10.2578 161.576 11.2266V12.7734C161.576 13.6953 161.826 14.4062 162.326 14.9062C162.826 15.3984 163.529 15.6445 164.435 15.6445C164.896 15.6445 165.349 15.5586 165.794 15.3867C166.247 15.207 166.654 14.9609 167.013 14.6484L168.841 16.3594C168.224 16.9375 167.529 17.3867 166.755 17.707C165.99 18.0195 165.216 18.1758 164.435 18.1758ZM172.204 5.83594H175.122V18H172.204V5.83594ZM178.978 8.96484C178.79 8.76172 178.56 8.60938 178.286 8.50781C178.013 8.39844 177.697 8.34375 177.337 8.34375C176.634 8.34375 176.087 8.55469 175.697 8.97656C175.314 9.39062 175.122 9.96875 175.122 10.7109L174.876 7.95703C175.228 7.23047 175.685 6.66797 176.247 6.26953C176.818 5.86328 177.443 5.66016 178.122 5.66016C178.654 5.66016 179.134 5.74219 179.564 5.90625C179.994 6.0625 180.369 6.29688 180.689 6.60938L178.978 8.96484ZM189.126 0.960938H191.927V18H189.126V0.960938ZM190.439 15.3164H200.306V18H190.439V15.3164ZM209.435 10.2891C209.435 9.60938 209.232 9.08203 208.826 8.70703C208.427 8.33203 207.861 8.14453 207.126 8.14453C206.658 8.14453 206.197 8.21875 205.744 8.36719C205.29 8.51562 204.884 8.72266 204.525 8.98828L202.661 7.41797C203.138 6.86328 203.763 6.43359 204.536 6.12891C205.31 5.81641 206.169 5.66016 207.115 5.66016C208.146 5.66016 209.029 5.83984 209.763 6.19922C210.497 6.55078 211.056 7.06641 211.439 7.74609C211.829 8.41797 212.025 9.23047 212.025 10.1836V18H209.435V10.2891ZM206.247 18.1758C204.849 18.1758 203.802 17.8672 203.107 17.25C202.411 16.625 202.064 15.6797 202.064 14.4141C202.064 13.2109 202.415 12.3086 203.119 11.707C203.822 11.1055 204.876 10.8047 206.283 10.8047H209.54L209.704 12.9844H206.294C205.74 12.9844 205.322 13.1016 205.04 13.3359C204.767 13.5703 204.63 13.9297 204.63 14.4141C204.63 14.9219 204.81 15.3008 205.169 15.5508C205.529 15.793 206.072 15.9141 206.798 15.9141C207.689 15.9141 208.349 15.8164 208.779 15.6211C209.216 15.4258 209.435 15.1211 209.435 14.707L209.681 16.4414C209.548 16.8242 209.314 17.1445 208.978 17.4023C208.65 17.6602 208.251 17.8555 207.783 17.9883C207.314 18.1133 206.802 18.1758 206.247 18.1758ZM224.786 5.83594L219.49 20.8477C219.294 21.4023 219.044 21.8398 218.74 22.1602C218.443 22.4883 218.072 22.7227 217.626 22.8633C217.181 23.0039 216.634 23.0742 215.986 23.0742H215.388V20.3672H215.986C216.384 20.3672 216.704 20.2852 216.947 20.1211C217.197 19.957 217.4 19.6797 217.556 19.2891L222.056 5.83594H224.786ZM213.783 5.83594H216.513L220.427 16.4062L218.751 18.9961L213.783 5.83594ZM231.22 18.1758C230.142 18.1758 229.216 17.9688 228.443 17.5547C227.677 17.1406 227.091 16.5391 226.685 15.75C226.286 14.9531 226.087 13.9961 226.087 12.8789V10.8984C226.087 9.79688 226.286 8.85547 226.685 8.07422C227.091 7.28516 227.677 6.6875 228.443 6.28125C229.216 5.86719 230.142 5.66016 231.22 5.66016C232.298 5.66016 233.22 5.86719 233.986 6.28125C234.759 6.6875 235.345 7.28516 235.744 8.07422C236.15 8.85547 236.353 9.79688 236.353 10.8984V12.9141C236.353 14.0234 236.15 14.9727 235.744 15.7617C235.345 16.543 234.759 17.1406 233.986 17.5547C233.22 17.9688 232.298 18.1758 231.22 18.1758ZM231.22 15.4922C231.962 15.4922 232.536 15.2695 232.943 14.8242C233.349 14.3711 233.552 13.7344 233.552 12.9141V10.8984C233.552 10.0859 233.349 9.45703 232.943 9.01172C232.536 8.56641 231.962 8.34375 231.22 8.34375C230.478 8.34375 229.904 8.56641 229.497 9.01172C229.091 9.45703 228.888 10.0859 228.888 10.8984V12.9141C228.888 13.7344 229.087 14.3711 229.486 14.8242C229.892 15.2695 230.47 15.4922 231.22 15.4922ZM246.372 5.83594H249.161V18H246.372V5.83594ZM242.013 13.2305C242.013 13.9492 242.204 14.5078 242.587 14.9062C242.97 15.2969 243.509 15.4922 244.204 15.4922C244.9 15.4922 245.435 15.3086 245.81 14.9414C246.185 14.5664 246.372 14.0312 246.372 13.3359L246.536 15.9375C246.302 16.5703 245.911 17.1016 245.365 17.5312C244.818 17.9609 244.15 18.1758 243.361 18.1758C242.04 18.1758 241.017 17.75 240.29 16.8984C239.572 16.0469 239.212 14.8438 239.212 13.2891V5.83594H242.013V13.2305ZM255.853 18.0586C254.829 18.0586 254.079 17.7891 253.603 17.25C253.126 16.7031 252.888 15.8984 252.888 14.8359V2.29688H255.689V14.4492C255.689 14.7461 255.747 14.9766 255.865 15.1406C255.982 15.2969 256.154 15.375 256.38 15.375H257.353V18.0586H255.853ZM251.634 5.83594H257.353V8.28516H251.634V5.83594Z" fill="#171717"/>
</svg>
