<svg width="131" height="30" viewBox="0 0 131 30" fill="none" xmlns="http://www.w3.org/2000/svg">
<path d="M4.92322 10.6094H12.1888C12.793 10.6094 13.3191 10.474 13.767 10.2031C14.2253 9.92188 14.5795 9.52604 14.8295 9.01562C15.0899 8.50521 15.2201 7.91667 15.2201 7.25C15.2201 6.57292 15.0951 5.97917 14.8451 5.46875C14.5951 4.95833 14.2409 4.5625 13.7826 4.28125C13.3243 4 12.793 3.85938 12.1888 3.85938H4.92322V0.28125H12.0795C13.4649 0.28125 14.6836 0.572917 15.7357 1.15625C16.7878 1.72917 17.6055 2.54167 18.1888 3.59375C18.7722 4.64583 19.0638 5.86458 19.0638 7.25C19.0638 8.63542 18.7722 9.85417 18.1888 10.9062C17.6055 11.9479 16.7878 12.7552 15.7357 13.3281C14.6836 13.901 13.4649 14.1875 12.0795 14.1875H4.92322V10.6094ZM3.12634 0.28125H6.86072V23H3.12634V0.28125ZM21.9701 6.78125H25.8607V23H21.9701V6.78125ZM31.0013 10.9531C30.7513 10.6823 30.4441 10.4792 30.0795 10.3438C29.7149 10.1979 29.293 10.125 28.8138 10.125C27.8763 10.125 27.1472 10.4062 26.6263 10.9688C26.1159 11.5208 25.8607 12.2917 25.8607 13.2812L25.5326 9.60938C26.0013 8.64062 26.6107 7.89062 27.3607 7.35938C28.1211 6.81771 28.9545 6.54688 29.8607 6.54688C30.5691 6.54688 31.2097 6.65625 31.7826 6.875C32.3555 7.08333 32.8555 7.39583 33.2826 7.8125L31.0013 10.9531ZM41.6888 23.2344C40.2513 23.2344 39.017 22.9583 37.9857 22.4062C36.9649 21.8542 36.1836 21.0521 35.642 20C35.1107 18.9375 34.8451 17.6615 34.8451 16.1719V13.5312C34.8451 12.0625 35.1107 10.8073 35.642 9.76562C36.1836 8.71354 36.9649 7.91667 37.9857 7.375C39.017 6.82292 40.2513 6.54688 41.6888 6.54688C43.1263 6.54688 44.3555 6.82292 45.3763 7.375C46.4076 7.91667 47.1888 8.71354 47.7201 9.76562C48.2618 10.8073 48.5326 12.0625 48.5326 13.5312V16.2188C48.5326 17.6979 48.2618 18.9635 47.7201 20.0156C47.1888 21.0573 46.4076 21.8542 45.3763 22.4062C44.3555 22.9583 43.1263 23.2344 41.6888 23.2344ZM41.6888 19.6562C42.6784 19.6562 43.4441 19.3594 43.9857 18.7656C44.5274 18.1615 44.7982 17.3125 44.7982 16.2188V13.5312C44.7982 12.4479 44.5274 11.6094 43.9857 11.0156C43.4441 10.4219 42.6784 10.125 41.6888 10.125C40.6993 10.125 39.9336 10.4219 39.392 11.0156C38.8503 11.6094 38.5795 12.4479 38.5795 13.5312V16.2188C38.5795 17.3125 38.8451 18.1615 39.3763 18.7656C39.918 19.3594 40.6888 19.6562 41.6888 19.6562ZM50.5638 26.0156H51.9545C52.2982 26.0156 52.5638 25.9062 52.7513 25.6875C52.9388 25.4792 53.0326 25.1771 53.0326 24.7812V6.78125H56.767V25.2969C56.767 26.6615 56.418 27.7188 55.7201 28.4688C55.0326 29.2188 54.0638 29.5938 52.8138 29.5938H50.5638V26.0156ZM53.0013 0.28125H56.7982V4.01562H53.0013V0.28125ZM68.142 23.2344C66.6107 23.2344 65.3034 22.9531 64.2201 22.3906C63.1368 21.8281 62.3086 21.0052 61.7357 19.9219C61.1628 18.8281 60.8763 17.5104 60.8763 15.9688V14.1406C60.8763 12.5365 61.1472 11.1667 61.6888 10.0312C62.2409 8.89583 63.0378 8.03125 64.0795 7.4375C65.1316 6.84375 66.392 6.54688 67.8607 6.54688C69.2461 6.54688 70.4284 6.89583 71.4076 7.59375C72.3972 8.28125 73.1472 9.28125 73.6576 10.5938C74.1784 11.9062 74.4388 13.4896 74.4388 15.3438V16.4062H63.4232V13.6719H70.9701L70.9545 13.5C70.8503 12.3646 70.5326 11.4844 70.0013 10.8594C69.4701 10.2344 68.7566 9.92188 67.8607 9.92188C66.7357 9.92188 65.8659 10.276 65.2513 10.9844C64.6368 11.6823 64.3295 12.6771 64.3295 13.9688V16.0312C64.3295 17.2604 64.6628 18.2083 65.3295 18.875C65.9961 19.5312 66.9336 19.8594 68.142 19.8594C68.7566 19.8594 69.3607 19.7448 69.9545 19.5156C70.5586 19.276 71.1003 18.9479 71.5795 18.5312L74.017 20.8125C73.1941 21.5833 72.267 22.1823 71.2357 22.6094C70.2149 23.026 69.1836 23.2344 68.142 23.2344ZM85.2045 23.2344C83.6941 23.2344 82.4024 22.9531 81.3295 22.3906C80.2566 21.8177 79.4388 20.9896 78.8763 19.9062C78.3138 18.8125 78.0326 17.4948 78.0326 15.9531V13.75C78.0326 12.2292 78.3138 10.9323 78.8763 9.85938C79.4388 8.77604 80.2566 7.95312 81.3295 7.39062C82.4024 6.82812 83.6941 6.54688 85.2045 6.54688C86.0691 6.54688 86.8816 6.65104 87.642 6.85938C88.4128 7.05729 89.1003 7.34896 89.7045 7.73438C90.3191 8.11979 90.8295 8.58854 91.2357 9.14062L88.7045 11.5156C88.2774 11.0677 87.7774 10.724 87.2045 10.4844C86.6316 10.2448 86.0326 10.125 85.4076 10.125C84.2513 10.125 83.3555 10.4427 82.7201 11.0781C82.0847 11.7031 81.767 12.5938 81.767 13.75V15.9531C81.767 17.1406 82.0795 18.0573 82.7045 18.7031C83.3399 19.3385 84.2409 19.6562 85.4076 19.6562C86.043 19.6562 86.6472 19.526 87.2201 19.2656C87.793 19.0052 88.2878 18.6354 88.7045 18.1562L91.2357 20.6875C90.8191 21.2292 90.3034 21.6927 89.6888 22.0781C89.0847 22.4531 88.3972 22.7396 87.6263 22.9375C86.8659 23.1354 86.0586 23.2344 85.2045 23.2344ZM98.8138 23.0781C97.4493 23.0781 96.4493 22.7188 95.8138 22C95.1784 21.2708 94.8607 20.1979 94.8607 18.7812V2.0625H98.5951V18.2656C98.5951 18.6615 98.6732 18.9688 98.8295 19.1875C98.9857 19.3958 99.2149 19.5 99.517 19.5H100.814V23.0781H98.8138ZM93.1888 6.78125H100.814V10.0469H93.1888V6.78125Z" fill="#171717"/>
<path fill-rule="evenodd" clip-rule="evenodd" d="M124.573 3.375C124.573 3.20924 124.505 3.05027 124.384 2.93306C124.264 2.81585 124.1 2.75 123.93 2.75H120.073C119.902 2.75 119.739 2.81585 119.618 2.93306C119.498 3.05027 119.43 3.20924 119.43 3.375V4.625C119.43 4.79076 119.498 4.94973 119.618 5.06694C119.739 5.18415 119.902 5.25 120.073 5.25H123.93C124.1 5.25 124.264 5.18415 124.384 5.06694C124.505 4.94973 124.573 4.79076 124.573 4.625V3.375ZM118.144 3.375C118.144 2.87772 118.347 2.40081 118.709 2.04917C119.071 1.69754 119.561 1.5 120.073 1.5H123.93C124.441 1.5 124.932 1.69754 125.294 2.04917C125.655 2.40081 125.858 2.87772 125.858 3.375V4.625C125.858 5.12228 125.655 5.59919 125.294 5.95083C124.932 6.30246 124.441 6.5 123.93 6.5H120.073C119.561 6.5 119.071 6.30246 118.709 5.95083C118.347 5.59919 118.144 5.12228 118.144 4.625V3.375ZM115.573 3.375H116.858V4.625C116.858 5.4538 117.197 6.24866 117.8 6.83471C118.403 7.42076 119.22 7.75 120.073 7.75H123.93C124.352 7.75 124.77 7.66917 125.16 7.51212C125.55 7.35508 125.904 7.12489 126.203 6.83471C126.501 6.54453 126.738 6.20003 126.9 5.82089C127.061 5.44174 127.144 5.03538 127.144 4.625V3.375H128.43C129.112 3.375 129.766 3.63839 130.248 4.10723C130.73 4.57607 131.001 5.21196 131.001 5.875V19C131.001 19.663 130.73 20.2989 130.248 20.7678C129.766 21.2366 129.112 21.5 128.43 21.5H115.573C114.891 21.5 114.237 21.2366 113.754 20.7678C113.272 20.2989 113.001 19.663 113.001 19V5.875C113.001 5.21196 113.272 4.57607 113.754 4.10723C114.237 3.63839 114.891 3.375 115.573 3.375Z" fill="#171717"/>
</svg>
