<svg width="112" height="19" viewBox="0 0 112 19" fill="none" xmlns="http://www.w3.org/2000/svg">
<path d="M3.60681 8.28516H9.47791C9.86853 8.28516 10.2123 8.19141 10.5092 8.00391C10.8138 7.80859 11.0482 7.53516 11.2123 7.18359C11.3763 6.83203 11.4623 6.42188 11.4701 5.95312C11.4701 5.49219 11.3881 5.08594 11.224 4.73438C11.0599 4.38281 10.8256 4.11328 10.5209 3.92578C10.224 3.73047 9.87634 3.63281 9.47791 3.63281H3.60681V0.949219H9.55994C10.5209 0.949219 11.3646 1.15625 12.0912 1.57031C12.8177 1.98437 13.3802 2.57031 13.7787 3.32812C14.1849 4.08594 14.3881 4.96094 14.3881 5.95312C14.3881 6.95312 14.1849 7.83203 13.7787 8.58984C13.3802 9.34766 12.8138 9.93359 12.0795 10.3477C11.3529 10.7617 10.5131 10.9688 9.55994 10.9688H3.60681V8.28516ZM2.44666 0.949219H5.24744V18H2.44666V0.949219ZM7.72009 10.4414L10.6263 9.90234L15.1029 18H11.7396L7.72009 10.4414ZM17.5521 0.960938H20.3412V3.76172H17.5521V0.960938ZM17.5521 5.83594H20.3412V18H17.5521V5.83594ZM30.3959 0.960938H33.1967V18H30.3959V0.960938ZM27.4545 18.1992C26.5795 18.1992 25.8295 18 25.2045 17.6016C24.5873 17.1953 24.1146 16.6133 23.7865 15.8555C23.4662 15.0898 23.306 14.168 23.306 13.0898V10.7695C23.306 9.69141 23.4662 8.76953 23.7865 8.00391C24.1068 7.23047 24.5717 6.64453 25.181 6.24609C25.7982 5.83984 26.5365 5.63672 27.3959 5.63672C28.0834 5.63672 28.7084 5.82812 29.2709 6.21094C29.8412 6.59375 30.2982 7.13281 30.642 7.82812L30.3959 10.418C30.3959 9.94922 30.3138 9.55078 30.1498 9.22266C29.9857 8.89453 29.7474 8.64453 29.4349 8.47266C29.1224 8.30078 28.7435 8.21484 28.2982 8.21484C27.6029 8.21484 27.0638 8.44141 26.681 8.89453C26.2982 9.34766 26.1068 9.98047 26.1068 10.793V13.0898C26.1068 13.8945 26.2982 14.5195 26.681 14.9648C27.0638 15.4023 27.6029 15.6211 28.2982 15.6211C28.7435 15.6211 29.1224 15.5352 29.4349 15.3633C29.7474 15.1836 29.9857 14.9297 30.1498 14.6016C30.3138 14.2734 30.3959 13.8789 30.3959 13.418L30.5599 16.0898C30.3177 16.7227 29.9271 17.2344 29.3881 17.625C28.8568 18.0078 28.2123 18.1992 27.4545 18.1992ZM41.6927 18.1758C40.5443 18.1758 39.5638 17.9648 38.7513 17.543C37.9388 17.1211 37.3177 16.5039 36.8881 15.6914C36.4584 14.8711 36.2435 13.8828 36.2435 12.7266V11.3555C36.2435 10.1523 36.4467 9.125 36.8529 8.27344C37.267 7.42188 37.8646 6.77344 38.6459 6.32812C39.4349 5.88281 40.3802 5.66016 41.4818 5.66016C42.5209 5.66016 43.4076 5.92187 44.142 6.44531C44.8842 6.96094 45.4467 7.71094 45.8295 8.69531C46.2201 9.67969 46.4154 10.8672 46.4154 12.2578V13.0547H38.1537V11.0039H43.8138L43.8021 10.875C43.724 10.0234 43.4857 9.36328 43.0873 8.89453C42.6888 8.42578 42.1537 8.19141 41.4818 8.19141C40.6381 8.19141 39.9857 8.45703 39.5248 8.98828C39.0638 9.51172 38.8334 10.2578 38.8334 11.2266V12.7734C38.8334 13.6953 39.0834 14.4062 39.5834 14.9062C40.0834 15.3984 40.7865 15.6445 41.6927 15.6445C42.1537 15.6445 42.6068 15.5586 43.0521 15.3867C43.5052 15.207 43.9115 14.9609 44.2709 14.6484L46.099 16.3594C45.4818 16.9375 44.7865 17.3867 44.0131 17.707C43.2474 18.0195 42.474 18.1758 41.6927 18.1758ZM54.9349 18.1758C54.1146 18.1758 53.3256 18.0977 52.5677 17.9414C51.8177 17.7773 51.1107 17.5391 50.4467 17.2266C49.7904 16.9141 49.1888 16.5273 48.642 16.0664L50.1302 13.8281C50.7865 14.3828 51.5209 14.8047 52.3334 15.0938C53.1537 15.375 54.0209 15.5156 54.9349 15.5156C56.0756 15.5156 56.9584 15.3125 57.5834 14.9062C58.2162 14.5 58.5326 13.9258 58.5326 13.1836V13.1719C58.5326 12.6484 58.392 12.2344 58.1107 11.9297C57.8295 11.6172 57.4623 11.3906 57.0092 11.25C56.556 11.1016 55.974 10.9648 55.2631 10.8398C55.2396 10.832 55.2162 10.8281 55.1927 10.8281C55.1693 10.8281 55.1459 10.8242 55.1224 10.8164L54.9115 10.7812C53.7709 10.5938 52.8334 10.3711 52.099 10.1133C51.3646 9.85547 50.7396 9.39453 50.224 8.73047C49.7084 8.06641 49.4506 7.125 49.4506 5.90625V5.89453C49.4506 4.81641 49.6927 3.89453 50.1771 3.12891C50.6615 2.36328 51.3646 1.78125 52.2865 1.38281C53.2084 0.984375 54.3177 0.785156 55.6146 0.785156C56.224 0.785156 56.8334 0.855469 57.4427 0.996094C58.0599 1.12891 58.6615 1.32812 59.2474 1.59375C59.8412 1.85156 60.4154 2.17578 60.9701 2.56641L59.6107 4.875C58.9545 4.40625 58.2865 4.05078 57.6068 3.80859C56.9271 3.56641 56.2631 3.44531 55.6146 3.44531C54.5365 3.44531 53.7006 3.64453 53.1068 4.04297C52.5209 4.43359 52.2279 4.98828 52.2279 5.70703V5.71875C52.2279 6.25781 52.3802 6.68359 52.6849 6.99609C52.9896 7.30859 53.3685 7.53906 53.8217 7.6875C54.2826 7.82812 54.9232 7.98047 55.7435 8.14453C55.7748 8.15234 55.8021 8.16016 55.8256 8.16797C55.8568 8.16797 55.8881 8.17188 55.9193 8.17969C55.9584 8.1875 56.0013 8.19531 56.0482 8.20312C56.0951 8.21094 56.1381 8.21875 56.1771 8.22656C57.2318 8.4375 58.1107 8.69141 58.8138 8.98828C59.5248 9.28516 60.1185 9.76172 60.5951 10.418C61.0717 11.0742 61.3099 11.9688 61.3099 13.1016V13.125C61.3099 14.1875 61.0599 15.0977 60.5599 15.8555C60.0599 16.6133 59.3334 17.1914 58.3802 17.5898C57.4271 17.9805 56.2787 18.1758 54.9349 18.1758ZM64.2513 0.960938H67.0521V18H64.2513V0.960938ZM71.4584 10.6289C71.4584 9.90234 71.2631 9.33984 70.8724 8.94141C70.4818 8.54297 69.9271 8.34375 69.2084 8.34375C68.5209 8.34375 67.9896 8.52734 67.6146 8.89453C67.2396 9.26172 67.0521 9.78125 67.0521 10.4531L66.806 7.93359C67.1732 7.19922 67.6342 6.63672 68.1888 6.24609C68.7513 5.85547 69.4115 5.66016 70.1693 5.66016C71.4662 5.66016 72.4701 6.09375 73.181 6.96094C73.8998 7.82031 74.2592 9.03906 74.2592 10.6172V18H71.4584V10.6289ZM84.4427 10.2891C84.4427 9.60938 84.2396 9.08203 83.8334 8.70703C83.4349 8.33203 82.8685 8.14453 82.1342 8.14453C81.6654 8.14453 81.2045 8.21875 80.7513 8.36719C80.2982 8.51562 79.892 8.72266 79.5326 8.98828L77.6693 7.41797C78.1459 6.86328 78.7709 6.43359 79.5443 6.12891C80.3177 5.81641 81.1771 5.66016 82.1224 5.66016C83.1537 5.66016 84.0365 5.83984 84.7709 6.19922C85.5052 6.55078 86.0638 7.06641 86.4467 7.74609C86.8373 8.41797 87.0326 9.23047 87.0326 10.1836V18H84.4427V10.2891ZM81.2552 18.1758C79.8568 18.1758 78.8099 17.8672 78.1146 17.25C77.4193 16.625 77.0717 15.6797 77.0717 14.4141C77.0717 13.2109 77.4232 12.3086 78.1263 11.707C78.8295 11.1055 79.8842 10.8047 81.2904 10.8047H84.5482L84.7123 12.9844H81.3021C80.7474 12.9844 80.3295 13.1016 80.0482 13.3359C79.7748 13.5703 79.6381 13.9297 79.6381 14.4141C79.6381 14.9219 79.8177 15.3008 80.1771 15.5508C80.5365 15.793 81.0795 15.9141 81.806 15.9141C82.6967 15.9141 83.3568 15.8164 83.7865 15.6211C84.224 15.4258 84.4427 15.1211 84.4427 14.707L84.6888 16.4414C84.556 16.8242 84.3217 17.1445 83.9857 17.4023C83.6576 17.6602 83.2592 17.8555 82.7904 17.9883C82.3217 18.1133 81.8099 18.1758 81.2552 18.1758ZM90.431 5.83594H93.349V18H90.431V5.83594ZM97.2045 8.96484C97.017 8.76172 96.7865 8.60938 96.5131 8.50781C96.2396 8.39844 95.9232 8.34375 95.5638 8.34375C94.8607 8.34375 94.3138 8.55469 93.9232 8.97656C93.5404 9.39062 93.349 9.96875 93.349 10.7109L93.1029 7.95703C93.4545 7.23047 93.9115 6.66797 94.474 6.26953C95.0443 5.86328 95.6693 5.66016 96.349 5.66016C96.8802 5.66016 97.3607 5.74219 97.7904 5.90625C98.2201 6.0625 98.5951 6.29688 98.9154 6.60938L97.2045 8.96484ZM105.536 18.1758C104.388 18.1758 103.408 17.9648 102.595 17.543C101.783 17.1211 101.161 16.5039 100.732 15.6914C100.302 14.8711 100.087 13.8828 100.087 12.7266V11.3555C100.087 10.1523 100.29 9.125 100.697 8.27344C101.111 7.42188 101.708 6.77344 102.49 6.32812C103.279 5.88281 104.224 5.66016 105.326 5.66016C106.365 5.66016 107.251 5.92187 107.986 6.44531C108.728 6.96094 109.29 7.71094 109.673 8.69531C110.064 9.67969 110.259 10.8672 110.259 12.2578V13.0547H101.997V11.0039H107.658L107.646 10.875C107.568 10.0234 107.329 9.36328 106.931 8.89453C106.533 8.42578 105.997 8.19141 105.326 8.19141C104.482 8.19141 103.829 8.45703 103.369 8.98828C102.908 9.51172 102.677 10.2578 102.677 11.2266V12.7734C102.677 13.6953 102.927 14.4062 103.427 14.9062C103.927 15.3984 104.63 15.6445 105.536 15.6445C105.997 15.6445 106.451 15.5586 106.896 15.3867C107.349 15.207 107.755 14.9609 108.115 14.6484L109.943 16.3594C109.326 16.9375 108.63 17.3867 107.857 17.707C107.091 18.0195 106.318 18.1758 105.536 18.1758Z" fill="#171717"/>
</svg>
