<svg width="211" height="24" viewBox="0 0 211 24" fill="none" xmlns="http://www.w3.org/2000/svg">
<path d="M9.92322 23.2344C8.82947 23.2344 7.77738 23.1302 6.76697 22.9219C5.76697 22.7031 4.82426 22.3854 3.93884 21.9688C3.06384 21.5521 2.26176 21.0365 1.53259 20.4219L3.51697 17.4375C4.39197 18.1771 5.37113 18.7396 6.45447 19.125C7.54822 19.5 8.70447 19.6875 9.92322 19.6875C11.4441 19.6875 12.6211 19.4167 13.4545 18.875C14.2982 18.3333 14.7201 17.5677 14.7201 16.5781V16.5625C14.7201 15.8646 14.5326 15.3125 14.1576 14.9062C13.7826 14.4896 13.293 14.1875 12.6888 14C12.0847 13.8021 11.3086 13.6198 10.3607 13.4531C10.3295 13.4427 10.2982 13.4375 10.267 13.4375C10.2357 13.4375 10.2045 13.4323 10.1732 13.4219L9.89197 13.375C8.37113 13.125 7.12113 12.8281 6.14197 12.4844C5.1628 12.1406 4.32947 11.526 3.64197 10.6406C2.95447 9.75521 2.61072 8.5 2.61072 6.875V6.85938C2.61072 5.42188 2.93363 4.19271 3.57947 3.17188C4.2253 2.15104 5.1628 1.375 6.39197 0.84375C7.62113 0.3125 9.1003 0.046875 10.8295 0.046875C11.642 0.046875 12.4545 0.140625 13.267 0.328125C14.0899 0.505208 14.892 0.770833 15.6732 1.125C16.4649 1.46875 17.2305 1.90104 17.9701 2.42188L16.1576 5.5C15.2826 4.875 14.392 4.40104 13.4857 4.07812C12.5795 3.75521 11.6941 3.59375 10.8295 3.59375C9.39197 3.59375 8.27738 3.85938 7.48572 4.39062C6.70447 4.91146 6.31384 5.65104 6.31384 6.60938V6.625C6.31384 7.34375 6.51697 7.91146 6.92322 8.32812C7.32947 8.74479 7.83468 9.05208 8.43884 9.25C9.05343 9.4375 9.90759 9.64062 11.0013 9.85938C11.043 9.86979 11.0795 9.88021 11.1107 9.89062C11.1524 9.89062 11.1941 9.89583 11.2357 9.90625C11.2878 9.91667 11.3451 9.92708 11.4076 9.9375C11.4701 9.94792 11.5274 9.95833 11.5795 9.96875C12.9857 10.25 14.1576 10.5885 15.0951 10.9844C16.043 11.3802 16.8347 12.0156 17.4701 12.8906C18.1055 13.7656 18.4232 14.9583 18.4232 16.4688V16.5C18.4232 17.9167 18.0899 19.1302 17.4232 20.1406C16.7566 21.151 15.7878 21.9219 14.517 22.4531C13.2461 22.974 11.7149 23.2344 9.92322 23.2344ZM28.7201 23.2344C27.2826 23.2344 26.0482 22.9583 25.017 22.4062C23.9961 21.8542 23.2149 21.0521 22.6732 20C22.142 18.9375 21.8763 17.6615 21.8763 16.1719V13.5312C21.8763 12.0625 22.142 10.8073 22.6732 9.76562C23.2149 8.71354 23.9961 7.91667 25.017 7.375C26.0482 6.82292 27.2826 6.54688 28.7201 6.54688C30.1576 6.54688 31.3868 6.82292 32.4076 7.375C33.4388 7.91667 34.2201 8.71354 34.7513 9.76562C35.293 10.8073 35.5638 12.0625 35.5638 13.5312V16.2188C35.5638 17.6979 35.293 18.9635 34.7513 20.0156C34.2201 21.0573 33.4388 21.8542 32.4076 22.4062C31.3868 22.9583 30.1576 23.2344 28.7201 23.2344ZM28.7201 19.6562C29.7097 19.6562 30.4753 19.3594 31.017 18.7656C31.5586 18.1615 31.8295 17.3125 31.8295 16.2188V13.5312C31.8295 12.4479 31.5586 11.6094 31.017 11.0156C30.4753 10.4219 29.7097 10.125 28.7201 10.125C27.7305 10.125 26.9649 10.4219 26.4232 11.0156C25.8816 11.6094 25.6107 12.4479 25.6107 13.5312V16.2188C25.6107 17.3125 25.8763 18.1615 26.4076 18.7656C26.9493 19.3594 27.7201 19.6562 28.7201 19.6562ZM46.4857 23.2344C44.9753 23.2344 43.6836 22.9531 42.6107 22.3906C41.5378 21.8177 40.7201 20.9896 40.1576 19.9062C39.5951 18.8125 39.3138 17.4948 39.3138 15.9531V13.75C39.3138 12.2292 39.5951 10.9323 40.1576 9.85938C40.7201 8.77604 41.5378 7.95312 42.6107 7.39062C43.6836 6.82812 44.9753 6.54688 46.4857 6.54688C47.3503 6.54688 48.1628 6.65104 48.9232 6.85938C49.6941 7.05729 50.3816 7.34896 50.9857 7.73438C51.6003 8.11979 52.1107 8.58854 52.517 9.14062L49.9857 11.5156C49.5586 11.0677 49.0586 10.724 48.4857 10.4844C47.9128 10.2448 47.3138 10.125 46.6888 10.125C45.5326 10.125 44.6368 10.4427 44.0013 11.0781C43.3659 11.7031 43.0482 12.5938 43.0482 13.75V15.9531C43.0482 17.1406 43.3607 18.0573 43.9857 18.7031C44.6211 19.3385 45.5222 19.6562 46.6888 19.6562C47.3243 19.6562 47.9284 19.526 48.5013 19.2656C49.0743 19.0052 49.5691 18.6354 49.9857 18.1562L52.517 20.6875C52.1003 21.2292 51.5847 21.6927 50.9701 22.0781C50.3659 22.4531 49.6784 22.7396 48.9076 22.9375C48.1472 23.1354 47.3399 23.2344 46.4857 23.2344ZM55.6107 0.28125H59.3295V4.01562H55.6107V0.28125ZM55.6107 6.78125H59.3295V23H55.6107V6.78125ZM72.7982 12.7188C72.7982 11.8125 72.5274 11.1094 71.9857 10.6094C71.4545 10.1094 70.6993 9.85938 69.7201 9.85938C69.0951 9.85938 68.4805 9.95833 67.8763 10.1562C67.2722 10.3542 66.7305 10.6302 66.2513 10.9844L63.767 8.89062C64.4024 8.15104 65.2357 7.57812 66.267 7.17188C67.2982 6.75521 68.4441 6.54688 69.7045 6.54688C71.0795 6.54688 72.2566 6.78646 73.2357 7.26562C74.2149 7.73438 74.9597 8.42188 75.4701 9.32812C75.9909 10.224 76.2513 11.3073 76.2513 12.5781V23H72.7982V12.7188ZM68.5482 23.2344C66.6836 23.2344 65.2878 22.8229 64.3607 22C63.4336 21.1667 62.9701 19.9062 62.9701 18.2188C62.9701 16.6146 63.4388 15.4115 64.3763 14.6094C65.3138 13.8073 66.7201 13.4062 68.5951 13.4062H72.9388L73.1576 16.3125H68.6107C67.8711 16.3125 67.3138 16.4688 66.9388 16.7812C66.5743 17.0938 66.392 17.5729 66.392 18.2188C66.392 18.8958 66.6316 19.401 67.1107 19.7344C67.5899 20.0573 68.3138 20.2188 69.2826 20.2188C70.4701 20.2188 71.3503 20.0885 71.9232 19.8281C72.5066 19.5677 72.7982 19.1615 72.7982 18.6094L73.1263 20.9219C72.9493 21.4323 72.6368 21.8594 72.1888 22.2031C71.7513 22.5469 71.2201 22.8073 70.5951 22.9844C69.9701 23.151 69.2878 23.2344 68.5482 23.2344ZM84.517 18.2344C84.517 18.6302 84.6159 18.9375 84.8138 19.1562C85.0118 19.3646 85.293 19.4688 85.6576 19.4688H86.767V23.0469H84.7357C83.4857 23.0469 82.5118 22.6719 81.8138 21.9219C81.1263 21.1719 80.7826 20.1146 80.7826 18.75V0.28125H84.517V18.2344ZM114.283 0.28125H118.595V23H115.095V5.67188L115.251 6.67188L110.283 20.1562H107.283L102.314 6.98438L102.47 5.67188V23H98.9701V0.28125H103.283L108.783 15.4375L114.283 0.28125ZM130.392 23.2344C128.861 23.2344 127.553 22.9531 126.47 22.3906C125.387 21.8281 124.559 21.0052 123.986 19.9219C123.413 18.8281 123.126 17.5104 123.126 15.9688V14.1406C123.126 12.5365 123.397 11.1667 123.939 10.0312C124.491 8.89583 125.288 8.03125 126.329 7.4375C127.382 6.84375 128.642 6.54688 130.111 6.54688C131.496 6.54688 132.678 6.89583 133.658 7.59375C134.647 8.28125 135.397 9.28125 135.908 10.5938C136.428 11.9062 136.689 13.4896 136.689 15.3438V16.4062H125.673V13.6719H133.22L133.204 13.5C133.1 12.3646 132.783 11.4844 132.251 10.8594C131.72 10.2344 131.007 9.92188 130.111 9.92188C128.986 9.92188 128.116 10.276 127.501 10.9844C126.887 11.6823 126.579 12.6771 126.579 13.9688V16.0312C126.579 17.2604 126.913 18.2083 127.579 18.875C128.246 19.5312 129.184 19.8594 130.392 19.8594C131.007 19.8594 131.611 19.7448 132.204 19.5156C132.809 19.276 133.35 18.9479 133.829 18.5312L136.267 20.8125C135.444 21.5833 134.517 22.1823 133.486 22.6094C132.465 23.026 131.434 23.2344 130.392 23.2344ZM149.736 0.28125H153.47V23H149.736V0.28125ZM145.814 23.2656C144.647 23.2656 143.647 23 142.814 22.4688C141.991 21.9271 141.361 21.151 140.923 20.1406C140.496 19.1198 140.283 17.8906 140.283 16.4531V13.3594C140.283 11.9219 140.496 10.6927 140.923 9.67188C141.35 8.64062 141.97 7.85938 142.783 7.32812C143.606 6.78646 144.59 6.51562 145.736 6.51562C146.652 6.51562 147.486 6.77083 148.236 7.28125C148.996 7.79167 149.606 8.51042 150.064 9.4375L149.736 12.8906C149.736 12.2656 149.626 11.7344 149.408 11.2969C149.189 10.8594 148.871 10.526 148.454 10.2969C148.038 10.0677 147.533 9.95312 146.939 9.95312C146.012 9.95312 145.293 10.2552 144.783 10.8594C144.272 11.4635 144.017 12.3073 144.017 13.3906V16.4531C144.017 17.526 144.272 18.3594 144.783 18.9531C145.293 19.5365 146.012 19.8281 146.939 19.8281C147.533 19.8281 148.038 19.7135 148.454 19.4844C148.871 19.2448 149.189 18.9062 149.408 18.4688C149.626 18.0312 149.736 17.5052 149.736 16.8906L149.954 20.4531C149.632 21.2969 149.111 21.9792 148.392 22.5C147.684 23.0104 146.824 23.2656 145.814 23.2656ZM157.892 0.28125H161.611V4.01562H157.892V0.28125ZM157.892 6.78125H161.611V23H157.892V6.78125ZM175.079 12.7188C175.079 11.8125 174.809 11.1094 174.267 10.6094C173.736 10.1094 172.981 9.85938 172.001 9.85938C171.376 9.85938 170.762 9.95833 170.158 10.1562C169.553 10.3542 169.012 10.6302 168.533 10.9844L166.048 8.89062C166.684 8.15104 167.517 7.57812 168.548 7.17188C169.579 6.75521 170.725 6.54688 171.986 6.54688C173.361 6.54688 174.538 6.78646 175.517 7.26562C176.496 7.73438 177.241 8.42188 177.751 9.32812C178.272 10.224 178.533 11.3073 178.533 12.5781V23H175.079V12.7188ZM170.829 23.2344C168.965 23.2344 167.569 22.8229 166.642 22C165.715 21.1667 165.251 19.9062 165.251 18.2188C165.251 16.6146 165.72 15.4115 166.658 14.6094C167.595 13.8073 169.001 13.4062 170.876 13.4062H175.22L175.439 16.3125H170.892C170.152 16.3125 169.595 16.4688 169.22 16.7812C168.856 17.0938 168.673 17.5729 168.673 18.2188C168.673 18.8958 168.913 19.401 169.392 19.7344C169.871 20.0573 170.595 20.2188 171.564 20.2188C172.751 20.2188 173.632 20.0885 174.204 19.8281C174.788 19.5677 175.079 19.1615 175.079 18.6094L175.408 20.9219C175.231 21.4323 174.918 21.8594 174.47 22.2031C174.033 22.5469 173.501 22.8073 172.876 22.9844C172.251 23.151 171.569 23.2344 170.829 23.2344Z" fill="#171717"/>
<path d="M201.001 21.5C203.654 21.5 206.197 20.4464 208.072 18.5711C209.948 16.6957 211.001 14.1522 211.001 11.5C211.001 8.84784 209.948 6.3043 208.072 4.42893C206.197 2.55357 203.654 1.5 201.001 1.5C198.349 1.5 195.806 2.55357 193.93 4.42893C192.055 6.3043 191.001 8.84784 191.001 11.5C191.001 14.1522 192.055 16.6957 193.93 18.5711C195.806 20.4464 198.349 21.5 201.001 21.5ZM199.751 9.625C199.751 10.66 199.191 11.5 198.501 11.5C197.811 11.5 197.251 10.66 197.251 9.625C197.251 8.59 197.811 7.75 198.501 7.75C199.191 7.75 199.751 8.59 199.751 9.625ZM196.358 13.4588C196.501 13.3759 196.672 13.3534 196.832 13.3963C196.992 13.4392 197.128 13.544 197.211 13.6875C197.595 14.3529 198.148 14.9055 198.813 15.2895C199.478 15.6735 200.233 15.8755 201.001 15.875C201.77 15.8755 202.524 15.6735 203.19 15.2895C203.855 14.9055 204.407 14.3529 204.791 13.6875C204.832 13.6158 204.887 13.553 204.952 13.5025C205.017 13.452 205.091 13.4148 205.171 13.3932C205.25 13.3716 205.333 13.366 205.415 13.3766C205.497 13.3872 205.576 13.4139 205.647 13.4551C205.719 13.4964 205.781 13.5513 205.831 13.6168C205.881 13.6822 205.918 13.757 205.939 13.8367C205.96 13.9163 205.965 13.9994 205.954 14.0811C205.943 14.1627 205.916 14.2414 205.874 14.3125C205.38 15.1679 204.67 15.8783 203.815 16.372C202.959 16.8657 201.989 17.1254 201.001 17.125C200.014 17.1254 199.043 16.8657 198.188 16.372C197.333 15.8783 196.622 15.1679 196.129 14.3125C196.046 14.169 196.024 13.9984 196.066 13.8383C196.109 13.6781 196.214 13.5416 196.358 13.4588ZM203.501 11.5C202.811 11.5 202.251 10.66 202.251 9.625C202.251 8.59 202.811 7.75 203.501 7.75C204.191 7.75 204.751 8.59 204.751 9.625C204.751 10.66 204.191 11.5 203.501 11.5Z" fill="#171717"/>
</svg>
