<svg width="436" height="24" viewBox="0 0 436 24" fill="none" xmlns="http://www.w3.org/2000/svg">
<path d="M5.41931 2.35547H8.20837V18H5.41931V2.35547ZM0.684937 0.960938H12.9427V3.64453H0.684937V0.960938ZM18.1576 18.1758C17.0092 18.1758 16.0287 17.9648 15.2162 17.543C14.4037 17.1211 13.7826 16.5039 13.3529 15.6914C12.9232 14.8711 12.7084 13.8828 12.7084 12.7266V11.3555C12.7084 10.1523 12.9115 9.125 13.3177 8.27344C13.7318 7.42188 14.3295 6.77344 15.1107 6.32812C15.8998 5.88281 16.8451 5.66016 17.9467 5.66016C18.9857 5.66016 19.8724 5.92187 20.6068 6.44531C21.349 6.96094 21.9115 7.71094 22.2943 8.69531C22.6849 9.67969 22.8802 10.8672 22.8802 12.2578V13.0547H14.6185V11.0039H20.2787L20.267 10.875C20.1888 10.0234 19.9506 9.36328 19.5521 8.89453C19.1537 8.42578 18.6185 8.19141 17.9467 8.19141C17.1029 8.19141 16.4506 8.45703 15.9896 8.98828C15.5287 9.51172 15.2982 10.2578 15.2982 11.2266V12.7734C15.2982 13.6953 15.5482 14.4062 16.0482 14.9062C16.5482 15.3984 17.2513 15.6445 18.1576 15.6445C18.6185 15.6445 19.0717 15.5586 19.517 15.3867C19.9701 15.207 20.3763 14.9609 20.7357 14.6484L22.5638 16.3594C21.9467 16.9375 21.2513 17.3867 20.4779 17.707C19.7123 18.0195 18.9388 18.1758 18.1576 18.1758ZM30.9545 18.1758C29.8217 18.1758 28.8529 17.9648 28.0482 17.543C27.2435 17.1133 26.6302 16.4922 26.2084 15.6797C25.7865 14.8594 25.5756 13.8711 25.5756 12.7148V11.0625C25.5756 9.92188 25.7865 8.94922 26.2084 8.14453C26.6302 7.33203 27.2435 6.71484 28.0482 6.29297C28.8529 5.87109 29.8217 5.66016 30.9545 5.66016C31.6029 5.66016 32.2123 5.73828 32.7826 5.89453C33.3607 6.04297 33.8763 6.26172 34.3295 6.55078C34.7904 6.83984 35.1732 7.19141 35.4779 7.60547L33.5795 9.38672C33.2592 9.05078 32.8842 8.79297 32.4545 8.61328C32.0248 8.43359 31.5756 8.34375 31.1068 8.34375C30.2396 8.34375 29.5677 8.58203 29.0912 9.05859C28.6146 9.52734 28.3763 10.1953 28.3763 11.0625V12.7148C28.3763 13.6055 28.6107 14.293 29.0795 14.7773C29.556 15.2539 30.2318 15.4922 31.1068 15.4922C31.5834 15.4922 32.0365 15.3945 32.4662 15.1992C32.8959 15.0039 33.267 14.7266 33.5795 14.3672L35.4779 16.2656C35.1654 16.6719 34.7787 17.0195 34.3177 17.3086C33.8646 17.5898 33.349 17.8047 32.7709 17.9531C32.2006 18.1016 31.5951 18.1758 30.9545 18.1758ZM37.8802 0.960938H40.681V18H37.8802V0.960938ZM45.0873 10.6289C45.0873 9.90234 44.892 9.33984 44.5013 8.94141C44.1107 8.54297 43.556 8.34375 42.8373 8.34375C42.1498 8.34375 41.6185 8.52734 41.2435 8.89453C40.8685 9.26172 40.681 9.78125 40.681 10.4531L40.4349 7.93359C40.8021 7.19922 41.2631 6.63672 41.8177 6.24609C42.3802 5.85547 43.0404 5.66016 43.7982 5.66016C45.0951 5.66016 46.099 6.09375 46.8099 6.96094C47.5287 7.82031 47.8881 9.03906 47.8881 10.6172V18H45.0873V10.6289ZM51.2865 5.83594H54.0873V18H51.2865V5.83594ZM58.4935 10.6289C58.4935 9.90234 58.2982 9.33984 57.9076 8.94141C57.517 8.54297 56.9623 8.34375 56.2435 8.34375C55.556 8.34375 55.0248 8.53125 54.6498 8.90625C54.2748 9.27344 54.0873 9.79688 54.0873 10.4766L53.8412 7.95703C54.2084 7.20703 54.6693 6.63672 55.224 6.24609C55.7865 5.85547 56.4467 5.66016 57.2045 5.66016C58.5013 5.66016 59.5052 6.09375 60.2162 6.96094C60.9349 7.82031 61.2943 9.03906 61.2943 10.6172V18H58.4935V10.6289ZM64.6107 0.960938H67.3998V3.76172H64.6107V0.960938ZM64.6107 5.83594H67.3998V18H64.6107V5.83594ZM75.7435 18.1758C74.6107 18.1758 73.642 17.9648 72.8373 17.543C72.0326 17.1133 71.4193 16.4922 70.9974 15.6797C70.5756 14.8594 70.3646 13.8711 70.3646 12.7148V11.0625C70.3646 9.92188 70.5756 8.94922 70.9974 8.14453C71.4193 7.33203 72.0326 6.71484 72.8373 6.29297C73.642 5.87109 74.6107 5.66016 75.7435 5.66016C76.392 5.66016 77.0013 5.73828 77.5717 5.89453C78.1498 6.04297 78.6654 6.26172 79.1185 6.55078C79.5795 6.83984 79.9623 7.19141 80.267 7.60547L78.3685 9.38672C78.0482 9.05078 77.6732 8.79297 77.2435 8.61328C76.8138 8.43359 76.3646 8.34375 75.8959 8.34375C75.0287 8.34375 74.3568 8.58203 73.8802 9.05859C73.4037 9.52734 73.1654 10.1953 73.1654 11.0625V12.7148C73.1654 13.6055 73.3998 14.293 73.8685 14.7773C74.3451 15.2539 75.0209 15.4922 75.8959 15.4922C76.3724 15.4922 76.8256 15.3945 77.2552 15.1992C77.6849 15.0039 78.056 14.7266 78.3685 14.3672L80.267 16.2656C79.9545 16.6719 79.5677 17.0195 79.1068 17.3086C78.6537 17.5898 78.1381 17.8047 77.5599 17.9531C76.9896 18.1016 76.3842 18.1758 75.7435 18.1758ZM89.4545 10.2891C89.4545 9.60938 89.2513 9.08203 88.8451 8.70703C88.4467 8.33203 87.8802 8.14453 87.1459 8.14453C86.6771 8.14453 86.2162 8.21875 85.7631 8.36719C85.3099 8.51562 84.9037 8.72266 84.5443 8.98828L82.681 7.41797C83.1576 6.86328 83.7826 6.43359 84.556 6.12891C85.3295 5.81641 86.1888 5.66016 87.1342 5.66016C88.1654 5.66016 89.0482 5.83984 89.7826 6.19922C90.517 6.55078 91.0756 7.06641 91.4584 7.74609C91.849 8.41797 92.0443 9.23047 92.0443 10.1836V18H89.4545V10.2891ZM86.267 18.1758C84.8685 18.1758 83.8217 17.8672 83.1263 17.25C82.431 16.625 82.0834 15.6797 82.0834 14.4141C82.0834 13.2109 82.4349 12.3086 83.1381 11.707C83.8412 11.1055 84.8959 10.8047 86.3021 10.8047H89.5599L89.724 12.9844H86.3138C85.7592 12.9844 85.3412 13.1016 85.0599 13.3359C84.7865 13.5703 84.6498 13.9297 84.6498 14.4141C84.6498 14.9219 84.8295 15.3008 85.1888 15.5508C85.5482 15.793 86.0912 15.9141 86.8177 15.9141C87.7084 15.9141 88.3685 15.8164 88.7982 15.6211C89.2357 15.4258 89.4545 15.1211 89.4545 14.707L89.7006 16.4414C89.5677 16.8242 89.3334 17.1445 88.9974 17.4023C88.6693 17.6602 88.2709 17.8555 87.8021 17.9883C87.3334 18.1133 86.8217 18.1758 86.267 18.1758ZM98.2435 14.4258C98.2435 14.7227 98.3177 14.9531 98.4662 15.1172C98.6146 15.2734 98.8256 15.3516 99.099 15.3516H99.931V18.0352H98.4076C97.4701 18.0352 96.7396 17.7539 96.2162 17.1914C95.7006 16.6289 95.4427 15.8359 95.4427 14.8125V0.960938H98.2435V14.4258ZM113.841 0.960938H115.88L122.279 18H119.267L114.861 5.30859L110.454 18H107.443L113.841 0.960938ZM110.454 12.082H119.419V14.7656H110.454V12.082ZM128.865 18.1758C128.138 18.1758 127.447 18.1094 126.79 17.9766C126.134 17.8359 125.517 17.6328 124.939 17.3672C124.369 17.1016 123.853 16.7773 123.392 16.3945L125.091 14.2852C125.708 14.7227 126.337 15.0547 126.978 15.2812C127.626 15.5078 128.255 15.6211 128.865 15.6211C129.716 15.6211 130.361 15.5078 130.798 15.2812C131.244 15.0469 131.466 14.7109 131.466 14.2734C131.466 13.9375 131.357 13.6875 131.138 13.5234C130.919 13.3516 130.642 13.2344 130.306 13.1719C129.978 13.1094 129.513 13.0508 128.911 12.9961C128.81 12.9883 128.704 12.9805 128.595 12.9727C128.486 12.9648 128.38 12.9531 128.279 12.9375C128.247 12.9375 128.216 12.9375 128.185 12.9375C128.154 12.9297 128.122 12.9258 128.091 12.9258C127.24 12.832 126.54 12.7031 125.994 12.5391C125.447 12.3672 124.986 12.043 124.611 11.5664C124.244 11.0898 124.06 10.4062 124.06 9.51562C124.06 8.67969 124.244 7.97656 124.611 7.40625C124.986 6.82812 125.533 6.39453 126.251 6.10547C126.97 5.80859 127.853 5.66016 128.9 5.66016C129.525 5.66016 130.134 5.72266 130.728 5.84766C131.322 5.96484 131.888 6.14062 132.427 6.375C132.974 6.60156 133.49 6.88672 133.974 7.23047L132.298 9.26953C131.728 8.92578 131.15 8.66406 130.564 8.48438C129.986 8.30469 129.423 8.21484 128.876 8.21484C128.142 8.21484 127.583 8.32031 127.201 8.53125C126.818 8.74219 126.626 9.05469 126.626 9.46875C126.626 9.73438 126.732 9.9375 126.943 10.0781C127.154 10.2188 127.415 10.3164 127.728 10.3711C128.048 10.418 128.509 10.4688 129.111 10.5234C129.173 10.5312 129.232 10.5391 129.286 10.5469C129.349 10.5469 129.411 10.5508 129.474 10.5586C129.497 10.5586 129.525 10.5586 129.556 10.5586C129.587 10.5586 129.619 10.5625 129.65 10.5703C130.548 10.6562 131.294 10.7852 131.888 10.957C132.482 11.1289 132.986 11.4727 133.4 11.9883C133.814 12.4961 134.021 13.2383 134.021 14.2148C134.021 15.0742 133.826 15.8008 133.435 16.3945C133.044 16.9805 132.462 17.4258 131.689 17.7305C130.923 18.0273 129.982 18.1758 128.865 18.1758ZM141.31 18.1758C140.583 18.1758 139.892 18.1094 139.236 17.9766C138.579 17.8359 137.962 17.6328 137.384 17.3672C136.814 17.1016 136.298 16.7773 135.837 16.3945L137.536 14.2852C138.154 14.7227 138.783 15.0547 139.423 15.2812C140.072 15.5078 140.701 15.6211 141.31 15.6211C142.161 15.6211 142.806 15.5078 143.244 15.2812C143.689 15.0469 143.911 14.7109 143.911 14.2734C143.911 13.9375 143.802 13.6875 143.583 13.5234C143.365 13.3516 143.087 13.2344 142.751 13.1719C142.423 13.1094 141.958 13.0508 141.357 12.9961C141.255 12.9883 141.15 12.9805 141.04 12.9727C140.931 12.9648 140.826 12.9531 140.724 12.9375C140.693 12.9375 140.661 12.9375 140.63 12.9375C140.599 12.9297 140.568 12.9258 140.536 12.9258C139.685 12.832 138.986 12.7031 138.439 12.5391C137.892 12.3672 137.431 12.043 137.056 11.5664C136.689 11.0898 136.505 10.4062 136.505 9.51562C136.505 8.67969 136.689 7.97656 137.056 7.40625C137.431 6.82812 137.978 6.39453 138.697 6.10547C139.415 5.80859 140.298 5.66016 141.345 5.66016C141.97 5.66016 142.579 5.72266 143.173 5.84766C143.767 5.96484 144.333 6.14062 144.872 6.375C145.419 6.60156 145.935 6.88672 146.419 7.23047L144.744 9.26953C144.173 8.92578 143.595 8.66406 143.009 8.48438C142.431 8.30469 141.869 8.21484 141.322 8.21484C140.587 8.21484 140.029 8.32031 139.646 8.53125C139.263 8.74219 139.072 9.05469 139.072 9.46875C139.072 9.73438 139.177 9.9375 139.388 10.0781C139.599 10.2188 139.861 10.3164 140.173 10.3711C140.494 10.418 140.954 10.4688 141.556 10.5234C141.619 10.5312 141.677 10.5391 141.732 10.5469C141.794 10.5469 141.857 10.5508 141.919 10.5586C141.943 10.5586 141.97 10.5586 142.001 10.5586C142.033 10.5586 142.064 10.5625 142.095 10.5703C142.994 10.6562 143.74 10.7852 144.333 10.957C144.927 11.1289 145.431 11.4727 145.845 11.9883C146.259 12.4961 146.466 13.2383 146.466 14.2148C146.466 15.0742 146.271 15.8008 145.88 16.3945C145.49 16.9805 144.908 17.4258 144.134 17.7305C143.369 18.0273 142.427 18.1758 141.31 18.1758ZM149.197 0.960938H151.986V3.76172H149.197V0.960938ZM149.197 5.83594H151.986V18H149.197V5.83594ZM159.779 18.1758C159.052 18.1758 158.361 18.1094 157.704 17.9766C157.048 17.8359 156.431 17.6328 155.853 17.3672C155.283 17.1016 154.767 16.7773 154.306 16.3945L156.005 14.2852C156.622 14.7227 157.251 15.0547 157.892 15.2812C158.54 15.5078 159.169 15.6211 159.779 15.6211C160.63 15.6211 161.275 15.5078 161.712 15.2812C162.158 15.0469 162.38 14.7109 162.38 14.2734C162.38 13.9375 162.271 13.6875 162.052 13.5234C161.833 13.3516 161.556 13.2344 161.22 13.1719C160.892 13.1094 160.427 13.0508 159.826 12.9961C159.724 12.9883 159.619 12.9805 159.509 12.9727C159.4 12.9648 159.294 12.9531 159.193 12.9375C159.161 12.9375 159.13 12.9375 159.099 12.9375C159.068 12.9297 159.036 12.9258 159.005 12.9258C158.154 12.832 157.454 12.7031 156.908 12.5391C156.361 12.3672 155.9 12.043 155.525 11.5664C155.158 11.0898 154.974 10.4062 154.974 9.51562C154.974 8.67969 155.158 7.97656 155.525 7.40625C155.9 6.82812 156.447 6.39453 157.165 6.10547C157.884 5.80859 158.767 5.66016 159.814 5.66016C160.439 5.66016 161.048 5.72266 161.642 5.84766C162.236 5.96484 162.802 6.14062 163.341 6.375C163.888 6.60156 164.404 6.88672 164.888 7.23047L163.212 9.26953C162.642 8.92578 162.064 8.66406 161.478 8.48438C160.9 8.30469 160.337 8.21484 159.79 8.21484C159.056 8.21484 158.497 8.32031 158.115 8.53125C157.732 8.74219 157.54 9.05469 157.54 9.46875C157.54 9.73438 157.646 9.9375 157.857 10.0781C158.068 10.2188 158.329 10.3164 158.642 10.3711C158.962 10.418 159.423 10.4688 160.025 10.5234C160.087 10.5312 160.146 10.5391 160.201 10.5469C160.263 10.5469 160.326 10.5508 160.388 10.5586C160.411 10.5586 160.439 10.5586 160.47 10.5586C160.501 10.5586 160.533 10.5625 160.564 10.5703C161.462 10.6562 162.208 10.7852 162.802 10.957C163.396 11.1289 163.9 11.4727 164.314 11.9883C164.728 12.4961 164.935 13.2383 164.935 14.2148C164.935 15.0742 164.74 15.8008 164.349 16.3945C163.958 16.9805 163.376 17.4258 162.603 17.7305C161.837 18.0273 160.896 18.1758 159.779 18.1758ZM171.029 18.0586C170.005 18.0586 169.255 17.7891 168.779 17.25C168.302 16.7031 168.064 15.8984 168.064 14.8359V2.29688H170.865V14.4492C170.865 14.7461 170.923 14.9766 171.04 15.1406C171.158 15.2969 171.329 15.375 171.556 15.375H172.529V18.0586H171.029ZM166.81 5.83594H172.529V8.28516H166.81V5.83594ZM182.361 10.2891C182.361 9.60938 182.158 9.08203 181.751 8.70703C181.353 8.33203 180.786 8.14453 180.052 8.14453C179.583 8.14453 179.122 8.21875 178.669 8.36719C178.216 8.51562 177.81 8.72266 177.451 8.98828L175.587 7.41797C176.064 6.86328 176.689 6.43359 177.462 6.12891C178.236 5.81641 179.095 5.66016 180.04 5.66016C181.072 5.66016 181.954 5.83984 182.689 6.19922C183.423 6.55078 183.982 7.06641 184.365 7.74609C184.755 8.41797 184.951 9.23047 184.951 10.1836V18H182.361V10.2891ZM179.173 18.1758C177.775 18.1758 176.728 17.8672 176.033 17.25C175.337 16.625 174.99 15.6797 174.99 14.4141C174.99 13.2109 175.341 12.3086 176.044 11.707C176.747 11.1055 177.802 10.8047 179.208 10.8047H182.466L182.63 12.9844H179.22C178.665 12.9844 178.247 13.1016 177.966 13.3359C177.693 13.5703 177.556 13.9297 177.556 14.4141C177.556 14.9219 177.736 15.3008 178.095 15.5508C178.454 15.793 178.997 15.9141 179.724 15.9141C180.615 15.9141 181.275 15.8164 181.704 15.6211C182.142 15.4258 182.361 15.1211 182.361 14.707L182.607 16.4414C182.474 16.8242 182.24 17.1445 181.904 17.4023C181.576 17.6602 181.177 17.8555 180.708 17.9883C180.24 18.1133 179.728 18.1758 179.173 18.1758ZM188.349 5.83594H191.15V18H188.349V5.83594ZM195.556 10.6289C195.556 9.90234 195.361 9.33984 194.97 8.94141C194.579 8.54297 194.025 8.34375 193.306 8.34375C192.619 8.34375 192.087 8.53125 191.712 8.90625C191.337 9.27344 191.15 9.79688 191.15 10.4766L190.904 7.95703C191.271 7.20703 191.732 6.63672 192.286 6.24609C192.849 5.85547 193.509 5.66016 194.267 5.66016C195.564 5.66016 196.568 6.09375 197.279 6.96094C197.997 7.82031 198.357 9.03906 198.357 10.6172V18H195.556V10.6289ZM206.783 18.1758C205.65 18.1758 204.681 17.9648 203.876 17.543C203.072 17.1133 202.458 16.4922 202.036 15.6797C201.615 14.8594 201.404 13.8711 201.404 12.7148V11.0625C201.404 9.92188 201.615 8.94922 202.036 8.14453C202.458 7.33203 203.072 6.71484 203.876 6.29297C204.681 5.87109 205.65 5.66016 206.783 5.66016C207.431 5.66016 208.04 5.73828 208.611 5.89453C209.189 6.04297 209.704 6.26172 210.158 6.55078C210.619 6.83984 211.001 7.19141 211.306 7.60547L209.408 9.38672C209.087 9.05078 208.712 8.79297 208.283 8.61328C207.853 8.43359 207.404 8.34375 206.935 8.34375C206.068 8.34375 205.396 8.58203 204.919 9.05859C204.443 9.52734 204.204 10.1953 204.204 11.0625V12.7148C204.204 13.6055 204.439 14.293 204.908 14.7773C205.384 15.2539 206.06 15.4922 206.935 15.4922C207.411 15.4922 207.865 15.3945 208.294 15.1992C208.724 15.0039 209.095 14.7266 209.408 14.3672L211.306 16.2656C210.994 16.6719 210.607 17.0195 210.146 17.3086C209.693 17.5898 209.177 17.8047 208.599 17.9531C208.029 18.1016 207.423 18.1758 206.783 18.1758ZM218.806 18.1758C217.658 18.1758 216.677 17.9648 215.865 17.543C215.052 17.1211 214.431 16.5039 214.001 15.6914C213.572 14.8711 213.357 13.8828 213.357 12.7266V11.3555C213.357 10.1523 213.56 9.125 213.966 8.27344C214.38 7.42188 214.978 6.77344 215.759 6.32812C216.548 5.88281 217.494 5.66016 218.595 5.66016C219.634 5.66016 220.521 5.92187 221.255 6.44531C221.997 6.96094 222.56 7.71094 222.943 8.69531C223.333 9.67969 223.529 10.8672 223.529 12.2578V13.0547H215.267V11.0039H220.927L220.915 10.875C220.837 10.0234 220.599 9.36328 220.201 8.89453C219.802 8.42578 219.267 8.19141 218.595 8.19141C217.751 8.19141 217.099 8.45703 216.638 8.98828C216.177 9.51172 215.947 10.2578 215.947 11.2266V12.7734C215.947 13.6953 216.197 14.4062 216.697 14.9062C217.197 15.3984 217.9 15.6445 218.806 15.6445C219.267 15.6445 219.72 15.5586 220.165 15.3867C220.619 15.207 221.025 14.9609 221.384 14.6484L223.212 16.3594C222.595 16.9375 221.9 17.3867 221.126 17.707C220.361 18.0195 219.587 18.1758 218.806 18.1758ZM241.13 10.5586V13.2305H233.021V10.5586H241.13ZM256.447 18.1758C255.626 18.1758 254.837 18.0977 254.079 17.9414C253.329 17.7773 252.622 17.5391 251.958 17.2266C251.302 16.9141 250.701 16.5273 250.154 16.0664L251.642 13.8281C252.298 14.3828 253.033 14.8047 253.845 15.0938C254.665 15.375 255.533 15.5156 256.447 15.5156C257.587 15.5156 258.47 15.3125 259.095 14.9062C259.728 14.5 260.044 13.9258 260.044 13.1836V13.1719C260.044 12.6484 259.904 12.2344 259.622 11.9297C259.341 11.6172 258.974 11.3906 258.521 11.25C258.068 11.1016 257.486 10.9648 256.775 10.8398C256.751 10.832 256.728 10.8281 256.704 10.8281C256.681 10.8281 256.658 10.8242 256.634 10.8164L256.423 10.7812C255.283 10.5938 254.345 10.3711 253.611 10.1133C252.876 9.85547 252.251 9.39453 251.736 8.73047C251.22 8.06641 250.962 7.125 250.962 5.90625V5.89453C250.962 4.81641 251.204 3.89453 251.689 3.12891C252.173 2.36328 252.876 1.78125 253.798 1.38281C254.72 0.984375 255.829 0.785156 257.126 0.785156C257.736 0.785156 258.345 0.855469 258.954 0.996094C259.572 1.12891 260.173 1.32812 260.759 1.59375C261.353 1.85156 261.927 2.17578 262.482 2.56641L261.122 4.875C260.466 4.40625 259.798 4.05078 259.119 3.80859C258.439 3.56641 257.775 3.44531 257.126 3.44531C256.048 3.44531 255.212 3.64453 254.619 4.04297C254.033 4.43359 253.74 4.98828 253.74 5.70703V5.71875C253.74 6.25781 253.892 6.68359 254.197 6.99609C254.501 7.30859 254.88 7.53906 255.333 7.6875C255.794 7.82812 256.435 7.98047 257.255 8.14453C257.286 8.15234 257.314 8.16016 257.337 8.16797C257.369 8.16797 257.4 8.17188 257.431 8.17969C257.47 8.1875 257.513 8.19531 257.56 8.20312C257.607 8.21094 257.65 8.21875 257.689 8.22656C258.744 8.4375 259.622 8.69141 260.326 8.98828C261.036 9.28516 261.63 9.76172 262.107 10.418C262.583 11.0742 262.822 11.9688 262.822 13.1016V13.125C262.822 14.1875 262.572 15.0977 262.072 15.8555C261.572 16.6133 260.845 17.1914 259.892 17.5898C258.939 17.9805 257.79 18.1758 256.447 18.1758ZM265.763 5.83594H268.564V22.9453H265.763V5.83594ZM271.505 18.1758C270.771 18.1758 270.134 17.9961 269.595 17.6367C269.056 17.2695 268.658 16.7539 268.4 16.0898L268.564 13.4297C268.564 13.8906 268.646 14.2852 268.81 14.6133C268.974 14.9336 269.212 15.1797 269.525 15.3516C269.837 15.5234 270.216 15.6094 270.661 15.6094C271.357 15.6094 271.896 15.3906 272.279 14.9531C272.661 14.5156 272.853 13.8945 272.853 13.0898V10.8047C272.853 9.98438 272.661 9.35156 272.279 8.90625C271.896 8.45312 271.357 8.22656 270.661 8.22656C270.216 8.22656 269.837 8.3125 269.525 8.48438C269.212 8.64844 268.974 8.89453 268.81 9.22266C268.646 9.55078 268.564 9.94531 268.564 10.4062L268.318 7.88672C268.661 7.17578 269.115 6.62891 269.677 6.24609C270.247 5.85547 270.876 5.66016 271.564 5.66016C272.423 5.66016 273.158 5.85938 273.767 6.25781C274.384 6.65625 274.853 7.24219 275.173 8.01562C275.494 8.78125 275.654 9.70703 275.654 10.793V13.0898C275.654 14.1602 275.49 15.0781 275.161 15.8438C274.841 16.6016 274.369 17.1797 273.744 17.5781C273.119 17.9766 272.372 18.1758 271.505 18.1758ZM278.818 5.83594H281.736V18H278.818V5.83594ZM285.591 8.96484C285.404 8.76172 285.173 8.60938 284.9 8.50781C284.626 8.39844 284.31 8.34375 283.951 8.34375C283.247 8.34375 282.701 8.55469 282.31 8.97656C281.927 9.39062 281.736 9.96875 281.736 10.7109L281.49 7.95703C281.841 7.23047 282.298 6.66797 282.861 6.26953C283.431 5.86328 284.056 5.66016 284.736 5.66016C285.267 5.66016 285.747 5.74219 286.177 5.90625C286.607 6.0625 286.982 6.29688 287.302 6.60938L285.591 8.96484ZM288.978 0.960938H291.767V3.76172H288.978V0.960938ZM288.978 5.83594H291.767V18H288.978V5.83594ZM295.083 5.83594H297.884V18H295.083V5.83594ZM302.29 10.6289C302.29 9.90234 302.095 9.33984 301.704 8.94141C301.314 8.54297 300.759 8.34375 300.04 8.34375C299.353 8.34375 298.822 8.53125 298.447 8.90625C298.072 9.27344 297.884 9.79688 297.884 10.4766L297.638 7.95703C298.005 7.20703 298.466 6.63672 299.021 6.24609C299.583 5.85547 300.244 5.66016 301.001 5.66016C302.298 5.66016 303.302 6.09375 304.013 6.96094C304.732 7.82031 305.091 9.03906 305.091 10.6172V18H302.29V10.6289ZM312.685 22.9453C311.747 22.9453 310.908 22.7734 310.165 22.4297C309.423 22.0938 308.845 21.6172 308.431 21L310.318 19.2773C310.607 19.6445 310.954 19.9258 311.361 20.1211C311.775 20.3164 312.204 20.4141 312.65 20.4141C313.447 20.4141 314.076 20.1953 314.536 19.7578C314.997 19.3281 315.228 18.7188 315.228 17.9297V5.83594H318.029V17.6367C318.029 18.7539 317.818 19.7109 317.396 20.5078C316.982 21.3047 316.372 21.9102 315.568 22.3242C314.771 22.7383 313.81 22.9453 312.685 22.9453ZM312.286 18.1992C311.411 18.1992 310.661 18 310.036 17.6016C309.419 17.1953 308.947 16.6133 308.619 15.8555C308.298 15.0898 308.138 14.168 308.138 13.0898V10.7695C308.138 9.69141 308.298 8.76953 308.619 8.00391C308.939 7.23047 309.404 6.64453 310.013 6.24609C310.63 5.83984 311.369 5.63672 312.228 5.63672C312.915 5.63672 313.54 5.82812 314.103 6.21094C314.673 6.59375 315.13 7.13281 315.474 7.82812L315.228 10.418C315.228 9.94922 315.146 9.55078 314.982 9.22266C314.818 8.89453 314.579 8.64453 314.267 8.47266C313.954 8.30078 313.576 8.21484 313.13 8.21484C312.435 8.21484 311.896 8.44141 311.513 8.89453C311.13 9.34766 310.939 9.98047 310.939 10.793V13.0898C310.939 13.8945 311.13 14.5195 311.513 14.9648C311.896 15.4023 312.435 15.6211 313.13 15.6211C313.576 15.6211 313.954 15.5352 314.267 15.3633C314.579 15.1836 314.818 14.9297 314.982 14.6016C315.146 14.2734 315.228 13.8789 315.228 13.418L315.392 16.0898C315.15 16.7227 314.759 17.2344 314.22 17.625C313.689 18.0078 313.044 18.1992 312.286 18.1992ZM330.497 2.35547H333.286V18H330.497V2.35547ZM325.763 0.960938H338.021V3.64453H325.763V0.960938ZM339.427 0.960938H342.228V18H339.427V0.960938ZM346.634 10.6289C346.634 9.90234 346.439 9.33984 346.048 8.94141C345.658 8.54297 345.103 8.34375 344.384 8.34375C343.697 8.34375 343.165 8.52734 342.79 8.89453C342.415 9.26172 342.228 9.78125 342.228 10.4531L341.982 7.93359C342.349 7.19922 342.81 6.63672 343.365 6.24609C343.927 5.85547 344.587 5.66016 345.345 5.66016C346.642 5.66016 347.646 6.09375 348.357 6.96094C349.076 7.82031 349.435 9.03906 349.435 10.6172V18H346.634V10.6289ZM362.197 5.83594L356.9 20.8477C356.704 21.4023 356.454 21.8398 356.15 22.1602C355.853 22.4883 355.482 22.7227 355.036 22.8633C354.591 23.0039 354.044 23.0742 353.396 23.0742H352.798V20.3672H353.396C353.794 20.3672 354.115 20.2852 354.357 20.1211C354.607 19.957 354.81 19.6797 354.966 19.2891L359.466 5.83594H362.197ZM351.193 5.83594H353.923L357.837 16.4062L356.161 18.9961L351.193 5.83594ZM378.439 10.8047C378.439 10.0156 378.244 9.41016 377.853 8.98828C377.462 8.55859 376.908 8.34375 376.189 8.34375C375.509 8.34375 374.982 8.55078 374.607 8.96484C374.24 9.37109 374.056 9.95312 374.056 10.7109L373.517 8.13281C373.9 7.34375 374.4 6.73438 375.017 6.30469C375.642 5.875 376.333 5.66016 377.091 5.66016C377.966 5.66016 378.712 5.85938 379.329 6.25781C379.954 6.65625 380.427 7.24219 380.747 8.01562C381.076 8.78125 381.24 9.70703 381.24 10.793V18H378.439V10.8047ZM364.083 5.83594H366.884V18H364.083V5.83594ZM371.267 10.8047C371.267 10.0156 371.072 9.41016 370.681 8.98828C370.298 8.55859 369.751 8.34375 369.04 8.34375C368.353 8.34375 367.822 8.53125 367.447 8.90625C367.072 9.27344 366.884 9.79688 366.884 10.4766L366.638 7.95703C367.005 7.21484 367.474 6.64844 368.044 6.25781C368.615 5.85938 369.267 5.66016 370.001 5.66016C370.853 5.66016 371.583 5.85938 372.193 6.25781C372.802 6.65625 373.263 7.24219 373.576 8.01562C373.896 8.78125 374.056 9.70703 374.056 10.793V18H371.267V10.8047ZM389.736 18.1758C388.587 18.1758 387.607 17.9648 386.794 17.543C385.982 17.1211 385.361 16.5039 384.931 15.6914C384.501 14.8711 384.286 13.8828 384.286 12.7266V11.3555C384.286 10.1523 384.49 9.125 384.896 8.27344C385.31 7.42188 385.908 6.77344 386.689 6.32812C387.478 5.88281 388.423 5.66016 389.525 5.66016C390.564 5.66016 391.451 5.92187 392.185 6.44531C392.927 6.96094 393.49 7.71094 393.872 8.69531C394.263 9.67969 394.458 10.8672 394.458 12.2578V13.0547H386.197V11.0039H391.857L391.845 10.875C391.767 10.0234 391.529 9.36328 391.13 8.89453C390.732 8.42578 390.197 8.19141 389.525 8.19141C388.681 8.19141 388.029 8.45703 387.568 8.98828C387.107 9.51172 386.876 10.2578 386.876 11.2266V12.7734C386.876 13.6953 387.126 14.4062 387.626 14.9062C388.126 15.3984 388.829 15.6445 389.736 15.6445C390.197 15.6445 390.65 15.5586 391.095 15.3867C391.548 15.207 391.954 14.9609 392.314 14.6484L394.142 16.3594C393.525 16.9375 392.829 17.3867 392.056 17.707C391.29 18.0195 390.517 18.1758 389.736 18.1758ZM400.306 14.4258C400.306 14.7227 400.38 14.9531 400.529 15.1172C400.677 15.2734 400.888 15.3516 401.161 15.3516H401.994V18.0352H400.47C399.533 18.0352 398.802 17.7539 398.279 17.1914C397.763 16.6289 397.505 15.8359 397.505 14.8125V0.960938H400.306V14.4258ZM409.564 18.1758C408.415 18.1758 407.435 17.9648 406.622 17.543C405.81 17.1211 405.189 16.5039 404.759 15.6914C404.329 14.8711 404.115 13.8828 404.115 12.7266V11.3555C404.115 10.1523 404.318 9.125 404.724 8.27344C405.138 7.42188 405.736 6.77344 406.517 6.32812C407.306 5.88281 408.251 5.66016 409.353 5.66016C410.392 5.66016 411.279 5.92187 412.013 6.44531C412.755 6.96094 413.318 7.71094 413.701 8.69531C414.091 9.67969 414.286 10.8672 414.286 12.2578V13.0547H406.025V11.0039H411.685L411.673 10.875C411.595 10.0234 411.357 9.36328 410.958 8.89453C410.56 8.42578 410.025 8.19141 409.353 8.19141C408.509 8.19141 407.857 8.45703 407.396 8.98828C406.935 9.51172 406.704 10.2578 406.704 11.2266V12.7734C406.704 13.6953 406.954 14.4062 407.454 14.9062C407.954 15.3984 408.658 15.6445 409.564 15.6445C410.025 15.6445 410.478 15.5586 410.923 15.3867C411.376 15.207 411.783 14.9609 412.142 14.6484L413.97 16.3594C413.353 16.9375 412.658 17.3867 411.884 17.707C411.119 18.0195 410.345 18.1758 409.564 18.1758ZM424.119 10.2891C424.119 9.60938 423.915 9.08203 423.509 8.70703C423.111 8.33203 422.544 8.14453 421.81 8.14453C421.341 8.14453 420.88 8.21875 420.427 8.36719C419.974 8.51562 419.568 8.72266 419.208 8.98828L417.345 7.41797C417.822 6.86328 418.447 6.43359 419.22 6.12891C419.994 5.81641 420.853 5.66016 421.798 5.66016C422.829 5.66016 423.712 5.83984 424.447 6.19922C425.181 6.55078 425.74 7.06641 426.122 7.74609C426.513 8.41797 426.708 9.23047 426.708 10.1836V18H424.119V10.2891ZM420.931 18.1758C419.533 18.1758 418.486 17.8672 417.79 17.25C417.095 16.625 416.747 15.6797 416.747 14.4141C416.747 13.2109 417.099 12.3086 417.802 11.707C418.505 11.1055 419.56 10.8047 420.966 10.8047H424.224L424.388 12.9844H420.978C420.423 12.9844 420.005 13.1016 419.724 13.3359C419.451 13.5703 419.314 13.9297 419.314 14.4141C419.314 14.9219 419.494 15.3008 419.853 15.5508C420.212 15.793 420.755 15.9141 421.482 15.9141C422.372 15.9141 423.033 15.8164 423.462 15.6211C423.9 15.4258 424.119 15.1211 424.119 14.707L424.365 16.4414C424.232 16.8242 423.997 17.1445 423.661 17.4023C423.333 17.6602 422.935 17.8555 422.466 17.9883C421.997 18.1133 421.486 18.1758 420.931 18.1758ZM430.458 4.18359C430.458 3.10547 430.704 2.30078 431.197 1.76953C431.697 1.23047 432.462 0.960938 433.494 0.960938H435.486V3.52734H433.951C433.724 3.52734 433.552 3.61328 433.435 3.78516C433.318 3.95703 433.259 4.17969 433.259 4.45312V18H430.458V4.18359ZM429.169 5.83594H435.486V8.22656H429.169V5.83594Z" fill="#171717"/>
</svg>
