<svg width="386" height="24" viewBox="0 0 386 24" fill="none" xmlns="http://www.w3.org/2000/svg">
<path d="M7.18884 2.14062H10.9076V23H7.18884V2.14062ZM0.876343 0.28125H17.2201V3.85938H0.876343V0.28125ZM24.1732 23.2344C22.642 23.2344 21.3347 22.9531 20.2513 22.3906C19.168 21.8281 18.3399 21.0052 17.767 19.9219C17.1941 18.8281 16.9076 17.5104 16.9076 15.9688V14.1406C16.9076 12.5365 17.1784 11.1667 17.7201 10.0312C18.2722 8.89583 19.0691 8.03125 20.1107 7.4375C21.1628 6.84375 22.4232 6.54688 23.892 6.54688C25.2774 6.54688 26.4597 6.89583 27.4388 7.59375C28.4284 8.28125 29.1784 9.28125 29.6888 10.5938C30.2097 11.9062 30.4701 13.4896 30.4701 15.3438V16.4062H19.4545V13.6719H27.0013L26.9857 13.5C26.8816 12.3646 26.5638 11.4844 26.0326 10.8594C25.5013 10.2344 24.7878 9.92188 23.892 9.92188C22.767 9.92188 21.8972 10.276 21.2826 10.9844C20.668 11.6823 20.3607 12.6771 20.3607 13.9688V16.0312C20.3607 17.2604 20.6941 18.2083 21.3607 18.875C22.0274 19.5312 22.9649 19.8594 24.1732 19.8594C24.7878 19.8594 25.392 19.7448 25.9857 19.5156C26.5899 19.276 27.1316 18.9479 27.6107 18.5312L30.0482 20.8125C29.2253 21.5833 28.2982 22.1823 27.267 22.6094C26.2461 23.026 25.2149 23.2344 24.1732 23.2344ZM41.2357 23.2344C39.7253 23.2344 38.4336 22.9531 37.3607 22.3906C36.2878 21.8177 35.4701 20.9896 34.9076 19.9062C34.3451 18.8125 34.0638 17.4948 34.0638 15.9531V13.75C34.0638 12.2292 34.3451 10.9323 34.9076 9.85938C35.4701 8.77604 36.2878 7.95312 37.3607 7.39062C38.4336 6.82812 39.7253 6.54688 41.2357 6.54688C42.1003 6.54688 42.9128 6.65104 43.6732 6.85938C44.4441 7.05729 45.1316 7.34896 45.7357 7.73438C46.3503 8.11979 46.8607 8.58854 47.267 9.14062L44.7357 11.5156C44.3086 11.0677 43.8086 10.724 43.2357 10.4844C42.6628 10.2448 42.0638 10.125 41.4388 10.125C40.2826 10.125 39.3868 10.4427 38.7513 11.0781C38.1159 11.7031 37.7982 12.5938 37.7982 13.75V15.9531C37.7982 17.1406 38.1107 18.0573 38.7357 18.7031C39.3711 19.3385 40.2722 19.6562 41.4388 19.6562C42.0743 19.6562 42.6784 19.526 43.2513 19.2656C43.8243 19.0052 44.3191 18.6354 44.7357 18.1562L47.267 20.6875C46.8503 21.2292 46.3347 21.6927 45.7201 22.0781C45.1159 22.4531 44.4284 22.7396 43.6576 22.9375C42.8972 23.1354 42.0899 23.2344 41.2357 23.2344ZM50.4701 0.28125H54.2045V23H50.4701V0.28125ZM60.0795 13.1719C60.0795 12.2031 59.8191 11.4531 59.2982 10.9219C58.7774 10.3906 58.0378 10.125 57.0795 10.125C56.1628 10.125 55.4545 10.3698 54.9545 10.8594C54.4545 11.349 54.2045 12.0417 54.2045 12.9375L53.8763 9.57812C54.3659 8.59896 54.9805 7.84896 55.7201 7.32812C56.4701 6.80729 57.3503 6.54688 58.3607 6.54688C60.0899 6.54688 61.4284 7.125 62.3763 8.28125C63.3347 9.42708 63.8138 11.0521 63.8138 13.1562V23H60.0795V13.1719ZM68.3451 6.78125H72.0795V23H68.3451V6.78125ZM77.9545 13.1719C77.9545 12.2031 77.6941 11.4531 77.1732 10.9219C76.6524 10.3906 75.9128 10.125 74.9545 10.125C74.0378 10.125 73.3295 10.375 72.8295 10.875C72.3295 11.3646 72.0795 12.0625 72.0795 12.9688L71.7513 9.60938C72.2409 8.60938 72.8555 7.84896 73.5951 7.32812C74.3451 6.80729 75.2253 6.54688 76.2357 6.54688C77.9649 6.54688 79.3034 7.125 80.2513 8.28125C81.2097 9.42708 81.6888 11.0521 81.6888 13.1562V23H77.9545V13.1719ZM86.1107 0.28125H89.8295V4.01562H86.1107V0.28125ZM86.1107 6.78125H89.8295V23H86.1107V6.78125ZM100.954 23.2344C99.4441 23.2344 98.1524 22.9531 97.0795 22.3906C96.0066 21.8177 95.1888 20.9896 94.6263 19.9062C94.0638 18.8125 93.7826 17.4948 93.7826 15.9531V13.75C93.7826 12.2292 94.0638 10.9323 94.6263 9.85938C95.1888 8.77604 96.0066 7.95312 97.0795 7.39062C98.1524 6.82812 99.4441 6.54688 100.954 6.54688C101.819 6.54688 102.632 6.65104 103.392 6.85938C104.163 7.05729 104.85 7.34896 105.454 7.73438C106.069 8.11979 106.579 8.58854 106.986 9.14062L104.454 11.5156C104.027 11.0677 103.527 10.724 102.954 10.4844C102.382 10.2448 101.783 10.125 101.158 10.125C100.001 10.125 99.1055 10.4427 98.4701 11.0781C97.8347 11.7031 97.517 12.5938 97.517 13.75V15.9531C97.517 17.1406 97.8295 18.0573 98.4545 18.7031C99.0899 19.3385 99.9909 19.6562 101.158 19.6562C101.793 19.6562 102.397 19.526 102.97 19.2656C103.543 19.0052 104.038 18.6354 104.454 18.1562L106.986 20.6875C106.569 21.2292 106.053 21.6927 105.439 22.0781C104.835 22.4531 104.147 22.7396 103.376 22.9375C102.616 23.1354 101.809 23.2344 100.954 23.2344ZM119.236 12.7188C119.236 11.8125 118.965 11.1094 118.423 10.6094C117.892 10.1094 117.137 9.85938 116.158 9.85938C115.533 9.85938 114.918 9.95833 114.314 10.1562C113.71 10.3542 113.168 10.6302 112.689 10.9844L110.204 8.89062C110.84 8.15104 111.673 7.57812 112.704 7.17188C113.736 6.75521 114.882 6.54688 116.142 6.54688C117.517 6.54688 118.694 6.78646 119.673 7.26562C120.652 7.73438 121.397 8.42188 121.908 9.32812C122.428 10.224 122.689 11.3073 122.689 12.5781V23H119.236V12.7188ZM114.986 23.2344C113.121 23.2344 111.725 22.8229 110.798 22C109.871 21.1667 109.408 19.9062 109.408 18.2188C109.408 16.6146 109.876 15.4115 110.814 14.6094C111.751 13.8073 113.158 13.4062 115.033 13.4062H119.376L119.595 16.3125H115.048C114.309 16.3125 113.751 16.4688 113.376 16.7812C113.012 17.0938 112.829 17.5729 112.829 18.2188C112.829 18.8958 113.069 19.401 113.548 19.7344C114.027 20.0573 114.751 20.2188 115.72 20.2188C116.908 20.2188 117.788 20.0885 118.361 19.8281C118.944 19.5677 119.236 19.1615 119.236 18.6094L119.564 20.9219C119.387 21.4323 119.074 21.8594 118.626 22.2031C118.189 22.5469 117.658 22.8073 117.033 22.9844C116.408 23.151 115.725 23.2344 114.986 23.2344ZM130.954 18.2344C130.954 18.6302 131.053 18.9375 131.251 19.1562C131.449 19.3646 131.731 19.4688 132.095 19.4688H133.204V23.0469H131.173C129.923 23.0469 128.949 22.6719 128.251 21.9219C127.564 21.1719 127.22 20.1146 127.22 18.75V0.28125H130.954V18.2344ZM151.751 0.28125H154.47L163.001 23H158.986L153.111 6.07812L147.236 23H143.22L151.751 0.28125ZM147.236 15.1094H159.189V18.6875H147.236V15.1094ZM171.783 23.2344C170.814 23.2344 169.892 23.1458 169.017 22.9688C168.142 22.7812 167.319 22.5104 166.548 22.1562C165.788 21.8021 165.1 21.3698 164.486 20.8594L166.751 18.0469C167.574 18.6302 168.413 19.0729 169.267 19.375C170.132 19.6771 170.97 19.8281 171.783 19.8281C172.918 19.8281 173.777 19.6771 174.361 19.375C174.954 19.0625 175.251 18.6146 175.251 18.0312C175.251 17.5833 175.106 17.25 174.814 17.0312C174.522 16.8021 174.152 16.6458 173.704 16.5625C173.267 16.4792 172.647 16.401 171.845 16.3281C171.71 16.3177 171.569 16.3073 171.423 16.2969C171.277 16.2865 171.137 16.2708 171.001 16.25C170.96 16.25 170.918 16.25 170.876 16.25C170.835 16.2396 170.793 16.2344 170.751 16.2344C169.616 16.1094 168.684 15.9375 167.954 15.7188C167.225 15.4896 166.611 15.0573 166.111 14.4219C165.621 13.7865 165.376 12.875 165.376 11.6875C165.376 10.5729 165.621 9.63542 166.111 8.875C166.611 8.10417 167.34 7.52604 168.298 7.14062C169.257 6.74479 170.434 6.54688 171.829 6.54688C172.663 6.54688 173.475 6.63021 174.267 6.79688C175.059 6.95312 175.814 7.1875 176.533 7.5C177.262 7.80208 177.949 8.18229 178.595 8.64062L176.361 11.3594C175.6 10.901 174.829 10.5521 174.048 10.3125C173.277 10.0729 172.527 9.95312 171.798 9.95312C170.819 9.95312 170.074 10.0938 169.564 10.375C169.053 10.6562 168.798 11.0729 168.798 11.625C168.798 11.9792 168.939 12.25 169.22 12.4375C169.501 12.625 169.85 12.7552 170.267 12.8281C170.694 12.8906 171.309 12.9583 172.111 13.0312C172.194 13.0417 172.272 13.0521 172.345 13.0625C172.428 13.0625 172.512 13.0677 172.595 13.0781C172.626 13.0781 172.663 13.0781 172.704 13.0781C172.746 13.0781 172.788 13.0833 172.829 13.0938C174.027 13.2083 175.022 13.3802 175.814 13.6094C176.606 13.8385 177.277 14.2969 177.829 14.9844C178.382 15.6615 178.658 16.651 178.658 17.9531C178.658 19.099 178.397 20.0677 177.876 20.8594C177.356 21.6406 176.579 22.2344 175.548 22.6406C174.527 23.0365 173.272 23.2344 171.783 23.2344ZM188.376 23.2344C187.408 23.2344 186.486 23.1458 185.611 22.9688C184.736 22.7812 183.913 22.5104 183.142 22.1562C182.382 21.8021 181.694 21.3698 181.079 20.8594L183.345 18.0469C184.168 18.6302 185.007 19.0729 185.861 19.375C186.725 19.6771 187.564 19.8281 188.376 19.8281C189.512 19.8281 190.371 19.6771 190.954 19.375C191.548 19.0625 191.845 18.6146 191.845 18.0312C191.845 17.5833 191.699 17.25 191.408 17.0312C191.116 16.8021 190.746 16.6458 190.298 16.5625C189.861 16.4792 189.241 16.401 188.439 16.3281C188.303 16.3177 188.163 16.3073 188.017 16.2969C187.871 16.2865 187.731 16.2708 187.595 16.25C187.553 16.25 187.512 16.25 187.47 16.25C187.428 16.2396 187.387 16.2344 187.345 16.2344C186.21 16.1094 185.277 15.9375 184.548 15.7188C183.819 15.4896 183.204 15.0573 182.704 14.4219C182.215 13.7865 181.97 12.875 181.97 11.6875C181.97 10.5729 182.215 9.63542 182.704 8.875C183.204 8.10417 183.934 7.52604 184.892 7.14062C185.85 6.74479 187.027 6.54688 188.423 6.54688C189.257 6.54688 190.069 6.63021 190.861 6.79688C191.652 6.95312 192.408 7.1875 193.126 7.5C193.856 7.80208 194.543 8.18229 195.189 8.64062L192.954 11.3594C192.194 10.901 191.423 10.5521 190.642 10.3125C189.871 10.0729 189.121 9.95312 188.392 9.95312C187.413 9.95312 186.668 10.0938 186.158 10.375C185.647 10.6562 185.392 11.0729 185.392 11.625C185.392 11.9792 185.533 12.25 185.814 12.4375C186.095 12.625 186.444 12.7552 186.861 12.8281C187.288 12.8906 187.902 12.9583 188.704 13.0312C188.788 13.0417 188.866 13.0521 188.939 13.0625C189.022 13.0625 189.106 13.0677 189.189 13.0781C189.22 13.0781 189.257 13.0781 189.298 13.0781C189.34 13.0781 189.382 13.0833 189.423 13.0938C190.621 13.2083 191.616 13.3802 192.408 13.6094C193.199 13.8385 193.871 14.2969 194.423 14.9844C194.975 15.6615 195.251 16.651 195.251 17.9531C195.251 19.099 194.991 20.0677 194.47 20.8594C193.949 21.6406 193.173 22.2344 192.142 22.6406C191.121 23.0365 189.866 23.2344 188.376 23.2344ZM198.892 0.28125H202.611V4.01562H198.892V0.28125ZM198.892 6.78125H202.611V23H198.892V6.78125ZM213.001 23.2344C212.033 23.2344 211.111 23.1458 210.236 22.9688C209.361 22.7812 208.538 22.5104 207.767 22.1562C207.007 21.8021 206.319 21.3698 205.704 20.8594L207.97 18.0469C208.793 18.6302 209.632 19.0729 210.486 19.375C211.35 19.6771 212.189 19.8281 213.001 19.8281C214.137 19.8281 214.996 19.6771 215.579 19.375C216.173 19.0625 216.47 18.6146 216.47 18.0312C216.47 17.5833 216.324 17.25 216.033 17.0312C215.741 16.8021 215.371 16.6458 214.923 16.5625C214.486 16.4792 213.866 16.401 213.064 16.3281C212.928 16.3177 212.788 16.3073 212.642 16.2969C212.496 16.2865 212.356 16.2708 212.22 16.25C212.178 16.25 212.137 16.25 212.095 16.25C212.053 16.2396 212.012 16.2344 211.97 16.2344C210.835 16.1094 209.902 15.9375 209.173 15.7188C208.444 15.4896 207.829 15.0573 207.329 14.4219C206.84 13.7865 206.595 12.875 206.595 11.6875C206.595 10.5729 206.84 9.63542 207.329 8.875C207.829 8.10417 208.559 7.52604 209.517 7.14062C210.475 6.74479 211.652 6.54688 213.048 6.54688C213.882 6.54688 214.694 6.63021 215.486 6.79688C216.277 6.95312 217.033 7.1875 217.751 7.5C218.481 7.80208 219.168 8.18229 219.814 8.64062L217.579 11.3594C216.819 10.901 216.048 10.5521 215.267 10.3125C214.496 10.0729 213.746 9.95312 213.017 9.95312C212.038 9.95312 211.293 10.0938 210.783 10.375C210.272 10.6562 210.017 11.0729 210.017 11.625C210.017 11.9792 210.158 12.25 210.439 12.4375C210.72 12.625 211.069 12.7552 211.486 12.8281C211.913 12.8906 212.527 12.9583 213.329 13.0312C213.413 13.0417 213.491 13.0521 213.564 13.0625C213.647 13.0625 213.731 13.0677 213.814 13.0781C213.845 13.0781 213.882 13.0781 213.923 13.0781C213.965 13.0781 214.007 13.0833 214.048 13.0938C215.246 13.2083 216.241 13.3802 217.033 13.6094C217.824 13.8385 218.496 14.2969 219.048 14.9844C219.6 15.6615 219.876 16.651 219.876 17.9531C219.876 19.099 219.616 20.0677 219.095 20.8594C218.574 21.6406 217.798 22.2344 216.767 22.6406C215.746 23.0365 214.491 23.2344 213.001 23.2344ZM228.001 23.0781C226.637 23.0781 225.637 22.7188 225.001 22C224.366 21.2708 224.048 20.1979 224.048 18.7812V2.0625H227.783V18.2656C227.783 18.6615 227.861 18.9688 228.017 19.1875C228.173 19.3958 228.402 19.5 228.704 19.5H230.001V23.0781H228.001ZM222.376 6.78125H230.001V10.0469H222.376V6.78125ZM243.111 12.7188C243.111 11.8125 242.84 11.1094 242.298 10.6094C241.767 10.1094 241.012 9.85938 240.033 9.85938C239.408 9.85938 238.793 9.95833 238.189 10.1562C237.585 10.3542 237.043 10.6302 236.564 10.9844L234.079 8.89062C234.715 8.15104 235.548 7.57812 236.579 7.17188C237.611 6.75521 238.757 6.54688 240.017 6.54688C241.392 6.54688 242.569 6.78646 243.548 7.26562C244.527 7.73438 245.272 8.42188 245.783 9.32812C246.303 10.224 246.564 11.3073 246.564 12.5781V23H243.111V12.7188ZM238.861 23.2344C236.996 23.2344 235.6 22.8229 234.673 22C233.746 21.1667 233.283 19.9062 233.283 18.2188C233.283 16.6146 233.751 15.4115 234.689 14.6094C235.626 13.8073 237.033 13.4062 238.908 13.4062H243.251L243.47 16.3125H238.923C238.184 16.3125 237.626 16.4688 237.251 16.7812C236.887 17.0938 236.704 17.5729 236.704 18.2188C236.704 18.8958 236.944 19.401 237.423 19.7344C237.902 20.0573 238.626 20.2188 239.595 20.2188C240.783 20.2188 241.663 20.0885 242.236 19.8281C242.819 19.5677 243.111 19.1615 243.111 18.6094L243.439 20.9219C243.262 21.4323 242.949 21.8594 242.501 22.2031C242.064 22.5469 241.533 22.8073 240.908 22.9844C240.283 23.151 239.6 23.2344 238.861 23.2344ZM251.095 6.78125H254.829V23H251.095V6.78125ZM260.704 13.1719C260.704 12.2031 260.444 11.4531 259.923 10.9219C259.402 10.3906 258.663 10.125 257.704 10.125C256.788 10.125 256.079 10.375 255.579 10.875C255.079 11.3646 254.829 12.0625 254.829 12.9688L254.501 9.60938C254.991 8.60938 255.606 7.84896 256.345 7.32812C257.095 6.80729 257.975 6.54688 258.986 6.54688C260.715 6.54688 262.053 7.125 263.001 8.28125C263.96 9.42708 264.439 11.0521 264.439 13.1562V23H260.704V13.1719ZM275.673 23.2344C274.163 23.2344 272.871 22.9531 271.798 22.3906C270.725 21.8177 269.908 20.9896 269.345 19.9062C268.783 18.8125 268.501 17.4948 268.501 15.9531V13.75C268.501 12.2292 268.783 10.9323 269.345 9.85938C269.908 8.77604 270.725 7.95312 271.798 7.39062C272.871 6.82812 274.163 6.54688 275.673 6.54688C276.538 6.54688 277.35 6.65104 278.111 6.85938C278.882 7.05729 279.569 7.34896 280.173 7.73438C280.788 8.11979 281.298 8.58854 281.704 9.14062L279.173 11.5156C278.746 11.0677 278.246 10.724 277.673 10.4844C277.1 10.2448 276.501 10.125 275.876 10.125C274.72 10.125 273.824 10.4427 273.189 11.0781C272.553 11.7031 272.236 12.5938 272.236 13.75V15.9531C272.236 17.1406 272.548 18.0573 273.173 18.7031C273.809 19.3385 274.71 19.6562 275.876 19.6562C276.512 19.6562 277.116 19.526 277.689 19.2656C278.262 19.0052 278.757 18.6354 279.173 18.1562L281.704 20.6875C281.288 21.2292 280.772 21.6927 280.158 22.0781C279.553 22.4531 278.866 22.7396 278.095 22.9375C277.335 23.1354 276.527 23.2344 275.673 23.2344ZM291.704 23.2344C290.173 23.2344 288.866 22.9531 287.783 22.3906C286.699 21.8281 285.871 21.0052 285.298 19.9219C284.725 18.8281 284.439 17.5104 284.439 15.9688V14.1406C284.439 12.5365 284.71 11.1667 285.251 10.0312C285.803 8.89583 286.6 8.03125 287.642 7.4375C288.694 6.84375 289.954 6.54688 291.423 6.54688C292.809 6.54688 293.991 6.89583 294.97 7.59375C295.96 8.28125 296.71 9.28125 297.22 10.5938C297.741 11.9062 298.001 13.4896 298.001 15.3438V16.4062H286.986V13.6719H294.533L294.517 13.5C294.413 12.3646 294.095 11.4844 293.564 10.8594C293.033 10.2344 292.319 9.92188 291.423 9.92188C290.298 9.92188 289.428 10.276 288.814 10.9844C288.199 11.6823 287.892 12.6771 287.892 13.9688V16.0312C287.892 17.2604 288.225 18.2083 288.892 18.875C289.559 19.5312 290.496 19.8594 291.704 19.8594C292.319 19.8594 292.923 19.7448 293.517 19.5156C294.121 19.276 294.663 18.9479 295.142 18.5312L297.579 20.8125C296.757 21.5833 295.829 22.1823 294.798 22.6094C293.777 23.026 292.746 23.2344 291.704 23.2344ZM321.47 13.0781V16.6406H310.658V13.0781H321.47ZM336.704 10.6094H343.97C344.574 10.6094 345.1 10.474 345.548 10.2031C346.007 9.92188 346.361 9.52604 346.611 9.01562C346.871 8.50521 347.001 7.91667 347.001 7.25C347.001 6.57292 346.876 5.97917 346.626 5.46875C346.376 4.95833 346.022 4.5625 345.564 4.28125C345.106 4 344.574 3.85938 343.97 3.85938H336.704V0.28125H343.861C345.246 0.28125 346.465 0.572917 347.517 1.15625C348.569 1.72917 349.387 2.54167 349.97 3.59375C350.553 4.64583 350.845 5.86458 350.845 7.25C350.845 8.63542 350.553 9.85417 349.97 10.9062C349.387 11.9479 348.569 12.7552 347.517 13.3281C346.465 13.901 345.246 14.1875 343.861 14.1875H336.704V10.6094ZM334.908 0.28125H338.642V23H334.908V0.28125ZM359.501 23.2344C358.064 23.2344 356.829 22.9583 355.798 22.4062C354.777 21.8542 353.996 21.0521 353.454 20C352.923 18.9375 352.658 17.6615 352.658 16.1719V13.5312C352.658 12.0625 352.923 10.8073 353.454 9.76562C353.996 8.71354 354.777 7.91667 355.798 7.375C356.829 6.82292 358.064 6.54688 359.501 6.54688C360.939 6.54688 362.168 6.82292 363.189 7.375C364.22 7.91667 365.001 8.71354 365.533 9.76562C366.074 10.8073 366.345 12.0625 366.345 13.5312V16.2188C366.345 17.6979 366.074 18.9635 365.533 20.0156C365.001 21.0573 364.22 21.8542 363.189 22.4062C362.168 22.9583 360.939 23.2344 359.501 23.2344ZM359.501 19.6562C360.491 19.6562 361.257 19.3594 361.798 18.7656C362.34 18.1615 362.611 17.3125 362.611 16.2188V13.5312C362.611 12.4479 362.34 11.6094 361.798 11.0156C361.257 10.4219 360.491 10.125 359.501 10.125C358.512 10.125 357.746 10.4219 357.204 11.0156C356.663 11.6094 356.392 12.4479 356.392 13.5312V16.2188C356.392 17.3125 356.658 18.1615 357.189 18.7656C357.731 19.3594 358.501 19.6562 359.501 19.6562ZM376.939 23.2344C375.501 23.2344 374.267 22.9583 373.236 22.4062C372.215 21.8542 371.434 21.0521 370.892 20C370.361 18.9375 370.095 17.6615 370.095 16.1719V13.5312C370.095 12.0625 370.361 10.8073 370.892 9.76562C371.434 8.71354 372.215 7.91667 373.236 7.375C374.267 6.82292 375.501 6.54688 376.939 6.54688C378.376 6.54688 379.606 6.82292 380.626 7.375C381.658 7.91667 382.439 8.71354 382.97 9.76562C383.512 10.8073 383.783 12.0625 383.783 13.5312V16.2188C383.783 17.6979 383.512 18.9635 382.97 20.0156C382.439 21.0573 381.658 21.8542 380.626 22.4062C379.606 22.9583 378.376 23.2344 376.939 23.2344ZM376.939 19.6562C377.928 19.6562 378.694 19.3594 379.236 18.7656C379.777 18.1615 380.048 17.3125 380.048 16.2188V13.5312C380.048 12.4479 379.777 11.6094 379.236 11.0156C378.694 10.4219 377.928 10.125 376.939 10.125C375.949 10.125 375.184 10.4219 374.642 11.0156C374.1 11.6094 373.829 12.4479 373.829 13.5312V16.2188C373.829 17.3125 374.095 18.1615 374.626 18.7656C375.168 19.3594 375.939 19.6562 376.939 19.6562Z" fill="#171717"/>
</svg>
