<svg width="409" height="23" viewBox="0 0 409 23" fill="none" xmlns="http://www.w3.org/2000/svg">
<path d="M4.82556 2.35547H7.61462V18H4.82556V2.35547ZM0.0911865 0.960938H12.349V3.64453H0.0911865V0.960938ZM17.5638 18.1758C16.4154 18.1758 15.4349 17.9648 14.6224 17.543C13.8099 17.1211 13.1888 16.5039 12.7592 15.6914C12.3295 14.8711 12.1146 13.8828 12.1146 12.7266V11.3555C12.1146 10.1523 12.3177 9.125 12.724 8.27344C13.1381 7.42188 13.7357 6.77344 14.517 6.32812C15.306 5.88281 16.2513 5.66016 17.3529 5.66016C18.392 5.66016 19.2787 5.92187 20.0131 6.44531C20.7552 6.96094 21.3177 7.71094 21.7006 8.69531C22.0912 9.67969 22.2865 10.8672 22.2865 12.2578V13.0547H14.0248V11.0039H19.6849L19.6732 10.875C19.5951 10.0234 19.3568 9.36328 18.9584 8.89453C18.5599 8.42578 18.0248 8.19141 17.3529 8.19141C16.5092 8.19141 15.8568 8.45703 15.3959 8.98828C14.9349 9.51172 14.7045 10.2578 14.7045 11.2266V12.7734C14.7045 13.6953 14.9545 14.4062 15.4545 14.9062C15.9545 15.3984 16.6576 15.6445 17.5638 15.6445C18.0248 15.6445 18.4779 15.5586 18.9232 15.3867C19.3763 15.207 19.7826 14.9609 20.142 14.6484L21.9701 16.3594C21.3529 16.9375 20.6576 17.3867 19.8842 17.707C19.1185 18.0195 18.3451 18.1758 17.5638 18.1758ZM30.3607 18.1758C29.2279 18.1758 28.2592 17.9648 27.4545 17.543C26.6498 17.1133 26.0365 16.4922 25.6146 15.6797C25.1927 14.8594 24.9818 13.8711 24.9818 12.7148V11.0625C24.9818 9.92188 25.1927 8.94922 25.6146 8.14453C26.0365 7.33203 26.6498 6.71484 27.4545 6.29297C28.2592 5.87109 29.2279 5.66016 30.3607 5.66016C31.0092 5.66016 31.6185 5.73828 32.1888 5.89453C32.767 6.04297 33.2826 6.26172 33.7357 6.55078C34.1967 6.83984 34.5795 7.19141 34.8842 7.60547L32.9857 9.38672C32.6654 9.05078 32.2904 8.79297 31.8607 8.61328C31.431 8.43359 30.9818 8.34375 30.5131 8.34375C29.6459 8.34375 28.974 8.58203 28.4974 9.05859C28.0209 9.52734 27.7826 10.1953 27.7826 11.0625V12.7148C27.7826 13.6055 28.017 14.293 28.4857 14.7773C28.9623 15.2539 29.6381 15.4922 30.5131 15.4922C30.9896 15.4922 31.4427 15.3945 31.8724 15.1992C32.3021 15.0039 32.6732 14.7266 32.9857 14.3672L34.8842 16.2656C34.5717 16.6719 34.1849 17.0195 33.724 17.3086C33.2709 17.5898 32.7552 17.8047 32.1771 17.9531C31.6068 18.1016 31.0013 18.1758 30.3607 18.1758ZM37.2865 0.960938H40.0873V18H37.2865V0.960938ZM44.4935 10.6289C44.4935 9.90234 44.2982 9.33984 43.9076 8.94141C43.517 8.54297 42.9623 8.34375 42.2435 8.34375C41.556 8.34375 41.0248 8.52734 40.6498 8.89453C40.2748 9.26172 40.0873 9.78125 40.0873 10.4531L39.8412 7.93359C40.2084 7.19922 40.6693 6.63672 41.224 6.24609C41.7865 5.85547 42.4467 5.66016 43.2045 5.66016C44.5013 5.66016 45.5052 6.09375 46.2162 6.96094C46.9349 7.82031 47.2943 9.03906 47.2943 10.6172V18H44.4935V10.6289ZM50.6927 5.83594H53.4935V18H50.6927V5.83594ZM57.8998 10.6289C57.8998 9.90234 57.7045 9.33984 57.3138 8.94141C56.9232 8.54297 56.3685 8.34375 55.6498 8.34375C54.9623 8.34375 54.431 8.53125 54.056 8.90625C53.681 9.27344 53.4935 9.79688 53.4935 10.4766L53.2474 7.95703C53.6146 7.20703 54.0756 6.63672 54.6302 6.24609C55.1927 5.85547 55.8529 5.66016 56.6107 5.66016C57.9076 5.66016 58.9115 6.09375 59.6224 6.96094C60.3412 7.82031 60.7006 9.03906 60.7006 10.6172V18H57.8998V10.6289ZM64.017 0.960938H66.806V3.76172H64.017V0.960938ZM64.017 5.83594H66.806V18H64.017V5.83594ZM75.1498 18.1758C74.017 18.1758 73.0482 17.9648 72.2435 17.543C71.4388 17.1133 70.8256 16.4922 70.4037 15.6797C69.9818 14.8594 69.7709 13.8711 69.7709 12.7148V11.0625C69.7709 9.92188 69.9818 8.94922 70.4037 8.14453C70.8256 7.33203 71.4388 6.71484 72.2435 6.29297C73.0482 5.87109 74.017 5.66016 75.1498 5.66016C75.7982 5.66016 76.4076 5.73828 76.9779 5.89453C77.556 6.04297 78.0717 6.26172 78.5248 6.55078C78.9857 6.83984 79.3685 7.19141 79.6732 7.60547L77.7748 9.38672C77.4545 9.05078 77.0795 8.79297 76.6498 8.61328C76.2201 8.43359 75.7709 8.34375 75.3021 8.34375C74.4349 8.34375 73.7631 8.58203 73.2865 9.05859C72.8099 9.52734 72.5717 10.1953 72.5717 11.0625V12.7148C72.5717 13.6055 72.806 14.293 73.2748 14.7773C73.7513 15.2539 74.4271 15.4922 75.3021 15.4922C75.7787 15.4922 76.2318 15.3945 76.6615 15.1992C77.0912 15.0039 77.4623 14.7266 77.7748 14.3672L79.6732 16.2656C79.3607 16.6719 78.974 17.0195 78.5131 17.3086C78.0599 17.5898 77.5443 17.8047 76.9662 17.9531C76.3959 18.1016 75.7904 18.1758 75.1498 18.1758ZM88.8607 10.2891C88.8607 9.60938 88.6576 9.08203 88.2513 8.70703C87.8529 8.33203 87.2865 8.14453 86.5521 8.14453C86.0834 8.14453 85.6224 8.21875 85.1693 8.36719C84.7162 8.51562 84.3099 8.72266 83.9506 8.98828L82.0873 7.41797C82.5638 6.86328 83.1888 6.43359 83.9623 6.12891C84.7357 5.81641 85.5951 5.66016 86.5404 5.66016C87.5717 5.66016 88.4545 5.83984 89.1888 6.19922C89.9232 6.55078 90.4818 7.06641 90.8646 7.74609C91.2552 8.41797 91.4506 9.23047 91.4506 10.1836V18H88.8607V10.2891ZM85.6732 18.1758C84.2748 18.1758 83.2279 17.8672 82.5326 17.25C81.8373 16.625 81.4896 15.6797 81.4896 14.4141C81.4896 13.2109 81.8412 12.3086 82.5443 11.707C83.2474 11.1055 84.3021 10.8047 85.7084 10.8047H88.9662L89.1302 12.9844H85.7201C85.1654 12.9844 84.7474 13.1016 84.4662 13.3359C84.1927 13.5703 84.056 13.9297 84.056 14.4141C84.056 14.9219 84.2357 15.3008 84.5951 15.5508C84.9545 15.793 85.4974 15.9141 86.224 15.9141C87.1146 15.9141 87.7748 15.8164 88.2045 15.6211C88.642 15.4258 88.8607 15.1211 88.8607 14.707L89.1068 16.4414C88.974 16.8242 88.7396 17.1445 88.4037 17.4023C88.0756 17.6602 87.6771 17.8555 87.2084 17.9883C86.7396 18.1133 86.2279 18.1758 85.6732 18.1758ZM97.6498 14.4258C97.6498 14.7227 97.724 14.9531 97.8724 15.1172C98.0209 15.2734 98.2318 15.3516 98.5052 15.3516H99.3373V18.0352H97.8138C96.8763 18.0352 96.1459 17.7539 95.6224 17.1914C95.1068 16.6289 94.849 15.8359 94.849 14.8125V0.960938H97.6498V14.4258ZM113.247 0.960938H115.286L121.685 18H118.673L114.267 5.30859L109.861 18H106.849L113.247 0.960938ZM109.861 12.082H118.826V14.7656H109.861V12.082ZM128.271 18.1758C127.544 18.1758 126.853 18.1094 126.197 17.9766C125.54 17.8359 124.923 17.6328 124.345 17.3672C123.775 17.1016 123.259 16.7773 122.798 16.3945L124.497 14.2852C125.115 14.7227 125.744 15.0547 126.384 15.2812C127.033 15.5078 127.661 15.6211 128.271 15.6211C129.122 15.6211 129.767 15.5078 130.204 15.2812C130.65 15.0469 130.872 14.7109 130.872 14.2734C130.872 13.9375 130.763 13.6875 130.544 13.5234C130.326 13.3516 130.048 13.2344 129.712 13.1719C129.384 13.1094 128.919 13.0508 128.318 12.9961C128.216 12.9883 128.111 12.9805 128.001 12.9727C127.892 12.9648 127.786 12.9531 127.685 12.9375C127.654 12.9375 127.622 12.9375 127.591 12.9375C127.56 12.9297 127.529 12.9258 127.497 12.9258C126.646 12.832 125.947 12.7031 125.4 12.5391C124.853 12.3672 124.392 12.043 124.017 11.5664C123.65 11.0898 123.466 10.4062 123.466 9.51562C123.466 8.67969 123.65 7.97656 124.017 7.40625C124.392 6.82812 124.939 6.39453 125.658 6.10547C126.376 5.80859 127.259 5.66016 128.306 5.66016C128.931 5.66016 129.54 5.72266 130.134 5.84766C130.728 5.96484 131.294 6.14062 131.833 6.375C132.38 6.60156 132.896 6.88672 133.38 7.23047L131.704 9.26953C131.134 8.92578 130.556 8.66406 129.97 8.48438C129.392 8.30469 128.829 8.21484 128.283 8.21484C127.548 8.21484 126.99 8.32031 126.607 8.53125C126.224 8.74219 126.033 9.05469 126.033 9.46875C126.033 9.73438 126.138 9.9375 126.349 10.0781C126.56 10.2188 126.822 10.3164 127.134 10.3711C127.454 10.418 127.915 10.4688 128.517 10.5234C128.579 10.5312 128.638 10.5391 128.693 10.5469C128.755 10.5469 128.818 10.5508 128.88 10.5586C128.904 10.5586 128.931 10.5586 128.962 10.5586C128.994 10.5586 129.025 10.5625 129.056 10.5703C129.954 10.6562 130.701 10.7852 131.294 10.957C131.888 11.1289 132.392 11.4727 132.806 11.9883C133.22 12.4961 133.427 13.2383 133.427 14.2148C133.427 15.0742 133.232 15.8008 132.841 16.3945C132.451 16.9805 131.869 17.4258 131.095 17.7305C130.329 18.0273 129.388 18.1758 128.271 18.1758ZM140.716 18.1758C139.99 18.1758 139.298 18.1094 138.642 17.9766C137.986 17.8359 137.369 17.6328 136.79 17.3672C136.22 17.1016 135.704 16.7773 135.244 16.3945L136.943 14.2852C137.56 14.7227 138.189 15.0547 138.829 15.2812C139.478 15.5078 140.107 15.6211 140.716 15.6211C141.568 15.6211 142.212 15.5078 142.65 15.2812C143.095 15.0469 143.318 14.7109 143.318 14.2734C143.318 13.9375 143.208 13.6875 142.99 13.5234C142.771 13.3516 142.494 13.2344 142.158 13.1719C141.829 13.1094 141.365 13.0508 140.763 12.9961C140.661 12.9883 140.556 12.9805 140.447 12.9727C140.337 12.9648 140.232 12.9531 140.13 12.9375C140.099 12.9375 140.068 12.9375 140.036 12.9375C140.005 12.9297 139.974 12.9258 139.943 12.9258C139.091 12.832 138.392 12.7031 137.845 12.5391C137.298 12.3672 136.837 12.043 136.462 11.5664C136.095 11.0898 135.911 10.4062 135.911 9.51562C135.911 8.67969 136.095 7.97656 136.462 7.40625C136.837 6.82812 137.384 6.39453 138.103 6.10547C138.822 5.80859 139.704 5.66016 140.751 5.66016C141.376 5.66016 141.986 5.72266 142.579 5.84766C143.173 5.96484 143.74 6.14062 144.279 6.375C144.826 6.60156 145.341 6.88672 145.826 7.23047L144.15 9.26953C143.579 8.92578 143.001 8.66406 142.415 8.48438C141.837 8.30469 141.275 8.21484 140.728 8.21484C139.994 8.21484 139.435 8.32031 139.052 8.53125C138.669 8.74219 138.478 9.05469 138.478 9.46875C138.478 9.73438 138.583 9.9375 138.794 10.0781C139.005 10.2188 139.267 10.3164 139.579 10.3711C139.9 10.418 140.361 10.4688 140.962 10.5234C141.025 10.5312 141.083 10.5391 141.138 10.5469C141.201 10.5469 141.263 10.5508 141.326 10.5586C141.349 10.5586 141.376 10.5586 141.408 10.5586C141.439 10.5586 141.47 10.5625 141.501 10.5703C142.4 10.6562 143.146 10.7852 143.74 10.957C144.333 11.1289 144.837 11.4727 145.251 11.9883C145.665 12.4961 145.872 13.2383 145.872 14.2148C145.872 15.0742 145.677 15.8008 145.286 16.3945C144.896 16.9805 144.314 17.4258 143.54 17.7305C142.775 18.0273 141.833 18.1758 140.716 18.1758ZM148.603 0.960938H151.392V3.76172H148.603V0.960938ZM148.603 5.83594H151.392V18H148.603V5.83594ZM159.185 18.1758C158.458 18.1758 157.767 18.1094 157.111 17.9766C156.454 17.8359 155.837 17.6328 155.259 17.3672C154.689 17.1016 154.173 16.7773 153.712 16.3945L155.411 14.2852C156.029 14.7227 156.658 15.0547 157.298 15.2812C157.947 15.5078 158.576 15.6211 159.185 15.6211C160.036 15.6211 160.681 15.5078 161.119 15.2812C161.564 15.0469 161.786 14.7109 161.786 14.2734C161.786 13.9375 161.677 13.6875 161.458 13.5234C161.24 13.3516 160.962 13.2344 160.626 13.1719C160.298 13.1094 159.833 13.0508 159.232 12.9961C159.13 12.9883 159.025 12.9805 158.915 12.9727C158.806 12.9648 158.701 12.9531 158.599 12.9375C158.568 12.9375 158.536 12.9375 158.505 12.9375C158.474 12.9297 158.443 12.9258 158.411 12.9258C157.56 12.832 156.861 12.7031 156.314 12.5391C155.767 12.3672 155.306 12.043 154.931 11.5664C154.564 11.0898 154.38 10.4062 154.38 9.51562C154.38 8.67969 154.564 7.97656 154.931 7.40625C155.306 6.82812 155.853 6.39453 156.572 6.10547C157.29 5.80859 158.173 5.66016 159.22 5.66016C159.845 5.66016 160.454 5.72266 161.048 5.84766C161.642 5.96484 162.208 6.14062 162.747 6.375C163.294 6.60156 163.81 6.88672 164.294 7.23047L162.619 9.26953C162.048 8.92578 161.47 8.66406 160.884 8.48438C160.306 8.30469 159.744 8.21484 159.197 8.21484C158.462 8.21484 157.904 8.32031 157.521 8.53125C157.138 8.74219 156.947 9.05469 156.947 9.46875C156.947 9.73438 157.052 9.9375 157.263 10.0781C157.474 10.2188 157.736 10.3164 158.048 10.3711C158.369 10.418 158.829 10.4688 159.431 10.5234C159.494 10.5312 159.552 10.5391 159.607 10.5469C159.669 10.5469 159.732 10.5508 159.794 10.5586C159.818 10.5586 159.845 10.5586 159.876 10.5586C159.908 10.5586 159.939 10.5625 159.97 10.5703C160.869 10.6562 161.615 10.7852 162.208 10.957C162.802 11.1289 163.306 11.4727 163.72 11.9883C164.134 12.4961 164.341 13.2383 164.341 14.2148C164.341 15.0742 164.146 15.8008 163.755 16.3945C163.365 16.9805 162.783 17.4258 162.009 17.7305C161.244 18.0273 160.302 18.1758 159.185 18.1758ZM170.435 18.0586C169.411 18.0586 168.661 17.7891 168.185 17.25C167.708 16.7031 167.47 15.8984 167.47 14.8359V2.29688H170.271V14.4492C170.271 14.7461 170.329 14.9766 170.447 15.1406C170.564 15.2969 170.736 15.375 170.962 15.375H171.935V18.0586H170.435ZM166.216 5.83594H171.935V8.28516H166.216V5.83594ZM181.767 10.2891C181.767 9.60938 181.564 9.08203 181.158 8.70703C180.759 8.33203 180.193 8.14453 179.458 8.14453C178.99 8.14453 178.529 8.21875 178.076 8.36719C177.622 8.51562 177.216 8.72266 176.857 8.98828L174.994 7.41797C175.47 6.86328 176.095 6.43359 176.869 6.12891C177.642 5.81641 178.501 5.66016 179.447 5.66016C180.478 5.66016 181.361 5.83984 182.095 6.19922C182.829 6.55078 183.388 7.06641 183.771 7.74609C184.161 8.41797 184.357 9.23047 184.357 10.1836V18H181.767V10.2891ZM178.579 18.1758C177.181 18.1758 176.134 17.8672 175.439 17.25C174.744 16.625 174.396 15.6797 174.396 14.4141C174.396 13.2109 174.747 12.3086 175.451 11.707C176.154 11.1055 177.208 10.8047 178.615 10.8047H181.872L182.036 12.9844H178.626C178.072 12.9844 177.654 13.1016 177.372 13.3359C177.099 13.5703 176.962 13.9297 176.962 14.4141C176.962 14.9219 177.142 15.3008 177.501 15.5508C177.861 15.793 178.404 15.9141 179.13 15.9141C180.021 15.9141 180.681 15.8164 181.111 15.6211C181.548 15.4258 181.767 15.1211 181.767 14.707L182.013 16.4414C181.88 16.8242 181.646 17.1445 181.31 17.4023C180.982 17.6602 180.583 17.8555 180.115 17.9883C179.646 18.1133 179.134 18.1758 178.579 18.1758ZM187.755 5.83594H190.556V18H187.755V5.83594ZM194.962 10.6289C194.962 9.90234 194.767 9.33984 194.376 8.94141C193.986 8.54297 193.431 8.34375 192.712 8.34375C192.025 8.34375 191.494 8.53125 191.119 8.90625C190.744 9.27344 190.556 9.79688 190.556 10.4766L190.31 7.95703C190.677 7.20703 191.138 6.63672 191.693 6.24609C192.255 5.85547 192.915 5.66016 193.673 5.66016C194.97 5.66016 195.974 6.09375 196.685 6.96094C197.404 7.82031 197.763 9.03906 197.763 10.6172V18H194.962V10.6289ZM206.189 18.1758C205.056 18.1758 204.087 17.9648 203.283 17.543C202.478 17.1133 201.865 16.4922 201.443 15.6797C201.021 14.8594 200.81 13.8711 200.81 12.7148V11.0625C200.81 9.92188 201.021 8.94922 201.443 8.14453C201.865 7.33203 202.478 6.71484 203.283 6.29297C204.087 5.87109 205.056 5.66016 206.189 5.66016C206.837 5.66016 207.447 5.73828 208.017 5.89453C208.595 6.04297 209.111 6.26172 209.564 6.55078C210.025 6.83984 210.408 7.19141 210.712 7.60547L208.814 9.38672C208.494 9.05078 208.119 8.79297 207.689 8.61328C207.259 8.43359 206.81 8.34375 206.341 8.34375C205.474 8.34375 204.802 8.58203 204.326 9.05859C203.849 9.52734 203.611 10.1953 203.611 11.0625V12.7148C203.611 13.6055 203.845 14.293 204.314 14.7773C204.79 15.2539 205.466 15.4922 206.341 15.4922C206.818 15.4922 207.271 15.3945 207.701 15.1992C208.13 15.0039 208.501 14.7266 208.814 14.3672L210.712 16.2656C210.4 16.6719 210.013 17.0195 209.552 17.3086C209.099 17.5898 208.583 17.8047 208.005 17.9531C207.435 18.1016 206.829 18.1758 206.189 18.1758ZM218.212 18.1758C217.064 18.1758 216.083 17.9648 215.271 17.543C214.458 17.1211 213.837 16.5039 213.408 15.6914C212.978 14.8711 212.763 13.8828 212.763 12.7266V11.3555C212.763 10.1523 212.966 9.125 213.372 8.27344C213.786 7.42188 214.384 6.77344 215.165 6.32812C215.954 5.88281 216.9 5.66016 218.001 5.66016C219.04 5.66016 219.927 5.92187 220.661 6.44531C221.404 6.96094 221.966 7.71094 222.349 8.69531C222.74 9.67969 222.935 10.8672 222.935 12.2578V13.0547H214.673V11.0039H220.333L220.322 10.875C220.244 10.0234 220.005 9.36328 219.607 8.89453C219.208 8.42578 218.673 8.19141 218.001 8.19141C217.158 8.19141 216.505 8.45703 216.044 8.98828C215.583 9.51172 215.353 10.2578 215.353 11.2266V12.7734C215.353 13.6953 215.603 14.4062 216.103 14.9062C216.603 15.3984 217.306 15.6445 218.212 15.6445C218.673 15.6445 219.126 15.5586 219.572 15.3867C220.025 15.207 220.431 14.9609 220.79 14.6484L222.619 16.3594C222.001 16.9375 221.306 17.3867 220.533 17.707C219.767 18.0195 218.994 18.1758 218.212 18.1758ZM240.536 10.5586V13.2305H232.427V10.5586H240.536ZM255.853 18.1758C255.033 18.1758 254.244 18.0977 253.486 17.9414C252.736 17.7773 252.029 17.5391 251.365 17.2266C250.708 16.9141 250.107 16.5273 249.56 16.0664L251.048 13.8281C251.704 14.3828 252.439 14.8047 253.251 15.0938C254.072 15.375 254.939 15.5156 255.853 15.5156C256.994 15.5156 257.876 15.3125 258.501 14.9062C259.134 14.5 259.451 13.9258 259.451 13.1836V13.1719C259.451 12.6484 259.31 12.2344 259.029 11.9297C258.747 11.6172 258.38 11.3906 257.927 11.25C257.474 11.1016 256.892 10.9648 256.181 10.8398C256.158 10.832 256.134 10.8281 256.111 10.8281C256.087 10.8281 256.064 10.8242 256.04 10.8164L255.829 10.7812C254.689 10.5938 253.751 10.3711 253.017 10.1133C252.283 9.85547 251.658 9.39453 251.142 8.73047C250.626 8.06641 250.369 7.125 250.369 5.90625V5.89453C250.369 4.81641 250.611 3.89453 251.095 3.12891C251.579 2.36328 252.283 1.78125 253.204 1.38281C254.126 0.984375 255.236 0.785156 256.533 0.785156C257.142 0.785156 257.751 0.855469 258.361 0.996094C258.978 1.12891 259.579 1.32812 260.165 1.59375C260.759 1.85156 261.333 2.17578 261.888 2.56641L260.529 4.875C259.872 4.40625 259.204 4.05078 258.525 3.80859C257.845 3.56641 257.181 3.44531 256.533 3.44531C255.454 3.44531 254.619 3.64453 254.025 4.04297C253.439 4.43359 253.146 4.98828 253.146 5.70703V5.71875C253.146 6.25781 253.298 6.68359 253.603 6.99609C253.908 7.30859 254.286 7.53906 254.74 7.6875C255.201 7.82812 255.841 7.98047 256.661 8.14453C256.693 8.15234 256.72 8.16016 256.744 8.16797C256.775 8.16797 256.806 8.17188 256.837 8.17969C256.876 8.1875 256.919 8.19531 256.966 8.20312C257.013 8.21094 257.056 8.21875 257.095 8.22656C258.15 8.4375 259.029 8.69141 259.732 8.98828C260.443 9.28516 261.036 9.76172 261.513 10.418C261.99 11.0742 262.228 11.9688 262.228 13.1016V13.125C262.228 14.1875 261.978 15.0977 261.478 15.8555C260.978 16.6133 260.251 17.1914 259.298 17.5898C258.345 17.9805 257.197 18.1758 255.853 18.1758ZM265.169 5.83594H267.97V22.9453H265.169V5.83594ZM270.911 18.1758C270.177 18.1758 269.54 17.9961 269.001 17.6367C268.462 17.2695 268.064 16.7539 267.806 16.0898L267.97 13.4297C267.97 13.8906 268.052 14.2852 268.216 14.6133C268.38 14.9336 268.619 15.1797 268.931 15.3516C269.244 15.5234 269.622 15.6094 270.068 15.6094C270.763 15.6094 271.302 15.3906 271.685 14.9531C272.068 14.5156 272.259 13.8945 272.259 13.0898V10.8047C272.259 9.98438 272.068 9.35156 271.685 8.90625C271.302 8.45312 270.763 8.22656 270.068 8.22656C269.622 8.22656 269.244 8.3125 268.931 8.48438C268.619 8.64844 268.38 8.89453 268.216 9.22266C268.052 9.55078 267.97 9.94531 267.97 10.4062L267.724 7.88672C268.068 7.17578 268.521 6.62891 269.083 6.24609C269.654 5.85547 270.283 5.66016 270.97 5.66016C271.829 5.66016 272.564 5.85938 273.173 6.25781C273.79 6.65625 274.259 7.24219 274.579 8.01562C274.9 8.78125 275.06 9.70703 275.06 10.793V13.0898C275.06 14.1602 274.896 15.0781 274.568 15.8438C274.247 16.6016 273.775 17.1797 273.15 17.5781C272.525 17.9766 271.779 18.1758 270.911 18.1758ZM278.224 5.83594H281.142V18H278.224V5.83594ZM284.997 8.96484C284.81 8.76172 284.579 8.60938 284.306 8.50781C284.033 8.39844 283.716 8.34375 283.357 8.34375C282.654 8.34375 282.107 8.55469 281.716 8.97656C281.333 9.39062 281.142 9.96875 281.142 10.7109L280.896 7.95703C281.247 7.23047 281.704 6.66797 282.267 6.26953C282.837 5.86328 283.462 5.66016 284.142 5.66016C284.673 5.66016 285.154 5.74219 285.583 5.90625C286.013 6.0625 286.388 6.29688 286.708 6.60938L284.997 8.96484ZM288.384 0.960938H291.173V3.76172H288.384V0.960938ZM288.384 5.83594H291.173V18H288.384V5.83594ZM294.49 5.83594H297.29V18H294.49V5.83594ZM301.697 10.6289C301.697 9.90234 301.501 9.33984 301.111 8.94141C300.72 8.54297 300.165 8.34375 299.447 8.34375C298.759 8.34375 298.228 8.53125 297.853 8.90625C297.478 9.27344 297.29 9.79688 297.29 10.4766L297.044 7.95703C297.411 7.20703 297.872 6.63672 298.427 6.24609C298.99 5.85547 299.65 5.66016 300.408 5.66016C301.704 5.66016 302.708 6.09375 303.419 6.96094C304.138 7.82031 304.497 9.03906 304.497 10.6172V18H301.697V10.6289ZM312.091 22.9453C311.154 22.9453 310.314 22.7734 309.572 22.4297C308.829 22.0938 308.251 21.6172 307.837 21L309.724 19.2773C310.013 19.6445 310.361 19.9258 310.767 20.1211C311.181 20.3164 311.611 20.4141 312.056 20.4141C312.853 20.4141 313.482 20.1953 313.943 19.7578C314.404 19.3281 314.634 18.7188 314.634 17.9297V5.83594H317.435V17.6367C317.435 18.7539 317.224 19.7109 316.802 20.5078C316.388 21.3047 315.779 21.9102 314.974 22.3242C314.177 22.7383 313.216 22.9453 312.091 22.9453ZM311.693 18.1992C310.818 18.1992 310.068 18 309.443 17.6016C308.826 17.1953 308.353 16.6133 308.025 15.8555C307.704 15.0898 307.544 14.168 307.544 13.0898V10.7695C307.544 9.69141 307.704 8.76953 308.025 8.00391C308.345 7.23047 308.81 6.64453 309.419 6.24609C310.036 5.83984 310.775 5.63672 311.634 5.63672C312.322 5.63672 312.947 5.82812 313.509 6.21094C314.079 6.59375 314.536 7.13281 314.88 7.82812L314.634 10.418C314.634 9.94922 314.552 9.55078 314.388 9.22266C314.224 8.89453 313.986 8.64453 313.673 8.47266C313.361 8.30078 312.982 8.21484 312.536 8.21484C311.841 8.21484 311.302 8.44141 310.919 8.89453C310.536 9.34766 310.345 9.98047 310.345 10.793V13.0898C310.345 13.8945 310.536 14.5195 310.919 14.9648C311.302 15.4023 311.841 15.6211 312.536 15.6211C312.982 15.6211 313.361 15.5352 313.673 15.3633C313.986 15.1836 314.224 14.9297 314.388 14.6016C314.552 14.2734 314.634 13.8789 314.634 13.418L314.798 16.0898C314.556 16.7227 314.165 17.2344 313.626 17.625C313.095 18.0078 312.451 18.1992 311.693 18.1992ZM325.755 0.960938H328.708L332.564 13.3242L336.419 0.960938H339.372L333.759 18H331.369L325.755 0.960938ZM347.939 5.83594H350.728V18H347.939V5.83594ZM343.579 13.2305C343.579 13.9492 343.771 14.5078 344.154 14.9062C344.536 15.2969 345.076 15.4922 345.771 15.4922C346.466 15.4922 347.001 15.3086 347.376 14.9414C347.751 14.5664 347.939 14.0312 347.939 13.3359L348.103 15.9375C347.869 16.5703 347.478 17.1016 346.931 17.5312C346.384 17.9609 345.716 18.1758 344.927 18.1758C343.607 18.1758 342.583 17.75 341.857 16.8984C341.138 16.0469 340.779 14.8438 340.779 13.2891V5.83594H343.579V13.2305ZM359.236 18.1758C358.087 18.1758 357.107 17.9648 356.294 17.543C355.482 17.1211 354.861 16.5039 354.431 15.6914C354.001 14.8711 353.786 13.8828 353.786 12.7266V11.3555C353.786 10.1523 353.99 9.125 354.396 8.27344C354.81 7.42188 355.408 6.77344 356.189 6.32812C356.978 5.88281 357.923 5.66016 359.025 5.66016C360.064 5.66016 360.951 5.92187 361.685 6.44531C362.427 6.96094 362.99 7.71094 363.372 8.69531C363.763 9.67969 363.958 10.8672 363.958 12.2578V13.0547H355.697V11.0039H361.357L361.345 10.875C361.267 10.0234 361.029 9.36328 360.63 8.89453C360.232 8.42578 359.697 8.19141 359.025 8.19141C358.181 8.19141 357.529 8.45703 357.068 8.98828C356.607 9.51172 356.376 10.2578 356.376 11.2266V12.7734C356.376 13.6953 356.626 14.4062 357.126 14.9062C357.626 15.3984 358.329 15.6445 359.236 15.6445C359.697 15.6445 360.15 15.5586 360.595 15.3867C361.048 15.207 361.454 14.9609 361.814 14.6484L363.642 16.3594C363.025 16.9375 362.329 17.3867 361.556 17.707C360.79 18.0195 360.017 18.1758 359.236 18.1758ZM378.443 0.960938H380.482L386.88 18H383.869L379.462 5.30859L375.056 18H372.044L378.443 0.960938ZM375.056 12.082H384.021V14.7656H375.056V12.082ZM390.572 8.70703H396.021C396.474 8.70703 396.869 8.60547 397.204 8.40234C397.548 8.19141 397.814 7.89453 398.001 7.51172C398.197 7.12891 398.294 6.6875 398.294 6.1875C398.294 5.67969 398.201 5.23438 398.013 4.85156C397.826 4.46875 397.56 4.17188 397.216 3.96094C396.872 3.75 396.474 3.64453 396.021 3.64453H390.572V0.960938H395.939C396.978 0.960938 397.892 1.17969 398.681 1.61719C399.47 2.04688 400.083 2.65625 400.521 3.44531C400.958 4.23437 401.177 5.14844 401.177 6.1875C401.177 7.22656 400.958 8.14062 400.521 8.92969C400.083 9.71094 399.47 10.3164 398.681 10.7461C397.892 11.1758 396.978 11.3906 395.939 11.3906H390.572V8.70703ZM389.224 0.960938H392.025V18H389.224V0.960938ZM406.685 18H403.826V0.960938H406.685V18Z" fill="#171717"/>
</svg>
