<svg width="330" height="19" viewBox="0 0 330 19" fill="none" xmlns="http://www.w3.org/2000/svg">
<path d="M5.39978 2.35547H8.18884V18H5.39978V2.35547ZM0.665405 0.960938H12.9232V3.64453H0.665405V0.960938ZM18.1381 18.1758C16.9896 18.1758 16.0092 17.9648 15.1967 17.543C14.3842 17.1211 13.7631 16.5039 13.3334 15.6914C12.9037 14.8711 12.6888 13.8828 12.6888 12.7266V11.3555C12.6888 10.1523 12.892 9.125 13.2982 8.27344C13.7123 7.42188 14.3099 6.77344 15.0912 6.32812C15.8802 5.88281 16.8256 5.66016 17.9271 5.66016C18.9662 5.66016 19.8529 5.92187 20.5873 6.44531C21.3295 6.96094 21.892 7.71094 22.2748 8.69531C22.6654 9.67969 22.8607 10.8672 22.8607 12.2578V13.0547H14.599V11.0039H20.2592L20.2474 10.875C20.1693 10.0234 19.931 9.36328 19.5326 8.89453C19.1342 8.42578 18.599 8.19141 17.9271 8.19141C17.0834 8.19141 16.431 8.45703 15.9701 8.98828C15.5092 9.51172 15.2787 10.2578 15.2787 11.2266V12.7734C15.2787 13.6953 15.5287 14.4062 16.0287 14.9062C16.5287 15.3984 17.2318 15.6445 18.1381 15.6445C18.599 15.6445 19.0521 15.5586 19.4974 15.3867C19.9506 15.207 20.3568 14.9609 20.7162 14.6484L22.5443 16.3594C21.9271 16.9375 21.2318 17.3867 20.4584 17.707C19.6927 18.0195 18.9193 18.1758 18.1381 18.1758ZM30.9349 18.1758C29.8021 18.1758 28.8334 17.9648 28.0287 17.543C27.224 17.1133 26.6107 16.4922 26.1888 15.6797C25.767 14.8594 25.556 13.8711 25.556 12.7148V11.0625C25.556 9.92188 25.767 8.94922 26.1888 8.14453C26.6107 7.33203 27.224 6.71484 28.0287 6.29297C28.8334 5.87109 29.8021 5.66016 30.9349 5.66016C31.5834 5.66016 32.1927 5.73828 32.7631 5.89453C33.3412 6.04297 33.8568 6.26172 34.3099 6.55078C34.7709 6.83984 35.1537 7.19141 35.4584 7.60547L33.5599 9.38672C33.2396 9.05078 32.8646 8.79297 32.4349 8.61328C32.0052 8.43359 31.556 8.34375 31.0873 8.34375C30.2201 8.34375 29.5482 8.58203 29.0717 9.05859C28.5951 9.52734 28.3568 10.1953 28.3568 11.0625V12.7148C28.3568 13.6055 28.5912 14.293 29.0599 14.7773C29.5365 15.2539 30.2123 15.4922 31.0873 15.4922C31.5638 15.4922 32.017 15.3945 32.4467 15.1992C32.8763 15.0039 33.2474 14.7266 33.5599 14.3672L35.4584 16.2656C35.1459 16.6719 34.7592 17.0195 34.2982 17.3086C33.8451 17.5898 33.3295 17.8047 32.7513 17.9531C32.181 18.1016 31.5756 18.1758 30.9349 18.1758ZM37.8607 0.960938H40.6615V18H37.8607V0.960938ZM45.0677 10.6289C45.0677 9.90234 44.8724 9.33984 44.4818 8.94141C44.0912 8.54297 43.5365 8.34375 42.8177 8.34375C42.1302 8.34375 41.599 8.52734 41.224 8.89453C40.849 9.26172 40.6615 9.78125 40.6615 10.4531L40.4154 7.93359C40.7826 7.19922 41.2435 6.63672 41.7982 6.24609C42.3607 5.85547 43.0209 5.66016 43.7787 5.66016C45.0756 5.66016 46.0795 6.09375 46.7904 6.96094C47.5092 7.82031 47.8685 9.03906 47.8685 10.6172V18H45.0677V10.6289ZM51.267 5.83594H54.0677V18H51.267V5.83594ZM58.474 10.6289C58.474 9.90234 58.2787 9.33984 57.8881 8.94141C57.4974 8.54297 56.9427 8.34375 56.224 8.34375C55.5365 8.34375 55.0052 8.53125 54.6302 8.90625C54.2552 9.27344 54.0677 9.79688 54.0677 10.4766L53.8217 7.95703C54.1888 7.20703 54.6498 6.63672 55.2045 6.24609C55.767 5.85547 56.4271 5.66016 57.1849 5.66016C58.4818 5.66016 59.4857 6.09375 60.1967 6.96094C60.9154 7.82031 61.2748 9.03906 61.2748 10.6172V18H58.474V10.6289ZM64.5912 0.960938H67.3802V3.76172H64.5912V0.960938ZM64.5912 5.83594H67.3802V18H64.5912V5.83594ZM75.724 18.1758C74.5912 18.1758 73.6224 17.9648 72.8177 17.543C72.0131 17.1133 71.3998 16.4922 70.9779 15.6797C70.556 14.8594 70.3451 13.8711 70.3451 12.7148V11.0625C70.3451 9.92188 70.556 8.94922 70.9779 8.14453C71.3998 7.33203 72.0131 6.71484 72.8177 6.29297C73.6224 5.87109 74.5912 5.66016 75.724 5.66016C76.3724 5.66016 76.9818 5.73828 77.5521 5.89453C78.1302 6.04297 78.6459 6.26172 79.099 6.55078C79.5599 6.83984 79.9427 7.19141 80.2474 7.60547L78.349 9.38672C78.0287 9.05078 77.6537 8.79297 77.224 8.61328C76.7943 8.43359 76.3451 8.34375 75.8763 8.34375C75.0092 8.34375 74.3373 8.58203 73.8607 9.05859C73.3842 9.52734 73.1459 10.1953 73.1459 11.0625V12.7148C73.1459 13.6055 73.3802 14.293 73.849 14.7773C74.3256 15.2539 75.0013 15.4922 75.8763 15.4922C76.3529 15.4922 76.806 15.3945 77.2357 15.1992C77.6654 15.0039 78.0365 14.7266 78.349 14.3672L80.2474 16.2656C79.9349 16.6719 79.5482 17.0195 79.0873 17.3086C78.6342 17.5898 78.1185 17.8047 77.5404 17.9531C76.9701 18.1016 76.3646 18.1758 75.724 18.1758ZM89.4349 10.2891C89.4349 9.60938 89.2318 9.08203 88.8256 8.70703C88.4271 8.33203 87.8607 8.14453 87.1263 8.14453C86.6576 8.14453 86.1967 8.21875 85.7435 8.36719C85.2904 8.51562 84.8842 8.72266 84.5248 8.98828L82.6615 7.41797C83.1381 6.86328 83.7631 6.43359 84.5365 6.12891C85.3099 5.81641 86.1693 5.66016 87.1146 5.66016C88.1459 5.66016 89.0287 5.83984 89.7631 6.19922C90.4974 6.55078 91.056 7.06641 91.4388 7.74609C91.8295 8.41797 92.0248 9.23047 92.0248 10.1836V18H89.4349V10.2891ZM86.2474 18.1758C84.849 18.1758 83.8021 17.8672 83.1068 17.25C82.4115 16.625 82.0638 15.6797 82.0638 14.4141C82.0638 13.2109 82.4154 12.3086 83.1185 11.707C83.8217 11.1055 84.8763 10.8047 86.2826 10.8047H89.5404L89.7045 12.9844H86.2943C85.7396 12.9844 85.3217 13.1016 85.0404 13.3359C84.767 13.5703 84.6302 13.9297 84.6302 14.4141C84.6302 14.9219 84.8099 15.3008 85.1693 15.5508C85.5287 15.793 86.0717 15.9141 86.7982 15.9141C87.6888 15.9141 88.349 15.8164 88.7787 15.6211C89.2162 15.4258 89.4349 15.1211 89.4349 14.707L89.681 16.4414C89.5482 16.8242 89.3138 17.1445 88.9779 17.4023C88.6498 17.6602 88.2513 17.8555 87.7826 17.9883C87.3138 18.1133 86.8021 18.1758 86.2474 18.1758ZM98.224 14.4258C98.224 14.7227 98.2982 14.9531 98.4467 15.1172C98.5951 15.2734 98.806 15.3516 99.0795 15.3516H99.9115V18.0352H98.3881C97.4506 18.0352 96.7201 17.7539 96.1967 17.1914C95.681 16.6289 95.4232 15.8359 95.4232 14.8125V0.960938H98.224V14.4258ZM113.822 0.960938H115.861L122.259 18H119.247L114.841 5.30859L110.435 18H107.423L113.822 0.960938ZM110.435 12.082H119.4V14.7656H110.435V12.082ZM128.845 18.1758C128.119 18.1758 127.427 18.1094 126.771 17.9766C126.115 17.8359 125.497 17.6328 124.919 17.3672C124.349 17.1016 123.833 16.7773 123.372 16.3945L125.072 14.2852C125.689 14.7227 126.318 15.0547 126.958 15.2812C127.607 15.5078 128.236 15.6211 128.845 15.6211C129.697 15.6211 130.341 15.5078 130.779 15.2812C131.224 15.0469 131.447 14.7109 131.447 14.2734C131.447 13.9375 131.337 13.6875 131.119 13.5234C130.9 13.3516 130.622 13.2344 130.286 13.1719C129.958 13.1094 129.494 13.0508 128.892 12.9961C128.79 12.9883 128.685 12.9805 128.576 12.9727C128.466 12.9648 128.361 12.9531 128.259 12.9375C128.228 12.9375 128.197 12.9375 128.165 12.9375C128.134 12.9297 128.103 12.9258 128.072 12.9258C127.22 12.832 126.521 12.7031 125.974 12.5391C125.427 12.3672 124.966 12.043 124.591 11.5664C124.224 11.0898 124.04 10.4062 124.04 9.51562C124.04 8.67969 124.224 7.97656 124.591 7.40625C124.966 6.82812 125.513 6.39453 126.232 6.10547C126.951 5.80859 127.833 5.66016 128.88 5.66016C129.505 5.66016 130.115 5.72266 130.708 5.84766C131.302 5.96484 131.869 6.14062 132.408 6.375C132.954 6.60156 133.47 6.88672 133.954 7.23047L132.279 9.26953C131.708 8.92578 131.13 8.66406 130.544 8.48438C129.966 8.30469 129.404 8.21484 128.857 8.21484C128.122 8.21484 127.564 8.32031 127.181 8.53125C126.798 8.74219 126.607 9.05469 126.607 9.46875C126.607 9.73438 126.712 9.9375 126.923 10.0781C127.134 10.2188 127.396 10.3164 127.708 10.3711C128.029 10.418 128.49 10.4688 129.091 10.5234C129.154 10.5312 129.212 10.5391 129.267 10.5469C129.329 10.5469 129.392 10.5508 129.454 10.5586C129.478 10.5586 129.505 10.5586 129.536 10.5586C129.568 10.5586 129.599 10.5625 129.63 10.5703C130.529 10.6562 131.275 10.7852 131.869 10.957C132.462 11.1289 132.966 11.4727 133.38 11.9883C133.794 12.4961 134.001 13.2383 134.001 14.2148C134.001 15.0742 133.806 15.8008 133.415 16.3945C133.025 16.9805 132.443 17.4258 131.669 17.7305C130.904 18.0273 129.962 18.1758 128.845 18.1758ZM141.29 18.1758C140.564 18.1758 139.872 18.1094 139.216 17.9766C138.56 17.8359 137.943 17.6328 137.365 17.3672C136.794 17.1016 136.279 16.7773 135.818 16.3945L137.517 14.2852C138.134 14.7227 138.763 15.0547 139.404 15.2812C140.052 15.5078 140.681 15.6211 141.29 15.6211C142.142 15.6211 142.786 15.5078 143.224 15.2812C143.669 15.0469 143.892 14.7109 143.892 14.2734C143.892 13.9375 143.783 13.6875 143.564 13.5234C143.345 13.3516 143.068 13.2344 142.732 13.1719C142.404 13.1094 141.939 13.0508 141.337 12.9961C141.236 12.9883 141.13 12.9805 141.021 12.9727C140.911 12.9648 140.806 12.9531 140.704 12.9375C140.673 12.9375 140.642 12.9375 140.611 12.9375C140.579 12.9297 140.548 12.9258 140.517 12.9258C139.665 12.832 138.966 12.7031 138.419 12.5391C137.872 12.3672 137.411 12.043 137.036 11.5664C136.669 11.0898 136.486 10.4062 136.486 9.51562C136.486 8.67969 136.669 7.97656 137.036 7.40625C137.411 6.82812 137.958 6.39453 138.677 6.10547C139.396 5.80859 140.279 5.66016 141.326 5.66016C141.951 5.66016 142.56 5.72266 143.154 5.84766C143.747 5.96484 144.314 6.14062 144.853 6.375C145.4 6.60156 145.915 6.88672 146.4 7.23047L144.724 9.26953C144.154 8.92578 143.576 8.66406 142.99 8.48438C142.411 8.30469 141.849 8.21484 141.302 8.21484C140.568 8.21484 140.009 8.32031 139.626 8.53125C139.244 8.74219 139.052 9.05469 139.052 9.46875C139.052 9.73438 139.158 9.9375 139.369 10.0781C139.579 10.2188 139.841 10.3164 140.154 10.3711C140.474 10.418 140.935 10.4688 141.536 10.5234C141.599 10.5312 141.658 10.5391 141.712 10.5469C141.775 10.5469 141.837 10.5508 141.9 10.5586C141.923 10.5586 141.951 10.5586 141.982 10.5586C142.013 10.5586 142.044 10.5625 142.076 10.5703C142.974 10.6562 143.72 10.7852 144.314 10.957C144.908 11.1289 145.411 11.4727 145.826 11.9883C146.24 12.4961 146.447 13.2383 146.447 14.2148C146.447 15.0742 146.251 15.8008 145.861 16.3945C145.47 16.9805 144.888 17.4258 144.115 17.7305C143.349 18.0273 142.408 18.1758 141.29 18.1758ZM149.177 0.960938H151.966V3.76172H149.177V0.960938ZM149.177 5.83594H151.966V18H149.177V5.83594ZM159.759 18.1758C159.033 18.1758 158.341 18.1094 157.685 17.9766C157.029 17.8359 156.411 17.6328 155.833 17.3672C155.263 17.1016 154.747 16.7773 154.286 16.3945L155.986 14.2852C156.603 14.7227 157.232 15.0547 157.872 15.2812C158.521 15.5078 159.15 15.6211 159.759 15.6211C160.611 15.6211 161.255 15.5078 161.693 15.2812C162.138 15.0469 162.361 14.7109 162.361 14.2734C162.361 13.9375 162.251 13.6875 162.033 13.5234C161.814 13.3516 161.536 13.2344 161.201 13.1719C160.872 13.1094 160.408 13.0508 159.806 12.9961C159.704 12.9883 159.599 12.9805 159.49 12.9727C159.38 12.9648 159.275 12.9531 159.173 12.9375C159.142 12.9375 159.111 12.9375 159.079 12.9375C159.048 12.9297 159.017 12.9258 158.986 12.9258C158.134 12.832 157.435 12.7031 156.888 12.5391C156.341 12.3672 155.88 12.043 155.505 11.5664C155.138 11.0898 154.954 10.4062 154.954 9.51562C154.954 8.67969 155.138 7.97656 155.505 7.40625C155.88 6.82812 156.427 6.39453 157.146 6.10547C157.865 5.80859 158.747 5.66016 159.794 5.66016C160.419 5.66016 161.029 5.72266 161.622 5.84766C162.216 5.96484 162.783 6.14062 163.322 6.375C163.869 6.60156 164.384 6.88672 164.869 7.23047L163.193 9.26953C162.622 8.92578 162.044 8.66406 161.458 8.48438C160.88 8.30469 160.318 8.21484 159.771 8.21484C159.036 8.21484 158.478 8.32031 158.095 8.53125C157.712 8.74219 157.521 9.05469 157.521 9.46875C157.521 9.73438 157.626 9.9375 157.837 10.0781C158.048 10.2188 158.31 10.3164 158.622 10.3711C158.943 10.418 159.404 10.4688 160.005 10.5234C160.068 10.5312 160.126 10.5391 160.181 10.5469C160.244 10.5469 160.306 10.5508 160.369 10.5586C160.392 10.5586 160.419 10.5586 160.451 10.5586C160.482 10.5586 160.513 10.5625 160.544 10.5703C161.443 10.6562 162.189 10.7852 162.783 10.957C163.376 11.1289 163.88 11.4727 164.294 11.9883C164.708 12.4961 164.915 13.2383 164.915 14.2148C164.915 15.0742 164.72 15.8008 164.329 16.3945C163.939 16.9805 163.357 17.4258 162.583 17.7305C161.818 18.0273 160.876 18.1758 159.759 18.1758ZM171.009 18.0586C169.986 18.0586 169.236 17.7891 168.759 17.25C168.283 16.7031 168.044 15.8984 168.044 14.8359V2.29688H170.845V14.4492C170.845 14.7461 170.904 14.9766 171.021 15.1406C171.138 15.2969 171.31 15.375 171.536 15.375H172.509V18.0586H171.009ZM166.79 5.83594H172.509V8.28516H166.79V5.83594ZM182.341 10.2891C182.341 9.60938 182.138 9.08203 181.732 8.70703C181.333 8.33203 180.767 8.14453 180.033 8.14453C179.564 8.14453 179.103 8.21875 178.65 8.36719C178.197 8.51562 177.79 8.72266 177.431 8.98828L175.568 7.41797C176.044 6.86328 176.669 6.43359 177.443 6.12891C178.216 5.81641 179.076 5.66016 180.021 5.66016C181.052 5.66016 181.935 5.83984 182.669 6.19922C183.404 6.55078 183.962 7.06641 184.345 7.74609C184.736 8.41797 184.931 9.23047 184.931 10.1836V18H182.341V10.2891ZM179.154 18.1758C177.755 18.1758 176.708 17.8672 176.013 17.25C175.318 16.625 174.97 15.6797 174.97 14.4141C174.97 13.2109 175.322 12.3086 176.025 11.707C176.728 11.1055 177.783 10.8047 179.189 10.8047H182.447L182.611 12.9844H179.201C178.646 12.9844 178.228 13.1016 177.947 13.3359C177.673 13.5703 177.536 13.9297 177.536 14.4141C177.536 14.9219 177.716 15.3008 178.076 15.5508C178.435 15.793 178.978 15.9141 179.704 15.9141C180.595 15.9141 181.255 15.8164 181.685 15.6211C182.122 15.4258 182.341 15.1211 182.341 14.707L182.587 16.4414C182.454 16.8242 182.22 17.1445 181.884 17.4023C181.556 17.6602 181.158 17.8555 180.689 17.9883C180.22 18.1133 179.708 18.1758 179.154 18.1758ZM188.329 5.83594H191.13V18H188.329V5.83594ZM195.536 10.6289C195.536 9.90234 195.341 9.33984 194.951 8.94141C194.56 8.54297 194.005 8.34375 193.286 8.34375C192.599 8.34375 192.068 8.53125 191.693 8.90625C191.318 9.27344 191.13 9.79688 191.13 10.4766L190.884 7.95703C191.251 7.20703 191.712 6.63672 192.267 6.24609C192.829 5.85547 193.49 5.66016 194.247 5.66016C195.544 5.66016 196.548 6.09375 197.259 6.96094C197.978 7.82031 198.337 9.03906 198.337 10.6172V18H195.536V10.6289ZM206.763 18.1758C205.63 18.1758 204.661 17.9648 203.857 17.543C203.052 17.1133 202.439 16.4922 202.017 15.6797C201.595 14.8594 201.384 13.8711 201.384 12.7148V11.0625C201.384 9.92188 201.595 8.94922 202.017 8.14453C202.439 7.33203 203.052 6.71484 203.857 6.29297C204.661 5.87109 205.63 5.66016 206.763 5.66016C207.411 5.66016 208.021 5.73828 208.591 5.89453C209.169 6.04297 209.685 6.26172 210.138 6.55078C210.599 6.83984 210.982 7.19141 211.286 7.60547L209.388 9.38672C209.068 9.05078 208.693 8.79297 208.263 8.61328C207.833 8.43359 207.384 8.34375 206.915 8.34375C206.048 8.34375 205.376 8.58203 204.9 9.05859C204.423 9.52734 204.185 10.1953 204.185 11.0625V12.7148C204.185 13.6055 204.419 14.293 204.888 14.7773C205.365 15.2539 206.04 15.4922 206.915 15.4922C207.392 15.4922 207.845 15.3945 208.275 15.1992C208.704 15.0039 209.076 14.7266 209.388 14.3672L211.286 16.2656C210.974 16.6719 210.587 17.0195 210.126 17.3086C209.673 17.5898 209.158 17.8047 208.579 17.9531C208.009 18.1016 207.404 18.1758 206.763 18.1758ZM218.786 18.1758C217.638 18.1758 216.658 17.9648 215.845 17.543C215.033 17.1211 214.411 16.5039 213.982 15.6914C213.552 14.8711 213.337 13.8828 213.337 12.7266V11.3555C213.337 10.1523 213.54 9.125 213.947 8.27344C214.361 7.42188 214.958 6.77344 215.74 6.32812C216.529 5.88281 217.474 5.66016 218.576 5.66016C219.615 5.66016 220.501 5.92187 221.236 6.44531C221.978 6.96094 222.54 7.71094 222.923 8.69531C223.314 9.67969 223.509 10.8672 223.509 12.2578V13.0547H215.247V11.0039H220.908L220.896 10.875C220.818 10.0234 220.579 9.36328 220.181 8.89453C219.783 8.42578 219.247 8.19141 218.576 8.19141C217.732 8.19141 217.079 8.45703 216.619 8.98828C216.158 9.51172 215.927 10.2578 215.927 11.2266V12.7734C215.927 13.6953 216.177 14.4062 216.677 14.9062C217.177 15.3984 217.88 15.6445 218.786 15.6445C219.247 15.6445 219.701 15.5586 220.146 15.3867C220.599 15.207 221.005 14.9609 221.365 14.6484L223.193 16.3594C222.576 16.9375 221.88 17.3867 221.107 17.707C220.341 18.0195 219.568 18.1758 218.786 18.1758ZM241.111 10.5586V13.2305H233.001V10.5586H241.111ZM251.189 0.960938H253.99V18H251.189V0.960938ZM252.501 15.3164H262.369V18H252.501V15.3164ZM271.497 10.2891C271.497 9.60938 271.294 9.08203 270.888 8.70703C270.49 8.33203 269.923 8.14453 269.189 8.14453C268.72 8.14453 268.259 8.21875 267.806 8.36719C267.353 8.51562 266.947 8.72266 266.587 8.98828L264.724 7.41797C265.201 6.86328 265.826 6.43359 266.599 6.12891C267.372 5.81641 268.232 5.66016 269.177 5.66016C270.208 5.66016 271.091 5.83984 271.826 6.19922C272.56 6.55078 273.119 7.06641 273.501 7.74609C273.892 8.41797 274.087 9.23047 274.087 10.1836V18H271.497V10.2891ZM268.31 18.1758C266.911 18.1758 265.865 17.8672 265.169 17.25C264.474 16.625 264.126 15.6797 264.126 14.4141C264.126 13.2109 264.478 12.3086 265.181 11.707C265.884 11.1055 266.939 10.8047 268.345 10.8047H271.603L271.767 12.9844H268.357C267.802 12.9844 267.384 13.1016 267.103 13.3359C266.829 13.5703 266.693 13.9297 266.693 14.4141C266.693 14.9219 266.872 15.3008 267.232 15.5508C267.591 15.793 268.134 15.9141 268.861 15.9141C269.751 15.9141 270.411 15.8164 270.841 15.6211C271.279 15.4258 271.497 15.1211 271.497 14.707L271.744 16.4414C271.611 16.8242 271.376 17.1445 271.04 17.4023C270.712 17.6602 270.314 17.8555 269.845 17.9883C269.376 18.1133 268.865 18.1758 268.31 18.1758ZM277.486 5.83594H280.404V18H277.486V5.83594ZM284.259 8.96484C284.072 8.76172 283.841 8.60938 283.568 8.50781C283.294 8.39844 282.978 8.34375 282.619 8.34375C281.915 8.34375 281.369 8.55469 280.978 8.97656C280.595 9.39062 280.404 9.96875 280.404 10.7109L280.158 7.95703C280.509 7.23047 280.966 6.66797 281.529 6.26953C282.099 5.86328 282.724 5.66016 283.404 5.66016C283.935 5.66016 284.415 5.74219 284.845 5.90625C285.275 6.0625 285.65 6.29688 285.97 6.60938L284.259 8.96484ZM294.513 10.2891C294.513 9.60938 294.31 9.08203 293.904 8.70703C293.505 8.33203 292.939 8.14453 292.204 8.14453C291.736 8.14453 291.275 8.21875 290.822 8.36719C290.369 8.51562 289.962 8.72266 289.603 8.98828L287.74 7.41797C288.216 6.86328 288.841 6.43359 289.615 6.12891C290.388 5.81641 291.247 5.66016 292.193 5.66016C293.224 5.66016 294.107 5.83984 294.841 6.19922C295.576 6.55078 296.134 7.06641 296.517 7.74609C296.908 8.41797 297.103 9.23047 297.103 10.1836V18H294.513V10.2891ZM291.326 18.1758C289.927 18.1758 288.88 17.8672 288.185 17.25C287.49 16.625 287.142 15.6797 287.142 14.4141C287.142 13.2109 287.494 12.3086 288.197 11.707C288.9 11.1055 289.954 10.8047 291.361 10.8047H294.619L294.783 12.9844H291.372C290.818 12.9844 290.4 13.1016 290.119 13.3359C289.845 13.5703 289.708 13.9297 289.708 14.4141C289.708 14.9219 289.888 15.3008 290.247 15.5508C290.607 15.793 291.15 15.9141 291.876 15.9141C292.767 15.9141 293.427 15.8164 293.857 15.6211C294.294 15.4258 294.513 15.1211 294.513 14.707L294.759 16.4414C294.626 16.8242 294.392 17.1445 294.056 17.4023C293.728 17.6602 293.329 17.8555 292.861 17.9883C292.392 18.1133 291.88 18.1758 291.326 18.1758ZM307.193 5.83594H310.04L305.47 18H303.431L298.861 5.83594H301.708L304.451 13.9922L307.193 5.83594ZM317.013 18.1758C315.865 18.1758 314.884 17.9648 314.072 17.543C313.259 17.1211 312.638 16.5039 312.208 15.6914C311.779 14.8711 311.564 13.8828 311.564 12.7266V11.3555C311.564 10.1523 311.767 9.125 312.173 8.27344C312.587 7.42188 313.185 6.77344 313.966 6.32812C314.755 5.88281 315.701 5.66016 316.802 5.66016C317.841 5.66016 318.728 5.92187 319.462 6.44531C320.204 6.96094 320.767 7.71094 321.15 8.69531C321.54 9.67969 321.736 10.8672 321.736 12.2578V13.0547H313.474V11.0039H319.134L319.122 10.875C319.044 10.0234 318.806 9.36328 318.408 8.89453C318.009 8.42578 317.474 8.19141 316.802 8.19141C315.958 8.19141 315.306 8.45703 314.845 8.98828C314.384 9.51172 314.154 10.2578 314.154 11.2266V12.7734C314.154 13.6953 314.404 14.4062 314.904 14.9062C315.404 15.3984 316.107 15.6445 317.013 15.6445C317.474 15.6445 317.927 15.5586 318.372 15.3867C318.826 15.207 319.232 14.9609 319.591 14.6484L321.419 16.3594C320.802 16.9375 320.107 17.3867 319.333 17.707C318.568 18.0195 317.794 18.1758 317.013 18.1758ZM327.583 14.4258C327.583 14.7227 327.658 14.9531 327.806 15.1172C327.954 15.2734 328.165 15.3516 328.439 15.3516H329.271V18.0352H327.747C326.81 18.0352 326.079 17.7539 325.556 17.1914C325.04 16.6289 324.783 15.8359 324.783 14.8125V0.960938H327.583V14.4258Z" fill="#171717"/>
</svg>
