<svg width="581" height="30" viewBox="0 0 581 30" fill="none" xmlns="http://www.w3.org/2000/svg">
<path d="M6.89197 2.14062H10.6107V23H6.89197V2.14062ZM0.579468 0.28125H16.9232V3.85938H0.579468V0.28125ZM23.8763 23.2344C22.3451 23.2344 21.0378 22.9531 19.9545 22.3906C18.8711 21.8281 18.043 21.0052 17.4701 19.9219C16.8972 18.8281 16.6107 17.5104 16.6107 15.9688V14.1406C16.6107 12.5365 16.8816 11.1667 17.4232 10.0312C17.9753 8.89583 18.7722 8.03125 19.8138 7.4375C20.8659 6.84375 22.1263 6.54688 23.5951 6.54688C24.9805 6.54688 26.1628 6.89583 27.142 7.59375C28.1316 8.28125 28.8816 9.28125 29.392 10.5938C29.9128 11.9062 30.1732 13.4896 30.1732 15.3438V16.4062H19.1576V13.6719H26.7045L26.6888 13.5C26.5847 12.3646 26.267 11.4844 25.7357 10.8594C25.2045 10.2344 24.4909 9.92188 23.5951 9.92188C22.4701 9.92188 21.6003 10.276 20.9857 10.9844C20.3711 11.6823 20.0638 12.6771 20.0638 13.9688V16.0312C20.0638 17.2604 20.3972 18.2083 21.0638 18.875C21.7305 19.5312 22.668 19.8594 23.8763 19.8594C24.4909 19.8594 25.0951 19.7448 25.6888 19.5156C26.293 19.276 26.8347 18.9479 27.3138 18.5312L29.7513 20.8125C28.9284 21.5833 28.0013 22.1823 26.9701 22.6094C25.9493 23.026 24.918 23.2344 23.8763 23.2344ZM40.9388 23.2344C39.4284 23.2344 38.1368 22.9531 37.0638 22.3906C35.9909 21.8177 35.1732 20.9896 34.6107 19.9062C34.0482 18.8125 33.767 17.4948 33.767 15.9531V13.75C33.767 12.2292 34.0482 10.9323 34.6107 9.85938C35.1732 8.77604 35.9909 7.95312 37.0638 7.39062C38.1368 6.82812 39.4284 6.54688 40.9388 6.54688C41.8034 6.54688 42.6159 6.65104 43.3763 6.85938C44.1472 7.05729 44.8347 7.34896 45.4388 7.73438C46.0534 8.11979 46.5638 8.58854 46.9701 9.14062L44.4388 11.5156C44.0118 11.0677 43.5118 10.724 42.9388 10.4844C42.3659 10.2448 41.767 10.125 41.142 10.125C39.9857 10.125 39.0899 10.4427 38.4545 11.0781C37.8191 11.7031 37.5013 12.5938 37.5013 13.75V15.9531C37.5013 17.1406 37.8138 18.0573 38.4388 18.7031C39.0743 19.3385 39.9753 19.6562 41.142 19.6562C41.7774 19.6562 42.3816 19.526 42.9545 19.2656C43.5274 19.0052 44.0222 18.6354 44.4388 18.1562L46.9701 20.6875C46.5534 21.2292 46.0378 21.6927 45.4232 22.0781C44.8191 22.4531 44.1316 22.7396 43.3607 22.9375C42.6003 23.1354 41.793 23.2344 40.9388 23.2344ZM50.1732 0.28125H53.9076V23H50.1732V0.28125ZM59.7826 13.1719C59.7826 12.2031 59.5222 11.4531 59.0013 10.9219C58.4805 10.3906 57.7409 10.125 56.7826 10.125C55.8659 10.125 55.1576 10.3698 54.6576 10.8594C54.1576 11.349 53.9076 12.0417 53.9076 12.9375L53.5795 9.57812C54.0691 8.59896 54.6836 7.84896 55.4232 7.32812C56.1732 6.80729 57.0534 6.54688 58.0638 6.54688C59.793 6.54688 61.1316 7.125 62.0795 8.28125C63.0378 9.42708 63.517 11.0521 63.517 13.1562V23H59.7826V13.1719ZM68.0482 6.78125H71.7826V23H68.0482V6.78125ZM77.6576 13.1719C77.6576 12.2031 77.3972 11.4531 76.8763 10.9219C76.3555 10.3906 75.6159 10.125 74.6576 10.125C73.7409 10.125 73.0326 10.375 72.5326 10.875C72.0326 11.3646 71.7826 12.0625 71.7826 12.9688L71.4545 9.60938C71.9441 8.60938 72.5586 7.84896 73.2982 7.32812C74.0482 6.80729 74.9284 6.54688 75.9388 6.54688C77.668 6.54688 79.0066 7.125 79.9545 8.28125C80.9128 9.42708 81.392 11.0521 81.392 13.1562V23H77.6576V13.1719ZM85.8138 0.28125H89.5326V4.01562H85.8138V0.28125ZM85.8138 6.78125H89.5326V23H85.8138V6.78125ZM100.658 23.2344C99.1472 23.2344 97.8555 22.9531 96.7826 22.3906C95.7097 21.8177 94.892 20.9896 94.3295 19.9062C93.767 18.8125 93.4857 17.4948 93.4857 15.9531V13.75C93.4857 12.2292 93.767 10.9323 94.3295 9.85938C94.892 8.77604 95.7097 7.95312 96.7826 7.39062C97.8555 6.82812 99.1472 6.54688 100.658 6.54688C101.522 6.54688 102.335 6.65104 103.095 6.85938C103.866 7.05729 104.553 7.34896 105.158 7.73438C105.772 8.11979 106.283 8.58854 106.689 9.14062L104.158 11.5156C103.731 11.0677 103.231 10.724 102.658 10.4844C102.085 10.2448 101.486 10.125 100.861 10.125C99.7045 10.125 98.8086 10.4427 98.1732 11.0781C97.5378 11.7031 97.2201 12.5938 97.2201 13.75V15.9531C97.2201 17.1406 97.5326 18.0573 98.1576 18.7031C98.793 19.3385 99.6941 19.6562 100.861 19.6562C101.496 19.6562 102.1 19.526 102.673 19.2656C103.246 19.0052 103.741 18.6354 104.158 18.1562L106.689 20.6875C106.272 21.2292 105.757 21.6927 105.142 22.0781C104.538 22.4531 103.85 22.7396 103.079 22.9375C102.319 23.1354 101.512 23.2344 100.658 23.2344ZM118.939 12.7188C118.939 11.8125 118.668 11.1094 118.126 10.6094C117.595 10.1094 116.84 9.85938 115.861 9.85938C115.236 9.85938 114.621 9.95833 114.017 10.1562C113.413 10.3542 112.871 10.6302 112.392 10.9844L109.908 8.89062C110.543 8.15104 111.376 7.57812 112.408 7.17188C113.439 6.75521 114.585 6.54688 115.845 6.54688C117.22 6.54688 118.397 6.78646 119.376 7.26562C120.356 7.73438 121.1 8.42188 121.611 9.32812C122.132 10.224 122.392 11.3073 122.392 12.5781V23H118.939V12.7188ZM114.689 23.2344C112.824 23.2344 111.428 22.8229 110.501 22C109.574 21.1667 109.111 19.9062 109.111 18.2188C109.111 16.6146 109.579 15.4115 110.517 14.6094C111.454 13.8073 112.861 13.4062 114.736 13.4062H119.079L119.298 16.3125H114.751C114.012 16.3125 113.454 16.4688 113.079 16.7812C112.715 17.0938 112.533 17.5729 112.533 18.2188C112.533 18.8958 112.772 19.401 113.251 19.7344C113.731 20.0573 114.454 20.2188 115.423 20.2188C116.611 20.2188 117.491 20.0885 118.064 19.8281C118.647 19.5677 118.939 19.1615 118.939 18.6094L119.267 20.9219C119.09 21.4323 118.777 21.8594 118.329 22.2031C117.892 22.5469 117.361 22.8073 116.736 22.9844C116.111 23.151 115.428 23.2344 114.689 23.2344ZM130.658 18.2344C130.658 18.6302 130.757 18.9375 130.954 19.1562C131.152 19.3646 131.434 19.4688 131.798 19.4688H132.908V23.0469H130.876C129.626 23.0469 128.652 22.6719 127.954 21.9219C127.267 21.1719 126.923 20.1146 126.923 18.75V0.28125H130.658V18.2344ZM151.454 0.28125H154.173L162.704 23H158.689L152.814 6.07812L146.939 23H142.923L151.454 0.28125ZM146.939 15.1094H158.892V18.6875H146.939V15.1094ZM171.486 23.2344C170.517 23.2344 169.595 23.1458 168.72 22.9688C167.845 22.7812 167.022 22.5104 166.251 22.1562C165.491 21.8021 164.803 21.3698 164.189 20.8594L166.454 18.0469C167.277 18.6302 168.116 19.0729 168.97 19.375C169.835 19.6771 170.673 19.8281 171.486 19.8281C172.621 19.8281 173.481 19.6771 174.064 19.375C174.658 19.0625 174.954 18.6146 174.954 18.0312C174.954 17.5833 174.809 17.25 174.517 17.0312C174.225 16.8021 173.856 16.6458 173.408 16.5625C172.97 16.4792 172.35 16.401 171.548 16.3281C171.413 16.3177 171.272 16.3073 171.126 16.2969C170.981 16.2865 170.84 16.2708 170.704 16.25C170.663 16.25 170.621 16.25 170.579 16.25C170.538 16.2396 170.496 16.2344 170.454 16.2344C169.319 16.1094 168.387 15.9375 167.658 15.7188C166.928 15.4896 166.314 15.0573 165.814 14.4219C165.324 13.7865 165.079 12.875 165.079 11.6875C165.079 10.5729 165.324 9.63542 165.814 8.875C166.314 8.10417 167.043 7.52604 168.001 7.14062C168.96 6.74479 170.137 6.54688 171.533 6.54688C172.366 6.54688 173.178 6.63021 173.97 6.79688C174.762 6.95312 175.517 7.1875 176.236 7.5C176.965 7.80208 177.652 8.18229 178.298 8.64062L176.064 11.3594C175.303 10.901 174.533 10.5521 173.751 10.3125C172.981 10.0729 172.231 9.95312 171.501 9.95312C170.522 9.95312 169.777 10.0938 169.267 10.375C168.757 10.6562 168.501 11.0729 168.501 11.625C168.501 11.9792 168.642 12.25 168.923 12.4375C169.204 12.625 169.553 12.7552 169.97 12.8281C170.397 12.8906 171.012 12.9583 171.814 13.0312C171.897 13.0417 171.975 13.0521 172.048 13.0625C172.132 13.0625 172.215 13.0677 172.298 13.0781C172.329 13.0781 172.366 13.0781 172.408 13.0781C172.449 13.0781 172.491 13.0833 172.533 13.0938C173.731 13.2083 174.725 13.3802 175.517 13.6094C176.309 13.8385 176.981 14.2969 177.533 14.9844C178.085 15.6615 178.361 16.651 178.361 17.9531C178.361 19.099 178.1 20.0677 177.579 20.8594C177.059 21.6406 176.283 22.2344 175.251 22.6406C174.231 23.0365 172.975 23.2344 171.486 23.2344ZM188.079 23.2344C187.111 23.2344 186.189 23.1458 185.314 22.9688C184.439 22.7812 183.616 22.5104 182.845 22.1562C182.085 21.8021 181.397 21.3698 180.783 20.8594L183.048 18.0469C183.871 18.6302 184.71 19.0729 185.564 19.375C186.428 19.6771 187.267 19.8281 188.079 19.8281C189.215 19.8281 190.074 19.6771 190.658 19.375C191.251 19.0625 191.548 18.6146 191.548 18.0312C191.548 17.5833 191.402 17.25 191.111 17.0312C190.819 16.8021 190.449 16.6458 190.001 16.5625C189.564 16.4792 188.944 16.401 188.142 16.3281C188.007 16.3177 187.866 16.3073 187.72 16.2969C187.574 16.2865 187.434 16.2708 187.298 16.25C187.257 16.25 187.215 16.25 187.173 16.25C187.132 16.2396 187.09 16.2344 187.048 16.2344C185.913 16.1094 184.981 15.9375 184.251 15.7188C183.522 15.4896 182.908 15.0573 182.408 14.4219C181.918 13.7865 181.673 12.875 181.673 11.6875C181.673 10.5729 181.918 9.63542 182.408 8.875C182.908 8.10417 183.637 7.52604 184.595 7.14062C185.553 6.74479 186.731 6.54688 188.126 6.54688C188.96 6.54688 189.772 6.63021 190.564 6.79688C191.356 6.95312 192.111 7.1875 192.829 7.5C193.559 7.80208 194.246 8.18229 194.892 8.64062L192.658 11.3594C191.897 10.901 191.126 10.5521 190.345 10.3125C189.574 10.0729 188.824 9.95312 188.095 9.95312C187.116 9.95312 186.371 10.0938 185.861 10.375C185.35 10.6562 185.095 11.0729 185.095 11.625C185.095 11.9792 185.236 12.25 185.517 12.4375C185.798 12.625 186.147 12.7552 186.564 12.8281C186.991 12.8906 187.606 12.9583 188.408 13.0312C188.491 13.0417 188.569 13.0521 188.642 13.0625C188.725 13.0625 188.809 13.0677 188.892 13.0781C188.923 13.0781 188.96 13.0781 189.001 13.0781C189.043 13.0781 189.085 13.0833 189.126 13.0938C190.324 13.2083 191.319 13.3802 192.111 13.6094C192.902 13.8385 193.574 14.2969 194.126 14.9844C194.678 15.6615 194.954 16.651 194.954 17.9531C194.954 19.099 194.694 20.0677 194.173 20.8594C193.652 21.6406 192.876 22.2344 191.845 22.6406C190.824 23.0365 189.569 23.2344 188.079 23.2344ZM198.595 0.28125H202.314V4.01562H198.595V0.28125ZM198.595 6.78125H202.314V23H198.595V6.78125ZM212.704 23.2344C211.736 23.2344 210.814 23.1458 209.939 22.9688C209.064 22.7812 208.241 22.5104 207.47 22.1562C206.71 21.8021 206.022 21.3698 205.408 20.8594L207.673 18.0469C208.496 18.6302 209.335 19.0729 210.189 19.375C211.053 19.6771 211.892 19.8281 212.704 19.8281C213.84 19.8281 214.699 19.6771 215.283 19.375C215.876 19.0625 216.173 18.6146 216.173 18.0312C216.173 17.5833 216.027 17.25 215.736 17.0312C215.444 16.8021 215.074 16.6458 214.626 16.5625C214.189 16.4792 213.569 16.401 212.767 16.3281C212.632 16.3177 212.491 16.3073 212.345 16.2969C212.199 16.2865 212.059 16.2708 211.923 16.25C211.882 16.25 211.84 16.25 211.798 16.25C211.757 16.2396 211.715 16.2344 211.673 16.2344C210.538 16.1094 209.606 15.9375 208.876 15.7188C208.147 15.4896 207.533 15.0573 207.033 14.4219C206.543 13.7865 206.298 12.875 206.298 11.6875C206.298 10.5729 206.543 9.63542 207.033 8.875C207.533 8.10417 208.262 7.52604 209.22 7.14062C210.178 6.74479 211.356 6.54688 212.751 6.54688C213.585 6.54688 214.397 6.63021 215.189 6.79688C215.981 6.95312 216.736 7.1875 217.454 7.5C218.184 7.80208 218.871 8.18229 219.517 8.64062L217.283 11.3594C216.522 10.901 215.751 10.5521 214.97 10.3125C214.199 10.0729 213.449 9.95312 212.72 9.95312C211.741 9.95312 210.996 10.0938 210.486 10.375C209.975 10.6562 209.72 11.0729 209.72 11.625C209.72 11.9792 209.861 12.25 210.142 12.4375C210.423 12.625 210.772 12.7552 211.189 12.8281C211.616 12.8906 212.231 12.9583 213.033 13.0312C213.116 13.0417 213.194 13.0521 213.267 13.0625C213.35 13.0625 213.434 13.0677 213.517 13.0781C213.548 13.0781 213.585 13.0781 213.626 13.0781C213.668 13.0781 213.71 13.0833 213.751 13.0938C214.949 13.2083 215.944 13.3802 216.736 13.6094C217.527 13.8385 218.199 14.2969 218.751 14.9844C219.303 15.6615 219.579 16.651 219.579 17.9531C219.579 19.099 219.319 20.0677 218.798 20.8594C218.277 21.6406 217.501 22.2344 216.47 22.6406C215.449 23.0365 214.194 23.2344 212.704 23.2344ZM227.704 23.0781C226.34 23.0781 225.34 22.7188 224.704 22C224.069 21.2708 223.751 20.1979 223.751 18.7812V2.0625H227.486V18.2656C227.486 18.6615 227.564 18.9688 227.72 19.1875C227.876 19.3958 228.106 19.5 228.408 19.5H229.704V23.0781H227.704ZM222.079 6.78125H229.704V10.0469H222.079V6.78125ZM242.814 12.7188C242.814 11.8125 242.543 11.1094 242.001 10.6094C241.47 10.1094 240.715 9.85938 239.736 9.85938C239.111 9.85938 238.496 9.95833 237.892 10.1562C237.288 10.3542 236.746 10.6302 236.267 10.9844L233.783 8.89062C234.418 8.15104 235.251 7.57812 236.283 7.17188C237.314 6.75521 238.46 6.54688 239.72 6.54688C241.095 6.54688 242.272 6.78646 243.251 7.26562C244.231 7.73438 244.975 8.42188 245.486 9.32812C246.007 10.224 246.267 11.3073 246.267 12.5781V23H242.814V12.7188ZM238.564 23.2344C236.699 23.2344 235.303 22.8229 234.376 22C233.449 21.1667 232.986 19.9062 232.986 18.2188C232.986 16.6146 233.454 15.4115 234.392 14.6094C235.329 13.8073 236.736 13.4062 238.611 13.4062H242.954L243.173 16.3125H238.626C237.887 16.3125 237.329 16.4688 236.954 16.7812C236.59 17.0938 236.408 17.5729 236.408 18.2188C236.408 18.8958 236.647 19.401 237.126 19.7344C237.606 20.0573 238.329 20.2188 239.298 20.2188C240.486 20.2188 241.366 20.0885 241.939 19.8281C242.522 19.5677 242.814 19.1615 242.814 18.6094L243.142 20.9219C242.965 21.4323 242.652 21.8594 242.204 22.2031C241.767 22.5469 241.236 22.8073 240.611 22.9844C239.986 23.151 239.303 23.2344 238.564 23.2344ZM250.798 6.78125H254.533V23H250.798V6.78125ZM260.408 13.1719C260.408 12.2031 260.147 11.4531 259.626 10.9219C259.106 10.3906 258.366 10.125 257.408 10.125C256.491 10.125 255.783 10.375 255.283 10.875C254.783 11.3646 254.533 12.0625 254.533 12.9688L254.204 9.60938C254.694 8.60938 255.309 7.84896 256.048 7.32812C256.798 6.80729 257.678 6.54688 258.689 6.54688C260.418 6.54688 261.757 7.125 262.704 8.28125C263.663 9.42708 264.142 11.0521 264.142 13.1562V23H260.408V13.1719ZM275.376 23.2344C273.866 23.2344 272.574 22.9531 271.501 22.3906C270.428 21.8177 269.611 20.9896 269.048 19.9062C268.486 18.8125 268.204 17.4948 268.204 15.9531V13.75C268.204 12.2292 268.486 10.9323 269.048 9.85938C269.611 8.77604 270.428 7.95312 271.501 7.39062C272.574 6.82812 273.866 6.54688 275.376 6.54688C276.241 6.54688 277.053 6.65104 277.814 6.85938C278.585 7.05729 279.272 7.34896 279.876 7.73438C280.491 8.11979 281.001 8.58854 281.408 9.14062L278.876 11.5156C278.449 11.0677 277.949 10.724 277.376 10.4844C276.803 10.2448 276.204 10.125 275.579 10.125C274.423 10.125 273.527 10.4427 272.892 11.0781C272.257 11.7031 271.939 12.5938 271.939 13.75V15.9531C271.939 17.1406 272.251 18.0573 272.876 18.7031C273.512 19.3385 274.413 19.6562 275.579 19.6562C276.215 19.6562 276.819 19.526 277.392 19.2656C277.965 19.0052 278.46 18.6354 278.876 18.1562L281.408 20.6875C280.991 21.2292 280.475 21.6927 279.861 22.0781C279.257 22.4531 278.569 22.7396 277.798 22.9375C277.038 23.1354 276.231 23.2344 275.376 23.2344ZM291.408 23.2344C289.876 23.2344 288.569 22.9531 287.486 22.3906C286.402 21.8281 285.574 21.0052 285.001 19.9219C284.428 18.8281 284.142 17.5104 284.142 15.9688V14.1406C284.142 12.5365 284.413 11.1667 284.954 10.0312C285.507 8.89583 286.303 8.03125 287.345 7.4375C288.397 6.84375 289.658 6.54688 291.126 6.54688C292.512 6.54688 293.694 6.89583 294.673 7.59375C295.663 8.28125 296.413 9.28125 296.923 10.5938C297.444 11.9062 297.704 13.4896 297.704 15.3438V16.4062H286.689V13.6719H294.236L294.22 13.5C294.116 12.3646 293.798 11.4844 293.267 10.8594C292.736 10.2344 292.022 9.92188 291.126 9.92188C290.001 9.92188 289.132 10.276 288.517 10.9844C287.902 11.6823 287.595 12.6771 287.595 13.9688V16.0312C287.595 17.2604 287.928 18.2083 288.595 18.875C289.262 19.5312 290.199 19.8594 291.408 19.8594C292.022 19.8594 292.626 19.7448 293.22 19.5156C293.824 19.276 294.366 18.9479 294.845 18.5312L297.283 20.8125C296.46 21.5833 295.533 22.1823 294.501 22.6094C293.481 23.026 292.449 23.2344 291.408 23.2344ZM321.173 13.0781V16.6406H310.361V13.0781H321.173ZM341.595 23.2344C340.501 23.2344 339.449 23.1302 338.439 22.9219C337.439 22.7031 336.496 22.3854 335.611 21.9688C334.736 21.5521 333.934 21.0365 333.204 20.4219L335.189 17.4375C336.064 18.1771 337.043 18.7396 338.126 19.125C339.22 19.5 340.376 19.6875 341.595 19.6875C343.116 19.6875 344.293 19.4167 345.126 18.875C345.97 18.3333 346.392 17.5677 346.392 16.5781V16.5625C346.392 15.8646 346.204 15.3125 345.829 14.9062C345.454 14.4896 344.965 14.1875 344.361 14C343.757 13.8021 342.981 13.6198 342.033 13.4531C342.001 13.4427 341.97 13.4375 341.939 13.4375C341.908 13.4375 341.876 13.4323 341.845 13.4219L341.564 13.375C340.043 13.125 338.793 12.8281 337.814 12.4844C336.835 12.1406 336.001 11.526 335.314 10.6406C334.626 9.75521 334.283 8.5 334.283 6.875V6.85938C334.283 5.42188 334.606 4.19271 335.251 3.17188C335.897 2.15104 336.835 1.375 338.064 0.84375C339.293 0.3125 340.772 0.046875 342.501 0.046875C343.314 0.046875 344.126 0.140625 344.939 0.328125C345.762 0.505208 346.564 0.770833 347.345 1.125C348.137 1.46875 348.902 1.90104 349.642 2.42188L347.829 5.5C346.954 4.875 346.064 4.40104 345.158 4.07812C344.251 3.75521 343.366 3.59375 342.501 3.59375C341.064 3.59375 339.949 3.85938 339.158 4.39062C338.376 4.91146 337.986 5.65104 337.986 6.60938V6.625C337.986 7.34375 338.189 7.91146 338.595 8.32812C339.001 8.74479 339.507 9.05208 340.111 9.25C340.725 9.4375 341.579 9.64062 342.673 9.85938C342.715 9.86979 342.751 9.88021 342.783 9.89062C342.824 9.89062 342.866 9.89583 342.908 9.90625C342.96 9.91667 343.017 9.92708 343.079 9.9375C343.142 9.94792 343.199 9.95833 343.251 9.96875C344.658 10.25 345.829 10.5885 346.767 10.9844C347.715 11.3802 348.507 12.0156 349.142 12.8906C349.777 13.7656 350.095 14.9583 350.095 16.4688V16.5C350.095 17.9167 349.762 19.1302 349.095 20.1406C348.428 21.151 347.46 21.9219 346.189 22.4531C344.918 22.974 343.387 23.2344 341.595 23.2344ZM354.017 6.78125H357.751V29.5938H354.017V6.78125ZM361.673 23.2344C360.694 23.2344 359.845 22.9948 359.126 22.5156C358.408 22.026 357.876 21.3385 357.533 20.4531L357.751 16.9062C357.751 17.5208 357.861 18.0469 358.079 18.4844C358.298 18.9115 358.616 19.2396 359.033 19.4688C359.449 19.6979 359.954 19.8125 360.548 19.8125C361.475 19.8125 362.194 19.5208 362.704 18.9375C363.215 18.3542 363.47 17.526 363.47 16.4531V13.4062C363.47 12.3125 363.215 11.4688 362.704 10.875C362.194 10.2708 361.475 9.96875 360.548 9.96875C359.954 9.96875 359.449 10.0833 359.033 10.3125C358.616 10.5312 358.298 10.8594 358.079 11.2969C357.861 11.7344 357.751 12.2604 357.751 12.875L357.423 9.51562C357.882 8.56771 358.486 7.83854 359.236 7.32812C359.996 6.80729 360.835 6.54688 361.751 6.54688C362.897 6.54688 363.876 6.8125 364.689 7.34375C365.512 7.875 366.137 8.65625 366.564 9.6875C366.991 10.7083 367.204 11.9427 367.204 13.3906V16.4531C367.204 17.8802 366.986 19.1042 366.548 20.125C366.121 21.1354 365.491 21.9062 364.658 22.4375C363.824 22.9688 362.829 23.2344 361.673 23.2344ZM371.423 6.78125H375.314V23H371.423V6.78125ZM380.454 10.9531C380.204 10.6823 379.897 10.4792 379.533 10.3438C379.168 10.1979 378.746 10.125 378.267 10.125C377.329 10.125 376.6 10.4062 376.079 10.9688C375.569 11.5208 375.314 12.2917 375.314 13.2812L374.986 9.60938C375.454 8.64062 376.064 7.89062 376.814 7.35938C377.574 6.81771 378.408 6.54688 379.314 6.54688C380.022 6.54688 380.663 6.65625 381.236 6.875C381.809 7.08333 382.309 7.39583 382.736 7.8125L380.454 10.9531ZM384.97 0.28125H388.689V4.01562H384.97V0.28125ZM384.97 6.78125H388.689V23H384.97V6.78125ZM393.111 6.78125H396.845V23H393.111V6.78125ZM402.72 13.1719C402.72 12.2031 402.46 11.4531 401.939 10.9219C401.418 10.3906 400.678 10.125 399.72 10.125C398.803 10.125 398.095 10.375 397.595 10.875C397.095 11.3646 396.845 12.0625 396.845 12.9688L396.517 9.60938C397.007 8.60938 397.621 7.84896 398.361 7.32812C399.111 6.80729 399.991 6.54688 401.001 6.54688C402.731 6.54688 404.069 7.125 405.017 8.28125C405.975 9.42708 406.454 11.0521 406.454 13.1562V23H402.72V13.1719ZM416.579 29.5938C415.329 29.5938 414.21 29.3646 413.22 28.9062C412.231 28.4583 411.46 27.8229 410.908 27L413.423 24.7031C413.809 25.1927 414.272 25.5677 414.814 25.8281C415.366 26.0885 415.939 26.2188 416.533 26.2188C417.595 26.2188 418.434 25.9271 419.048 25.3438C419.663 24.7708 419.97 23.9583 419.97 22.9062V6.78125H423.704V22.5156C423.704 24.0052 423.423 25.2812 422.861 26.3438C422.309 27.4062 421.496 28.2135 420.423 28.7656C419.361 29.3177 418.079 29.5938 416.579 29.5938ZM416.048 23.2656C414.882 23.2656 413.882 23 413.048 22.4688C412.225 21.9271 411.595 21.151 411.158 20.1406C410.731 19.1198 410.517 17.8906 410.517 16.4531V13.3594C410.517 11.9219 410.731 10.6927 411.158 9.67188C411.585 8.64062 412.204 7.85938 413.017 7.32812C413.84 6.78646 414.824 6.51562 415.97 6.51562C416.887 6.51562 417.72 6.77083 418.47 7.28125C419.231 7.79167 419.84 8.51042 420.298 9.4375L419.97 12.8906C419.97 12.2656 419.861 11.7344 419.642 11.2969C419.423 10.8594 419.106 10.526 418.689 10.2969C418.272 10.0677 417.767 9.95312 417.173 9.95312C416.246 9.95312 415.527 10.2552 415.017 10.8594C414.507 11.4635 414.251 12.3073 414.251 13.3906V16.4531C414.251 17.526 414.507 18.3594 415.017 18.9531C415.527 19.5365 416.246 19.8281 417.173 19.8281C417.767 19.8281 418.272 19.7135 418.689 19.4844C419.106 19.2448 419.423 18.9062 419.642 18.4688C419.861 18.0312 419.97 17.5052 419.97 16.8906L420.189 20.4531C419.866 21.2969 419.345 21.9792 418.626 22.5C417.918 23.0104 417.059 23.2656 416.048 23.2656ZM440.329 2.14062H444.048V23H440.329V2.14062ZM434.017 0.28125H450.361V3.85938H434.017V0.28125ZM452.236 0.28125H455.97V23H452.236V0.28125ZM461.845 13.1719C461.845 12.2031 461.585 11.4531 461.064 10.9219C460.543 10.3906 459.803 10.125 458.845 10.125C457.928 10.125 457.22 10.3698 456.72 10.8594C456.22 11.349 455.97 12.0417 455.97 12.9375L455.642 9.57812C456.132 8.59896 456.746 7.84896 457.486 7.32812C458.236 6.80729 459.116 6.54688 460.126 6.54688C461.856 6.54688 463.194 7.125 464.142 8.28125C465.1 9.42708 465.579 11.0521 465.579 13.1562V23H461.845V13.1719ZM482.595 6.78125L475.533 26.7969C475.272 27.5365 474.939 28.1198 474.533 28.5469C474.137 28.9844 473.642 29.2969 473.048 29.4844C472.454 29.6719 471.725 29.7656 470.861 29.7656H470.064V26.1562H470.861C471.392 26.1562 471.819 26.0469 472.142 25.8281C472.475 25.6094 472.746 25.2396 472.954 24.7188L478.954 6.78125H482.595ZM467.923 6.78125H471.564L476.783 20.875L474.548 24.3281L467.923 6.78125ZM504.251 13.4062C504.251 12.3542 503.991 11.5469 503.47 10.9844C502.949 10.4115 502.21 10.125 501.251 10.125C500.345 10.125 499.642 10.401 499.142 10.9531C498.652 11.4948 498.408 12.2708 498.408 13.2812L497.689 9.84375C498.199 8.79167 498.866 7.97917 499.689 7.40625C500.522 6.83333 501.444 6.54688 502.454 6.54688C503.621 6.54688 504.616 6.8125 505.439 7.34375C506.272 7.875 506.902 8.65625 507.329 9.6875C507.767 10.7083 507.986 11.9427 507.986 13.3906V23H504.251V13.4062ZM485.111 6.78125H488.845V23H485.111V6.78125ZM494.689 13.4062C494.689 12.3542 494.428 11.5469 493.908 10.9844C493.397 10.4115 492.668 10.125 491.72 10.125C490.803 10.125 490.095 10.375 489.595 10.875C489.095 11.3646 488.845 12.0625 488.845 12.9688L488.517 9.60938C489.007 8.61979 489.632 7.86458 490.392 7.34375C491.152 6.8125 492.022 6.54688 493.001 6.54688C494.137 6.54688 495.111 6.8125 495.923 7.34375C496.736 7.875 497.35 8.65625 497.767 9.6875C498.194 10.7083 498.408 11.9427 498.408 13.3906V23H494.689V13.4062ZM519.314 23.2344C517.783 23.2344 516.475 22.9531 515.392 22.3906C514.309 21.8281 513.481 21.0052 512.908 19.9219C512.335 18.8281 512.048 17.5104 512.048 15.9688V14.1406C512.048 12.5365 512.319 11.1667 512.861 10.0312C513.413 8.89583 514.21 8.03125 515.251 7.4375C516.303 6.84375 517.564 6.54688 519.033 6.54688C520.418 6.54688 521.6 6.89583 522.579 7.59375C523.569 8.28125 524.319 9.28125 524.829 10.5938C525.35 11.9062 525.611 13.4896 525.611 15.3438V16.4062H514.595V13.6719H522.142L522.126 13.5C522.022 12.3646 521.704 11.4844 521.173 10.8594C520.642 10.2344 519.928 9.92188 519.033 9.92188C517.908 9.92188 517.038 10.276 516.423 10.9844C515.809 11.6823 515.501 12.6771 515.501 13.9688V16.0312C515.501 17.2604 515.835 18.2083 516.501 18.875C517.168 19.5312 518.106 19.8594 519.314 19.8594C519.928 19.8594 520.533 19.7448 521.126 19.5156C521.731 19.276 522.272 18.9479 522.751 18.5312L525.189 20.8125C524.366 21.5833 523.439 22.1823 522.408 22.6094C521.387 23.026 520.356 23.2344 519.314 23.2344ZM533.408 18.2344C533.408 18.6302 533.507 18.9375 533.704 19.1562C533.902 19.3646 534.184 19.4688 534.548 19.4688H535.658V23.0469H533.626C532.376 23.0469 531.402 22.6719 530.704 21.9219C530.017 21.1719 529.673 20.1146 529.673 18.75V0.28125H533.408V18.2344ZM545.751 23.2344C544.22 23.2344 542.913 22.9531 541.829 22.3906C540.746 21.8281 539.918 21.0052 539.345 19.9219C538.772 18.8281 538.486 17.5104 538.486 15.9688V14.1406C538.486 12.5365 538.757 11.1667 539.298 10.0312C539.85 8.89583 540.647 8.03125 541.689 7.4375C542.741 6.84375 544.001 6.54688 545.47 6.54688C546.856 6.54688 548.038 6.89583 549.017 7.59375C550.007 8.28125 550.757 9.28125 551.267 10.5938C551.788 11.9062 552.048 13.4896 552.048 15.3438V16.4062H541.033V13.6719H548.579L548.564 13.5C548.46 12.3646 548.142 11.4844 547.611 10.8594C547.079 10.2344 546.366 9.92188 545.47 9.92188C544.345 9.92188 543.475 10.276 542.861 10.9844C542.246 11.6823 541.939 12.6771 541.939 13.9688V16.0312C541.939 17.2604 542.272 18.2083 542.939 18.875C543.606 19.5312 544.543 19.8594 545.751 19.8594C546.366 19.8594 546.97 19.7448 547.564 19.5156C548.168 19.276 548.71 18.9479 549.189 18.5312L551.626 20.8125C550.803 21.5833 549.876 22.1823 548.845 22.6094C547.824 23.026 546.793 23.2344 545.751 23.2344ZM565.158 12.7188C565.158 11.8125 564.887 11.1094 564.345 10.6094C563.814 10.1094 563.059 9.85938 562.079 9.85938C561.454 9.85938 560.84 9.95833 560.236 10.1562C559.632 10.3542 559.09 10.6302 558.611 10.9844L556.126 8.89062C556.762 8.15104 557.595 7.57812 558.626 7.17188C559.658 6.75521 560.803 6.54688 562.064 6.54688C563.439 6.54688 564.616 6.78646 565.595 7.26562C566.574 7.73438 567.319 8.42188 567.829 9.32812C568.35 10.224 568.611 11.3073 568.611 12.5781V23H565.158V12.7188ZM560.908 23.2344C559.043 23.2344 557.647 22.8229 556.72 22C555.793 21.1667 555.329 19.9062 555.329 18.2188C555.329 16.6146 555.798 15.4115 556.736 14.6094C557.673 13.8073 559.079 13.4062 560.954 13.4062H565.298L565.517 16.3125H560.97C560.231 16.3125 559.673 16.4688 559.298 16.7812C558.934 17.0938 558.751 17.5729 558.751 18.2188C558.751 18.8958 558.991 19.401 559.47 19.7344C559.949 20.0573 560.673 20.2188 561.642 20.2188C562.829 20.2188 563.71 20.0885 564.283 19.8281C564.866 19.5677 565.158 19.1615 565.158 18.6094L565.486 20.9219C565.309 21.4323 564.996 21.8594 564.548 22.2031C564.111 22.5469 563.579 22.8073 562.954 22.9844C562.329 23.151 561.647 23.2344 560.908 23.2344ZM573.611 4.57812C573.611 3.14062 573.939 2.06771 574.595 1.35938C575.262 0.640625 576.283 0.28125 577.658 0.28125H580.314V3.70312H578.267C577.965 3.70312 577.736 3.81771 577.579 4.04688C577.423 4.27604 577.345 4.57292 577.345 4.9375V23H573.611V4.57812ZM571.892 6.78125H580.314V9.96875H571.892V6.78125Z" fill="#171717"/>
</svg>
