<svg width="546" height="30" viewBox="0 0 546 30" fill="none" xmlns="http://www.w3.org/2000/svg">
<path d="M7.26697 2.14062H10.9857V23H7.26697V2.14062ZM0.954468 0.28125H17.2982V3.85938H0.954468V0.28125ZM24.2513 23.2344C22.7201 23.2344 21.4128 22.9531 20.3295 22.3906C19.2461 21.8281 18.418 21.0052 17.8451 19.9219C17.2722 18.8281 16.9857 17.5104 16.9857 15.9688V14.1406C16.9857 12.5365 17.2566 11.1667 17.7982 10.0312C18.3503 8.89583 19.1472 8.03125 20.1888 7.4375C21.2409 6.84375 22.5013 6.54688 23.9701 6.54688C25.3555 6.54688 26.5378 6.89583 27.517 7.59375C28.5066 8.28125 29.2566 9.28125 29.767 10.5938C30.2878 11.9062 30.5482 13.4896 30.5482 15.3438V16.4062H19.5326V13.6719H27.0795L27.0638 13.5C26.9597 12.3646 26.642 11.4844 26.1107 10.8594C25.5795 10.2344 24.8659 9.92188 23.9701 9.92188C22.8451 9.92188 21.9753 10.276 21.3607 10.9844C20.7461 11.6823 20.4388 12.6771 20.4388 13.9688V16.0312C20.4388 17.2604 20.7722 18.2083 21.4388 18.875C22.1055 19.5312 23.043 19.8594 24.2513 19.8594C24.8659 19.8594 25.4701 19.7448 26.0638 19.5156C26.668 19.276 27.2097 18.9479 27.6888 18.5312L30.1263 20.8125C29.3034 21.5833 28.3763 22.1823 27.3451 22.6094C26.3243 23.026 25.293 23.2344 24.2513 23.2344ZM41.3138 23.2344C39.8034 23.2344 38.5118 22.9531 37.4388 22.3906C36.3659 21.8177 35.5482 20.9896 34.9857 19.9062C34.4232 18.8125 34.142 17.4948 34.142 15.9531V13.75C34.142 12.2292 34.4232 10.9323 34.9857 9.85938C35.5482 8.77604 36.3659 7.95312 37.4388 7.39062C38.5118 6.82812 39.8034 6.54688 41.3138 6.54688C42.1784 6.54688 42.9909 6.65104 43.7513 6.85938C44.5222 7.05729 45.2097 7.34896 45.8138 7.73438C46.4284 8.11979 46.9388 8.58854 47.3451 9.14062L44.8138 11.5156C44.3868 11.0677 43.8868 10.724 43.3138 10.4844C42.7409 10.2448 42.142 10.125 41.517 10.125C40.3607 10.125 39.4649 10.4427 38.8295 11.0781C38.1941 11.7031 37.8763 12.5938 37.8763 13.75V15.9531C37.8763 17.1406 38.1888 18.0573 38.8138 18.7031C39.4493 19.3385 40.3503 19.6562 41.517 19.6562C42.1524 19.6562 42.7566 19.526 43.3295 19.2656C43.9024 19.0052 44.3972 18.6354 44.8138 18.1562L47.3451 20.6875C46.9284 21.2292 46.4128 21.6927 45.7982 22.0781C45.1941 22.4531 44.5066 22.7396 43.7357 22.9375C42.9753 23.1354 42.168 23.2344 41.3138 23.2344ZM50.5482 0.28125H54.2826V23H50.5482V0.28125ZM60.1576 13.1719C60.1576 12.2031 59.8972 11.4531 59.3763 10.9219C58.8555 10.3906 58.1159 10.125 57.1576 10.125C56.2409 10.125 55.5326 10.3698 55.0326 10.8594C54.5326 11.349 54.2826 12.0417 54.2826 12.9375L53.9545 9.57812C54.4441 8.59896 55.0586 7.84896 55.7982 7.32812C56.5482 6.80729 57.4284 6.54688 58.4388 6.54688C60.168 6.54688 61.5066 7.125 62.4545 8.28125C63.4128 9.42708 63.892 11.0521 63.892 13.1562V23H60.1576V13.1719ZM68.4232 6.78125H72.1576V23H68.4232V6.78125ZM78.0326 13.1719C78.0326 12.2031 77.7722 11.4531 77.2513 10.9219C76.7305 10.3906 75.9909 10.125 75.0326 10.125C74.1159 10.125 73.4076 10.375 72.9076 10.875C72.4076 11.3646 72.1576 12.0625 72.1576 12.9688L71.8295 9.60938C72.3191 8.60938 72.9336 7.84896 73.6732 7.32812C74.4232 6.80729 75.3034 6.54688 76.3138 6.54688C78.043 6.54688 79.3816 7.125 80.3295 8.28125C81.2878 9.42708 81.767 11.0521 81.767 13.1562V23H78.0326V13.1719ZM86.1888 0.28125H89.9076V4.01562H86.1888V0.28125ZM86.1888 6.78125H89.9076V23H86.1888V6.78125ZM101.033 23.2344C99.5222 23.2344 98.2305 22.9531 97.1576 22.3906C96.0847 21.8177 95.267 20.9896 94.7045 19.9062C94.142 18.8125 93.8607 17.4948 93.8607 15.9531V13.75C93.8607 12.2292 94.142 10.9323 94.7045 9.85938C95.267 8.77604 96.0847 7.95312 97.1576 7.39062C98.2305 6.82812 99.5222 6.54688 101.033 6.54688C101.897 6.54688 102.71 6.65104 103.47 6.85938C104.241 7.05729 104.928 7.34896 105.533 7.73438C106.147 8.11979 106.658 8.58854 107.064 9.14062L104.533 11.5156C104.106 11.0677 103.606 10.724 103.033 10.4844C102.46 10.2448 101.861 10.125 101.236 10.125C100.079 10.125 99.1836 10.4427 98.5482 11.0781C97.9128 11.7031 97.5951 12.5938 97.5951 13.75V15.9531C97.5951 17.1406 97.9076 18.0573 98.5326 18.7031C99.168 19.3385 100.069 19.6562 101.236 19.6562C101.871 19.6562 102.475 19.526 103.048 19.2656C103.621 19.0052 104.116 18.6354 104.533 18.1562L107.064 20.6875C106.647 21.2292 106.132 21.6927 105.517 22.0781C104.913 22.4531 104.225 22.7396 103.454 22.9375C102.694 23.1354 101.887 23.2344 101.033 23.2344ZM119.314 12.7188C119.314 11.8125 119.043 11.1094 118.501 10.6094C117.97 10.1094 117.215 9.85938 116.236 9.85938C115.611 9.85938 114.996 9.95833 114.392 10.1562C113.788 10.3542 113.246 10.6302 112.767 10.9844L110.283 8.89062C110.918 8.15104 111.751 7.57812 112.783 7.17188C113.814 6.75521 114.96 6.54688 116.22 6.54688C117.595 6.54688 118.772 6.78646 119.751 7.26562C120.731 7.73438 121.475 8.42188 121.986 9.32812C122.507 10.224 122.767 11.3073 122.767 12.5781V23H119.314V12.7188ZM115.064 23.2344C113.199 23.2344 111.803 22.8229 110.876 22C109.949 21.1667 109.486 19.9062 109.486 18.2188C109.486 16.6146 109.954 15.4115 110.892 14.6094C111.829 13.8073 113.236 13.4062 115.111 13.4062H119.454L119.673 16.3125H115.126C114.387 16.3125 113.829 16.4688 113.454 16.7812C113.09 17.0938 112.908 17.5729 112.908 18.2188C112.908 18.8958 113.147 19.401 113.626 19.7344C114.106 20.0573 114.829 20.2188 115.798 20.2188C116.986 20.2188 117.866 20.0885 118.439 19.8281C119.022 19.5677 119.314 19.1615 119.314 18.6094L119.642 20.9219C119.465 21.4323 119.152 21.8594 118.704 22.2031C118.267 22.5469 117.736 22.8073 117.111 22.9844C116.486 23.151 115.803 23.2344 115.064 23.2344ZM131.033 18.2344C131.033 18.6302 131.132 18.9375 131.329 19.1562C131.527 19.3646 131.809 19.4688 132.173 19.4688H133.283V23.0469H131.251C130.001 23.0469 129.027 22.6719 128.329 21.9219C127.642 21.1719 127.298 20.1146 127.298 18.75V0.28125H131.033V18.2344ZM151.829 0.28125H154.548L163.079 23H159.064L153.189 6.07812L147.314 23H143.298L151.829 0.28125ZM147.314 15.1094H159.267V18.6875H147.314V15.1094ZM171.861 23.2344C170.892 23.2344 169.97 23.1458 169.095 22.9688C168.22 22.7812 167.397 22.5104 166.626 22.1562C165.866 21.8021 165.178 21.3698 164.564 20.8594L166.829 18.0469C167.652 18.6302 168.491 19.0729 169.345 19.375C170.21 19.6771 171.048 19.8281 171.861 19.8281C172.996 19.8281 173.856 19.6771 174.439 19.375C175.033 19.0625 175.329 18.6146 175.329 18.0312C175.329 17.5833 175.184 17.25 174.892 17.0312C174.6 16.8021 174.231 16.6458 173.783 16.5625C173.345 16.4792 172.725 16.401 171.923 16.3281C171.788 16.3177 171.647 16.3073 171.501 16.2969C171.356 16.2865 171.215 16.2708 171.079 16.25C171.038 16.25 170.996 16.25 170.954 16.25C170.913 16.2396 170.871 16.2344 170.829 16.2344C169.694 16.1094 168.762 15.9375 168.033 15.7188C167.303 15.4896 166.689 15.0573 166.189 14.4219C165.699 13.7865 165.454 12.875 165.454 11.6875C165.454 10.5729 165.699 9.63542 166.189 8.875C166.689 8.10417 167.418 7.52604 168.376 7.14062C169.335 6.74479 170.512 6.54688 171.908 6.54688C172.741 6.54688 173.553 6.63021 174.345 6.79688C175.137 6.95312 175.892 7.1875 176.611 7.5C177.34 7.80208 178.027 8.18229 178.673 8.64062L176.439 11.3594C175.678 10.901 174.908 10.5521 174.126 10.3125C173.356 10.0729 172.606 9.95312 171.876 9.95312C170.897 9.95312 170.152 10.0938 169.642 10.375C169.132 10.6562 168.876 11.0729 168.876 11.625C168.876 11.9792 169.017 12.25 169.298 12.4375C169.579 12.625 169.928 12.7552 170.345 12.8281C170.772 12.8906 171.387 12.9583 172.189 13.0312C172.272 13.0417 172.35 13.0521 172.423 13.0625C172.507 13.0625 172.59 13.0677 172.673 13.0781C172.704 13.0781 172.741 13.0781 172.783 13.0781C172.824 13.0781 172.866 13.0833 172.908 13.0938C174.106 13.2083 175.1 13.3802 175.892 13.6094C176.684 13.8385 177.356 14.2969 177.908 14.9844C178.46 15.6615 178.736 16.651 178.736 17.9531C178.736 19.099 178.475 20.0677 177.954 20.8594C177.434 21.6406 176.658 22.2344 175.626 22.6406C174.606 23.0365 173.35 23.2344 171.861 23.2344ZM188.454 23.2344C187.486 23.2344 186.564 23.1458 185.689 22.9688C184.814 22.7812 183.991 22.5104 183.22 22.1562C182.46 21.8021 181.772 21.3698 181.158 20.8594L183.423 18.0469C184.246 18.6302 185.085 19.0729 185.939 19.375C186.803 19.6771 187.642 19.8281 188.454 19.8281C189.59 19.8281 190.449 19.6771 191.033 19.375C191.626 19.0625 191.923 18.6146 191.923 18.0312C191.923 17.5833 191.777 17.25 191.486 17.0312C191.194 16.8021 190.824 16.6458 190.376 16.5625C189.939 16.4792 189.319 16.401 188.517 16.3281C188.382 16.3177 188.241 16.3073 188.095 16.2969C187.949 16.2865 187.809 16.2708 187.673 16.25C187.632 16.25 187.59 16.25 187.548 16.25C187.507 16.2396 187.465 16.2344 187.423 16.2344C186.288 16.1094 185.356 15.9375 184.626 15.7188C183.897 15.4896 183.283 15.0573 182.783 14.4219C182.293 13.7865 182.048 12.875 182.048 11.6875C182.048 10.5729 182.293 9.63542 182.783 8.875C183.283 8.10417 184.012 7.52604 184.97 7.14062C185.928 6.74479 187.106 6.54688 188.501 6.54688C189.335 6.54688 190.147 6.63021 190.939 6.79688C191.731 6.95312 192.486 7.1875 193.204 7.5C193.934 7.80208 194.621 8.18229 195.267 8.64062L193.033 11.3594C192.272 10.901 191.501 10.5521 190.72 10.3125C189.949 10.0729 189.199 9.95312 188.47 9.95312C187.491 9.95312 186.746 10.0938 186.236 10.375C185.725 10.6562 185.47 11.0729 185.47 11.625C185.47 11.9792 185.611 12.25 185.892 12.4375C186.173 12.625 186.522 12.7552 186.939 12.8281C187.366 12.8906 187.981 12.9583 188.783 13.0312C188.866 13.0417 188.944 13.0521 189.017 13.0625C189.1 13.0625 189.184 13.0677 189.267 13.0781C189.298 13.0781 189.335 13.0781 189.376 13.0781C189.418 13.0781 189.46 13.0833 189.501 13.0938C190.699 13.2083 191.694 13.3802 192.486 13.6094C193.277 13.8385 193.949 14.2969 194.501 14.9844C195.053 15.6615 195.329 16.651 195.329 17.9531C195.329 19.099 195.069 20.0677 194.548 20.8594C194.027 21.6406 193.251 22.2344 192.22 22.6406C191.199 23.0365 189.944 23.2344 188.454 23.2344ZM198.97 0.28125H202.689V4.01562H198.97V0.28125ZM198.97 6.78125H202.689V23H198.97V6.78125ZM213.079 23.2344C212.111 23.2344 211.189 23.1458 210.314 22.9688C209.439 22.7812 208.616 22.5104 207.845 22.1562C207.085 21.8021 206.397 21.3698 205.783 20.8594L208.048 18.0469C208.871 18.6302 209.71 19.0729 210.564 19.375C211.428 19.6771 212.267 19.8281 213.079 19.8281C214.215 19.8281 215.074 19.6771 215.658 19.375C216.251 19.0625 216.548 18.6146 216.548 18.0312C216.548 17.5833 216.402 17.25 216.111 17.0312C215.819 16.8021 215.449 16.6458 215.001 16.5625C214.564 16.4792 213.944 16.401 213.142 16.3281C213.007 16.3177 212.866 16.3073 212.72 16.2969C212.574 16.2865 212.434 16.2708 212.298 16.25C212.257 16.25 212.215 16.25 212.173 16.25C212.132 16.2396 212.09 16.2344 212.048 16.2344C210.913 16.1094 209.981 15.9375 209.251 15.7188C208.522 15.4896 207.908 15.0573 207.408 14.4219C206.918 13.7865 206.673 12.875 206.673 11.6875C206.673 10.5729 206.918 9.63542 207.408 8.875C207.908 8.10417 208.637 7.52604 209.595 7.14062C210.553 6.74479 211.731 6.54688 213.126 6.54688C213.96 6.54688 214.772 6.63021 215.564 6.79688C216.356 6.95312 217.111 7.1875 217.829 7.5C218.559 7.80208 219.246 8.18229 219.892 8.64062L217.658 11.3594C216.897 10.901 216.126 10.5521 215.345 10.3125C214.574 10.0729 213.824 9.95312 213.095 9.95312C212.116 9.95312 211.371 10.0938 210.861 10.375C210.35 10.6562 210.095 11.0729 210.095 11.625C210.095 11.9792 210.236 12.25 210.517 12.4375C210.798 12.625 211.147 12.7552 211.564 12.8281C211.991 12.8906 212.606 12.9583 213.408 13.0312C213.491 13.0417 213.569 13.0521 213.642 13.0625C213.725 13.0625 213.809 13.0677 213.892 13.0781C213.923 13.0781 213.96 13.0781 214.001 13.0781C214.043 13.0781 214.085 13.0833 214.126 13.0938C215.324 13.2083 216.319 13.3802 217.111 13.6094C217.902 13.8385 218.574 14.2969 219.126 14.9844C219.678 15.6615 219.954 16.651 219.954 17.9531C219.954 19.099 219.694 20.0677 219.173 20.8594C218.652 21.6406 217.876 22.2344 216.845 22.6406C215.824 23.0365 214.569 23.2344 213.079 23.2344ZM228.079 23.0781C226.715 23.0781 225.715 22.7188 225.079 22C224.444 21.2708 224.126 20.1979 224.126 18.7812V2.0625H227.861V18.2656C227.861 18.6615 227.939 18.9688 228.095 19.1875C228.251 19.3958 228.481 19.5 228.783 19.5H230.079V23.0781H228.079ZM222.454 6.78125H230.079V10.0469H222.454V6.78125ZM243.189 12.7188C243.189 11.8125 242.918 11.1094 242.376 10.6094C241.845 10.1094 241.09 9.85938 240.111 9.85938C239.486 9.85938 238.871 9.95833 238.267 10.1562C237.663 10.3542 237.121 10.6302 236.642 10.9844L234.158 8.89062C234.793 8.15104 235.626 7.57812 236.658 7.17188C237.689 6.75521 238.835 6.54688 240.095 6.54688C241.47 6.54688 242.647 6.78646 243.626 7.26562C244.606 7.73438 245.35 8.42188 245.861 9.32812C246.382 10.224 246.642 11.3073 246.642 12.5781V23H243.189V12.7188ZM238.939 23.2344C237.074 23.2344 235.678 22.8229 234.751 22C233.824 21.1667 233.361 19.9062 233.361 18.2188C233.361 16.6146 233.829 15.4115 234.767 14.6094C235.704 13.8073 237.111 13.4062 238.986 13.4062H243.329L243.548 16.3125H239.001C238.262 16.3125 237.704 16.4688 237.329 16.7812C236.965 17.0938 236.783 17.5729 236.783 18.2188C236.783 18.8958 237.022 19.401 237.501 19.7344C237.981 20.0573 238.704 20.2188 239.673 20.2188C240.861 20.2188 241.741 20.0885 242.314 19.8281C242.897 19.5677 243.189 19.1615 243.189 18.6094L243.517 20.9219C243.34 21.4323 243.027 21.8594 242.579 22.2031C242.142 22.5469 241.611 22.8073 240.986 22.9844C240.361 23.151 239.678 23.2344 238.939 23.2344ZM251.173 6.78125H254.908V23H251.173V6.78125ZM260.783 13.1719C260.783 12.2031 260.522 11.4531 260.001 10.9219C259.481 10.3906 258.741 10.125 257.783 10.125C256.866 10.125 256.158 10.375 255.658 10.875C255.158 11.3646 254.908 12.0625 254.908 12.9688L254.579 9.60938C255.069 8.60938 255.684 7.84896 256.423 7.32812C257.173 6.80729 258.053 6.54688 259.064 6.54688C260.793 6.54688 262.132 7.125 263.079 8.28125C264.038 9.42708 264.517 11.0521 264.517 13.1562V23H260.783V13.1719ZM275.751 23.2344C274.241 23.2344 272.949 22.9531 271.876 22.3906C270.803 21.8177 269.986 20.9896 269.423 19.9062C268.861 18.8125 268.579 17.4948 268.579 15.9531V13.75C268.579 12.2292 268.861 10.9323 269.423 9.85938C269.986 8.77604 270.803 7.95312 271.876 7.39062C272.949 6.82812 274.241 6.54688 275.751 6.54688C276.616 6.54688 277.428 6.65104 278.189 6.85938C278.96 7.05729 279.647 7.34896 280.251 7.73438C280.866 8.11979 281.376 8.58854 281.783 9.14062L279.251 11.5156C278.824 11.0677 278.324 10.724 277.751 10.4844C277.178 10.2448 276.579 10.125 275.954 10.125C274.798 10.125 273.902 10.4427 273.267 11.0781C272.632 11.7031 272.314 12.5938 272.314 13.75V15.9531C272.314 17.1406 272.626 18.0573 273.251 18.7031C273.887 19.3385 274.788 19.6562 275.954 19.6562C276.59 19.6562 277.194 19.526 277.767 19.2656C278.34 19.0052 278.835 18.6354 279.251 18.1562L281.783 20.6875C281.366 21.2292 280.85 21.6927 280.236 22.0781C279.632 22.4531 278.944 22.7396 278.173 22.9375C277.413 23.1354 276.606 23.2344 275.751 23.2344ZM291.783 23.2344C290.251 23.2344 288.944 22.9531 287.861 22.3906C286.777 21.8281 285.949 21.0052 285.376 19.9219C284.803 18.8281 284.517 17.5104 284.517 15.9688V14.1406C284.517 12.5365 284.788 11.1667 285.329 10.0312C285.882 8.89583 286.678 8.03125 287.72 7.4375C288.772 6.84375 290.033 6.54688 291.501 6.54688C292.887 6.54688 294.069 6.89583 295.048 7.59375C296.038 8.28125 296.788 9.28125 297.298 10.5938C297.819 11.9062 298.079 13.4896 298.079 15.3438V16.4062H287.064V13.6719H294.611L294.595 13.5C294.491 12.3646 294.173 11.4844 293.642 10.8594C293.111 10.2344 292.397 9.92188 291.501 9.92188C290.376 9.92188 289.507 10.276 288.892 10.9844C288.277 11.6823 287.97 12.6771 287.97 13.9688V16.0312C287.97 17.2604 288.303 18.2083 288.97 18.875C289.637 19.5312 290.574 19.8594 291.783 19.8594C292.397 19.8594 293.001 19.7448 293.595 19.5156C294.199 19.276 294.741 18.9479 295.22 18.5312L297.658 20.8125C296.835 21.5833 295.908 22.1823 294.876 22.6094C293.856 23.026 292.824 23.2344 291.783 23.2344ZM321.548 13.0781V16.6406H310.736V13.0781H321.548ZM341.97 23.2344C340.876 23.2344 339.824 23.1302 338.814 22.9219C337.814 22.7031 336.871 22.3854 335.986 21.9688C335.111 21.5521 334.309 21.0365 333.579 20.4219L335.564 17.4375C336.439 18.1771 337.418 18.7396 338.501 19.125C339.595 19.5 340.751 19.6875 341.97 19.6875C343.491 19.6875 344.668 19.4167 345.501 18.875C346.345 18.3333 346.767 17.5677 346.767 16.5781V16.5625C346.767 15.8646 346.579 15.3125 346.204 14.9062C345.829 14.4896 345.34 14.1875 344.736 14C344.132 13.8021 343.356 13.6198 342.408 13.4531C342.376 13.4427 342.345 13.4375 342.314 13.4375C342.283 13.4375 342.251 13.4323 342.22 13.4219L341.939 13.375C340.418 13.125 339.168 12.8281 338.189 12.4844C337.21 12.1406 336.376 11.526 335.689 10.6406C335.001 9.75521 334.658 8.5 334.658 6.875V6.85938C334.658 5.42188 334.981 4.19271 335.626 3.17188C336.272 2.15104 337.21 1.375 338.439 0.84375C339.668 0.3125 341.147 0.046875 342.876 0.046875C343.689 0.046875 344.501 0.140625 345.314 0.328125C346.137 0.505208 346.939 0.770833 347.72 1.125C348.512 1.46875 349.277 1.90104 350.017 2.42188L348.204 5.5C347.329 4.875 346.439 4.40104 345.533 4.07812C344.626 3.75521 343.741 3.59375 342.876 3.59375C341.439 3.59375 340.324 3.85938 339.533 4.39062C338.751 4.91146 338.361 5.65104 338.361 6.60938V6.625C338.361 7.34375 338.564 7.91146 338.97 8.32812C339.376 8.74479 339.882 9.05208 340.486 9.25C341.1 9.4375 341.954 9.64062 343.048 9.85938C343.09 9.86979 343.126 9.88021 343.158 9.89062C343.199 9.89062 343.241 9.89583 343.283 9.90625C343.335 9.91667 343.392 9.92708 343.454 9.9375C343.517 9.94792 343.574 9.95833 343.626 9.96875C345.033 10.25 346.204 10.5885 347.142 10.9844C348.09 11.3802 348.882 12.0156 349.517 12.8906C350.152 13.7656 350.47 14.9583 350.47 16.4688V16.5C350.47 17.9167 350.137 19.1302 349.47 20.1406C348.803 21.151 347.835 21.9219 346.564 22.4531C345.293 22.974 343.762 23.2344 341.97 23.2344ZM354.392 6.78125H358.126V29.5938H354.392V6.78125ZM362.048 23.2344C361.069 23.2344 360.22 22.9948 359.501 22.5156C358.783 22.026 358.251 21.3385 357.908 20.4531L358.126 16.9062C358.126 17.5208 358.236 18.0469 358.454 18.4844C358.673 18.9115 358.991 19.2396 359.408 19.4688C359.824 19.6979 360.329 19.8125 360.923 19.8125C361.85 19.8125 362.569 19.5208 363.079 18.9375C363.59 18.3542 363.845 17.526 363.845 16.4531V13.4062C363.845 12.3125 363.59 11.4688 363.079 10.875C362.569 10.2708 361.85 9.96875 360.923 9.96875C360.329 9.96875 359.824 10.0833 359.408 10.3125C358.991 10.5312 358.673 10.8594 358.454 11.2969C358.236 11.7344 358.126 12.2604 358.126 12.875L357.798 9.51562C358.257 8.56771 358.861 7.83854 359.611 7.32812C360.371 6.80729 361.21 6.54688 362.126 6.54688C363.272 6.54688 364.251 6.8125 365.064 7.34375C365.887 7.875 366.512 8.65625 366.939 9.6875C367.366 10.7083 367.579 11.9427 367.579 13.3906V16.4531C367.579 17.8802 367.361 19.1042 366.923 20.125C366.496 21.1354 365.866 21.9062 365.033 22.4375C364.199 22.9688 363.204 23.2344 362.048 23.2344ZM371.798 6.78125H375.689V23H371.798V6.78125ZM380.829 10.9531C380.579 10.6823 380.272 10.4792 379.908 10.3438C379.543 10.1979 379.121 10.125 378.642 10.125C377.704 10.125 376.975 10.4062 376.454 10.9688C375.944 11.5208 375.689 12.2917 375.689 13.2812L375.361 9.60938C375.829 8.64062 376.439 7.89062 377.189 7.35938C377.949 6.81771 378.783 6.54688 379.689 6.54688C380.397 6.54688 381.038 6.65625 381.611 6.875C382.184 7.08333 382.684 7.39583 383.111 7.8125L380.829 10.9531ZM385.345 0.28125H389.064V4.01562H385.345V0.28125ZM385.345 6.78125H389.064V23H385.345V6.78125ZM393.486 6.78125H397.22V23H393.486V6.78125ZM403.095 13.1719C403.095 12.2031 402.835 11.4531 402.314 10.9219C401.793 10.3906 401.053 10.125 400.095 10.125C399.178 10.125 398.47 10.375 397.97 10.875C397.47 11.3646 397.22 12.0625 397.22 12.9688L396.892 9.60938C397.382 8.60938 397.996 7.84896 398.736 7.32812C399.486 6.80729 400.366 6.54688 401.376 6.54688C403.106 6.54688 404.444 7.125 405.392 8.28125C406.35 9.42708 406.829 11.0521 406.829 13.1562V23H403.095V13.1719ZM416.954 29.5938C415.704 29.5938 414.585 29.3646 413.595 28.9062C412.606 28.4583 411.835 27.8229 411.283 27L413.798 24.7031C414.184 25.1927 414.647 25.5677 415.189 25.8281C415.741 26.0885 416.314 26.2188 416.908 26.2188C417.97 26.2188 418.809 25.9271 419.423 25.3438C420.038 24.7708 420.345 23.9583 420.345 22.9062V6.78125H424.079V22.5156C424.079 24.0052 423.798 25.2812 423.236 26.3438C422.684 27.4062 421.871 28.2135 420.798 28.7656C419.736 29.3177 418.454 29.5938 416.954 29.5938ZM416.423 23.2656C415.257 23.2656 414.257 23 413.423 22.4688C412.6 21.9271 411.97 21.151 411.533 20.1406C411.106 19.1198 410.892 17.8906 410.892 16.4531V13.3594C410.892 11.9219 411.106 10.6927 411.533 9.67188C411.96 8.64062 412.579 7.85938 413.392 7.32812C414.215 6.78646 415.199 6.51562 416.345 6.51562C417.262 6.51562 418.095 6.77083 418.845 7.28125C419.606 7.79167 420.215 8.51042 420.673 9.4375L420.345 12.8906C420.345 12.2656 420.236 11.7344 420.017 11.2969C419.798 10.8594 419.481 10.526 419.064 10.2969C418.647 10.0677 418.142 9.95312 417.548 9.95312C416.621 9.95312 415.902 10.2552 415.392 10.8594C414.882 11.4635 414.626 12.3073 414.626 13.3906V16.4531C414.626 17.526 414.882 18.3594 415.392 18.9531C415.902 19.5365 416.621 19.8281 417.548 19.8281C418.142 19.8281 418.647 19.7135 419.064 19.4844C419.481 19.2448 419.798 18.9062 420.017 18.4688C420.236 18.0312 420.345 17.5052 420.345 16.8906L420.564 20.4531C420.241 21.2969 419.72 21.9792 419.001 22.5C418.293 23.0104 417.434 23.2656 416.423 23.2656ZM435.173 0.28125H439.111L444.251 16.7656L449.392 0.28125H453.329L445.845 23H442.658L435.173 0.28125ZM464.751 6.78125H468.47V23H464.751V6.78125ZM458.939 16.6406C458.939 17.599 459.194 18.3438 459.704 18.875C460.215 19.3958 460.934 19.6562 461.861 19.6562C462.788 19.6562 463.501 19.4115 464.001 18.9219C464.501 18.4219 464.751 17.7083 464.751 16.7812L464.97 20.25C464.658 21.0938 464.137 21.8021 463.408 22.375C462.678 22.9479 461.788 23.2344 460.736 23.2344C458.975 23.2344 457.611 22.6667 456.642 21.5312C455.684 20.3958 455.204 18.7917 455.204 16.7188V6.78125H458.939V16.6406ZM479.814 23.2344C478.283 23.2344 476.975 22.9531 475.892 22.3906C474.809 21.8281 473.981 21.0052 473.408 19.9219C472.835 18.8281 472.548 17.5104 472.548 15.9688V14.1406C472.548 12.5365 472.819 11.1667 473.361 10.0312C473.913 8.89583 474.71 8.03125 475.751 7.4375C476.803 6.84375 478.064 6.54688 479.533 6.54688C480.918 6.54688 482.1 6.89583 483.079 7.59375C484.069 8.28125 484.819 9.28125 485.329 10.5938C485.85 11.9062 486.111 13.4896 486.111 15.3438V16.4062H475.095V13.6719H482.642L482.626 13.5C482.522 12.3646 482.204 11.4844 481.673 10.8594C481.142 10.2344 480.428 9.92188 479.533 9.92188C478.408 9.92188 477.538 10.276 476.923 10.9844C476.309 11.6823 476.001 12.6771 476.001 13.9688V16.0312C476.001 17.2604 476.335 18.2083 477.001 18.875C477.668 19.5312 478.606 19.8594 479.814 19.8594C480.428 19.8594 481.033 19.7448 481.626 19.5156C482.231 19.276 482.772 18.9479 483.251 18.5312L485.689 20.8125C484.866 21.5833 483.939 22.1823 482.908 22.6094C481.887 23.026 480.856 23.2344 479.814 23.2344ZM505.423 0.28125H508.142L516.673 23H512.658L506.783 6.07812L500.908 23H496.892L505.423 0.28125ZM500.908 15.1094H512.861V18.6875H500.908V15.1094ZM521.595 10.6094H528.861C529.465 10.6094 529.991 10.474 530.439 10.2031C530.897 9.92188 531.251 9.52604 531.501 9.01562C531.762 8.50521 531.892 7.91667 531.892 7.25C531.892 6.57292 531.767 5.97917 531.517 5.46875C531.267 4.95833 530.913 4.5625 530.454 4.28125C529.996 4 529.465 3.85938 528.861 3.85938H521.595V0.28125H528.751C530.137 0.28125 531.356 0.572917 532.408 1.15625C533.46 1.72917 534.277 2.54167 534.861 3.59375C535.444 4.64583 535.736 5.86458 535.736 7.25C535.736 8.63542 535.444 9.85417 534.861 10.9062C534.277 11.9479 533.46 12.7552 532.408 13.3281C531.356 13.901 530.137 14.1875 528.751 14.1875H521.595V10.6094ZM519.798 0.28125H523.533V23H519.798V0.28125ZM543.079 23H539.267V0.28125H543.079V23Z" fill="#171717"/>
</svg>
