<svg width="270" height="23" viewBox="0 0 270 23" fill="none" xmlns="http://www.w3.org/2000/svg">
<path d="M5.61072 2.35547H8.39978V18H5.61072V2.35547ZM0.876343 0.960938H13.1342V3.64453H0.876343V0.960938ZM18.349 18.1758C17.2006 18.1758 16.2201 17.9648 15.4076 17.543C14.5951 17.1211 13.974 16.5039 13.5443 15.6914C13.1146 14.8711 12.8998 13.8828 12.8998 12.7266V11.3555C12.8998 10.1523 13.1029 9.125 13.5092 8.27344C13.9232 7.42188 14.5209 6.77344 15.3021 6.32812C16.0912 5.88281 17.0365 5.66016 18.1381 5.66016C19.1771 5.66016 20.0638 5.92187 20.7982 6.44531C21.5404 6.96094 22.1029 7.71094 22.4857 8.69531C22.8763 9.67969 23.0717 10.8672 23.0717 12.2578V13.0547H14.8099V11.0039H20.4701L20.4584 10.875C20.3802 10.0234 20.142 9.36328 19.7435 8.89453C19.3451 8.42578 18.8099 8.19141 18.1381 8.19141C17.2943 8.19141 16.642 8.45703 16.181 8.98828C15.7201 9.51172 15.4896 10.2578 15.4896 11.2266V12.7734C15.4896 13.6953 15.7396 14.4062 16.2396 14.9062C16.7396 15.3984 17.4427 15.6445 18.349 15.6445C18.8099 15.6445 19.2631 15.5586 19.7084 15.3867C20.1615 15.207 20.5677 14.9609 20.9271 14.6484L22.7552 16.3594C22.1381 16.9375 21.4427 17.3867 20.6693 17.707C19.9037 18.0195 19.1302 18.1758 18.349 18.1758ZM30.5951 18.1758C29.8685 18.1758 29.1771 18.1094 28.5209 17.9766C27.8646 17.8359 27.2474 17.6328 26.6693 17.3672C26.099 17.1016 25.5834 16.7773 25.1224 16.3945L26.8217 14.2852C27.4388 14.7227 28.0677 15.0547 28.7084 15.2812C29.3568 15.5078 29.9857 15.6211 30.5951 15.6211C31.4467 15.6211 32.0912 15.5078 32.5287 15.2812C32.974 15.0469 33.1967 14.7109 33.1967 14.2734C33.1967 13.9375 33.0873 13.6875 32.8685 13.5234C32.6498 13.3516 32.3724 13.2344 32.0365 13.1719C31.7084 13.1094 31.2435 13.0508 30.642 12.9961C30.5404 12.9883 30.4349 12.9805 30.3256 12.9727C30.2162 12.9648 30.1107 12.9531 30.0092 12.9375C29.9779 12.9375 29.9467 12.9375 29.9154 12.9375C29.8842 12.9297 29.8529 12.9258 29.8217 12.9258C28.9701 12.832 28.2709 12.7031 27.724 12.5391C27.1771 12.3672 26.7162 12.043 26.3412 11.5664C25.974 11.0898 25.7904 10.4062 25.7904 9.51562C25.7904 8.67969 25.974 7.97656 26.3412 7.40625C26.7162 6.82812 27.2631 6.39453 27.9818 6.10547C28.7006 5.80859 29.5834 5.66016 30.6302 5.66016C31.2552 5.66016 31.8646 5.72266 32.4584 5.84766C33.0521 5.96484 33.6185 6.14062 34.1576 6.375C34.7045 6.60156 35.2201 6.88672 35.7045 7.23047L34.0287 9.26953C33.4584 8.92578 32.8802 8.66406 32.2943 8.48438C31.7162 8.30469 31.1537 8.21484 30.6068 8.21484C29.8724 8.21484 29.3138 8.32031 28.931 8.53125C28.5482 8.74219 28.3568 9.05469 28.3568 9.46875C28.3568 9.73438 28.4623 9.9375 28.6732 10.0781C28.8842 10.2188 29.1459 10.3164 29.4584 10.3711C29.7787 10.418 30.2396 10.4688 30.8412 10.5234C30.9037 10.5312 30.9623 10.5391 31.017 10.5469C31.0795 10.5469 31.142 10.5508 31.2045 10.5586C31.2279 10.5586 31.2552 10.5586 31.2865 10.5586C31.3177 10.5586 31.349 10.5625 31.3802 10.5703C32.2787 10.6562 33.0248 10.7852 33.6185 10.957C34.2123 11.1289 34.7162 11.4727 35.1302 11.9883C35.5443 12.4961 35.7513 13.2383 35.7513 14.2148C35.7513 15.0742 35.556 15.8008 35.1654 16.3945C34.7748 16.9805 34.1927 17.4258 33.4193 17.7305C32.6537 18.0273 31.7123 18.1758 30.5951 18.1758ZM41.8451 18.0586C40.8217 18.0586 40.0717 17.7891 39.5951 17.25C39.1185 16.7031 38.8802 15.8984 38.8802 14.8359V2.29688H41.681V14.4492C41.681 14.7461 41.7396 14.9766 41.8568 15.1406C41.974 15.2969 42.1459 15.375 42.3724 15.375H43.3451V18.0586H41.8451ZM37.6263 5.83594H43.3451V8.28516H37.6263V5.83594ZM54.6888 15.3164H58.6615C59.8177 15.3164 60.7123 15.0273 61.3451 14.4492C61.9857 13.8711 62.306 13.0508 62.306 11.9883V6.97266C62.306 5.91016 61.9857 5.08984 61.3451 4.51172C60.7123 3.93359 59.8177 3.64453 58.6615 3.64453H54.6888V0.960938H58.5912C59.9818 0.960938 61.1693 1.19922 62.1537 1.67578C63.1459 2.15234 63.8998 2.84766 64.4154 3.76172C64.931 4.67578 65.1888 5.77734 65.1888 7.06641V11.8945C65.1888 13.1523 64.9349 14.2383 64.4271 15.1523C63.9193 16.0664 63.1693 16.7695 62.1771 17.2617C61.1927 17.7539 59.9935 18 58.5795 18H54.6888V15.3164ZM53.0717 0.960938H55.8724V18H53.0717V0.960938ZM73.6849 18.1758C72.5365 18.1758 71.556 17.9648 70.7435 17.543C69.931 17.1211 69.3099 16.5039 68.8802 15.6914C68.4506 14.8711 68.2357 13.8828 68.2357 12.7266V11.3555C68.2357 10.1523 68.4388 9.125 68.8451 8.27344C69.2592 7.42188 69.8568 6.77344 70.6381 6.32812C71.4271 5.88281 72.3724 5.66016 73.474 5.66016C74.5131 5.66016 75.3998 5.92187 76.1342 6.44531C76.8763 6.96094 77.4388 7.71094 77.8217 8.69531C78.2123 9.67969 78.4076 10.8672 78.4076 12.2578V13.0547H70.1459V11.0039H75.806L75.7943 10.875C75.7162 10.0234 75.4779 9.36328 75.0795 8.89453C74.681 8.42578 74.1459 8.19141 73.474 8.19141C72.6302 8.19141 71.9779 8.45703 71.517 8.98828C71.056 9.51172 70.8256 10.2578 70.8256 11.2266V12.7734C70.8256 13.6953 71.0756 14.4062 71.5756 14.9062C72.0756 15.3984 72.7787 15.6445 73.6849 15.6445C74.1459 15.6445 74.599 15.5586 75.0443 15.3867C75.4974 15.207 75.9037 14.9609 76.2631 14.6484L78.0912 16.3594C77.474 16.9375 76.7787 17.3867 76.0052 17.707C75.2396 18.0195 74.4662 18.1758 73.6849 18.1758ZM88.0287 5.83594H90.8763L86.306 18H84.267L79.6967 5.83594H82.5443L85.2865 13.9922L88.0287 5.83594ZM105.361 18.1758C104.126 18.1758 103.052 17.9219 102.138 17.4141C101.232 16.8984 100.533 16.1641 100.04 15.2109C99.556 14.2578 99.3138 13.1289 99.3138 11.8242V7.14844C99.3138 5.84375 99.556 4.71484 100.04 3.76172C100.533 2.80859 101.232 2.07422 102.138 1.55859C103.052 1.04297 104.126 0.785156 105.361 0.785156C106.384 0.785156 107.31 1.00391 108.138 1.44141C108.974 1.87891 109.665 2.51172 110.212 3.33984C110.767 4.16016 111.146 5.13281 111.349 6.25781H108.466C108.326 5.71094 108.103 5.23438 107.798 4.82812C107.494 4.41406 107.13 4.09766 106.708 3.87891C106.294 3.66016 105.845 3.55078 105.361 3.55078C104.712 3.55078 104.15 3.69922 103.673 3.99609C103.204 4.28516 102.841 4.69922 102.583 5.23828C102.326 5.77734 102.197 6.41406 102.197 7.14844V11.8242C102.197 12.5586 102.326 13.1953 102.583 13.7344C102.841 14.2734 103.204 14.6875 103.673 14.9766C104.15 15.2656 104.712 15.4102 105.361 15.4102C105.853 15.4102 106.306 15.3047 106.72 15.0938C107.142 14.8828 107.505 14.5742 107.81 14.168C108.115 13.7617 108.333 13.2734 108.466 12.7031H111.349C111.138 13.8281 110.755 14.8047 110.201 15.6328C109.654 16.4531 108.962 17.082 108.126 17.5195C107.298 17.957 106.376 18.1758 105.361 18.1758ZM121.076 10.2891C121.076 9.60938 120.872 9.08203 120.466 8.70703C120.068 8.33203 119.501 8.14453 118.767 8.14453C118.298 8.14453 117.837 8.21875 117.384 8.36719C116.931 8.51562 116.525 8.72266 116.165 8.98828L114.302 7.41797C114.779 6.86328 115.404 6.43359 116.177 6.12891C116.951 5.81641 117.81 5.66016 118.755 5.66016C119.786 5.66016 120.669 5.83984 121.404 6.19922C122.138 6.55078 122.697 7.06641 123.079 7.74609C123.47 8.41797 123.665 9.23047 123.665 10.1836V18H121.076V10.2891ZM117.888 18.1758C116.49 18.1758 115.443 17.8672 114.747 17.25C114.052 16.625 113.704 15.6797 113.704 14.4141C113.704 13.2109 114.056 12.3086 114.759 11.707C115.462 11.1055 116.517 10.8047 117.923 10.8047H121.181L121.345 12.9844H117.935C117.38 12.9844 116.962 13.1016 116.681 13.3359C116.408 13.5703 116.271 13.9297 116.271 14.4141C116.271 14.9219 116.451 15.3008 116.81 15.5508C117.169 15.793 117.712 15.9141 118.439 15.9141C119.329 15.9141 119.99 15.8164 120.419 15.6211C120.857 15.4258 121.076 15.1211 121.076 14.707L121.322 16.4414C121.189 16.8242 120.954 17.1445 120.619 17.4023C120.29 17.6602 119.892 17.8555 119.423 17.9883C118.954 18.1133 118.443 18.1758 117.888 18.1758ZM127.064 5.83594H129.982V18H127.064V5.83594ZM133.837 8.96484C133.65 8.76172 133.419 8.60938 133.146 8.50781C132.872 8.39844 132.556 8.34375 132.197 8.34375C131.494 8.34375 130.947 8.55469 130.556 8.97656C130.173 9.39062 129.982 9.96875 129.982 10.7109L129.736 7.95703C130.087 7.23047 130.544 6.66797 131.107 6.26953C131.677 5.86328 132.302 5.66016 132.982 5.66016C133.513 5.66016 133.994 5.74219 134.423 5.90625C134.853 6.0625 135.228 6.29688 135.548 6.60938L133.837 8.96484ZM143.81 0.960938H146.611V18H143.81V0.960938ZM140.869 18.1992C139.994 18.1992 139.244 18 138.619 17.6016C138.001 17.1953 137.529 16.6133 137.201 15.8555C136.88 15.0898 136.72 14.168 136.72 13.0898V10.7695C136.72 9.69141 136.88 8.76953 137.201 8.00391C137.521 7.23047 137.986 6.64453 138.595 6.24609C139.212 5.83984 139.951 5.63672 140.81 5.63672C141.497 5.63672 142.122 5.82812 142.685 6.21094C143.255 6.59375 143.712 7.13281 144.056 7.82812L143.81 10.418C143.81 9.94922 143.728 9.55078 143.564 9.22266C143.4 8.89453 143.161 8.64453 142.849 8.47266C142.536 8.30078 142.158 8.21484 141.712 8.21484C141.017 8.21484 140.478 8.44141 140.095 8.89453C139.712 9.34766 139.521 9.98047 139.521 10.793V13.0898C139.521 13.8945 139.712 14.5195 140.095 14.9648C140.478 15.4023 141.017 15.6211 141.712 15.6211C142.158 15.6211 142.536 15.5352 142.849 15.3633C143.161 15.1836 143.4 14.9297 143.564 14.6016C143.728 14.2734 143.81 13.8789 143.81 13.418L143.974 16.0898C143.732 16.7227 143.341 17.2344 142.802 17.625C142.271 18.0078 141.626 18.1992 140.869 18.1992ZM157.169 5.83594H159.958V18H157.169V5.83594ZM152.81 13.2305C152.81 13.9492 153.001 14.5078 153.384 14.9062C153.767 15.2969 154.306 15.4922 155.001 15.4922C155.697 15.4922 156.232 15.3086 156.607 14.9414C156.982 14.5664 157.169 14.0312 157.169 13.3359L157.333 15.9375C157.099 16.5703 156.708 17.1016 156.161 17.5312C155.615 17.9609 154.947 18.1758 154.158 18.1758C152.837 18.1758 151.814 17.75 151.087 16.8984C150.369 16.0469 150.009 14.8438 150.009 13.2891V5.83594H152.81V13.2305ZM177.724 10.8047C177.724 10.0156 177.529 9.41016 177.138 8.98828C176.747 8.55859 176.193 8.34375 175.474 8.34375C174.794 8.34375 174.267 8.55078 173.892 8.96484C173.525 9.37109 173.341 9.95312 173.341 10.7109L172.802 8.13281C173.185 7.34375 173.685 6.73438 174.302 6.30469C174.927 5.875 175.619 5.66016 176.376 5.66016C177.251 5.66016 177.997 5.85938 178.615 6.25781C179.24 6.65625 179.712 7.24219 180.033 8.01562C180.361 8.78125 180.525 9.70703 180.525 10.793V18H177.724V10.8047ZM163.369 5.83594H166.169V18H163.369V5.83594ZM170.552 10.8047C170.552 10.0156 170.357 9.41016 169.966 8.98828C169.583 8.55859 169.036 8.34375 168.326 8.34375C167.638 8.34375 167.107 8.53125 166.732 8.90625C166.357 9.27344 166.169 9.79688 166.169 10.4766L165.923 7.95703C166.29 7.21484 166.759 6.64844 167.329 6.25781C167.9 5.85938 168.552 5.66016 169.286 5.66016C170.138 5.66016 170.869 5.85938 171.478 6.25781C172.087 6.65625 172.548 7.24219 172.861 8.01562C173.181 8.78125 173.341 9.70703 173.341 10.793V18H170.552V10.8047ZM189.021 18.1758C187.872 18.1758 186.892 17.9648 186.079 17.543C185.267 17.1211 184.646 16.5039 184.216 15.6914C183.786 14.8711 183.572 13.8828 183.572 12.7266V11.3555C183.572 10.1523 183.775 9.125 184.181 8.27344C184.595 7.42188 185.193 6.77344 185.974 6.32812C186.763 5.88281 187.708 5.66016 188.81 5.66016C189.849 5.66016 190.736 5.92187 191.47 6.44531C192.212 6.96094 192.775 7.71094 193.158 8.69531C193.548 9.67969 193.744 10.8672 193.744 12.2578V13.0547H185.482V11.0039H191.142L191.13 10.875C191.052 10.0234 190.814 9.36328 190.415 8.89453C190.017 8.42578 189.482 8.19141 188.81 8.19141C187.966 8.19141 187.314 8.45703 186.853 8.98828C186.392 9.51172 186.161 10.2578 186.161 11.2266V12.7734C186.161 13.6953 186.411 14.4062 186.911 14.9062C187.411 15.3984 188.115 15.6445 189.021 15.6445C189.482 15.6445 189.935 15.5586 190.38 15.3867C190.833 15.207 191.24 14.9609 191.599 14.6484L193.427 16.3594C192.81 16.9375 192.115 17.3867 191.341 17.707C190.576 18.0195 189.802 18.1758 189.021 18.1758ZM205.087 15.3164H209.06C210.216 15.3164 211.111 15.0273 211.744 14.4492C212.384 13.8711 212.704 13.0508 212.704 11.9883V6.97266C212.704 5.91016 212.384 5.08984 211.744 4.51172C211.111 3.93359 210.216 3.64453 209.06 3.64453H205.087V0.960938H208.99C210.38 0.960938 211.568 1.19922 212.552 1.67578C213.544 2.15234 214.298 2.84766 214.814 3.76172C215.329 4.67578 215.587 5.77734 215.587 7.06641V11.8945C215.587 13.1523 215.333 14.2383 214.826 15.1523C214.318 16.0664 213.568 16.7695 212.576 17.2617C211.591 17.7539 210.392 18 208.978 18H205.087V15.3164ZM203.47 0.960938H206.271V18H203.47V0.960938ZM218.904 0.960938H221.693V3.76172H218.904V0.960938ZM218.904 5.83594H221.693V18H218.904V5.83594ZM229.204 22.9453C228.267 22.9453 227.427 22.7734 226.685 22.4297C225.943 22.0938 225.365 21.6172 224.951 21L226.837 19.2773C227.126 19.6445 227.474 19.9258 227.88 20.1211C228.294 20.3164 228.724 20.4141 229.169 20.4141C229.966 20.4141 230.595 20.1953 231.056 19.7578C231.517 19.3281 231.747 18.7188 231.747 17.9297V5.83594H234.548V17.6367C234.548 18.7539 234.337 19.7109 233.915 20.5078C233.501 21.3047 232.892 21.9102 232.087 22.3242C231.29 22.7383 230.329 22.9453 229.204 22.9453ZM228.806 18.1992C227.931 18.1992 227.181 18 226.556 17.6016C225.939 17.1953 225.466 16.6133 225.138 15.8555C224.818 15.0898 224.658 14.168 224.658 13.0898V10.7695C224.658 9.69141 224.818 8.76953 225.138 8.00391C225.458 7.23047 225.923 6.64453 226.533 6.24609C227.15 5.83984 227.888 5.63672 228.747 5.63672C229.435 5.63672 230.06 5.82812 230.622 6.21094C231.193 6.59375 231.65 7.13281 231.994 7.82812L231.747 10.418C231.747 9.94922 231.665 9.55078 231.501 9.22266C231.337 8.89453 231.099 8.64453 230.786 8.47266C230.474 8.30078 230.095 8.21484 229.65 8.21484C228.954 8.21484 228.415 8.44141 228.033 8.89453C227.65 9.34766 227.458 9.98047 227.458 10.793V13.0898C227.458 13.8945 227.65 14.5195 228.033 14.9648C228.415 15.4023 228.954 15.6211 229.65 15.6211C230.095 15.6211 230.474 15.5352 230.786 15.3633C231.099 15.1836 231.337 14.9297 231.501 14.6016C231.665 14.2734 231.747 13.8789 231.747 13.418L231.911 16.0898C231.669 16.7227 231.279 17.2344 230.74 17.625C230.208 18.0078 229.564 18.1992 228.806 18.1992ZM237.865 0.960938H240.654V3.76172H237.865V0.960938ZM237.865 5.83594H240.654V18H237.865V5.83594ZM247.251 18.0586C246.228 18.0586 245.478 17.7891 245.001 17.25C244.525 16.7031 244.286 15.8984 244.286 14.8359V2.29688H247.087V14.4492C247.087 14.7461 247.146 14.9766 247.263 15.1406C247.38 15.2969 247.552 15.375 247.779 15.375H248.751V18.0586H247.251ZM243.033 5.83594H248.751V8.28516H243.033V5.83594ZM258.583 10.2891C258.583 9.60938 258.38 9.08203 257.974 8.70703C257.576 8.33203 257.009 8.14453 256.275 8.14453C255.806 8.14453 255.345 8.21875 254.892 8.36719C254.439 8.51562 254.033 8.72266 253.673 8.98828L251.81 7.41797C252.286 6.86328 252.911 6.43359 253.685 6.12891C254.458 5.81641 255.318 5.66016 256.263 5.66016C257.294 5.66016 258.177 5.83984 258.911 6.19922C259.646 6.55078 260.204 7.06641 260.587 7.74609C260.978 8.41797 261.173 9.23047 261.173 10.1836V18H258.583V10.2891ZM255.396 18.1758C253.997 18.1758 252.951 17.8672 252.255 17.25C251.56 16.625 251.212 15.6797 251.212 14.4141C251.212 13.2109 251.564 12.3086 252.267 11.707C252.97 11.1055 254.025 10.8047 255.431 10.8047H258.689L258.853 12.9844H255.443C254.888 12.9844 254.47 13.1016 254.189 13.3359C253.915 13.5703 253.779 13.9297 253.779 14.4141C253.779 14.9219 253.958 15.3008 254.318 15.5508C254.677 15.793 255.22 15.9141 255.947 15.9141C256.837 15.9141 257.497 15.8164 257.927 15.6211C258.365 15.4258 258.583 15.1211 258.583 14.707L258.829 16.4414C258.697 16.8242 258.462 17.1445 258.126 17.4023C257.798 17.6602 257.4 17.8555 256.931 17.9883C256.462 18.1133 255.951 18.1758 255.396 18.1758ZM267.372 14.4258C267.372 14.7227 267.447 14.9531 267.595 15.1172C267.744 15.2734 267.954 15.3516 268.228 15.3516H269.06V18.0352H267.536C266.599 18.0352 265.869 17.7539 265.345 17.1914C264.829 16.6289 264.572 15.8359 264.572 14.8125V0.960938H267.372V14.4258Z" fill="#171717"/>
</svg>
