<svg width="87" height="20" viewBox="0 0 87 20" fill="none" xmlns="http://www.w3.org/2000/svg">
<path d="M5.52869 2.85547H8.31775V18.5H5.52869V2.85547ZM0.794312 1.46094H13.0521V4.14453H0.794312V1.46094ZM17.9506 18.6758C16.8724 18.6758 15.9467 18.4688 15.1732 18.0547C14.4076 17.6406 13.8217 17.0391 13.4154 16.25C13.017 15.4531 12.8177 14.4961 12.8177 13.3789V11.3984C12.8177 10.2969 13.017 9.35547 13.4154 8.57422C13.8217 7.78516 14.4076 7.1875 15.1732 6.78125C15.9467 6.36719 16.8724 6.16016 17.9506 6.16016C19.0287 6.16016 19.9506 6.36719 20.7162 6.78125C21.4896 7.1875 22.0756 7.78516 22.474 8.57422C22.8802 9.35547 23.0834 10.2969 23.0834 11.3984V13.4141C23.0834 14.5234 22.8802 15.4727 22.474 16.2617C22.0756 17.043 21.4896 17.6406 20.7162 18.0547C19.9506 18.4688 19.0287 18.6758 17.9506 18.6758ZM17.9506 15.9922C18.6927 15.9922 19.267 15.7695 19.6732 15.3242C20.0795 14.8711 20.2826 14.2344 20.2826 13.4141V11.3984C20.2826 10.5859 20.0795 9.95703 19.6732 9.51172C19.267 9.06641 18.6927 8.84375 17.9506 8.84375C17.2084 8.84375 16.6342 9.06641 16.2279 9.51172C15.8217 9.95703 15.6185 10.5859 15.6185 11.3984V13.4141C15.6185 14.2344 15.8177 14.8711 16.2162 15.3242C16.6224 15.7695 17.2006 15.9922 17.9506 15.9922ZM31.0287 18.6758C29.9506 18.6758 29.0248 18.4688 28.2513 18.0547C27.4857 17.6406 26.8998 17.0391 26.4935 16.25C26.0951 15.4531 25.8959 14.4961 25.8959 13.3789V11.3984C25.8959 10.2969 26.0951 9.35547 26.4935 8.57422C26.8998 7.78516 27.4857 7.1875 28.2513 6.78125C29.0248 6.36719 29.9506 6.16016 31.0287 6.16016C32.1068 6.16016 33.0287 6.36719 33.7943 6.78125C34.5677 7.1875 35.1537 7.78516 35.5521 8.57422C35.9584 9.35547 36.1615 10.2969 36.1615 11.3984V13.4141C36.1615 14.5234 35.9584 15.4727 35.5521 16.2617C35.1537 17.043 34.5677 17.6406 33.7943 18.0547C33.0287 18.4688 32.1068 18.6758 31.0287 18.6758ZM31.0287 15.9922C31.7709 15.9922 32.3451 15.7695 32.7513 15.3242C33.1576 14.8711 33.3607 14.2344 33.3607 13.4141V11.3984C33.3607 10.5859 33.1576 9.95703 32.7513 9.51172C32.3451 9.06641 31.7709 8.84375 31.0287 8.84375C30.2865 8.84375 29.7123 9.06641 29.306 9.51172C28.8998 9.95703 28.6967 10.5859 28.6967 11.3984V13.4141C28.6967 14.2344 28.8959 14.8711 29.2943 15.3242C29.7006 15.7695 30.2787 15.9922 31.0287 15.9922ZM42.1263 14.9258C42.1263 15.2227 42.2006 15.4531 42.349 15.6172C42.4974 15.7734 42.7084 15.8516 42.9818 15.8516H43.8138V18.5352H42.2904C41.3529 18.5352 40.6224 18.2539 40.099 17.6914C39.5834 17.1289 39.3256 16.3359 39.3256 15.3125V1.46094H42.1263V14.9258ZM50.6459 18.6758C49.9193 18.6758 49.2279 18.6094 48.5717 18.4766C47.9154 18.3359 47.2982 18.1328 46.7201 17.8672C46.1498 17.6016 45.6342 17.2773 45.1732 16.8945L46.8724 14.7852C47.4896 15.2227 48.1185 15.5547 48.7592 15.7812C49.4076 16.0078 50.0365 16.1211 50.6459 16.1211C51.4974 16.1211 52.142 16.0078 52.5795 15.7812C53.0248 15.5469 53.2474 15.2109 53.2474 14.7734C53.2474 14.4375 53.1381 14.1875 52.9193 14.0234C52.7006 13.8516 52.4232 13.7344 52.0873 13.6719C51.7592 13.6094 51.2943 13.5508 50.6927 13.4961C50.5912 13.4883 50.4857 13.4805 50.3763 13.4727C50.267 13.4648 50.1615 13.4531 50.0599 13.4375C50.0287 13.4375 49.9974 13.4375 49.9662 13.4375C49.9349 13.4297 49.9037 13.4258 49.8724 13.4258C49.0209 13.332 48.3217 13.2031 47.7748 13.0391C47.2279 12.8672 46.767 12.543 46.392 12.0664C46.0248 11.5898 45.8412 10.9062 45.8412 10.0156C45.8412 9.17969 46.0248 8.47656 46.392 7.90625C46.767 7.32812 47.3138 6.89453 48.0326 6.60547C48.7513 6.30859 49.6342 6.16016 50.681 6.16016C51.306 6.16016 51.9154 6.22266 52.5092 6.34766C53.1029 6.46484 53.6693 6.64062 54.2084 6.875C54.7552 7.10156 55.2709 7.38672 55.7552 7.73047L54.0795 9.76953C53.5092 9.42578 52.931 9.16406 52.3451 8.98438C51.767 8.80469 51.2045 8.71484 50.6576 8.71484C49.9232 8.71484 49.3646 8.82031 48.9818 9.03125C48.599 9.24219 48.4076 9.55469 48.4076 9.96875C48.4076 10.2344 48.5131 10.4375 48.724 10.5781C48.9349 10.7188 49.1967 10.8164 49.5092 10.8711C49.8295 10.918 50.2904 10.9688 50.892 11.0234C50.9545 11.0312 51.0131 11.0391 51.0677 11.0469C51.1302 11.0469 51.1927 11.0508 51.2552 11.0586C51.2787 11.0586 51.306 11.0586 51.3373 11.0586C51.3685 11.0586 51.3998 11.0625 51.431 11.0703C52.3295 11.1562 53.0756 11.2852 53.6693 11.457C54.2631 11.6289 54.767 11.9727 55.181 12.4883C55.5951 12.9961 55.8021 13.7383 55.8021 14.7148C55.8021 15.5742 55.6068 16.3008 55.2162 16.8945C54.8256 17.4805 54.2435 17.9258 53.4701 18.2305C52.7045 18.5273 51.7631 18.6758 50.6459 18.6758Z" fill="#171717"/>
<path d="M70.3347 0C69.4506 0 68.6028 0.3512 67.9777 0.97634C67.3525 1.60148 67.0013 2.44935 67.0013 3.33343V12.667C67.0013 13.5511 67.3525 14.399 67.9777 15.0241C68.6028 15.6493 69.4506 16.0005 70.3347 16.0005H72.9907C73.0889 15.8682 73.1967 15.7434 73.3134 15.6271L74.2734 14.6671H70.3347C69.8043 14.6671 69.2955 14.4564 68.9205 14.0813C68.5454 13.7062 68.3347 13.1975 68.3347 12.667V5.33349H81.6681V5.36816C82.1114 5.32039 82.5586 5.32218 83.0014 5.37349V3.33343C83.0014 2.44935 82.6502 1.60148 82.0251 0.97634C81.4 0.3512 80.5521 0 79.6681 0H70.3347ZM77.5761 7.63223L76.8067 6.86154C76.7447 6.79955 76.6712 6.75038 76.5902 6.71684C76.5092 6.68329 76.4224 6.66602 76.3347 6.66602C76.2471 6.66602 76.1603 6.68329 76.0793 6.71684C75.9983 6.75038 75.9247 6.79955 75.8627 6.86154C75.8007 6.92352 75.7516 6.99711 75.718 7.0781C75.6845 7.15909 75.6672 7.24589 75.6672 7.33355C75.6672 7.42121 75.6845 7.50802 75.718 7.58901C75.7516 7.66999 75.8007 7.74358 75.8627 7.80557L76.8561 8.7976C77.0481 8.38781 77.2881 7.99935 77.5761 7.63223ZM74.1401 7.80557C74.202 7.74358 74.2512 7.66999 74.2847 7.58901C74.3183 7.50802 74.3356 7.42121 74.3356 7.33355C74.3356 7.24589 74.3183 7.15909 74.2847 7.0781C74.2512 6.99711 74.202 6.92352 74.1401 6.86154C74.0781 6.79955 74.0045 6.75038 73.9235 6.71684C73.8425 6.68329 73.7557 6.66602 73.668 6.66602C73.5804 6.66602 73.4936 6.68329 73.4126 6.71684C73.3316 6.75038 73.258 6.79955 73.196 6.86154L70.5294 9.52828C70.4673 9.59021 70.418 9.66378 70.3844 9.74478C70.3508 9.82578 70.3335 9.91261 70.3335 10.0003C70.3335 10.088 70.3508 10.1748 70.3844 10.2558C70.418 10.3368 70.4673 10.4104 70.5294 10.4723L73.196 13.1391C73.3212 13.2642 73.491 13.3346 73.668 13.3346C73.8451 13.3346 74.0149 13.2642 74.1401 13.1391C74.2652 13.0139 74.3356 12.8441 74.3356 12.667C74.3356 12.49 74.2652 12.3202 74.1401 12.195L71.944 10.0003L74.1401 7.80557ZM82.8574 6.69887C83.3454 6.75487 83.4854 7.33889 83.1374 7.68823L81.8374 8.98827C81.4605 9.36524 81.2487 9.87653 81.2487 10.4096C81.2487 10.6736 81.3007 10.935 81.4017 11.1789C81.5027 11.4228 81.6508 11.6444 81.8374 11.831C82.0241 12.0177 82.2457 12.1657 82.4895 12.2668C82.7334 12.3678 82.9948 12.4198 83.2588 12.4198C83.7919 12.4198 84.3031 12.208 84.6801 11.831L85.9801 10.531C86.3281 10.183 86.9135 10.323 86.9695 10.811C87.0623 11.6034 86.9515 12.4064 86.6476 13.1441C86.3436 13.8818 85.8565 14.5297 85.2324 15.0267C84.6082 15.5237 83.8676 15.8532 83.0806 15.9842C82.2936 16.1151 81.4862 16.0432 80.7348 15.7751L77.1001 19.4112C76.9134 19.5979 76.6918 19.746 76.448 19.847C76.2041 19.948 75.9427 20 75.6787 20C75.4148 20 75.1534 19.948 74.9095 19.847C74.6656 19.746 74.444 19.5979 74.2574 19.4112C74.0707 19.2246 73.9227 19.003 73.8217 18.7591C73.7206 18.5152 73.6686 18.2538 73.6686 17.9899C73.6686 17.7259 73.7206 17.4645 73.8217 17.2206C73.9227 16.9767 74.0707 16.7552 74.2574 16.5685L77.8921 12.9337C77.624 12.1821 77.552 11.3746 77.683 10.5874C77.8141 9.80027 78.1437 9.05956 78.6408 8.43535C79.1379 7.81114 79.7861 7.32407 80.5239 7.02021C81.2618 6.71635 82.0649 6.60575 82.8574 6.69887Z" fill="#171717"/>
</svg>
