<svg width="282" height="34" viewBox="0 0 282 34" fill="none" xmlns="http://www.w3.org/2000/svg">
<g clip-path="url(#clip0_48_28)">
<path d="M2.30256 22H-0.509943L4.6108 7.45455H7.86364L12.9915 22H10.179L6.29403 10.4375H6.1804L2.30256 22ZM2.39489 16.2969H10.0653V18.4134H2.39489V16.2969ZM23.2401 13.9744L20.8963 14.2301C20.83 13.9934 20.714 13.7708 20.5483 13.5625C20.3873 13.3542 20.1695 13.1861 19.8949 13.0582C19.6203 12.9304 19.2841 12.8665 18.8864 12.8665C18.3513 12.8665 17.9015 12.9825 17.5369 13.2145C17.1771 13.4465 16.9995 13.7472 17.0043 14.1165C16.9995 14.4337 17.1155 14.6918 17.3523 14.8906C17.5938 15.0895 17.9915 15.2528 18.5455 15.3807L20.4062 15.7784C21.4384 16.0009 22.2055 16.3537 22.7074 16.8366C23.214 17.3196 23.4697 17.9517 23.4744 18.733C23.4697 19.4195 23.2685 20.0256 22.8707 20.5511C22.4777 21.072 21.9309 21.4792 21.2301 21.7727C20.5294 22.0663 19.7244 22.2131 18.8153 22.2131C17.4801 22.2131 16.4053 21.9337 15.5909 21.375C14.7765 20.8116 14.2912 20.0279 14.1349 19.0241L16.642 18.7827C16.7557 19.2751 16.9972 19.6468 17.3665 19.8977C17.7358 20.1487 18.2164 20.2741 18.8082 20.2741C19.419 20.2741 19.9091 20.1487 20.2784 19.8977C20.6525 19.6468 20.8395 19.3366 20.8395 18.9673C20.8395 18.6548 20.7188 18.3968 20.4773 18.1932C20.2405 17.9896 19.8712 17.8333 19.3693 17.7244L17.5085 17.3338C16.4621 17.116 15.688 16.7491 15.1861 16.233C14.6842 15.7121 14.4356 15.054 14.4403 14.2585C14.4356 13.5862 14.6179 13.0038 14.9872 12.5114C15.3613 12.0142 15.8797 11.6307 16.5426 11.3608C17.2102 11.0862 17.9796 10.9489 18.8509 10.9489C20.1293 10.9489 21.1354 11.2211 21.8693 11.7656C22.608 12.3101 23.0649 13.0464 23.2401 13.9744ZM34.2166 13.9744L31.8729 14.2301C31.8066 13.9934 31.6906 13.7708 31.5249 13.5625C31.3639 13.3542 31.1461 13.1861 30.8714 13.0582C30.5968 12.9304 30.2607 12.8665 29.8629 12.8665C29.3279 12.8665 28.8781 12.9825 28.5135 13.2145C28.1536 13.4465 27.9761 13.7472 27.9808 14.1165C27.9761 14.4337 28.0921 14.6918 28.3288 14.8906C28.5703 15.0895 28.968 15.2528 29.522 15.3807L31.3828 15.7784C32.415 16.0009 33.1821 16.3537 33.6839 16.8366C34.1906 17.3196 34.4463 17.9517 34.451 18.733C34.4463 19.4195 34.245 20.0256 33.8473 20.5511C33.4543 21.072 32.9074 21.4792 32.2067 21.7727C31.5059 22.0663 30.701 22.2131 29.7919 22.2131C28.4567 22.2131 27.3819 21.9337 26.5675 21.375C25.7531 20.8116 25.2678 20.0279 25.1115 19.0241L27.6186 18.7827C27.7322 19.2751 27.9737 19.6468 28.343 19.8977C28.7124 20.1487 29.1929 20.2741 29.7848 20.2741C30.3956 20.2741 30.8857 20.1487 31.255 19.8977C31.629 19.6468 31.8161 19.3366 31.8161 18.9673C31.8161 18.6548 31.6953 18.3968 31.4538 18.1932C31.2171 17.9896 30.8478 17.8333 30.3459 17.7244L28.4851 17.3338C27.4387 17.116 26.6645 16.7491 26.1626 16.233C25.6607 15.7121 25.4122 15.054 25.4169 14.2585C25.4122 13.5862 25.5945 13.0038 25.9638 12.5114C26.3378 12.0142 26.8563 11.6307 27.5192 11.3608C28.1868 11.0862 28.9562 10.9489 29.8274 10.9489C31.1058 10.9489 32.112 11.2211 32.8459 11.7656C33.5845 12.3101 34.0414 13.0464 34.2166 13.9744ZM36.571 22V11.0909H39.142V22H36.571ZM37.8636 9.54261C37.4564 9.54261 37.1061 9.40767 36.8125 9.13778C36.5189 8.86316 36.3722 8.53409 36.3722 8.15057C36.3722 7.76231 36.5189 7.43324 36.8125 7.16335C37.1061 6.88873 37.4564 6.75142 37.8636 6.75142C38.2756 6.75142 38.6259 6.88873 38.9148 7.16335C39.2083 7.43324 39.3551 7.76231 39.3551 8.15057C39.3551 8.53409 39.2083 8.86316 38.9148 9.13778C38.6259 9.40767 38.2756 9.54261 37.8636 9.54261ZM50.408 13.9744L48.0643 14.2301C47.998 13.9934 47.882 13.7708 47.7163 13.5625C47.5553 13.3542 47.3375 13.1861 47.0629 13.0582C46.7882 12.9304 46.4521 12.8665 46.0543 12.8665C45.5193 12.8665 45.0695 12.9825 44.7049 13.2145C44.3451 13.4465 44.1675 13.7472 44.1722 14.1165C44.1675 14.4337 44.2835 14.6918 44.5202 14.8906C44.7617 15.0895 45.1594 15.2528 45.7134 15.3807L47.5742 15.7784C48.6064 16.0009 49.3735 16.3537 49.8754 16.8366C50.382 17.3196 50.6377 17.9517 50.6424 18.733C50.6377 19.4195 50.4364 20.0256 50.0387 20.5511C49.6457 21.072 49.0988 21.4792 48.3981 21.7727C47.6973 22.0663 46.8924 22.2131 45.9833 22.2131C44.6481 22.2131 43.5733 21.9337 42.7589 21.375C41.9445 20.8116 41.4592 20.0279 41.3029 19.0241L43.81 18.7827C43.9237 19.2751 44.1651 19.6468 44.5344 19.8977C44.9038 20.1487 45.3844 20.2741 45.9762 20.2741C46.587 20.2741 47.0771 20.1487 47.4464 19.8977C47.8204 19.6468 48.0075 19.3366 48.0075 18.9673C48.0075 18.6548 47.8867 18.3968 47.6452 18.1932C47.4085 17.9896 47.0392 17.8333 46.5373 17.7244L44.6765 17.3338C43.6301 17.116 42.8559 16.7491 42.354 16.233C41.8522 15.7121 41.6036 15.054 41.6083 14.2585C41.6036 13.5862 41.7859 13.0038 42.1552 12.5114C42.5292 12.0142 43.0477 11.6307 43.7106 11.3608C44.3782 11.0862 45.1476 10.9489 46.0188 10.9489C47.2972 10.9489 48.3034 11.2211 49.0373 11.7656C49.7759 12.3101 50.2328 13.0464 50.408 13.9744ZM58.2099 11.0909V13.0795H51.9386V11.0909H58.2099ZM53.4869 8.47727H56.0579V18.7188C56.0579 19.0644 56.11 19.3295 56.2141 19.5142C56.323 19.6941 56.4651 19.8172 56.6403 19.8835C56.8155 19.9498 57.0096 19.983 57.2227 19.983C57.3836 19.983 57.5304 19.9711 57.663 19.9474C57.8003 19.9238 57.9045 19.9025 57.9755 19.8835L58.4087 21.8935C58.2714 21.9408 58.0749 21.9929 57.8192 22.0497C57.5683 22.1065 57.2605 22.1397 56.896 22.1491C56.252 22.1681 55.672 22.071 55.1559 21.858C54.6398 21.6402 54.2302 21.304 53.9272 20.8494C53.6289 20.3949 53.4821 19.8267 53.4869 19.1449V8.47727ZM65.0724 22.2131C63.9787 22.2131 63.0341 21.9858 62.2386 21.5312C61.4479 21.072 60.8395 20.4233 60.4134 19.5852C59.9872 18.7424 59.7741 17.7505 59.7741 16.6094C59.7741 15.4872 59.9872 14.5024 60.4134 13.6548C60.8442 12.8026 61.4455 12.1397 62.2173 11.6662C62.9891 11.188 63.8958 10.9489 64.9375 10.9489C65.6098 10.9489 66.2443 11.0578 66.8409 11.2756C67.4422 11.4886 67.9725 11.8201 68.4318 12.2699C68.8958 12.7197 69.2604 13.2926 69.5256 13.9886C69.7907 14.6799 69.9233 15.5038 69.9233 16.4602V17.2486H60.9815V15.5156H67.4588C67.4541 15.0232 67.3475 14.5852 67.1392 14.2017C66.9309 13.8134 66.6397 13.508 66.2656 13.2855C65.8963 13.063 65.4654 12.9517 64.973 12.9517C64.4474 12.9517 63.9858 13.0795 63.5881 13.3352C63.1903 13.5862 62.8802 13.9176 62.6577 14.3295C62.4399 14.7367 62.3286 15.1842 62.3239 15.6719V17.1847C62.3239 17.8191 62.4399 18.3636 62.6719 18.8182C62.9039 19.268 63.2282 19.6136 63.6449 19.8551C64.0616 20.0919 64.5492 20.2102 65.108 20.2102C65.482 20.2102 65.8205 20.1581 66.1236 20.054C66.4266 19.9451 66.6894 19.7865 66.9119 19.5781C67.1345 19.3698 67.3026 19.1117 67.4162 18.804L69.8168 19.0739C69.6652 19.7083 69.3764 20.2623 68.9503 20.7358C68.5289 21.2045 67.9891 21.5691 67.331 21.8295C66.6728 22.0852 65.92 22.2131 65.0724 22.2131ZM74.6694 15.608V22H72.0984V11.0909H74.5558V12.9446H74.6836C74.9345 12.3338 75.3346 11.8485 75.8839 11.4886C76.4379 11.1288 77.122 10.9489 77.9364 10.9489C78.6893 10.9489 79.3451 11.1098 79.9038 11.4318C80.4672 11.7538 80.9028 12.2202 81.2106 12.831C81.5231 13.4418 81.677 14.1828 81.6722 15.054V22H79.1012V15.4517C79.1012 14.7225 78.9118 14.152 78.533 13.7401C78.159 13.3281 77.6405 13.1222 76.9776 13.1222C76.5278 13.1222 76.1277 13.2216 75.7773 13.4205C75.4317 13.6146 75.1594 13.8963 74.9606 14.2656C74.7665 14.6349 74.6694 15.0824 74.6694 15.608ZM89.0444 22.2131C87.9554 22.2131 87.0202 21.974 86.239 21.4957C85.4625 21.0175 84.8635 20.357 84.4421 19.5142C84.0254 18.6667 83.8171 17.6913 83.8171 16.5881C83.8171 15.4801 84.0302 14.5024 84.4563 13.6548C84.8825 12.8026 85.4838 12.1397 86.2603 11.6662C87.0415 11.188 87.9648 10.9489 89.0302 10.9489C89.9156 10.9489 90.6992 11.1122 91.381 11.4389C92.0676 11.7609 92.6145 12.2178 93.0217 12.8097C93.4289 13.3968 93.6609 14.0833 93.7177 14.8693H91.2603C91.1609 14.3437 90.9241 13.9058 90.5501 13.5554C90.1808 13.2003 89.686 13.0227 89.0657 13.0227C88.5401 13.0227 88.0785 13.1648 87.6808 13.4489C87.283 13.7282 86.9729 14.1307 86.7504 14.6562C86.5326 15.1818 86.4237 15.8116 86.4237 16.5455C86.4237 17.2888 86.5326 17.928 86.7504 18.4631C86.9682 18.9934 87.2736 19.4029 87.6665 19.6918C88.0643 19.9759 88.5307 20.1179 89.0657 20.1179C89.4445 20.1179 89.783 20.0469 90.0813 19.9048C90.3844 19.758 90.6377 19.5473 90.8413 19.2727C91.0449 18.9981 91.1845 18.6643 91.2603 18.2713H93.7177C93.6561 19.0431 93.4289 19.7273 93.0359 20.3239C92.6429 20.9157 92.1078 21.3797 91.4308 21.7159C90.7537 22.0473 89.9582 22.2131 89.0444 22.2131ZM95.8288 22V11.0909H98.3999V22H95.8288ZM97.1214 9.54261C96.7143 9.54261 96.3639 9.40767 96.0703 9.13778C95.7768 8.86316 95.63 8.53409 95.63 8.15057C95.63 7.76231 95.7768 7.43324 96.0703 7.16335C96.3639 6.88873 96.7143 6.75142 97.1214 6.75142C97.5334 6.75142 97.8838 6.88873 98.1726 7.16335C98.4661 7.43324 98.6129 7.76231 98.6129 8.15057C98.6129 8.53409 98.4661 8.86316 98.1726 9.13778C97.8838 9.40767 97.5334 9.54261 97.1214 9.54261ZM104.183 22.2202C103.492 22.2202 102.869 22.0971 102.315 21.8509C101.766 21.5999 101.33 21.2306 101.008 20.7429C100.691 20.2552 100.532 19.6539 100.532 18.9389C100.532 18.3234 100.646 17.8144 100.873 17.4119C101.1 17.0095 101.411 16.6875 101.804 16.446C102.197 16.2045 102.639 16.0223 103.132 15.8991C103.629 15.7713 104.143 15.679 104.673 15.6222C105.312 15.5559 105.831 15.4967 106.228 15.4446C106.626 15.3878 106.915 15.3026 107.095 15.1889C107.279 15.0705 107.372 14.8883 107.372 14.642V14.5994C107.372 14.0644 107.213 13.6501 106.896 13.3565C106.579 13.063 106.122 12.9162 105.525 12.9162C104.895 12.9162 104.396 13.0535 104.027 13.3281C103.662 13.6027 103.416 13.9271 103.288 14.3011L100.887 13.9602C101.077 13.2973 101.389 12.7434 101.825 12.2983C102.261 11.8485 102.793 11.5123 103.423 11.2898C104.053 11.0625 104.749 10.9489 105.511 10.9489C106.037 10.9489 106.56 11.0104 107.081 11.1335C107.601 11.2566 108.077 11.4602 108.508 11.7443C108.939 12.0237 109.285 12.4048 109.545 12.8878C109.81 13.3707 109.943 13.9744 109.943 14.6989V22H107.471V20.5014H107.386C107.23 20.8045 107.01 21.0885 106.725 21.3537C106.446 21.6141 106.093 21.8248 105.667 21.9858C105.246 22.142 104.751 22.2202 104.183 22.2202ZM104.85 20.331C105.367 20.331 105.814 20.2292 106.193 20.0256C106.572 19.8172 106.863 19.5426 107.066 19.2017C107.275 18.8608 107.379 18.4891 107.379 18.0866V16.8011C107.298 16.8674 107.161 16.929 106.967 16.9858C106.778 17.0426 106.565 17.0923 106.328 17.1349C106.091 17.1776 105.857 17.2154 105.625 17.2486C105.393 17.2817 105.191 17.3101 105.021 17.3338C104.637 17.3859 104.294 17.4711 103.991 17.5895C103.688 17.7079 103.449 17.8736 103.274 18.0866C103.099 18.295 103.011 18.5649 103.011 18.8963C103.011 19.3698 103.184 19.7273 103.529 19.9688C103.875 20.2102 104.315 20.331 104.85 20.331ZM116.963 9.66335V7.45455H128.569V9.66335H124.073V22H121.459V9.66335H116.963ZM133.94 22.2131C132.846 22.2131 131.901 21.9858 131.106 21.5312C130.315 21.072 129.707 20.4233 129.281 19.5852C128.854 18.7424 128.641 17.7505 128.641 16.6094C128.641 15.4872 128.854 14.5024 129.281 13.6548C129.711 12.8026 130.313 12.1397 131.085 11.6662C131.856 11.188 132.763 10.9489 133.805 10.9489C134.477 10.9489 135.112 11.0578 135.708 11.2756C136.309 11.4886 136.84 11.8201 137.299 12.2699C137.763 12.7197 138.128 13.2926 138.393 13.9886C138.658 14.6799 138.79 15.5038 138.79 16.4602V17.2486H129.849V15.5156H136.326C136.321 15.0232 136.215 14.5852 136.006 14.2017C135.798 13.8134 135.507 13.508 135.133 13.2855C134.763 13.063 134.333 12.9517 133.84 12.9517C133.315 12.9517 132.853 13.0795 132.455 13.3352C132.058 13.5862 131.747 13.9176 131.525 14.3295C131.307 14.7367 131.196 15.1842 131.191 15.6719V17.1847C131.191 17.8191 131.307 18.3636 131.539 18.8182C131.771 19.268 132.095 19.6136 132.512 19.8551C132.929 20.0919 133.416 20.2102 133.975 20.2102C134.349 20.2102 134.688 20.1581 134.991 20.054C135.294 19.9451 135.557 19.7865 135.779 19.5781C136.002 19.3698 136.17 19.1117 136.283 18.804L138.684 19.0739C138.532 19.7083 138.244 20.2623 137.817 20.7358C137.396 21.2045 136.856 21.5691 136.198 21.8295C135.54 22.0852 134.787 22.2131 133.94 22.2131ZM145.724 22.2131C144.635 22.2131 143.7 21.974 142.919 21.4957C142.142 21.0175 141.543 20.357 141.122 19.5142C140.705 18.6667 140.497 17.6913 140.497 16.5881C140.497 15.4801 140.71 14.5024 141.136 13.6548C141.562 12.8026 142.163 12.1397 142.94 11.6662C143.721 11.188 144.645 10.9489 145.71 10.9489C146.595 10.9489 147.379 11.1122 148.061 11.4389C148.747 11.7609 149.294 12.2178 149.701 12.8097C150.109 13.3968 150.341 14.0833 150.397 14.8693H147.94C147.841 14.3437 147.604 13.9058 147.23 13.5554C146.86 13.2003 146.366 13.0227 145.745 13.0227C145.22 13.0227 144.758 13.1648 144.36 13.4489C143.963 13.7282 143.653 14.1307 143.43 14.6562C143.212 15.1818 143.103 15.8116 143.103 16.5455C143.103 17.2888 143.212 17.928 143.43 18.4631C143.648 18.9934 143.953 19.4029 144.346 19.6918C144.744 19.9759 145.21 20.1179 145.745 20.1179C146.124 20.1179 146.463 20.0469 146.761 19.9048C147.064 19.758 147.317 19.5473 147.521 19.2727C147.725 18.9981 147.864 18.6643 147.94 18.2713H150.397C150.336 19.0431 150.109 19.7273 149.716 20.3239C149.323 20.9157 148.788 21.3797 148.11 21.7159C147.433 22.0473 146.638 22.2131 145.724 22.2131ZM155.08 15.608V22H152.509V11.0909H154.966V12.9446H155.094C155.345 12.3338 155.745 11.8485 156.294 11.4886C156.848 11.1288 157.532 10.9489 158.347 10.9489C159.099 10.9489 159.755 11.1098 160.314 11.4318C160.877 11.7538 161.313 12.2202 161.621 12.831C161.933 13.4418 162.087 14.1828 162.082 15.054V22H159.511V15.4517C159.511 14.7225 159.322 14.152 158.943 13.7401C158.569 13.3281 158.051 13.1222 157.388 13.1222C156.938 13.1222 156.538 13.2216 156.188 13.4205C155.842 13.6146 155.57 13.8963 155.371 14.2656C155.177 14.6349 155.08 15.0824 155.08 15.608ZM164.696 22V11.0909H167.267V22H164.696ZM165.989 9.54261C165.581 9.54261 165.231 9.40767 164.938 9.13778C164.644 8.86316 164.497 8.53409 164.497 8.15057C164.497 7.76231 164.644 7.43324 164.938 7.16335C165.231 6.88873 165.581 6.75142 165.989 6.75142C166.401 6.75142 166.751 6.88873 167.04 7.16335C167.333 7.43324 167.48 7.76231 167.48 8.15057C167.48 8.53409 167.333 8.86316 167.04 9.13778C166.751 9.40767 166.401 9.54261 165.989 9.54261ZM174.669 22.2131C173.58 22.2131 172.645 21.974 171.864 21.4957C171.087 21.0175 170.489 20.357 170.067 19.5142C169.65 18.6667 169.442 17.6913 169.442 16.5881C169.442 15.4801 169.655 14.5024 170.081 13.6548C170.507 12.8026 171.109 12.1397 171.885 11.6662C172.667 11.188 173.59 10.9489 174.655 10.9489C175.541 10.9489 176.324 11.1122 177.006 11.4389C177.693 11.7609 178.239 12.2178 178.647 12.8097C179.054 13.3968 179.286 14.0833 179.343 14.8693H176.885C176.786 14.3437 176.549 13.9058 176.175 13.5554C175.806 13.2003 175.311 13.0227 174.691 13.0227C174.165 13.0227 173.703 13.1648 173.306 13.4489C172.908 13.7282 172.598 14.1307 172.375 14.6562C172.158 15.1818 172.049 15.8116 172.049 16.5455C172.049 17.2888 172.158 17.928 172.375 18.4631C172.593 18.9934 172.899 19.4029 173.292 19.6918C173.689 19.9759 174.156 20.1179 174.691 20.1179C175.069 20.1179 175.408 20.0469 175.706 19.9048C176.009 19.758 176.263 19.5473 176.466 19.2727C176.67 18.9981 176.81 18.6643 176.885 18.2713H179.343C179.281 19.0431 179.054 19.7273 178.661 20.3239C178.268 20.9157 177.733 21.3797 177.056 21.7159C176.379 22.0473 175.583 22.2131 174.669 22.2131ZM184.593 22.2202C183.902 22.2202 183.279 22.0971 182.725 21.8509C182.176 21.5999 181.74 21.2306 181.418 20.7429C181.101 20.2552 180.942 19.6539 180.942 18.9389C180.942 18.3234 181.056 17.8144 181.283 17.4119C181.511 17.0095 181.821 16.6875 182.214 16.446C182.607 16.2045 183.049 16.0223 183.542 15.8991C184.039 15.7713 184.553 15.679 185.083 15.6222C185.722 15.5559 186.241 15.4967 186.638 15.4446C187.036 15.3878 187.325 15.3026 187.505 15.1889C187.69 15.0705 187.782 14.8883 187.782 14.642V14.5994C187.782 14.0644 187.623 13.6501 187.306 13.3565C186.989 13.063 186.532 12.9162 185.935 12.9162C185.306 12.9162 184.806 13.0535 184.437 13.3281C184.072 13.6027 183.826 13.9271 183.698 14.3011L181.298 13.9602C181.487 13.2973 181.799 12.7434 182.235 12.2983C182.671 11.8485 183.203 11.5123 183.833 11.2898C184.463 11.0625 185.159 10.9489 185.921 10.9489C186.447 10.9489 186.97 11.0104 187.491 11.1335C188.012 11.2566 188.487 11.4602 188.918 11.7443C189.349 12.0237 189.695 12.4048 189.955 12.8878C190.22 13.3707 190.353 13.9744 190.353 14.6989V22H187.881V20.5014H187.796C187.64 20.8045 187.42 21.0885 187.136 21.3537C186.856 21.6141 186.504 21.8248 186.077 21.9858C185.656 22.142 185.161 22.2202 184.593 22.2202ZM185.261 20.331C185.777 20.331 186.224 20.2292 186.603 20.0256C186.982 19.8172 187.273 19.5426 187.477 19.2017C187.685 18.8608 187.789 18.4891 187.789 18.0866V16.8011C187.709 16.8674 187.571 16.929 187.377 16.9858C187.188 17.0426 186.975 17.0923 186.738 17.1349C186.501 17.1776 186.267 17.2154 186.035 17.2486C185.803 17.2817 185.602 17.3101 185.431 17.3338C185.048 17.3859 184.704 17.4711 184.401 17.5895C184.098 17.7079 183.859 17.8736 183.684 18.0866C183.509 18.295 183.421 18.5649 183.421 18.8963C183.421 19.3698 183.594 19.7273 183.94 19.9688C184.285 20.2102 184.726 20.331 185.261 20.331ZM204.511 13.669V15.7855H197.963V13.669H204.511ZM212.29 22V7.45455H214.925V19.7912H221.331V22H212.29ZM226.644 22.2202C225.953 22.2202 225.33 22.0971 224.776 21.8509C224.227 21.5999 223.791 21.2306 223.469 20.7429C223.152 20.2552 222.993 19.6539 222.993 18.9389C222.993 18.3234 223.107 17.8144 223.334 17.4119C223.561 17.0095 223.872 16.6875 224.265 16.446C224.658 16.2045 225.1 16.0223 225.593 15.8991C226.09 15.7713 226.604 15.679 227.134 15.6222C227.773 15.5559 228.292 15.4967 228.689 15.4446C229.087 15.3878 229.376 15.3026 229.556 15.1889C229.74 15.0705 229.833 14.8883 229.833 14.642V14.5994C229.833 14.0644 229.674 13.6501 229.357 13.3565C229.04 13.063 228.583 12.9162 227.986 12.9162C227.356 12.9162 226.857 13.0535 226.488 13.3281C226.123 13.6027 225.877 13.9271 225.749 14.3011L223.348 13.9602C223.538 13.2973 223.85 12.7434 224.286 12.2983C224.721 11.8485 225.254 11.5123 225.884 11.2898C226.514 11.0625 227.21 10.9489 227.972 10.9489C228.498 10.9489 229.021 11.0104 229.542 11.1335C230.062 11.2566 230.538 11.4602 230.969 11.7443C231.4 12.0237 231.746 12.4048 232.006 12.8878C232.271 13.3707 232.404 13.9744 232.404 14.6989V22H229.932V20.5014H229.847C229.691 20.8045 229.471 21.0885 229.186 21.3537C228.907 21.6141 228.554 21.8248 228.128 21.9858C227.707 22.142 227.212 22.2202 226.644 22.2202ZM227.311 20.331C227.828 20.331 228.275 20.2292 228.654 20.0256C229.033 19.8172 229.324 19.5426 229.527 19.2017C229.736 18.8608 229.84 18.4891 229.84 18.0866V16.8011C229.759 16.8674 229.622 16.929 229.428 16.9858C229.239 17.0426 229.025 17.0923 228.789 17.1349C228.552 17.1776 228.318 17.2154 228.086 17.2486C227.854 17.2817 227.652 17.3101 227.482 17.3338C227.098 17.3859 226.755 17.4711 226.452 17.5895C226.149 17.7079 225.91 17.8736 225.735 18.0866C225.56 18.295 225.472 18.5649 225.472 18.8963C225.472 19.3698 225.645 19.7273 225.99 19.9688C226.336 20.2102 226.776 20.331 227.311 20.331ZM234.989 22V11.0909H237.482V12.9091H237.596C237.794 12.2794 238.135 11.794 238.618 11.4531C239.106 11.1075 239.662 10.9347 240.287 10.9347C240.429 10.9347 240.588 10.9418 240.763 10.956C240.943 10.9654 241.092 10.982 241.211 11.0057V13.3707C241.102 13.3329 240.929 13.2997 240.692 13.2713C240.46 13.2382 240.235 13.2216 240.017 13.2216C239.549 13.2216 239.127 13.3234 238.753 13.527C238.384 13.7259 238.093 14.0028 237.88 14.358C237.667 14.7131 237.56 15.1226 237.56 15.5866V22H234.989ZM245.863 22.2202C245.171 22.2202 244.549 22.0971 243.995 21.8509C243.445 21.5999 243.01 21.2306 242.688 20.7429C242.371 20.2552 242.212 19.6539 242.212 18.9389C242.212 18.3234 242.326 17.8144 242.553 17.4119C242.78 17.0095 243.09 16.6875 243.483 16.446C243.876 16.2045 244.319 16.0223 244.811 15.8991C245.309 15.7713 245.822 15.679 246.353 15.6222C246.992 15.5559 247.51 15.4967 247.908 15.4446C248.306 15.3878 248.595 15.3026 248.775 15.1889C248.959 15.0705 249.051 14.8883 249.051 14.642V14.5994C249.051 14.0644 248.893 13.6501 248.576 13.3565C248.258 13.063 247.801 12.9162 247.205 12.9162C246.575 12.9162 246.076 13.0535 245.706 13.3281C245.342 13.6027 245.096 13.9271 244.968 14.3011L242.567 13.9602C242.757 13.2973 243.069 12.7434 243.505 12.2983C243.94 11.8485 244.473 11.5123 245.103 11.2898C245.732 11.0625 246.428 10.9489 247.191 10.9489C247.716 10.9489 248.239 11.0104 248.76 11.1335C249.281 11.2566 249.757 11.4602 250.188 11.7443C250.619 12.0237 250.964 12.4048 251.225 12.8878C251.49 13.3707 251.623 13.9744 251.623 14.6989V22H249.151V20.5014H249.066C248.909 20.8045 248.689 21.0885 248.405 21.3537C248.126 21.6141 247.773 21.8248 247.347 21.9858C246.926 22.142 246.431 22.2202 245.863 22.2202ZM246.53 20.331C247.046 20.331 247.494 20.2292 247.873 20.0256C248.251 19.8172 248.542 19.5426 248.746 19.2017C248.954 18.8608 249.059 18.4891 249.059 18.0866V16.8011C248.978 16.8674 248.841 16.929 248.647 16.9858C248.457 17.0426 248.244 17.0923 248.007 17.1349C247.771 17.1776 247.536 17.2154 247.304 17.2486C247.072 17.2817 246.871 17.3101 246.701 17.3338C246.317 17.3859 245.974 17.4711 245.671 17.5895C245.368 17.7079 245.129 17.8736 244.953 18.0866C244.778 18.295 244.691 18.5649 244.691 18.8963C244.691 19.3698 244.864 19.7273 245.209 19.9688C245.555 20.2102 245.995 20.331 246.53 20.331ZM263.561 11.0909L259.676 22H256.836L252.951 11.0909H255.692L258.199 19.1946H258.313L260.827 11.0909H263.561ZM269.799 22.2131C268.705 22.2131 267.761 21.9858 266.965 21.5312C266.174 21.072 265.566 20.4233 265.14 19.5852C264.714 18.7424 264.501 17.7505 264.501 16.6094C264.501 15.4872 264.714 14.5024 265.14 13.6548C265.571 12.8026 266.172 12.1397 266.944 11.6662C267.716 11.188 268.622 10.9489 269.664 10.9489C270.336 10.9489 270.971 11.0578 271.567 11.2756C272.169 11.4886 272.699 11.8201 273.158 12.2699C273.622 12.7197 273.987 13.2926 274.252 13.9886C274.517 14.6799 274.65 15.5038 274.65 16.4602V17.2486H265.708V15.5156H272.185C272.181 15.0232 272.074 14.5852 271.866 14.2017C271.657 13.8134 271.366 13.508 270.992 13.2855C270.623 13.063 270.192 12.9517 269.7 12.9517C269.174 12.9517 268.712 13.0795 268.315 13.3352C267.917 13.5862 267.607 13.9176 267.384 14.3295C267.166 14.7367 267.055 15.1842 267.05 15.6719V17.1847C267.05 17.8191 267.166 18.3636 267.398 18.8182C267.63 19.268 267.955 19.6136 268.371 19.8551C268.788 20.0919 269.276 20.2102 269.835 20.2102C270.209 20.2102 270.547 20.1581 270.85 20.054C271.153 19.9451 271.416 19.7865 271.638 19.5781C271.861 19.3698 272.029 19.1117 272.143 18.804L274.543 19.0739C274.392 19.7083 274.103 20.2623 273.677 20.7358C273.255 21.2045 272.716 21.5691 272.058 21.8295C271.399 22.0852 270.647 22.2131 269.799 22.2131ZM279.396 7.45455V22H276.825V7.45455H279.396Z" fill="white"/>
</g>
<defs>
<clipPath id="clip0_48_28">
<rect width="282" height="34" fill="white"/>
</clipPath>
</defs>
</svg>
