<svg width="282" height="34" viewBox="0 0 282 34" fill="none" xmlns="http://www.w3.org/2000/svg">
<path d="M3.30256 24H0.490057L5.6108 9.45455H8.86364L13.9915 24H11.179L7.29403 12.4375H7.1804L3.30256 24ZM3.39489 18.2969H11.0653V20.4134H3.39489V18.2969ZM24.2401 15.9744L21.8963 16.2301C21.83 15.9934 21.714 15.7708 21.5483 15.5625C21.3873 15.3542 21.1695 15.1861 20.8949 15.0582C20.6203 14.9304 20.2841 14.8665 19.8864 14.8665C19.3513 14.8665 18.9015 14.9825 18.5369 15.2145C18.1771 15.4465 17.9995 15.7472 18.0043 16.1165C17.9995 16.4337 18.1155 16.6918 18.3523 16.8906C18.5938 17.0895 18.9915 17.2528 19.5455 17.3807L21.4062 17.7784C22.4384 18.0009 23.2055 18.3537 23.7074 18.8366C24.214 19.3196 24.4697 19.9517 24.4744 20.733C24.4697 21.4195 24.2685 22.0256 23.8707 22.5511C23.4777 23.072 22.9309 23.4792 22.2301 23.7727C21.5294 24.0663 20.7244 24.2131 19.8153 24.2131C18.4801 24.2131 17.4053 23.9337 16.5909 23.375C15.7765 22.8116 15.2912 22.0279 15.1349 21.0241L17.642 20.7827C17.7557 21.2751 17.9972 21.6468 18.3665 21.8977C18.7358 22.1487 19.2164 22.2741 19.8082 22.2741C20.419 22.2741 20.9091 22.1487 21.2784 21.8977C21.6525 21.6468 21.8395 21.3366 21.8395 20.9673C21.8395 20.6548 21.7188 20.3968 21.4773 20.1932C21.2405 19.9896 20.8712 19.8333 20.3693 19.7244L18.5085 19.3338C17.4621 19.116 16.688 18.7491 16.1861 18.233C15.6842 17.7121 15.4356 17.054 15.4403 16.2585C15.4356 15.5862 15.6179 15.0038 15.9872 14.5114C16.3613 14.0142 16.8797 13.6307 17.5426 13.3608C18.2102 13.0862 18.9796 12.9489 19.8509 12.9489C21.1293 12.9489 22.1354 13.2211 22.8693 13.7656C23.608 14.3101 24.0649 15.0464 24.2401 15.9744ZM35.2166 15.9744L32.8729 16.2301C32.8066 15.9934 32.6906 15.7708 32.5249 15.5625C32.3639 15.3542 32.1461 15.1861 31.8714 15.0582C31.5968 14.9304 31.2607 14.8665 30.8629 14.8665C30.3279 14.8665 29.8781 14.9825 29.5135 15.2145C29.1536 15.4465 28.9761 15.7472 28.9808 16.1165C28.9761 16.4337 29.0921 16.6918 29.3288 16.8906C29.5703 17.0895 29.968 17.2528 30.522 17.3807L32.3828 17.7784C33.415 18.0009 34.1821 18.3537 34.6839 18.8366C35.1906 19.3196 35.4463 19.9517 35.451 20.733C35.4463 21.4195 35.245 22.0256 34.8473 22.5511C34.4543 23.072 33.9074 23.4792 33.2067 23.7727C32.5059 24.0663 31.701 24.2131 30.7919 24.2131C29.4567 24.2131 28.3819 23.9337 27.5675 23.375C26.7531 22.8116 26.2678 22.0279 26.1115 21.0241L28.6186 20.7827C28.7322 21.2751 28.9737 21.6468 29.343 21.8977C29.7124 22.1487 30.1929 22.2741 30.7848 22.2741C31.3956 22.2741 31.8857 22.1487 32.255 21.8977C32.629 21.6468 32.8161 21.3366 32.8161 20.9673C32.8161 20.6548 32.6953 20.3968 32.4538 20.1932C32.2171 19.9896 31.8478 19.8333 31.3459 19.7244L29.4851 19.3338C28.4387 19.116 27.6645 18.7491 27.1626 18.233C26.6607 17.7121 26.4122 17.054 26.4169 16.2585C26.4122 15.5862 26.5945 15.0038 26.9638 14.5114C27.3378 14.0142 27.8563 13.6307 28.5192 13.3608C29.1868 13.0862 29.9562 12.9489 30.8274 12.9489C32.1058 12.9489 33.112 13.2211 33.8459 13.7656C34.5845 14.3101 35.0414 15.0464 35.2166 15.9744ZM37.571 24V13.0909H40.142V24H37.571ZM38.8636 11.5426C38.4564 11.5426 38.1061 11.4077 37.8125 11.1378C37.5189 10.8632 37.3722 10.5341 37.3722 10.1506C37.3722 9.76231 37.5189 9.43324 37.8125 9.16335C38.1061 8.88873 38.4564 8.75142 38.8636 8.75142C39.2756 8.75142 39.6259 8.88873 39.9148 9.16335C40.2083 9.43324 40.3551 9.76231 40.3551 10.1506C40.3551 10.5341 40.2083 10.8632 39.9148 11.1378C39.6259 11.4077 39.2756 11.5426 38.8636 11.5426ZM51.408 15.9744L49.0643 16.2301C48.998 15.9934 48.882 15.7708 48.7163 15.5625C48.5553 15.3542 48.3375 15.1861 48.0629 15.0582C47.7882 14.9304 47.4521 14.8665 47.0543 14.8665C46.5193 14.8665 46.0695 14.9825 45.7049 15.2145C45.3451 15.4465 45.1675 15.7472 45.1722 16.1165C45.1675 16.4337 45.2835 16.6918 45.5202 16.8906C45.7617 17.0895 46.1594 17.2528 46.7134 17.3807L48.5742 17.7784C49.6064 18.0009 50.3735 18.3537 50.8754 18.8366C51.382 19.3196 51.6377 19.9517 51.6424 20.733C51.6377 21.4195 51.4364 22.0256 51.0387 22.5511C50.6457 23.072 50.0988 23.4792 49.3981 23.7727C48.6973 24.0663 47.8924 24.2131 46.9833 24.2131C45.6481 24.2131 44.5733 23.9337 43.7589 23.375C42.9445 22.8116 42.4592 22.0279 42.3029 21.0241L44.81 20.7827C44.9237 21.2751 45.1651 21.6468 45.5344 21.8977C45.9038 22.1487 46.3844 22.2741 46.9762 22.2741C47.587 22.2741 48.0771 22.1487 48.4464 21.8977C48.8204 21.6468 49.0075 21.3366 49.0075 20.9673C49.0075 20.6548 48.8867 20.3968 48.6452 20.1932C48.4085 19.9896 48.0392 19.8333 47.5373 19.7244L45.6765 19.3338C44.6301 19.116 43.8559 18.7491 43.354 18.233C42.8522 17.7121 42.6036 17.054 42.6083 16.2585C42.6036 15.5862 42.7859 15.0038 43.1552 14.5114C43.5292 14.0142 44.0477 13.6307 44.7106 13.3608C45.3782 13.0862 46.1476 12.9489 47.0188 12.9489C48.2972 12.9489 49.3034 13.2211 50.0373 13.7656C50.7759 14.3101 51.2328 15.0464 51.408 15.9744ZM59.2099 13.0909V15.0795H52.9386V13.0909H59.2099ZM54.4869 10.4773H57.0579V20.7188C57.0579 21.0644 57.11 21.3295 57.2141 21.5142C57.323 21.6941 57.4651 21.8172 57.6403 21.8835C57.8155 21.9498 58.0096 21.983 58.2227 21.983C58.3836 21.983 58.5304 21.9711 58.663 21.9474C58.8003 21.9238 58.9045 21.9025 58.9755 21.8835L59.4087 23.8935C59.2714 23.9408 59.0749 23.9929 58.8192 24.0497C58.5683 24.1065 58.2605 24.1397 57.896 24.1491C57.252 24.1681 56.672 24.071 56.1559 23.858C55.6398 23.6402 55.2302 23.304 54.9272 22.8494C54.6289 22.3949 54.4821 21.8267 54.4869 21.1449V10.4773ZM66.0724 24.2131C64.9787 24.2131 64.0341 23.9858 63.2386 23.5312C62.4479 23.072 61.8395 22.4233 61.4134 21.5852C60.9872 20.7424 60.7741 19.7505 60.7741 18.6094C60.7741 17.4872 60.9872 16.5024 61.4134 15.6548C61.8442 14.8026 62.4455 14.1397 63.2173 13.6662C63.9891 13.188 64.8958 12.9489 65.9375 12.9489C66.6098 12.9489 67.2443 13.0578 67.8409 13.2756C68.4422 13.4886 68.9725 13.8201 69.4318 14.2699C69.8958 14.7197 70.2604 15.2926 70.5256 15.9886C70.7907 16.6799 70.9233 17.5038 70.9233 18.4602V19.2486H61.9815V17.5156H68.4588C68.4541 17.0232 68.3475 16.5852 68.1392 16.2017C67.9309 15.8134 67.6397 15.508 67.2656 15.2855C66.8963 15.063 66.4654 14.9517 65.973 14.9517C65.4474 14.9517 64.9858 15.0795 64.5881 15.3352C64.1903 15.5862 63.8802 15.9176 63.6577 16.3295C63.4399 16.7367 63.3286 17.1842 63.3239 17.6719V19.1847C63.3239 19.8191 63.4399 20.3636 63.6719 20.8182C63.9039 21.268 64.2282 21.6136 64.6449 21.8551C65.0616 22.0919 65.5492 22.2102 66.108 22.2102C66.482 22.2102 66.8205 22.1581 67.1236 22.054C67.4266 21.9451 67.6894 21.7865 67.9119 21.5781C68.1345 21.3698 68.3026 21.1117 68.4162 20.804L70.8168 21.0739C70.6652 21.7083 70.3764 22.2623 69.9503 22.7358C69.5289 23.2045 68.9891 23.5691 68.331 23.8295C67.6728 24.0852 66.92 24.2131 66.0724 24.2131ZM75.6694 17.608V24H73.0984V13.0909H75.5558V14.9446H75.6836C75.9345 14.3338 76.3346 13.8485 76.8839 13.4886C77.4379 13.1288 78.122 12.9489 78.9364 12.9489C79.6893 12.9489 80.3451 13.1098 80.9038 13.4318C81.4672 13.7538 81.9028 14.2202 82.2106 14.831C82.5231 15.4418 82.677 16.1828 82.6722 17.054V24H80.1012V17.4517C80.1012 16.7225 79.9118 16.152 79.533 15.7401C79.159 15.3281 78.6405 15.1222 77.9776 15.1222C77.5278 15.1222 77.1277 15.2216 76.7773 15.4205C76.4317 15.6146 76.1594 15.8963 75.9606 16.2656C75.7665 16.6349 75.6694 17.0824 75.6694 17.608ZM90.0444 24.2131C88.9554 24.2131 88.0202 23.974 87.239 23.4957C86.4625 23.0175 85.8635 22.357 85.4421 21.5142C85.0254 20.6667 84.8171 19.6913 84.8171 18.5881C84.8171 17.4801 85.0302 16.5024 85.4563 15.6548C85.8825 14.8026 86.4838 14.1397 87.2603 13.6662C88.0415 13.188 88.9648 12.9489 90.0302 12.9489C90.9156 12.9489 91.6992 13.1122 92.381 13.4389C93.0676 13.7609 93.6145 14.2178 94.0217 14.8097C94.4289 15.3968 94.6609 16.0833 94.7177 16.8693H92.2603C92.1609 16.3437 91.9241 15.9058 91.5501 15.5554C91.1808 15.2003 90.686 15.0227 90.0657 15.0227C89.5401 15.0227 89.0785 15.1648 88.6808 15.4489C88.283 15.7282 87.9729 16.1307 87.7504 16.6562C87.5326 17.1818 87.4237 17.8116 87.4237 18.5455C87.4237 19.2888 87.5326 19.928 87.7504 20.4631C87.9682 20.9934 88.2736 21.4029 88.6665 21.6918C89.0643 21.9759 89.5307 22.1179 90.0657 22.1179C90.4445 22.1179 90.783 22.0469 91.0813 21.9048C91.3844 21.758 91.6377 21.5473 91.8413 21.2727C92.0449 20.9981 92.1845 20.6643 92.2603 20.2713H94.7177C94.6561 21.0431 94.4289 21.7273 94.0359 22.3239C93.6429 22.9157 93.1078 23.3797 92.4308 23.7159C91.7537 24.0473 90.9582 24.2131 90.0444 24.2131ZM96.8288 24V13.0909H99.3999V24H96.8288ZM98.1214 11.5426C97.7143 11.5426 97.3639 11.4077 97.0703 11.1378C96.7768 10.8632 96.63 10.5341 96.63 10.1506C96.63 9.76231 96.7768 9.43324 97.0703 9.16335C97.3639 8.88873 97.7143 8.75142 98.1214 8.75142C98.5334 8.75142 98.8838 8.88873 99.1726 9.16335C99.4661 9.43324 99.6129 9.76231 99.6129 10.1506C99.6129 10.5341 99.4661 10.8632 99.1726 11.1378C98.8838 11.4077 98.5334 11.5426 98.1214 11.5426ZM105.183 24.2202C104.492 24.2202 103.869 24.0971 103.315 23.8509C102.766 23.5999 102.33 23.2306 102.008 22.7429C101.691 22.2552 101.532 21.6539 101.532 20.9389C101.532 20.3234 101.646 19.8144 101.873 19.4119C102.1 19.0095 102.411 18.6875 102.804 18.446C103.197 18.2045 103.639 18.0223 104.132 17.8991C104.629 17.7713 105.143 17.679 105.673 17.6222C106.312 17.5559 106.831 17.4967 107.228 17.4446C107.626 17.3878 107.915 17.3026 108.095 17.1889C108.279 17.0705 108.372 16.8883 108.372 16.642V16.5994C108.372 16.0644 108.213 15.6501 107.896 15.3565C107.579 15.063 107.122 14.9162 106.525 14.9162C105.895 14.9162 105.396 15.0535 105.027 15.3281C104.662 15.6027 104.416 15.9271 104.288 16.3011L101.887 15.9602C102.077 15.2973 102.389 14.7434 102.825 14.2983C103.261 13.8485 103.793 13.5123 104.423 13.2898C105.053 13.0625 105.749 12.9489 106.511 12.9489C107.037 12.9489 107.56 13.0104 108.081 13.1335C108.601 13.2566 109.077 13.4602 109.508 13.7443C109.939 14.0237 110.285 14.4048 110.545 14.8878C110.81 15.3707 110.943 15.9744 110.943 16.6989V24H108.471V22.5014H108.386C108.23 22.8045 108.01 23.0885 107.725 23.3537C107.446 23.6141 107.093 23.8248 106.667 23.9858C106.246 24.142 105.751 24.2202 105.183 24.2202ZM105.85 22.331C106.367 22.331 106.814 22.2292 107.193 22.0256C107.572 21.8172 107.863 21.5426 108.066 21.2017C108.275 20.8608 108.379 20.4891 108.379 20.0866V18.8011C108.298 18.8674 108.161 18.929 107.967 18.9858C107.778 19.0426 107.565 19.0923 107.328 19.1349C107.091 19.1776 106.857 19.2154 106.625 19.2486C106.393 19.2817 106.191 19.3101 106.021 19.3338C105.637 19.3859 105.294 19.4711 104.991 19.5895C104.688 19.7079 104.449 19.8736 104.274 20.0866C104.099 20.295 104.011 20.5649 104.011 20.8963C104.011 21.3698 104.184 21.7273 104.529 21.9688C104.875 22.2102 105.315 22.331 105.85 22.331ZM117.963 11.6634V9.45455H129.569V11.6634H125.073V24H122.459V11.6634H117.963ZM134.94 24.2131C133.846 24.2131 132.901 23.9858 132.106 23.5312C131.315 23.072 130.707 22.4233 130.281 21.5852C129.854 20.7424 129.641 19.7505 129.641 18.6094C129.641 17.4872 129.854 16.5024 130.281 15.6548C130.711 14.8026 131.313 14.1397 132.085 13.6662C132.856 13.188 133.763 12.9489 134.805 12.9489C135.477 12.9489 136.112 13.0578 136.708 13.2756C137.309 13.4886 137.84 13.8201 138.299 14.2699C138.763 14.7197 139.128 15.2926 139.393 15.9886C139.658 16.6799 139.79 17.5038 139.79 18.4602V19.2486H130.849V17.5156H137.326C137.321 17.0232 137.215 16.5852 137.006 16.2017C136.798 15.8134 136.507 15.508 136.133 15.2855C135.763 15.063 135.333 14.9517 134.84 14.9517C134.315 14.9517 133.853 15.0795 133.455 15.3352C133.058 15.5862 132.747 15.9176 132.525 16.3295C132.307 16.7367 132.196 17.1842 132.191 17.6719V19.1847C132.191 19.8191 132.307 20.3636 132.539 20.8182C132.771 21.268 133.095 21.6136 133.512 21.8551C133.929 22.0919 134.416 22.2102 134.975 22.2102C135.349 22.2102 135.688 22.1581 135.991 22.054C136.294 21.9451 136.557 21.7865 136.779 21.5781C137.002 21.3698 137.17 21.1117 137.283 20.804L139.684 21.0739C139.532 21.7083 139.244 22.2623 138.817 22.7358C138.396 23.2045 137.856 23.5691 137.198 23.8295C136.54 24.0852 135.787 24.2131 134.94 24.2131ZM146.724 24.2131C145.635 24.2131 144.7 23.974 143.919 23.4957C143.142 23.0175 142.543 22.357 142.122 21.5142C141.705 20.6667 141.497 19.6913 141.497 18.5881C141.497 17.4801 141.71 16.5024 142.136 15.6548C142.562 14.8026 143.163 14.1397 143.94 13.6662C144.721 13.188 145.645 12.9489 146.71 12.9489C147.595 12.9489 148.379 13.1122 149.061 13.4389C149.747 13.7609 150.294 14.2178 150.701 14.8097C151.109 15.3968 151.341 16.0833 151.397 16.8693H148.94C148.841 16.3437 148.604 15.9058 148.23 15.5554C147.86 15.2003 147.366 15.0227 146.745 15.0227C146.22 15.0227 145.758 15.1648 145.36 15.4489C144.963 15.7282 144.653 16.1307 144.43 16.6562C144.212 17.1818 144.103 17.8116 144.103 18.5455C144.103 19.2888 144.212 19.928 144.43 20.4631C144.648 20.9934 144.953 21.4029 145.346 21.6918C145.744 21.9759 146.21 22.1179 146.745 22.1179C147.124 22.1179 147.463 22.0469 147.761 21.9048C148.064 21.758 148.317 21.5473 148.521 21.2727C148.725 20.9981 148.864 20.6643 148.94 20.2713H151.397C151.336 21.0431 151.109 21.7273 150.716 22.3239C150.323 22.9157 149.788 23.3797 149.11 23.7159C148.433 24.0473 147.638 24.2131 146.724 24.2131ZM156.08 17.608V24H153.509V13.0909H155.966V14.9446H156.094C156.345 14.3338 156.745 13.8485 157.294 13.4886C157.848 13.1288 158.532 12.9489 159.347 12.9489C160.099 12.9489 160.755 13.1098 161.314 13.4318C161.877 13.7538 162.313 14.2202 162.621 14.831C162.933 15.4418 163.087 16.1828 163.082 17.054V24H160.511V17.4517C160.511 16.7225 160.322 16.152 159.943 15.7401C159.569 15.3281 159.051 15.1222 158.388 15.1222C157.938 15.1222 157.538 15.2216 157.188 15.4205C156.842 15.6146 156.57 15.8963 156.371 16.2656C156.177 16.6349 156.08 17.0824 156.08 17.608ZM165.696 24V13.0909H168.267V24H165.696ZM166.989 11.5426C166.581 11.5426 166.231 11.4077 165.938 11.1378C165.644 10.8632 165.497 10.5341 165.497 10.1506C165.497 9.76231 165.644 9.43324 165.938 9.16335C166.231 8.88873 166.581 8.75142 166.989 8.75142C167.401 8.75142 167.751 8.88873 168.04 9.16335C168.333 9.43324 168.48 9.76231 168.48 10.1506C168.48 10.5341 168.333 10.8632 168.04 11.1378C167.751 11.4077 167.401 11.5426 166.989 11.5426ZM175.669 24.2131C174.58 24.2131 173.645 23.974 172.864 23.4957C172.087 23.0175 171.489 22.357 171.067 21.5142C170.65 20.6667 170.442 19.6913 170.442 18.5881C170.442 17.4801 170.655 16.5024 171.081 15.6548C171.507 14.8026 172.109 14.1397 172.885 13.6662C173.667 13.188 174.59 12.9489 175.655 12.9489C176.541 12.9489 177.324 13.1122 178.006 13.4389C178.693 13.7609 179.239 14.2178 179.647 14.8097C180.054 15.3968 180.286 16.0833 180.343 16.8693H177.885C177.786 16.3437 177.549 15.9058 177.175 15.5554C176.806 15.2003 176.311 15.0227 175.691 15.0227C175.165 15.0227 174.703 15.1648 174.306 15.4489C173.908 15.7282 173.598 16.1307 173.375 16.6562C173.158 17.1818 173.049 17.8116 173.049 18.5455C173.049 19.2888 173.158 19.928 173.375 20.4631C173.593 20.9934 173.899 21.4029 174.292 21.6918C174.689 21.9759 175.156 22.1179 175.691 22.1179C176.069 22.1179 176.408 22.0469 176.706 21.9048C177.009 21.758 177.263 21.5473 177.466 21.2727C177.67 20.9981 177.81 20.6643 177.885 20.2713H180.343C180.281 21.0431 180.054 21.7273 179.661 22.3239C179.268 22.9157 178.733 23.3797 178.056 23.7159C177.379 24.0473 176.583 24.2131 175.669 24.2131ZM185.593 24.2202C184.902 24.2202 184.279 24.0971 183.725 23.8509C183.176 23.5999 182.74 23.2306 182.418 22.7429C182.101 22.2552 181.942 21.6539 181.942 20.9389C181.942 20.3234 182.056 19.8144 182.283 19.4119C182.511 19.0095 182.821 18.6875 183.214 18.446C183.607 18.2045 184.049 18.0223 184.542 17.8991C185.039 17.7713 185.553 17.679 186.083 17.6222C186.722 17.5559 187.241 17.4967 187.638 17.4446C188.036 17.3878 188.325 17.3026 188.505 17.1889C188.69 17.0705 188.782 16.8883 188.782 16.642V16.5994C188.782 16.0644 188.623 15.6501 188.306 15.3565C187.989 15.063 187.532 14.9162 186.935 14.9162C186.306 14.9162 185.806 15.0535 185.437 15.3281C185.072 15.6027 184.826 15.9271 184.698 16.3011L182.298 15.9602C182.487 15.2973 182.799 14.7434 183.235 14.2983C183.671 13.8485 184.203 13.5123 184.833 13.2898C185.463 13.0625 186.159 12.9489 186.921 12.9489C187.447 12.9489 187.97 13.0104 188.491 13.1335C189.012 13.2566 189.487 13.4602 189.918 13.7443C190.349 14.0237 190.695 14.4048 190.955 14.8878C191.22 15.3707 191.353 15.9744 191.353 16.6989V24H188.881V22.5014H188.796C188.64 22.8045 188.42 23.0885 188.136 23.3537C187.856 23.6141 187.504 23.8248 187.077 23.9858C186.656 24.142 186.161 24.2202 185.593 24.2202ZM186.261 22.331C186.777 22.331 187.224 22.2292 187.603 22.0256C187.982 21.8172 188.273 21.5426 188.477 21.2017C188.685 20.8608 188.789 20.4891 188.789 20.0866V18.8011C188.709 18.8674 188.571 18.929 188.377 18.9858C188.188 19.0426 187.975 19.0923 187.738 19.1349C187.501 19.1776 187.267 19.2154 187.035 19.2486C186.803 19.2817 186.602 19.3101 186.431 19.3338C186.048 19.3859 185.704 19.4711 185.401 19.5895C185.098 19.7079 184.859 19.8736 184.684 20.0866C184.509 20.295 184.421 20.5649 184.421 20.8963C184.421 21.3698 184.594 21.7273 184.94 21.9688C185.285 22.2102 185.726 22.331 186.261 22.331ZM205.511 15.669V17.7855H198.963V15.669H205.511ZM213.29 24V9.45455H215.925V21.7912H222.331V24H213.29ZM227.644 24.2202C226.953 24.2202 226.33 24.0971 225.776 23.8509C225.227 23.5999 224.791 23.2306 224.469 22.7429C224.152 22.2552 223.993 21.6539 223.993 20.9389C223.993 20.3234 224.107 19.8144 224.334 19.4119C224.561 19.0095 224.872 18.6875 225.265 18.446C225.658 18.2045 226.1 18.0223 226.593 17.8991C227.09 17.7713 227.604 17.679 228.134 17.6222C228.773 17.5559 229.292 17.4967 229.689 17.4446C230.087 17.3878 230.376 17.3026 230.556 17.1889C230.74 17.0705 230.833 16.8883 230.833 16.642V16.5994C230.833 16.0644 230.674 15.6501 230.357 15.3565C230.04 15.063 229.583 14.9162 228.986 14.9162C228.356 14.9162 227.857 15.0535 227.488 15.3281C227.123 15.6027 226.877 15.9271 226.749 16.3011L224.348 15.9602C224.538 15.2973 224.85 14.7434 225.286 14.2983C225.721 13.8485 226.254 13.5123 226.884 13.2898C227.514 13.0625 228.21 12.9489 228.972 12.9489C229.498 12.9489 230.021 13.0104 230.542 13.1335C231.062 13.2566 231.538 13.4602 231.969 13.7443C232.4 14.0237 232.746 14.4048 233.006 14.8878C233.271 15.3707 233.404 15.9744 233.404 16.6989V24H230.932V22.5014H230.847C230.691 22.8045 230.471 23.0885 230.186 23.3537C229.907 23.6141 229.554 23.8248 229.128 23.9858C228.707 24.142 228.212 24.2202 227.644 24.2202ZM228.311 22.331C228.828 22.331 229.275 22.2292 229.654 22.0256C230.033 21.8172 230.324 21.5426 230.527 21.2017C230.736 20.8608 230.84 20.4891 230.84 20.0866V18.8011C230.759 18.8674 230.622 18.929 230.428 18.9858C230.239 19.0426 230.025 19.0923 229.789 19.1349C229.552 19.1776 229.318 19.2154 229.086 19.2486C228.854 19.2817 228.652 19.3101 228.482 19.3338C228.098 19.3859 227.755 19.4711 227.452 19.5895C227.149 19.7079 226.91 19.8736 226.735 20.0866C226.56 20.295 226.472 20.5649 226.472 20.8963C226.472 21.3698 226.645 21.7273 226.99 21.9688C227.336 22.2102 227.776 22.331 228.311 22.331ZM235.989 24V13.0909H238.482V14.9091H238.596C238.794 14.2794 239.135 13.794 239.618 13.4531C240.106 13.1075 240.662 12.9347 241.287 12.9347C241.429 12.9347 241.588 12.9418 241.763 12.956C241.943 12.9654 242.092 12.982 242.211 13.0057V15.3707C242.102 15.3329 241.929 15.2997 241.692 15.2713C241.46 15.2382 241.235 15.2216 241.017 15.2216C240.549 15.2216 240.127 15.3234 239.753 15.527C239.384 15.7259 239.093 16.0028 238.88 16.358C238.667 16.7131 238.56 17.1226 238.56 17.5866V24H235.989ZM246.863 24.2202C246.171 24.2202 245.549 24.0971 244.995 23.8509C244.445 23.5999 244.01 23.2306 243.688 22.7429C243.371 22.2552 243.212 21.6539 243.212 20.9389C243.212 20.3234 243.326 19.8144 243.553 19.4119C243.78 19.0095 244.09 18.6875 244.483 18.446C244.876 18.2045 245.319 18.0223 245.811 17.8991C246.309 17.7713 246.822 17.679 247.353 17.6222C247.992 17.5559 248.51 17.4967 248.908 17.4446C249.306 17.3878 249.595 17.3026 249.775 17.1889C249.959 17.0705 250.051 16.8883 250.051 16.642V16.5994C250.051 16.0644 249.893 15.6501 249.576 15.3565C249.258 15.063 248.801 14.9162 248.205 14.9162C247.575 14.9162 247.076 15.0535 246.706 15.3281C246.342 15.6027 246.096 15.9271 245.968 16.3011L243.567 15.9602C243.757 15.2973 244.069 14.7434 244.505 14.2983C244.94 13.8485 245.473 13.5123 246.103 13.2898C246.732 13.0625 247.428 12.9489 248.191 12.9489C248.716 12.9489 249.239 13.0104 249.76 13.1335C250.281 13.2566 250.757 13.4602 251.188 13.7443C251.619 14.0237 251.964 14.4048 252.225 14.8878C252.49 15.3707 252.623 15.9744 252.623 16.6989V24H250.151V22.5014H250.066C249.909 22.8045 249.689 23.0885 249.405 23.3537C249.126 23.6141 248.773 23.8248 248.347 23.9858C247.926 24.142 247.431 24.2202 246.863 24.2202ZM247.53 22.331C248.046 22.331 248.494 22.2292 248.873 22.0256C249.251 21.8172 249.542 21.5426 249.746 21.2017C249.954 20.8608 250.059 20.4891 250.059 20.0866V18.8011C249.978 18.8674 249.841 18.929 249.647 18.9858C249.457 19.0426 249.244 19.0923 249.007 19.1349C248.771 19.1776 248.536 19.2154 248.304 19.2486C248.072 19.2817 247.871 19.3101 247.701 19.3338C247.317 19.3859 246.974 19.4711 246.671 19.5895C246.368 19.7079 246.129 19.8736 245.953 20.0866C245.778 20.295 245.691 20.5649 245.691 20.8963C245.691 21.3698 245.864 21.7273 246.209 21.9688C246.555 22.2102 246.995 22.331 247.53 22.331ZM264.561 13.0909L260.676 24H257.836L253.951 13.0909H256.692L259.199 21.1946H259.313L261.827 13.0909H264.561ZM270.799 24.2131C269.705 24.2131 268.761 23.9858 267.965 23.5312C267.174 23.072 266.566 22.4233 266.14 21.5852C265.714 20.7424 265.501 19.7505 265.501 18.6094C265.501 17.4872 265.714 16.5024 266.14 15.6548C266.571 14.8026 267.172 14.1397 267.944 13.6662C268.716 13.188 269.622 12.9489 270.664 12.9489C271.336 12.9489 271.971 13.0578 272.567 13.2756C273.169 13.4886 273.699 13.8201 274.158 14.2699C274.622 14.7197 274.987 15.2926 275.252 15.9886C275.517 16.6799 275.65 17.5038 275.65 18.4602V19.2486H266.708V17.5156H273.185C273.181 17.0232 273.074 16.5852 272.866 16.2017C272.657 15.8134 272.366 15.508 271.992 15.2855C271.623 15.063 271.192 14.9517 270.7 14.9517C270.174 14.9517 269.712 15.0795 269.315 15.3352C268.917 15.5862 268.607 15.9176 268.384 16.3295C268.166 16.7367 268.055 17.1842 268.05 17.6719V19.1847C268.05 19.8191 268.166 20.3636 268.398 20.8182C268.63 21.268 268.955 21.6136 269.371 21.8551C269.788 22.0919 270.276 22.2102 270.835 22.2102C271.209 22.2102 271.547 22.1581 271.85 22.054C272.153 21.9451 272.416 21.7865 272.638 21.5781C272.861 21.3698 273.029 21.1117 273.143 20.804L275.543 21.0739C275.392 21.7083 275.103 22.2623 274.677 22.7358C274.255 23.2045 273.716 23.5691 273.058 23.8295C272.399 24.0852 271.647 24.2131 270.799 24.2131ZM280.396 9.45455V24H277.825V9.45455H280.396Z" fill="white"/>
</svg>
