<svg width="265" height="34" viewBox="0 0 265 34" fill="none" xmlns="http://www.w3.org/2000/svg">
<path d="M3.30256 24H0.490057L5.6108 9.45455H8.86364L13.9915 24H11.179L7.29403 12.4375H7.1804L3.30256 24ZM3.39489 18.2969H11.0653V20.4134H3.39489V18.2969ZM24.2401 15.9744L21.8963 16.2301C21.83 15.9934 21.714 15.7708 21.5483 15.5625C21.3873 15.3542 21.1695 15.1861 20.8949 15.0582C20.6203 14.9304 20.2841 14.8665 19.8864 14.8665C19.3513 14.8665 18.9015 14.9825 18.5369 15.2145C18.1771 15.4465 17.9995 15.7472 18.0043 16.1165C17.9995 16.4337 18.1155 16.6918 18.3523 16.8906C18.5938 17.0895 18.9915 17.2528 19.5455 17.3807L21.4062 17.7784C22.4384 18.0009 23.2055 18.3537 23.7074 18.8366C24.214 19.3196 24.4697 19.9517 24.4744 20.733C24.4697 21.4195 24.2685 22.0256 23.8707 22.5511C23.4777 23.072 22.9309 23.4792 22.2301 23.7727C21.5294 24.0663 20.7244 24.2131 19.8153 24.2131C18.4801 24.2131 17.4053 23.9337 16.5909 23.375C15.7765 22.8116 15.2912 22.0279 15.1349 21.0241L17.642 20.7827C17.7557 21.2751 17.9972 21.6468 18.3665 21.8977C18.7358 22.1487 19.2164 22.2741 19.8082 22.2741C20.419 22.2741 20.9091 22.1487 21.2784 21.8977C21.6525 21.6468 21.8395 21.3366 21.8395 20.9673C21.8395 20.6548 21.7188 20.3968 21.4773 20.1932C21.2405 19.9896 20.8712 19.8333 20.3693 19.7244L18.5085 19.3338C17.4621 19.116 16.688 18.7491 16.1861 18.233C15.6842 17.7121 15.4356 17.054 15.4403 16.2585C15.4356 15.5862 15.6179 15.0038 15.9872 14.5114C16.3613 14.0142 16.8797 13.6307 17.5426 13.3608C18.2102 13.0862 18.9796 12.9489 19.8509 12.9489C21.1293 12.9489 22.1354 13.2211 22.8693 13.7656C23.608 14.3101 24.0649 15.0464 24.2401 15.9744ZM35.2166 15.9744L32.8729 16.2301C32.8066 15.9934 32.6906 15.7708 32.5249 15.5625C32.3639 15.3542 32.1461 15.1861 31.8714 15.0582C31.5968 14.9304 31.2607 14.8665 30.8629 14.8665C30.3279 14.8665 29.8781 14.9825 29.5135 15.2145C29.1536 15.4465 28.9761 15.7472 28.9808 16.1165C28.9761 16.4337 29.0921 16.6918 29.3288 16.8906C29.5703 17.0895 29.968 17.2528 30.522 17.3807L32.3828 17.7784C33.415 18.0009 34.1821 18.3537 34.6839 18.8366C35.1906 19.3196 35.4463 19.9517 35.451 20.733C35.4463 21.4195 35.245 22.0256 34.8473 22.5511C34.4543 23.072 33.9074 23.4792 33.2067 23.7727C32.5059 24.0663 31.701 24.2131 30.7919 24.2131C29.4567 24.2131 28.3819 23.9337 27.5675 23.375C26.7531 22.8116 26.2678 22.0279 26.1115 21.0241L28.6186 20.7827C28.7322 21.2751 28.9737 21.6468 29.343 21.8977C29.7124 22.1487 30.1929 22.2741 30.7848 22.2741C31.3956 22.2741 31.8857 22.1487 32.255 21.8977C32.629 21.6468 32.8161 21.3366 32.8161 20.9673C32.8161 20.6548 32.6953 20.3968 32.4538 20.1932C32.2171 19.9896 31.8478 19.8333 31.3459 19.7244L29.4851 19.3338C28.4387 19.116 27.6645 18.7491 27.1626 18.233C26.6607 17.7121 26.4122 17.054 26.4169 16.2585C26.4122 15.5862 26.5945 15.0038 26.9638 14.5114C27.3378 14.0142 27.8563 13.6307 28.5192 13.3608C29.1868 13.0862 29.9562 12.9489 30.8274 12.9489C32.1058 12.9489 33.112 13.2211 33.8459 13.7656C34.5845 14.3101 35.0414 15.0464 35.2166 15.9744ZM37.571 24V13.0909H40.142V24H37.571ZM38.8636 11.5426C38.4564 11.5426 38.1061 11.4077 37.8125 11.1378C37.5189 10.8632 37.3722 10.5341 37.3722 10.1506C37.3722 9.76231 37.5189 9.43324 37.8125 9.16335C38.1061 8.88873 38.4564 8.75142 38.8636 8.75142C39.2756 8.75142 39.6259 8.88873 39.9148 9.16335C40.2083 9.43324 40.3551 9.76231 40.3551 10.1506C40.3551 10.5341 40.2083 10.8632 39.9148 11.1378C39.6259 11.4077 39.2756 11.5426 38.8636 11.5426ZM48.2333 13.0909V15.0795H41.962V13.0909H48.2333ZM43.5103 10.4773H46.0813V20.7188C46.0813 21.0644 46.1334 21.3295 46.2376 21.5142C46.3465 21.6941 46.4885 21.8172 46.6637 21.8835C46.8389 21.9498 47.033 21.983 47.2461 21.983C47.4071 21.983 47.5539 21.9711 47.6864 21.9474C47.8237 21.9238 47.9279 21.9025 47.9989 21.8835L48.4322 23.8935C48.2949 23.9408 48.0984 23.9929 47.8427 24.0497C47.5917 24.1065 47.284 24.1397 46.9194 24.1491C46.2754 24.1681 45.6954 24.071 45.1793 23.858C44.6632 23.6402 44.2537 23.304 43.9506 22.8494C43.6523 22.3949 43.5056 21.8267 43.5103 21.1449V10.4773ZM55.0959 24.2131C54.0021 24.2131 53.0575 23.9858 52.2621 23.5312C51.4714 23.072 50.8629 22.4233 50.4368 21.5852C50.0107 20.7424 49.7976 19.7505 49.7976 18.6094C49.7976 17.4872 50.0107 16.5024 50.4368 15.6548C50.8677 14.8026 51.469 14.1397 52.2408 13.6662C53.0125 13.188 53.9193 12.9489 54.9609 12.9489C55.6333 12.9489 56.2678 13.0578 56.8643 13.2756C57.4657 13.4886 57.996 13.8201 58.4553 14.2699C58.9193 14.7197 59.2839 15.2926 59.549 15.9886C59.8142 16.6799 59.9467 17.5038 59.9467 18.4602V19.2486H51.005V17.5156H57.4822C57.4775 17.0232 57.371 16.5852 57.1626 16.2017C56.9543 15.8134 56.6631 15.508 56.2891 15.2855C55.9197 15.063 55.4889 14.9517 54.9964 14.9517C54.4709 14.9517 54.0092 15.0795 53.6115 15.3352C53.2138 15.5862 52.9036 15.9176 52.6811 16.3295C52.4633 16.7367 52.352 17.1842 52.3473 17.6719V19.1847C52.3473 19.8191 52.4633 20.3636 52.6953 20.8182C52.9273 21.268 53.2517 21.6136 53.6683 21.8551C54.085 22.0919 54.5727 22.2102 55.1314 22.2102C55.5054 22.2102 55.844 22.1581 56.147 22.054C56.45 21.9451 56.7128 21.7865 56.9354 21.5781C57.1579 21.3698 57.326 21.1117 57.4396 20.804L59.8402 21.0739C59.6887 21.7083 59.3999 22.2623 58.9737 22.7358C58.5523 23.2045 58.0125 23.5691 57.3544 23.8295C56.6963 24.0852 55.9434 24.2131 55.0959 24.2131ZM64.6928 17.608V24H62.1218V13.0909H64.5792V14.9446H64.707C64.958 14.3338 65.3581 13.8485 65.9073 13.4886C66.4613 13.1288 67.1455 12.9489 67.9599 12.9489C68.7127 12.9489 69.3685 13.1098 69.9272 13.4318C70.4906 13.7538 70.9263 14.2202 71.234 14.831C71.5465 15.4418 71.7004 16.1828 71.6957 17.054V24H69.1246V17.4517C69.1246 16.7225 68.9353 16.152 68.5565 15.7401C68.1824 15.3281 67.6639 15.1222 67.0011 15.1222C66.5513 15.1222 66.1512 15.2216 65.8008 15.4205C65.4551 15.6146 65.1829 15.8963 64.984 16.2656C64.7899 16.6349 64.6928 17.0824 64.6928 17.608ZM79.0678 24.2131C77.9788 24.2131 77.0437 23.974 76.2624 23.4957C75.4859 23.0175 74.887 22.357 74.4656 21.5142C74.0489 20.6667 73.8406 19.6913 73.8406 18.5881C73.8406 17.4801 74.0536 16.5024 74.4798 15.6548C74.9059 14.8026 75.5072 14.1397 76.2837 13.6662C77.065 13.188 77.9883 12.9489 79.0536 12.9489C79.939 12.9489 80.7227 13.1122 81.4045 13.4389C82.091 13.7609 82.6379 14.2178 83.0451 14.8097C83.4523 15.3968 83.6843 16.0833 83.7411 16.8693H81.2837C81.1843 16.3437 80.9476 15.9058 80.5735 15.5554C80.2042 15.2003 79.7094 15.0227 79.0891 15.0227C78.5636 15.0227 78.1019 15.1648 77.7042 15.4489C77.3065 15.7282 76.9963 16.1307 76.7738 16.6562C76.556 17.1818 76.4471 17.8116 76.4471 18.5455C76.4471 19.2888 76.556 19.928 76.7738 20.4631C76.9916 20.9934 77.297 21.4029 77.69 21.6918C78.0877 21.9759 78.5541 22.1179 79.0891 22.1179C79.4679 22.1179 79.8065 22.0469 80.1048 21.9048C80.4078 21.758 80.6611 21.5473 80.8647 21.2727C81.0683 20.9981 81.208 20.6643 81.2837 20.2713H83.7411C83.6796 21.0431 83.4523 21.7273 83.0593 22.3239C82.6663 22.9157 82.1313 23.3797 81.4542 23.7159C80.7771 24.0473 79.9817 24.2131 79.0678 24.2131ZM85.8523 24V13.0909H88.4233V24H85.8523ZM87.1449 11.5426C86.7377 11.5426 86.3873 11.4077 86.0938 11.1378C85.8002 10.8632 85.6534 10.5341 85.6534 10.1506C85.6534 9.76231 85.8002 9.43324 86.0938 9.16335C86.3873 8.88873 86.7377 8.75142 87.1449 8.75142C87.5568 8.75142 87.9072 8.88873 88.196 9.16335C88.4896 9.43324 88.6364 9.76231 88.6364 10.1506C88.6364 10.5341 88.4896 10.8632 88.196 11.1378C87.9072 11.4077 87.5568 11.5426 87.1449 11.5426ZM94.2063 24.2202C93.515 24.2202 92.8924 24.0971 92.3384 23.8509C91.7892 23.5999 91.3536 23.2306 91.0316 22.7429C90.7144 22.2552 90.5558 21.6539 90.5558 20.9389C90.5558 20.3234 90.6694 19.8144 90.8967 19.4119C91.1239 19.0095 91.4341 18.6875 91.8271 18.446C92.2201 18.2045 92.6628 18.0223 93.1552 17.8991C93.6523 17.7713 94.1661 17.679 94.6964 17.6222C95.3356 17.5559 95.854 17.4967 96.2518 17.4446C96.6495 17.3878 96.9383 17.3026 97.1183 17.1889C97.3029 17.0705 97.3952 16.8883 97.3952 16.642V16.5994C97.3952 16.0644 97.2366 15.6501 96.9194 15.3565C96.6022 15.063 96.1452 14.9162 95.5487 14.9162C94.9189 14.9162 94.4194 15.0535 94.0501 15.3281C93.6855 15.6027 93.4393 15.9271 93.3114 16.3011L90.9109 15.9602C91.1003 15.2973 91.4128 14.7434 91.8484 14.2983C92.284 13.8485 92.8166 13.5123 93.4464 13.2898C94.0761 13.0625 94.7721 12.9489 95.5344 12.9489C96.06 12.9489 96.5832 13.0104 97.104 13.1335C97.6249 13.2566 98.1007 13.4602 98.5316 13.7443C98.9625 14.0237 99.3081 14.4048 99.5685 14.8878C99.8337 15.3707 99.9663 15.9744 99.9663 16.6989V24H97.4947V22.5014H97.4094C97.2532 22.8045 97.033 23.0885 96.7489 23.3537C96.4696 23.6141 96.1168 23.8248 95.6907 23.9858C95.2693 24.142 94.7745 24.2202 94.2063 24.2202ZM94.8739 22.331C95.39 22.331 95.8375 22.2292 96.2163 22.0256C96.5951 21.8172 96.8862 21.5426 97.0898 21.2017C97.2982 20.8608 97.4023 20.4891 97.4023 20.0866V18.8011C97.3219 18.8674 97.1845 18.929 96.9904 18.9858C96.801 19.0426 96.5879 19.0923 96.3512 19.1349C96.1145 19.1776 95.8801 19.2154 95.6481 19.2486C95.4161 19.2817 95.2148 19.3101 95.0444 19.3338C94.6609 19.3859 94.3176 19.4711 94.0146 19.5895C93.7115 19.7079 93.4724 19.8736 93.2972 20.0866C93.122 20.295 93.0344 20.5649 93.0344 20.8963C93.0344 21.3698 93.2073 21.7273 93.5529 21.9688C93.8986 22.2102 94.3389 22.331 94.8739 22.331ZM106.987 11.6634V9.45455H118.592V11.6634H114.096V24H111.483V11.6634H106.987ZM123.963 24.2131C122.869 24.2131 121.925 23.9858 121.129 23.5312C120.339 23.072 119.73 22.4233 119.304 21.5852C118.878 20.7424 118.665 19.7505 118.665 18.6094C118.665 17.4872 118.878 16.5024 119.304 15.6548C119.735 14.8026 120.336 14.1397 121.108 13.6662C121.88 13.188 122.786 12.9489 123.828 12.9489C124.5 12.9489 125.135 13.0578 125.732 13.2756C126.333 13.4886 126.863 13.8201 127.322 14.2699C127.786 14.7197 128.151 15.2926 128.416 15.9886C128.681 16.6799 128.814 17.5038 128.814 18.4602V19.2486H119.872V17.5156H126.349C126.345 17.0232 126.238 16.5852 126.03 16.2017C125.821 15.8134 125.53 15.508 125.156 15.2855C124.787 15.063 124.356 14.9517 123.864 14.9517C123.338 14.9517 122.876 15.0795 122.479 15.3352C122.081 15.5862 121.771 15.9176 121.548 16.3295C121.33 16.7367 121.219 17.1842 121.214 17.6719V19.1847C121.214 19.8191 121.33 20.3636 121.562 20.8182C121.795 21.268 122.119 21.6136 122.536 21.8551C122.952 22.0919 123.44 22.2102 123.999 22.2102C124.373 22.2102 124.711 22.1581 125.014 22.054C125.317 21.9451 125.58 21.7865 125.803 21.5781C126.025 21.3698 126.193 21.1117 126.307 20.804L128.707 21.0739C128.556 21.7083 128.267 22.2623 127.841 22.7358C127.42 23.2045 126.88 23.5691 126.222 23.8295C125.563 24.0852 124.811 24.2131 123.963 24.2131ZM135.748 24.2131C134.658 24.2131 133.723 23.974 132.942 23.4957C132.166 23.0175 131.567 22.357 131.145 21.5142C130.729 20.6667 130.52 19.6913 130.52 18.5881C130.52 17.4801 130.733 16.5024 131.159 15.6548C131.586 14.8026 132.187 14.1397 132.963 13.6662C133.745 13.188 134.668 12.9489 135.733 12.9489C136.619 12.9489 137.402 13.1122 138.084 13.4389C138.771 13.7609 139.318 14.2178 139.725 14.8097C140.132 15.3968 140.364 16.0833 140.421 16.8693H137.963C137.864 16.3437 137.627 15.9058 137.253 15.5554C136.884 15.2003 136.389 15.0227 135.769 15.0227C135.243 15.0227 134.782 15.1648 134.384 15.4489C133.986 15.7282 133.676 16.1307 133.453 16.6562C133.236 17.1818 133.127 17.8116 133.127 18.5455C133.127 19.2888 133.236 19.928 133.453 20.4631C133.671 20.9934 133.977 21.4029 134.37 21.6918C134.767 21.9759 135.234 22.1179 135.769 22.1179C136.148 22.1179 136.486 22.0469 136.784 21.9048C137.087 21.758 137.341 21.5473 137.544 21.2727C137.748 20.9981 137.888 20.6643 137.963 20.2713H140.421C140.359 21.0431 140.132 21.7273 139.739 22.3239C139.346 22.9157 138.811 23.3797 138.134 23.7159C137.457 24.0473 136.661 24.2131 135.748 24.2131ZM145.103 17.608V24H142.532V13.0909H144.989V14.9446H145.117C145.368 14.3338 145.768 13.8485 146.317 13.4886C146.871 13.1288 147.556 12.9489 148.37 12.9489C149.123 12.9489 149.779 13.1098 150.337 13.4318C150.901 13.7538 151.336 14.2202 151.644 14.831C151.957 15.4418 152.111 16.1828 152.106 17.054V24H149.535V17.4517C149.535 16.7225 149.345 16.152 148.967 15.7401C148.593 15.3281 148.074 15.1222 147.411 15.1222C146.961 15.1222 146.561 15.2216 146.211 15.4205C145.865 15.6146 145.593 15.8963 145.394 16.2656C145.2 16.6349 145.103 17.0824 145.103 17.608ZM154.719 24V13.0909H157.29V24H154.719ZM156.012 11.5426C155.605 11.5426 155.254 11.4077 154.961 11.1378C154.667 10.8632 154.521 10.5341 154.521 10.1506C154.521 9.76231 154.667 9.43324 154.961 9.16335C155.254 8.88873 155.605 8.75142 156.012 8.75142C156.424 8.75142 156.774 8.88873 157.063 9.16335C157.357 9.43324 157.504 9.76231 157.504 10.1506C157.504 10.5341 157.357 10.8632 157.063 11.1378C156.774 11.4077 156.424 11.5426 156.012 11.5426ZM164.693 24.2131C163.604 24.2131 162.669 23.974 161.887 23.4957C161.111 23.0175 160.512 22.357 160.091 21.5142C159.674 20.6667 159.466 19.6913 159.466 18.5881C159.466 17.4801 159.679 16.5024 160.105 15.6548C160.531 14.8026 161.132 14.1397 161.909 13.6662C162.69 13.188 163.613 12.9489 164.679 12.9489C165.564 12.9489 166.348 13.1122 167.029 13.4389C167.716 13.7609 168.263 14.2178 168.67 14.8097C169.077 15.3968 169.309 16.0833 169.366 16.8693H166.909C166.809 16.3437 166.573 15.9058 166.199 15.5554C165.829 15.2003 165.334 15.0227 164.714 15.0227C164.189 15.0227 163.727 15.1648 163.329 15.4489C162.931 15.7282 162.621 16.1307 162.399 16.6562C162.181 17.1818 162.072 17.8116 162.072 18.5455C162.072 19.2888 162.181 19.928 162.399 20.4631C162.617 20.9934 162.922 21.4029 163.315 21.6918C163.713 21.9759 164.179 22.1179 164.714 22.1179C165.093 22.1179 165.431 22.0469 165.73 21.9048C166.033 21.758 166.286 21.5473 166.49 21.2727C166.693 20.9981 166.833 20.6643 166.909 20.2713H169.366C169.305 21.0431 169.077 21.7273 168.684 22.3239C168.291 22.9157 167.756 23.3797 167.079 23.7159C166.402 24.0473 165.607 24.2131 164.693 24.2131ZM174.616 24.2202C173.925 24.2202 173.303 24.0971 172.749 23.8509C172.199 23.5999 171.764 23.2306 171.442 22.7429C171.125 22.2552 170.966 21.6539 170.966 20.9389C170.966 20.3234 171.08 19.8144 171.307 19.4119C171.534 19.0095 171.844 18.6875 172.237 18.446C172.63 18.2045 173.073 18.0223 173.565 17.8991C174.063 17.7713 174.576 17.679 175.107 17.6222C175.746 17.5559 176.264 17.4967 176.662 17.4446C177.06 17.3878 177.348 17.3026 177.528 17.1889C177.713 17.0705 177.805 16.8883 177.805 16.642V16.5994C177.805 16.0644 177.647 15.6501 177.33 15.3565C177.012 15.063 176.555 14.9162 175.959 14.9162C175.329 14.9162 174.83 15.0535 174.46 15.3281C174.096 15.6027 173.849 15.9271 173.722 16.3011L171.321 15.9602C171.51 15.2973 171.823 14.7434 172.259 14.2983C172.694 13.8485 173.227 13.5123 173.857 13.2898C174.486 13.0625 175.182 12.9489 175.945 12.9489C176.47 12.9489 176.993 13.0104 177.514 13.1335C178.035 13.2566 178.511 13.4602 178.942 13.7443C179.373 14.0237 179.718 14.4048 179.979 14.8878C180.244 15.3707 180.376 15.9744 180.376 16.6989V24H177.905V22.5014H177.82C177.663 22.8045 177.443 23.0885 177.159 23.3537C176.88 23.6141 176.527 23.8248 176.101 23.9858C175.679 24.142 175.185 24.2202 174.616 24.2202ZM175.284 22.331C175.8 22.331 176.248 22.2292 176.626 22.0256C177.005 21.8172 177.296 21.5426 177.5 21.2017C177.708 20.8608 177.812 20.4891 177.812 20.0866V18.8011C177.732 18.8674 177.595 18.929 177.401 18.9858C177.211 19.0426 176.998 19.0923 176.761 19.1349C176.525 19.1776 176.29 19.2154 176.058 19.2486C175.826 19.2817 175.625 19.3101 175.455 19.3338C175.071 19.3859 174.728 19.4711 174.425 19.5895C174.122 19.7079 173.883 19.8736 173.707 20.0866C173.532 20.295 173.445 20.5649 173.445 20.8963C173.445 21.3698 173.617 21.7273 173.963 21.9688C174.309 22.2102 174.749 22.331 175.284 22.331ZM194.535 15.669V17.7855H187.987V15.669H194.535ZM210.218 13.4531C210.152 12.8329 209.873 12.3499 209.38 12.0043C208.893 11.6586 208.258 11.4858 207.477 11.4858C206.928 11.4858 206.457 11.5687 206.064 11.7344C205.671 11.9001 205.37 12.125 205.162 12.4091C204.953 12.6932 204.847 13.0175 204.842 13.3821C204.842 13.6851 204.911 13.9479 205.048 14.1705C205.19 14.393 205.382 14.5824 205.623 14.7386C205.865 14.8902 206.132 15.018 206.426 15.1222C206.719 15.2263 207.015 15.3139 207.314 15.3849L208.677 15.7259C209.226 15.8537 209.754 16.0265 210.261 16.2443C210.772 16.4621 211.229 16.7367 211.632 17.0682C212.039 17.3996 212.361 17.7997 212.598 18.2685C212.834 18.7372 212.953 19.2865 212.953 19.9162C212.953 20.7685 212.735 21.5189 212.299 22.1676C211.864 22.8116 211.234 23.3158 210.41 23.6804C209.591 24.0402 208.599 24.2202 207.434 24.2202C206.303 24.2202 205.32 24.045 204.487 23.6946C203.658 23.3442 203.01 22.8329 202.541 22.1605C202.077 21.4882 201.826 20.669 201.788 19.7031H204.38C204.418 20.2098 204.574 20.6312 204.849 20.9673C205.124 21.3035 205.481 21.5545 205.922 21.7202C206.367 21.8859 206.864 21.9688 207.413 21.9688C207.986 21.9688 208.488 21.8835 208.919 21.7131C209.354 21.5379 209.695 21.2964 209.941 20.9886C210.188 20.6761 210.313 20.3116 210.318 19.8949C210.313 19.5161 210.202 19.2036 209.984 18.9574C209.766 18.7064 209.461 18.4981 209.068 18.3324C208.68 18.1619 208.225 18.0104 207.704 17.8778L206.049 17.4517C204.851 17.1439 203.904 16.6776 203.208 16.0526C202.517 15.4228 202.172 14.5871 202.172 13.5455C202.172 12.6884 202.404 11.938 202.868 11.294C203.336 10.6501 203.973 10.1506 204.778 9.79545C205.583 9.43561 206.494 9.25568 207.512 9.25568C208.545 9.25568 209.449 9.43561 210.225 9.79545C211.007 10.1506 211.62 10.6454 212.065 11.2798C212.51 11.9096 212.74 12.634 212.754 13.4531H210.218ZM215.188 28.0909V13.0909H217.717V14.8949H217.866C217.998 14.6297 218.185 14.348 218.427 14.0497C218.668 13.7467 218.995 13.4886 219.407 13.2756C219.819 13.0578 220.344 12.9489 220.984 12.9489C221.826 12.9489 222.586 13.1643 223.263 13.5952C223.945 14.0213 224.485 14.6534 224.883 15.4915C225.285 16.3248 225.487 17.3475 225.487 18.5597C225.487 19.7576 225.29 20.7756 224.897 21.6136C224.504 22.4517 223.969 23.0909 223.292 23.5312C222.615 23.9716 221.848 24.1918 220.991 24.1918C220.366 24.1918 219.847 24.0876 219.435 23.8793C219.023 23.6709 218.692 23.42 218.441 23.1264C218.195 22.8281 218.003 22.5464 217.866 22.2812H217.759V28.0909H215.188ZM217.71 18.5455C217.71 19.2509 217.809 19.8688 218.008 20.3991C218.211 20.9295 218.503 21.3437 218.881 21.642C219.265 21.9356 219.729 22.0824 220.273 22.0824C220.842 22.0824 221.317 21.9309 221.701 21.6278C222.085 21.3201 222.373 20.901 222.567 20.3707C222.766 19.8357 222.866 19.2273 222.866 18.5455C222.866 17.8684 222.769 17.267 222.575 16.7415C222.38 16.2159 222.092 15.804 221.708 15.5057C221.325 15.2074 220.846 15.0582 220.273 15.0582C219.724 15.0582 219.258 15.2027 218.874 15.4915C218.491 15.7803 218.2 16.1851 218.001 16.706C217.807 17.2268 217.71 17.84 217.71 18.5455ZM227.688 24V13.0909H230.181V14.9091H230.295C230.494 14.2794 230.835 13.794 231.317 13.4531C231.805 13.1075 232.362 12.9347 232.987 12.9347C233.129 12.9347 233.287 12.9418 233.462 12.956C233.642 12.9654 233.791 12.982 233.91 13.0057V15.3707C233.801 15.3329 233.628 15.2997 233.391 15.2713C233.159 15.2382 232.934 15.2216 232.717 15.2216C232.248 15.2216 231.826 15.3234 231.452 15.527C231.083 15.7259 230.792 16.0028 230.579 16.358C230.366 16.7131 230.259 17.1226 230.259 17.5866V24H227.688ZM235.618 24V13.0909H238.189V24H235.618ZM236.911 11.5426C236.503 11.5426 236.153 11.4077 235.859 11.1378C235.566 10.8632 235.419 10.5341 235.419 10.1506C235.419 9.76231 235.566 9.43324 235.859 9.16335C236.153 8.88873 236.503 8.75142 236.911 8.75142C237.322 8.75142 237.673 8.88873 237.962 9.16335C238.255 9.43324 238.402 9.76231 238.402 10.1506C238.402 10.5341 238.255 10.8632 237.962 11.1378C237.673 11.4077 237.322 11.5426 236.911 11.5426ZM243.404 17.608V24H240.833V13.0909H243.29V14.9446H243.418C243.669 14.3338 244.069 13.8485 244.618 13.4886C245.172 13.1288 245.856 12.9489 246.671 12.9489C247.424 12.9489 248.079 13.1098 248.638 13.4318C249.202 13.7538 249.637 14.2202 249.945 14.831C250.257 15.4418 250.411 16.1828 250.407 17.054V24H247.836V17.4517C247.836 16.7225 247.646 16.152 247.267 15.7401C246.893 15.3281 246.375 15.1222 245.712 15.1222C245.262 15.1222 244.862 15.2216 244.512 15.4205C244.166 15.6146 243.894 15.8963 243.695 16.2656C243.501 16.6349 243.404 17.0824 243.404 17.608ZM257.765 28.3182C256.841 28.3182 256.048 28.1927 255.385 27.9418C254.722 27.6955 254.19 27.3641 253.787 26.9474C253.385 26.5308 253.105 26.0691 252.949 25.5625L255.265 25.0014C255.369 25.2145 255.52 25.4252 255.719 25.6335C255.918 25.8466 256.185 26.0218 256.522 26.1591C256.863 26.3011 257.291 26.3722 257.807 26.3722C258.536 26.3722 259.14 26.1946 259.618 25.8395C260.096 25.4891 260.336 24.9115 260.336 24.1065V22.0398H260.208C260.075 22.3049 259.881 22.5772 259.625 22.8565C259.374 23.1359 259.041 23.3703 258.624 23.5597C258.212 23.7491 257.694 23.8438 257.069 23.8438C256.23 23.8438 255.471 23.6473 254.789 23.2543C254.112 22.8565 253.572 22.2647 253.169 21.4787C252.772 20.688 252.573 19.6984 252.573 18.5099C252.573 17.312 252.772 16.3011 253.169 15.4773C253.572 14.6487 254.114 14.0213 254.796 13.5952C255.478 13.1643 256.238 12.9489 257.076 12.9489C257.715 12.9489 258.24 13.0578 258.652 13.2756C259.069 13.4886 259.4 13.7467 259.647 14.0497C259.893 14.348 260.08 14.6297 260.208 14.8949H260.35V13.0909H262.885V24.1776C262.885 25.1103 262.663 25.8821 262.218 26.4929C261.773 27.1037 261.164 27.5606 260.392 27.8636C259.621 28.1667 258.745 28.3182 257.765 28.3182ZM257.786 21.8267C258.33 21.8267 258.794 21.6941 259.178 21.429C259.561 21.1638 259.853 20.7827 260.051 20.2855C260.25 19.7884 260.35 19.1918 260.35 18.4957C260.35 17.8092 260.25 17.2079 260.051 16.6918C259.857 16.1757 259.569 15.7756 259.185 15.4915C258.806 15.2027 258.34 15.0582 257.786 15.0582C257.213 15.0582 256.735 15.2074 256.351 15.5057C255.968 15.804 255.679 16.2135 255.485 16.7344C255.291 17.2505 255.194 17.8376 255.194 18.4957C255.194 19.1634 255.291 19.7481 255.485 20.25C255.684 20.7472 255.975 21.1354 256.358 21.4148C256.747 21.6894 257.222 21.8267 257.786 21.8267Z" fill="white"/>
</svg>
