<svg width="263" height="21" viewBox="0 0 263 21" fill="none" xmlns="http://www.w3.org/2000/svg">
<path d="M3.30256 16H0.490057L5.6108 1.45455H8.86364L13.9915 16H11.179L7.29403 4.4375H7.1804L3.30256 16ZM3.39489 10.2969H11.0653V12.4134H3.39489V10.2969ZM24.2401 7.97443L21.8963 8.23011C21.83 7.99337 21.714 7.77083 21.5483 7.5625C21.3873 7.35417 21.1695 7.18608 20.8949 7.05824C20.6203 6.9304 20.2841 6.86648 19.8864 6.86648C19.3513 6.86648 18.9015 6.98248 18.5369 7.21449C18.1771 7.4465 17.9995 7.74716 18.0043 8.11648C17.9995 8.43371 18.1155 8.69176 18.3523 8.89062C18.5938 9.08949 18.9915 9.25284 19.5455 9.38068L21.4062 9.77841C22.4384 10.0009 23.2055 10.3537 23.7074 10.8366C24.214 11.3196 24.4697 11.9517 24.4744 12.733C24.4697 13.4195 24.2685 14.0256 23.8707 14.5511C23.4777 15.072 22.9309 15.4792 22.2301 15.7727C21.5294 16.0663 20.7244 16.2131 19.8153 16.2131C18.4801 16.2131 17.4053 15.9337 16.5909 15.375C15.7765 14.8116 15.2912 14.0279 15.1349 13.0241L17.642 12.7827C17.7557 13.2751 17.9972 13.6468 18.3665 13.8977C18.7358 14.1487 19.2164 14.2741 19.8082 14.2741C20.419 14.2741 20.9091 14.1487 21.2784 13.8977C21.6525 13.6468 21.8395 13.3366 21.8395 12.9673C21.8395 12.6548 21.7188 12.3968 21.4773 12.1932C21.2405 11.9896 20.8712 11.8333 20.3693 11.7244L18.5085 11.3338C17.4621 11.116 16.688 10.7491 16.1861 10.233C15.6842 9.71212 15.4356 9.05398 15.4403 8.25852C15.4356 7.58617 15.6179 7.00379 15.9872 6.51136C16.3613 6.0142 16.8797 5.63068 17.5426 5.3608C18.2102 5.08617 18.9796 4.94886 19.8509 4.94886C21.1293 4.94886 22.1354 5.22112 22.8693 5.76562C23.608 6.31013 24.0649 7.0464 24.2401 7.97443ZM35.2166 7.97443L32.8729 8.23011C32.8066 7.99337 32.6906 7.77083 32.5249 7.5625C32.3639 7.35417 32.1461 7.18608 31.8714 7.05824C31.5968 6.9304 31.2607 6.86648 30.8629 6.86648C30.3279 6.86648 29.8781 6.98248 29.5135 7.21449C29.1536 7.4465 28.9761 7.74716 28.9808 8.11648C28.9761 8.43371 29.0921 8.69176 29.3288 8.89062C29.5703 9.08949 29.968 9.25284 30.522 9.38068L32.3828 9.77841C33.415 10.0009 34.1821 10.3537 34.6839 10.8366C35.1906 11.3196 35.4463 11.9517 35.451 12.733C35.4463 13.4195 35.245 14.0256 34.8473 14.5511C34.4543 15.072 33.9074 15.4792 33.2067 15.7727C32.5059 16.0663 31.701 16.2131 30.7919 16.2131C29.4567 16.2131 28.3819 15.9337 27.5675 15.375C26.7531 14.8116 26.2678 14.0279 26.1115 13.0241L28.6186 12.7827C28.7322 13.2751 28.9737 13.6468 29.343 13.8977C29.7124 14.1487 30.1929 14.2741 30.7848 14.2741C31.3956 14.2741 31.8857 14.1487 32.255 13.8977C32.629 13.6468 32.8161 13.3366 32.8161 12.9673C32.8161 12.6548 32.6953 12.3968 32.4538 12.1932C32.2171 11.9896 31.8478 11.8333 31.3459 11.7244L29.4851 11.3338C28.4387 11.116 27.6645 10.7491 27.1626 10.233C26.6607 9.71212 26.4122 9.05398 26.4169 8.25852C26.4122 7.58617 26.5945 7.00379 26.9638 6.51136C27.3378 6.0142 27.8563 5.63068 28.5192 5.3608C29.1868 5.08617 29.9562 4.94886 30.8274 4.94886C32.1058 4.94886 33.112 5.22112 33.8459 5.76562C34.5845 6.31013 35.0414 7.0464 35.2166 7.97443ZM37.571 16V5.09091H40.142V16H37.571ZM38.8636 3.54261C38.4564 3.54261 38.1061 3.40767 37.8125 3.13778C37.5189 2.86316 37.3722 2.53409 37.3722 2.15057C37.3722 1.76231 37.5189 1.43324 37.8125 1.16335C38.1061 0.88873 38.4564 0.75142 38.8636 0.75142C39.2756 0.75142 39.6259 0.88873 39.9148 1.16335C40.2083 1.43324 40.3551 1.76231 40.3551 2.15057C40.3551 2.53409 40.2083 2.86316 39.9148 3.13778C39.6259 3.40767 39.2756 3.54261 38.8636 3.54261ZM48.2333 5.09091V7.07955H41.962V5.09091H48.2333ZM43.5103 2.47727H46.0813V12.7188C46.0813 13.0644 46.1334 13.3295 46.2376 13.5142C46.3465 13.6941 46.4885 13.8172 46.6637 13.8835C46.8389 13.9498 47.033 13.983 47.2461 13.983C47.4071 13.983 47.5539 13.9711 47.6864 13.9474C47.8237 13.9238 47.9279 13.9025 47.9989 13.8835L48.4322 15.8935C48.2949 15.9408 48.0984 15.9929 47.8427 16.0497C47.5917 16.1065 47.284 16.1397 46.9194 16.1491C46.2754 16.1681 45.6954 16.071 45.1793 15.858C44.6632 15.6402 44.2537 15.304 43.9506 14.8494C43.6523 14.3949 43.5056 13.8267 43.5103 13.1449V2.47727ZM55.0959 16.2131C54.0021 16.2131 53.0575 15.9858 52.2621 15.5312C51.4714 15.072 50.8629 14.4233 50.4368 13.5852C50.0107 12.7424 49.7976 11.7505 49.7976 10.6094C49.7976 9.48722 50.0107 8.50237 50.4368 7.65483C50.8677 6.80256 51.469 6.13968 52.2408 5.66619C53.0125 5.18797 53.9193 4.94886 54.9609 4.94886C55.6333 4.94886 56.2678 5.05777 56.8643 5.27557C57.4657 5.48864 57.996 5.82008 58.4553 6.26989C58.9193 6.7197 59.2839 7.29261 59.549 7.98864C59.8142 8.67992 59.9467 9.50379 59.9467 10.4602V11.2486H51.005V9.51562H57.4822C57.4775 9.0232 57.371 8.58523 57.1626 8.2017C56.9543 7.81345 56.6631 7.50805 56.2891 7.28551C55.9197 7.06297 55.4889 6.9517 54.9964 6.9517C54.4709 6.9517 54.0092 7.07955 53.6115 7.33523C53.2138 7.58617 52.9036 7.91761 52.6811 8.32955C52.4633 8.73674 52.352 9.18419 52.3473 9.67188V11.1847C52.3473 11.8191 52.4633 12.3636 52.6953 12.8182C52.9273 13.268 53.2517 13.6136 53.6683 13.8551C54.085 14.0919 54.5727 14.2102 55.1314 14.2102C55.5054 14.2102 55.844 14.1581 56.147 14.054C56.45 13.9451 56.7128 13.7865 56.9354 13.5781C57.1579 13.3698 57.326 13.1117 57.4396 12.804L59.8402 13.0739C59.6887 13.7083 59.3999 14.2623 58.9737 14.7358C58.5523 15.2045 58.0125 15.5691 57.3544 15.8295C56.6963 16.0852 55.9434 16.2131 55.0959 16.2131ZM64.6928 9.60795V16H62.1218V5.09091H64.5792V6.9446H64.707C64.958 6.33381 65.3581 5.84848 65.9073 5.48864C66.4613 5.12879 67.1455 4.94886 67.9599 4.94886C68.7127 4.94886 69.3685 5.10985 69.9272 5.43182C70.4906 5.75379 70.9263 6.22017 71.234 6.83097C71.5465 7.44176 71.7004 8.18276 71.6957 9.05398V16H69.1246V9.4517C69.1246 8.72254 68.9353 8.15199 68.5565 7.74006C68.1824 7.32812 67.6639 7.12216 67.0011 7.12216C66.5513 7.12216 66.1512 7.22159 65.8008 7.42045C65.4551 7.61458 65.1829 7.89631 64.984 8.26562C64.7899 8.63494 64.6928 9.08239 64.6928 9.60795ZM79.0678 16.2131C77.9788 16.2131 77.0437 15.974 76.2624 15.4957C75.4859 15.0175 74.887 14.357 74.4656 13.5142C74.0489 12.6667 73.8406 11.6913 73.8406 10.5881C73.8406 9.48011 74.0536 8.50237 74.4798 7.65483C74.9059 6.80256 75.5072 6.13968 76.2837 5.66619C77.065 5.18797 77.9883 4.94886 79.0536 4.94886C79.939 4.94886 80.7227 5.11222 81.4045 5.43892C82.091 5.76089 82.6379 6.2178 83.0451 6.80966C83.4523 7.39678 83.6843 8.08333 83.7411 8.86932H81.2837C81.1843 8.34375 80.9476 7.90578 80.5735 7.5554C80.2042 7.20028 79.7094 7.02273 79.0891 7.02273C78.5636 7.02273 78.1019 7.16477 77.7042 7.44886C77.3065 7.72822 76.9963 8.13068 76.7738 8.65625C76.556 9.18182 76.4471 9.81155 76.4471 10.5455C76.4471 11.2888 76.556 11.928 76.7738 12.4631C76.9916 12.9934 77.297 13.4029 77.69 13.6918C78.0877 13.9759 78.5541 14.1179 79.0891 14.1179C79.4679 14.1179 79.8065 14.0469 80.1048 13.9048C80.4078 13.758 80.6611 13.5473 80.8647 13.2727C81.0683 12.9981 81.208 12.6643 81.2837 12.2713H83.7411C83.6796 13.0431 83.4523 13.7273 83.0593 14.3239C82.6663 14.9157 82.1313 15.3797 81.4542 15.7159C80.7771 16.0473 79.9817 16.2131 79.0678 16.2131ZM85.8523 16V5.09091H88.4233V16H85.8523ZM87.1449 3.54261C86.7377 3.54261 86.3873 3.40767 86.0938 3.13778C85.8002 2.86316 85.6534 2.53409 85.6534 2.15057C85.6534 1.76231 85.8002 1.43324 86.0938 1.16335C86.3873 0.88873 86.7377 0.75142 87.1449 0.75142C87.5568 0.75142 87.9072 0.88873 88.196 1.16335C88.4896 1.43324 88.6364 1.76231 88.6364 2.15057C88.6364 2.53409 88.4896 2.86316 88.196 3.13778C87.9072 3.40767 87.5568 3.54261 87.1449 3.54261ZM94.2063 16.2202C93.515 16.2202 92.8924 16.0971 92.3384 15.8509C91.7892 15.5999 91.3536 15.2306 91.0316 14.7429C90.7144 14.2552 90.5558 13.6539 90.5558 12.9389C90.5558 12.3234 90.6694 11.8144 90.8967 11.4119C91.1239 11.0095 91.4341 10.6875 91.8271 10.446C92.2201 10.2045 92.6628 10.0223 93.1552 9.89915C93.6523 9.77131 94.1661 9.67898 94.6964 9.62216C95.3356 9.55587 95.854 9.49669 96.2518 9.4446C96.6495 9.38778 96.9383 9.30256 97.1183 9.18892C97.3029 9.07055 97.3952 8.88826 97.3952 8.64205V8.59943C97.3952 8.06439 97.2366 7.65009 96.9194 7.35653C96.6022 7.06297 96.1452 6.91619 95.5487 6.91619C94.9189 6.91619 94.4194 7.0535 94.0501 7.32812C93.6855 7.60275 93.4393 7.92708 93.3114 8.30114L90.9109 7.96023C91.1003 7.29735 91.4128 6.74337 91.8484 6.2983C92.284 5.84848 92.8166 5.51231 93.4464 5.28977C94.0761 5.0625 94.7721 4.94886 95.5344 4.94886C96.06 4.94886 96.5832 5.01042 97.104 5.13352C97.6249 5.25663 98.1007 5.46023 98.5316 5.74432C98.9625 6.02367 99.3081 6.40483 99.5685 6.88778C99.8337 7.37074 99.9663 7.97443 99.9663 8.69886V16H97.4947V14.5014H97.4094C97.2532 14.8045 97.033 15.0885 96.7489 15.3537C96.4696 15.6141 96.1168 15.8248 95.6907 15.9858C95.2693 16.142 94.7745 16.2202 94.2063 16.2202ZM94.8739 14.331C95.39 14.331 95.8375 14.2292 96.2163 14.0256C96.5951 13.8172 96.8862 13.5426 97.0898 13.2017C97.2982 12.8608 97.4023 12.4891 97.4023 12.0866V10.8011C97.3219 10.8674 97.1845 10.929 96.9904 10.9858C96.801 11.0426 96.5879 11.0923 96.3512 11.1349C96.1145 11.1776 95.8801 11.2154 95.6481 11.2486C95.4161 11.2817 95.2148 11.3101 95.0444 11.3338C94.6609 11.3859 94.3176 11.4711 94.0146 11.5895C93.7115 11.7079 93.4724 11.8736 93.2972 12.0866C93.122 12.295 93.0344 12.5649 93.0344 12.8963C93.0344 13.3698 93.2073 13.7273 93.5529 13.9688C93.8986 14.2102 94.3389 14.331 94.8739 14.331ZM106.987 3.66335V1.45455H118.592V3.66335H114.096V16H111.483V3.66335H106.987ZM123.963 16.2131C122.869 16.2131 121.925 15.9858 121.129 15.5312C120.339 15.072 119.73 14.4233 119.304 13.5852C118.878 12.7424 118.665 11.7505 118.665 10.6094C118.665 9.48722 118.878 8.50237 119.304 7.65483C119.735 6.80256 120.336 6.13968 121.108 5.66619C121.88 5.18797 122.786 4.94886 123.828 4.94886C124.5 4.94886 125.135 5.05777 125.732 5.27557C126.333 5.48864 126.863 5.82008 127.322 6.26989C127.786 6.7197 128.151 7.29261 128.416 7.98864C128.681 8.67992 128.814 9.50379 128.814 10.4602V11.2486H119.872V9.51562H126.349C126.345 9.0232 126.238 8.58523 126.03 8.2017C125.821 7.81345 125.53 7.50805 125.156 7.28551C124.787 7.06297 124.356 6.9517 123.864 6.9517C123.338 6.9517 122.876 7.07955 122.479 7.33523C122.081 7.58617 121.771 7.91761 121.548 8.32955C121.33 8.73674 121.219 9.18419 121.214 9.67188V11.1847C121.214 11.8191 121.33 12.3636 121.562 12.8182C121.795 13.268 122.119 13.6136 122.536 13.8551C122.952 14.0919 123.44 14.2102 123.999 14.2102C124.373 14.2102 124.711 14.1581 125.014 14.054C125.317 13.9451 125.58 13.7865 125.803 13.5781C126.025 13.3698 126.193 13.1117 126.307 12.804L128.707 13.0739C128.556 13.7083 128.267 14.2623 127.841 14.7358C127.42 15.2045 126.88 15.5691 126.222 15.8295C125.563 16.0852 124.811 16.2131 123.963 16.2131ZM135.748 16.2131C134.658 16.2131 133.723 15.974 132.942 15.4957C132.166 15.0175 131.567 14.357 131.145 13.5142C130.729 12.6667 130.52 11.6913 130.52 10.5881C130.52 9.48011 130.733 8.50237 131.159 7.65483C131.586 6.80256 132.187 6.13968 132.963 5.66619C133.745 5.18797 134.668 4.94886 135.733 4.94886C136.619 4.94886 137.402 5.11222 138.084 5.43892C138.771 5.76089 139.318 6.2178 139.725 6.80966C140.132 7.39678 140.364 8.08333 140.421 8.86932H137.963C137.864 8.34375 137.627 7.90578 137.253 7.5554C136.884 7.20028 136.389 7.02273 135.769 7.02273C135.243 7.02273 134.782 7.16477 134.384 7.44886C133.986 7.72822 133.676 8.13068 133.453 8.65625C133.236 9.18182 133.127 9.81155 133.127 10.5455C133.127 11.2888 133.236 11.928 133.453 12.4631C133.671 12.9934 133.977 13.4029 134.37 13.6918C134.767 13.9759 135.234 14.1179 135.769 14.1179C136.148 14.1179 136.486 14.0469 136.784 13.9048C137.087 13.758 137.341 13.5473 137.544 13.2727C137.748 12.9981 137.888 12.6643 137.963 12.2713H140.421C140.359 13.0431 140.132 13.7273 139.739 14.3239C139.346 14.9157 138.811 15.3797 138.134 15.7159C137.457 16.0473 136.661 16.2131 135.748 16.2131ZM145.103 9.60795V16H142.532V5.09091H144.989V6.9446H145.117C145.368 6.33381 145.768 5.84848 146.317 5.48864C146.871 5.12879 147.556 4.94886 148.37 4.94886C149.123 4.94886 149.779 5.10985 150.337 5.43182C150.901 5.75379 151.336 6.22017 151.644 6.83097C151.957 7.44176 152.111 8.18276 152.106 9.05398V16H149.535V9.4517C149.535 8.72254 149.345 8.15199 148.967 7.74006C148.593 7.32812 148.074 7.12216 147.411 7.12216C146.961 7.12216 146.561 7.22159 146.211 7.42045C145.865 7.61458 145.593 7.89631 145.394 8.26562C145.2 8.63494 145.103 9.08239 145.103 9.60795ZM154.719 16V5.09091H157.29V16H154.719ZM156.012 3.54261C155.605 3.54261 155.254 3.40767 154.961 3.13778C154.667 2.86316 154.521 2.53409 154.521 2.15057C154.521 1.76231 154.667 1.43324 154.961 1.16335C155.254 0.88873 155.605 0.75142 156.012 0.75142C156.424 0.75142 156.774 0.88873 157.063 1.16335C157.357 1.43324 157.504 1.76231 157.504 2.15057C157.504 2.53409 157.357 2.86316 157.063 3.13778C156.774 3.40767 156.424 3.54261 156.012 3.54261ZM164.693 16.2131C163.604 16.2131 162.669 15.974 161.887 15.4957C161.111 15.0175 160.512 14.357 160.091 13.5142C159.674 12.6667 159.466 11.6913 159.466 10.5881C159.466 9.48011 159.679 8.50237 160.105 7.65483C160.531 6.80256 161.132 6.13968 161.909 5.66619C162.69 5.18797 163.613 4.94886 164.679 4.94886C165.564 4.94886 166.348 5.11222 167.029 5.43892C167.716 5.76089 168.263 6.2178 168.67 6.80966C169.077 7.39678 169.309 8.08333 169.366 8.86932H166.909C166.809 8.34375 166.573 7.90578 166.199 7.5554C165.829 7.20028 165.334 7.02273 164.714 7.02273C164.189 7.02273 163.727 7.16477 163.329 7.44886C162.931 7.72822 162.621 8.13068 162.399 8.65625C162.181 9.18182 162.072 9.81155 162.072 10.5455C162.072 11.2888 162.181 11.928 162.399 12.4631C162.617 12.9934 162.922 13.4029 163.315 13.6918C163.713 13.9759 164.179 14.1179 164.714 14.1179C165.093 14.1179 165.431 14.0469 165.73 13.9048C166.033 13.758 166.286 13.5473 166.49 13.2727C166.693 12.9981 166.833 12.6643 166.909 12.2713H169.366C169.305 13.0431 169.077 13.7273 168.684 14.3239C168.291 14.9157 167.756 15.3797 167.079 15.7159C166.402 16.0473 165.607 16.2131 164.693 16.2131ZM174.616 16.2202C173.925 16.2202 173.303 16.0971 172.749 15.8509C172.199 15.5999 171.764 15.2306 171.442 14.7429C171.125 14.2552 170.966 13.6539 170.966 12.9389C170.966 12.3234 171.08 11.8144 171.307 11.4119C171.534 11.0095 171.844 10.6875 172.237 10.446C172.63 10.2045 173.073 10.0223 173.565 9.89915C174.063 9.77131 174.576 9.67898 175.107 9.62216C175.746 9.55587 176.264 9.49669 176.662 9.4446C177.06 9.38778 177.348 9.30256 177.528 9.18892C177.713 9.07055 177.805 8.88826 177.805 8.64205V8.59943C177.805 8.06439 177.647 7.65009 177.33 7.35653C177.012 7.06297 176.555 6.91619 175.959 6.91619C175.329 6.91619 174.83 7.0535 174.46 7.32812C174.096 7.60275 173.849 7.92708 173.722 8.30114L171.321 7.96023C171.51 7.29735 171.823 6.74337 172.259 6.2983C172.694 5.84848 173.227 5.51231 173.857 5.28977C174.486 5.0625 175.182 4.94886 175.945 4.94886C176.47 4.94886 176.993 5.01042 177.514 5.13352C178.035 5.25663 178.511 5.46023 178.942 5.74432C179.373 6.02367 179.718 6.40483 179.979 6.88778C180.244 7.37074 180.376 7.97443 180.376 8.69886V16H177.905V14.5014H177.82C177.663 14.8045 177.443 15.0885 177.159 15.3537C176.88 15.6141 176.527 15.8248 176.101 15.9858C175.679 16.142 175.185 16.2202 174.616 16.2202ZM175.284 14.331C175.8 14.331 176.248 14.2292 176.626 14.0256C177.005 13.8172 177.296 13.5426 177.5 13.2017C177.708 12.8608 177.812 12.4891 177.812 12.0866V10.8011C177.732 10.8674 177.595 10.929 177.401 10.9858C177.211 11.0426 176.998 11.0923 176.761 11.1349C176.525 11.1776 176.29 11.2154 176.058 11.2486C175.826 11.2817 175.625 11.3101 175.455 11.3338C175.071 11.3859 174.728 11.4711 174.425 11.5895C174.122 11.7079 173.883 11.8736 173.707 12.0866C173.532 12.295 173.445 12.5649 173.445 12.8963C173.445 13.3698 173.617 13.7273 173.963 13.9688C174.309 14.2102 174.749 14.331 175.284 14.331ZM194.535 7.66903V9.78551H187.987V7.66903H194.535ZM210.218 5.45312C210.152 4.83286 209.873 4.34991 209.38 4.00426C208.893 3.65862 208.258 3.4858 207.477 3.4858C206.928 3.4858 206.457 3.56866 206.064 3.73438C205.671 3.90009 205.37 4.125 205.162 4.40909C204.953 4.69318 204.847 5.01752 204.842 5.3821C204.842 5.68513 204.911 5.94792 205.048 6.17045C205.19 6.39299 205.382 6.58239 205.623 6.73864C205.865 6.89015 206.132 7.01799 206.426 7.12216C206.719 7.22633 207.015 7.31392 207.314 7.38494L208.677 7.72585C209.226 7.85369 209.754 8.02651 210.261 8.24432C210.772 8.46212 211.229 8.73674 211.632 9.06818C212.039 9.39962 212.361 9.79972 212.598 10.2685C212.834 10.7372 212.953 11.2865 212.953 11.9162C212.953 12.7685 212.735 13.5189 212.299 14.1676C211.864 14.8116 211.234 15.3158 210.41 15.6804C209.591 16.0402 208.599 16.2202 207.434 16.2202C206.303 16.2202 205.32 16.045 204.487 15.6946C203.658 15.3442 203.01 14.8329 202.541 14.1605C202.077 13.4882 201.826 12.669 201.788 11.7031H204.38C204.418 12.2098 204.574 12.6312 204.849 12.9673C205.124 13.3035 205.481 13.5545 205.922 13.7202C206.367 13.8859 206.864 13.9688 207.413 13.9688C207.986 13.9688 208.488 13.8835 208.919 13.7131C209.354 13.5379 209.695 13.2964 209.941 12.9886C210.188 12.6761 210.313 12.3116 210.318 11.8949C210.313 11.5161 210.202 11.2036 209.984 10.9574C209.766 10.7064 209.461 10.4981 209.068 10.3324C208.68 10.1619 208.225 10.0104 207.704 9.87784L206.049 9.4517C204.851 9.14394 203.904 8.67756 203.208 8.05256C202.517 7.42282 202.172 6.58712 202.172 5.54545C202.172 4.68845 202.404 3.93797 202.868 3.29403C203.336 2.65009 203.973 2.15057 204.778 1.79545C205.583 1.43561 206.494 1.25568 207.512 1.25568C208.545 1.25568 209.449 1.43561 210.225 1.79545C211.007 2.15057 211.62 2.64536 212.065 3.27983C212.51 3.90956 212.74 4.634 212.754 5.45312H210.218ZM215.188 20.0909V5.09091H217.717V6.89489H217.866C217.998 6.62973 218.185 6.34801 218.427 6.04972C218.668 5.74669 218.995 5.48864 219.407 5.27557C219.819 5.05777 220.344 4.94886 220.984 4.94886C221.826 4.94886 222.586 5.1643 223.263 5.59517C223.945 6.02131 224.485 6.65341 224.883 7.49148C225.285 8.32481 225.487 9.34754 225.487 10.5597C225.487 11.7576 225.29 12.7756 224.897 13.6136C224.504 14.4517 223.969 15.0909 223.292 15.5312C222.615 15.9716 221.848 16.1918 220.991 16.1918C220.366 16.1918 219.847 16.0876 219.435 15.8793C219.023 15.6709 218.692 15.42 218.441 15.1264C218.195 14.8281 218.003 14.5464 217.866 14.2812H217.759V20.0909H215.188ZM217.71 10.5455C217.71 11.2509 217.809 11.8688 218.008 12.3991C218.211 12.9295 218.503 13.3437 218.881 13.642C219.265 13.9356 219.729 14.0824 220.273 14.0824C220.842 14.0824 221.317 13.9309 221.701 13.6278C222.085 13.3201 222.373 12.901 222.567 12.3707C222.766 11.8357 222.866 11.2273 222.866 10.5455C222.866 9.86837 222.769 9.26705 222.575 8.74148C222.38 8.21591 222.092 7.80398 221.708 7.50568C221.325 7.20739 220.846 7.05824 220.273 7.05824C219.724 7.05824 219.258 7.20265 218.874 7.49148C218.491 7.7803 218.2 8.18513 218.001 8.70597C217.807 9.2268 217.71 9.83996 217.71 10.5455ZM227.688 16V5.09091H230.181V6.90909H230.295C230.494 6.27936 230.835 5.79403 231.317 5.45312C231.805 5.10748 232.362 4.93466 232.987 4.93466C233.129 4.93466 233.287 4.94176 233.462 4.95597C233.642 4.96544 233.791 4.98201 233.91 5.00568V7.37074C233.801 7.33286 233.628 7.29972 233.391 7.27131C233.159 7.23816 232.934 7.22159 232.717 7.22159C232.248 7.22159 231.826 7.32339 231.452 7.52699C231.083 7.72585 230.792 8.00284 230.579 8.35795C230.366 8.71307 230.259 9.12263 230.259 9.58665V16H227.688ZM235.618 16V5.09091H238.189V16H235.618ZM236.911 3.54261C236.503 3.54261 236.153 3.40767 235.859 3.13778C235.566 2.86316 235.419 2.53409 235.419 2.15057C235.419 1.76231 235.566 1.43324 235.859 1.16335C236.153 0.88873 236.503 0.75142 236.911 0.75142C237.322 0.75142 237.673 0.88873 237.962 1.16335C238.255 1.43324 238.402 1.76231 238.402 2.15057C238.402 2.53409 238.255 2.86316 237.962 3.13778C237.673 3.40767 237.322 3.54261 236.911 3.54261ZM243.404 9.60795V16H240.833V5.09091H243.29V6.9446H243.418C243.669 6.33381 244.069 5.84848 244.618 5.48864C245.172 5.12879 245.856 4.94886 246.671 4.94886C247.424 4.94886 248.079 5.10985 248.638 5.43182C249.202 5.75379 249.637 6.22017 249.945 6.83097C250.257 7.44176 250.411 8.18276 250.407 9.05398V16H247.836V9.4517C247.836 8.72254 247.646 8.15199 247.267 7.74006C246.893 7.32812 246.375 7.12216 245.712 7.12216C245.262 7.12216 244.862 7.22159 244.512 7.42045C244.166 7.61458 243.894 7.89631 243.695 8.26562C243.501 8.63494 243.404 9.08239 243.404 9.60795ZM257.765 20.3182C256.841 20.3182 256.048 20.1927 255.385 19.9418C254.722 19.6955 254.19 19.3641 253.787 18.9474C253.385 18.5308 253.105 18.0691 252.949 17.5625L255.265 17.0014C255.369 17.2145 255.52 17.4252 255.719 17.6335C255.918 17.8466 256.185 18.0218 256.522 18.1591C256.863 18.3011 257.291 18.3722 257.807 18.3722C258.536 18.3722 259.14 18.1946 259.618 17.8395C260.096 17.4891 260.336 16.9115 260.336 16.1065V14.0398H260.208C260.075 14.3049 259.881 14.5772 259.625 14.8565C259.374 15.1359 259.041 15.3703 258.624 15.5597C258.212 15.7491 257.694 15.8438 257.069 15.8438C256.23 15.8438 255.471 15.6473 254.789 15.2543C254.112 14.8565 253.572 14.2647 253.169 13.4787C252.772 12.688 252.573 11.6984 252.573 10.5099C252.573 9.31203 252.772 8.30114 253.169 7.47727C253.572 6.64867 254.114 6.02131 254.796 5.59517C255.478 5.1643 256.238 4.94886 257.076 4.94886C257.715 4.94886 258.24 5.05777 258.652 5.27557C259.069 5.48864 259.4 5.74669 259.647 6.04972C259.893 6.34801 260.08 6.62973 260.208 6.89489H260.35V5.09091H262.885V16.1776C262.885 17.1103 262.663 17.8821 262.218 18.4929C261.773 19.1037 261.164 19.5606 260.392 19.8636C259.621 20.1667 258.745 20.3182 257.765 20.3182ZM257.786 13.8267C258.33 13.8267 258.794 13.6941 259.178 13.429C259.561 13.1638 259.853 12.7827 260.051 12.2855C260.25 11.7884 260.35 11.1918 260.35 10.4957C260.35 9.80919 260.25 9.20786 260.051 8.69176C259.857 8.17566 259.569 7.77557 259.185 7.49148C258.806 7.20265 258.34 7.05824 257.786 7.05824C257.213 7.05824 256.735 7.20739 256.351 7.50568C255.968 7.80398 255.679 8.21354 255.485 8.73438C255.291 9.25047 255.194 9.83759 255.194 10.4957C255.194 11.1634 255.291 11.7481 255.485 12.25C255.684 12.7472 255.975 13.1354 256.358 13.4148C256.747 13.6894 257.222 13.8267 257.786 13.8267Z" fill="white"/>
</svg>
