<svg width="281" height="17" viewBox="0 0 281 17" fill="none" xmlns="http://www.w3.org/2000/svg">
<path d="M3.30256 16H0.490057L5.6108 1.45455H8.86364L13.9915 16H11.179L7.29403 4.4375H7.1804L3.30256 16ZM3.39489 10.2969H11.0653V12.4134H3.39489V10.2969ZM24.2401 7.97443L21.8963 8.23011C21.83 7.99337 21.714 7.77083 21.5483 7.5625C21.3873 7.35417 21.1695 7.18608 20.8949 7.05824C20.6203 6.9304 20.2841 6.86648 19.8864 6.86648C19.3513 6.86648 18.9015 6.98248 18.5369 7.21449C18.1771 7.4465 17.9995 7.74716 18.0043 8.11648C17.9995 8.43371 18.1155 8.69176 18.3523 8.89062C18.5938 9.08949 18.9915 9.25284 19.5455 9.38068L21.4062 9.77841C22.4384 10.0009 23.2055 10.3537 23.7074 10.8366C24.214 11.3196 24.4697 11.9517 24.4744 12.733C24.4697 13.4195 24.2685 14.0256 23.8707 14.5511C23.4777 15.072 22.9309 15.4792 22.2301 15.7727C21.5294 16.0663 20.7244 16.2131 19.8153 16.2131C18.4801 16.2131 17.4053 15.9337 16.5909 15.375C15.7765 14.8116 15.2912 14.0279 15.1349 13.0241L17.642 12.7827C17.7557 13.2751 17.9972 13.6468 18.3665 13.8977C18.7358 14.1487 19.2164 14.2741 19.8082 14.2741C20.419 14.2741 20.9091 14.1487 21.2784 13.8977C21.6525 13.6468 21.8395 13.3366 21.8395 12.9673C21.8395 12.6548 21.7188 12.3968 21.4773 12.1932C21.2405 11.9896 20.8712 11.8333 20.3693 11.7244L18.5085 11.3338C17.4621 11.116 16.688 10.7491 16.1861 10.233C15.6842 9.71212 15.4356 9.05398 15.4403 8.25852C15.4356 7.58617 15.6179 7.00379 15.9872 6.51136C16.3613 6.0142 16.8797 5.63068 17.5426 5.3608C18.2102 5.08617 18.9796 4.94886 19.8509 4.94886C21.1293 4.94886 22.1354 5.22112 22.8693 5.76562C23.608 6.31013 24.0649 7.0464 24.2401 7.97443ZM35.2166 7.97443L32.8729 8.23011C32.8066 7.99337 32.6906 7.77083 32.5249 7.5625C32.3639 7.35417 32.1461 7.18608 31.8714 7.05824C31.5968 6.9304 31.2607 6.86648 30.8629 6.86648C30.3279 6.86648 29.8781 6.98248 29.5135 7.21449C29.1536 7.4465 28.9761 7.74716 28.9808 8.11648C28.9761 8.43371 29.0921 8.69176 29.3288 8.89062C29.5703 9.08949 29.968 9.25284 30.522 9.38068L32.3828 9.77841C33.415 10.0009 34.1821 10.3537 34.6839 10.8366C35.1906 11.3196 35.4463 11.9517 35.451 12.733C35.4463 13.4195 35.245 14.0256 34.8473 14.5511C34.4543 15.072 33.9074 15.4792 33.2067 15.7727C32.5059 16.0663 31.701 16.2131 30.7919 16.2131C29.4567 16.2131 28.3819 15.9337 27.5675 15.375C26.7531 14.8116 26.2678 14.0279 26.1115 13.0241L28.6186 12.7827C28.7322 13.2751 28.9737 13.6468 29.343 13.8977C29.7124 14.1487 30.1929 14.2741 30.7848 14.2741C31.3956 14.2741 31.8857 14.1487 32.255 13.8977C32.629 13.6468 32.8161 13.3366 32.8161 12.9673C32.8161 12.6548 32.6953 12.3968 32.4538 12.1932C32.2171 11.9896 31.8478 11.8333 31.3459 11.7244L29.4851 11.3338C28.4387 11.116 27.6645 10.7491 27.1626 10.233C26.6607 9.71212 26.4122 9.05398 26.4169 8.25852C26.4122 7.58617 26.5945 7.00379 26.9638 6.51136C27.3378 6.0142 27.8563 5.63068 28.5192 5.3608C29.1868 5.08617 29.9562 4.94886 30.8274 4.94886C32.1058 4.94886 33.112 5.22112 33.8459 5.76562C34.5845 6.31013 35.0414 7.0464 35.2166 7.97443ZM37.571 16V5.09091H40.142V16H37.571ZM38.8636 3.54261C38.4564 3.54261 38.1061 3.40767 37.8125 3.13778C37.5189 2.86316 37.3722 2.53409 37.3722 2.15057C37.3722 1.76231 37.5189 1.43324 37.8125 1.16335C38.1061 0.88873 38.4564 0.75142 38.8636 0.75142C39.2756 0.75142 39.6259 0.88873 39.9148 1.16335C40.2083 1.43324 40.3551 1.76231 40.3551 2.15057C40.3551 2.53409 40.2083 2.86316 39.9148 3.13778C39.6259 3.40767 39.2756 3.54261 38.8636 3.54261ZM51.408 7.97443L49.0643 8.23011C48.998 7.99337 48.882 7.77083 48.7163 7.5625C48.5553 7.35417 48.3375 7.18608 48.0629 7.05824C47.7882 6.9304 47.4521 6.86648 47.0543 6.86648C46.5193 6.86648 46.0695 6.98248 45.7049 7.21449C45.3451 7.4465 45.1675 7.74716 45.1722 8.11648C45.1675 8.43371 45.2835 8.69176 45.5202 8.89062C45.7617 9.08949 46.1594 9.25284 46.7134 9.38068L48.5742 9.77841C49.6064 10.0009 50.3735 10.3537 50.8754 10.8366C51.382 11.3196 51.6377 11.9517 51.6424 12.733C51.6377 13.4195 51.4364 14.0256 51.0387 14.5511C50.6457 15.072 50.0988 15.4792 49.3981 15.7727C48.6973 16.0663 47.8924 16.2131 46.9833 16.2131C45.6481 16.2131 44.5733 15.9337 43.7589 15.375C42.9445 14.8116 42.4592 14.0279 42.3029 13.0241L44.81 12.7827C44.9237 13.2751 45.1651 13.6468 45.5344 13.8977C45.9038 14.1487 46.3844 14.2741 46.9762 14.2741C47.587 14.2741 48.0771 14.1487 48.4464 13.8977C48.8204 13.6468 49.0075 13.3366 49.0075 12.9673C49.0075 12.6548 48.8867 12.3968 48.6452 12.1932C48.4085 11.9896 48.0392 11.8333 47.5373 11.7244L45.6765 11.3338C44.6301 11.116 43.8559 10.7491 43.354 10.233C42.8522 9.71212 42.6036 9.05398 42.6083 8.25852C42.6036 7.58617 42.7859 7.00379 43.1552 6.51136C43.5292 6.0142 44.0477 5.63068 44.7106 5.3608C45.3782 5.08617 46.1476 4.94886 47.0188 4.94886C48.2972 4.94886 49.3034 5.22112 50.0373 5.76562C50.7759 6.31013 51.2328 7.0464 51.408 7.97443ZM59.2099 5.09091V7.07955H52.9386V5.09091H59.2099ZM54.4869 2.47727H57.0579V12.7188C57.0579 13.0644 57.11 13.3295 57.2141 13.5142C57.323 13.6941 57.4651 13.8172 57.6403 13.8835C57.8155 13.9498 58.0096 13.983 58.2227 13.983C58.3836 13.983 58.5304 13.9711 58.663 13.9474C58.8003 13.9238 58.9045 13.9025 58.9755 13.8835L59.4087 15.8935C59.2714 15.9408 59.0749 15.9929 58.8192 16.0497C58.5683 16.1065 58.2605 16.1397 57.896 16.1491C57.252 16.1681 56.672 16.071 56.1559 15.858C55.6398 15.6402 55.2302 15.304 54.9272 14.8494C54.6289 14.3949 54.4821 13.8267 54.4869 13.1449V2.47727ZM66.0724 16.2131C64.9787 16.2131 64.0341 15.9858 63.2386 15.5312C62.4479 15.072 61.8395 14.4233 61.4134 13.5852C60.9872 12.7424 60.7741 11.7505 60.7741 10.6094C60.7741 9.48722 60.9872 8.50237 61.4134 7.65483C61.8442 6.80256 62.4455 6.13968 63.2173 5.66619C63.9891 5.18797 64.8958 4.94886 65.9375 4.94886C66.6098 4.94886 67.2443 5.05777 67.8409 5.27557C68.4422 5.48864 68.9725 5.82008 69.4318 6.26989C69.8958 6.7197 70.2604 7.29261 70.5256 7.98864C70.7907 8.67992 70.9233 9.50379 70.9233 10.4602V11.2486H61.9815V9.51562H68.4588C68.4541 9.0232 68.3475 8.58523 68.1392 8.2017C67.9309 7.81345 67.6397 7.50805 67.2656 7.28551C66.8963 7.06297 66.4654 6.9517 65.973 6.9517C65.4474 6.9517 64.9858 7.07955 64.5881 7.33523C64.1903 7.58617 63.8802 7.91761 63.6577 8.32955C63.4399 8.73674 63.3286 9.18419 63.3239 9.67188V11.1847C63.3239 11.8191 63.4399 12.3636 63.6719 12.8182C63.9039 13.268 64.2282 13.6136 64.6449 13.8551C65.0616 14.0919 65.5492 14.2102 66.108 14.2102C66.482 14.2102 66.8205 14.1581 67.1236 14.054C67.4266 13.9451 67.6894 13.7865 67.9119 13.5781C68.1345 13.3698 68.3026 13.1117 68.4162 12.804L70.8168 13.0739C70.6652 13.7083 70.3764 14.2623 69.9503 14.7358C69.5289 15.2045 68.9891 15.5691 68.331 15.8295C67.6728 16.0852 66.92 16.2131 66.0724 16.2131ZM75.6694 9.60795V16H73.0984V5.09091H75.5558V6.9446H75.6836C75.9345 6.33381 76.3346 5.84848 76.8839 5.48864C77.4379 5.12879 78.122 4.94886 78.9364 4.94886C79.6893 4.94886 80.3451 5.10985 80.9038 5.43182C81.4672 5.75379 81.9028 6.22017 82.2106 6.83097C82.5231 7.44176 82.677 8.18276 82.6722 9.05398V16H80.1012V9.4517C80.1012 8.72254 79.9118 8.15199 79.533 7.74006C79.159 7.32812 78.6405 7.12216 77.9776 7.12216C77.5278 7.12216 77.1277 7.22159 76.7773 7.42045C76.4317 7.61458 76.1594 7.89631 75.9606 8.26562C75.7665 8.63494 75.6694 9.08239 75.6694 9.60795ZM90.0444 16.2131C88.9554 16.2131 88.0202 15.974 87.239 15.4957C86.4625 15.0175 85.8635 14.357 85.4421 13.5142C85.0254 12.6667 84.8171 11.6913 84.8171 10.5881C84.8171 9.48011 85.0302 8.50237 85.4563 7.65483C85.8825 6.80256 86.4838 6.13968 87.2603 5.66619C88.0415 5.18797 88.9648 4.94886 90.0302 4.94886C90.9156 4.94886 91.6992 5.11222 92.381 5.43892C93.0676 5.76089 93.6145 6.2178 94.0217 6.80966C94.4289 7.39678 94.6609 8.08333 94.7177 8.86932H92.2603C92.1609 8.34375 91.9241 7.90578 91.5501 7.5554C91.1808 7.20028 90.686 7.02273 90.0657 7.02273C89.5401 7.02273 89.0785 7.16477 88.6808 7.44886C88.283 7.72822 87.9729 8.13068 87.7504 8.65625C87.5326 9.18182 87.4237 9.81155 87.4237 10.5455C87.4237 11.2888 87.5326 11.928 87.7504 12.4631C87.9682 12.9934 88.2736 13.4029 88.6665 13.6918C89.0643 13.9759 89.5307 14.1179 90.0657 14.1179C90.4445 14.1179 90.783 14.0469 91.0813 13.9048C91.3844 13.758 91.6377 13.5473 91.8413 13.2727C92.0449 12.9981 92.1845 12.6643 92.2603 12.2713H94.7177C94.6561 13.0431 94.4289 13.7273 94.0359 14.3239C93.6429 14.9157 93.1078 15.3797 92.4308 15.7159C91.7537 16.0473 90.9582 16.2131 90.0444 16.2131ZM96.8288 16V5.09091H99.3999V16H96.8288ZM98.1214 3.54261C97.7143 3.54261 97.3639 3.40767 97.0703 3.13778C96.7768 2.86316 96.63 2.53409 96.63 2.15057C96.63 1.76231 96.7768 1.43324 97.0703 1.16335C97.3639 0.88873 97.7143 0.75142 98.1214 0.75142C98.5334 0.75142 98.8838 0.88873 99.1726 1.16335C99.4661 1.43324 99.6129 1.76231 99.6129 2.15057C99.6129 2.53409 99.4661 2.86316 99.1726 3.13778C98.8838 3.40767 98.5334 3.54261 98.1214 3.54261ZM105.183 16.2202C104.492 16.2202 103.869 16.0971 103.315 15.8509C102.766 15.5999 102.33 15.2306 102.008 14.7429C101.691 14.2552 101.532 13.6539 101.532 12.9389C101.532 12.3234 101.646 11.8144 101.873 11.4119C102.1 11.0095 102.411 10.6875 102.804 10.446C103.197 10.2045 103.639 10.0223 104.132 9.89915C104.629 9.77131 105.143 9.67898 105.673 9.62216C106.312 9.55587 106.831 9.49669 107.228 9.4446C107.626 9.38778 107.915 9.30256 108.095 9.18892C108.279 9.07055 108.372 8.88826 108.372 8.64205V8.59943C108.372 8.06439 108.213 7.65009 107.896 7.35653C107.579 7.06297 107.122 6.91619 106.525 6.91619C105.895 6.91619 105.396 7.0535 105.027 7.32812C104.662 7.60275 104.416 7.92708 104.288 8.30114L101.887 7.96023C102.077 7.29735 102.389 6.74337 102.825 6.2983C103.261 5.84848 103.793 5.51231 104.423 5.28977C105.053 5.0625 105.749 4.94886 106.511 4.94886C107.037 4.94886 107.56 5.01042 108.081 5.13352C108.601 5.25663 109.077 5.46023 109.508 5.74432C109.939 6.02367 110.285 6.40483 110.545 6.88778C110.81 7.37074 110.943 7.97443 110.943 8.69886V16H108.471V14.5014H108.386C108.23 14.8045 108.01 15.0885 107.725 15.3537C107.446 15.6141 107.093 15.8248 106.667 15.9858C106.246 16.142 105.751 16.2202 105.183 16.2202ZM105.85 14.331C106.367 14.331 106.814 14.2292 107.193 14.0256C107.572 13.8172 107.863 13.5426 108.066 13.2017C108.275 12.8608 108.379 12.4891 108.379 12.0866V10.8011C108.298 10.8674 108.161 10.929 107.967 10.9858C107.778 11.0426 107.565 11.0923 107.328 11.1349C107.091 11.1776 106.857 11.2154 106.625 11.2486C106.393 11.2817 106.191 11.3101 106.021 11.3338C105.637 11.3859 105.294 11.4711 104.991 11.5895C104.688 11.7079 104.449 11.8736 104.274 12.0866C104.099 12.295 104.011 12.5649 104.011 12.8963C104.011 13.3698 104.184 13.7273 104.529 13.9688C104.875 14.2102 105.315 14.331 105.85 14.331ZM117.963 3.66335V1.45455H129.569V3.66335H125.073V16H122.459V3.66335H117.963ZM134.94 16.2131C133.846 16.2131 132.901 15.9858 132.106 15.5312C131.315 15.072 130.707 14.4233 130.281 13.5852C129.854 12.7424 129.641 11.7505 129.641 10.6094C129.641 9.48722 129.854 8.50237 130.281 7.65483C130.711 6.80256 131.313 6.13968 132.085 5.66619C132.856 5.18797 133.763 4.94886 134.805 4.94886C135.477 4.94886 136.112 5.05777 136.708 5.27557C137.309 5.48864 137.84 5.82008 138.299 6.26989C138.763 6.7197 139.128 7.29261 139.393 7.98864C139.658 8.67992 139.79 9.50379 139.79 10.4602V11.2486H130.849V9.51562H137.326C137.321 9.0232 137.215 8.58523 137.006 8.2017C136.798 7.81345 136.507 7.50805 136.133 7.28551C135.763 7.06297 135.333 6.9517 134.84 6.9517C134.315 6.9517 133.853 7.07955 133.455 7.33523C133.058 7.58617 132.747 7.91761 132.525 8.32955C132.307 8.73674 132.196 9.18419 132.191 9.67188V11.1847C132.191 11.8191 132.307 12.3636 132.539 12.8182C132.771 13.268 133.095 13.6136 133.512 13.8551C133.929 14.0919 134.416 14.2102 134.975 14.2102C135.349 14.2102 135.688 14.1581 135.991 14.054C136.294 13.9451 136.557 13.7865 136.779 13.5781C137.002 13.3698 137.17 13.1117 137.283 12.804L139.684 13.0739C139.532 13.7083 139.244 14.2623 138.817 14.7358C138.396 15.2045 137.856 15.5691 137.198 15.8295C136.54 16.0852 135.787 16.2131 134.94 16.2131ZM146.724 16.2131C145.635 16.2131 144.7 15.974 143.919 15.4957C143.142 15.0175 142.543 14.357 142.122 13.5142C141.705 12.6667 141.497 11.6913 141.497 10.5881C141.497 9.48011 141.71 8.50237 142.136 7.65483C142.562 6.80256 143.163 6.13968 143.94 5.66619C144.721 5.18797 145.645 4.94886 146.71 4.94886C147.595 4.94886 148.379 5.11222 149.061 5.43892C149.747 5.76089 150.294 6.2178 150.701 6.80966C151.109 7.39678 151.341 8.08333 151.397 8.86932H148.94C148.841 8.34375 148.604 7.90578 148.23 7.5554C147.86 7.20028 147.366 7.02273 146.745 7.02273C146.22 7.02273 145.758 7.16477 145.36 7.44886C144.963 7.72822 144.653 8.13068 144.43 8.65625C144.212 9.18182 144.103 9.81155 144.103 10.5455C144.103 11.2888 144.212 11.928 144.43 12.4631C144.648 12.9934 144.953 13.4029 145.346 13.6918C145.744 13.9759 146.21 14.1179 146.745 14.1179C147.124 14.1179 147.463 14.0469 147.761 13.9048C148.064 13.758 148.317 13.5473 148.521 13.2727C148.725 12.9981 148.864 12.6643 148.94 12.2713H151.397C151.336 13.0431 151.109 13.7273 150.716 14.3239C150.323 14.9157 149.788 15.3797 149.11 15.7159C148.433 16.0473 147.638 16.2131 146.724 16.2131ZM156.08 9.60795V16H153.509V5.09091H155.966V6.9446H156.094C156.345 6.33381 156.745 5.84848 157.294 5.48864C157.848 5.12879 158.532 4.94886 159.347 4.94886C160.099 4.94886 160.755 5.10985 161.314 5.43182C161.877 5.75379 162.313 6.22017 162.621 6.83097C162.933 7.44176 163.087 8.18276 163.082 9.05398V16H160.511V9.4517C160.511 8.72254 160.322 8.15199 159.943 7.74006C159.569 7.32812 159.051 7.12216 158.388 7.12216C157.938 7.12216 157.538 7.22159 157.188 7.42045C156.842 7.61458 156.57 7.89631 156.371 8.26562C156.177 8.63494 156.08 9.08239 156.08 9.60795ZM165.696 16V5.09091H168.267V16H165.696ZM166.989 3.54261C166.581 3.54261 166.231 3.40767 165.938 3.13778C165.644 2.86316 165.497 2.53409 165.497 2.15057C165.497 1.76231 165.644 1.43324 165.938 1.16335C166.231 0.88873 166.581 0.75142 166.989 0.75142C167.401 0.75142 167.751 0.88873 168.04 1.16335C168.333 1.43324 168.48 1.76231 168.48 2.15057C168.48 2.53409 168.333 2.86316 168.04 3.13778C167.751 3.40767 167.401 3.54261 166.989 3.54261ZM175.669 16.2131C174.58 16.2131 173.645 15.974 172.864 15.4957C172.087 15.0175 171.489 14.357 171.067 13.5142C170.65 12.6667 170.442 11.6913 170.442 10.5881C170.442 9.48011 170.655 8.50237 171.081 7.65483C171.507 6.80256 172.109 6.13968 172.885 5.66619C173.667 5.18797 174.59 4.94886 175.655 4.94886C176.541 4.94886 177.324 5.11222 178.006 5.43892C178.693 5.76089 179.239 6.2178 179.647 6.80966C180.054 7.39678 180.286 8.08333 180.343 8.86932H177.885C177.786 8.34375 177.549 7.90578 177.175 7.5554C176.806 7.20028 176.311 7.02273 175.691 7.02273C175.165 7.02273 174.703 7.16477 174.306 7.44886C173.908 7.72822 173.598 8.13068 173.375 8.65625C173.158 9.18182 173.049 9.81155 173.049 10.5455C173.049 11.2888 173.158 11.928 173.375 12.4631C173.593 12.9934 173.899 13.4029 174.292 13.6918C174.689 13.9759 175.156 14.1179 175.691 14.1179C176.069 14.1179 176.408 14.0469 176.706 13.9048C177.009 13.758 177.263 13.5473 177.466 13.2727C177.67 12.9981 177.81 12.6643 177.885 12.2713H180.343C180.281 13.0431 180.054 13.7273 179.661 14.3239C179.268 14.9157 178.733 15.3797 178.056 15.7159C177.379 16.0473 176.583 16.2131 175.669 16.2131ZM185.593 16.2202C184.902 16.2202 184.279 16.0971 183.725 15.8509C183.176 15.5999 182.74 15.2306 182.418 14.7429C182.101 14.2552 181.942 13.6539 181.942 12.9389C181.942 12.3234 182.056 11.8144 182.283 11.4119C182.511 11.0095 182.821 10.6875 183.214 10.446C183.607 10.2045 184.049 10.0223 184.542 9.89915C185.039 9.77131 185.553 9.67898 186.083 9.62216C186.722 9.55587 187.241 9.49669 187.638 9.4446C188.036 9.38778 188.325 9.30256 188.505 9.18892C188.69 9.07055 188.782 8.88826 188.782 8.64205V8.59943C188.782 8.06439 188.623 7.65009 188.306 7.35653C187.989 7.06297 187.532 6.91619 186.935 6.91619C186.306 6.91619 185.806 7.0535 185.437 7.32812C185.072 7.60275 184.826 7.92708 184.698 8.30114L182.298 7.96023C182.487 7.29735 182.799 6.74337 183.235 6.2983C183.671 5.84848 184.203 5.51231 184.833 5.28977C185.463 5.0625 186.159 4.94886 186.921 4.94886C187.447 4.94886 187.97 5.01042 188.491 5.13352C189.012 5.25663 189.487 5.46023 189.918 5.74432C190.349 6.02367 190.695 6.40483 190.955 6.88778C191.22 7.37074 191.353 7.97443 191.353 8.69886V16H188.881V14.5014H188.796C188.64 14.8045 188.42 15.0885 188.136 15.3537C187.856 15.6141 187.504 15.8248 187.077 15.9858C186.656 16.142 186.161 16.2202 185.593 16.2202ZM186.261 14.331C186.777 14.331 187.224 14.2292 187.603 14.0256C187.982 13.8172 188.273 13.5426 188.477 13.2017C188.685 12.8608 188.789 12.4891 188.789 12.0866V10.8011C188.709 10.8674 188.571 10.929 188.377 10.9858C188.188 11.0426 187.975 11.0923 187.738 11.1349C187.501 11.1776 187.267 11.2154 187.035 11.2486C186.803 11.2817 186.602 11.3101 186.431 11.3338C186.048 11.3859 185.704 11.4711 185.401 11.5895C185.098 11.7079 184.859 11.8736 184.684 12.0866C184.509 12.295 184.421 12.5649 184.421 12.8963C184.421 13.3698 184.594 13.7273 184.94 13.9688C185.285 14.2102 185.726 14.331 186.261 14.331ZM205.511 7.66903V9.78551H198.963V7.66903H205.511ZM213.29 16V1.45455H215.925V13.7912H222.331V16H213.29ZM227.644 16.2202C226.953 16.2202 226.33 16.0971 225.776 15.8509C225.227 15.5999 224.791 15.2306 224.469 14.7429C224.152 14.2552 223.993 13.6539 223.993 12.9389C223.993 12.3234 224.107 11.8144 224.334 11.4119C224.561 11.0095 224.872 10.6875 225.265 10.446C225.658 10.2045 226.1 10.0223 226.593 9.89915C227.09 9.77131 227.604 9.67898 228.134 9.62216C228.773 9.55587 229.292 9.49669 229.689 9.4446C230.087 9.38778 230.376 9.30256 230.556 9.18892C230.74 9.07055 230.833 8.88826 230.833 8.64205V8.59943C230.833 8.06439 230.674 7.65009 230.357 7.35653C230.04 7.06297 229.583 6.91619 228.986 6.91619C228.356 6.91619 227.857 7.0535 227.488 7.32812C227.123 7.60275 226.877 7.92708 226.749 8.30114L224.348 7.96023C224.538 7.29735 224.85 6.74337 225.286 6.2983C225.721 5.84848 226.254 5.51231 226.884 5.28977C227.514 5.0625 228.21 4.94886 228.972 4.94886C229.498 4.94886 230.021 5.01042 230.542 5.13352C231.062 5.25663 231.538 5.46023 231.969 5.74432C232.4 6.02367 232.746 6.40483 233.006 6.88778C233.271 7.37074 233.404 7.97443 233.404 8.69886V16H230.932V14.5014H230.847C230.691 14.8045 230.471 15.0885 230.186 15.3537C229.907 15.6141 229.554 15.8248 229.128 15.9858C228.707 16.142 228.212 16.2202 227.644 16.2202ZM228.311 14.331C228.828 14.331 229.275 14.2292 229.654 14.0256C230.033 13.8172 230.324 13.5426 230.527 13.2017C230.736 12.8608 230.84 12.4891 230.84 12.0866V10.8011C230.759 10.8674 230.622 10.929 230.428 10.9858C230.239 11.0426 230.025 11.0923 229.789 11.1349C229.552 11.1776 229.318 11.2154 229.086 11.2486C228.854 11.2817 228.652 11.3101 228.482 11.3338C228.098 11.3859 227.755 11.4711 227.452 11.5895C227.149 11.7079 226.91 11.8736 226.735 12.0866C226.56 12.295 226.472 12.5649 226.472 12.8963C226.472 13.3698 226.645 13.7273 226.99 13.9688C227.336 14.2102 227.776 14.331 228.311 14.331ZM235.989 16V5.09091H238.482V6.90909H238.596C238.794 6.27936 239.135 5.79403 239.618 5.45312C240.106 5.10748 240.662 4.93466 241.287 4.93466C241.429 4.93466 241.588 4.94176 241.763 4.95597C241.943 4.96544 242.092 4.98201 242.211 5.00568V7.37074C242.102 7.33286 241.929 7.29972 241.692 7.27131C241.46 7.23816 241.235 7.22159 241.017 7.22159C240.549 7.22159 240.127 7.32339 239.753 7.52699C239.384 7.72585 239.093 8.00284 238.88 8.35795C238.667 8.71307 238.56 9.12263 238.56 9.58665V16H235.989ZM246.863 16.2202C246.171 16.2202 245.549 16.0971 244.995 15.8509C244.445 15.5999 244.01 15.2306 243.688 14.7429C243.371 14.2552 243.212 13.6539 243.212 12.9389C243.212 12.3234 243.326 11.8144 243.553 11.4119C243.78 11.0095 244.09 10.6875 244.483 10.446C244.876 10.2045 245.319 10.0223 245.811 9.89915C246.309 9.77131 246.822 9.67898 247.353 9.62216C247.992 9.55587 248.51 9.49669 248.908 9.4446C249.306 9.38778 249.595 9.30256 249.775 9.18892C249.959 9.07055 250.051 8.88826 250.051 8.64205V8.59943C250.051 8.06439 249.893 7.65009 249.576 7.35653C249.258 7.06297 248.801 6.91619 248.205 6.91619C247.575 6.91619 247.076 7.0535 246.706 7.32812C246.342 7.60275 246.096 7.92708 245.968 8.30114L243.567 7.96023C243.757 7.29735 244.069 6.74337 244.505 6.2983C244.94 5.84848 245.473 5.51231 246.103 5.28977C246.732 5.0625 247.428 4.94886 248.191 4.94886C248.716 4.94886 249.239 5.01042 249.76 5.13352C250.281 5.25663 250.757 5.46023 251.188 5.74432C251.619 6.02367 251.964 6.40483 252.225 6.88778C252.49 7.37074 252.623 7.97443 252.623 8.69886V16H250.151V14.5014H250.066C249.909 14.8045 249.689 15.0885 249.405 15.3537C249.126 15.6141 248.773 15.8248 248.347 15.9858C247.926 16.142 247.431 16.2202 246.863 16.2202ZM247.53 14.331C248.046 14.331 248.494 14.2292 248.873 14.0256C249.251 13.8172 249.542 13.5426 249.746 13.2017C249.954 12.8608 250.059 12.4891 250.059 12.0866V10.8011C249.978 10.8674 249.841 10.929 249.647 10.9858C249.457 11.0426 249.244 11.0923 249.007 11.1349C248.771 11.1776 248.536 11.2154 248.304 11.2486C248.072 11.2817 247.871 11.3101 247.701 11.3338C247.317 11.3859 246.974 11.4711 246.671 11.5895C246.368 11.7079 246.129 11.8736 245.953 12.0866C245.778 12.295 245.691 12.5649 245.691 12.8963C245.691 13.3698 245.864 13.7273 246.209 13.9688C246.555 14.2102 246.995 14.331 247.53 14.331ZM264.561 5.09091L260.676 16H257.836L253.951 5.09091H256.692L259.199 13.1946H259.313L261.827 5.09091H264.561ZM270.799 16.2131C269.705 16.2131 268.761 15.9858 267.965 15.5312C267.174 15.072 266.566 14.4233 266.14 13.5852C265.714 12.7424 265.501 11.7505 265.501 10.6094C265.501 9.48722 265.714 8.50237 266.14 7.65483C266.571 6.80256 267.172 6.13968 267.944 5.66619C268.716 5.18797 269.622 4.94886 270.664 4.94886C271.336 4.94886 271.971 5.05777 272.567 5.27557C273.169 5.48864 273.699 5.82008 274.158 6.26989C274.622 6.7197 274.987 7.29261 275.252 7.98864C275.517 8.67992 275.65 9.50379 275.65 10.4602V11.2486H266.708V9.51562H273.185C273.181 9.0232 273.074 8.58523 272.866 8.2017C272.657 7.81345 272.366 7.50805 271.992 7.28551C271.623 7.06297 271.192 6.9517 270.7 6.9517C270.174 6.9517 269.712 7.07955 269.315 7.33523C268.917 7.58617 268.607 7.91761 268.384 8.32955C268.166 8.73674 268.055 9.18419 268.05 9.67188V11.1847C268.05 11.8191 268.166 12.3636 268.398 12.8182C268.63 13.268 268.955 13.6136 269.371 13.8551C269.788 14.0919 270.276 14.2102 270.835 14.2102C271.209 14.2102 271.547 14.1581 271.85 14.054C272.153 13.9451 272.416 13.7865 272.638 13.5781C272.861 13.3698 273.029 13.1117 273.143 12.804L275.543 13.0739C275.392 13.7083 275.103 14.2623 274.677 14.7358C274.255 15.2045 273.716 15.5691 273.058 15.8295C272.399 16.0852 271.647 16.2131 270.799 16.2131ZM280.396 1.45455V16H277.825V1.45455H280.396Z" fill="white"/>
</svg>
