<svg width="111" height="34" viewBox="0 0 111 34" fill="none" xmlns="http://www.w3.org/2000/svg">
<path d="M3.30256 24H0.490057L5.6108 9.45455H8.86364L13.9915 24H11.179L7.29403 12.4375H7.1804L3.30256 24ZM3.39489 18.2969H11.0653V20.4134H3.39489V18.2969ZM20.5575 13.0909V15.0795H14.2862V13.0909H20.5575ZM15.8345 10.4773H18.4055V20.7188C18.4055 21.0644 18.4576 21.3295 18.5618 21.5142C18.6707 21.6941 18.8127 21.8172 18.9879 21.8835C19.1631 21.9498 19.3572 21.983 19.5703 21.983C19.7313 21.983 19.8781 21.9711 20.0107 21.9474C20.148 21.9238 20.2521 21.9025 20.3232 21.8835L20.7564 23.8935C20.6191 23.9408 20.4226 23.9929 20.1669 24.0497C19.916 24.1065 19.6082 24.1397 19.2436 24.1491C18.5997 24.1681 18.0196 24.071 17.5036 23.858C16.9875 23.6402 16.5779 23.304 16.2749 22.8494C15.9766 22.3949 15.8298 21.8267 15.8345 21.1449V10.4773ZM25.5131 9.45455V24H22.9421V9.45455H25.5131ZM31.2962 24.2202C30.6049 24.2202 29.9822 24.0971 29.4283 23.8509C28.879 23.5999 28.4434 23.2306 28.1214 22.7429C27.8042 22.2552 27.6456 21.6539 27.6456 20.9389C27.6456 20.3234 27.7592 19.8144 27.9865 19.4119C28.2138 19.0095 28.5239 18.6875 28.9169 18.446C29.3099 18.2045 29.7526 18.0223 30.245 17.8991C30.7422 17.7713 31.2559 17.679 31.7862 17.6222C32.4254 17.5559 32.9439 17.4967 33.3416 17.4446C33.7393 17.3878 34.0282 17.3026 34.2081 17.1889C34.3928 17.0705 34.4851 16.8883 34.4851 16.642V16.5994C34.4851 16.0644 34.3265 15.6501 34.0092 15.3565C33.692 15.063 33.2351 14.9162 32.6385 14.9162C32.0088 14.9162 31.5092 15.0535 31.1399 15.3281C30.7753 15.6027 30.5291 15.9271 30.4013 16.3011L28.0007 15.9602C28.1901 15.2973 28.5026 14.7434 28.9382 14.2983C29.3738 13.8485 29.9065 13.5123 30.5362 13.2898C31.166 13.0625 31.862 12.9489 32.6243 12.9489C33.1499 12.9489 33.6731 13.0104 34.1939 13.1335C34.7147 13.2566 35.1906 13.4602 35.6214 13.7443C36.0523 14.0237 36.398 14.4048 36.6584 14.8878C36.9235 15.3707 37.0561 15.9744 37.0561 16.6989V24H34.5845V22.5014H34.4993C34.343 22.8045 34.1229 23.0885 33.8388 23.3537C33.5594 23.6141 33.2067 23.8248 32.7805 23.9858C32.3591 24.142 31.8643 24.2202 31.2962 24.2202ZM31.9638 22.331C32.4799 22.331 32.9273 22.2292 33.3061 22.0256C33.6849 21.8172 33.9761 21.5426 34.1797 21.2017C34.388 20.8608 34.4922 20.4891 34.4922 20.0866V18.8011C34.4117 18.8674 34.2744 18.929 34.0803 18.9858C33.8909 19.0426 33.6778 19.0923 33.4411 19.1349C33.2043 19.1776 32.9699 19.2154 32.7379 19.2486C32.5059 19.2817 32.3047 19.3101 32.1342 19.3338C31.7507 19.3859 31.4074 19.4711 31.1044 19.5895C30.8014 19.7079 30.5623 19.8736 30.3871 20.0866C30.2119 20.295 30.1243 20.5649 30.1243 20.8963C30.1243 21.3698 30.2971 21.7273 30.6428 21.9688C30.9884 22.2102 31.4287 22.331 31.9638 22.331ZM48.2635 15.9744L45.9197 16.2301C45.8535 15.9934 45.7375 15.7708 45.5717 15.5625C45.4107 15.3542 45.1929 15.1861 44.9183 15.0582C44.6437 14.9304 44.3075 14.8665 43.9098 14.8665C43.3748 14.8665 42.925 14.9825 42.5604 15.2145C42.2005 15.4465 42.023 15.7472 42.0277 16.1165C42.023 16.4337 42.139 16.6918 42.3757 16.8906C42.6172 17.0895 43.0149 17.2528 43.5689 17.3807L45.4297 17.7784C46.4619 18.0009 47.2289 18.3537 47.7308 18.8366C48.2375 19.3196 48.4931 19.9517 48.4979 20.733C48.4931 21.4195 48.2919 22.0256 47.8942 22.5511C47.5012 23.072 46.9543 23.4792 46.2536 23.7727C45.5528 24.0663 44.7479 24.2131 43.8388 24.2131C42.5036 24.2131 41.4287 23.9337 40.6143 23.375C39.8 22.8116 39.3146 22.0279 39.1584 21.0241L41.6655 20.7827C41.7791 21.2751 42.0206 21.6468 42.3899 21.8977C42.7592 22.1487 43.2398 22.2741 43.8317 22.2741C44.4425 22.2741 44.9325 22.1487 45.3018 21.8977C45.6759 21.6468 45.8629 21.3366 45.8629 20.9673C45.8629 20.6548 45.7422 20.3968 45.5007 20.1932C45.264 19.9896 44.8946 19.8333 44.3928 19.7244L42.532 19.3338C41.4856 19.116 40.7114 18.7491 40.2095 18.233C39.7076 17.7121 39.459 17.054 39.4638 16.2585C39.459 15.5862 39.6413 15.0038 40.0107 14.5114C40.3847 14.0142 40.9032 13.6307 41.5661 13.3608C42.2337 13.0862 43.0031 12.9489 43.8743 12.9489C45.1527 12.9489 46.1589 13.2211 46.8928 13.7656C47.6314 14.3101 48.0883 15.0464 48.2635 15.9744ZM68.1428 14.3622H65.4865C65.4107 13.9266 65.2711 13.5407 65.0675 13.2045C64.8639 12.8636 64.6106 12.5748 64.3075 12.3381C64.0045 12.1013 63.6589 11.9238 63.2706 11.8054C62.8871 11.6823 62.4728 11.6207 62.0277 11.6207C61.237 11.6207 60.5362 11.8196 59.9254 12.2173C59.3146 12.6103 58.8364 13.188 58.4908 13.9503C58.1451 14.7079 57.9723 15.6335 57.9723 16.7273C57.9723 17.84 58.1451 18.7775 58.4908 19.5398C58.8411 20.2973 59.3194 20.8703 59.9254 21.2585C60.5362 21.642 61.2346 21.8338 62.0206 21.8338C62.4562 21.8338 62.8634 21.777 63.2422 21.6634C63.6257 21.545 63.969 21.3722 64.272 21.1449C64.5798 20.9176 64.8378 20.6383 65.0462 20.3068C65.2592 19.9754 65.406 19.5966 65.4865 19.1705L68.1428 19.1847C68.0433 19.8759 67.8279 20.5246 67.4964 21.1307C67.1697 21.7367 66.7412 22.2718 66.2109 22.7358C65.6806 23.1951 65.0604 23.5549 64.3501 23.8153C63.6399 24.071 62.8516 24.1989 61.9851 24.1989C60.7067 24.1989 59.5656 23.9029 58.5618 23.3111C57.558 22.7192 56.7673 21.8646 56.1896 20.7472C55.612 19.6297 55.3232 18.2898 55.3232 16.7273C55.3232 15.16 55.6143 13.8201 56.1967 12.7074C56.7791 11.59 57.5722 10.7353 58.576 10.1435C59.5798 9.55161 60.7161 9.25568 61.9851 9.25568C62.7947 9.25568 63.5476 9.36932 64.2436 9.59659C64.9396 9.82386 65.5599 10.1577 66.1044 10.598C66.6489 11.0336 67.0964 11.5687 67.4467 12.2031C67.8018 12.8329 68.0339 13.5526 68.1428 14.3622ZM75.2006 24.2131C74.1353 24.2131 73.212 23.9787 72.4308 23.5099C71.6495 23.0412 71.0434 22.3854 70.6126 21.5426C70.1864 20.6998 69.9734 19.715 69.9734 18.5881C69.9734 17.4612 70.1864 16.474 70.6126 15.6264C71.0434 14.7789 71.6495 14.1207 72.4308 13.652C73.212 13.1832 74.1353 12.9489 75.2006 12.9489C76.266 12.9489 77.1893 13.1832 77.9705 13.652C78.7518 14.1207 79.3555 14.7789 79.7816 15.6264C80.2125 16.474 80.4279 17.4612 80.4279 18.5881C80.4279 19.715 80.2125 20.6998 79.7816 21.5426C79.3555 22.3854 78.7518 23.0412 77.9705 23.5099C77.1893 23.9787 76.266 24.2131 75.2006 24.2131ZM75.2148 22.1534C75.7925 22.1534 76.2754 21.9948 76.6637 21.6776C77.052 21.3556 77.3408 20.9247 77.5302 20.3849C77.7243 19.8452 77.8214 19.2438 77.8214 18.581C77.8214 17.9134 77.7243 17.3097 77.5302 16.7699C77.3408 16.2254 77.052 15.7921 76.6637 15.4702C76.2754 15.1482 75.7925 14.9872 75.2148 14.9872C74.623 14.9872 74.1306 15.1482 73.7376 15.4702C73.3493 15.7921 73.0581 16.2254 72.864 16.7699C72.6746 17.3097 72.5799 17.9134 72.5799 18.581C72.5799 19.2438 72.6746 19.8452 72.864 20.3849C73.0581 20.9247 73.3493 21.3556 73.7376 21.6776C74.1306 21.9948 74.623 22.1534 75.2148 22.1534ZM91.9833 13.0909L88.0984 24H85.2575L81.3725 13.0909H84.114L86.6211 21.1946H86.7347L89.2489 13.0909H91.9833ZM93.7624 24V13.0909H96.3335V24H93.7624ZM95.055 11.5426C94.6478 11.5426 94.2975 11.4077 94.0039 11.1378C93.7103 10.8632 93.5636 10.5341 93.5636 10.1506C93.5636 9.76231 93.7103 9.43324 94.0039 9.16335C94.2975 8.88873 94.6478 8.75142 95.055 8.75142C95.467 8.75142 95.8174 8.88873 96.1062 9.16335C96.3997 9.43324 96.5465 9.76231 96.5465 10.1506C96.5465 10.5341 96.3997 10.8632 96.1062 11.1378C95.8174 11.4077 95.467 11.5426 95.055 11.5426ZM103.026 24.1918C102.169 24.1918 101.402 23.9716 100.724 23.5312C100.047 23.0909 99.5123 22.4517 99.1193 21.6136C98.7263 20.7756 98.5298 19.7576 98.5298 18.5597C98.5298 17.3475 98.7287 16.3248 99.1264 15.4915C99.5289 14.6534 100.071 14.0213 100.753 13.5952C101.435 13.1643 102.195 12.9489 103.033 12.9489C103.672 12.9489 104.197 13.0578 104.609 13.2756C105.021 13.4886 105.348 13.7467 105.589 14.0497C105.831 14.348 106.018 14.6297 106.151 14.8949H106.257V9.45455H108.835V24H106.307V22.2812H106.151C106.018 22.5464 105.826 22.8281 105.575 23.1264C105.324 23.42 104.993 23.6709 104.581 23.8793C104.169 24.0876 103.651 24.1918 103.026 24.1918ZM103.743 22.0824C104.287 22.0824 104.751 21.9356 105.135 21.642C105.518 21.3437 105.81 20.9295 106.009 20.3991C106.207 19.8688 106.307 19.2509 106.307 18.5455C106.307 17.84 106.207 17.2268 106.009 16.706C105.814 16.1851 105.526 15.7803 105.142 15.4915C104.763 15.2027 104.297 15.0582 103.743 15.0582C103.17 15.0582 102.692 15.2074 102.308 15.5057C101.925 15.804 101.636 16.2159 101.442 16.7415C101.248 17.267 101.151 17.8684 101.151 18.5455C101.151 19.2273 101.248 19.8357 101.442 20.3707C101.641 20.901 101.932 21.3201 102.315 21.6278C102.704 21.9309 103.179 22.0824 103.743 22.0824Z" fill="white"/>
</svg>
