<svg width="109" height="17" viewBox="0 0 109 17" fill="none" xmlns="http://www.w3.org/2000/svg">
<path d="M3.30256 16H0.490057L5.6108 1.45455H8.86364L13.9915 16H11.179L7.29403 4.4375H7.1804L3.30256 16ZM3.39489 10.2969H11.0653V12.4134H3.39489V10.2969ZM20.5575 5.09091V7.07955H14.2862V5.09091H20.5575ZM15.8345 2.47727H18.4055V12.7188C18.4055 13.0644 18.4576 13.3295 18.5618 13.5142C18.6707 13.6941 18.8127 13.8172 18.9879 13.8835C19.1631 13.9498 19.3572 13.983 19.5703 13.983C19.7313 13.983 19.8781 13.9711 20.0107 13.9474C20.148 13.9238 20.2521 13.9025 20.3232 13.8835L20.7564 15.8935C20.6191 15.9408 20.4226 15.9929 20.1669 16.0497C19.916 16.1065 19.6082 16.1397 19.2436 16.1491C18.5997 16.1681 18.0196 16.071 17.5036 15.858C16.9875 15.6402 16.5779 15.304 16.2749 14.8494C15.9766 14.3949 15.8298 13.8267 15.8345 13.1449V2.47727ZM25.5131 1.45455V16H22.9421V1.45455H25.5131ZM31.2962 16.2202C30.6049 16.2202 29.9822 16.0971 29.4283 15.8509C28.879 15.5999 28.4434 15.2306 28.1214 14.7429C27.8042 14.2552 27.6456 13.6539 27.6456 12.9389C27.6456 12.3234 27.7592 11.8144 27.9865 11.4119C28.2138 11.0095 28.5239 10.6875 28.9169 10.446C29.3099 10.2045 29.7526 10.0223 30.245 9.89915C30.7422 9.77131 31.2559 9.67898 31.7862 9.62216C32.4254 9.55587 32.9439 9.49669 33.3416 9.4446C33.7393 9.38778 34.0282 9.30256 34.2081 9.18892C34.3928 9.07055 34.4851 8.88826 34.4851 8.64205V8.59943C34.4851 8.06439 34.3265 7.65009 34.0092 7.35653C33.692 7.06297 33.2351 6.91619 32.6385 6.91619C32.0088 6.91619 31.5092 7.0535 31.1399 7.32812C30.7753 7.60275 30.5291 7.92708 30.4013 8.30114L28.0007 7.96023C28.1901 7.29735 28.5026 6.74337 28.9382 6.2983C29.3738 5.84848 29.9065 5.51231 30.5362 5.28977C31.166 5.0625 31.862 4.94886 32.6243 4.94886C33.1499 4.94886 33.6731 5.01042 34.1939 5.13352C34.7147 5.25663 35.1906 5.46023 35.6214 5.74432C36.0523 6.02367 36.398 6.40483 36.6584 6.88778C36.9235 7.37074 37.0561 7.97443 37.0561 8.69886V16H34.5845V14.5014H34.4993C34.343 14.8045 34.1229 15.0885 33.8388 15.3537C33.5594 15.6141 33.2067 15.8248 32.7805 15.9858C32.3591 16.142 31.8643 16.2202 31.2962 16.2202ZM31.9638 14.331C32.4799 14.331 32.9273 14.2292 33.3061 14.0256C33.6849 13.8172 33.9761 13.5426 34.1797 13.2017C34.388 12.8608 34.4922 12.4891 34.4922 12.0866V10.8011C34.4117 10.8674 34.2744 10.929 34.0803 10.9858C33.8909 11.0426 33.6778 11.0923 33.4411 11.1349C33.2043 11.1776 32.9699 11.2154 32.7379 11.2486C32.5059 11.2817 32.3047 11.3101 32.1342 11.3338C31.7507 11.3859 31.4074 11.4711 31.1044 11.5895C30.8014 11.7079 30.5623 11.8736 30.3871 12.0866C30.2119 12.295 30.1243 12.5649 30.1243 12.8963C30.1243 13.3698 30.2971 13.7273 30.6428 13.9688C30.9884 14.2102 31.4287 14.331 31.9638 14.331ZM48.2635 7.97443L45.9197 8.23011C45.8535 7.99337 45.7375 7.77083 45.5717 7.5625C45.4107 7.35417 45.1929 7.18608 44.9183 7.05824C44.6437 6.9304 44.3075 6.86648 43.9098 6.86648C43.3748 6.86648 42.925 6.98248 42.5604 7.21449C42.2005 7.4465 42.023 7.74716 42.0277 8.11648C42.023 8.43371 42.139 8.69176 42.3757 8.89062C42.6172 9.08949 43.0149 9.25284 43.5689 9.38068L45.4297 9.77841C46.4619 10.0009 47.2289 10.3537 47.7308 10.8366C48.2375 11.3196 48.4931 11.9517 48.4979 12.733C48.4931 13.4195 48.2919 14.0256 47.8942 14.5511C47.5012 15.072 46.9543 15.4792 46.2536 15.7727C45.5528 16.0663 44.7479 16.2131 43.8388 16.2131C42.5036 16.2131 41.4287 15.9337 40.6143 15.375C39.8 14.8116 39.3146 14.0279 39.1584 13.0241L41.6655 12.7827C41.7791 13.2751 42.0206 13.6468 42.3899 13.8977C42.7592 14.1487 43.2398 14.2741 43.8317 14.2741C44.4425 14.2741 44.9325 14.1487 45.3018 13.8977C45.6759 13.6468 45.8629 13.3366 45.8629 12.9673C45.8629 12.6548 45.7422 12.3968 45.5007 12.1932C45.264 11.9896 44.8946 11.8333 44.3928 11.7244L42.532 11.3338C41.4856 11.116 40.7114 10.7491 40.2095 10.233C39.7076 9.71212 39.459 9.05398 39.4638 8.25852C39.459 7.58617 39.6413 7.00379 40.0107 6.51136C40.3847 6.0142 40.9032 5.63068 41.5661 5.3608C42.2337 5.08617 43.0031 4.94886 43.8743 4.94886C45.1527 4.94886 46.1589 5.22112 46.8928 5.76562C47.6314 6.31013 48.0883 7.0464 48.2635 7.97443ZM68.1428 6.36222H65.4865C65.4107 5.92661 65.2711 5.54072 65.0675 5.20455C64.8639 4.86364 64.6106 4.57481 64.3075 4.33807C64.0045 4.10133 63.6589 3.92377 63.2706 3.8054C62.8871 3.68229 62.4728 3.62074 62.0277 3.62074C61.237 3.62074 60.5362 3.8196 59.9254 4.21733C59.3146 4.61032 58.8364 5.18797 58.4908 5.95028C58.1451 6.70786 57.9723 7.63352 57.9723 8.72727C57.9723 9.83996 58.1451 10.7775 58.4908 11.5398C58.8411 12.2973 59.3194 12.8703 59.9254 13.2585C60.5362 13.642 61.2346 13.8338 62.0206 13.8338C62.4562 13.8338 62.8634 13.777 63.2422 13.6634C63.6257 13.545 63.969 13.3722 64.272 13.1449C64.5798 12.9176 64.8378 12.6383 65.0462 12.3068C65.2592 11.9754 65.406 11.5966 65.4865 11.1705L68.1428 11.1847C68.0433 11.8759 67.8279 12.5246 67.4964 13.1307C67.1697 13.7367 66.7412 14.2718 66.2109 14.7358C65.6806 15.1951 65.0604 15.5549 64.3501 15.8153C63.6399 16.071 62.8516 16.1989 61.9851 16.1989C60.7067 16.1989 59.5656 15.9029 58.5618 15.3111C57.558 14.7192 56.7673 13.8646 56.1896 12.7472C55.612 11.6297 55.3232 10.2898 55.3232 8.72727C55.3232 7.16004 55.6143 5.82008 56.1967 4.70739C56.7791 3.58996 57.5722 2.73532 58.576 2.14347C59.5798 1.55161 60.7161 1.25568 61.9851 1.25568C62.7947 1.25568 63.5476 1.36932 64.2436 1.59659C64.9396 1.82386 65.5599 2.15767 66.1044 2.59801C66.6489 3.03362 67.0964 3.56866 67.4467 4.20312C67.8018 4.83286 68.0339 5.55256 68.1428 6.36222ZM75.2006 16.2131C74.1353 16.2131 73.212 15.9787 72.4308 15.5099C71.6495 15.0412 71.0434 14.3854 70.6126 13.5426C70.1864 12.6998 69.9734 11.715 69.9734 10.5881C69.9734 9.46117 70.1864 8.47396 70.6126 7.62642C71.0434 6.77888 71.6495 6.12074 72.4308 5.65199C73.212 5.18324 74.1353 4.94886 75.2006 4.94886C76.266 4.94886 77.1893 5.18324 77.9705 5.65199C78.7518 6.12074 79.3555 6.77888 79.7816 7.62642C80.2125 8.47396 80.4279 9.46117 80.4279 10.5881C80.4279 11.715 80.2125 12.6998 79.7816 13.5426C79.3555 14.3854 78.7518 15.0412 77.9705 15.5099C77.1893 15.9787 76.266 16.2131 75.2006 16.2131ZM75.2148 14.1534C75.7925 14.1534 76.2754 13.9948 76.6637 13.6776C77.052 13.3556 77.3408 12.9247 77.5302 12.3849C77.7243 11.8452 77.8214 11.2438 77.8214 10.581C77.8214 9.91335 77.7243 9.30966 77.5302 8.76989C77.3408 8.22538 77.052 7.79214 76.6637 7.47017C76.2754 7.1482 75.7925 6.98722 75.2148 6.98722C74.623 6.98722 74.1306 7.1482 73.7376 7.47017C73.3493 7.79214 73.0581 8.22538 72.864 8.76989C72.6746 9.30966 72.5799 9.91335 72.5799 10.581C72.5799 11.2438 72.6746 11.8452 72.864 12.3849C73.0581 12.9247 73.3493 13.3556 73.7376 13.6776C74.1306 13.9948 74.623 14.1534 75.2148 14.1534ZM91.9833 5.09091L88.0984 16H85.2575L81.3725 5.09091H84.114L86.6211 13.1946H86.7347L89.2489 5.09091H91.9833ZM93.7624 16V5.09091H96.3335V16H93.7624ZM95.055 3.54261C94.6478 3.54261 94.2975 3.40767 94.0039 3.13778C93.7103 2.86316 93.5636 2.53409 93.5636 2.15057C93.5636 1.76231 93.7103 1.43324 94.0039 1.16335C94.2975 0.88873 94.6478 0.75142 95.055 0.75142C95.467 0.75142 95.8174 0.88873 96.1062 1.16335C96.3997 1.43324 96.5465 1.76231 96.5465 2.15057C96.5465 2.53409 96.3997 2.86316 96.1062 3.13778C95.8174 3.40767 95.467 3.54261 95.055 3.54261ZM103.026 16.1918C102.169 16.1918 101.402 15.9716 100.724 15.5312C100.047 15.0909 99.5123 14.4517 99.1193 13.6136C98.7263 12.7756 98.5298 11.7576 98.5298 10.5597C98.5298 9.34754 98.7287 8.32481 99.1264 7.49148C99.5289 6.65341 100.071 6.02131 100.753 5.59517C101.435 5.1643 102.195 4.94886 103.033 4.94886C103.672 4.94886 104.197 5.05777 104.609 5.27557C105.021 5.48864 105.348 5.74669 105.589 6.04972C105.831 6.34801 106.018 6.62973 106.151 6.89489H106.257V1.45455H108.835V16H106.307V14.2812H106.151C106.018 14.5464 105.826 14.8281 105.575 15.1264C105.324 15.42 104.993 15.6709 104.581 15.8793C104.169 16.0876 103.651 16.1918 103.026 16.1918ZM103.743 14.0824C104.287 14.0824 104.751 13.9356 105.135 13.642C105.518 13.3437 105.81 12.9295 106.009 12.3991C106.207 11.8688 106.307 11.2509 106.307 10.5455C106.307 9.83996 106.207 9.2268 106.009 8.70597C105.814 8.18513 105.526 7.7803 105.142 7.49148C104.763 7.20265 104.297 7.05824 103.743 7.05824C103.17 7.05824 102.692 7.20739 102.308 7.50568C101.925 7.80398 101.636 8.21591 101.442 8.74148C101.248 9.26705 101.151 9.86837 101.151 10.5455C101.151 11.2273 101.248 11.8357 101.442 12.3707C101.641 12.901 101.932 13.3201 102.315 13.6278C102.704 13.9309 103.179 14.0824 103.743 14.0824Z" fill="white"/>
</svg>
