<svg width="161" height="16" viewBox="0 0 161 16" fill="none" xmlns="http://www.w3.org/2000/svg">
<path d="M12.8849 5.36222H10.2287C10.1529 4.92661 10.0133 4.54072 9.80966 4.20455C9.60606 3.86364 9.35275 3.57481 9.04972 3.33807C8.74669 3.10133 8.40104 2.92377 8.01278 2.8054C7.62926 2.68229 7.21496 2.62074 6.76989 2.62074C5.97917 2.62074 5.27841 2.8196 4.66761 3.21733C4.05682 3.61032 3.5786 4.18797 3.23295 4.95028C2.88731 5.70786 2.71449 6.63352 2.71449 7.72727C2.71449 8.83996 2.88731 9.77746 3.23295 10.5398C3.58333 11.2973 4.06155 11.8703 4.66761 12.2585C5.27841 12.642 5.9768 12.8338 6.76278 12.8338C7.19839 12.8338 7.60559 12.777 7.98438 12.6634C8.3679 12.545 8.71117 12.3722 9.0142 12.1449C9.32197 11.9176 9.58002 11.6383 9.78835 11.3068C10.0014 10.9754 10.1482 10.5966 10.2287 10.1705L12.8849 10.1847C12.7855 10.8759 12.5701 11.5246 12.2386 12.1307C11.9119 12.7367 11.4834 13.2718 10.9531 13.7358C10.4228 14.1951 9.80256 14.5549 9.09233 14.8153C8.3821 15.071 7.59375 15.1989 6.72727 15.1989C5.44886 15.1989 4.30777 14.9029 3.30398 14.3111C2.30019 13.7192 1.50947 12.8646 0.931818 11.7472C0.354167 10.6297 0.0653409 9.28977 0.0653409 7.72727C0.0653409 6.16004 0.356534 4.82008 0.93892 3.70739C1.52131 2.58996 2.31439 1.73532 3.31818 1.14347C4.32197 0.551609 5.45833 0.255681 6.72727 0.255681C7.53693 0.255681 8.28977 0.369318 8.9858 0.59659C9.68182 0.823863 10.3021 1.15767 10.8466 1.59801C11.3911 2.03362 11.8385 2.56866 12.1889 3.20312C12.544 3.83286 12.776 4.55256 12.8849 5.36222ZM17.7553 0.454545V15H15.1843V0.454545H17.7553ZM25.1577 15.2131C24.0923 15.2131 23.169 14.9787 22.3878 14.5099C21.6065 14.0412 21.0005 13.3854 20.5696 12.5426C20.1435 11.6998 19.9304 10.715 19.9304 9.58807C19.9304 8.46117 20.1435 7.47396 20.5696 6.62642C21.0005 5.77888 21.6065 5.12074 22.3878 4.65199C23.169 4.18324 24.0923 3.94886 25.1577 3.94886C26.223 3.94886 27.1463 4.18324 27.9276 4.65199C28.7088 5.12074 29.3125 5.77888 29.7386 6.62642C30.1695 7.47396 30.3849 8.46117 30.3849 9.58807C30.3849 10.715 30.1695 11.6998 29.7386 12.5426C29.3125 13.3854 28.7088 14.0412 27.9276 14.5099C27.1463 14.9787 26.223 15.2131 25.1577 15.2131ZM25.1719 13.1534C25.7495 13.1534 26.2325 12.9948 26.6207 12.6776C27.009 12.3556 27.2978 11.9247 27.4872 11.3849C27.6813 10.8452 27.7784 10.2438 27.7784 9.58097C27.7784 8.91335 27.6813 8.30966 27.4872 7.76989C27.2978 7.22538 27.009 6.79214 26.6207 6.47017C26.2325 6.1482 25.7495 5.98722 25.1719 5.98722C24.58 5.98722 24.0876 6.1482 23.6946 6.47017C23.3063 6.79214 23.0152 7.22538 22.821 7.76989C22.6316 8.30966 22.5369 8.91335 22.5369 9.58097C22.5369 10.2438 22.6316 10.8452 22.821 11.3849C23.0152 11.9247 23.3063 12.3556 23.6946 12.6776C24.0876 12.9948 24.58 13.1534 25.1719 13.1534ZM35.1381 8.60795V15H32.5671V4.09091H35.0245V5.9446H35.1523C35.4033 5.33381 35.8034 4.84848 36.3526 4.48864C36.9066 4.12879 37.5908 3.94886 38.4052 3.94886C39.158 3.94886 39.8138 4.10985 40.3725 4.43182C40.936 4.75379 41.3716 5.22017 41.6793 5.83097C41.9918 6.44176 42.1457 7.18276 42.141 8.05398V15H39.57V8.4517C39.57 7.72254 39.3806 7.15199 39.0018 6.74006C38.6277 6.32812 38.1093 6.12216 37.4464 6.12216C36.9966 6.12216 36.5965 6.22159 36.2461 6.42045C35.9004 6.61458 35.6282 6.89631 35.4293 7.26562C35.2352 7.63494 35.1381 8.08239 35.1381 8.60795ZM49.5842 15.2131C48.4904 15.2131 47.5458 14.9858 46.7504 14.5312C45.9596 14.072 45.3512 13.4233 44.9251 12.5852C44.4989 11.7424 44.2859 10.7505 44.2859 9.60938C44.2859 8.48722 44.4989 7.50237 44.9251 6.65483C45.3559 5.80256 45.9573 5.13968 46.729 4.66619C47.5008 4.18797 48.4076 3.94886 49.4492 3.94886C50.1216 3.94886 50.756 4.05777 51.3526 4.27557C51.954 4.48864 52.4843 4.82008 52.9435 5.26989C53.4076 5.7197 53.7721 6.29261 54.0373 6.98864C54.3024 7.67992 54.435 8.50379 54.435 9.46023V10.2486H45.4933V8.51562H51.9705C51.9658 8.0232 51.8593 7.58523 51.6509 7.2017C51.4426 6.81345 51.1514 6.50805 50.7773 6.28551C50.408 6.06297 49.9772 5.9517 49.4847 5.9517C48.9592 5.9517 48.4975 6.07955 48.0998 6.33523C47.7021 6.58617 47.3919 6.91761 47.1694 7.32955C46.9516 7.73674 46.8403 8.18419 46.8356 8.67188V10.1847C46.8356 10.8191 46.9516 11.3636 47.1836 11.8182C47.4156 12.268 47.7399 12.6136 48.1566 12.8551C48.5733 13.0919 49.061 13.2102 49.6197 13.2102C49.9937 13.2102 50.3323 13.1581 50.6353 13.054C50.9383 12.9451 51.2011 12.7865 51.4237 12.5781C51.6462 12.3698 51.8143 12.1117 51.9279 11.804L54.3285 12.0739C54.177 12.7083 53.8881 13.2623 53.462 13.7358C53.0406 14.2045 52.5008 14.5691 51.8427 14.8295C51.1845 15.0852 50.4317 15.2131 49.5842 15.2131ZM61.0455 2.66335V0.454545H72.6506V2.66335H68.1548V15H65.5412V2.66335H61.0455ZM78.0217 15.2131C76.9279 15.2131 75.9833 14.9858 75.1879 14.5312C74.3971 14.072 73.7887 13.4233 73.3626 12.5852C72.9364 11.7424 72.7234 10.7505 72.7234 9.60938C72.7234 8.48722 72.9364 7.50237 73.3626 6.65483C73.7934 5.80256 74.3948 5.13968 75.1665 4.66619C75.9383 4.18797 76.8451 3.94886 77.8867 3.94886C78.5591 3.94886 79.1935 4.05777 79.7901 4.27557C80.3915 4.48864 80.9218 4.82008 81.381 5.26989C81.8451 5.7197 82.2096 6.29261 82.4748 6.98864C82.7399 7.67992 82.8725 8.50379 82.8725 9.46023V10.2486H73.9308V8.51562H80.408C80.4033 8.0232 80.2968 7.58523 80.0884 7.2017C79.8801 6.81345 79.5889 6.50805 79.2148 6.28551C78.8455 6.06297 78.4147 5.9517 77.9222 5.9517C77.3967 5.9517 76.935 6.07955 76.5373 6.33523C76.1396 6.58617 75.8294 6.91761 75.6069 7.32955C75.3891 7.73674 75.2778 8.18419 75.2731 8.67188V10.1847C75.2731 10.8191 75.3891 11.3636 75.6211 11.8182C75.8531 12.268 76.1774 12.6136 76.5941 12.8551C77.0108 13.0919 77.4985 13.2102 78.0572 13.2102C78.4312 13.2102 78.7698 13.1581 79.0728 13.054C79.3758 12.9451 79.6386 12.7865 79.8612 12.5781C80.0837 12.3698 80.2518 12.1117 80.3654 11.804L82.766 12.0739C82.6145 12.7083 82.3256 13.2623 81.8995 13.7358C81.4781 14.2045 80.9383 14.5691 80.2802 14.8295C79.622 15.0852 78.8692 15.2131 78.0217 15.2131ZM93.6697 6.97443L91.326 7.23011C91.2597 6.99337 91.1437 6.77083 90.978 6.5625C90.817 6.35417 90.5992 6.18608 90.3246 6.05824C90.05 5.9304 89.7138 5.86648 89.3161 5.86648C88.781 5.86648 88.3312 5.98248 87.9666 6.21449C87.6068 6.4465 87.4292 6.74716 87.4339 7.11648C87.4292 7.43371 87.5452 7.69176 87.782 7.89062C88.0234 8.08949 88.4212 8.25284 88.9751 8.38068L90.8359 8.77841C91.8681 9.00095 92.6352 9.35369 93.1371 9.83665C93.6437 10.3196 93.8994 10.9517 93.9041 11.733C93.8994 12.4195 93.6982 13.0256 93.3004 13.5511C92.9074 14.072 92.3606 14.4792 91.6598 14.7727C90.959 15.0663 90.1541 15.2131 89.245 15.2131C87.9098 15.2131 86.835 14.9337 86.0206 14.375C85.2062 13.8116 84.7209 13.0279 84.5646 12.0241L87.0717 11.7827C87.1854 12.2751 87.4268 12.6468 87.7962 12.8977C88.1655 13.1487 88.6461 13.2741 89.2379 13.2741C89.8487 13.2741 90.3388 13.1487 90.7081 12.8977C91.0821 12.6468 91.2692 12.3366 91.2692 11.9673C91.2692 11.6548 91.1484 11.3968 90.907 11.1932C90.6702 10.9896 90.3009 10.8333 89.799 10.7244L87.9382 10.3338C86.8918 10.116 86.1177 9.74905 85.6158 9.23295C85.1139 8.71212 84.8653 8.05398 84.87 7.25852C84.8653 6.58617 85.0476 6.00379 85.4169 5.51136C85.791 5.0142 86.3094 4.63068 86.9723 4.3608C87.6399 4.08617 88.4093 3.94886 89.2805 3.94886C90.5589 3.94886 91.5651 4.22112 92.299 4.76562C93.0376 5.31013 93.4946 6.0464 93.6697 6.97443ZM98.5952 0.454545V15H96.0241V0.454545H98.5952ZM104.378 15.2202C103.687 15.2202 103.064 15.0971 102.51 14.8509C101.961 14.5999 101.525 14.2306 101.203 13.7429C100.886 13.2552 100.728 12.6539 100.728 11.9389C100.728 11.3234 100.841 10.8144 101.069 10.4119C101.296 10.0095 101.606 9.6875 101.999 9.44602C102.392 9.20455 102.835 9.02225 103.327 8.89915C103.824 8.77131 104.338 8.67898 104.868 8.62216C105.507 8.55587 106.026 8.49669 106.424 8.4446C106.821 8.38778 107.11 8.30256 107.29 8.18892C107.475 8.07055 107.567 7.88826 107.567 7.64205V7.59943C107.567 7.06439 107.408 6.65009 107.091 6.35653C106.774 6.06297 106.317 5.91619 105.721 5.91619C105.091 5.91619 104.591 6.0535 104.222 6.32812C103.857 6.60275 103.611 6.92708 103.483 7.30114L101.083 6.96023C101.272 6.29735 101.585 5.74337 102.02 5.2983C102.456 4.84848 102.989 4.51231 103.618 4.28977C104.248 4.0625 104.944 3.94886 105.706 3.94886C106.232 3.94886 106.755 4.01042 107.276 4.13352C107.797 4.25663 108.273 4.46023 108.703 4.74432C109.134 5.02367 109.48 5.40483 109.74 5.88778C110.006 6.37074 110.138 6.97443 110.138 7.69886V15H107.667V13.5014H107.581C107.425 13.8045 107.205 14.0885 106.921 14.3537C106.641 14.6141 106.289 14.8248 105.863 14.9858C105.441 15.142 104.946 15.2202 104.378 15.2202ZM105.046 13.331C105.562 13.331 106.009 13.2292 106.388 13.0256C106.767 12.8172 107.058 12.5426 107.262 12.2017C107.47 11.8608 107.574 11.4891 107.574 11.0866V9.80114C107.494 9.86742 107.356 9.92898 107.162 9.9858C106.973 10.0426 106.76 10.0923 106.523 10.1349C106.286 10.1776 106.052 10.2154 105.82 10.2486C105.588 10.2817 105.387 10.3101 105.216 10.3338C104.833 10.3859 104.489 10.4711 104.186 10.5895C103.883 10.7079 103.644 10.8736 103.469 11.0866C103.294 11.295 103.206 11.5649 103.206 11.8963C103.206 12.3698 103.379 12.7273 103.725 12.9688C104.07 13.2102 104.511 13.331 105.046 13.331ZM130.248 5.36222H127.592C127.516 4.92661 127.377 4.54072 127.173 4.20455C126.969 3.86364 126.716 3.57481 126.413 3.33807C126.11 3.10133 125.764 2.92377 125.376 2.8054C124.993 2.68229 124.578 2.62074 124.133 2.62074C123.342 2.62074 122.642 2.8196 122.031 3.21733C121.42 3.61032 120.942 4.18797 120.596 4.95028C120.251 5.70786 120.078 6.63352 120.078 7.72727C120.078 8.83996 120.251 9.77746 120.596 10.5398C120.947 11.2973 121.425 11.8703 122.031 12.2585C122.642 12.642 123.34 12.8338 124.126 12.8338C124.562 12.8338 124.969 12.777 125.348 12.6634C125.731 12.545 126.074 12.3722 126.377 12.1449C126.685 11.9176 126.943 11.6383 127.152 11.3068C127.365 10.9754 127.511 10.5966 127.592 10.1705L130.248 10.1847C130.149 10.8759 129.933 11.5246 129.602 12.1307C129.275 12.7367 128.847 13.2718 128.316 13.7358C127.786 14.1951 127.166 14.5549 126.456 14.8153C125.745 15.071 124.957 15.1989 124.091 15.1989C122.812 15.1989 121.671 14.9029 120.667 14.3111C119.663 13.7192 118.873 12.8646 118.295 11.7472C117.717 10.6297 117.429 9.28977 117.429 7.72727C117.429 6.16004 117.72 4.82008 118.302 3.70739C118.885 2.58996 119.678 1.73532 120.681 1.14347C121.685 0.551609 122.822 0.255681 124.091 0.255681C124.9 0.255681 125.653 0.369318 126.349 0.59659C127.045 0.823863 127.665 1.15767 128.21 1.59801C128.754 2.03362 129.202 2.56866 129.552 3.20312C129.907 3.83286 130.139 4.55256 130.248 5.36222ZM135.687 15.2202C134.996 15.2202 134.373 15.0971 133.819 14.8509C133.27 14.5999 132.834 14.2306 132.512 13.7429C132.195 13.2552 132.036 12.6539 132.036 11.9389C132.036 11.3234 132.15 10.8144 132.377 10.4119C132.604 10.0095 132.915 9.6875 133.308 9.44602C133.701 9.20455 134.143 9.02225 134.636 8.89915C135.133 8.77131 135.647 8.67898 136.177 8.62216C136.816 8.55587 137.335 8.49669 137.732 8.4446C138.13 8.38778 138.419 8.30256 138.599 8.18892C138.783 8.07055 138.876 7.88826 138.876 7.64205V7.59943C138.876 7.06439 138.717 6.65009 138.4 6.35653C138.083 6.06297 137.626 5.91619 137.029 5.91619C136.399 5.91619 135.9 6.0535 135.531 6.32812C135.166 6.60275 134.92 6.92708 134.792 7.30114L132.391 6.96023C132.581 6.29735 132.893 5.74337 133.329 5.2983C133.764 4.84848 134.297 4.51231 134.927 4.28977C135.557 4.0625 136.253 3.94886 137.015 3.94886C137.54 3.94886 138.064 4.01042 138.585 4.13352C139.105 4.25663 139.581 4.46023 140.012 4.74432C140.443 5.02367 140.789 5.40483 141.049 5.88778C141.314 6.37074 141.447 6.97443 141.447 7.69886V15H138.975V13.5014H138.89C138.734 13.8045 138.513 14.0885 138.229 14.3537C137.95 14.6141 137.597 14.8248 137.171 14.9858C136.75 15.142 136.255 15.2202 135.687 15.2202ZM136.354 13.331C136.871 13.331 137.318 13.2292 137.697 13.0256C138.076 12.8172 138.367 12.5426 138.57 12.2017C138.779 11.8608 138.883 11.4891 138.883 11.0866V9.80114C138.802 9.86742 138.665 9.92898 138.471 9.9858C138.281 10.0426 138.068 10.0923 137.832 10.1349C137.595 10.1776 137.361 10.2154 137.129 10.2486C136.897 10.2817 136.695 10.3101 136.525 10.3338C136.141 10.3859 135.798 10.4711 135.495 10.5895C135.192 10.7079 134.953 10.8736 134.778 11.0866C134.603 11.295 134.515 11.5649 134.515 11.8963C134.515 12.3698 134.688 12.7273 135.033 12.9688C135.379 13.2102 135.819 13.331 136.354 13.331ZM144.032 15V4.09091H146.525V5.90909H146.638C146.837 5.27936 147.178 4.79403 147.661 4.45312C148.149 4.10748 148.705 3.93466 149.33 3.93466C149.472 3.93466 149.631 3.94176 149.806 3.95597C149.986 3.96544 150.135 3.98201 150.254 4.00568V6.37074C150.145 6.33286 149.972 6.29972 149.735 6.27131C149.503 6.23816 149.278 6.22159 149.06 6.22159C148.592 6.22159 148.17 6.32339 147.796 6.52699C147.427 6.72585 147.136 7.00284 146.923 7.35795C146.71 7.71307 146.603 8.12263 146.603 8.58665V15H144.032ZM160.584 6.97443L158.24 7.23011C158.174 6.99337 158.058 6.77083 157.892 6.5625C157.731 6.35417 157.513 6.18608 157.239 6.05824C156.964 5.9304 156.628 5.86648 156.23 5.86648C155.695 5.86648 155.245 5.98248 154.881 6.21449C154.521 6.4465 154.343 6.74716 154.348 7.11648C154.343 7.43371 154.459 7.69176 154.696 7.89062C154.938 8.08949 155.335 8.25284 155.889 8.38068L157.75 8.77841C158.782 9.00095 159.549 9.35369 160.051 9.83665C160.558 10.3196 160.813 10.9517 160.818 11.733C160.813 12.4195 160.612 13.0256 160.214 13.5511C159.821 14.072 159.275 14.4792 158.574 14.7727C157.873 15.0663 157.068 15.2131 156.159 15.2131C154.824 15.2131 153.749 14.9337 152.935 14.375C152.12 13.8116 151.635 13.0279 151.479 12.0241L153.986 11.7827C154.099 12.2751 154.341 12.6468 154.71 12.8977C155.08 13.1487 155.56 13.2741 156.152 13.2741C156.763 13.2741 157.253 13.1487 157.622 12.8977C157.996 12.6468 158.183 12.3366 158.183 11.9673C158.183 11.6548 158.063 11.3968 157.821 11.1932C157.584 10.9896 157.215 10.8333 156.713 10.7244L154.852 10.3338C153.806 10.116 153.032 9.74905 152.53 9.23295C152.028 8.71212 151.779 8.05398 151.784 7.25852C151.779 6.58617 151.962 6.00379 152.331 5.51136C152.705 5.0142 153.223 4.63068 153.886 4.3608C154.554 4.08617 155.323 3.94886 156.195 3.94886C157.473 3.94886 158.479 4.22112 159.213 4.76562C159.952 5.31013 160.409 6.0464 160.584 6.97443Z" fill="white"/>
</svg>
