<svg width="262" height="34" viewBox="0 0 262 34" fill="none" xmlns="http://www.w3.org/2000/svg">
<path d="M1.43466 24V9.45455H4.0696V21.7912H10.4759V24H1.43466ZM15.7884 24.2202C15.0971 24.2202 14.4744 24.0971 13.9205 23.8509C13.3712 23.5999 12.9356 23.2306 12.6136 22.7429C12.2964 22.2552 12.1378 21.6539 12.1378 20.9389C12.1378 20.3234 12.2514 19.8144 12.4787 19.4119C12.706 19.0095 13.0161 18.6875 13.4091 18.446C13.8021 18.2045 14.2448 18.0223 14.7372 17.8991C15.2344 17.7713 15.7481 17.679 16.2784 17.6222C16.9176 17.5559 17.4361 17.4967 17.8338 17.4446C18.2315 17.3878 18.5204 17.3026 18.7003 17.1889C18.8849 17.0705 18.9773 16.8883 18.9773 16.642V16.5994C18.9773 16.0644 18.8187 15.6501 18.5014 15.3565C18.1842 15.063 17.7273 14.9162 17.1307 14.9162C16.5009 14.9162 16.0014 15.0535 15.6321 15.3281C15.2675 15.6027 15.0213 15.9271 14.8935 16.3011L12.4929 15.9602C12.6823 15.2973 12.9948 14.7434 13.4304 14.2983C13.866 13.8485 14.3987 13.5123 15.0284 13.2898C15.6581 13.0625 16.3542 12.9489 17.1165 12.9489C17.642 12.9489 18.1652 13.0104 18.6861 13.1335C19.2069 13.2566 19.6828 13.4602 20.1136 13.7443C20.5445 14.0237 20.8902 14.4048 21.1506 14.8878C21.4157 15.3707 21.5483 15.9744 21.5483 16.6989V24H19.0767V22.5014H18.9915C18.8352 22.8045 18.6151 23.0885 18.331 23.3537C18.0516 23.6141 17.6989 23.8248 17.2727 23.9858C16.8513 24.142 16.3565 24.2202 15.7884 24.2202ZM16.456 22.331C16.9721 22.331 17.4195 22.2292 17.7983 22.0256C18.1771 21.8172 18.4683 21.5426 18.6719 21.2017C18.8802 20.8608 18.9844 20.4891 18.9844 20.0866V18.8011C18.9039 18.8674 18.7666 18.929 18.5724 18.9858C18.383 19.0426 18.17 19.0923 17.9332 19.1349C17.6965 19.1776 17.4621 19.2154 17.2301 19.2486C16.9981 19.2817 16.7969 19.3101 16.6264 19.3338C16.2429 19.3859 15.8996 19.4711 15.5966 19.5895C15.2936 19.7079 15.0545 19.8736 14.8793 20.0866C14.7041 20.295 14.6165 20.5649 14.6165 20.8963C14.6165 21.3698 14.7893 21.7273 15.1349 21.9688C15.4806 22.2102 15.9209 22.331 16.456 22.331ZM25.3409 28.0909C24.9905 28.0909 24.6662 28.0625 24.3679 28.0057C24.0743 27.9536 23.84 27.892 23.6648 27.821L24.2614 25.8182C24.6354 25.9271 24.9692 25.9792 25.2628 25.9744C25.5563 25.9697 25.8144 25.8774 26.0369 25.6974C26.2642 25.5223 26.456 25.2287 26.6122 24.8168L26.8324 24.2273L22.8764 13.0909H25.6037L28.1179 21.3295H28.2315L30.7528 13.0909H33.4872L29.1193 25.321C28.9157 25.8987 28.6458 26.3935 28.3097 26.8054C27.9735 27.2221 27.5616 27.5393 27.0739 27.7571C26.5909 27.9796 26.0133 28.0909 25.3409 28.0909ZM39.6538 24.2131C38.5884 24.2131 37.6651 23.9787 36.8839 23.5099C36.1026 23.0412 35.4966 22.3854 35.0657 21.5426C34.6396 20.6998 34.4265 19.715 34.4265 18.5881C34.4265 17.4612 34.6396 16.474 35.0657 15.6264C35.4966 14.7789 36.1026 14.1207 36.8839 13.652C37.6651 13.1832 38.5884 12.9489 39.6538 12.9489C40.7191 12.9489 41.6424 13.1832 42.4237 13.652C43.2049 14.1207 43.8086 14.7789 44.2347 15.6264C44.6656 16.474 44.881 17.4612 44.881 18.5881C44.881 19.715 44.6656 20.6998 44.2347 21.5426C43.8086 22.3854 43.2049 23.0412 42.4237 23.5099C41.6424 23.9787 40.7191 24.2131 39.6538 24.2131ZM39.668 22.1534C40.2456 22.1534 40.7286 21.9948 41.1168 21.6776C41.5051 21.3556 41.7939 20.9247 41.9833 20.3849C42.1774 19.8452 42.2745 19.2438 42.2745 18.581C42.2745 17.9134 42.1774 17.3097 41.9833 16.7699C41.7939 16.2254 41.5051 15.7921 41.1168 15.4702C40.7286 15.1482 40.2456 14.9872 39.668 14.9872C39.0761 14.9872 38.5837 15.1482 38.1907 15.4702C37.8024 15.7921 37.5112 16.2254 37.3171 16.7699C37.1277 17.3097 37.033 17.9134 37.033 18.581C37.033 19.2438 37.1277 19.8452 37.3171 20.3849C37.5112 20.9247 37.8024 21.3556 38.1907 21.6776C38.5837 21.9948 39.0761 22.1534 39.668 22.1534ZM54.0163 19.4119V13.0909H56.5874V24H54.0945V22.0611H53.9808C53.7346 22.6719 53.3298 23.1714 52.7663 23.5597C52.2076 23.9479 51.5187 24.142 50.6996 24.142C49.9846 24.142 49.3525 23.9834 48.8033 23.6662C48.2588 23.3442 47.8326 22.8778 47.5249 22.267C47.2171 21.6515 47.0632 20.9081 47.0632 20.0369V13.0909H49.6342V19.6392C49.6342 20.3305 49.8236 20.8797 50.2024 21.2869C50.5812 21.6941 51.0784 21.8977 51.6939 21.8977C52.0727 21.8977 52.4396 21.8054 52.7947 21.6207C53.1499 21.4361 53.4411 21.1615 53.6683 20.7969C53.9003 20.4276 54.0163 19.9659 54.0163 19.4119ZM64.6786 13.0909V15.0795H58.4073V13.0909H64.6786ZM59.9556 10.4773H62.5266V20.7188C62.5266 21.0644 62.5787 21.3295 62.6829 21.5142C62.7918 21.6941 62.9338 21.8172 63.109 21.8835C63.2842 21.9498 63.4783 21.983 63.6914 21.983C63.8524 21.983 63.9992 21.9711 64.1317 21.9474C64.2691 21.9238 64.3732 21.9025 64.4442 21.8835L64.8775 23.8935C64.7402 23.9408 64.5437 23.9929 64.288 24.0497C64.0371 24.1065 63.7293 24.1397 63.3647 24.1491C62.7208 24.1681 62.1407 24.071 61.6246 23.858C61.1085 23.6402 60.699 23.304 60.396 22.8494C60.0977 22.3949 59.9509 21.8267 59.9556 21.1449V10.4773ZM75.8381 24.1918C74.9811 24.1918 74.214 23.9716 73.5369 23.5312C72.8598 23.0909 72.3248 22.4517 71.9318 21.6136C71.5388 20.7756 71.3423 19.7576 71.3423 18.5597C71.3423 17.3475 71.5412 16.3248 71.9389 15.4915C72.3414 14.6534 72.8835 14.0213 73.5653 13.5952C74.2472 13.1643 75.0071 12.9489 75.8452 12.9489C76.4844 12.9489 77.0099 13.0578 77.4219 13.2756C77.8338 13.4886 78.1605 13.7467 78.402 14.0497C78.6435 14.348 78.8305 14.6297 78.9631 14.8949H79.0696V9.45455H81.6477V24H79.1193V22.2812H78.9631C78.8305 22.5464 78.6387 22.8281 78.3878 23.1264C78.1368 23.42 77.8054 23.6709 77.3935 23.8793C76.9815 24.0876 76.4631 24.1918 75.8381 24.1918ZM76.5554 22.0824C77.0999 22.0824 77.5639 21.9356 77.9474 21.642C78.331 21.3437 78.6222 20.9295 78.821 20.3991C79.0199 19.8688 79.1193 19.2509 79.1193 18.5455C79.1193 17.84 79.0199 17.2268 78.821 16.706C78.6269 16.1851 78.3381 15.7803 77.9545 15.4915C77.5758 15.2027 77.1094 15.0582 76.5554 15.0582C75.9825 15.0582 75.5043 15.2074 75.1207 15.5057C74.7372 15.804 74.4484 16.2159 74.2543 16.7415C74.0601 17.267 73.9631 17.8684 73.9631 18.5455C73.9631 19.2273 74.0601 19.8357 74.2543 20.3707C74.4531 20.901 74.7443 21.3201 75.1278 21.6278C75.5161 21.9309 75.992 22.0824 76.5554 22.0824ZM87.5266 24.2202C86.8353 24.2202 86.2127 24.0971 85.6587 23.8509C85.1095 23.5999 84.6739 23.2306 84.3519 22.7429C84.0347 22.2552 83.8761 21.6539 83.8761 20.9389C83.8761 20.3234 83.9897 19.8144 84.217 19.4119C84.4442 19.0095 84.7544 18.6875 85.1474 18.446C85.5404 18.2045 85.9831 18.0223 86.4755 17.8991C86.9727 17.7713 87.4864 17.679 88.0167 17.6222C88.6559 17.5559 89.1744 17.4967 89.5721 17.4446C89.9698 17.3878 90.2586 17.3026 90.4386 17.1889C90.6232 17.0705 90.7156 16.8883 90.7156 16.642V16.5994C90.7156 16.0644 90.5569 15.6501 90.2397 15.3565C89.9225 15.063 89.4656 14.9162 88.869 14.9162C88.2392 14.9162 87.7397 15.0535 87.3704 15.3281C87.0058 15.6027 86.7596 15.9271 86.6317 16.3011L84.2312 15.9602C84.4206 15.2973 84.7331 14.7434 85.1687 14.2983C85.6043 13.8485 86.137 13.5123 86.7667 13.2898C87.3964 13.0625 88.0924 12.9489 88.8548 12.9489C89.3803 12.9489 89.9035 13.0104 90.4244 13.1335C90.9452 13.2566 91.421 13.4602 91.8519 13.7443C92.2828 14.0237 92.6284 14.4048 92.8888 14.8878C93.154 15.3707 93.2866 15.9744 93.2866 16.6989V24H90.815V22.5014H90.7298C90.5735 22.8045 90.3533 23.0885 90.0692 23.3537C89.7899 23.6141 89.4371 23.8248 89.011 23.9858C88.5896 24.142 88.0948 24.2202 87.5266 24.2202ZM88.1942 22.331C88.7103 22.331 89.1578 22.2292 89.5366 22.0256C89.9154 21.8172 90.2066 21.5426 90.4102 21.2017C90.6185 20.8608 90.7227 20.4891 90.7227 20.0866V18.8011C90.6422 18.8674 90.5049 18.929 90.3107 18.9858C90.1213 19.0426 89.9083 19.0923 89.6715 19.1349C89.4348 19.1776 89.2004 19.2154 88.9684 19.2486C88.7364 19.2817 88.5352 19.3101 88.3647 19.3338C87.9812 19.3859 87.6379 19.4711 87.3349 19.5895C87.0318 19.7079 86.7927 19.8736 86.6175 20.0866C86.4424 20.295 86.3548 20.5649 86.3548 20.8963C86.3548 21.3698 86.5276 21.7273 86.8732 21.9688C87.2189 22.2102 87.6592 22.331 88.1942 22.331ZM100.946 24V9.45455H103.581V21.7912H109.988V24H100.946ZM116.919 24.2131C115.854 24.2131 114.931 23.9787 114.15 23.5099C113.368 23.0412 112.762 22.3854 112.331 21.5426C111.905 20.6998 111.692 19.715 111.692 18.5881C111.692 17.4612 111.905 16.474 112.331 15.6264C112.762 14.7789 113.368 14.1207 114.15 13.652C114.931 13.1832 115.854 12.9489 116.919 12.9489C117.985 12.9489 118.908 13.1832 119.689 13.652C120.471 14.1207 121.074 14.7789 121.5 15.6264C121.931 16.474 122.147 17.4612 122.147 18.5881C122.147 19.715 121.931 20.6998 121.5 21.5426C121.074 22.3854 120.471 23.0412 119.689 23.5099C118.908 23.9787 117.985 24.2131 116.919 24.2131ZM116.934 22.1534C117.511 22.1534 117.994 21.9948 118.382 21.6776C118.771 21.3556 119.06 20.9247 119.249 20.3849C119.443 19.8452 119.54 19.2438 119.54 18.581C119.54 17.9134 119.443 17.3097 119.249 16.7699C119.06 16.2254 118.771 15.7921 118.382 15.4702C117.994 15.1482 117.511 14.9872 116.934 14.9872C116.342 14.9872 115.849 15.1482 115.456 15.4702C115.068 15.7921 114.777 16.2254 114.583 16.7699C114.393 17.3097 114.299 17.9134 114.299 18.581C114.299 19.2438 114.393 19.8452 114.583 20.3849C114.777 20.9247 115.068 21.3556 115.456 21.6776C115.849 21.9948 116.342 22.1534 116.934 22.1534ZM131.282 19.4119V13.0909H133.853V24H131.36V22.0611H131.246C131 22.6719 130.595 23.1714 130.032 23.5597C129.473 23.9479 128.784 24.142 127.965 24.142C127.25 24.142 126.618 23.9834 126.069 23.6662C125.524 23.3442 125.098 22.8778 124.79 22.267C124.483 21.6515 124.329 20.9081 124.329 20.0369V13.0909H126.9V19.6392C126.9 20.3305 127.089 20.8797 127.468 21.2869C127.847 21.6941 128.344 21.8977 128.96 21.8977C129.338 21.8977 129.705 21.8054 130.06 21.6207C130.415 21.4361 130.707 21.1615 130.934 20.7969C131.166 20.4276 131.282 19.9659 131.282 19.4119ZM139.068 17.608V24H136.497V13.0909H138.954V14.9446H139.082C139.333 14.3338 139.733 13.8485 140.282 13.4886C140.836 13.1288 141.52 12.9489 142.335 12.9489C143.088 12.9489 143.743 13.1098 144.302 13.4318C144.866 13.7538 145.301 14.2202 145.609 14.831C145.922 15.4418 146.075 16.1828 146.071 17.054V24H143.5V17.4517C143.5 16.7225 143.31 16.152 142.931 15.7401C142.557 15.3281 142.039 15.1222 141.376 15.1222C140.926 15.1222 140.526 15.2216 140.176 15.4205C139.83 15.6146 139.558 15.8963 139.359 16.2656C139.165 16.6349 139.068 17.0824 139.068 17.608ZM151.824 24.2202C151.132 24.2202 150.51 24.0971 149.956 23.8509C149.406 23.5999 148.971 23.2306 148.649 22.7429C148.332 22.2552 148.173 21.6539 148.173 20.9389C148.173 20.3234 148.287 19.8144 148.514 19.4119C148.741 19.0095 149.051 18.6875 149.444 18.446C149.837 18.2045 150.28 18.0223 150.772 17.8991C151.27 17.7713 151.783 17.679 152.314 17.6222C152.953 17.5559 153.471 17.4967 153.869 17.4446C154.267 17.3878 154.556 17.3026 154.735 17.1889C154.92 17.0705 155.012 16.8883 155.012 16.642V16.5994C155.012 16.0644 154.854 15.6501 154.537 15.3565C154.219 15.063 153.762 14.9162 153.166 14.9162C152.536 14.9162 152.037 15.0535 151.667 15.3281C151.303 15.6027 151.056 15.9271 150.929 16.3011L148.528 15.9602C148.717 15.2973 149.03 14.7434 149.466 14.2983C149.901 13.8485 150.434 13.5123 151.064 13.2898C151.693 13.0625 152.389 12.9489 153.152 12.9489C153.677 12.9489 154.2 13.0104 154.721 13.1335C155.242 13.2566 155.718 13.4602 156.149 13.7443C156.58 14.0237 156.925 14.4048 157.186 14.8878C157.451 15.3707 157.583 15.9744 157.583 16.6989V24H155.112V22.5014H155.027C154.87 22.8045 154.65 23.0885 154.366 23.3537C154.087 23.6141 153.734 23.8248 153.308 23.9858C152.886 24.142 152.392 24.2202 151.824 24.2202ZM152.491 22.331C153.007 22.331 153.455 22.2292 153.833 22.0256C154.212 21.8172 154.503 21.5426 154.707 21.2017C154.915 20.8608 155.02 20.4891 155.02 20.0866V18.8011C154.939 18.8674 154.802 18.929 154.608 18.9858C154.418 19.0426 154.205 19.0923 153.968 19.1349C153.732 19.1776 153.497 19.2154 153.265 19.2486C153.033 19.2817 152.832 19.3101 152.662 19.3338C152.278 19.3859 151.935 19.4711 151.632 19.5895C151.329 19.7079 151.09 19.8736 150.914 20.0866C150.739 20.295 150.652 20.5649 150.652 20.8963C150.652 21.3698 150.824 21.7273 151.17 21.9688C151.516 22.2102 151.956 22.331 152.491 22.331ZM173.148 13.4531C173.082 12.8329 172.802 12.3499 172.31 12.0043C171.822 11.6586 171.188 11.4858 170.407 11.4858C169.857 11.4858 169.386 11.5687 168.993 11.7344C168.6 11.9001 168.3 12.125 168.091 12.4091C167.883 12.6932 167.776 13.0175 167.772 13.3821C167.772 13.6851 167.84 13.9479 167.978 14.1705C168.12 14.393 168.311 14.5824 168.553 14.7386C168.794 14.8902 169.062 15.018 169.355 15.1222C169.649 15.2263 169.945 15.3139 170.243 15.3849L171.607 15.7259C172.156 15.8537 172.684 16.0265 173.191 16.2443C173.702 16.4621 174.159 16.7367 174.561 17.0682C174.969 17.3996 175.291 17.7997 175.527 18.2685C175.764 18.7372 175.882 19.2865 175.882 19.9162C175.882 20.7685 175.665 21.5189 175.229 22.1676C174.793 22.8116 174.164 23.3158 173.34 23.6804C172.521 24.0402 171.529 24.2202 170.364 24.2202C169.232 24.2202 168.25 24.045 167.417 23.6946C166.588 23.3442 165.939 22.8329 165.471 22.1605C165.007 21.4882 164.756 20.669 164.718 19.7031H167.31C167.348 20.2098 167.504 20.6312 167.779 20.9673C168.053 21.3035 168.411 21.5545 168.851 21.7202C169.296 21.8859 169.793 21.9688 170.343 21.9688C170.916 21.9688 171.417 21.8835 171.848 21.7131C172.284 21.5379 172.625 21.2964 172.871 20.9886C173.117 20.6761 173.243 20.3116 173.248 19.8949C173.243 19.5161 173.132 19.2036 172.914 18.9574C172.696 18.7064 172.391 18.4981 171.998 18.3324C171.609 18.1619 171.155 18.0104 170.634 17.8778L168.979 17.4517C167.781 17.1439 166.834 16.6776 166.138 16.0526C165.447 15.4228 165.101 14.5871 165.101 13.5455C165.101 12.6884 165.333 11.938 165.797 11.294C166.266 10.6501 166.903 10.1506 167.708 9.79545C168.513 9.43561 169.424 9.25568 170.442 9.25568C171.474 9.25568 172.379 9.43561 173.155 9.79545C173.936 10.1506 174.55 10.6454 174.995 11.2798C175.44 11.9096 175.669 12.634 175.684 13.4531H173.148ZM180.462 20.5767L180.455 17.473H180.866L184.787 13.0909H187.791L182.969 18.4602H182.436L180.462 20.5767ZM178.118 24V9.45455H180.689V24H178.118ZM184.964 24L181.413 19.0355L183.146 17.2244L188.04 24H184.964ZM191.22 28.0909C190.869 28.0909 190.545 28.0625 190.247 28.0057C189.953 27.9536 189.719 27.892 189.544 27.821L190.14 25.8182C190.514 25.9271 190.848 25.9792 191.142 25.9744C191.435 25.9697 191.693 25.8774 191.916 25.6974C192.143 25.5223 192.335 25.2287 192.491 24.8168L192.711 24.2273L188.755 13.0909H191.483L193.997 21.3295H194.11L196.632 13.0909H199.366L194.998 25.321C194.795 25.8987 194.525 26.3935 194.189 26.8054C193.852 27.2221 193.44 27.5393 192.953 27.7571C192.47 27.9796 191.892 28.0909 191.22 28.0909ZM203.716 9.45455V24H201.145V9.45455H203.716ZM209.499 24.2202C208.808 24.2202 208.185 24.0971 207.631 23.8509C207.082 23.5999 206.647 23.2306 206.325 22.7429C206.007 22.2552 205.849 21.6539 205.849 20.9389C205.849 20.3234 205.962 19.8144 206.19 19.4119C206.417 19.0095 206.727 18.6875 207.12 18.446C207.513 18.2045 207.956 18.0223 208.448 17.8991C208.945 17.7713 209.459 17.679 209.989 17.6222C210.629 17.5559 211.147 17.4967 211.545 17.4446C211.942 17.3878 212.231 17.3026 212.411 17.1889C212.596 17.0705 212.688 16.8883 212.688 16.642V16.5994C212.688 16.0644 212.53 15.6501 212.212 15.3565C211.895 15.063 211.438 14.9162 210.842 14.9162C210.212 14.9162 209.712 15.0535 209.343 15.3281C208.978 15.6027 208.732 15.9271 208.604 16.3011L206.204 15.9602C206.393 15.2973 206.706 14.7434 207.141 14.2983C207.577 13.8485 208.11 13.5123 208.739 13.2898C209.369 13.0625 210.065 12.9489 210.827 12.9489C211.353 12.9489 211.876 13.0104 212.397 13.1335C212.918 13.2566 213.394 13.4602 213.825 13.7443C214.255 14.0237 214.601 14.4048 214.862 14.8878C215.127 15.3707 215.259 15.9744 215.259 16.6989V24H212.788V22.5014H212.702C212.546 22.8045 212.326 23.0885 212.042 23.3537C211.763 23.6141 211.41 23.8248 210.984 23.9858C210.562 24.142 210.067 24.2202 209.499 24.2202ZM210.167 22.331C210.683 22.331 211.13 22.2292 211.509 22.0256C211.888 21.8172 212.179 21.5426 212.383 21.2017C212.591 20.8608 212.695 20.4891 212.695 20.0866V18.8011C212.615 18.8674 212.478 18.929 212.283 18.9858C212.094 19.0426 211.881 19.0923 211.644 19.1349C211.407 19.1776 211.173 19.2154 210.941 19.2486C210.709 19.2817 210.508 19.3101 210.337 19.3338C209.954 19.3859 209.611 19.4711 209.308 19.5895C209.004 19.7079 208.765 19.8736 208.59 20.0866C208.415 20.295 208.327 20.5649 208.327 20.8963C208.327 21.3698 208.5 21.7273 208.846 21.9688C209.192 22.2102 209.632 22.331 210.167 22.331ZM220.415 17.608V24H217.844V13.0909H220.302V14.9446H220.43C220.681 14.3338 221.081 13.8485 221.63 13.4886C222.184 13.1288 222.868 12.9489 223.683 12.9489C224.435 12.9489 225.091 13.1098 225.65 13.4318C226.213 13.7538 226.649 14.2202 226.957 14.831C227.269 15.4418 227.423 16.1828 227.418 17.054V24H224.847V17.4517C224.847 16.7225 224.658 16.152 224.279 15.7401C223.905 15.3281 223.387 15.1222 222.724 15.1222C222.274 15.1222 221.874 15.2216 221.523 15.4205C221.178 15.6146 220.906 15.8963 220.707 16.2656C220.513 16.6349 220.415 17.0824 220.415 17.608ZM234.08 24.1918C233.223 24.1918 232.456 23.9716 231.779 23.5312C231.102 23.0909 230.567 22.4517 230.174 21.6136C229.781 20.7756 229.585 19.7576 229.585 18.5597C229.585 17.3475 229.783 16.3248 230.181 15.4915C230.584 14.6534 231.126 14.0213 231.808 13.5952C232.489 13.1643 233.249 12.9489 234.087 12.9489C234.727 12.9489 235.252 13.0578 235.664 13.2756C236.076 13.4886 236.403 13.7467 236.644 14.0497C236.886 14.348 237.073 14.6297 237.205 14.8949H237.312V9.45455H239.89V24H237.362V22.2812H237.205C237.073 22.5464 236.881 22.8281 236.63 23.1264C236.379 23.42 236.048 23.6709 235.636 23.8793C235.224 24.0876 234.705 24.1918 234.08 24.1918ZM234.798 22.0824C235.342 22.0824 235.806 21.9356 236.19 21.642C236.573 21.3437 236.864 20.9295 237.063 20.3991C237.262 19.8688 237.362 19.2509 237.362 18.5455C237.362 17.84 237.262 17.2268 237.063 16.706C236.869 16.1851 236.58 15.7803 236.197 15.4915C235.818 15.2027 235.352 15.0582 234.798 15.0582C234.225 15.0582 233.746 15.2074 233.363 15.5057C232.979 15.804 232.691 16.2159 232.496 16.7415C232.302 17.267 232.205 17.8684 232.205 18.5455C232.205 19.2273 232.302 19.8357 232.496 20.3707C232.695 20.901 232.987 21.3201 233.37 21.6278C233.758 21.9309 234.234 22.0824 234.798 22.0824ZM247.459 24.2131C246.365 24.2131 245.421 23.9858 244.625 23.5312C243.835 23.072 243.226 22.4233 242.8 21.5852C242.374 20.7424 242.161 19.7505 242.161 18.6094C242.161 17.4872 242.374 16.5024 242.8 15.6548C243.231 14.8026 243.832 14.1397 244.604 13.6662C245.376 13.188 246.283 12.9489 247.324 12.9489C247.997 12.9489 248.631 13.0578 249.228 13.2756C249.829 13.4886 250.359 13.8201 250.819 14.2699C251.283 14.7197 251.647 15.2926 251.912 15.9886C252.177 16.6799 252.31 17.5038 252.31 18.4602V19.2486H243.368V17.5156H249.846C249.841 17.0232 249.734 16.5852 249.526 16.2017C249.318 15.8134 249.026 15.508 248.652 15.2855C248.283 15.063 247.852 14.9517 247.36 14.9517C246.834 14.9517 246.373 15.0795 245.975 15.3352C245.577 15.5862 245.267 15.9176 245.044 16.3295C244.827 16.7367 244.715 17.1842 244.711 17.6719V19.1847C244.711 19.8191 244.827 20.3636 245.059 20.8182C245.291 21.268 245.615 21.6136 246.032 21.8551C246.448 22.0919 246.936 22.2102 247.495 22.2102C247.869 22.2102 248.207 22.1581 248.51 22.054C248.813 21.9451 249.076 21.7865 249.299 21.5781C249.521 21.3698 249.689 21.1117 249.803 20.804L252.203 21.0739C252.052 21.7083 251.763 22.2623 251.337 22.7358C250.916 23.2045 250.376 23.5691 249.718 23.8295C249.06 24.0852 248.307 24.2131 247.459 24.2131ZM254.485 24V13.0909H256.978V14.9091H257.092C257.29 14.2794 257.631 13.794 258.114 13.4531C258.602 13.1075 259.158 12.9347 259.783 12.9347C259.925 12.9347 260.084 12.9418 260.259 12.956C260.439 12.9654 260.588 12.982 260.707 13.0057V15.3707C260.598 15.3329 260.425 15.2997 260.188 15.2713C259.956 15.2382 259.731 15.2216 259.513 15.2216C259.045 15.2216 258.623 15.3234 258.249 15.527C257.88 15.7259 257.589 16.0028 257.376 16.358C257.163 16.7131 257.056 17.1226 257.056 17.5866V24H254.485Z" fill="white"/>
</svg>
