<svg width="146" height="34" viewBox="0 0 146 34" fill="none" xmlns="http://www.w3.org/2000/svg">
<path d="M1.43466 24V9.45455H6.8892C8.00663 9.45455 8.94413 9.64867 9.7017 10.0369C10.464 10.4252 11.0393 10.9697 11.4276 11.6705C11.8205 12.3665 12.017 13.1785 12.017 14.1065C12.017 15.0393 11.8182 15.849 11.4205 16.5355C11.0275 17.2173 10.4474 17.7453 9.6804 18.1193C8.91335 18.4886 7.97112 18.6733 6.85369 18.6733H2.96875V16.4858H6.49858C7.15199 16.4858 7.68703 16.3958 8.10369 16.2159C8.52036 16.0312 8.82813 15.7637 9.02699 15.4134C9.23059 15.0582 9.33239 14.6226 9.33239 14.1065C9.33239 13.5904 9.23059 13.1501 9.02699 12.7855C8.82339 12.4162 8.51326 12.1368 8.09659 11.9474C7.67992 11.7533 7.14252 11.6562 6.48438 11.6562H4.0696V24H1.43466ZM8.94886 17.4091L12.5497 24H9.60938L6.07244 17.4091H8.94886ZM14.3288 24V13.0909H16.8999V24H14.3288ZM15.6214 11.5426C15.2143 11.5426 14.8639 11.4077 14.5703 11.1378C14.2768 10.8632 14.13 10.5341 14.13 10.1506C14.13 9.76231 14.2768 9.43324 14.5703 9.16335C14.8639 8.88873 15.2143 8.75142 15.6214 8.75142C16.0334 8.75142 16.3838 8.88873 16.6726 9.16335C16.9661 9.43324 17.1129 9.76231 17.1129 10.1506C17.1129 10.5341 16.9661 10.8632 16.6726 11.1378C16.3838 11.4077 16.0334 11.5426 15.6214 11.5426ZM24.3022 24.2131C23.2132 24.2131 22.2781 23.974 21.4968 23.4957C20.7203 23.0175 20.1213 22.357 19.6999 21.5142C19.2833 20.6667 19.0749 19.6913 19.0749 18.5881C19.0749 17.4801 19.288 16.5024 19.7141 15.6548C20.1403 14.8026 20.7416 14.1397 21.5181 13.6662C22.2994 13.188 23.2227 12.9489 24.288 12.9489C25.1734 12.9489 25.957 13.1122 26.6388 13.4389C27.3254 13.7609 27.8723 14.2178 28.2795 14.8097C28.6867 15.3968 28.9187 16.0833 28.9755 16.8693H26.5181C26.4187 16.3437 26.1819 15.9058 25.8079 15.5554C25.4386 15.2003 24.9438 15.0227 24.3235 15.0227C23.7979 15.0227 23.3363 15.1648 22.9386 15.4489C22.5408 15.7282 22.2307 16.1307 22.0082 16.6562C21.7904 17.1818 21.6815 17.8116 21.6815 18.5455C21.6815 19.2888 21.7904 19.928 22.0082 20.4631C22.226 20.9934 22.5314 21.4029 22.9244 21.6918C23.3221 21.9759 23.7885 22.1179 24.3235 22.1179C24.7023 22.1179 25.0408 22.0469 25.3391 21.9048C25.6422 21.758 25.8955 21.5473 26.0991 21.2727C26.3027 20.9981 26.4424 20.6643 26.5181 20.2713H28.9755C28.9139 21.0431 28.6867 21.7273 28.2937 22.3239C27.9007 22.9157 27.3656 23.3797 26.6886 23.7159C26.0115 24.0473 25.216 24.2131 24.3022 24.2131ZM33.4304 20.5767L33.4233 17.473H33.8352L37.7557 13.0909H40.7599L35.9375 18.4602H35.4048L33.4304 20.5767ZM31.0866 24V9.45455H33.6577V24H31.0866ZM37.9332 24L34.3821 19.0355L36.1151 17.2244L41.0085 24H37.9332ZM50.5735 24.2202C49.8822 24.2202 49.2596 24.0971 48.7056 23.8509C48.1564 23.5999 47.7208 23.2306 47.3988 22.7429C47.0816 22.2552 46.9229 21.6539 46.9229 20.9389C46.9229 20.3234 47.0366 19.8144 47.2638 19.4119C47.4911 19.0095 47.8013 18.6875 48.1942 18.446C48.5872 18.2045 49.0299 18.0223 49.5224 17.8991C50.0195 17.7713 50.5333 17.679 51.0636 17.6222C51.7028 17.5559 52.2212 17.4967 52.619 17.4446C53.0167 17.3878 53.3055 17.3026 53.4854 17.1889C53.6701 17.0705 53.7624 16.8883 53.7624 16.642V16.5994C53.7624 16.0644 53.6038 15.6501 53.2866 15.3565C52.9693 15.063 52.5124 14.9162 51.9158 14.9162C51.2861 14.9162 50.7866 15.0535 50.4173 15.3281C50.0527 15.6027 49.8065 15.9271 49.6786 16.3011L47.2781 15.9602C47.4674 15.2973 47.7799 14.7434 48.2156 14.2983C48.6512 13.8485 49.1838 13.5123 49.8136 13.2898C50.4433 13.0625 51.1393 12.9489 51.9016 12.9489C52.4272 12.9489 52.9504 13.0104 53.4712 13.1335C53.9921 13.2566 54.4679 13.4602 54.8988 13.7443C55.3297 14.0237 55.6753 14.4048 55.9357 14.8878C56.2009 15.3707 56.3335 15.9744 56.3335 16.6989V24H53.8619V22.5014H53.7766C53.6204 22.8045 53.4002 23.0885 53.1161 23.3537C52.8368 23.6141 52.484 23.8248 52.0579 23.9858C51.6365 24.142 51.1417 24.2202 50.5735 24.2202ZM51.2411 22.331C51.7572 22.331 52.2047 22.2292 52.5835 22.0256C52.9622 21.8172 53.2534 21.5426 53.457 21.2017C53.6654 20.8608 53.7695 20.4891 53.7695 20.0866V18.8011C53.689 18.8674 53.5517 18.929 53.3576 18.9858C53.1682 19.0426 52.9551 19.0923 52.7184 19.1349C52.4817 19.1776 52.2473 19.2154 52.0153 19.2486C51.7833 19.2817 51.582 19.3101 51.4116 19.3338C51.0281 19.3859 50.6848 19.4711 50.3817 19.5895C50.0787 19.7079 49.8396 19.8736 49.6644 20.0866C49.4892 20.295 49.4016 20.5649 49.4016 20.8963C49.4016 21.3698 49.5745 21.7273 49.9201 21.9688C50.2657 22.2102 50.7061 22.331 51.2411 22.331ZM61.4897 17.608V24H58.9187V13.0909H61.3761V14.9446H61.5039C61.7549 14.3338 62.1549 13.8485 62.7042 13.4886C63.2582 13.1288 63.9424 12.9489 64.7567 12.9489C65.5096 12.9489 66.1654 13.1098 66.7241 13.4318C67.2875 13.7538 67.7231 14.2202 68.0309 14.831C68.3434 15.4418 68.4973 16.1828 68.4925 17.054V24H65.9215V17.4517C65.9215 16.7225 65.7321 16.152 65.3533 15.7401C64.9793 15.3281 64.4608 15.1222 63.7979 15.1222C63.3481 15.1222 62.948 15.2216 62.5977 15.4205C62.252 15.6146 61.9798 15.8963 61.7809 16.2656C61.5868 16.6349 61.4897 17.0824 61.4897 17.608ZM75.1545 24.1918C74.2975 24.1918 73.5304 23.9716 72.8533 23.5312C72.1763 23.0909 71.6412 22.4517 71.2482 21.6136C70.8552 20.7756 70.6587 19.7576 70.6587 18.5597C70.6587 17.3475 70.8576 16.3248 71.2553 15.4915C71.6578 14.6534 72.1999 14.0213 72.8817 13.5952C73.5636 13.1643 74.3235 12.9489 75.1616 12.9489C75.8008 12.9489 76.3263 13.0578 76.7383 13.2756C77.1502 13.4886 77.4769 13.7467 77.7184 14.0497C77.9599 14.348 78.1469 14.6297 78.2795 14.8949H78.386V9.45455H80.9641V24H78.4357V22.2812H78.2795C78.1469 22.5464 77.9551 22.8281 77.7042 23.1264C77.4532 23.42 77.1218 23.6709 76.7099 23.8793C76.2979 24.0876 75.7795 24.1918 75.1545 24.1918ZM75.8718 22.0824C76.4163 22.0824 76.8803 21.9356 77.2638 21.642C77.6474 21.3437 77.9386 20.9295 78.1374 20.3991C78.3363 19.8688 78.4357 19.2509 78.4357 18.5455C78.4357 17.84 78.3363 17.2268 78.1374 16.706C77.9433 16.1851 77.6545 15.7803 77.271 15.4915C76.8922 15.2027 76.4258 15.0582 75.8718 15.0582C75.2989 15.0582 74.8207 15.2074 74.4371 15.5057C74.0536 15.804 73.7648 16.2159 73.5707 16.7415C73.3765 17.267 73.2795 17.8684 73.2795 18.5455C73.2795 19.2273 73.3765 19.8357 73.5707 20.3707C73.7695 20.901 74.0607 21.3201 74.4442 21.6278C74.8325 21.9309 75.3084 22.0824 75.8718 22.0824ZM88.7784 9.45455H92.0028L96.321 19.9943H96.4915L100.81 9.45455H104.034V24H101.506V14.0071H101.371L97.3509 23.9574H95.4616L91.4418 13.9858H91.3068V24H88.7784V9.45455ZM111.548 24.2131C110.483 24.2131 109.56 23.9787 108.778 23.5099C107.997 23.0412 107.391 22.3854 106.96 21.5426C106.534 20.6998 106.321 19.715 106.321 18.5881C106.321 17.4612 106.534 16.474 106.96 15.6264C107.391 14.7789 107.997 14.1207 108.778 13.652C109.56 13.1832 110.483 12.9489 111.548 12.9489C112.614 12.9489 113.537 13.1832 114.318 13.652C115.099 14.1207 115.703 14.7789 116.129 15.6264C116.56 16.474 116.776 17.4612 116.776 18.5881C116.776 19.715 116.56 20.6998 116.129 21.5426C115.703 22.3854 115.099 23.0412 114.318 23.5099C113.537 23.9787 112.614 24.2131 111.548 24.2131ZM111.562 22.1534C112.14 22.1534 112.623 21.9948 113.011 21.6776C113.4 21.3556 113.688 20.9247 113.878 20.3849C114.072 19.8452 114.169 19.2438 114.169 18.581C114.169 17.9134 114.072 17.3097 113.878 16.7699C113.688 16.2254 113.4 15.7921 113.011 15.4702C112.623 15.1482 112.14 14.9872 111.562 14.9872C110.971 14.9872 110.478 15.1482 110.085 15.4702C109.697 15.7921 109.406 16.2254 109.212 16.7699C109.022 17.3097 108.928 17.9134 108.928 18.581C108.928 19.2438 109.022 19.8452 109.212 20.3849C109.406 20.9247 109.697 21.3556 110.085 21.6776C110.478 21.9948 110.971 22.1534 111.562 22.1534ZM118.958 24V13.0909H121.451V14.9091H121.564C121.763 14.2794 122.104 13.794 122.587 13.4531C123.075 13.1075 123.631 12.9347 124.256 12.9347C124.398 12.9347 124.557 12.9418 124.732 12.956C124.912 12.9654 125.061 12.982 125.179 13.0057V15.3707C125.07 15.3329 124.898 15.2997 124.661 15.2713C124.429 15.2382 124.204 15.2216 123.986 15.2216C123.517 15.2216 123.096 15.3234 122.722 15.527C122.353 15.7259 122.061 16.0028 121.848 16.358C121.635 16.7131 121.529 17.1226 121.529 17.5866V24H118.958ZM132.921 13.0909V15.0795H126.65V13.0909H132.921ZM128.198 10.4773H130.769V20.7188C130.769 21.0644 130.821 21.3295 130.925 21.5142C131.034 21.6941 131.176 21.8172 131.351 21.8835C131.526 21.9498 131.721 21.983 131.934 21.983C132.095 21.983 132.241 21.9711 132.374 21.9474C132.511 21.9238 132.615 21.9025 132.686 21.8835L133.12 23.8935C132.982 23.9408 132.786 23.9929 132.53 24.0497C132.279 24.1065 131.971 24.1397 131.607 24.1491C130.963 24.1681 130.383 24.071 129.867 23.858C129.351 23.6402 128.941 23.304 128.638 22.8494C128.34 22.3949 128.193 21.8267 128.198 21.1449V10.4773ZM136.669 28.0909C136.319 28.0909 135.994 28.0625 135.696 28.0057C135.402 27.9536 135.168 27.892 134.993 27.821L135.589 25.8182C135.964 25.9271 136.297 25.9792 136.591 25.9744C136.884 25.9697 137.143 25.8774 137.365 25.6974C137.592 25.5223 137.784 25.2287 137.94 24.8168L138.161 24.2273L134.205 13.0909H136.932L139.446 21.3295H139.56L142.081 13.0909H144.815L140.447 25.321C140.244 25.8987 139.974 26.3935 139.638 26.8054C139.302 27.2221 138.89 27.5393 138.402 27.7571C137.919 27.9796 137.341 28.0909 136.669 28.0909Z" fill="white"/>
</svg>
