<svg width="98" height="34" viewBox="0 0 98 34" fill="none" xmlns="http://www.w3.org/2000/svg">
<g clip-path="url(#clip0_103_282)">
<path d="M0.434659 24V9.45455H5.8892C7.00663 9.45455 7.94413 9.64867 8.7017 10.0369C9.46402 10.4252 10.0393 10.9697 10.4276 11.6705C10.8205 12.3665 11.017 13.1785 11.017 14.1065C11.017 15.0393 10.8182 15.849 10.4205 16.5355C10.0275 17.2173 9.44744 17.7453 8.6804 18.1193C7.91335 18.4886 6.97112 18.6733 5.85369 18.6733H1.96875V16.4858H5.49858C6.15199 16.4858 6.68703 16.3958 7.10369 16.2159C7.52036 16.0312 7.82813 15.7637 8.02699 15.4134C8.23059 15.0582 8.33239 14.6226 8.33239 14.1065C8.33239 13.5904 8.23059 13.1501 8.02699 12.7855C7.82339 12.4162 7.51326 12.1368 7.09659 11.9474C6.67992 11.7533 6.14252 11.6562 5.48438 11.6562H3.0696V24H0.434659ZM7.94886 17.4091L11.5497 24H8.60938L5.07244 17.4091H7.94886ZM13.3288 24V13.0909H15.8999V24H13.3288ZM14.6214 11.5426C14.2143 11.5426 13.8639 11.4077 13.5703 11.1378C13.2768 10.8632 13.13 10.5341 13.13 10.1506C13.13 9.76231 13.2768 9.43324 13.5703 9.16335C13.8639 8.88873 14.2143 8.75142 14.6214 8.75142C15.0334 8.75142 15.3838 8.88873 15.6726 9.16335C15.9661 9.43324 16.1129 9.76231 16.1129 10.1506C16.1129 10.5341 15.9661 10.8632 15.6726 11.1378C15.3838 11.4077 15.0334 11.5426 14.6214 11.5426ZM22.592 24.1918C21.735 24.1918 20.9679 23.9716 20.2908 23.5312C19.6138 23.0909 19.0787 22.4517 18.6857 21.6136C18.2927 20.7756 18.0962 19.7576 18.0962 18.5597C18.0962 17.3475 18.2951 16.3248 18.6928 15.4915C19.0953 14.6534 19.6374 14.0213 20.3192 13.5952C21.0011 13.1643 21.761 12.9489 22.5991 12.9489C23.2383 12.9489 23.7638 13.0578 24.1758 13.2756C24.5877 13.4886 24.9144 13.7467 25.1559 14.0497C25.3974 14.348 25.5844 14.6297 25.717 14.8949H25.8235V9.45455H28.4016V24H25.8732V22.2812H25.717C25.5844 22.5464 25.3926 22.8281 25.1417 23.1264C24.8907 23.42 24.5593 23.6709 24.1474 23.8793C23.7354 24.0876 23.217 24.1918 22.592 24.1918ZM23.3093 22.0824C23.8538 22.0824 24.3178 21.9356 24.7013 21.642C25.0849 21.3437 25.3761 20.9295 25.5749 20.3991C25.7738 19.8688 25.8732 19.2509 25.8732 18.5455C25.8732 17.84 25.7738 17.2268 25.5749 16.706C25.3808 16.1851 25.092 15.7803 24.7085 15.4915C24.3297 15.2027 23.8633 15.0582 23.3093 15.0582C22.7364 15.0582 22.2582 15.2074 21.8746 15.5057C21.4911 15.804 21.2023 16.2159 21.0082 16.7415C20.814 17.267 20.717 17.8684 20.717 18.5455C20.717 19.2273 20.814 19.8357 21.0082 20.3707C21.207 20.901 21.4982 21.3201 21.8817 21.6278C22.27 21.9309 22.7459 22.0824 23.3093 22.0824ZM35.9709 24.2131C34.8771 24.2131 33.9325 23.9858 33.1371 23.5312C32.3464 23.072 31.7379 22.4233 31.3118 21.5852C30.8857 20.7424 30.6726 19.7505 30.6726 18.6094C30.6726 17.4872 30.8857 16.5024 31.3118 15.6548C31.7427 14.8026 32.344 14.1397 33.1158 13.6662C33.8875 13.188 34.7943 12.9489 35.8359 12.9489C36.5083 12.9489 37.1428 13.0578 37.7393 13.2756C38.3407 13.4886 38.871 13.8201 39.3303 14.2699C39.7943 14.7197 40.1589 15.2926 40.424 15.9886C40.6892 16.6799 40.8217 17.5038 40.8217 18.4602V19.2486H31.88V17.5156H38.3572C38.3525 17.0232 38.246 16.5852 38.0376 16.2017C37.8293 15.8134 37.5381 15.508 37.1641 15.2855C36.7947 15.063 36.3639 14.9517 35.8714 14.9517C35.3459 14.9517 34.8842 15.0795 34.4865 15.3352C34.0888 15.5862 33.7786 15.9176 33.5561 16.3295C33.3383 16.7367 33.227 17.1842 33.2223 17.6719V19.1847C33.2223 19.8191 33.3383 20.3636 33.5703 20.8182C33.8023 21.268 34.1267 21.6136 34.5433 21.8551C34.96 22.0919 35.4477 22.2102 36.0064 22.2102C36.3804 22.2102 36.719 22.1581 37.022 22.054C37.325 21.9451 37.5878 21.7865 37.8104 21.5781C38.0329 21.3698 38.201 21.1117 38.3146 20.804L40.7152 21.0739C40.5637 21.7083 40.2749 22.2623 39.8487 22.7358C39.4273 23.2045 38.8875 23.5691 38.2294 23.8295C37.5713 24.0852 36.8184 24.2131 35.9709 24.2131ZM51.0153 13.4531C50.949 12.8329 50.6696 12.3499 50.1772 12.0043C49.6895 11.6586 49.055 11.4858 48.2738 11.4858C47.7246 11.4858 47.2534 11.5687 46.8604 11.7344C46.4674 11.9001 46.1668 12.125 45.9585 12.4091C45.7501 12.6932 45.6436 13.0175 45.6388 13.3821C45.6388 13.6851 45.7075 13.9479 45.8448 14.1705C45.9869 14.393 46.1786 14.5824 46.4201 14.7386C46.6616 14.8902 46.9291 15.018 47.2227 15.1222C47.5162 15.2263 47.8121 15.3139 48.1104 15.3849L49.4741 15.7259C50.0233 15.8537 50.5513 16.0265 51.0579 16.2443C51.5692 16.4621 52.0262 16.7367 52.4286 17.0682C52.8358 17.3996 53.1578 17.7997 53.3945 18.2685C53.6313 18.7372 53.7496 19.2865 53.7496 19.9162C53.7496 20.7685 53.5318 21.5189 53.0962 22.1676C52.6606 22.8116 52.0309 23.3158 51.207 23.6804C50.3879 24.0402 49.396 24.2202 48.2312 24.2202C47.0996 24.2202 46.1171 24.045 45.2837 23.6946C44.4551 23.3442 43.8065 22.8329 43.3377 22.1605C42.8737 21.4882 42.6228 20.669 42.5849 19.7031H45.1772C45.2151 20.2098 45.3713 20.6312 45.646 20.9673C45.9206 21.3035 46.2781 21.5545 46.7184 21.7202C47.1635 21.8859 47.6606 21.9688 48.2099 21.9688C48.7828 21.9688 49.2847 21.8835 49.7156 21.7131C50.1512 21.5379 50.4921 21.2964 50.7383 20.9886C50.9845 20.6761 51.11 20.3116 51.1147 19.8949C51.11 19.5161 50.9987 19.2036 50.7809 18.9574C50.5631 18.7064 50.2577 18.4981 49.8647 18.3324C49.4764 18.1619 49.0219 18.0104 48.5011 17.8778L46.8462 17.4517C45.6483 17.1439 44.7013 16.6776 44.0053 16.0526C43.314 15.4228 42.9684 14.5871 42.9684 13.5455C42.9684 12.6884 43.2004 11.938 43.6644 11.294C44.1332 10.6501 44.77 10.1506 45.5749 9.79545C46.3799 9.43561 47.2913 9.25568 48.3093 9.25568C49.3415 9.25568 50.2459 9.43561 51.0224 9.79545C51.8036 10.1506 52.4168 10.6454 52.8619 11.2798C53.3069 11.9096 53.5366 12.634 53.5508 13.4531H51.0153ZM58.5561 17.608V24H55.9851V9.45455H58.4993V14.9446H58.6271C58.8828 14.3291 59.2782 13.8437 59.8132 13.4886C60.353 13.1288 61.0395 12.9489 61.8729 12.9489C62.6304 12.9489 63.291 13.1075 63.8544 13.4247C64.4179 13.742 64.8535 14.206 65.1612 14.8168C65.4737 15.4276 65.63 16.1733 65.63 17.054V24H63.0589V17.4517C63.0589 16.7178 62.8696 16.1473 62.4908 15.7401C62.1167 15.3281 61.5911 15.1222 60.9141 15.1222C60.4595 15.1222 60.0523 15.2216 59.6925 15.4205C59.3374 15.6146 59.058 15.8963 58.8544 16.2656C58.6555 16.6349 58.5561 17.0824 58.5561 17.608ZM71.3899 24.2202C70.6986 24.2202 70.076 24.0971 69.522 23.8509C68.9728 23.5999 68.5372 23.2306 68.2152 22.7429C67.898 22.2552 67.7393 21.6539 67.7393 20.9389C67.7393 20.3234 67.853 19.8144 68.0803 19.4119C68.3075 19.0095 68.6177 18.6875 69.0107 18.446C69.4036 18.2045 69.8464 18.0223 70.3388 17.8991C70.8359 17.7713 71.3497 17.679 71.88 17.6222C72.5192 17.5559 73.0376 17.4967 73.4354 17.4446C73.8331 17.3878 74.1219 17.3026 74.3018 17.1889C74.4865 17.0705 74.5788 16.8883 74.5788 16.642V16.5994C74.5788 16.0644 74.4202 15.6501 74.103 15.3565C73.7857 15.063 73.3288 14.9162 72.7322 14.9162C72.1025 14.9162 71.603 15.0535 71.2337 15.3281C70.8691 15.6027 70.6229 15.9271 70.495 16.3011L68.0945 15.9602C68.2839 15.2973 68.5964 14.7434 69.032 14.2983C69.4676 13.8485 70.0002 13.5123 70.63 13.2898C71.2597 13.0625 71.9557 12.9489 72.718 12.9489C73.2436 12.9489 73.7668 13.0104 74.2876 13.1335C74.8085 13.2566 75.2843 13.4602 75.7152 13.7443C76.1461 14.0237 76.4917 14.4048 76.7521 14.8878C77.0173 15.3707 77.1499 15.9744 77.1499 16.6989V24H74.6783V22.5014H74.593C74.4368 22.8045 74.2166 23.0885 73.9325 23.3537C73.6532 23.6141 73.3004 23.8248 72.8743 23.9858C72.4529 24.142 71.9581 24.2202 71.3899 24.2202ZM72.0575 22.331C72.5736 22.331 73.0211 22.2292 73.3999 22.0256C73.7786 21.8172 74.0698 21.5426 74.2734 21.2017C74.4818 20.8608 74.5859 20.4891 74.5859 20.0866V18.8011C74.5054 18.8674 74.3681 18.929 74.174 18.9858C73.9846 19.0426 73.7715 19.0923 73.5348 19.1349C73.2981 19.1776 73.0637 19.2154 72.8317 19.2486C72.5997 19.2817 72.3984 19.3101 72.228 19.3338C71.8445 19.3859 71.5012 19.4711 71.1982 19.5895C70.8951 19.7079 70.656 19.8736 70.4808 20.0866C70.3056 20.295 70.218 20.5649 70.218 20.8963C70.218 21.3698 70.3909 21.7273 70.7365 21.9688C71.0821 22.2102 71.5225 22.331 72.0575 22.331ZM79.7351 24V13.0909H82.228V14.9091H82.3416C82.5405 14.2794 82.8814 13.794 83.3643 13.4531C83.852 13.1075 84.4084 12.9347 85.0334 12.9347C85.1754 12.9347 85.334 12.9418 85.5092 12.956C85.6892 12.9654 85.8383 12.982 85.9567 13.0057V15.3707C85.8478 15.3329 85.675 15.2997 85.4382 15.2713C85.2062 15.2382 84.9813 15.2216 84.7635 15.2216C84.2947 15.2216 83.8733 15.3234 83.4993 15.527C83.13 15.7259 82.8388 16.0028 82.6257 16.358C82.4126 16.7131 82.3061 17.1226 82.3061 17.5866V24H79.7351ZM92.0451 24.2131C90.9513 24.2131 90.0067 23.9858 89.2113 23.5312C88.4206 23.072 87.8121 22.4233 87.386 21.5852C86.9599 20.7424 86.7468 19.7505 86.7468 18.6094C86.7468 17.4872 86.9599 16.5024 87.386 15.6548C87.8169 14.8026 88.4182 14.1397 89.19 13.6662C89.9618 13.188 90.8685 12.9489 91.9102 12.9489C92.5825 12.9489 93.217 13.0578 93.8136 13.2756C94.4149 13.4886 94.9452 13.8201 95.4045 14.2699C95.8685 14.7197 96.2331 15.2926 96.4982 15.9886C96.7634 16.6799 96.896 17.5038 96.896 18.4602V19.2486H87.9542V17.5156H94.4315C94.4267 17.0232 94.3202 16.5852 94.1119 16.2017C93.9035 15.8134 93.6123 15.508 93.2383 15.2855C92.869 15.063 92.4381 14.9517 91.9457 14.9517C91.4201 14.9517 90.9585 15.0795 90.5607 15.3352C90.163 15.5862 89.8529 15.9176 89.6303 16.3295C89.4125 16.7367 89.3013 17.1842 89.2965 17.6719V19.1847C89.2965 19.8191 89.4125 20.3636 89.6445 20.8182C89.8765 21.268 90.2009 21.6136 90.6175 21.8551C91.0342 22.0919 91.5219 22.2102 92.0806 22.2102C92.4547 22.2102 92.7932 22.1581 93.0962 22.054C93.3993 21.9451 93.6621 21.7865 93.8846 21.5781C94.1071 21.3698 94.2752 21.1117 94.3888 20.804L96.7894 21.0739C96.6379 21.7083 96.3491 22.2623 95.9229 22.7358C95.5015 23.2045 94.9618 23.5691 94.3036 23.8295C93.6455 24.0852 92.8926 24.2131 92.0451 24.2131Z" fill="white"/>
</g>
<defs>
<clipPath id="clip0_103_282">
<rect width="98" height="34" fill="white"/>
</clipPath>
</defs>
</svg>
