<svg width="162" height="34" viewBox="0 0 162 34" fill="none" xmlns="http://www.w3.org/2000/svg">
<path d="M9.33949 13.4531C9.2732 12.8329 8.99384 12.3499 8.50142 12.0043C8.01373 11.6586 7.37926 11.4858 6.59801 11.4858C6.04877 11.4858 5.57765 11.5687 5.18466 11.7344C4.79167 11.9001 4.491 12.125 4.28267 12.4091C4.07434 12.6932 3.9678 13.0175 3.96307 13.3821C3.96307 13.6851 4.03172 13.9479 4.16903 14.1705C4.31108 14.393 4.50284 14.5824 4.74432 14.7386C4.9858 14.8902 5.25331 15.018 5.54688 15.1222C5.84044 15.2263 6.13636 15.3139 6.43466 15.3849L7.7983 15.7259C8.34754 15.8537 8.87547 16.0265 9.3821 16.2443C9.89347 16.4621 10.3504 16.7367 10.7528 17.0682C11.16 17.3996 11.482 17.7997 11.7188 18.2685C11.9555 18.7372 12.0739 19.2865 12.0739 19.9162C12.0739 20.7685 11.8561 21.5189 11.4205 22.1676C10.9848 22.8116 10.3551 23.3158 9.53125 23.6804C8.71212 24.0402 7.72017 24.2202 6.5554 24.2202C5.42377 24.2202 4.44129 24.045 3.60795 23.6946C2.77936 23.3442 2.13068 22.8329 1.66193 22.1605C1.19792 21.4882 0.94697 20.669 0.909091 19.7031H3.50142C3.5393 20.2098 3.69555 20.6312 3.97017 20.9673C4.24479 21.3035 4.60227 21.5545 5.04261 21.7202C5.48769 21.8859 5.98485 21.9688 6.53409 21.9688C7.10701 21.9688 7.6089 21.8835 8.03977 21.7131C8.47538 21.5379 8.81629 21.2964 9.0625 20.9886C9.30871 20.6761 9.43419 20.3116 9.43892 19.8949C9.43419 19.5161 9.32292 19.2036 9.10511 18.9574C8.88731 18.7064 8.58191 18.4981 8.18892 18.3324C7.80066 18.1619 7.34612 18.0104 6.82528 17.8778L5.17045 17.4517C3.97254 17.1439 3.02557 16.6776 2.32955 16.0526C1.63826 15.4228 1.29261 14.5871 1.29261 13.5455C1.29261 12.6884 1.52462 11.938 1.98864 11.294C2.45739 10.6501 3.09422 10.1506 3.89915 9.79545C4.70407 9.43561 5.61553 9.25568 6.63352 9.25568C7.66572 9.25568 8.57008 9.43561 9.34659 9.79545C10.1278 10.1506 10.741 10.6454 11.1861 11.2798C11.6312 11.9096 11.8608 12.634 11.875 13.4531H9.33949ZM14.3093 24V13.0909H16.8803V24H14.3093ZM15.6019 11.5426C15.1947 11.5426 14.8443 11.4077 14.5508 11.1378C14.2572 10.8632 14.1104 10.5341 14.1104 10.1506C14.1104 9.76231 14.2572 9.43324 14.5508 9.16335C14.8443 8.88873 15.1947 8.75142 15.6019 8.75142C16.0138 8.75142 16.3642 8.88873 16.6531 9.16335C16.9466 9.43324 17.0934 9.76231 17.0934 10.1506C17.0934 10.5341 16.9466 10.8632 16.6531 11.1378C16.3642 11.4077 16.0138 11.5426 15.6019 11.5426ZM28.1463 15.9744L25.8026 16.2301C25.7363 15.9934 25.6203 15.7708 25.4545 15.5625C25.2936 15.3542 25.0758 15.1861 24.8011 15.0582C24.5265 14.9304 24.1903 14.8665 23.7926 14.8665C23.2576 14.8665 22.8078 14.9825 22.4432 15.2145C22.0833 15.4465 21.9058 15.7472 21.9105 16.1165C21.9058 16.4337 22.0218 16.6918 22.2585 16.8906C22.5 17.0895 22.8977 17.2528 23.4517 17.3807L25.3125 17.7784C26.3447 18.0009 27.1117 18.3537 27.6136 18.8366C28.1203 19.3196 28.3759 19.9517 28.3807 20.733C28.3759 21.4195 28.1747 22.0256 27.777 22.5511C27.384 23.072 26.8371 23.4792 26.1364 23.7727C25.4356 24.0663 24.6307 24.2131 23.7216 24.2131C22.3864 24.2131 21.3116 23.9337 20.4972 23.375C19.6828 22.8116 19.1974 22.0279 19.0412 21.0241L21.5483 20.7827C21.6619 21.2751 21.9034 21.6468 22.2727 21.8977C22.642 22.1487 23.1226 22.2741 23.7145 22.2741C24.3253 22.2741 24.8153 22.1487 25.1847 21.8977C25.5587 21.6468 25.7457 21.3366 25.7457 20.9673C25.7457 20.6548 25.625 20.3968 25.3835 20.1932C25.1468 19.9896 24.7775 19.8333 24.2756 19.7244L22.4148 19.3338C21.3684 19.116 20.5942 18.7491 20.0923 18.233C19.5904 17.7121 19.3419 17.054 19.3466 16.2585C19.3419 15.5862 19.5241 15.0038 19.8935 14.5114C20.2675 14.0142 20.786 13.6307 21.4489 13.3608C22.1165 13.0862 22.8859 12.9489 23.7571 12.9489C25.0355 12.9489 26.0417 13.2211 26.7756 13.7656C27.5142 14.3101 27.9711 15.0464 28.1463 15.9744ZM35.9482 13.0909V15.0795H29.6768V13.0909H35.9482ZM31.2251 10.4773H33.7962V20.7188C33.7962 21.0644 33.8482 21.3295 33.9524 21.5142C34.0613 21.6941 34.2034 21.8172 34.3786 21.8835C34.5537 21.9498 34.7479 21.983 34.9609 21.983C35.1219 21.983 35.2687 21.9711 35.4013 21.9474C35.5386 21.9238 35.6428 21.9025 35.7138 21.8835L36.147 23.8935C36.0097 23.9408 35.8132 23.9929 35.5575 24.0497C35.3066 24.1065 34.9988 24.1397 34.6342 24.1491C33.9903 24.1681 33.4103 24.071 32.8942 23.858C32.3781 23.6402 31.9685 23.304 31.6655 22.8494C31.3672 22.3949 31.2204 21.8267 31.2251 21.1449V10.4773ZM42.8107 24.2131C41.717 24.2131 40.7724 23.9858 39.9769 23.5312C39.1862 23.072 38.5778 22.4233 38.1516 21.5852C37.7255 20.7424 37.5124 19.7505 37.5124 18.6094C37.5124 17.4872 37.7255 16.5024 38.1516 15.6548C38.5825 14.8026 39.1838 14.1397 39.9556 13.6662C40.7274 13.188 41.6341 12.9489 42.6758 12.9489C43.3481 12.9489 43.9826 13.0578 44.5792 13.2756C45.1805 13.4886 45.7108 13.8201 46.1701 14.2699C46.6341 14.7197 46.9987 15.2926 47.2638 15.9886C47.529 16.6799 47.6616 17.5038 47.6616 18.4602V19.2486H38.7198V17.5156H45.1971C45.1924 17.0232 45.0858 16.5852 44.8775 16.2017C44.6692 15.8134 44.378 15.508 44.0039 15.2855C43.6346 15.063 43.2037 14.9517 42.7113 14.9517C42.1857 14.9517 41.7241 15.0795 41.3263 15.3352C40.9286 15.5862 40.6185 15.9176 40.396 16.3295C40.1781 16.7367 40.0669 17.1842 40.0621 17.6719V19.1847C40.0621 19.8191 40.1781 20.3636 40.4102 20.8182C40.6422 21.268 40.9665 21.6136 41.3832 21.8551C41.7998 22.0919 42.2875 22.2102 42.8462 22.2102C43.2203 22.2102 43.5588 22.1581 43.8619 22.054C44.1649 21.9451 44.4277 21.7865 44.6502 21.5781C44.8728 21.3698 45.0408 21.1117 45.1545 20.804L47.555 21.0739C47.4035 21.7083 47.1147 22.2623 46.6886 22.7358C46.2672 23.2045 45.7274 23.5691 45.0692 23.8295C44.4111 24.0852 43.6583 24.2131 42.8107 24.2131ZM49.8366 24V13.0909H52.294V14.9446H52.4219C52.6491 14.3196 53.0256 13.8319 53.5511 13.4815C54.0767 13.1264 54.7041 12.9489 55.4332 12.9489C56.1719 12.9489 56.7945 13.1288 57.3011 13.4886C57.8125 13.8437 58.1723 14.3291 58.3807 14.9446H58.4943C58.7358 14.3385 59.143 13.8556 59.7159 13.4957C60.2936 13.1312 60.9777 12.9489 61.7685 12.9489C62.7723 12.9489 63.5914 13.2661 64.2259 13.9006C64.8603 14.535 65.1776 15.4607 65.1776 16.6776V24H62.5994V17.0753C62.5994 16.3982 62.4195 15.9034 62.0597 15.5909C61.6998 15.2737 61.2595 15.1151 60.7386 15.1151C60.1184 15.1151 59.633 15.3092 59.2827 15.6974C58.937 16.081 58.7642 16.5805 58.7642 17.196V24H56.2429V16.9688C56.2429 16.4053 56.0724 15.9555 55.7315 15.6193C55.3954 15.2831 54.955 15.1151 54.4105 15.1151C54.0412 15.1151 53.705 15.2098 53.402 15.3991C53.099 15.5838 52.8575 15.8466 52.6776 16.1875C52.4976 16.5237 52.4077 16.9167 52.4077 17.3665V24H49.8366ZM70.9251 24.2202C70.2338 24.2202 69.6112 24.0971 69.0572 23.8509C68.5079 23.5999 68.0723 23.2306 67.7504 22.7429C67.4331 22.2552 67.2745 21.6539 67.2745 20.9389C67.2745 20.3234 67.3881 19.8144 67.6154 19.4119C67.8427 19.0095 68.1528 18.6875 68.5458 18.446C68.9388 18.2045 69.3815 18.0223 69.8739 17.8991C70.3711 17.7713 70.8848 17.679 71.4151 17.6222C72.0543 17.5559 72.5728 17.4967 72.9705 17.4446C73.3683 17.3878 73.6571 17.3026 73.837 17.1889C74.0217 17.0705 74.114 16.8883 74.114 16.642V16.5994C74.114 16.0644 73.9554 15.6501 73.6381 15.3565C73.3209 15.063 72.864 14.9162 72.2674 14.9162C71.6377 14.9162 71.1381 15.0535 70.7688 15.3281C70.4042 15.6027 70.158 15.9271 70.0302 16.3011L67.6296 15.9602C67.819 15.2973 68.1315 14.7434 68.5671 14.2983C69.0027 13.8485 69.5354 13.5123 70.1651 13.2898C70.7949 13.0625 71.4909 12.9489 72.2532 12.9489C72.7788 12.9489 73.302 13.0104 73.8228 13.1335C74.3436 13.2566 74.8195 13.4602 75.2504 13.7443C75.6812 14.0237 76.0269 14.4048 76.2873 14.8878C76.5524 15.3707 76.685 15.9744 76.685 16.6989V24H74.2134V22.5014H74.1282C73.9719 22.8045 73.7518 23.0885 73.4677 23.3537C73.1883 23.6141 72.8356 23.8248 72.4094 23.9858C71.988 24.142 71.4933 24.2202 70.9251 24.2202ZM71.5927 22.331C72.1088 22.331 72.5562 22.2292 72.935 22.0256C73.3138 21.8172 73.605 21.5426 73.8086 21.2017C74.0169 20.8608 74.1211 20.4891 74.1211 20.0866V18.8011C74.0406 18.8674 73.9033 18.929 73.7092 18.9858C73.5198 19.0426 73.3067 19.0923 73.07 19.1349C72.8332 19.1776 72.5988 19.2154 72.3668 19.2486C72.1348 19.2817 71.9336 19.3101 71.7631 19.3338C71.3796 19.3859 71.0363 19.4711 70.7333 19.5895C70.4303 19.7079 70.1912 19.8736 70.016 20.0866C69.8408 20.295 69.7532 20.5649 69.7532 20.8963C69.7532 21.3698 69.926 21.7273 70.2717 21.9688C70.6173 22.2102 71.0576 22.331 71.5927 22.331ZM89.2738 24H84.3448V9.45455H89.3732C90.8174 9.45455 92.0579 9.74574 93.0948 10.3281C94.1365 10.9058 94.9367 11.7367 95.4954 12.821C96.0541 13.9053 96.3335 15.2027 96.3335 16.7131C96.3335 18.2282 96.0517 19.5303 95.4883 20.6193C94.9296 21.7083 94.1223 22.544 93.0664 23.1264C92.0153 23.7088 90.7511 24 89.2738 24ZM86.9798 21.7202H89.146C90.1592 21.7202 91.0044 21.5355 91.6815 21.1662C92.3585 20.7921 92.8675 20.2358 93.2085 19.4972C93.5494 18.7538 93.7198 17.8258 93.7198 16.7131C93.7198 15.6004 93.5494 14.6771 93.2085 13.9432C92.8675 13.2045 92.3633 12.6529 91.6957 12.2884C91.0328 11.919 90.2089 11.7344 89.2241 11.7344H86.9798V21.7202ZM103.553 24.2131C102.459 24.2131 101.515 23.9858 100.719 23.5312C99.9284 23.072 99.32 22.4233 98.8938 21.5852C98.4677 20.7424 98.2546 19.7505 98.2546 18.6094C98.2546 17.4872 98.4677 16.5024 98.8938 15.6548C99.3247 14.8026 99.926 14.1397 100.698 13.6662C101.47 13.188 102.376 12.9489 103.418 12.9489C104.09 12.9489 104.725 13.0578 105.321 13.2756C105.923 13.4886 106.453 13.8201 106.912 14.2699C107.376 14.7197 107.741 15.2926 108.006 15.9886C108.271 16.6799 108.404 17.5038 108.404 18.4602V19.2486H99.462V17.5156H105.939C105.935 17.0232 105.828 16.5852 105.62 16.2017C105.411 15.8134 105.12 15.508 104.746 15.2855C104.377 15.063 103.946 14.9517 103.453 14.9517C102.928 14.9517 102.466 15.0795 102.069 15.3352C101.671 15.5862 101.361 15.9176 101.138 16.3295C100.92 16.7367 100.809 17.1842 100.804 17.6719V19.1847C100.804 19.8191 100.92 20.3636 101.152 20.8182C101.384 21.268 101.709 21.6136 102.125 21.8551C102.542 22.0919 103.03 22.2102 103.588 22.2102C103.962 22.2102 104.301 22.1581 104.604 22.054C104.907 21.9451 105.17 21.7865 105.392 21.5781C105.615 21.3698 105.783 21.1117 105.897 20.804L108.297 21.0739C108.146 21.7083 107.857 22.2623 107.431 22.7358C107.009 23.2045 106.47 23.5691 105.811 23.8295C105.153 24.0852 104.4 24.2131 103.553 24.2131ZM128.104 14.3622H125.447C125.372 13.9266 125.232 13.5407 125.028 13.2045C124.825 12.8636 124.571 12.5748 124.268 12.3381C123.965 12.1013 123.62 11.9238 123.232 11.8054C122.848 11.6823 122.434 11.6207 121.989 11.6207C121.198 11.6207 120.497 11.8196 119.886 12.2173C119.276 12.6103 118.797 13.188 118.452 13.9503C118.106 14.7079 117.933 15.6335 117.933 16.7273C117.933 17.84 118.106 18.7775 118.452 19.5398C118.802 20.2973 119.28 20.8703 119.886 21.2585C120.497 21.642 121.196 21.8338 121.982 21.8338C122.417 21.8338 122.824 21.777 123.203 21.6634C123.587 21.545 123.93 21.3722 124.233 21.1449C124.541 20.9176 124.799 20.6383 125.007 20.3068C125.22 19.9754 125.367 19.5966 125.447 19.1705L128.104 19.1847C128.004 19.8759 127.789 20.5246 127.457 21.1307C127.131 21.7367 126.702 22.2718 126.172 22.7358C125.642 23.1951 125.021 23.5549 124.311 23.8153C123.601 24.071 122.813 24.1989 121.946 24.1989C120.668 24.1989 119.527 23.9029 118.523 23.3111C117.519 22.7192 116.728 21.8646 116.151 20.7472C115.573 19.6297 115.284 18.2898 115.284 16.7273C115.284 15.16 115.575 13.8201 116.158 12.7074C116.74 11.59 117.533 10.7353 118.537 10.1435C119.541 9.55161 120.677 9.25568 121.946 9.25568C122.756 9.25568 123.509 9.36932 124.205 9.59659C124.901 9.82386 125.521 10.1577 126.065 10.598C126.61 11.0336 127.057 11.5687 127.408 12.2031C127.763 12.8329 127.995 13.5526 128.104 14.3622ZM130.403 24V13.0909H132.896V14.9091H133.01C133.208 14.2794 133.549 13.794 134.032 13.4531C134.52 13.1075 135.076 12.9347 135.701 12.9347C135.843 12.9347 136.002 12.9418 136.177 12.956C136.357 12.9654 136.506 12.982 136.625 13.0057V15.3707C136.516 15.3329 136.343 15.2997 136.106 15.2713C135.874 15.2382 135.649 15.2216 135.431 15.2216C134.963 15.2216 134.541 15.3234 134.167 15.527C133.798 15.7259 133.507 16.0028 133.294 16.358C133.081 16.7131 132.974 17.1226 132.974 17.5866V24H130.403ZM145.286 19.4119V13.0909H147.857V24H145.364V22.0611H145.25C145.004 22.6719 144.599 23.1714 144.036 23.5597C143.477 23.9479 142.788 24.142 141.969 24.142C141.254 24.142 140.622 23.9834 140.073 23.6662C139.528 23.3442 139.102 22.8778 138.794 22.267C138.487 21.6515 138.333 20.9081 138.333 20.0369V13.0909H140.904V19.6392C140.904 20.3305 141.093 20.8797 141.472 21.2869C141.851 21.6941 142.348 21.8977 142.963 21.8977C143.342 21.8977 143.709 21.8054 144.064 21.6207C144.419 21.4361 144.711 21.1615 144.938 20.7969C145.17 20.4276 145.286 19.9659 145.286 19.4119ZM154.549 24.1918C153.692 24.1918 152.925 23.9716 152.248 23.5312C151.571 23.0909 151.036 22.4517 150.643 21.6136C150.25 20.7756 150.053 19.7576 150.053 18.5597C150.053 17.3475 150.252 16.3248 150.65 15.4915C151.052 14.6534 151.594 14.0213 152.276 13.5952C152.958 13.1643 153.718 12.9489 154.556 12.9489C155.195 12.9489 155.721 13.0578 156.133 13.2756C156.545 13.4886 156.871 13.7467 157.113 14.0497C157.354 14.348 157.541 14.6297 157.674 14.8949H157.781V9.45455H160.359V24H157.83V22.2812H157.674C157.541 22.5464 157.35 22.8281 157.099 23.1264C156.848 23.42 156.516 23.6709 156.104 23.8793C155.692 24.0876 155.174 24.1918 154.549 24.1918ZM155.266 22.0824C155.811 22.0824 156.275 21.9356 156.658 21.642C157.042 21.3437 157.333 20.9295 157.532 20.3991C157.731 19.8688 157.83 19.2509 157.83 18.5455C157.83 17.84 157.731 17.2268 157.532 16.706C157.338 16.1851 157.049 15.7803 156.665 15.4915C156.287 15.2027 155.82 15.0582 155.266 15.0582C154.693 15.0582 154.215 15.2074 153.832 15.5057C153.448 15.804 153.159 16.2159 152.965 16.7415C152.771 17.267 152.674 17.8684 152.674 18.5455C152.674 19.2273 152.771 19.8357 152.965 20.3707C153.164 20.901 153.455 21.3201 153.839 21.6278C154.227 21.9309 154.703 22.0824 155.266 22.0824Z" fill="white"/>
</svg>
