<svg width="257" height="34" viewBox="0 0 257 34" fill="none" xmlns="http://www.w3.org/2000/svg">
<path d="M0.795455 11.6634V9.45455H12.4006V11.6634H7.90483V24H5.29119V11.6634H0.795455ZM17.7717 24.2131C16.6779 24.2131 15.7333 23.9858 14.9379 23.5312C14.1471 23.072 13.5387 22.4233 13.1126 21.5852C12.6864 20.7424 12.4734 19.7505 12.4734 18.6094C12.4734 17.4872 12.6864 16.5024 13.1126 15.6548C13.5434 14.8026 14.1448 14.1397 14.9165 13.6662C15.6883 13.188 16.5951 12.9489 17.6367 12.9489C18.3091 12.9489 18.9435 13.0578 19.5401 13.2756C20.1415 13.4886 20.6718 13.8201 21.131 14.2699C21.5951 14.7197 21.9596 15.2926 22.2248 15.9886C22.4899 16.6799 22.6225 17.5038 22.6225 18.4602V19.2486H13.6808V17.5156H20.158C20.1533 17.0232 20.0468 16.5852 19.8384 16.2017C19.6301 15.8134 19.3389 15.508 18.9648 15.2855C18.5955 15.063 18.1647 14.9517 17.6722 14.9517C17.1467 14.9517 16.685 15.0795 16.2873 15.3352C15.8896 15.5862 15.5794 15.9176 15.3569 16.3295C15.1391 16.7367 15.0278 17.1842 15.0231 17.6719V19.1847C15.0231 19.8191 15.1391 20.3636 15.3711 20.8182C15.6031 21.268 15.9274 21.6136 16.3441 21.8551C16.7608 22.0919 17.2485 22.2102 17.8072 22.2102C18.1812 22.2102 18.5198 22.1581 18.8228 22.054C19.1258 21.9451 19.3886 21.7865 19.6112 21.5781C19.8337 21.3698 20.0018 21.1117 20.1154 20.804L22.516 21.0739C22.3645 21.7083 22.0756 22.2623 21.6495 22.7358C21.2281 23.2045 20.6883 23.5691 20.0302 23.8295C19.372 24.0852 18.6192 24.2131 17.7717 24.2131ZM33.4197 15.9744L31.076 16.2301C31.0097 15.9934 30.8937 15.7708 30.728 15.5625C30.567 15.3542 30.3492 15.1861 30.0746 15.0582C29.8 14.9304 29.4638 14.8665 29.0661 14.8665C28.531 14.8665 28.0812 14.9825 27.7166 15.2145C27.3568 15.4465 27.1792 15.7472 27.1839 16.1165C27.1792 16.4337 27.2952 16.6918 27.532 16.8906C27.7734 17.0895 28.1712 17.2528 28.7251 17.3807L30.5859 17.7784C31.6181 18.0009 32.3852 18.3537 32.8871 18.8366C33.3937 19.3196 33.6494 19.9517 33.6541 20.733C33.6494 21.4195 33.4482 22.0256 33.0504 22.5511C32.6574 23.072 32.1106 23.4792 31.4098 23.7727C30.709 24.0663 29.9041 24.2131 28.995 24.2131C27.6598 24.2131 26.585 23.9337 25.7706 23.375C24.9562 22.8116 24.4709 22.0279 24.3146 21.0241L26.8217 20.7827C26.9354 21.2751 27.1768 21.6468 27.5462 21.8977C27.9155 22.1487 28.3961 22.2741 28.9879 22.2741C29.5987 22.2741 30.0888 22.1487 30.4581 21.8977C30.8321 21.6468 31.0192 21.3366 31.0192 20.9673C31.0192 20.6548 30.8984 20.3968 30.657 20.1932C30.4202 19.9896 30.0509 19.8333 29.549 19.7244L27.6882 19.3338C26.6418 19.116 25.8677 18.7491 25.3658 18.233C24.8639 17.7121 24.6153 17.054 24.62 16.2585C24.6153 15.5862 24.7976 15.0038 25.1669 14.5114C25.541 14.0142 26.0594 13.6307 26.7223 13.3608C27.3899 13.0862 28.1593 12.9489 29.0305 12.9489C30.3089 12.9489 31.3151 13.2211 32.049 13.7656C32.7876 14.3101 33.2446 15.0464 33.4197 15.9744ZM41.2216 13.0909V15.0795H34.9503V13.0909H41.2216ZM36.4986 10.4773H39.0696V20.7188C39.0696 21.0644 39.1217 21.3295 39.2259 21.5142C39.3348 21.6941 39.4768 21.8172 39.652 21.8835C39.8272 21.9498 40.0213 21.983 40.2344 21.983C40.3954 21.983 40.5421 21.9711 40.6747 21.9474C40.812 21.9238 40.9162 21.9025 40.9872 21.8835L41.4205 23.8935C41.2831 23.9408 41.0866 23.9929 40.831 24.0497C40.58 24.1065 40.2723 24.1397 39.9077 24.1491C39.2637 24.1681 38.6837 24.071 38.1676 23.858C37.6515 23.6402 37.242 23.304 36.9389 22.8494C36.6406 22.3949 36.4938 21.8267 36.4986 21.1449V10.4773ZM48.0842 24.2131C46.9904 24.2131 46.0458 23.9858 45.2504 23.5312C44.4596 23.072 43.8512 22.4233 43.4251 21.5852C42.9989 20.7424 42.7859 19.7505 42.7859 18.6094C42.7859 17.4872 42.9989 16.5024 43.4251 15.6548C43.8559 14.8026 44.4573 14.1397 45.229 13.6662C46.0008 13.188 46.9076 12.9489 47.9492 12.9489C48.6216 12.9489 49.256 13.0578 49.8526 13.2756C50.454 13.4886 50.9843 13.8201 51.4435 14.2699C51.9076 14.7197 52.2721 15.2926 52.5373 15.9886C52.8024 16.6799 52.935 17.5038 52.935 18.4602V19.2486H43.9933V17.5156H50.4705C50.4658 17.0232 50.3593 16.5852 50.1509 16.2017C49.9426 15.8134 49.6514 15.508 49.2773 15.2855C48.908 15.063 48.4772 14.9517 47.9847 14.9517C47.4592 14.9517 46.9975 15.0795 46.5998 15.3352C46.2021 15.5862 45.8919 15.9176 45.6694 16.3295C45.4516 16.7367 45.3403 17.1842 45.3356 17.6719V19.1847C45.3356 19.8191 45.4516 20.3636 45.6836 20.8182C45.9156 21.268 46.2399 21.6136 46.6566 21.8551C47.0733 22.0919 47.561 22.2102 48.1197 22.2102C48.4937 22.2102 48.8323 22.1581 49.1353 22.054C49.4383 21.9451 49.7011 21.7865 49.9237 21.5781C50.1462 21.3698 50.3143 21.1117 50.4279 20.804L52.8285 21.0739C52.677 21.7083 52.3881 22.2623 51.962 22.7358C51.5406 23.2045 51.0008 23.5691 50.3427 23.8295C49.6845 24.0852 48.9317 24.2131 48.0842 24.2131ZM65.1136 24H60.1847V9.45455H65.2131C66.6572 9.45455 67.8977 9.74574 68.9347 10.3281C69.9763 10.9058 70.7765 11.7367 71.3352 12.821C71.8939 13.9053 72.1733 15.2027 72.1733 16.7131C72.1733 18.2282 71.8916 19.5303 71.3281 20.6193C70.7694 21.7083 69.9621 22.544 68.9062 23.1264C67.8551 23.7088 66.5909 24 65.1136 24ZM62.8196 21.7202H64.9858C65.9991 21.7202 66.8442 21.5355 67.5213 21.1662C68.1984 20.7921 68.7074 20.2358 69.0483 19.4972C69.3892 18.7538 69.5597 17.8258 69.5597 16.7131C69.5597 15.6004 69.3892 14.6771 69.0483 13.9432C68.7074 13.2045 68.2031 12.6529 67.5355 12.2884C66.8726 11.919 66.0488 11.7344 65.0639 11.7344H62.8196V21.7202ZM79.3928 24.2131C78.299 24.2131 77.3544 23.9858 76.5589 23.5312C75.7682 23.072 75.1598 22.4233 74.7337 21.5852C74.3075 20.7424 74.0945 19.7505 74.0945 18.6094C74.0945 17.4872 74.3075 16.5024 74.7337 15.6548C75.1645 14.8026 75.7659 14.1397 76.5376 13.6662C77.3094 13.188 78.2161 12.9489 79.2578 12.9489C79.9302 12.9489 80.5646 13.0578 81.1612 13.2756C81.7625 13.4886 82.2929 13.8201 82.7521 14.2699C83.2161 14.7197 83.5807 15.2926 83.8459 15.9886C84.111 16.6799 84.2436 17.5038 84.2436 18.4602V19.2486H75.3018V17.5156H81.7791C81.7744 17.0232 81.6679 16.5852 81.4595 16.2017C81.2512 15.8134 80.96 15.508 80.5859 15.2855C80.2166 15.063 79.7857 14.9517 79.2933 14.9517C78.7678 14.9517 78.3061 15.0795 77.9084 15.3352C77.5107 15.5862 77.2005 15.9176 76.978 16.3295C76.7602 16.7367 76.6489 17.1842 76.6442 17.6719V19.1847C76.6442 19.8191 76.7602 20.3636 76.9922 20.8182C77.2242 21.268 77.5485 21.6136 77.9652 21.8551C78.3819 22.0919 78.8696 22.2102 79.4283 22.2102C79.8023 22.2102 80.1409 22.1581 80.4439 22.054C80.7469 21.9451 81.0097 21.7865 81.2322 21.5781C81.4548 21.3698 81.6229 21.1117 81.7365 20.804L84.1371 21.0739C83.9856 21.7083 83.6967 22.2623 83.2706 22.7358C82.8492 23.2045 82.3094 23.5691 81.6513 23.8295C80.9931 24.0852 80.2403 24.2131 79.3928 24.2131ZM95.8505 13.0909L91.9656 24H89.1246L85.2397 13.0909H87.9812L90.4883 21.1946H90.6019L93.1161 13.0909H95.8505ZM115.154 14.3622H112.498C112.422 13.9266 112.283 13.5407 112.079 13.2045C111.876 12.8636 111.622 12.5748 111.319 12.3381C111.016 12.1013 110.671 11.9238 110.282 11.8054C109.899 11.6823 109.484 11.6207 109.039 11.6207C108.249 11.6207 107.548 11.8196 106.937 12.2173C106.326 12.6103 105.848 13.188 105.502 13.9503C105.157 14.7079 104.984 15.6335 104.984 16.7273C104.984 17.84 105.157 18.7775 105.502 19.5398C105.853 20.2973 106.331 20.8703 106.937 21.2585C107.548 21.642 108.246 21.8338 109.032 21.8338C109.468 21.8338 109.875 21.777 110.254 21.6634C110.637 21.545 110.981 21.3722 111.284 21.1449C111.592 20.9176 111.85 20.6383 112.058 20.3068C112.271 19.9754 112.418 19.5966 112.498 19.1705L115.154 19.1847C115.055 19.8759 114.84 20.5246 114.508 21.1307C114.181 21.7367 113.753 22.2718 113.223 22.7358C112.692 23.1951 112.072 23.5549 111.362 23.8153C110.652 24.071 109.863 24.1989 108.997 24.1989C107.718 24.1989 106.577 23.9029 105.574 23.3111C104.57 22.7192 103.779 21.8646 103.201 20.7472C102.624 19.6297 102.335 18.2898 102.335 16.7273C102.335 15.16 102.626 13.8201 103.208 12.7074C103.791 11.59 104.584 10.7353 105.588 10.1435C106.592 9.55161 107.728 9.25568 108.997 9.25568C109.806 9.25568 110.559 9.36932 111.255 9.59659C111.951 9.82386 112.572 10.1577 113.116 10.598C113.661 11.0336 114.108 11.5687 114.458 12.2031C114.814 12.8329 115.046 13.5526 115.154 14.3622ZM120.593 24.2202C119.902 24.2202 119.279 24.0971 118.725 23.8509C118.176 23.5999 117.74 23.2306 117.418 22.7429C117.101 22.2552 116.942 21.6539 116.942 20.9389C116.942 20.3234 117.056 19.8144 117.283 19.4119C117.511 19.0095 117.821 18.6875 118.214 18.446C118.607 18.2045 119.049 18.0223 119.542 17.8991C120.039 17.7713 120.553 17.679 121.083 17.6222C121.722 17.5559 122.241 17.4967 122.638 17.4446C123.036 17.3878 123.325 17.3026 123.505 17.1889C123.69 17.0705 123.782 16.8883 123.782 16.642V16.5994C123.782 16.0644 123.623 15.6501 123.306 15.3565C122.989 15.063 122.532 14.9162 121.935 14.9162C121.306 14.9162 120.806 15.0535 120.437 15.3281C120.072 15.6027 119.826 15.9271 119.698 16.3011L117.298 15.9602C117.487 15.2973 117.799 14.7434 118.235 14.2983C118.671 13.8485 119.203 13.5123 119.833 13.2898C120.463 13.0625 121.159 12.9489 121.921 12.9489C122.447 12.9489 122.97 13.0104 123.491 13.1335C124.012 13.2566 124.487 13.4602 124.918 13.7443C125.349 14.0237 125.695 14.4048 125.955 14.8878C126.22 15.3707 126.353 15.9744 126.353 16.6989V24H123.881V22.5014H123.796C123.64 22.8045 123.42 23.0885 123.136 23.3537C122.856 23.6141 122.504 23.8248 122.077 23.9858C121.656 24.142 121.161 24.2202 120.593 24.2202ZM121.261 22.331C121.777 22.331 122.224 22.2292 122.603 22.0256C122.982 21.8172 123.273 21.5426 123.477 21.2017C123.685 20.8608 123.789 20.4891 123.789 20.0866V18.8011C123.709 18.8674 123.571 18.929 123.377 18.9858C123.188 19.0426 122.975 19.0923 122.738 19.1349C122.501 19.1776 122.267 19.2154 122.035 19.2486C121.803 19.2817 121.602 19.3101 121.431 19.3338C121.048 19.3859 120.704 19.4711 120.401 19.5895C120.098 19.7079 119.859 19.8736 119.684 20.0866C119.509 20.295 119.421 20.5649 119.421 20.8963C119.421 21.3698 119.594 21.7273 119.94 21.9688C120.285 22.2102 120.726 22.331 121.261 22.331ZM128.938 24V13.0909H131.431V14.9091H131.545C131.744 14.2794 132.085 13.794 132.567 13.4531C133.055 13.1075 133.612 12.9347 134.237 12.9347C134.379 12.9347 134.537 12.9418 134.712 12.956C134.892 12.9654 135.041 12.982 135.16 13.0057V15.3707C135.051 15.3329 134.878 15.2997 134.641 15.2713C134.409 15.2382 134.184 15.2216 133.967 15.2216C133.498 15.2216 133.076 15.3234 132.702 15.527C132.333 15.7259 132.042 16.0028 131.829 16.358C131.616 16.7131 131.509 17.1226 131.509 17.5866V24H128.938ZM140.467 24.1918C139.61 24.1918 138.843 23.9716 138.166 23.5312C137.489 23.0909 136.954 22.4517 136.561 21.6136C136.168 20.7756 135.971 19.7576 135.971 18.5597C135.971 17.3475 136.17 16.3248 136.568 15.4915C136.97 14.6534 137.512 14.0213 138.194 13.5952C138.876 13.1643 139.636 12.9489 140.474 12.9489C141.113 12.9489 141.639 13.0578 142.051 13.2756C142.463 13.4886 142.789 13.7467 143.031 14.0497C143.272 14.348 143.459 14.6297 143.592 14.8949H143.699V9.45455H146.277V24H143.748V22.2812H143.592C143.459 22.5464 143.268 22.8281 143.017 23.1264C142.766 23.42 142.434 23.6709 142.022 23.8793C141.61 24.0876 141.092 24.1918 140.467 24.1918ZM141.184 22.0824C141.729 22.0824 142.193 21.9356 142.576 21.642C142.96 21.3437 143.251 20.9295 143.45 20.3991C143.649 19.8688 143.748 19.2509 143.748 18.5455C143.748 17.84 143.649 17.2268 143.45 16.706C143.256 16.1851 142.967 15.7803 142.583 15.4915C142.205 15.2027 141.738 15.0582 141.184 15.0582C140.611 15.0582 140.133 15.2074 139.75 15.5057C139.366 15.804 139.077 16.2159 138.883 16.7415C138.689 17.267 138.592 17.8684 138.592 18.5455C138.592 19.2273 138.689 19.8357 138.883 20.3707C139.082 20.901 139.373 21.3201 139.757 21.6278C140.145 21.9309 140.621 22.0824 141.184 22.0824ZM155.969 19.4119V13.0909H158.54V24H156.048V22.0611H155.934C155.688 22.6719 155.283 23.1714 154.719 23.5597C154.161 23.9479 153.472 24.142 152.653 24.142C151.938 24.142 151.306 23.9834 150.756 23.6662C150.212 23.3442 149.786 22.8778 149.478 22.267C149.17 21.6515 149.016 20.9081 149.016 20.0369V13.0909H151.587V19.6392C151.587 20.3305 151.777 20.8797 152.156 21.2869C152.534 21.6941 153.031 21.8977 153.647 21.8977C154.026 21.8977 154.393 21.8054 154.748 21.6207C155.103 21.4361 155.394 21.1615 155.621 20.7969C155.853 20.4276 155.969 19.9659 155.969 19.4119ZM161.184 24V13.0909H163.642V14.9446H163.77C163.997 14.3196 164.373 13.8319 164.899 13.4815C165.424 13.1264 166.052 12.9489 166.781 12.9489C167.52 12.9489 168.142 13.1288 168.649 13.4886C169.16 13.8437 169.52 14.3291 169.728 14.9446H169.842C170.083 14.3385 170.491 13.8556 171.064 13.4957C171.641 13.1312 172.325 12.9489 173.116 12.9489C174.12 12.9489 174.939 13.2661 175.574 13.9006C176.208 14.535 176.525 15.4607 176.525 16.6776V24H173.947V17.0753C173.947 16.3982 173.767 15.9034 173.407 15.5909C173.047 15.2737 172.607 15.1151 172.086 15.1151C171.466 15.1151 170.981 15.3092 170.63 15.6974C170.285 16.081 170.112 16.5805 170.112 17.196V24H167.591V16.9688C167.591 16.4053 167.42 15.9555 167.079 15.6193C166.743 15.2831 166.303 15.1151 165.758 15.1151C165.389 15.1151 165.053 15.2098 164.75 15.3991C164.447 15.5838 164.205 15.8466 164.025 16.1875C163.845 16.5237 163.755 16.9167 163.755 17.3665V24H161.184ZM183.963 24.2131C182.869 24.2131 181.925 23.9858 181.129 23.5312C180.339 23.072 179.73 22.4233 179.304 21.5852C178.878 20.7424 178.665 19.7505 178.665 18.6094C178.665 17.4872 178.878 16.5024 179.304 15.6548C179.735 14.8026 180.336 14.1397 181.108 13.6662C181.88 13.188 182.786 12.9489 183.828 12.9489C184.5 12.9489 185.135 13.0578 185.732 13.2756C186.333 13.4886 186.863 13.8201 187.322 14.2699C187.786 14.7197 188.151 15.2926 188.416 15.9886C188.681 16.6799 188.814 17.5038 188.814 18.4602V19.2486H179.872V17.5156H186.349C186.345 17.0232 186.238 16.5852 186.03 16.2017C185.821 15.8134 185.53 15.508 185.156 15.2855C184.787 15.063 184.356 14.9517 183.864 14.9517C183.338 14.9517 182.876 15.0795 182.479 15.3352C182.081 15.5862 181.771 15.9176 181.548 16.3295C181.33 16.7367 181.219 17.1842 181.214 17.6719V19.1847C181.214 19.8191 181.33 20.3636 181.562 20.8182C181.795 21.268 182.119 21.6136 182.536 21.8551C182.952 22.0919 183.44 22.2102 183.999 22.2102C184.373 22.2102 184.711 22.1581 185.014 22.054C185.317 21.9451 185.58 21.7865 185.803 21.5781C186.025 21.3698 186.193 21.1117 186.307 20.804L188.707 21.0739C188.556 21.7083 188.267 22.2623 187.841 22.7358C187.42 23.2045 186.88 23.5691 186.222 23.8295C185.563 24.0852 184.811 24.2131 183.963 24.2131ZM200.993 24H196.064V9.45455H201.092C202.536 9.45455 203.777 9.74574 204.814 10.3281C205.855 10.9058 206.655 11.7367 207.214 12.821C207.773 13.9053 208.052 15.2027 208.052 16.7131C208.052 18.2282 207.77 19.5303 207.207 20.6193C206.648 21.7083 205.841 22.544 204.785 23.1264C203.734 23.7088 202.47 24 200.993 24ZM198.699 21.7202H200.865C201.878 21.7202 202.723 21.5355 203.4 21.1662C204.077 20.7921 204.586 20.2358 204.927 19.4972C205.268 18.7538 205.439 17.8258 205.439 16.7131C205.439 15.6004 205.268 14.6771 204.927 13.9432C204.586 13.2045 204.082 12.6529 203.414 12.2884C202.752 11.919 201.928 11.7344 200.943 11.7344H198.699V21.7202ZM210.442 24V13.0909H213.013V24H210.442ZM211.735 11.5426C211.328 11.5426 210.977 11.4077 210.684 11.1378C210.39 10.8632 210.243 10.5341 210.243 10.1506C210.243 9.76231 210.39 9.43324 210.684 9.16335C210.977 8.88873 211.328 8.75142 211.735 8.75142C212.147 8.75142 212.497 8.88873 212.786 9.16335C213.079 9.43324 213.226 9.76231 213.226 10.1506C213.226 10.5341 213.079 10.8632 212.786 11.1378C212.497 11.4077 212.147 11.5426 211.735 11.5426ZM220.401 28.3182C219.478 28.3182 218.685 28.1927 218.022 27.9418C217.359 27.6955 216.826 27.3641 216.424 26.9474C216.022 26.5308 215.742 26.0691 215.586 25.5625L217.901 25.0014C218.005 25.2145 218.157 25.4252 218.356 25.6335C218.555 25.8466 218.822 26.0218 219.158 26.1591C219.499 26.3011 219.928 26.3722 220.444 26.3722C221.173 26.3722 221.777 26.1946 222.255 25.8395C222.733 25.4891 222.972 24.9115 222.972 24.1065V22.0398H222.844C222.712 22.3049 222.518 22.5772 222.262 22.8565C222.011 23.1359 221.677 23.3703 221.261 23.5597C220.849 23.7491 220.33 23.8438 219.705 23.8438C218.867 23.8438 218.107 23.6473 217.425 23.2543C216.748 22.8565 216.209 22.2647 215.806 21.4787C215.408 20.688 215.21 19.6984 215.21 18.5099C215.21 17.312 215.408 16.3011 215.806 15.4773C216.209 14.6487 216.751 14.0213 217.433 13.5952C218.114 13.1643 218.874 12.9489 219.712 12.9489C220.352 12.9489 220.877 13.0578 221.289 13.2756C221.706 13.4886 222.037 13.7467 222.283 14.0497C222.53 14.348 222.717 14.6297 222.844 14.8949H222.987V13.0909H225.522V24.1776C225.522 25.1103 225.299 25.8821 224.854 26.4929C224.409 27.1037 223.801 27.5606 223.029 27.8636C222.257 28.1667 221.381 28.3182 220.401 28.3182ZM220.423 21.8267C220.967 21.8267 221.431 21.6941 221.815 21.429C222.198 21.1638 222.489 20.7827 222.688 20.2855C222.887 19.7884 222.987 19.1918 222.987 18.4957C222.987 17.8092 222.887 17.2079 222.688 16.6918C222.494 16.1757 222.205 15.7756 221.822 15.4915C221.443 15.2027 220.977 15.0582 220.423 15.0582C219.85 15.0582 219.371 15.2074 218.988 15.5057C218.604 15.804 218.316 16.2135 218.121 16.7344C217.927 17.2505 217.83 17.8376 217.83 18.4957C217.83 19.1634 217.927 19.7481 218.121 20.25C218.32 20.7472 218.612 21.1354 218.995 21.4148C219.383 21.6894 219.859 21.8267 220.423 21.8267ZM228.157 24V13.0909H230.728V24H228.157ZM229.45 11.5426C229.042 11.5426 228.692 11.4077 228.398 11.1378C228.105 10.8632 227.958 10.5341 227.958 10.1506C227.958 9.76231 228.105 9.43324 228.398 9.16335C228.692 8.88873 229.042 8.75142 229.45 8.75142C229.862 8.75142 230.212 8.88873 230.501 9.16335C230.794 9.43324 230.941 9.76231 230.941 10.1506C230.941 10.5341 230.794 10.8632 230.501 11.1378C230.212 11.4077 229.862 11.5426 229.45 11.5426ZM238.819 13.0909V15.0795H232.548V13.0909H238.819ZM234.096 10.4773H236.667V20.7188C236.667 21.0644 236.719 21.3295 236.824 21.5142C236.932 21.6941 237.074 21.8172 237.25 21.8835C237.425 21.9498 237.619 21.983 237.832 21.983C237.993 21.983 238.14 21.9711 238.272 21.9474C238.41 21.9238 238.514 21.9025 238.585 21.8835L239.018 23.8935C238.881 23.9408 238.684 23.9929 238.429 24.0497C238.178 24.1065 237.87 24.1397 237.505 24.1491C236.861 24.1681 236.281 24.071 235.765 23.858C235.249 23.6402 234.84 23.304 234.537 22.8494C234.238 22.3949 234.092 21.8267 234.096 21.1449V10.4773ZM244.109 24.2202C243.417 24.2202 242.795 24.0971 242.241 23.8509C241.692 23.5999 241.256 23.2306 240.934 22.7429C240.617 22.2552 240.458 21.6539 240.458 20.9389C240.458 20.3234 240.572 19.8144 240.799 19.4119C241.026 19.0095 241.336 18.6875 241.729 18.446C242.122 18.2045 242.565 18.0223 243.058 17.8991C243.555 17.7713 244.068 17.679 244.599 17.6222C245.238 17.5559 245.756 17.4967 246.154 17.4446C246.552 17.3878 246.841 17.3026 247.021 17.1889C247.205 17.0705 247.298 16.8883 247.298 16.642V16.5994C247.298 16.0644 247.139 15.6501 246.822 15.3565C246.504 15.063 246.048 14.9162 245.451 14.9162C244.821 14.9162 244.322 15.0535 243.952 15.3281C243.588 15.6027 243.342 15.9271 243.214 16.3011L240.813 15.9602C241.003 15.2973 241.315 14.7434 241.751 14.2983C242.186 13.8485 242.719 13.5123 243.349 13.2898C243.978 13.0625 244.674 12.9489 245.437 12.9489C245.962 12.9489 246.486 13.0104 247.006 13.1335C247.527 13.2566 248.003 13.4602 248.434 13.7443C248.865 14.0237 249.21 14.4048 249.471 14.8878C249.736 15.3707 249.869 15.9744 249.869 16.6989V24H247.397V22.5014H247.312C247.156 22.8045 246.935 23.0885 246.651 23.3537C246.372 23.6141 246.019 23.8248 245.593 23.9858C245.172 24.142 244.677 24.2202 244.109 24.2202ZM244.776 22.331C245.292 22.331 245.74 22.2292 246.119 22.0256C246.497 21.8172 246.789 21.5426 246.992 21.2017C247.201 20.8608 247.305 20.4891 247.305 20.0866V18.8011C247.224 18.8674 247.087 18.929 246.893 18.9858C246.703 19.0426 246.49 19.0923 246.254 19.1349C246.017 19.1776 245.782 19.2154 245.55 19.2486C245.318 19.2817 245.117 19.3101 244.947 19.3338C244.563 19.3859 244.22 19.4711 243.917 19.5895C243.614 19.7079 243.375 19.8736 243.2 20.0866C243.024 20.295 242.937 20.5649 242.937 20.8963C242.937 21.3698 243.11 21.7273 243.455 21.9688C243.801 22.2102 244.241 22.331 244.776 22.331ZM255.025 9.45455V24H252.454V9.45455H255.025Z" fill="white"/>
</svg>
