<svg width="256" height="21" viewBox="0 0 256 21" fill="none" xmlns="http://www.w3.org/2000/svg">
<path d="M0.795455 3.66335V1.45455H12.4006V3.66335H7.90483V16H5.29119V3.66335H0.795455ZM17.7717 16.2131C16.6779 16.2131 15.7333 15.9858 14.9379 15.5312C14.1471 15.072 13.5387 14.4233 13.1126 13.5852C12.6864 12.7424 12.4734 11.7505 12.4734 10.6094C12.4734 9.48722 12.6864 8.50237 13.1126 7.65483C13.5434 6.80256 14.1448 6.13968 14.9165 5.66619C15.6883 5.18797 16.5951 4.94886 17.6367 4.94886C18.3091 4.94886 18.9435 5.05777 19.5401 5.27557C20.1415 5.48864 20.6718 5.82008 21.131 6.26989C21.5951 6.7197 21.9596 7.29261 22.2248 7.98864C22.4899 8.67992 22.6225 9.50379 22.6225 10.4602V11.2486H13.6808V9.51562H20.158C20.1533 9.0232 20.0468 8.58523 19.8384 8.2017C19.6301 7.81345 19.3389 7.50805 18.9648 7.28551C18.5955 7.06297 18.1647 6.9517 17.6722 6.9517C17.1467 6.9517 16.685 7.07955 16.2873 7.33523C15.8896 7.58617 15.5794 7.91761 15.3569 8.32955C15.1391 8.73674 15.0278 9.18419 15.0231 9.67188V11.1847C15.0231 11.8191 15.1391 12.3636 15.3711 12.8182C15.6031 13.268 15.9274 13.6136 16.3441 13.8551C16.7608 14.0919 17.2485 14.2102 17.8072 14.2102C18.1812 14.2102 18.5198 14.1581 18.8228 14.054C19.1258 13.9451 19.3886 13.7865 19.6112 13.5781C19.8337 13.3698 20.0018 13.1117 20.1154 12.804L22.516 13.0739C22.3645 13.7083 22.0756 14.2623 21.6495 14.7358C21.2281 15.2045 20.6883 15.5691 20.0302 15.8295C19.372 16.0852 18.6192 16.2131 17.7717 16.2131ZM33.4197 7.97443L31.076 8.23011C31.0097 7.99337 30.8937 7.77083 30.728 7.5625C30.567 7.35417 30.3492 7.18608 30.0746 7.05824C29.8 6.9304 29.4638 6.86648 29.0661 6.86648C28.531 6.86648 28.0812 6.98248 27.7166 7.21449C27.3568 7.4465 27.1792 7.74716 27.1839 8.11648C27.1792 8.43371 27.2952 8.69176 27.532 8.89062C27.7734 9.08949 28.1712 9.25284 28.7251 9.38068L30.5859 9.77841C31.6181 10.0009 32.3852 10.3537 32.8871 10.8366C33.3937 11.3196 33.6494 11.9517 33.6541 12.733C33.6494 13.4195 33.4482 14.0256 33.0504 14.5511C32.6574 15.072 32.1106 15.4792 31.4098 15.7727C30.709 16.0663 29.9041 16.2131 28.995 16.2131C27.6598 16.2131 26.585 15.9337 25.7706 15.375C24.9562 14.8116 24.4709 14.0279 24.3146 13.0241L26.8217 12.7827C26.9354 13.2751 27.1768 13.6468 27.5462 13.8977C27.9155 14.1487 28.3961 14.2741 28.9879 14.2741C29.5987 14.2741 30.0888 14.1487 30.4581 13.8977C30.8321 13.6468 31.0192 13.3366 31.0192 12.9673C31.0192 12.6548 30.8984 12.3968 30.657 12.1932C30.4202 11.9896 30.0509 11.8333 29.549 11.7244L27.6882 11.3338C26.6418 11.116 25.8677 10.7491 25.3658 10.233C24.8639 9.71212 24.6153 9.05398 24.62 8.25852C24.6153 7.58617 24.7976 7.00379 25.1669 6.51136C25.541 6.0142 26.0594 5.63068 26.7223 5.3608C27.3899 5.08617 28.1593 4.94886 29.0305 4.94886C30.3089 4.94886 31.3151 5.22112 32.049 5.76562C32.7876 6.31013 33.2446 7.0464 33.4197 7.97443ZM41.2216 5.09091V7.07955H34.9503V5.09091H41.2216ZM36.4986 2.47727H39.0696V12.7188C39.0696 13.0644 39.1217 13.3295 39.2259 13.5142C39.3348 13.6941 39.4768 13.8172 39.652 13.8835C39.8272 13.9498 40.0213 13.983 40.2344 13.983C40.3954 13.983 40.5421 13.9711 40.6747 13.9474C40.812 13.9238 40.9162 13.9025 40.9872 13.8835L41.4205 15.8935C41.2831 15.9408 41.0866 15.9929 40.831 16.0497C40.58 16.1065 40.2723 16.1397 39.9077 16.1491C39.2637 16.1681 38.6837 16.071 38.1676 15.858C37.6515 15.6402 37.242 15.304 36.9389 14.8494C36.6406 14.3949 36.4938 13.8267 36.4986 13.1449V2.47727ZM48.0842 16.2131C46.9904 16.2131 46.0458 15.9858 45.2504 15.5312C44.4596 15.072 43.8512 14.4233 43.4251 13.5852C42.9989 12.7424 42.7859 11.7505 42.7859 10.6094C42.7859 9.48722 42.9989 8.50237 43.4251 7.65483C43.8559 6.80256 44.4573 6.13968 45.229 5.66619C46.0008 5.18797 46.9076 4.94886 47.9492 4.94886C48.6216 4.94886 49.256 5.05777 49.8526 5.27557C50.454 5.48864 50.9843 5.82008 51.4435 6.26989C51.9076 6.7197 52.2721 7.29261 52.5373 7.98864C52.8024 8.67992 52.935 9.50379 52.935 10.4602V11.2486H43.9933V9.51562H50.4705C50.4658 9.0232 50.3593 8.58523 50.1509 8.2017C49.9426 7.81345 49.6514 7.50805 49.2773 7.28551C48.908 7.06297 48.4772 6.9517 47.9847 6.9517C47.4592 6.9517 46.9975 7.07955 46.5998 7.33523C46.2021 7.58617 45.8919 7.91761 45.6694 8.32955C45.4516 8.73674 45.3403 9.18419 45.3356 9.67188V11.1847C45.3356 11.8191 45.4516 12.3636 45.6836 12.8182C45.9156 13.268 46.2399 13.6136 46.6566 13.8551C47.0733 14.0919 47.561 14.2102 48.1197 14.2102C48.4937 14.2102 48.8323 14.1581 49.1353 14.054C49.4383 13.9451 49.7011 13.7865 49.9237 13.5781C50.1462 13.3698 50.3143 13.1117 50.4279 12.804L52.8285 13.0739C52.677 13.7083 52.3881 14.2623 51.962 14.7358C51.5406 15.2045 51.0008 15.5691 50.3427 15.8295C49.6845 16.0852 48.9317 16.2131 48.0842 16.2131ZM65.1136 16H60.1847V1.45455H65.2131C66.6572 1.45455 67.8977 1.74574 68.9347 2.32812C69.9763 2.90578 70.7765 3.73674 71.3352 4.82102C71.8939 5.9053 72.1733 7.20265 72.1733 8.71307C72.1733 10.2282 71.8916 11.5303 71.3281 12.6193C70.7694 13.7083 69.9621 14.544 68.9062 15.1264C67.8551 15.7088 66.5909 16 65.1136 16ZM62.8196 13.7202H64.9858C65.9991 13.7202 66.8442 13.5355 67.5213 13.1662C68.1984 12.7921 68.7074 12.2358 69.0483 11.4972C69.3892 10.7538 69.5597 9.82576 69.5597 8.71307C69.5597 7.60038 69.3892 6.67708 69.0483 5.94318C68.7074 5.20455 68.2031 4.65294 67.5355 4.28835C66.8726 3.91903 66.0488 3.73438 65.0639 3.73438H62.8196V13.7202ZM79.3928 16.2131C78.299 16.2131 77.3544 15.9858 76.5589 15.5312C75.7682 15.072 75.1598 14.4233 74.7337 13.5852C74.3075 12.7424 74.0945 11.7505 74.0945 10.6094C74.0945 9.48722 74.3075 8.50237 74.7337 7.65483C75.1645 6.80256 75.7659 6.13968 76.5376 5.66619C77.3094 5.18797 78.2161 4.94886 79.2578 4.94886C79.9302 4.94886 80.5646 5.05777 81.1612 5.27557C81.7625 5.48864 82.2929 5.82008 82.7521 6.26989C83.2161 6.7197 83.5807 7.29261 83.8459 7.98864C84.111 8.67992 84.2436 9.50379 84.2436 10.4602V11.2486H75.3018V9.51562H81.7791C81.7744 9.0232 81.6679 8.58523 81.4595 8.2017C81.2512 7.81345 80.96 7.50805 80.5859 7.28551C80.2166 7.06297 79.7857 6.9517 79.2933 6.9517C78.7678 6.9517 78.3061 7.07955 77.9084 7.33523C77.5107 7.58617 77.2005 7.91761 76.978 8.32955C76.7602 8.73674 76.6489 9.18419 76.6442 9.67188V11.1847C76.6442 11.8191 76.7602 12.3636 76.9922 12.8182C77.2242 13.268 77.5485 13.6136 77.9652 13.8551C78.3819 14.0919 78.8696 14.2102 79.4283 14.2102C79.8023 14.2102 80.1409 14.1581 80.4439 14.054C80.7469 13.9451 81.0097 13.7865 81.2322 13.5781C81.4548 13.3698 81.6229 13.1117 81.7365 12.804L84.1371 13.0739C83.9856 13.7083 83.6967 14.2623 83.2706 14.7358C82.8492 15.2045 82.3094 15.5691 81.6513 15.8295C80.9931 16.0852 80.2403 16.2131 79.3928 16.2131ZM95.8505 5.09091L91.9656 16H89.1246L85.2397 5.09091H87.9812L90.4883 13.1946H90.6019L93.1161 5.09091H95.8505ZM115.154 6.36222H112.498C112.422 5.92661 112.283 5.54072 112.079 5.20455C111.876 4.86364 111.622 4.57481 111.319 4.33807C111.016 4.10133 110.671 3.92377 110.282 3.8054C109.899 3.68229 109.484 3.62074 109.039 3.62074C108.249 3.62074 107.548 3.8196 106.937 4.21733C106.326 4.61032 105.848 5.18797 105.502 5.95028C105.157 6.70786 104.984 7.63352 104.984 8.72727C104.984 9.83996 105.157 10.7775 105.502 11.5398C105.853 12.2973 106.331 12.8703 106.937 13.2585C107.548 13.642 108.246 13.8338 109.032 13.8338C109.468 13.8338 109.875 13.777 110.254 13.6634C110.637 13.545 110.981 13.3722 111.284 13.1449C111.592 12.9176 111.85 12.6383 112.058 12.3068C112.271 11.9754 112.418 11.5966 112.498 11.1705L115.154 11.1847C115.055 11.8759 114.84 12.5246 114.508 13.1307C114.181 13.7367 113.753 14.2718 113.223 14.7358C112.692 15.1951 112.072 15.5549 111.362 15.8153C110.652 16.071 109.863 16.1989 108.997 16.1989C107.718 16.1989 106.577 15.9029 105.574 15.3111C104.57 14.7192 103.779 13.8646 103.201 12.7472C102.624 11.6297 102.335 10.2898 102.335 8.72727C102.335 7.16004 102.626 5.82008 103.208 4.70739C103.791 3.58996 104.584 2.73532 105.588 2.14347C106.592 1.55161 107.728 1.25568 108.997 1.25568C109.806 1.25568 110.559 1.36932 111.255 1.59659C111.951 1.82386 112.572 2.15767 113.116 2.59801C113.661 3.03362 114.108 3.56866 114.458 4.20312C114.814 4.83286 115.046 5.55256 115.154 6.36222ZM120.593 16.2202C119.902 16.2202 119.279 16.0971 118.725 15.8509C118.176 15.5999 117.74 15.2306 117.418 14.7429C117.101 14.2552 116.942 13.6539 116.942 12.9389C116.942 12.3234 117.056 11.8144 117.283 11.4119C117.511 11.0095 117.821 10.6875 118.214 10.446C118.607 10.2045 119.049 10.0223 119.542 9.89915C120.039 9.77131 120.553 9.67898 121.083 9.62216C121.722 9.55587 122.241 9.49669 122.638 9.4446C123.036 9.38778 123.325 9.30256 123.505 9.18892C123.69 9.07055 123.782 8.88826 123.782 8.64205V8.59943C123.782 8.06439 123.623 7.65009 123.306 7.35653C122.989 7.06297 122.532 6.91619 121.935 6.91619C121.306 6.91619 120.806 7.0535 120.437 7.32812C120.072 7.60275 119.826 7.92708 119.698 8.30114L117.298 7.96023C117.487 7.29735 117.799 6.74337 118.235 6.2983C118.671 5.84848 119.203 5.51231 119.833 5.28977C120.463 5.0625 121.159 4.94886 121.921 4.94886C122.447 4.94886 122.97 5.01042 123.491 5.13352C124.012 5.25663 124.487 5.46023 124.918 5.74432C125.349 6.02367 125.695 6.40483 125.955 6.88778C126.22 7.37074 126.353 7.97443 126.353 8.69886V16H123.881V14.5014H123.796C123.64 14.8045 123.42 15.0885 123.136 15.3537C122.856 15.6141 122.504 15.8248 122.077 15.9858C121.656 16.142 121.161 16.2202 120.593 16.2202ZM121.261 14.331C121.777 14.331 122.224 14.2292 122.603 14.0256C122.982 13.8172 123.273 13.5426 123.477 13.2017C123.685 12.8608 123.789 12.4891 123.789 12.0866V10.8011C123.709 10.8674 123.571 10.929 123.377 10.9858C123.188 11.0426 122.975 11.0923 122.738 11.1349C122.501 11.1776 122.267 11.2154 122.035 11.2486C121.803 11.2817 121.602 11.3101 121.431 11.3338C121.048 11.3859 120.704 11.4711 120.401 11.5895C120.098 11.7079 119.859 11.8736 119.684 12.0866C119.509 12.295 119.421 12.5649 119.421 12.8963C119.421 13.3698 119.594 13.7273 119.94 13.9688C120.285 14.2102 120.726 14.331 121.261 14.331ZM128.938 16V5.09091H131.431V6.90909H131.545C131.744 6.27936 132.085 5.79403 132.567 5.45312C133.055 5.10748 133.612 4.93466 134.237 4.93466C134.379 4.93466 134.537 4.94176 134.712 4.95597C134.892 4.96544 135.041 4.98201 135.16 5.00568V7.37074C135.051 7.33286 134.878 7.29972 134.641 7.27131C134.409 7.23816 134.184 7.22159 133.967 7.22159C133.498 7.22159 133.076 7.32339 132.702 7.52699C132.333 7.72585 132.042 8.00284 131.829 8.35795C131.616 8.71307 131.509 9.12263 131.509 9.58665V16H128.938ZM140.467 16.1918C139.61 16.1918 138.843 15.9716 138.166 15.5312C137.489 15.0909 136.954 14.4517 136.561 13.6136C136.168 12.7756 135.971 11.7576 135.971 10.5597C135.971 9.34754 136.17 8.32481 136.568 7.49148C136.97 6.65341 137.512 6.02131 138.194 5.59517C138.876 5.1643 139.636 4.94886 140.474 4.94886C141.113 4.94886 141.639 5.05777 142.051 5.27557C142.463 5.48864 142.789 5.74669 143.031 6.04972C143.272 6.34801 143.459 6.62973 143.592 6.89489H143.699V1.45455H146.277V16H143.748V14.2812H143.592C143.459 14.5464 143.268 14.8281 143.017 15.1264C142.766 15.42 142.434 15.6709 142.022 15.8793C141.61 16.0876 141.092 16.1918 140.467 16.1918ZM141.184 14.0824C141.729 14.0824 142.193 13.9356 142.576 13.642C142.96 13.3437 143.251 12.9295 143.45 12.3991C143.649 11.8688 143.748 11.2509 143.748 10.5455C143.748 9.83996 143.649 9.2268 143.45 8.70597C143.256 8.18513 142.967 7.7803 142.583 7.49148C142.205 7.20265 141.738 7.05824 141.184 7.05824C140.611 7.05824 140.133 7.20739 139.75 7.50568C139.366 7.80398 139.077 8.21591 138.883 8.74148C138.689 9.26705 138.592 9.86837 138.592 10.5455C138.592 11.2273 138.689 11.8357 138.883 12.3707C139.082 12.901 139.373 13.3201 139.757 13.6278C140.145 13.9309 140.621 14.0824 141.184 14.0824ZM155.969 11.4119V5.09091H158.54V16H156.048V14.0611H155.934C155.688 14.6719 155.283 15.1714 154.719 15.5597C154.161 15.9479 153.472 16.142 152.653 16.142C151.938 16.142 151.306 15.9834 150.756 15.6662C150.212 15.3442 149.786 14.8778 149.478 14.267C149.17 13.6515 149.016 12.9081 149.016 12.0369V5.09091H151.587V11.6392C151.587 12.3305 151.777 12.8797 152.156 13.2869C152.534 13.6941 153.031 13.8977 153.647 13.8977C154.026 13.8977 154.393 13.8054 154.748 13.6207C155.103 13.4361 155.394 13.1615 155.621 12.7969C155.853 12.4276 155.969 11.9659 155.969 11.4119ZM161.184 16V5.09091H163.642V6.9446H163.77C163.997 6.3196 164.373 5.83191 164.899 5.48153C165.424 5.12642 166.052 4.94886 166.781 4.94886C167.52 4.94886 168.142 5.12879 168.649 5.48864C169.16 5.84375 169.52 6.32907 169.728 6.9446H169.842C170.083 6.33854 170.491 5.85559 171.064 5.49574C171.641 5.13116 172.325 4.94886 173.116 4.94886C174.12 4.94886 174.939 5.2661 175.574 5.90057C176.208 6.53504 176.525 7.4607 176.525 8.67756V16H173.947V9.07528C173.947 8.3982 173.767 7.90341 173.407 7.59091C173.047 7.27367 172.607 7.11506 172.086 7.11506C171.466 7.11506 170.981 7.30919 170.63 7.69744C170.285 8.08097 170.112 8.58049 170.112 9.19602V16H167.591V8.96875C167.591 8.4053 167.42 7.95549 167.079 7.61932C166.743 7.28314 166.303 7.11506 165.758 7.11506C165.389 7.11506 165.053 7.20975 164.75 7.39915C164.447 7.58381 164.205 7.84659 164.025 8.1875C163.845 8.52367 163.755 8.91667 163.755 9.36648V16H161.184ZM183.963 16.2131C182.869 16.2131 181.925 15.9858 181.129 15.5312C180.339 15.072 179.73 14.4233 179.304 13.5852C178.878 12.7424 178.665 11.7505 178.665 10.6094C178.665 9.48722 178.878 8.50237 179.304 7.65483C179.735 6.80256 180.336 6.13968 181.108 5.66619C181.88 5.18797 182.786 4.94886 183.828 4.94886C184.5 4.94886 185.135 5.05777 185.732 5.27557C186.333 5.48864 186.863 5.82008 187.322 6.26989C187.786 6.7197 188.151 7.29261 188.416 7.98864C188.681 8.67992 188.814 9.50379 188.814 10.4602V11.2486H179.872V9.51562H186.349C186.345 9.0232 186.238 8.58523 186.03 8.2017C185.821 7.81345 185.53 7.50805 185.156 7.28551C184.787 7.06297 184.356 6.9517 183.864 6.9517C183.338 6.9517 182.876 7.07955 182.479 7.33523C182.081 7.58617 181.771 7.91761 181.548 8.32955C181.33 8.73674 181.219 9.18419 181.214 9.67188V11.1847C181.214 11.8191 181.33 12.3636 181.562 12.8182C181.795 13.268 182.119 13.6136 182.536 13.8551C182.952 14.0919 183.44 14.2102 183.999 14.2102C184.373 14.2102 184.711 14.1581 185.014 14.054C185.317 13.9451 185.58 13.7865 185.803 13.5781C186.025 13.3698 186.193 13.1117 186.307 12.804L188.707 13.0739C188.556 13.7083 188.267 14.2623 187.841 14.7358C187.42 15.2045 186.88 15.5691 186.222 15.8295C185.563 16.0852 184.811 16.2131 183.963 16.2131ZM200.993 16H196.064V1.45455H201.092C202.536 1.45455 203.777 1.74574 204.814 2.32812C205.855 2.90578 206.655 3.73674 207.214 4.82102C207.773 5.9053 208.052 7.20265 208.052 8.71307C208.052 10.2282 207.77 11.5303 207.207 12.6193C206.648 13.7083 205.841 14.544 204.785 15.1264C203.734 15.7088 202.47 16 200.993 16ZM198.699 13.7202H200.865C201.878 13.7202 202.723 13.5355 203.4 13.1662C204.077 12.7921 204.586 12.2358 204.927 11.4972C205.268 10.7538 205.439 9.82576 205.439 8.71307C205.439 7.60038 205.268 6.67708 204.927 5.94318C204.586 5.20455 204.082 4.65294 203.414 4.28835C202.752 3.91903 201.928 3.73438 200.943 3.73438H198.699V13.7202ZM210.442 16V5.09091H213.013V16H210.442ZM211.735 3.54261C211.328 3.54261 210.977 3.40767 210.684 3.13778C210.39 2.86316 210.243 2.53409 210.243 2.15057C210.243 1.76231 210.39 1.43324 210.684 1.16335C210.977 0.88873 211.328 0.75142 211.735 0.75142C212.147 0.75142 212.497 0.88873 212.786 1.16335C213.079 1.43324 213.226 1.76231 213.226 2.15057C213.226 2.53409 213.079 2.86316 212.786 3.13778C212.497 3.40767 212.147 3.54261 211.735 3.54261ZM220.401 20.3182C219.478 20.3182 218.685 20.1927 218.022 19.9418C217.359 19.6955 216.826 19.3641 216.424 18.9474C216.022 18.5308 215.742 18.0691 215.586 17.5625L217.901 17.0014C218.005 17.2145 218.157 17.4252 218.356 17.6335C218.555 17.8466 218.822 18.0218 219.158 18.1591C219.499 18.3011 219.928 18.3722 220.444 18.3722C221.173 18.3722 221.777 18.1946 222.255 17.8395C222.733 17.4891 222.972 16.9115 222.972 16.1065V14.0398H222.844C222.712 14.3049 222.518 14.5772 222.262 14.8565C222.011 15.1359 221.677 15.3703 221.261 15.5597C220.849 15.7491 220.33 15.8438 219.705 15.8438C218.867 15.8438 218.107 15.6473 217.425 15.2543C216.748 14.8565 216.209 14.2647 215.806 13.4787C215.408 12.688 215.21 11.6984 215.21 10.5099C215.21 9.31203 215.408 8.30114 215.806 7.47727C216.209 6.64867 216.751 6.02131 217.433 5.59517C218.114 5.1643 218.874 4.94886 219.712 4.94886C220.352 4.94886 220.877 5.05777 221.289 5.27557C221.706 5.48864 222.037 5.74669 222.283 6.04972C222.53 6.34801 222.717 6.62973 222.844 6.89489H222.987V5.09091H225.522V16.1776C225.522 17.1103 225.299 17.8821 224.854 18.4929C224.409 19.1037 223.801 19.5606 223.029 19.8636C222.257 20.1667 221.381 20.3182 220.401 20.3182ZM220.423 13.8267C220.967 13.8267 221.431 13.6941 221.815 13.429C222.198 13.1638 222.489 12.7827 222.688 12.2855C222.887 11.7884 222.987 11.1918 222.987 10.4957C222.987 9.80919 222.887 9.20786 222.688 8.69176C222.494 8.17566 222.205 7.77557 221.822 7.49148C221.443 7.20265 220.977 7.05824 220.423 7.05824C219.85 7.05824 219.371 7.20739 218.988 7.50568C218.604 7.80398 218.316 8.21354 218.121 8.73438C217.927 9.25047 217.83 9.83759 217.83 10.4957C217.83 11.1634 217.927 11.7481 218.121 12.25C218.32 12.7472 218.612 13.1354 218.995 13.4148C219.383 13.6894 219.859 13.8267 220.423 13.8267ZM228.157 16V5.09091H230.728V16H228.157ZM229.45 3.54261C229.042 3.54261 228.692 3.40767 228.398 3.13778C228.105 2.86316 227.958 2.53409 227.958 2.15057C227.958 1.76231 228.105 1.43324 228.398 1.16335C228.692 0.88873 229.042 0.75142 229.45 0.75142C229.862 0.75142 230.212 0.88873 230.501 1.16335C230.794 1.43324 230.941 1.76231 230.941 2.15057C230.941 2.53409 230.794 2.86316 230.501 3.13778C230.212 3.40767 229.862 3.54261 229.45 3.54261ZM238.819 5.09091V7.07955H232.548V5.09091H238.819ZM234.096 2.47727H236.667V12.7188C236.667 13.0644 236.719 13.3295 236.824 13.5142C236.932 13.6941 237.074 13.8172 237.25 13.8835C237.425 13.9498 237.619 13.983 237.832 13.983C237.993 13.983 238.14 13.9711 238.272 13.9474C238.41 13.9238 238.514 13.9025 238.585 13.8835L239.018 15.8935C238.881 15.9408 238.684 15.9929 238.429 16.0497C238.178 16.1065 237.87 16.1397 237.505 16.1491C236.861 16.1681 236.281 16.071 235.765 15.858C235.249 15.6402 234.84 15.304 234.537 14.8494C234.238 14.3949 234.092 13.8267 234.096 13.1449V2.47727ZM244.109 16.2202C243.417 16.2202 242.795 16.0971 242.241 15.8509C241.692 15.5999 241.256 15.2306 240.934 14.7429C240.617 14.2552 240.458 13.6539 240.458 12.9389C240.458 12.3234 240.572 11.8144 240.799 11.4119C241.026 11.0095 241.336 10.6875 241.729 10.446C242.122 10.2045 242.565 10.0223 243.058 9.89915C243.555 9.77131 244.068 9.67898 244.599 9.62216C245.238 9.55587 245.756 9.49669 246.154 9.4446C246.552 9.38778 246.841 9.30256 247.021 9.18892C247.205 9.07055 247.298 8.88826 247.298 8.64205V8.59943C247.298 8.06439 247.139 7.65009 246.822 7.35653C246.504 7.06297 246.048 6.91619 245.451 6.91619C244.821 6.91619 244.322 7.0535 243.952 7.32812C243.588 7.60275 243.342 7.92708 243.214 8.30114L240.813 7.96023C241.003 7.29735 241.315 6.74337 241.751 6.2983C242.186 5.84848 242.719 5.51231 243.349 5.28977C243.978 5.0625 244.674 4.94886 245.437 4.94886C245.962 4.94886 246.486 5.01042 247.006 5.13352C247.527 5.25663 248.003 5.46023 248.434 5.74432C248.865 6.02367 249.21 6.40483 249.471 6.88778C249.736 7.37074 249.869 7.97443 249.869 8.69886V16H247.397V14.5014H247.312C247.156 14.8045 246.935 15.0885 246.651 15.3537C246.372 15.6141 246.019 15.8248 245.593 15.9858C245.172 16.142 244.677 16.2202 244.109 16.2202ZM244.776 14.331C245.292 14.331 245.74 14.2292 246.119 14.0256C246.497 13.8172 246.789 13.5426 246.992 13.2017C247.201 12.8608 247.305 12.4891 247.305 12.0866V10.8011C247.224 10.8674 247.087 10.929 246.893 10.9858C246.703 11.0426 246.49 11.0923 246.254 11.1349C246.017 11.1776 245.782 11.2154 245.55 11.2486C245.318 11.2817 245.117 11.3101 244.947 11.3338C244.563 11.3859 244.22 11.4711 243.917 11.5895C243.614 11.7079 243.375 11.8736 243.2 12.0866C243.024 12.295 242.937 12.5649 242.937 12.8963C242.937 13.3698 243.11 13.7273 243.455 13.9688C243.801 14.2102 244.241 14.331 244.776 14.331ZM255.025 1.45455V16H252.454V1.45455H255.025Z" fill="white"/>
</svg>
