<svg width="391" height="25" viewBox="0 0 391 25" fill="none" xmlns="http://www.w3.org/2000/svg">
<path d="M6.78259 2.96094H8.82166L15.2201 20H12.2084L7.80212 7.30859L3.39587 20H0.384155L6.78259 2.96094ZM3.39587 14.082H12.3607V16.7656H3.39587V14.082ZM18.9115 10.707H24.3607C24.8138 10.707 25.2084 10.6055 25.5443 10.4023C25.8881 10.1914 26.1537 9.89453 26.3412 9.51172C26.5365 9.12891 26.6342 8.6875 26.6342 8.1875C26.6342 7.67969 26.5404 7.23438 26.3529 6.85156C26.1654 6.46875 25.8998 6.17188 25.556 5.96094C25.2123 5.75 24.8138 5.64453 24.3607 5.64453H18.9115V2.96094H24.2787C25.3177 2.96094 26.2318 3.17969 27.0209 3.61719C27.8099 4.04688 28.4232 4.65625 28.8607 5.44531C29.2982 6.23437 29.517 7.14844 29.517 8.1875C29.517 9.22656 29.2982 10.1406 28.8607 10.9297C28.4232 11.7109 27.8099 12.3164 27.0209 12.7461C26.2318 13.1758 25.3177 13.3906 24.2787 13.3906H18.9115V10.707ZM17.5638 2.96094H20.3646V20H17.5638V2.96094ZM33.6302 10.707H39.0795C39.5326 10.707 39.9271 10.6055 40.2631 10.4023C40.6068 10.1914 40.8724 9.89453 41.0599 9.51172C41.2552 9.12891 41.3529 8.6875 41.3529 8.1875C41.3529 7.67969 41.2592 7.23438 41.0717 6.85156C40.8842 6.46875 40.6185 6.17188 40.2748 5.96094C39.931 5.75 39.5326 5.64453 39.0795 5.64453H33.6302V2.96094H38.9974C40.0365 2.96094 40.9506 3.17969 41.7396 3.61719C42.5287 4.04688 43.142 4.65625 43.5795 5.44531C44.017 6.23437 44.2357 7.14844 44.2357 8.1875C44.2357 9.22656 44.017 10.1406 43.5795 10.9297C43.142 11.7109 42.5287 12.3164 41.7396 12.7461C40.9506 13.1758 40.0365 13.3906 38.9974 13.3906H33.6302V10.707ZM32.2826 2.96094H35.0834V20H32.2826V2.96094ZM59.3763 20.1758C58.142 20.1758 57.0677 19.9219 56.1537 19.4141C55.2474 18.8984 54.5482 18.1641 54.056 17.2109C53.5717 16.2578 53.3295 15.1289 53.3295 13.8242V9.14844C53.3295 7.84375 53.5717 6.71484 54.056 5.76172C54.5482 4.80859 55.2474 4.07422 56.1537 3.55859C57.0677 3.04297 58.142 2.78516 59.3763 2.78516C60.3998 2.78516 61.3256 3.00391 62.1537 3.44141C62.9896 3.87891 63.681 4.51172 64.2279 5.33984C64.7826 6.16016 65.1615 7.13281 65.3646 8.25781H62.4818C62.3412 7.71094 62.1185 7.23438 61.8138 6.82812C61.5092 6.41406 61.1459 6.09766 60.724 5.87891C60.3099 5.66016 59.8607 5.55078 59.3763 5.55078C58.7279 5.55078 58.1654 5.69922 57.6888 5.99609C57.2201 6.28516 56.8568 6.69922 56.599 7.23828C56.3412 7.77734 56.2123 8.41406 56.2123 9.14844V13.8242C56.2123 14.5586 56.3412 15.1953 56.599 15.7344C56.8568 16.2734 57.2201 16.6875 57.6888 16.9766C58.1654 17.2656 58.7279 17.4102 59.3763 17.4102C59.8685 17.4102 60.3217 17.3047 60.7357 17.0938C61.1576 16.8828 61.5209 16.5742 61.8256 16.168C62.1302 15.7617 62.349 15.2734 62.4818 14.7031H65.3646C65.1537 15.8281 64.7709 16.8047 64.2162 17.6328C63.6693 18.4531 62.9779 19.082 62.142 19.5195C61.3138 19.957 60.392 20.1758 59.3763 20.1758ZM73.0873 20.1758C72.0092 20.1758 71.0834 19.9688 70.3099 19.5547C69.5443 19.1406 68.9584 18.5391 68.5521 17.75C68.1537 16.9531 67.9545 15.9961 67.9545 14.8789V12.8984C67.9545 11.7969 68.1537 10.8555 68.5521 10.0742C68.9584 9.28516 69.5443 8.6875 70.3099 8.28125C71.0834 7.86719 72.0092 7.66016 73.0873 7.66016C74.1654 7.66016 75.0873 7.86719 75.8529 8.28125C76.6263 8.6875 77.2123 9.28516 77.6107 10.0742C78.017 10.8555 78.2201 11.7969 78.2201 12.8984V14.9141C78.2201 16.0234 78.017 16.9727 77.6107 17.7617C77.2123 18.543 76.6263 19.1406 75.8529 19.5547C75.0873 19.9688 74.1654 20.1758 73.0873 20.1758ZM73.0873 17.4922C73.8295 17.4922 74.4037 17.2695 74.8099 16.8242C75.2162 16.3711 75.4193 15.7344 75.4193 14.9141V12.8984C75.4193 12.0859 75.2162 11.457 74.8099 11.0117C74.4037 10.5664 73.8295 10.3438 73.0873 10.3438C72.3451 10.3438 71.7709 10.5664 71.3646 11.0117C70.9584 11.457 70.7552 12.0859 70.7552 12.8984V14.9141C70.7552 15.7344 70.9545 16.3711 71.3529 16.8242C71.7592 17.2695 72.3373 17.4922 73.0873 17.4922ZM95.7396 12.8047C95.7396 12.0156 95.5443 11.4102 95.1537 10.9883C94.7631 10.5586 94.2084 10.3438 93.4896 10.3438C92.8099 10.3438 92.2826 10.5508 91.9076 10.9648C91.5404 11.3711 91.3568 11.9531 91.3568 12.7109L90.8177 10.1328C91.2006 9.34375 91.7006 8.73438 92.3177 8.30469C92.9427 7.875 93.6342 7.66016 94.392 7.66016C95.267 7.66016 96.0131 7.85938 96.6302 8.25781C97.2552 8.65625 97.7279 9.24219 98.0482 10.0156C98.3763 10.7812 98.5404 11.707 98.5404 12.793V20H95.7396V12.8047ZM81.3842 7.83594H84.1849V20H81.3842V7.83594ZM88.5677 12.8047C88.5677 12.0156 88.3724 11.4102 87.9818 10.9883C87.599 10.5586 87.0521 10.3438 86.3412 10.3438C85.6537 10.3438 85.1224 10.5312 84.7474 10.9062C84.3724 11.2734 84.1849 11.7969 84.1849 12.4766L83.9388 9.95703C84.306 9.21484 84.7748 8.64844 85.3451 8.25781C85.9154 7.85938 86.5677 7.66016 87.3021 7.66016C88.1537 7.66016 88.8842 7.85938 89.4935 8.25781C90.1029 8.65625 90.5638 9.24219 90.8763 10.0156C91.1967 10.7812 91.3568 11.707 91.3568 12.793V20H88.5677V12.8047ZM101.939 7.83594H104.74V24.9453H101.939V7.83594ZM107.681 20.1758C106.947 20.1758 106.31 19.9961 105.771 19.6367C105.232 19.2695 104.833 18.7539 104.576 18.0898L104.74 15.4297C104.74 15.8906 104.822 16.2852 104.986 16.6133C105.15 16.9336 105.388 17.1797 105.701 17.3516C106.013 17.5234 106.392 17.6094 106.837 17.6094C107.533 17.6094 108.072 17.3906 108.454 16.9531C108.837 16.5156 109.029 15.8945 109.029 15.0898V12.8047C109.029 11.9844 108.837 11.3516 108.454 10.9062C108.072 10.4531 107.533 10.2266 106.837 10.2266C106.392 10.2266 106.013 10.3125 105.701 10.4844C105.388 10.6484 105.15 10.8945 104.986 11.2227C104.822 11.5508 104.74 11.9453 104.74 12.4062L104.494 9.88672C104.837 9.17578 105.29 8.62891 105.853 8.24609C106.423 7.85547 107.052 7.66016 107.74 7.66016C108.599 7.66016 109.333 7.85938 109.943 8.25781C110.56 8.65625 111.029 9.24219 111.349 10.0156C111.669 10.7812 111.829 11.707 111.829 12.793V15.0898C111.829 16.1602 111.665 17.0781 111.337 17.8438C111.017 18.6016 110.544 19.1797 109.919 19.5781C109.294 19.9766 108.548 20.1758 107.681 20.1758ZM120.091 20.1758C118.943 20.1758 117.962 19.9648 117.15 19.543C116.337 19.1211 115.716 18.5039 115.286 17.6914C114.857 16.8711 114.642 15.8828 114.642 14.7266V13.3555C114.642 12.1523 114.845 11.125 115.251 10.2734C115.665 9.42188 116.263 8.77344 117.044 8.32812C117.833 7.88281 118.779 7.66016 119.88 7.66016C120.919 7.66016 121.806 7.92187 122.54 8.44531C123.283 8.96094 123.845 9.71094 124.228 10.6953C124.619 11.6797 124.814 12.8672 124.814 14.2578V15.0547H116.552V13.0039H122.212L122.201 12.875C122.122 12.0234 121.884 11.3633 121.486 10.8945C121.087 10.4258 120.552 10.1914 119.88 10.1914C119.036 10.1914 118.384 10.457 117.923 10.9883C117.462 11.5117 117.232 12.2578 117.232 13.2266V14.7734C117.232 15.6953 117.482 16.4062 117.982 16.9062C118.482 17.3984 119.185 17.6445 120.091 17.6445C120.552 17.6445 121.005 17.5586 121.451 17.3867C121.904 17.207 122.31 16.9609 122.669 16.6484L124.497 18.3594C123.88 18.9375 123.185 19.3867 122.411 19.707C121.646 20.0195 120.872 20.1758 120.091 20.1758ZM131.142 20.0586C130.119 20.0586 129.369 19.7891 128.892 19.25C128.415 18.7031 128.177 17.8984 128.177 16.8359V4.29688H130.978V16.4492C130.978 16.7461 131.036 16.9766 131.154 17.1406C131.271 17.2969 131.443 17.375 131.669 17.375H132.642V20.0586H131.142ZM126.923 7.83594H132.642V10.2852H126.923V7.83594ZM140.786 20.1758C139.638 20.1758 138.658 19.9648 137.845 19.543C137.033 19.1211 136.411 18.5039 135.982 17.6914C135.552 16.8711 135.337 15.8828 135.337 14.7266V13.3555C135.337 12.1523 135.54 11.125 135.947 10.2734C136.361 9.42188 136.958 8.77344 137.74 8.32812C138.529 7.88281 139.474 7.66016 140.576 7.66016C141.615 7.66016 142.501 7.92187 143.236 8.44531C143.978 8.96094 144.54 9.71094 144.923 10.6953C145.314 11.6797 145.509 12.8672 145.509 14.2578V15.0547H137.247V13.0039H142.908L142.896 12.875C142.818 12.0234 142.579 11.3633 142.181 10.8945C141.783 10.4258 141.247 10.1914 140.576 10.1914C139.732 10.1914 139.079 10.457 138.619 10.9883C138.158 11.5117 137.927 12.2578 137.927 13.2266V14.7734C137.927 15.6953 138.177 16.4062 138.677 16.9062C139.177 17.3984 139.88 17.6445 140.786 17.6445C141.247 17.6445 141.701 17.5586 142.146 17.3867C142.599 17.207 143.005 16.9609 143.365 16.6484L145.193 18.3594C144.576 18.9375 143.88 19.3867 143.107 19.707C142.341 20.0195 141.568 20.1758 140.786 20.1758ZM144.372 4.40234L142.802 5.84375L140.458 3.61719L138.115 5.84375L136.544 4.40234L140.458 0.675781L144.372 4.40234ZM148.556 7.83594H151.357V20H148.556V7.83594ZM155.763 12.6289C155.763 11.9023 155.568 11.3398 155.177 10.9414C154.786 10.543 154.232 10.3438 153.513 10.3438C152.826 10.3438 152.294 10.5312 151.919 10.9062C151.544 11.2734 151.357 11.7969 151.357 12.4766L151.111 9.95703C151.478 9.20703 151.939 8.63672 152.494 8.24609C153.056 7.85547 153.716 7.66016 154.474 7.66016C155.771 7.66016 156.775 8.09375 157.486 8.96094C158.204 9.82031 158.564 11.0391 158.564 12.6172V20H155.763V12.6289ZM166.99 20.1758C165.857 20.1758 164.888 19.9648 164.083 19.543C163.279 19.1133 162.665 18.4922 162.244 17.6797C161.822 16.8594 161.611 15.8711 161.611 14.7148V13.0625C161.611 11.9219 161.822 10.9492 162.244 10.1445C162.665 9.33203 163.279 8.71484 164.083 8.29297C164.888 7.87109 165.857 7.66016 166.99 7.66016C167.638 7.66016 168.247 7.73828 168.818 7.89453C169.396 8.04297 169.911 8.26172 170.365 8.55078C170.826 8.83984 171.208 9.19141 171.513 9.60547L169.615 11.3867C169.294 11.0508 168.919 10.793 168.49 10.6133C168.06 10.4336 167.611 10.3438 167.142 10.3438C166.275 10.3438 165.603 10.582 165.126 11.0586C164.65 11.5273 164.411 12.1953 164.411 13.0625V14.7148C164.411 15.6055 164.646 16.293 165.115 16.7773C165.591 17.2539 166.267 17.4922 167.142 17.4922C167.619 17.4922 168.072 17.3945 168.501 17.1992C168.931 17.0039 169.302 16.7266 169.615 16.3672L171.513 18.2656C171.201 18.6719 170.814 19.0195 170.353 19.3086C169.9 19.5898 169.384 19.8047 168.806 19.9531C168.236 20.1016 167.63 20.1758 166.99 20.1758ZM173.833 2.96094H176.622V5.76172H173.833V2.96094ZM173.833 7.83594H176.622V20H173.833V7.83594ZM186.724 12.2891C186.724 11.6094 186.521 11.082 186.115 10.707C185.716 10.332 185.15 10.1445 184.415 10.1445C183.947 10.1445 183.486 10.2188 183.033 10.3672C182.579 10.5156 182.173 10.7227 181.814 10.9883L179.951 9.41797C180.427 8.86328 181.052 8.43359 181.826 8.12891C182.599 7.81641 183.458 7.66016 184.404 7.66016C185.435 7.66016 186.318 7.83984 187.052 8.19922C187.786 8.55078 188.345 9.06641 188.728 9.74609C189.119 10.418 189.314 11.2305 189.314 12.1836V20H186.724V12.2891ZM183.536 20.1758C182.138 20.1758 181.091 19.8672 180.396 19.25C179.701 18.625 179.353 17.6797 179.353 16.4141C179.353 15.2109 179.704 14.3086 180.408 13.707C181.111 13.1055 182.165 12.8047 183.572 12.8047H186.829L186.994 14.9844H183.583C183.029 14.9844 182.611 15.1016 182.329 15.3359C182.056 15.5703 181.919 15.9297 181.919 16.4141C181.919 16.9219 182.099 17.3008 182.458 17.5508C182.818 17.793 183.361 17.9141 184.087 17.9141C184.978 17.9141 185.638 17.8164 186.068 17.6211C186.505 17.4258 186.724 17.1211 186.724 16.707L186.97 18.4414C186.837 18.8242 186.603 19.1445 186.267 19.4023C185.939 19.6602 185.54 19.8555 185.072 19.9883C184.603 20.1133 184.091 20.1758 183.536 20.1758ZM197.189 20.1758C196.462 20.1758 195.771 20.1094 195.115 19.9766C194.458 19.8359 193.841 19.6328 193.263 19.3672C192.693 19.1016 192.177 18.7773 191.716 18.3945L193.415 16.2852C194.033 16.7227 194.661 17.0547 195.302 17.2812C195.951 17.5078 196.579 17.6211 197.189 17.6211C198.04 17.6211 198.685 17.5078 199.122 17.2812C199.568 17.0469 199.79 16.7109 199.79 16.2734C199.79 15.9375 199.681 15.6875 199.462 15.5234C199.244 15.3516 198.966 15.2344 198.63 15.1719C198.302 15.1094 197.837 15.0508 197.236 14.9961C197.134 14.9883 197.029 14.9805 196.919 14.9727C196.81 14.9648 196.704 14.9531 196.603 14.9375C196.572 14.9375 196.54 14.9375 196.509 14.9375C196.478 14.9297 196.447 14.9258 196.415 14.9258C195.564 14.832 194.865 14.7031 194.318 14.5391C193.771 14.3672 193.31 14.043 192.935 13.5664C192.568 13.0898 192.384 12.4062 192.384 11.5156C192.384 10.6797 192.568 9.97656 192.935 9.40625C193.31 8.82812 193.857 8.39453 194.576 8.10547C195.294 7.80859 196.177 7.66016 197.224 7.66016C197.849 7.66016 198.458 7.72266 199.052 7.84766C199.646 7.96484 200.212 8.14062 200.751 8.375C201.298 8.60156 201.814 8.88672 202.298 9.23047L200.622 11.2695C200.052 10.9258 199.474 10.6641 198.888 10.4844C198.31 10.3047 197.747 10.2148 197.201 10.2148C196.466 10.2148 195.908 10.3203 195.525 10.5312C195.142 10.7422 194.951 11.0547 194.951 11.4688C194.951 11.7344 195.056 11.9375 195.267 12.0781C195.478 12.2188 195.74 12.3164 196.052 12.3711C196.372 12.418 196.833 12.4688 197.435 12.5234C197.497 12.5312 197.556 12.5391 197.611 12.5469C197.673 12.5469 197.736 12.5508 197.798 12.5586C197.822 12.5586 197.849 12.5586 197.88 12.5586C197.911 12.5586 197.943 12.5625 197.974 12.5703C198.872 12.6562 199.619 12.7852 200.212 12.957C200.806 13.1289 201.31 13.4727 201.724 13.9883C202.138 14.4961 202.345 15.2383 202.345 16.2148C202.345 17.0742 202.15 17.8008 201.759 18.3945C201.369 18.9805 200.786 19.4258 200.013 19.7305C199.247 20.0273 198.306 20.1758 197.189 20.1758ZM217.076 20.1758C216.255 20.1758 215.466 20.0977 214.708 19.9414C213.958 19.7773 213.251 19.5391 212.587 19.2266C211.931 18.9141 211.329 18.5273 210.783 18.0664L212.271 15.8281C212.927 16.3828 213.661 16.8047 214.474 17.0938C215.294 17.375 216.161 17.5156 217.076 17.5156C218.216 17.5156 219.099 17.3125 219.724 16.9062C220.357 16.5 220.673 15.9258 220.673 15.1836V15.1719C220.673 14.6484 220.533 14.2344 220.251 13.9297C219.97 13.6172 219.603 13.3906 219.15 13.25C218.697 13.1016 218.115 12.9648 217.404 12.8398C217.38 12.832 217.357 12.8281 217.333 12.8281C217.31 12.8281 217.286 12.8242 217.263 12.8164L217.052 12.7812C215.911 12.5938 214.974 12.3711 214.24 12.1133C213.505 11.8555 212.88 11.3945 212.365 10.7305C211.849 10.0664 211.591 9.125 211.591 7.90625V7.89453C211.591 6.81641 211.833 5.89453 212.318 5.12891C212.802 4.36328 213.505 3.78125 214.427 3.38281C215.349 2.98438 216.458 2.78516 217.755 2.78516C218.365 2.78516 218.974 2.85547 219.583 2.99609C220.201 3.12891 220.802 3.32812 221.388 3.59375C221.982 3.85156 222.556 4.17578 223.111 4.56641L221.751 6.875C221.095 6.40625 220.427 6.05078 219.747 5.80859C219.068 5.56641 218.404 5.44531 217.755 5.44531C216.677 5.44531 215.841 5.64453 215.247 6.04297C214.661 6.43359 214.369 6.98828 214.369 7.70703V7.71875C214.369 8.25781 214.521 8.68359 214.826 8.99609C215.13 9.30859 215.509 9.53906 215.962 9.6875C216.423 9.82812 217.064 9.98047 217.884 10.1445C217.915 10.1523 217.943 10.1602 217.966 10.168C217.997 10.168 218.029 10.1719 218.06 10.1797C218.099 10.1875 218.142 10.1953 218.189 10.2031C218.236 10.2109 218.279 10.2188 218.318 10.2266C219.372 10.4375 220.251 10.6914 220.954 10.9883C221.665 11.2852 222.259 11.7617 222.736 12.418C223.212 13.0742 223.451 13.9688 223.451 15.1016V15.125C223.451 16.1875 223.201 17.0977 222.701 17.8555C222.201 18.6133 221.474 19.1914 220.521 19.5898C219.568 19.9805 218.419 20.1758 217.076 20.1758ZM231.173 20.1758C230.095 20.1758 229.169 19.9688 228.396 19.5547C227.63 19.1406 227.044 18.5391 226.638 17.75C226.24 16.9531 226.04 15.9961 226.04 14.8789V12.8984C226.04 11.7969 226.24 10.8555 226.638 10.0742C227.044 9.28516 227.63 8.6875 228.396 8.28125C229.169 7.86719 230.095 7.66016 231.173 7.66016C232.251 7.66016 233.173 7.86719 233.939 8.28125C234.712 8.6875 235.298 9.28516 235.697 10.0742C236.103 10.8555 236.306 11.7969 236.306 12.8984V14.9141C236.306 16.0234 236.103 16.9727 235.697 17.7617C235.298 18.543 234.712 19.1406 233.939 19.5547C233.173 19.9688 232.251 20.1758 231.173 20.1758ZM231.173 17.4922C231.915 17.4922 232.49 17.2695 232.896 16.8242C233.302 16.3711 233.505 15.7344 233.505 14.9141V12.8984C233.505 12.0859 233.302 11.457 232.896 11.0117C232.49 10.5664 231.915 10.3438 231.173 10.3438C230.431 10.3438 229.857 10.5664 229.451 11.0117C229.044 11.457 228.841 12.0859 228.841 12.8984V14.9141C228.841 15.7344 229.04 16.3711 229.439 16.8242C229.845 17.2695 230.423 17.4922 231.173 17.4922ZM244.497 20.1758C243.365 20.1758 242.396 19.9648 241.591 19.543C240.786 19.1133 240.173 18.4922 239.751 17.6797C239.329 16.8594 239.119 15.8711 239.119 14.7148V13.0625C239.119 11.9219 239.329 10.9492 239.751 10.1445C240.173 9.33203 240.786 8.71484 241.591 8.29297C242.396 7.87109 243.365 7.66016 244.497 7.66016C245.146 7.66016 245.755 7.73828 246.326 7.89453C246.904 8.04297 247.419 8.26172 247.872 8.55078C248.333 8.83984 248.716 9.19141 249.021 9.60547L247.122 11.3867C246.802 11.0508 246.427 10.793 245.997 10.6133C245.568 10.4336 245.119 10.3438 244.65 10.3438C243.783 10.3438 243.111 10.582 242.634 11.0586C242.158 11.5273 241.919 12.1953 241.919 13.0625V14.7148C241.919 15.6055 242.154 16.293 242.622 16.7773C243.099 17.2539 243.775 17.4922 244.65 17.4922C245.126 17.4922 245.579 17.3945 246.009 17.1992C246.439 17.0039 246.81 16.7266 247.122 16.3672L249.021 18.2656C248.708 18.6719 248.322 19.0195 247.861 19.3086C247.408 19.5898 246.892 19.8047 246.314 19.9531C245.744 20.1016 245.138 20.1758 244.497 20.1758ZM251.341 2.96094H254.13V5.76172H251.341V2.96094ZM251.341 7.83594H254.13V20H251.341V7.83594ZM262.228 20.1758C261.15 20.1758 260.224 19.9688 259.451 19.5547C258.685 19.1406 258.099 18.5391 257.693 17.75C257.294 16.9531 257.095 15.9961 257.095 14.8789V12.8984C257.095 11.7969 257.294 10.8555 257.693 10.0742C258.099 9.28516 258.685 8.6875 259.451 8.28125C260.224 7.86719 261.15 7.66016 262.228 7.66016C263.306 7.66016 264.228 7.86719 264.994 8.28125C265.767 8.6875 266.353 9.28516 266.751 10.0742C267.158 10.8555 267.361 11.7969 267.361 12.8984V14.9141C267.361 16.0234 267.158 16.9727 266.751 17.7617C266.353 18.543 265.767 19.1406 264.994 19.5547C264.228 19.9688 263.306 20.1758 262.228 20.1758ZM262.228 17.4922C262.97 17.4922 263.544 17.2695 263.951 16.8242C264.357 16.3711 264.56 15.7344 264.56 14.9141V12.8984C264.56 12.0859 264.357 11.457 263.951 11.0117C263.544 10.5664 262.97 10.3438 262.228 10.3438C261.486 10.3438 260.911 10.5664 260.505 11.0117C260.099 11.457 259.896 12.0859 259.896 12.8984V14.9141C259.896 15.7344 260.095 16.3711 260.494 16.8242C260.9 17.2695 261.478 17.4922 262.228 17.4922ZM275.622 20.1758C274.474 20.1758 273.494 19.9648 272.681 19.543C271.869 19.1211 271.247 18.5039 270.818 17.6914C270.388 16.8711 270.173 15.8828 270.173 14.7266V13.3555C270.173 12.1523 270.376 11.125 270.783 10.2734C271.197 9.42188 271.794 8.77344 272.576 8.32812C273.365 7.88281 274.31 7.66016 275.411 7.66016C276.451 7.66016 277.337 7.92187 278.072 8.44531C278.814 8.96094 279.376 9.71094 279.759 10.6953C280.15 11.6797 280.345 12.8672 280.345 14.2578V15.0547H272.083V13.0039H277.744L277.732 12.875C277.654 12.0234 277.415 11.3633 277.017 10.8945C276.619 10.4258 276.083 10.1914 275.411 10.1914C274.568 10.1914 273.915 10.457 273.454 10.9883C272.994 11.5117 272.763 12.2578 272.763 13.2266V14.7734C272.763 15.6953 273.013 16.4062 273.513 16.9062C274.013 17.3984 274.716 17.6445 275.622 17.6445C276.083 17.6445 276.536 17.5586 276.982 17.3867C277.435 17.207 277.841 16.9609 278.201 16.6484L280.029 18.3594C279.411 18.9375 278.716 19.3867 277.943 19.707C277.177 20.0195 276.404 20.1758 275.622 20.1758ZM297.747 12.8047C297.747 12.0156 297.552 11.4102 297.161 10.9883C296.771 10.5586 296.216 10.3438 295.497 10.3438C294.818 10.3438 294.29 10.5508 293.915 10.9648C293.548 11.3711 293.365 11.9531 293.365 12.7109L292.826 10.1328C293.208 9.34375 293.708 8.73438 294.326 8.30469C294.951 7.875 295.642 7.66016 296.4 7.66016C297.275 7.66016 298.021 7.85938 298.638 8.25781C299.263 8.65625 299.736 9.24219 300.056 10.0156C300.384 10.7812 300.548 11.707 300.548 12.793V20H297.747V12.8047ZM283.392 7.83594H286.193V20H283.392V7.83594ZM290.576 12.8047C290.576 12.0156 290.38 11.4102 289.99 10.9883C289.607 10.5586 289.06 10.3438 288.349 10.3438C287.661 10.3438 287.13 10.5312 286.755 10.9062C286.38 11.2734 286.193 11.7969 286.193 12.4766L285.947 9.95703C286.314 9.21484 286.783 8.64844 287.353 8.25781C287.923 7.85938 288.576 7.66016 289.31 7.66016C290.161 7.66016 290.892 7.85938 291.501 8.25781C292.111 8.65625 292.572 9.24219 292.884 10.0156C293.204 10.7812 293.365 11.707 293.365 12.793V20H290.576V12.8047ZM308.728 20.1758C307.65 20.1758 306.724 19.9688 305.951 19.5547C305.185 19.1406 304.599 18.5391 304.193 17.75C303.794 16.9531 303.595 15.9961 303.595 14.8789V12.8984C303.595 11.7969 303.794 10.8555 304.193 10.0742C304.599 9.28516 305.185 8.6875 305.951 8.28125C306.724 7.86719 307.65 7.66016 308.728 7.66016C309.806 7.66016 310.728 7.86719 311.494 8.28125C312.267 8.6875 312.853 9.28516 313.251 10.0742C313.658 10.8555 313.861 11.7969 313.861 12.8984V14.9141C313.861 16.0234 313.658 16.9727 313.251 17.7617C312.853 18.543 312.267 19.1406 311.494 19.5547C310.728 19.9688 309.806 20.1758 308.728 20.1758ZM308.728 17.4922C309.47 17.4922 310.044 17.2695 310.451 16.8242C310.857 16.3711 311.06 15.7344 311.06 14.9141V12.8984C311.06 12.0859 310.857 11.457 310.451 11.0117C310.044 10.5664 309.47 10.3438 308.728 10.3438C307.986 10.3438 307.411 10.5664 307.005 11.0117C306.599 11.457 306.396 12.0859 306.396 12.8984V14.9141C306.396 15.7344 306.595 16.3711 306.994 16.8242C307.4 17.2695 307.978 17.4922 308.728 17.4922ZM322.052 20.1758C320.919 20.1758 319.951 19.9648 319.146 19.543C318.341 19.1133 317.728 18.4922 317.306 17.6797C316.884 16.8594 316.673 15.8711 316.673 14.7148V13.0625C316.673 11.9219 316.884 10.9492 317.306 10.1445C317.728 9.33203 318.341 8.71484 319.146 8.29297C319.951 7.87109 320.919 7.66016 322.052 7.66016C322.701 7.66016 323.31 7.73828 323.88 7.89453C324.458 8.04297 324.974 8.26172 325.427 8.55078C325.888 8.83984 326.271 9.19141 326.576 9.60547L324.677 11.3867C324.357 11.0508 323.982 10.793 323.552 10.6133C323.122 10.4336 322.673 10.3438 322.204 10.3438C321.337 10.3438 320.665 10.582 320.189 11.0586C319.712 11.5273 319.474 12.1953 319.474 13.0625V14.7148C319.474 15.6055 319.708 16.293 320.177 16.7773C320.654 17.2539 321.329 17.4922 322.204 17.4922C322.681 17.4922 323.134 17.3945 323.564 17.1992C323.994 17.0039 324.365 16.7266 324.677 16.3672L326.576 18.2656C326.263 18.6719 325.876 19.0195 325.415 19.3086C324.962 19.5898 324.447 19.8047 323.869 19.9531C323.298 20.1016 322.693 20.1758 322.052 20.1758ZM328.896 2.96094H331.685V5.76172H328.896V2.96094ZM328.896 7.83594H331.685V20H328.896V7.83594ZM339.783 20.1758C338.704 20.1758 337.779 19.9688 337.005 19.5547C336.24 19.1406 335.654 18.5391 335.247 17.75C334.849 16.9531 334.65 15.9961 334.65 14.8789V12.8984C334.65 11.7969 334.849 10.8555 335.247 10.0742C335.654 9.28516 336.24 8.6875 337.005 8.28125C337.779 7.86719 338.704 7.66016 339.783 7.66016C340.861 7.66016 341.783 7.86719 342.548 8.28125C343.322 8.6875 343.908 9.28516 344.306 10.0742C344.712 10.8555 344.915 11.7969 344.915 12.8984V14.9141C344.915 16.0234 344.712 16.9727 344.306 17.7617C343.908 18.543 343.322 19.1406 342.548 19.5547C341.783 19.9688 340.861 20.1758 339.783 20.1758ZM339.783 17.4922C340.525 17.4922 341.099 17.2695 341.505 16.8242C341.911 16.3711 342.115 15.7344 342.115 14.9141V12.8984C342.115 12.0859 341.911 11.457 341.505 11.0117C341.099 10.5664 340.525 10.3438 339.783 10.3438C339.04 10.3438 338.466 10.5664 338.06 11.0117C337.654 11.457 337.451 12.0859 337.451 12.8984V14.9141C337.451 15.7344 337.65 16.3711 338.048 16.8242C338.454 17.2695 339.033 17.4922 339.783 17.4922ZM348.079 7.83594H350.88V20H348.079V7.83594ZM355.286 12.6289C355.286 11.9023 355.091 11.3398 354.701 10.9414C354.31 10.543 353.755 10.3438 353.036 10.3438C352.349 10.3438 351.818 10.5312 351.443 10.9062C351.068 11.2734 350.88 11.7969 350.88 12.4766L350.634 9.95703C351.001 9.20703 351.462 8.63672 352.017 8.24609C352.579 7.85547 353.24 7.66016 353.997 7.66016C355.294 7.66016 356.298 8.09375 357.009 8.96094C357.728 9.82031 358.087 11.0391 358.087 12.6172V20H355.286V12.6289ZM368.271 12.2891C368.271 11.6094 368.068 11.082 367.661 10.707C367.263 10.332 366.697 10.1445 365.962 10.1445C365.494 10.1445 365.033 10.2188 364.579 10.3672C364.126 10.5156 363.72 10.7227 363.361 10.9883L361.497 9.41797C361.974 8.86328 362.599 8.43359 363.372 8.12891C364.146 7.81641 365.005 7.66016 365.951 7.66016C366.982 7.66016 367.865 7.83984 368.599 8.19922C369.333 8.55078 369.892 9.06641 370.275 9.74609C370.665 10.418 370.861 11.2305 370.861 12.1836V20H368.271V12.2891ZM365.083 20.1758C363.685 20.1758 362.638 19.8672 361.943 19.25C361.247 18.625 360.9 17.6797 360.9 16.4141C360.9 15.2109 361.251 14.3086 361.954 13.707C362.658 13.1055 363.712 12.8047 365.119 12.8047H368.376L368.54 14.9844H365.13C364.576 14.9844 364.158 15.1016 363.876 15.3359C363.603 15.5703 363.466 15.9297 363.466 16.4141C363.466 16.9219 363.646 17.3008 364.005 17.5508C364.365 17.793 364.908 17.9141 365.634 17.9141C366.525 17.9141 367.185 17.8164 367.615 17.6211C368.052 17.4258 368.271 17.1211 368.271 16.707L368.517 18.4414C368.384 18.8242 368.15 19.1445 367.814 19.4023C367.486 19.6602 367.087 19.8555 366.619 19.9883C366.15 20.1133 365.638 20.1758 365.083 20.1758ZM374.177 2.96094H376.966V5.76172H374.177V2.96094ZM374.177 7.83594H376.966V20H374.177V7.83594ZM384.759 20.1758C384.033 20.1758 383.341 20.1094 382.685 19.9766C382.029 19.8359 381.411 19.6328 380.833 19.3672C380.263 19.1016 379.747 18.7773 379.286 18.3945L380.986 16.2852C381.603 16.7227 382.232 17.0547 382.872 17.2812C383.521 17.5078 384.15 17.6211 384.759 17.6211C385.611 17.6211 386.255 17.5078 386.693 17.2812C387.138 17.0469 387.361 16.7109 387.361 16.2734C387.361 15.9375 387.251 15.6875 387.033 15.5234C386.814 15.3516 386.536 15.2344 386.201 15.1719C385.872 15.1094 385.408 15.0508 384.806 14.9961C384.704 14.9883 384.599 14.9805 384.49 14.9727C384.38 14.9648 384.275 14.9531 384.173 14.9375C384.142 14.9375 384.111 14.9375 384.079 14.9375C384.048 14.9297 384.017 14.9258 383.986 14.9258C383.134 14.832 382.435 14.7031 381.888 14.5391C381.341 14.3672 380.88 14.043 380.505 13.5664C380.138 13.0898 379.954 12.4062 379.954 11.5156C379.954 10.6797 380.138 9.97656 380.505 9.40625C380.88 8.82812 381.427 8.39453 382.146 8.10547C382.865 7.80859 383.747 7.66016 384.794 7.66016C385.419 7.66016 386.029 7.72266 386.622 7.84766C387.216 7.96484 387.783 8.14062 388.322 8.375C388.869 8.60156 389.384 8.88672 389.869 9.23047L388.193 11.2695C387.622 10.9258 387.044 10.6641 386.458 10.4844C385.88 10.3047 385.318 10.2148 384.771 10.2148C384.036 10.2148 383.478 10.3203 383.095 10.5312C382.712 10.7422 382.521 11.0547 382.521 11.4688C382.521 11.7344 382.626 11.9375 382.837 12.0781C383.048 12.2188 383.31 12.3164 383.622 12.3711C383.943 12.418 384.404 12.4688 385.005 12.5234C385.068 12.5312 385.126 12.5391 385.181 12.5469C385.244 12.5469 385.306 12.5508 385.369 12.5586C385.392 12.5586 385.419 12.5586 385.451 12.5586C385.482 12.5586 385.513 12.5625 385.544 12.5703C386.443 12.6562 387.189 12.7852 387.783 12.957C388.376 13.1289 388.88 13.4727 389.294 13.9883C389.708 14.4961 389.915 15.2383 389.915 16.2148C389.915 17.0742 389.72 17.8008 389.329 18.3945C388.939 18.9805 388.357 19.4258 387.583 19.7305C386.818 20.0273 385.876 20.1758 384.759 20.1758Z" fill="#171717"/>
</svg>
