<svg width="180" height="19" viewBox="0 0 180 19" fill="none" xmlns="http://www.w3.org/2000/svg">
<path d="M7.89978 18.1758C6.66541 18.1758 5.59119 17.9219 4.67712 17.4141C3.77087 16.8984 3.07166 16.1641 2.57947 15.2109C2.09509 14.2578 1.85291 13.1289 1.85291 11.8242V7.14844C1.85291 5.84375 2.09509 4.71484 2.57947 3.76172C3.07166 2.80859 3.77087 2.07422 4.67712 1.55859C5.59119 1.04297 6.66541 0.785156 7.89978 0.785156C8.92322 0.785156 9.849 1.00391 10.6771 1.44141C11.5131 1.87891 12.2045 2.51172 12.7513 3.33984C13.306 4.16016 13.6849 5.13281 13.8881 6.25781H11.0052C10.8646 5.71094 10.642 5.23438 10.3373 4.82812C10.0326 4.41406 9.66931 4.09766 9.24744 3.87891C8.83337 3.66016 8.38416 3.55078 7.89978 3.55078C7.25134 3.55078 6.68884 3.69922 6.21228 3.99609C5.74353 4.28516 5.38025 4.69922 5.12244 5.23828C4.86462 5.77734 4.73572 6.41406 4.73572 7.14844V11.8242C4.73572 12.5586 4.86462 13.1953 5.12244 13.7344C5.38025 14.2734 5.74353 14.6875 6.21228 14.9766C6.68884 15.2656 7.25134 15.4102 7.89978 15.4102C8.39197 15.4102 8.84509 15.3047 9.25916 15.0938C9.68103 14.8828 10.0443 14.5742 10.349 14.168C10.6537 13.7617 10.8724 13.2734 11.0052 12.7031H13.8881C13.6771 13.8281 13.2943 14.8047 12.7396 15.6328C12.1927 16.4531 11.5013 17.082 10.6654 17.5195C9.83728 17.957 8.91541 18.1758 7.89978 18.1758ZM19.6302 14.4258C19.6302 14.7227 19.7045 14.9531 19.8529 15.1172C20.0013 15.2734 20.2123 15.3516 20.4857 15.3516H21.3177V18.0352H19.7943C18.8568 18.0352 18.1263 17.7539 17.6029 17.1914C17.0873 16.6289 16.8295 15.8359 16.8295 14.8125V0.960938H19.6302V14.4258ZM28.5717 18.1758C27.4935 18.1758 26.5677 17.9688 25.7943 17.5547C25.0287 17.1406 24.4427 16.5391 24.0365 15.75C23.6381 14.9531 23.4388 13.9961 23.4388 12.8789V10.8984C23.4388 9.79688 23.6381 8.85547 24.0365 8.07422C24.4427 7.28516 25.0287 6.6875 25.7943 6.28125C26.5677 5.86719 27.4935 5.66016 28.5717 5.66016C29.6498 5.66016 30.5717 5.86719 31.3373 6.28125C32.1107 6.6875 32.6967 7.28516 33.0951 8.07422C33.5013 8.85547 33.7045 9.79688 33.7045 10.8984V12.9141C33.7045 14.0234 33.5013 14.9727 33.0951 15.7617C32.6967 16.543 32.1107 17.1406 31.3373 17.5547C30.5717 17.9688 29.6498 18.1758 28.5717 18.1758ZM28.5717 15.4922C29.3138 15.4922 29.8881 15.2695 30.2943 14.8242C30.7006 14.3711 30.9037 13.7344 30.9037 12.9141V10.8984C30.9037 10.0859 30.7006 9.45703 30.2943 9.01172C29.8881 8.56641 29.3138 8.34375 28.5717 8.34375C27.8295 8.34375 27.2552 8.56641 26.849 9.01172C26.4427 9.45703 26.2396 10.0859 26.2396 10.8984V12.9141C26.2396 13.7344 26.4388 14.3711 26.8373 14.8242C27.2435 15.2695 27.8217 15.4922 28.5717 15.4922ZM36.8685 5.83594H39.6693V18H36.8685V5.83594ZM44.0756 10.6289C44.0756 9.90234 43.8802 9.33984 43.4896 8.94141C43.099 8.54297 42.5443 8.34375 41.8256 8.34375C41.1381 8.34375 40.6068 8.53125 40.2318 8.90625C39.8568 9.27344 39.6693 9.79688 39.6693 10.4766L39.4232 7.95703C39.7904 7.20703 40.2513 6.63672 40.806 6.24609C41.3685 5.85547 42.0287 5.66016 42.7865 5.66016C44.0834 5.66016 45.0873 6.09375 45.7982 6.96094C46.517 7.82031 46.8763 9.03906 46.8763 10.6172V18H44.0756V10.6289ZM55.3724 18.1758C54.224 18.1758 53.2435 17.9648 52.431 17.543C51.6185 17.1211 50.9974 16.5039 50.5677 15.6914C50.1381 14.8711 49.9232 13.8828 49.9232 12.7266V11.3555C49.9232 10.1523 50.1263 9.125 50.5326 8.27344C50.9467 7.42188 51.5443 6.77344 52.3256 6.32812C53.1146 5.88281 54.0599 5.66016 55.1615 5.66016C56.2006 5.66016 57.0873 5.92187 57.8217 6.44531C58.5638 6.96094 59.1263 7.71094 59.5092 8.69531C59.8998 9.67969 60.0951 10.8672 60.0951 12.2578V13.0547H51.8334V11.0039H57.4935L57.4818 10.875C57.4037 10.0234 57.1654 9.36328 56.767 8.89453C56.3685 8.42578 55.8334 8.19141 55.1615 8.19141C54.3177 8.19141 53.6654 8.45703 53.2045 8.98828C52.7435 9.51172 52.5131 10.2578 52.5131 11.2266V12.7734C52.5131 13.6953 52.7631 14.4062 53.2631 14.9062C53.7631 15.3984 54.4662 15.6445 55.3724 15.6445C55.8334 15.6445 56.2865 15.5586 56.7318 15.3867C57.1849 15.207 57.5912 14.9609 57.9506 14.6484L59.7787 16.3594C59.1615 16.9375 58.4662 17.3867 57.6927 17.707C56.9271 18.0195 56.1537 18.1758 55.3724 18.1758ZM72.2123 2.35547H75.0013V18H72.2123V2.35547ZM67.4779 0.960938H79.7357V3.64453H67.4779V0.960938ZM84.9506 18.1758C83.8021 18.1758 82.8217 17.9648 82.0092 17.543C81.1967 17.1211 80.5756 16.5039 80.1459 15.6914C79.7162 14.8711 79.5013 13.8828 79.5013 12.7266V11.3555C79.5013 10.1523 79.7045 9.125 80.1107 8.27344C80.5248 7.42188 81.1224 6.77344 81.9037 6.32812C82.6927 5.88281 83.6381 5.66016 84.7396 5.66016C85.7787 5.66016 86.6654 5.92187 87.3998 6.44531C88.142 6.96094 88.7045 7.71094 89.0873 8.69531C89.4779 9.67969 89.6732 10.8672 89.6732 12.2578V13.0547H81.4115V11.0039H87.0717L87.0599 10.875C86.9818 10.0234 86.7435 9.36328 86.3451 8.89453C85.9467 8.42578 85.4115 8.19141 84.7396 8.19141C83.8959 8.19141 83.2435 8.45703 82.7826 8.98828C82.3217 9.51172 82.0912 10.2578 82.0912 11.2266V12.7734C82.0912 13.6953 82.3412 14.4062 82.8412 14.9062C83.3412 15.3984 84.0443 15.6445 84.9506 15.6445C85.4115 15.6445 85.8646 15.5586 86.3099 15.3867C86.7631 15.207 87.1693 14.9609 87.5287 14.6484L89.3568 16.3594C88.7396 16.9375 88.0443 17.3867 87.2709 17.707C86.5052 18.0195 85.7318 18.1758 84.9506 18.1758ZM97.1967 18.1758C96.4701 18.1758 95.7787 18.1094 95.1224 17.9766C94.4662 17.8359 93.849 17.6328 93.2709 17.3672C92.7006 17.1016 92.1849 16.7773 91.724 16.3945L93.4232 14.2852C94.0404 14.7227 94.6693 15.0547 95.3099 15.2812C95.9584 15.5078 96.5873 15.6211 97.1967 15.6211C98.0482 15.6211 98.6927 15.5078 99.1302 15.2812C99.5756 15.0469 99.7982 14.7109 99.7982 14.2734C99.7982 13.9375 99.6888 13.6875 99.4701 13.5234C99.2513 13.3516 98.974 13.2344 98.6381 13.1719C98.3099 13.1094 97.8451 13.0508 97.2435 12.9961C97.142 12.9883 97.0365 12.9805 96.9271 12.9727C96.8177 12.9648 96.7123 12.9531 96.6107 12.9375C96.5795 12.9375 96.5482 12.9375 96.517 12.9375C96.4857 12.9297 96.4545 12.9258 96.4232 12.9258C95.5717 12.832 94.8724 12.7031 94.3256 12.5391C93.7787 12.3672 93.3177 12.043 92.9427 11.5664C92.5756 11.0898 92.392 10.4062 92.392 9.51562C92.392 8.67969 92.5756 7.97656 92.9427 7.40625C93.3177 6.82812 93.8646 6.39453 94.5834 6.10547C95.3021 5.80859 96.1849 5.66016 97.2318 5.66016C97.8568 5.66016 98.4662 5.72266 99.0599 5.84766C99.6537 5.96484 100.22 6.14062 100.759 6.375C101.306 6.60156 101.822 6.88672 102.306 7.23047L100.63 9.26953C100.06 8.92578 99.4818 8.66406 98.8959 8.48438C98.3177 8.30469 97.7552 8.21484 97.2084 8.21484C96.474 8.21484 95.9154 8.32031 95.5326 8.53125C95.1498 8.74219 94.9584 9.05469 94.9584 9.46875C94.9584 9.73438 95.0638 9.9375 95.2748 10.0781C95.4857 10.2188 95.7474 10.3164 96.0599 10.3711C96.3802 10.418 96.8412 10.4688 97.4427 10.5234C97.5052 10.5312 97.5638 10.5391 97.6185 10.5469C97.681 10.5469 97.7435 10.5508 97.806 10.5586C97.8295 10.5586 97.8568 10.5586 97.8881 10.5586C97.9193 10.5586 97.9506 10.5625 97.9818 10.5703C98.8802 10.6562 99.6263 10.7852 100.22 10.957C100.814 11.1289 101.318 11.4727 101.732 11.9883C102.146 12.4961 102.353 13.2383 102.353 14.2148C102.353 15.0742 102.158 15.8008 101.767 16.3945C101.376 16.9805 100.794 17.4258 100.021 17.7305C99.2552 18.0273 98.3138 18.1758 97.1967 18.1758ZM107.966 14.4258C107.966 14.7227 108.04 14.9531 108.189 15.1172C108.337 15.2734 108.548 15.3516 108.822 15.3516H109.654V18.0352H108.13C107.193 18.0352 106.462 17.7539 105.939 17.1914C105.423 16.6289 105.165 15.8359 105.165 14.8125V0.960938H107.966V14.4258ZM118.794 10.2891C118.794 9.60938 118.591 9.08203 118.185 8.70703C117.786 8.33203 117.22 8.14453 116.486 8.14453C116.017 8.14453 115.556 8.21875 115.103 8.36719C114.65 8.51562 114.244 8.72266 113.884 8.98828L112.021 7.41797C112.497 6.86328 113.122 6.43359 113.896 6.12891C114.669 5.81641 115.529 5.66016 116.474 5.66016C117.505 5.66016 118.388 5.83984 119.122 6.19922C119.857 6.55078 120.415 7.06641 120.798 7.74609C121.189 8.41797 121.384 9.23047 121.384 10.1836V18H118.794V10.2891ZM115.607 18.1758C114.208 18.1758 113.161 17.8672 112.466 17.25C111.771 16.625 111.423 15.6797 111.423 14.4141C111.423 13.2109 111.775 12.3086 112.478 11.707C113.181 11.1055 114.236 10.8047 115.642 10.8047H118.9L119.064 12.9844H115.654C115.099 12.9844 114.681 13.1016 114.4 13.3359C114.126 13.5703 113.99 13.9297 113.99 14.4141C113.99 14.9219 114.169 15.3008 114.529 15.5508C114.888 15.793 115.431 15.9141 116.158 15.9141C117.048 15.9141 117.708 15.8164 118.138 15.6211C118.576 15.4258 118.794 15.1211 118.794 14.707L119.04 16.4414C118.908 16.8242 118.673 17.1445 118.337 17.4023C118.009 17.6602 117.611 17.8555 117.142 17.9883C116.673 18.1133 116.161 18.1758 115.607 18.1758ZM137.158 18.1758C135.923 18.1758 134.849 17.9219 133.935 17.4141C133.029 16.8984 132.329 16.1641 131.837 15.2109C131.353 14.2578 131.111 13.1289 131.111 11.8242V7.14844C131.111 5.84375 131.353 4.71484 131.837 3.76172C132.329 2.80859 133.029 2.07422 133.935 1.55859C134.849 1.04297 135.923 0.785156 137.158 0.785156C138.181 0.785156 139.107 1.00391 139.935 1.44141C140.771 1.87891 141.462 2.51172 142.009 3.33984C142.564 4.16016 142.943 5.13281 143.146 6.25781H140.263C140.122 5.71094 139.9 5.23438 139.595 4.82812C139.29 4.41406 138.927 4.09766 138.505 3.87891C138.091 3.66016 137.642 3.55078 137.158 3.55078C136.509 3.55078 135.947 3.69922 135.47 3.99609C135.001 4.28516 134.638 4.69922 134.38 5.23828C134.122 5.77734 133.994 6.41406 133.994 7.14844V11.8242C133.994 12.5586 134.122 13.1953 134.38 13.7344C134.638 14.2734 135.001 14.6875 135.47 14.9766C135.947 15.2656 136.509 15.4102 137.158 15.4102C137.65 15.4102 138.103 15.3047 138.517 15.0938C138.939 14.8828 139.302 14.5742 139.607 14.168C139.911 13.7617 140.13 13.2734 140.263 12.7031H143.146C142.935 13.8281 142.552 14.8047 141.997 15.6328C141.451 16.4531 140.759 17.082 139.923 17.5195C139.095 17.957 138.173 18.1758 137.158 18.1758ZM152.872 10.2891C152.872 9.60938 152.669 9.08203 152.263 8.70703C151.865 8.33203 151.298 8.14453 150.564 8.14453C150.095 8.14453 149.634 8.21875 149.181 8.36719C148.728 8.51562 148.322 8.72266 147.962 8.98828L146.099 7.41797C146.576 6.86328 147.201 6.43359 147.974 6.12891C148.747 5.81641 149.607 5.66016 150.552 5.66016C151.583 5.66016 152.466 5.83984 153.201 6.19922C153.935 6.55078 154.494 7.06641 154.876 7.74609C155.267 8.41797 155.462 9.23047 155.462 10.1836V18H152.872V10.2891ZM149.685 18.1758C148.286 18.1758 147.24 17.8672 146.544 17.25C145.849 16.625 145.501 15.6797 145.501 14.4141C145.501 13.2109 145.853 12.3086 146.556 11.707C147.259 11.1055 148.314 10.8047 149.72 10.8047H152.978L153.142 12.9844H149.732C149.177 12.9844 148.759 13.1016 148.478 13.3359C148.204 13.5703 148.068 13.9297 148.068 14.4141C148.068 14.9219 148.247 15.3008 148.607 15.5508C148.966 15.793 149.509 15.9141 150.236 15.9141C151.126 15.9141 151.786 15.8164 152.216 15.6211C152.654 15.4258 152.872 15.1211 152.872 14.707L153.119 16.4414C152.986 16.8242 152.751 17.1445 152.415 17.4023C152.087 17.6602 151.689 17.8555 151.22 17.9883C150.751 18.1133 150.24 18.1758 149.685 18.1758ZM158.861 5.83594H161.779V18H158.861V5.83594ZM165.634 8.96484C165.447 8.76172 165.216 8.60938 164.943 8.50781C164.669 8.39844 164.353 8.34375 163.994 8.34375C163.29 8.34375 162.744 8.55469 162.353 8.97656C161.97 9.39062 161.779 9.96875 161.779 10.7109L161.533 7.95703C161.884 7.23047 162.341 6.66797 162.904 6.26953C163.474 5.86328 164.099 5.66016 164.779 5.66016C165.31 5.66016 165.79 5.74219 166.22 5.90625C166.65 6.0625 167.025 6.29688 167.345 6.60938L165.634 8.96484ZM173.579 18.1758C172.853 18.1758 172.161 18.1094 171.505 17.9766C170.849 17.8359 170.232 17.6328 169.654 17.3672C169.083 17.1016 168.568 16.7773 168.107 16.3945L169.806 14.2852C170.423 14.7227 171.052 15.0547 171.693 15.2812C172.341 15.5078 172.97 15.6211 173.579 15.6211C174.431 15.6211 175.076 15.5078 175.513 15.2812C175.958 15.0469 176.181 14.7109 176.181 14.2734C176.181 13.9375 176.072 13.6875 175.853 13.5234C175.634 13.3516 175.357 13.2344 175.021 13.1719C174.693 13.1094 174.228 13.0508 173.626 12.9961C173.525 12.9883 173.419 12.9805 173.31 12.9727C173.201 12.9648 173.095 12.9531 172.994 12.9375C172.962 12.9375 172.931 12.9375 172.9 12.9375C172.869 12.9297 172.837 12.9258 172.806 12.9258C171.954 12.832 171.255 12.7031 170.708 12.5391C170.161 12.3672 169.701 12.043 169.326 11.5664C168.958 11.0898 168.775 10.4062 168.775 9.51562C168.775 8.67969 168.958 7.97656 169.326 7.40625C169.701 6.82812 170.247 6.39453 170.966 6.10547C171.685 5.80859 172.568 5.66016 173.615 5.66016C174.24 5.66016 174.849 5.72266 175.443 5.84766C176.036 5.96484 176.603 6.14062 177.142 6.375C177.689 6.60156 178.204 6.88672 178.689 7.23047L177.013 9.26953C176.443 8.92578 175.865 8.66406 175.279 8.48438C174.701 8.30469 174.138 8.21484 173.591 8.21484C172.857 8.21484 172.298 8.32031 171.915 8.53125C171.533 8.74219 171.341 9.05469 171.341 9.46875C171.341 9.73438 171.447 9.9375 171.658 10.0781C171.869 10.2188 172.13 10.3164 172.443 10.3711C172.763 10.418 173.224 10.4688 173.826 10.5234C173.888 10.5312 173.947 10.5391 174.001 10.5469C174.064 10.5469 174.126 10.5508 174.189 10.5586C174.212 10.5586 174.24 10.5586 174.271 10.5586C174.302 10.5586 174.333 10.5625 174.365 10.5703C175.263 10.6562 176.009 10.7852 176.603 10.957C177.197 11.1289 177.701 11.4727 178.115 11.9883C178.529 12.4961 178.736 13.2383 178.736 14.2148C178.736 15.0742 178.54 15.8008 178.15 16.3945C177.759 16.9805 177.177 17.4258 176.404 17.7305C175.638 18.0273 174.697 18.1758 173.579 18.1758Z" fill="#171717"/>
</svg>
