<svg width="121" height="23" viewBox="0 0 121 23" fill="none" xmlns="http://www.w3.org/2000/svg">
<path d="M7.87244 18.1758C6.63806 18.1758 5.56384 17.9219 4.64978 17.4141C3.74353 16.8984 3.04431 16.1641 2.55212 15.2109C2.06775 14.2578 1.82556 13.1289 1.82556 11.8242V7.14844C1.82556 5.84375 2.06775 4.71484 2.55212 3.76172C3.04431 2.80859 3.74353 2.07422 4.64978 1.55859C5.56384 1.04297 6.63806 0.785156 7.87244 0.785156C8.89587 0.785156 9.82166 1.00391 10.6498 1.44141C11.4857 1.87891 12.1771 2.51172 12.724 3.33984C13.2787 4.16016 13.6576 5.13281 13.8607 6.25781H10.9779C10.8373 5.71094 10.6146 5.23438 10.3099 4.82812C10.0052 4.41406 9.64197 4.09766 9.22009 3.87891C8.80603 3.66016 8.35681 3.55078 7.87244 3.55078C7.224 3.55078 6.6615 3.69922 6.18494 3.99609C5.71619 4.28516 5.35291 4.69922 5.09509 5.23828C4.83728 5.77734 4.70837 6.41406 4.70837 7.14844V11.8242C4.70837 12.5586 4.83728 13.1953 5.09509 13.7344C5.35291 14.2734 5.71619 14.6875 6.18494 14.9766C6.6615 15.2656 7.224 15.4102 7.87244 15.4102C8.36462 15.4102 8.81775 15.3047 9.23181 15.0938C9.65369 14.8828 10.017 14.5742 10.3217 14.168C10.6263 13.7617 10.8451 13.2734 10.9779 12.7031H13.8607C13.6498 13.8281 13.267 14.8047 12.7123 15.6328C12.1654 16.4531 11.474 17.082 10.6381 17.5195C9.80994 17.957 8.88806 18.1758 7.87244 18.1758ZM19.6029 14.4258C19.6029 14.7227 19.6771 14.9531 19.8256 15.1172C19.974 15.2734 20.1849 15.3516 20.4584 15.3516H21.2904V18.0352H19.767C18.8295 18.0352 18.099 17.7539 17.5756 17.1914C17.0599 16.6289 16.8021 15.8359 16.8021 14.8125V0.960938H19.6029V14.4258ZM28.5443 18.1758C27.4662 18.1758 26.5404 17.9688 25.767 17.5547C25.0013 17.1406 24.4154 16.5391 24.0092 15.75C23.6107 14.9531 23.4115 13.9961 23.4115 12.8789V10.8984C23.4115 9.79688 23.6107 8.85547 24.0092 8.07422C24.4154 7.28516 25.0013 6.6875 25.767 6.28125C26.5404 5.86719 27.4662 5.66016 28.5443 5.66016C29.6224 5.66016 30.5443 5.86719 31.3099 6.28125C32.0834 6.6875 32.6693 7.28516 33.0677 8.07422C33.474 8.85547 33.6771 9.79688 33.6771 10.8984V12.9141C33.6771 14.0234 33.474 14.9727 33.0677 15.7617C32.6693 16.543 32.0834 17.1406 31.3099 17.5547C30.5443 17.9688 29.6224 18.1758 28.5443 18.1758ZM28.5443 15.4922C29.2865 15.4922 29.8607 15.2695 30.267 14.8242C30.6732 14.3711 30.8763 13.7344 30.8763 12.9141V10.8984C30.8763 10.0859 30.6732 9.45703 30.267 9.01172C29.8607 8.56641 29.2865 8.34375 28.5443 8.34375C27.8021 8.34375 27.2279 8.56641 26.8217 9.01172C26.4154 9.45703 26.2123 10.0859 26.2123 10.8984V12.9141C26.2123 13.7344 26.4115 14.3711 26.8099 14.8242C27.2162 15.2695 27.7943 15.4922 28.5443 15.4922ZM36.8412 5.83594H39.642V18H36.8412V5.83594ZM44.0482 10.6289C44.0482 9.90234 43.8529 9.33984 43.4623 8.94141C43.0717 8.54297 42.517 8.34375 41.7982 8.34375C41.1107 8.34375 40.5795 8.53125 40.2045 8.90625C39.8295 9.27344 39.642 9.79688 39.642 10.4766L39.3959 7.95703C39.7631 7.20703 40.224 6.63672 40.7787 6.24609C41.3412 5.85547 42.0013 5.66016 42.7592 5.66016C44.056 5.66016 45.0599 6.09375 45.7709 6.96094C46.4896 7.82031 46.849 9.03906 46.849 10.6172V18H44.0482V10.6289ZM55.3451 18.1758C54.1967 18.1758 53.2162 17.9648 52.4037 17.543C51.5912 17.1211 50.9701 16.5039 50.5404 15.6914C50.1107 14.8711 49.8959 13.8828 49.8959 12.7266V11.3555C49.8959 10.1523 50.099 9.125 50.5052 8.27344C50.9193 7.42188 51.517 6.77344 52.2982 6.32812C53.0873 5.88281 54.0326 5.66016 55.1342 5.66016C56.1732 5.66016 57.0599 5.92187 57.7943 6.44531C58.5365 6.96094 59.099 7.71094 59.4818 8.69531C59.8724 9.67969 60.0677 10.8672 60.0677 12.2578V13.0547H51.806V11.0039H57.4662L57.4545 10.875C57.3763 10.0234 57.1381 9.36328 56.7396 8.89453C56.3412 8.42578 55.806 8.19141 55.1342 8.19141C54.2904 8.19141 53.6381 8.45703 53.1771 8.98828C52.7162 9.51172 52.4857 10.2578 52.4857 11.2266V12.7734C52.4857 13.6953 52.7357 14.4062 53.2357 14.9062C53.7357 15.3984 54.4388 15.6445 55.3451 15.6445C55.806 15.6445 56.2592 15.5586 56.7045 15.3867C57.1576 15.207 57.5638 14.9609 57.9232 14.6484L59.7513 16.3594C59.1342 16.9375 58.4388 17.3867 57.6654 17.707C56.8998 18.0195 56.1263 18.1758 55.3451 18.1758ZM69.7943 0.960938H72.5951V18H69.7943V0.960938ZM71.1068 15.3164H80.974V18H71.1068V15.3164ZM88.099 18.1758C87.0209 18.1758 86.0951 17.9688 85.3217 17.5547C84.556 17.1406 83.9701 16.5391 83.5638 15.75C83.1654 14.9531 82.9662 13.9961 82.9662 12.8789V10.8984C82.9662 9.79688 83.1654 8.85547 83.5638 8.07422C83.9701 7.28516 84.556 6.6875 85.3217 6.28125C86.0951 5.86719 87.0209 5.66016 88.099 5.66016C89.1771 5.66016 90.099 5.86719 90.8646 6.28125C91.6381 6.6875 92.224 7.28516 92.6224 8.07422C93.0287 8.85547 93.2318 9.79688 93.2318 10.8984V12.9141C93.2318 14.0234 93.0287 14.9727 92.6224 15.7617C92.224 16.543 91.6381 17.1406 90.8646 17.5547C90.099 17.9688 89.1771 18.1758 88.099 18.1758ZM88.099 15.4922C88.8412 15.4922 89.4154 15.2695 89.8217 14.8242C90.2279 14.3711 90.431 13.7344 90.431 12.9141V10.8984C90.431 10.0859 90.2279 9.45703 89.8217 9.01172C89.4154 8.56641 88.8412 8.34375 88.099 8.34375C87.3568 8.34375 86.7826 8.56641 86.3763 9.01172C85.9701 9.45703 85.767 10.0859 85.767 10.8984V12.9141C85.767 13.7344 85.9662 14.3711 86.3646 14.8242C86.7709 15.2695 87.349 15.4922 88.099 15.4922ZM99.1967 14.4258C99.1967 14.7227 99.2709 14.9531 99.4193 15.1172C99.5677 15.2734 99.7787 15.3516 100.052 15.3516H100.884V18.0352H99.3607C98.4232 18.0352 97.6927 17.7539 97.1693 17.1914C96.6537 16.6289 96.3959 15.8359 96.3959 14.8125V0.960938H99.1967V14.4258ZM101.716 20.2617H102.759C103.017 20.2617 103.216 20.1797 103.357 20.0156C103.497 19.8594 103.568 19.6328 103.568 19.3359V5.83594H106.369V19.7227C106.369 20.7461 106.107 21.5391 105.583 22.1016C105.068 22.6641 104.341 22.9453 103.404 22.9453H101.716V20.2617ZM103.544 0.960938H106.392V3.76172H103.544V0.960938ZM116.587 10.2891C116.587 9.60938 116.384 9.08203 115.978 8.70703C115.579 8.33203 115.013 8.14453 114.279 8.14453C113.81 8.14453 113.349 8.21875 112.896 8.36719C112.443 8.51562 112.036 8.72266 111.677 8.98828L109.814 7.41797C110.29 6.86328 110.915 6.43359 111.689 6.12891C112.462 5.81641 113.322 5.66016 114.267 5.66016C115.298 5.66016 116.181 5.83984 116.915 6.19922C117.65 6.55078 118.208 7.06641 118.591 7.74609C118.982 8.41797 119.177 9.23047 119.177 10.1836V18H116.587V10.2891ZM113.4 18.1758C112.001 18.1758 110.954 17.8672 110.259 17.25C109.564 16.625 109.216 15.6797 109.216 14.4141C109.216 13.2109 109.568 12.3086 110.271 11.707C110.974 11.1055 112.029 10.8047 113.435 10.8047H116.693L116.857 12.9844H113.447C112.892 12.9844 112.474 13.1016 112.193 13.3359C111.919 13.5703 111.783 13.9297 111.783 14.4141C111.783 14.9219 111.962 15.3008 112.322 15.5508C112.681 15.793 113.224 15.9141 113.951 15.9141C114.841 15.9141 115.501 15.8164 115.931 15.6211C116.369 15.4258 116.587 15.1211 116.587 14.707L116.833 16.4414C116.701 16.8242 116.466 17.1445 116.13 17.4023C115.802 17.6602 115.404 17.8555 114.935 17.9883C114.466 18.1133 113.954 18.1758 113.4 18.1758Z" fill="#171717"/>
</svg>
