<svg width="146" height="19" viewBox="0 0 146 19" fill="none" xmlns="http://www.w3.org/2000/svg">
<path d="M7.66931 18.1758C6.849 18.1758 6.05994 18.0977 5.30212 17.9414C4.55212 17.7773 3.84509 17.5391 3.18103 17.2266C2.52478 16.9141 1.92322 16.5273 1.37634 16.0664L2.86462 13.8281C3.52087 14.3828 4.25525 14.8047 5.06775 15.0938C5.88806 15.375 6.75525 15.5156 7.66931 15.5156C8.80994 15.5156 9.69275 15.3125 10.3177 14.9062C10.9506 14.5 11.267 13.9258 11.267 13.1836V13.1719C11.267 12.6484 11.1263 12.2344 10.8451 11.9297C10.5638 11.6172 10.1967 11.3906 9.74353 11.25C9.29041 11.1016 8.70837 10.9648 7.99744 10.8398C7.974 10.832 7.95056 10.8281 7.92712 10.8281C7.90369 10.8281 7.88025 10.8242 7.85681 10.8164L7.64587 10.7812C6.50525 10.5938 5.56775 10.3711 4.83337 10.1133C4.099 9.85547 3.474 9.39453 2.95837 8.73047C2.44275 8.06641 2.18494 7.125 2.18494 5.90625V5.89453C2.18494 4.81641 2.42712 3.89453 2.9115 3.12891C3.39587 2.36328 4.099 1.78125 5.02087 1.38281C5.94275 0.984375 7.05212 0.785156 8.349 0.785156C8.95837 0.785156 9.56775 0.855469 10.1771 0.996094C10.7943 1.12891 11.3959 1.32812 11.9818 1.59375C12.5756 1.85156 13.1498 2.17578 13.7045 2.56641L12.3451 4.875C11.6888 4.40625 11.0209 4.05078 10.3412 3.80859C9.6615 3.56641 8.99744 3.44531 8.349 3.44531C7.27087 3.44531 6.43494 3.64453 5.84119 4.04297C5.25525 4.43359 4.96228 4.98828 4.96228 5.70703V5.71875C4.96228 6.25781 5.11462 6.68359 5.41931 6.99609C5.724 7.30859 6.10291 7.53906 6.55603 7.6875C7.01697 7.82812 7.65759 7.98047 8.47791 8.14453C8.50916 8.15234 8.5365 8.16016 8.55994 8.16797C8.59119 8.16797 8.62244 8.17188 8.65369 8.17969C8.69275 8.1875 8.73572 8.19531 8.78259 8.20312C8.82947 8.21094 8.87244 8.21875 8.9115 8.22656C9.96619 8.4375 10.8451 8.69141 11.5482 8.98828C12.2592 9.28516 12.8529 9.76172 13.3295 10.418C13.806 11.0742 14.0443 11.9688 14.0443 13.1016V13.125C14.0443 14.1875 13.7943 15.0977 13.2943 15.8555C12.7943 16.6133 12.0677 17.1914 11.1146 17.5898C10.1615 17.9805 9.01306 18.1758 7.66931 18.1758ZM16.9037 0.960938H19.6927V3.76172H16.9037V0.960938ZM16.9037 5.83594H19.6927V18H16.9037V5.83594ZM27.4857 18.1758C26.7592 18.1758 26.0677 18.1094 25.4115 17.9766C24.7552 17.8359 24.1381 17.6328 23.5599 17.3672C22.9896 17.1016 22.474 16.7773 22.0131 16.3945L23.7123 14.2852C24.3295 14.7227 24.9584 15.0547 25.599 15.2812C26.2474 15.5078 26.8763 15.6211 27.4857 15.6211C28.3373 15.6211 28.9818 15.5078 29.4193 15.2812C29.8646 15.0469 30.0873 14.7109 30.0873 14.2734C30.0873 13.9375 29.9779 13.6875 29.7592 13.5234C29.5404 13.3516 29.2631 13.2344 28.9271 13.1719C28.599 13.1094 28.1342 13.0508 27.5326 12.9961C27.431 12.9883 27.3256 12.9805 27.2162 12.9727C27.1068 12.9648 27.0013 12.9531 26.8998 12.9375C26.8685 12.9375 26.8373 12.9375 26.806 12.9375C26.7748 12.9297 26.7435 12.9258 26.7123 12.9258C25.8607 12.832 25.1615 12.7031 24.6146 12.5391C24.0677 12.3672 23.6068 12.043 23.2318 11.5664C22.8646 11.0898 22.681 10.4062 22.681 9.51562C22.681 8.67969 22.8646 7.97656 23.2318 7.40625C23.6068 6.82812 24.1537 6.39453 24.8724 6.10547C25.5912 5.80859 26.474 5.66016 27.5209 5.66016C28.1459 5.66016 28.7552 5.72266 29.349 5.84766C29.9427 5.96484 30.5092 6.14062 31.0482 6.375C31.5951 6.60156 32.1107 6.88672 32.5951 7.23047L30.9193 9.26953C30.349 8.92578 29.7709 8.66406 29.1849 8.48438C28.6068 8.30469 28.0443 8.21484 27.4974 8.21484C26.7631 8.21484 26.2045 8.32031 25.8217 8.53125C25.4388 8.74219 25.2474 9.05469 25.2474 9.46875C25.2474 9.73438 25.3529 9.9375 25.5638 10.0781C25.7748 10.2188 26.0365 10.3164 26.349 10.3711C26.6693 10.418 27.1302 10.4688 27.7318 10.5234C27.7943 10.5312 27.8529 10.5391 27.9076 10.5469C27.9701 10.5469 28.0326 10.5508 28.0951 10.5586C28.1185 10.5586 28.1459 10.5586 28.1771 10.5586C28.2084 10.5586 28.2396 10.5625 28.2709 10.5703C29.1693 10.6562 29.9154 10.7852 30.5092 10.957C31.1029 11.1289 31.6068 11.4727 32.0209 11.9883C32.4349 12.4961 32.642 13.2383 32.642 14.2148C32.642 15.0742 32.4467 15.8008 32.056 16.3945C31.6654 16.9805 31.0834 17.4258 30.3099 17.7305C29.5443 18.0273 28.6029 18.1758 27.4857 18.1758ZM38.7357 18.0586C37.7123 18.0586 36.9623 17.7891 36.4857 17.25C36.0092 16.7031 35.7709 15.8984 35.7709 14.8359V2.29688H38.5717V14.4492C38.5717 14.7461 38.6302 14.9766 38.7474 15.1406C38.8646 15.2969 39.0365 15.375 39.2631 15.375H40.2357V18.0586H38.7357ZM34.517 5.83594H40.2357V8.28516H34.517V5.83594ZM48.3802 18.1758C47.2318 18.1758 46.2513 17.9648 45.4388 17.543C44.6263 17.1211 44.0052 16.5039 43.5756 15.6914C43.1459 14.8711 42.931 13.8828 42.931 12.7266V11.3555C42.931 10.1523 43.1342 9.125 43.5404 8.27344C43.9545 7.42188 44.5521 6.77344 45.3334 6.32812C46.1224 5.88281 47.0677 5.66016 48.1693 5.66016C49.2084 5.66016 50.0951 5.92187 50.8295 6.44531C51.5717 6.96094 52.1342 7.71094 52.517 8.69531C52.9076 9.67969 53.1029 10.8672 53.1029 12.2578V13.0547H44.8412V11.0039H50.5013L50.4896 10.875C50.4115 10.0234 50.1732 9.36328 49.7748 8.89453C49.3763 8.42578 48.8412 8.19141 48.1693 8.19141C47.3256 8.19141 46.6732 8.45703 46.2123 8.98828C45.7513 9.51172 45.5209 10.2578 45.5209 11.2266V12.7734C45.5209 13.6953 45.7709 14.4062 46.2709 14.9062C46.7709 15.3984 47.474 15.6445 48.3802 15.6445C48.8412 15.6445 49.2943 15.5586 49.7396 15.3867C50.1927 15.207 50.599 14.9609 50.9584 14.6484L52.7865 16.3594C52.1693 16.9375 51.474 17.3867 50.7006 17.707C49.9349 18.0195 49.1615 18.1758 48.3802 18.1758ZM70.5052 10.8047C70.5052 10.0156 70.3099 9.41016 69.9193 8.98828C69.5287 8.55859 68.974 8.34375 68.2552 8.34375C67.5756 8.34375 67.0482 8.55078 66.6732 8.96484C66.306 9.37109 66.1224 9.95312 66.1224 10.7109L65.5834 8.13281C65.9662 7.34375 66.4662 6.73438 67.0834 6.30469C67.7084 5.875 68.3998 5.66016 69.1576 5.66016C70.0326 5.66016 70.7787 5.85938 71.3959 6.25781C72.0209 6.65625 72.4935 7.24219 72.8138 8.01562C73.142 8.78125 73.306 9.70703 73.306 10.793V18H70.5052V10.8047ZM56.1498 5.83594H58.9506V18H56.1498V5.83594ZM63.3334 10.8047C63.3334 10.0156 63.1381 9.41016 62.7474 8.98828C62.3646 8.55859 61.8177 8.34375 61.1068 8.34375C60.4193 8.34375 59.8881 8.53125 59.5131 8.90625C59.1381 9.27344 58.9506 9.79688 58.9506 10.4766L58.7045 7.95703C59.0717 7.21484 59.5404 6.64844 60.1107 6.25781C60.681 5.85938 61.3334 5.66016 62.0677 5.66016C62.9193 5.66016 63.6498 5.85938 64.2592 6.25781C64.8685 6.65625 65.3295 7.24219 65.642 8.01562C65.9623 8.78125 66.1224 9.70703 66.1224 10.793V18H63.3334V10.8047ZM83.4896 10.2891C83.4896 9.60938 83.2865 9.08203 82.8802 8.70703C82.4818 8.33203 81.9154 8.14453 81.181 8.14453C80.7123 8.14453 80.2513 8.21875 79.7982 8.36719C79.3451 8.51562 78.9388 8.72266 78.5795 8.98828L76.7162 7.41797C77.1927 6.86328 77.8177 6.43359 78.5912 6.12891C79.3646 5.81641 80.224 5.66016 81.1693 5.66016C82.2006 5.66016 83.0834 5.83984 83.8177 6.19922C84.5521 6.55078 85.1107 7.06641 85.4935 7.74609C85.8842 8.41797 86.0795 9.23047 86.0795 10.1836V18H83.4896V10.2891ZM80.3021 18.1758C78.9037 18.1758 77.8568 17.8672 77.1615 17.25C76.4662 16.625 76.1185 15.6797 76.1185 14.4141C76.1185 13.2109 76.4701 12.3086 77.1732 11.707C77.8763 11.1055 78.931 10.8047 80.3373 10.8047H83.5951L83.7592 12.9844H80.349C79.7943 12.9844 79.3763 13.1016 79.0951 13.3359C78.8217 13.5703 78.6849 13.9297 78.6849 14.4141C78.6849 14.9219 78.8646 15.3008 79.224 15.5508C79.5834 15.793 80.1263 15.9141 80.8529 15.9141C81.7435 15.9141 82.4037 15.8164 82.8334 15.6211C83.2709 15.4258 83.4896 15.1211 83.4896 14.707L83.7357 16.4414C83.6029 16.8242 83.3685 17.1445 83.0326 17.4023C82.7045 17.6602 82.306 17.8555 81.8373 17.9883C81.3685 18.1133 80.8568 18.1758 80.3021 18.1758ZM101.853 18.1758C100.619 18.1758 99.5443 17.9219 98.6302 17.4141C97.724 16.8984 97.0248 16.1641 96.5326 15.2109C96.0482 14.2578 95.806 13.1289 95.806 11.8242V7.14844C95.806 5.84375 96.0482 4.71484 96.5326 3.76172C97.0248 2.80859 97.724 2.07422 98.6302 1.55859C99.5443 1.04297 100.619 0.785156 101.853 0.785156C102.876 0.785156 103.802 1.00391 104.63 1.44141C105.466 1.87891 106.158 2.51172 106.704 3.33984C107.259 4.16016 107.638 5.13281 107.841 6.25781H104.958C104.818 5.71094 104.595 5.23438 104.29 4.82812C103.986 4.41406 103.622 4.09766 103.201 3.87891C102.786 3.66016 102.337 3.55078 101.853 3.55078C101.204 3.55078 100.642 3.69922 100.165 3.99609C99.6967 4.28516 99.3334 4.69922 99.0756 5.23828C98.8177 5.77734 98.6888 6.41406 98.6888 7.14844V11.8242C98.6888 12.5586 98.8177 13.1953 99.0756 13.7344C99.3334 14.2734 99.6967 14.6875 100.165 14.9766C100.642 15.2656 101.204 15.4102 101.853 15.4102C102.345 15.4102 102.798 15.3047 103.212 15.0938C103.634 14.8828 103.997 14.5742 104.302 14.168C104.607 13.7617 104.826 13.2734 104.958 12.7031H107.841C107.63 13.8281 107.247 14.8047 106.693 15.6328C106.146 16.4531 105.454 17.082 104.619 17.5195C103.79 17.957 102.869 18.1758 101.853 18.1758ZM110.783 5.83594H113.701V18H110.783V5.83594ZM117.556 8.96484C117.369 8.76172 117.138 8.60938 116.865 8.50781C116.591 8.39844 116.275 8.34375 115.915 8.34375C115.212 8.34375 114.665 8.55469 114.275 8.97656C113.892 9.39062 113.701 9.96875 113.701 10.7109L113.454 7.95703C113.806 7.23047 114.263 6.66797 114.826 6.26953C115.396 5.86328 116.021 5.66016 116.701 5.66016C117.232 5.66016 117.712 5.74219 118.142 5.90625C118.572 6.0625 118.947 6.29688 119.267 6.60938L117.556 8.96484ZM128.185 5.83594H130.974V18H128.185V5.83594ZM123.826 13.2305C123.826 13.9492 124.017 14.5078 124.4 14.9062C124.783 15.2969 125.322 15.4922 126.017 15.4922C126.712 15.4922 127.247 15.3086 127.622 14.9414C127.997 14.5664 128.185 14.0312 128.185 13.3359L128.349 15.9375C128.115 16.5703 127.724 17.1016 127.177 17.5312C126.63 17.9609 125.962 18.1758 125.173 18.1758C123.853 18.1758 122.829 17.75 122.103 16.8984C121.384 16.0469 121.025 14.8438 121.025 13.2891V5.83594H123.826V13.2305ZM141.122 0.960938H143.923V18H141.122V0.960938ZM138.181 18.1992C137.306 18.1992 136.556 18 135.931 17.6016C135.314 17.1953 134.841 16.6133 134.513 15.8555C134.193 15.0898 134.033 14.168 134.033 13.0898V10.7695C134.033 9.69141 134.193 8.76953 134.513 8.00391C134.833 7.23047 135.298 6.64453 135.908 6.24609C136.525 5.83984 137.263 5.63672 138.122 5.63672C138.81 5.63672 139.435 5.82812 139.997 6.21094C140.568 6.59375 141.025 7.13281 141.369 7.82812L141.122 10.418C141.122 9.94922 141.04 9.55078 140.876 9.22266C140.712 8.89453 140.474 8.64453 140.161 8.47266C139.849 8.30078 139.47 8.21484 139.025 8.21484C138.329 8.21484 137.79 8.44141 137.408 8.89453C137.025 9.34766 136.833 9.98047 136.833 10.793V13.0898C136.833 13.8945 137.025 14.5195 137.408 14.9648C137.79 15.4023 138.329 15.6211 139.025 15.6211C139.47 15.6211 139.849 15.5352 140.161 15.3633C140.474 15.1836 140.712 14.9297 140.876 14.6016C141.04 14.2734 141.122 13.8789 141.122 13.418L141.286 16.0898C141.044 16.7227 140.654 17.2344 140.115 17.625C139.583 18.0078 138.939 18.1992 138.181 18.1992Z" fill="#171717"/>
</svg>
