<svg width="201" height="20" viewBox="0 0 201 20" fill="none" xmlns="http://www.w3.org/2000/svg">
<path d="M3.80212 15.8516H8.82947C9.80603 15.8516 10.5326 15.6484 11.0092 15.2422C11.4857 14.8281 11.724 14.2539 11.724 13.5195V13.4844C11.724 12.9766 11.6302 12.543 11.4427 12.1836C11.2552 11.8242 10.9662 11.5508 10.5756 11.3633C10.1849 11.168 9.70056 11.0703 9.12244 11.0703H3.80212V8.44531H9.12244C9.89587 8.44531 10.4857 8.25781 10.892 7.88281C11.2982 7.50781 11.5013 6.96484 11.5013 6.25391C11.5013 5.55078 11.2865 5.01953 10.8568 4.66016C10.4271 4.29297 9.79431 4.10938 8.95837 4.10938H3.80212V1.46094H9.22791C10.3295 1.46094 11.2592 1.64844 12.017 2.02344C12.7826 2.39062 13.3568 2.91797 13.7396 3.60547C14.1302 4.29297 14.3256 5.11719 14.3256 6.07812C14.3256 6.70312 14.2006 7.27344 13.9506 7.78906C13.7084 8.29688 13.3451 8.72266 12.8607 9.06641C12.3842 9.41016 11.7982 9.64453 11.1029 9.76953C11.8217 9.87109 12.4388 10.1094 12.9545 10.4844C13.4701 10.8516 13.8646 11.3242 14.1381 11.9023C14.4115 12.4727 14.5482 13.1133 14.5482 13.8242V13.8594C14.5482 14.8047 14.3412 15.6289 13.9271 16.332C13.5209 17.0273 12.931 17.5625 12.1576 17.9375C11.392 18.3125 10.4818 18.5 9.42712 18.5H3.80212V15.8516ZM2.39587 1.46094H5.18494V18.5H2.39587V1.46094ZM24.4388 10.7891C24.4388 10.1094 24.2357 9.58203 23.8295 9.20703C23.431 8.83203 22.8646 8.64453 22.1302 8.64453C21.6615 8.64453 21.2006 8.71875 20.7474 8.86719C20.2943 9.01562 19.8881 9.22266 19.5287 9.48828L17.6654 7.91797C18.142 7.36328 18.767 6.93359 19.5404 6.62891C20.3138 6.31641 21.1732 6.16016 22.1185 6.16016C23.1498 6.16016 24.0326 6.33984 24.767 6.69922C25.5013 7.05078 26.0599 7.56641 26.4427 8.24609C26.8334 8.91797 27.0287 9.73047 27.0287 10.6836V18.5H24.4388V10.7891ZM21.2513 18.6758C19.8529 18.6758 18.806 18.3672 18.1107 17.75C17.4154 17.125 17.0677 16.1797 17.0677 14.9141C17.0677 13.7109 17.4193 12.8086 18.1224 12.207C18.8256 11.6055 19.8802 11.3047 21.2865 11.3047H24.5443L24.7084 13.4844H21.2982C20.7435 13.4844 20.3256 13.6016 20.0443 13.8359C19.7709 14.0703 19.6342 14.4297 19.6342 14.9141C19.6342 15.4219 19.8138 15.8008 20.1732 16.0508C20.5326 16.293 21.0756 16.4141 21.8021 16.4141C22.6927 16.4141 23.3529 16.3164 23.7826 16.1211C24.2201 15.9258 24.4388 15.6211 24.4388 15.207L24.6849 16.9414C24.5521 17.3242 24.3177 17.6445 23.9818 17.9023C23.6537 18.1602 23.2552 18.3555 22.7865 18.4883C22.3177 18.6133 21.806 18.6758 21.2513 18.6758ZM30.4271 6.33594H33.2279V18.5H30.4271V6.33594ZM37.6342 11.1289C37.6342 10.4023 37.4388 9.83984 37.0482 9.44141C36.6576 9.04297 36.1029 8.84375 35.3842 8.84375C34.6967 8.84375 34.1654 9.03125 33.7904 9.40625C33.4154 9.77344 33.2279 10.2969 33.2279 10.9766L32.9818 8.45703C33.349 7.70703 33.8099 7.13672 34.3646 6.74609C34.9271 6.35547 35.5873 6.16016 36.3451 6.16016C37.642 6.16016 38.6459 6.59375 39.3568 7.46094C40.0756 8.32031 40.4349 9.53906 40.4349 11.1172V18.5H37.6342V11.1289ZM48.8607 18.6758C47.7279 18.6758 46.7592 18.4648 45.9545 18.043C45.1498 17.6133 44.5365 16.9922 44.1146 16.1797C43.6927 15.3594 43.4818 14.3711 43.4818 13.2148V11.5625C43.4818 10.4219 43.6927 9.44922 44.1146 8.64453C44.5365 7.83203 45.1498 7.21484 45.9545 6.79297C46.7592 6.37109 47.7279 6.16016 48.8607 6.16016C49.5092 6.16016 50.1185 6.23828 50.6888 6.39453C51.267 6.54297 51.7826 6.76172 52.2357 7.05078C52.6967 7.33984 53.0795 7.69141 53.3842 8.10547L51.4857 9.88672C51.1654 9.55078 50.7904 9.29297 50.3607 9.11328C49.931 8.93359 49.4818 8.84375 49.0131 8.84375C48.1459 8.84375 47.474 9.08203 46.9974 9.55859C46.5209 10.0273 46.2826 10.6953 46.2826 11.5625V13.2148C46.2826 14.1055 46.517 14.793 46.9857 15.2773C47.4623 15.7539 48.1381 15.9922 49.0131 15.9922C49.4896 15.9922 49.9427 15.8945 50.3724 15.6992C50.8021 15.5039 51.1732 15.2266 51.4857 14.8672L53.3842 16.7656C53.0717 17.1719 52.6849 17.5195 52.224 17.8086C51.7709 18.0898 51.2552 18.3047 50.6771 18.4531C50.1068 18.6016 49.5013 18.6758 48.8607 18.6758ZM60.5677 18.6758C59.4896 18.6758 58.5638 18.4688 57.7904 18.0547C57.0248 17.6406 56.4388 17.0391 56.0326 16.25C55.6342 15.4531 55.4349 14.4961 55.4349 13.3789V11.3984C55.4349 10.2969 55.6342 9.35547 56.0326 8.57422C56.4388 7.78516 57.0248 7.1875 57.7904 6.78125C58.5638 6.36719 59.4896 6.16016 60.5677 6.16016C61.6459 6.16016 62.5677 6.36719 63.3334 6.78125C64.1068 7.1875 64.6927 7.78516 65.0912 8.57422C65.4974 9.35547 65.7006 10.2969 65.7006 11.3984V13.4141C65.7006 14.5234 65.4974 15.4727 65.0912 16.2617C64.6927 17.043 64.1068 17.6406 63.3334 18.0547C62.5677 18.4688 61.6459 18.6758 60.5677 18.6758ZM60.5677 15.9922C61.3099 15.9922 61.8842 15.7695 62.2904 15.3242C62.6967 14.8711 62.8998 14.2344 62.8998 13.4141V11.3984C62.8998 10.5859 62.6967 9.95703 62.2904 9.51172C61.8842 9.06641 61.3099 8.84375 60.5677 8.84375C59.8256 8.84375 59.2513 9.06641 58.8451 9.51172C58.4388 9.95703 58.2357 10.5859 58.2357 11.3984V13.4141C58.2357 14.2344 58.4349 14.8711 58.8334 15.3242C59.2396 15.7695 59.8177 15.9922 60.5677 15.9922ZM77.1615 15.8164H81.1342C82.2904 15.8164 83.1849 15.5273 83.8177 14.9492C84.4584 14.3711 84.7787 13.5508 84.7787 12.4883V7.47266C84.7787 6.41016 84.4584 5.58984 83.8177 5.01172C83.1849 4.43359 82.2904 4.14453 81.1342 4.14453H77.1615V1.46094H81.0638C82.4545 1.46094 83.642 1.69922 84.6263 2.17578C85.6185 2.65234 86.3724 3.34766 86.8881 4.26172C87.4037 5.17578 87.6615 6.27734 87.6615 7.56641V12.3945C87.6615 13.6523 87.4076 14.7383 86.8998 15.6523C86.392 16.5664 85.642 17.2695 84.6498 17.7617C83.6654 18.2539 82.4662 18.5 81.0521 18.5H77.1615V15.8164ZM75.5443 1.46094H78.3451V18.5H75.5443V1.46094ZM96.1576 18.6758C95.0092 18.6758 94.0287 18.4648 93.2162 18.043C92.4037 17.6211 91.7826 17.0039 91.3529 16.1914C90.9232 15.3711 90.7084 14.3828 90.7084 13.2266V11.8555C90.7084 10.6523 90.9115 9.625 91.3177 8.77344C91.7318 7.92188 92.3295 7.27344 93.1107 6.82812C93.8998 6.38281 94.8451 6.16016 95.9467 6.16016C96.9857 6.16016 97.8724 6.42187 98.6068 6.94531C99.349 7.46094 99.9115 8.21094 100.294 9.19531C100.685 10.1797 100.88 11.3672 100.88 12.7578V13.5547H92.6185V11.5039H98.2787L98.267 11.375C98.1888 10.5234 97.9506 9.86328 97.5521 9.39453C97.1537 8.92578 96.6185 8.69141 95.9467 8.69141C95.1029 8.69141 94.4506 8.95703 93.9896 9.48828C93.5287 10.0117 93.2982 10.7578 93.2982 11.7266V13.2734C93.2982 14.1953 93.5482 14.9062 94.0482 15.4062C94.5482 15.8984 95.2513 16.1445 96.1576 16.1445C96.6185 16.1445 97.0717 16.0586 97.517 15.8867C97.9701 15.707 98.3763 15.4609 98.7357 15.1484L100.564 16.8594C99.9467 17.4375 99.2513 17.8867 98.4779 18.207C97.7123 18.5195 96.9388 18.6758 96.1576 18.6758ZM112.224 15.8164H116.197C117.353 15.8164 118.247 15.5273 118.88 14.9492C119.521 14.3711 119.841 13.5508 119.841 12.4883V7.47266C119.841 6.41016 119.521 5.58984 118.88 5.01172C118.247 4.43359 117.353 4.14453 116.197 4.14453H112.224V1.46094H116.126C117.517 1.46094 118.704 1.69922 119.689 2.17578C120.681 2.65234 121.435 3.34766 121.951 4.26172C122.466 5.17578 122.724 6.27734 122.724 7.56641V12.3945C122.724 13.6523 122.47 14.7383 121.962 15.6523C121.454 16.5664 120.704 17.2695 119.712 17.7617C118.728 18.2539 117.529 18.5 116.115 18.5H112.224V15.8164ZM110.607 1.46094H113.408V18.5H110.607V1.46094ZM132.908 10.7891C132.908 10.1094 132.704 9.58203 132.298 9.20703C131.9 8.83203 131.333 8.64453 130.599 8.64453C130.13 8.64453 129.669 8.71875 129.216 8.86719C128.763 9.01562 128.357 9.22266 127.997 9.48828L126.134 7.91797C126.611 7.36328 127.236 6.93359 128.009 6.62891C128.783 6.31641 129.642 6.16016 130.587 6.16016C131.619 6.16016 132.501 6.33984 133.236 6.69922C133.97 7.05078 134.529 7.56641 134.911 8.24609C135.302 8.91797 135.497 9.73047 135.497 10.6836V18.5H132.908V10.7891ZM129.72 18.6758C128.322 18.6758 127.275 18.3672 126.579 17.75C125.884 17.125 125.536 16.1797 125.536 14.9141C125.536 13.7109 125.888 12.8086 126.591 12.207C127.294 11.6055 128.349 11.3047 129.755 11.3047H133.013L133.177 13.4844H129.767C129.212 13.4844 128.794 13.6016 128.513 13.8359C128.24 14.0703 128.103 14.4297 128.103 14.9141C128.103 15.4219 128.283 15.8008 128.642 16.0508C129.001 16.293 129.544 16.4141 130.271 16.4141C131.161 16.4141 131.822 16.3164 132.251 16.1211C132.689 15.9258 132.908 15.6211 132.908 15.207L133.154 16.9414C133.021 17.3242 132.786 17.6445 132.451 17.9023C132.122 18.1602 131.724 18.3555 131.255 18.4883C130.786 18.6133 130.275 18.6758 129.72 18.6758ZM145.634 1.46094H148.435V18.5H145.634V1.46094ZM142.693 18.6992C141.818 18.6992 141.068 18.5 140.443 18.1016C139.826 17.6953 139.353 17.1133 139.025 16.3555C138.704 15.5898 138.544 14.668 138.544 13.5898V11.2695C138.544 10.1914 138.704 9.26953 139.025 8.50391C139.345 7.73047 139.81 7.14453 140.419 6.74609C141.036 6.33984 141.775 6.13672 142.634 6.13672C143.322 6.13672 143.947 6.32812 144.509 6.71094C145.079 7.09375 145.536 7.63281 145.88 8.32812L145.634 10.918C145.634 10.4492 145.552 10.0508 145.388 9.72266C145.224 9.39453 144.986 9.14453 144.673 8.97266C144.361 8.80078 143.982 8.71484 143.536 8.71484C142.841 8.71484 142.302 8.94141 141.919 9.39453C141.536 9.84766 141.345 10.4805 141.345 11.293V13.5898C141.345 14.3945 141.536 15.0195 141.919 15.4648C142.302 15.9023 142.841 16.1211 143.536 16.1211C143.982 16.1211 144.361 16.0352 144.673 15.8633C144.986 15.6836 145.224 15.4297 145.388 15.1016C145.552 14.7734 145.634 14.3789 145.634 13.918L145.798 16.5898C145.556 17.2227 145.165 17.7344 144.626 18.125C144.095 18.5078 143.451 18.6992 142.693 18.6992ZM156.615 18.6758C155.536 18.6758 154.611 18.4688 153.837 18.0547C153.072 17.6406 152.486 17.0391 152.079 16.25C151.681 15.4531 151.482 14.4961 151.482 13.3789V11.3984C151.482 10.2969 151.681 9.35547 152.079 8.57422C152.486 7.78516 153.072 7.1875 153.837 6.78125C154.611 6.36719 155.536 6.16016 156.615 6.16016C157.693 6.16016 158.615 6.36719 159.38 6.78125C160.154 7.1875 160.74 7.78516 161.138 8.57422C161.544 9.35547 161.747 10.2969 161.747 11.3984V13.4141C161.747 14.5234 161.544 15.4727 161.138 16.2617C160.74 17.043 160.154 17.6406 159.38 18.0547C158.615 18.4688 157.693 18.6758 156.615 18.6758ZM156.615 15.9922C157.357 15.9922 157.931 15.7695 158.337 15.3242C158.744 14.8711 158.947 14.2344 158.947 13.4141V11.3984C158.947 10.5859 158.744 9.95703 158.337 9.51172C157.931 9.06641 157.357 8.84375 156.615 8.84375C155.872 8.84375 155.298 9.06641 154.892 9.51172C154.486 9.95703 154.283 10.5859 154.283 11.3984V13.4141C154.283 14.2344 154.482 14.8711 154.88 15.3242C155.286 15.7695 155.865 15.9922 156.615 15.9922ZM169.388 18.6758C168.661 18.6758 167.97 18.6094 167.314 18.4766C166.658 18.3359 166.04 18.1328 165.462 17.8672C164.892 17.6016 164.376 17.2773 163.915 16.8945L165.615 14.7852C166.232 15.2227 166.861 15.5547 167.501 15.7812C168.15 16.0078 168.779 16.1211 169.388 16.1211C170.24 16.1211 170.884 16.0078 171.322 15.7812C171.767 15.5469 171.99 15.2109 171.99 14.7734C171.99 14.4375 171.88 14.1875 171.661 14.0234C171.443 13.8516 171.165 13.7344 170.829 13.6719C170.501 13.6094 170.036 13.5508 169.435 13.4961C169.333 13.4883 169.228 13.4805 169.119 13.4727C169.009 13.4648 168.904 13.4531 168.802 13.4375C168.771 13.4375 168.74 13.4375 168.708 13.4375C168.677 13.4297 168.646 13.4258 168.615 13.4258C167.763 13.332 167.064 13.2031 166.517 13.0391C165.97 12.8672 165.509 12.543 165.134 12.0664C164.767 11.5898 164.583 10.9062 164.583 10.0156C164.583 9.17969 164.767 8.47656 165.134 7.90625C165.509 7.32812 166.056 6.89453 166.775 6.60547C167.494 6.30859 168.376 6.16016 169.423 6.16016C170.048 6.16016 170.658 6.22266 171.251 6.34766C171.845 6.46484 172.411 6.64062 172.951 6.875C173.497 7.10156 174.013 7.38672 174.497 7.73047L172.822 9.76953C172.251 9.42578 171.673 9.16406 171.087 8.98438C170.509 8.80469 169.947 8.71484 169.4 8.71484C168.665 8.71484 168.107 8.82031 167.724 9.03125C167.341 9.24219 167.15 9.55469 167.15 9.96875C167.15 10.2344 167.255 10.4375 167.466 10.5781C167.677 10.7188 167.939 10.8164 168.251 10.8711C168.572 10.918 169.033 10.9688 169.634 11.0234C169.697 11.0312 169.755 11.0391 169.81 11.0469C169.872 11.0469 169.935 11.0508 169.997 11.0586C170.021 11.0586 170.048 11.0586 170.079 11.0586C170.111 11.0586 170.142 11.0625 170.173 11.0703C171.072 11.1562 171.818 11.2852 172.411 11.457C173.005 11.6289 173.509 11.9727 173.923 12.4883C174.337 12.9961 174.544 13.7383 174.544 14.7148C174.544 15.5742 174.349 16.3008 173.958 16.8945C173.568 17.4805 172.986 17.9258 172.212 18.2305C171.447 18.5273 170.505 18.6758 169.388 18.6758Z" fill="#171717"/>
<path d="M194.483 12.37C195.358 12.1308 196.118 11.5821 196.62 10.8256C197.122 10.0691 197.333 9.15617 197.213 8.25617C197.093 7.35616 196.651 6.53016 195.968 5.93138C195.286 5.33259 194.409 5.00168 193.501 5C192.604 4.99965 191.737 5.32099 191.056 5.9057C190.376 6.49041 189.927 7.29973 189.792 8.18677C189.658 9.07381 189.845 9.97976 190.322 10.7402C190.798 11.5006 191.531 12.0651 192.388 12.3312C193.221 11.7812 194.133 11.1938 194.831 10.7463C195.111 10.5663 195.435 10.89 195.256 11.1713L194.481 12.3713L194.483 12.37ZM194.751 8.75C194.751 9.08152 194.62 9.39946 194.385 9.63388C194.151 9.8683 193.833 10 193.501 10C193.17 10 192.852 9.8683 192.617 9.63388C192.383 9.39946 192.251 9.08152 192.251 8.75C192.251 8.41848 192.383 8.10054 192.617 7.86612C192.852 7.6317 193.17 7.5 193.501 7.5C193.833 7.5 194.151 7.6317 194.385 7.86612C194.62 8.10054 194.751 8.41848 194.751 8.75Z" fill="#171717"/>
<path d="M188.501 0C187.838 0 187.202 0.263392 186.734 0.732233C186.265 1.20107 186.001 1.83696 186.001 2.5V17.5C186.001 18.163 186.265 18.7989 186.734 19.2678C187.202 19.7366 187.838 20 188.501 20H198.501C199.164 20 199.8 19.7366 200.269 19.2678C200.738 18.7989 201.001 18.163 201.001 17.5V2.5C201.001 1.83696 200.738 1.20107 200.269 0.732233C199.8 0.263392 199.164 0 198.501 0L188.501 0ZM199.751 1.875C199.751 2.04076 199.685 2.19973 199.568 2.31694C199.451 2.43415 199.292 2.5 199.126 2.5C198.961 2.5 198.802 2.43415 198.684 2.31694C198.567 2.19973 198.501 2.04076 198.501 1.875C198.501 1.70924 198.567 1.55027 198.684 1.43306C198.802 1.31585 198.961 1.25 199.126 1.25C199.292 1.25 199.451 1.31585 199.568 1.43306C199.685 1.55027 199.751 1.70924 199.751 1.875ZM199.751 18.125C199.751 18.2908 199.685 18.4497 199.568 18.5669C199.451 18.6842 199.292 18.75 199.126 18.75C198.961 18.75 198.802 18.6842 198.684 18.5669C198.567 18.4497 198.501 18.2908 198.501 18.125C198.501 17.9592 198.567 17.8003 198.684 17.6831C198.802 17.5658 198.961 17.5 199.126 17.5C199.292 17.5 199.451 17.5658 199.568 17.6831C199.685 17.8003 199.751 17.9592 199.751 18.125ZM187.876 18.75C187.711 18.75 187.552 18.6842 187.434 18.5669C187.317 18.4497 187.251 18.2908 187.251 18.125C187.251 17.9592 187.317 17.8003 187.434 17.6831C187.552 17.5658 187.711 17.5 187.876 17.5C188.042 17.5 188.201 17.5658 188.318 17.6831C188.435 17.8003 188.501 17.9592 188.501 18.125C188.501 18.2908 188.435 18.4497 188.318 18.5669C188.201 18.6842 188.042 18.75 187.876 18.75ZM188.501 1.875C188.501 2.04076 188.435 2.19973 188.318 2.31694C188.201 2.43415 188.042 2.5 187.876 2.5C187.711 2.5 187.552 2.43415 187.434 2.31694C187.317 2.19973 187.251 2.04076 187.251 1.875C187.251 1.70924 187.317 1.55027 187.434 1.43306C187.552 1.31585 187.711 1.25 187.876 1.25C188.042 1.25 188.201 1.31585 188.318 1.43306C188.435 1.55027 188.501 1.70924 188.501 1.875ZM192.104 15.8463C191.845 16.1048 191.495 16.2502 191.129 16.2503C190.764 16.2504 190.413 16.1053 190.154 15.8469C189.896 15.5885 189.751 15.2379 189.75 14.8723C189.75 14.6913 189.786 14.512 189.855 14.3448C189.924 14.1775 190.026 14.0255 190.154 13.8975C190.279 13.775 190.649 13.505 191.148 13.1625C190.074 12.5899 189.246 11.6454 188.819 10.506C188.391 9.36659 188.394 8.11051 188.827 6.97314C189.26 5.83577 190.092 4.89519 191.168 4.32769C192.245 3.76018 193.491 3.6047 194.674 3.89038C195.857 4.17606 196.895 4.8833 197.594 5.87955C198.293 6.87579 198.604 8.09266 198.47 9.30209C198.336 10.5115 197.765 11.6305 196.865 12.4493C195.965 13.2681 194.797 13.7306 193.58 13.75C192.909 14.7662 192.305 15.6438 192.104 15.8463Z" fill="#171717"/>
</svg>
