<svg width="104" height="24" viewBox="0 0 104 24" fill="none" xmlns="http://www.w3.org/2000/svg">
<path d="M3.89587 15.8164H7.86853C9.02478 15.8164 9.91931 15.5273 10.5521 14.9492C11.1927 14.3711 11.5131 13.5508 11.5131 12.4883V7.47266C11.5131 6.41016 11.1927 5.58984 10.5521 5.01172C9.91931 4.43359 9.02478 4.14453 7.86853 4.14453H3.89587V1.46094H7.79822C9.18884 1.46094 10.3763 1.69922 11.3607 2.17578C12.3529 2.65234 13.1068 3.34766 13.6224 4.26172C14.1381 5.17578 14.3959 6.27734 14.3959 7.56641V12.3945C14.3959 13.6523 14.142 14.7383 13.6342 15.6523C13.1263 16.5664 12.3763 17.2695 11.3842 17.7617C10.3998 18.2539 9.20056 18.5 7.7865 18.5H3.89587V15.8164ZM2.27869 1.46094H5.07947V18.5H2.27869V1.46094ZM22.892 18.6758C21.7435 18.6758 20.7631 18.4648 19.9506 18.043C19.1381 17.6211 18.517 17.0039 18.0873 16.1914C17.6576 15.3711 17.4427 14.3828 17.4427 13.2266V11.8555C17.4427 10.6523 17.6459 9.625 18.0521 8.77344C18.4662 7.92188 19.0638 7.27344 19.8451 6.82812C20.6342 6.38281 21.5795 6.16016 22.681 6.16016C23.7201 6.16016 24.6068 6.42187 25.3412 6.94531C26.0834 7.46094 26.6459 8.21094 27.0287 9.19531C27.4193 10.1797 27.6146 11.3672 27.6146 12.7578V13.5547H19.3529V11.5039H25.0131L25.0013 11.375C24.9232 10.5234 24.6849 9.86328 24.2865 9.39453C23.8881 8.92578 23.3529 8.69141 22.681 8.69141C21.8373 8.69141 21.1849 8.95703 20.724 9.48828C20.2631 10.0117 20.0326 10.7578 20.0326 11.7266V13.2734C20.0326 14.1953 20.2826 14.9062 20.7826 15.4062C21.2826 15.8984 21.9857 16.1445 22.892 16.1445C23.3529 16.1445 23.806 16.0586 24.2513 15.8867C24.7045 15.707 25.1107 15.4609 25.4701 15.1484L27.2982 16.8594C26.681 17.4375 25.9857 17.8867 25.2123 18.207C24.4467 18.5195 23.6732 18.6758 22.892 18.6758ZM35.1381 18.6758C34.4115 18.6758 33.7201 18.6094 33.0638 18.4766C32.4076 18.3359 31.7904 18.1328 31.2123 17.8672C30.642 17.6016 30.1263 17.2773 29.6654 16.8945L31.3646 14.7852C31.9818 15.2227 32.6107 15.5547 33.2513 15.7812C33.8998 16.0078 34.5287 16.1211 35.1381 16.1211C35.9896 16.1211 36.6342 16.0078 37.0717 15.7812C37.517 15.5469 37.7396 15.2109 37.7396 14.7734C37.7396 14.4375 37.6302 14.1875 37.4115 14.0234C37.1927 13.8516 36.9154 13.7344 36.5795 13.6719C36.2513 13.6094 35.7865 13.5508 35.1849 13.4961C35.0834 13.4883 34.9779 13.4805 34.8685 13.4727C34.7592 13.4648 34.6537 13.4531 34.5521 13.4375C34.5209 13.4375 34.4896 13.4375 34.4584 13.4375C34.4271 13.4297 34.3959 13.4258 34.3646 13.4258C33.5131 13.332 32.8138 13.2031 32.267 13.0391C31.7201 12.8672 31.2592 12.543 30.8842 12.0664C30.517 11.5898 30.3334 10.9062 30.3334 10.0156C30.3334 9.17969 30.517 8.47656 30.8842 7.90625C31.2592 7.32812 31.806 6.89453 32.5248 6.60547C33.2435 6.30859 34.1263 6.16016 35.1732 6.16016C35.7982 6.16016 36.4076 6.22266 37.0013 6.34766C37.5951 6.46484 38.1615 6.64062 38.7006 6.875C39.2474 7.10156 39.7631 7.38672 40.2474 7.73047L38.5717 9.76953C38.0013 9.42578 37.4232 9.16406 36.8373 8.98438C36.2592 8.80469 35.6967 8.71484 35.1498 8.71484C34.4154 8.71484 33.8568 8.82031 33.474 9.03125C33.0912 9.24219 32.8998 9.55469 32.8998 9.96875C32.8998 10.2344 33.0052 10.4375 33.2162 10.5781C33.4271 10.7188 33.6888 10.8164 34.0013 10.8711C34.3217 10.918 34.7826 10.9688 35.3842 11.0234C35.4467 11.0312 35.5052 11.0391 35.5599 11.0469C35.6224 11.0469 35.6849 11.0508 35.7474 11.0586C35.7709 11.0586 35.7982 11.0586 35.8295 11.0586C35.8607 11.0586 35.892 11.0625 35.9232 11.0703C36.8217 11.1562 37.5677 11.2852 38.1615 11.457C38.7552 11.6289 39.2592 11.9727 39.6732 12.4883C40.0873 12.9961 40.2943 13.7383 40.2943 14.7148C40.2943 15.5742 40.099 16.3008 39.7084 16.8945C39.3177 17.4805 38.7357 17.9258 37.9623 18.2305C37.1967 18.5273 36.2552 18.6758 35.1381 18.6758ZM43.0248 1.46094H45.8138V4.26172H43.0248V1.46094ZM43.0248 6.33594H45.8138V18.5H43.0248V6.33594ZM53.3256 23.4453C52.3881 23.4453 51.5482 23.2734 50.806 22.9297C50.0638 22.5938 49.4857 22.1172 49.0717 21.5L50.9584 19.7773C51.2474 20.1445 51.5951 20.4258 52.0013 20.6211C52.4154 20.8164 52.8451 20.9141 53.2904 20.9141C54.0873 20.9141 54.7162 20.6953 55.1771 20.2578C55.6381 19.8281 55.8685 19.2188 55.8685 18.4297V6.33594H58.6693V18.1367C58.6693 19.2539 58.4584 20.2109 58.0365 21.0078C57.6224 21.8047 57.0131 22.4102 56.2084 22.8242C55.4115 23.2383 54.4506 23.4453 53.3256 23.4453ZM52.9271 18.6992C52.0521 18.6992 51.3021 18.5 50.6771 18.1016C50.0599 17.6953 49.5873 17.1133 49.2592 16.3555C48.9388 15.5898 48.7787 14.668 48.7787 13.5898V11.2695C48.7787 10.1914 48.9388 9.26953 49.2592 8.50391C49.5795 7.73047 50.0443 7.14453 50.6537 6.74609C51.2709 6.33984 52.0092 6.13672 52.8685 6.13672C53.556 6.13672 54.181 6.32812 54.7435 6.71094C55.3138 7.09375 55.7709 7.63281 56.1146 8.32812L55.8685 10.918C55.8685 10.4492 55.7865 10.0508 55.6224 9.72266C55.4584 9.39453 55.2201 9.14453 54.9076 8.97266C54.5951 8.80078 54.2162 8.71484 53.7709 8.71484C53.0756 8.71484 52.5365 8.94141 52.1537 9.39453C51.7709 9.84766 51.5795 10.4805 51.5795 11.293V13.5898C51.5795 14.3945 51.7709 15.0195 52.1537 15.4648C52.5365 15.9023 53.0756 16.1211 53.7709 16.1211C54.2162 16.1211 54.5951 16.0352 54.9076 15.8633C55.2201 15.6836 55.4584 15.4297 55.6224 15.1016C55.7865 14.7734 55.8685 14.3789 55.8685 13.918L56.0326 16.5898C55.7904 17.2227 55.3998 17.7344 54.8607 18.125C54.3295 18.5078 53.6849 18.6992 52.9271 18.6992ZM62.0677 6.33594H64.8685V18.5H62.0677V6.33594ZM69.2748 11.1289C69.2748 10.4023 69.0795 9.83984 68.6888 9.44141C68.2982 9.04297 67.7435 8.84375 67.0248 8.84375C66.3373 8.84375 65.806 9.03125 65.431 9.40625C65.056 9.77344 64.8685 10.2969 64.8685 10.9766L64.6224 8.45703C64.9896 7.70703 65.4506 7.13672 66.0052 6.74609C66.5677 6.35547 67.2279 6.16016 67.9857 6.16016C69.2826 6.16016 70.2865 6.59375 70.9974 7.46094C71.7162 8.32031 72.0756 9.53906 72.0756 11.1172V18.5H69.2748V11.1289Z" fill="#171717"/>
<path d="M99.5426 12.5875C101.668 13.2313 104.001 13.9375 104.001 10C104.001 8.02219 103.415 6.08879 102.316 4.4443C101.217 2.79981 99.6554 1.51809 97.8282 0.761209C96.0009 0.00433281 93.9903 -0.1937 92.0504 0.192152C90.1106 0.578004 88.3288 1.53041 86.9303 2.92894C85.5318 4.32746 84.5793 6.10929 84.1935 8.0491C83.8076 9.98891 84.0057 11.9996 84.7626 13.8268C85.5194 15.6541 86.8012 17.2159 88.4456 18.3147C90.0901 19.4135 92.0235 20 94.0013 20C96.4963 20 96.2838 18.12 96.0626 16.15C95.9076 14.7738 95.7476 13.3538 96.5013 12.5C97.0826 11.8413 98.2763 12.2038 99.5426 12.5875ZM94.0013 6.25C93.7551 6.25 93.5113 6.20151 93.2838 6.10728C93.0563 6.01305 92.8496 5.87494 92.6755 5.70083C92.5014 5.52672 92.3633 5.32002 92.2691 5.09254C92.1748 4.86505 92.1263 4.62123 92.1263 4.375C92.1263 4.12878 92.1748 3.88496 92.2691 3.65747C92.3633 3.42999 92.5014 3.22329 92.6755 3.04918C92.8496 2.87507 93.0563 2.73696 93.2838 2.64273C93.5113 2.5485 93.7551 2.5 94.0013 2.5C94.4986 2.5 94.9755 2.69755 95.3272 3.04918C95.6788 3.40081 95.8763 3.87772 95.8763 4.375C95.8763 4.87228 95.6788 5.3492 95.3272 5.70083C94.9755 6.05246 94.4986 6.25 94.0013 6.25ZM99.6263 10C99.1291 10 98.6522 9.80246 98.3005 9.45083C97.9489 9.0992 97.7513 8.62228 97.7513 8.125C97.7513 7.62772 97.9489 7.15081 98.3005 6.79918C98.6522 6.44755 99.1291 6.25 99.6263 6.25C100.124 6.25 100.601 6.44755 100.952 6.79918C101.304 7.15081 101.501 7.62772 101.501 8.125C101.501 8.62228 101.304 9.0992 100.952 9.45083C100.601 9.80246 100.124 10 99.6263 10ZM90.2513 8.125C90.2513 8.37123 90.2028 8.61505 90.1086 8.84253C90.0144 9.07002 89.8763 9.27672 89.7022 9.45083C89.5281 9.62494 89.3214 9.76305 89.0939 9.85728C88.8664 9.9515 88.6226 10 88.3763 10C88.1301 10 87.8863 9.9515 87.6588 9.85728C87.4313 9.76305 87.2246 9.62494 87.0505 9.45083C86.8764 9.27672 86.7383 9.07002 86.6441 8.84253C86.5498 8.61505 86.5013 8.37123 86.5013 8.125C86.5013 7.62772 86.6989 7.15081 87.0505 6.79918C87.4022 6.44755 87.8791 6.25 88.3763 6.25C88.8736 6.25 89.3505 6.44755 89.7022 6.79918C90.0538 7.15081 90.2513 7.62772 90.2513 8.125ZM90.8763 16.25C90.3791 16.25 89.9022 16.0525 89.5505 15.7008C89.1989 15.3492 89.0013 14.8723 89.0013 14.375C89.0013 13.8777 89.1989 13.4008 89.5505 13.0492C89.9022 12.6975 90.3791 12.5 90.8763 12.5C91.3736 12.5 91.8505 12.6975 92.2022 13.0492C92.5538 13.4008 92.7513 13.8777 92.7513 14.375C92.7513 14.8723 92.5538 15.3492 92.2022 15.7008C91.8505 16.0525 91.3736 16.25 90.8763 16.25Z" fill="#171717"/>
</svg>
