<svg width="128" height="30" viewBox="0 0 128 30" fill="none" xmlns="http://www.w3.org/2000/svg">
<path d="M4.86072 19.4219H10.1576C11.6993 19.4219 12.892 19.0365 13.7357 18.2656C14.5899 17.4948 15.017 16.401 15.017 14.9844V8.29688C15.017 6.88021 14.5899 5.78646 13.7357 5.01562C12.892 4.24479 11.6993 3.85938 10.1576 3.85938H4.86072V0.28125H10.0638C11.918 0.28125 13.5013 0.598958 14.8138 1.23438C16.1368 1.86979 17.142 2.79688 17.8295 4.01562C18.517 5.23438 18.8607 6.70312 18.8607 8.42188V14.8594C18.8607 16.5365 18.5222 17.9844 17.8451 19.2031C17.168 20.4219 16.168 21.3594 14.8451 22.0156C13.5326 22.6719 11.9336 23 10.0482 23H4.86072V19.4219ZM2.70447 0.28125H6.43884V23H2.70447V0.28125ZM30.1888 23.2344C28.6576 23.2344 27.3503 22.9531 26.267 22.3906C25.1836 21.8281 24.3555 21.0052 23.7826 19.9219C23.2097 18.8281 22.9232 17.5104 22.9232 15.9688V14.1406C22.9232 12.5365 23.1941 11.1667 23.7357 10.0312C24.2878 8.89583 25.0847 8.03125 26.1263 7.4375C27.1784 6.84375 28.4388 6.54688 29.9076 6.54688C31.293 6.54688 32.4753 6.89583 33.4545 7.59375C34.4441 8.28125 35.1941 9.28125 35.7045 10.5938C36.2253 11.9062 36.4857 13.4896 36.4857 15.3438V16.4062H25.4701V13.6719H33.017L33.0013 13.5C32.8972 12.3646 32.5795 11.4844 32.0482 10.8594C31.517 10.2344 30.8034 9.92188 29.9076 9.92188C28.7826 9.92188 27.9128 10.276 27.2982 10.9844C26.6836 11.6823 26.3763 12.6771 26.3763 13.9688V16.0312C26.3763 17.2604 26.7097 18.2083 27.3763 18.875C28.043 19.5312 28.9805 19.8594 30.1888 19.8594C30.8034 19.8594 31.4076 19.7448 32.0013 19.5156C32.6055 19.276 33.1472 18.9479 33.6263 18.5312L36.0638 20.8125C35.2409 21.5833 34.3138 22.1823 33.2826 22.6094C32.2618 23.026 31.2305 23.2344 30.1888 23.2344ZM46.517 23.2344C45.5482 23.2344 44.6263 23.1458 43.7513 22.9688C42.8763 22.7812 42.0534 22.5104 41.2826 22.1562C40.5222 21.8021 39.8347 21.3698 39.2201 20.8594L41.4857 18.0469C42.3086 18.6302 43.1472 19.0729 44.0013 19.375C44.8659 19.6771 45.7045 19.8281 46.517 19.8281C47.6524 19.8281 48.5118 19.6771 49.0951 19.375C49.6888 19.0625 49.9857 18.6146 49.9857 18.0312C49.9857 17.5833 49.8399 17.25 49.5482 17.0312C49.2566 16.8021 48.8868 16.6458 48.4388 16.5625C48.0013 16.4792 47.3816 16.401 46.5795 16.3281C46.4441 16.3177 46.3034 16.3073 46.1576 16.2969C46.0118 16.2865 45.8711 16.2708 45.7357 16.25C45.6941 16.25 45.6524 16.25 45.6107 16.25C45.5691 16.2396 45.5274 16.2344 45.4857 16.2344C44.3503 16.1094 43.418 15.9375 42.6888 15.7188C41.9597 15.4896 41.3451 15.0573 40.8451 14.4219C40.3555 13.7865 40.1107 12.875 40.1107 11.6875C40.1107 10.5729 40.3555 9.63542 40.8451 8.875C41.3451 8.10417 42.0743 7.52604 43.0326 7.14062C43.9909 6.74479 45.168 6.54688 46.5638 6.54688C47.3972 6.54688 48.2097 6.63021 49.0013 6.79688C49.793 6.95312 50.5482 7.1875 51.267 7.5C51.9961 7.80208 52.6836 8.18229 53.3295 8.64062L51.0951 11.3594C50.3347 10.901 49.5638 10.5521 48.7826 10.3125C48.0118 10.0729 47.2618 9.95312 46.5326 9.95312C45.5534 9.95312 44.8086 10.0938 44.2982 10.375C43.7878 10.6562 43.5326 11.0729 43.5326 11.625C43.5326 11.9792 43.6732 12.25 43.9545 12.4375C44.2357 12.625 44.5847 12.7552 45.0013 12.8281C45.4284 12.8906 46.043 12.9583 46.8451 13.0312C46.9284 13.0417 47.0066 13.0521 47.0795 13.0625C47.1628 13.0625 47.2461 13.0677 47.3295 13.0781C47.3607 13.0781 47.3972 13.0781 47.4388 13.0781C47.4805 13.0781 47.5222 13.0833 47.5638 13.0938C48.7618 13.2083 49.7566 13.3802 50.5482 13.6094C51.3399 13.8385 52.0118 14.2969 52.5638 14.9844C53.1159 15.6615 53.392 16.651 53.392 17.9531C53.392 19.099 53.1316 20.0677 52.6107 20.8594C52.0899 21.6406 51.3138 22.2344 50.2826 22.6406C49.2618 23.0365 48.0066 23.2344 46.517 23.2344ZM57.0326 0.28125H60.7513V4.01562H57.0326V0.28125ZM57.0326 6.78125H60.7513V23H57.0326V6.78125ZM70.767 29.5938C69.517 29.5938 68.3972 29.3646 67.4076 28.9062C66.418 28.4583 65.6472 27.8229 65.0951 27L67.6107 24.7031C67.9961 25.1927 68.4597 25.5677 69.0013 25.8281C69.5534 26.0885 70.1263 26.2188 70.7201 26.2188C71.7826 26.2188 72.6211 25.9271 73.2357 25.3438C73.8503 24.7708 74.1576 23.9583 74.1576 22.9062V6.78125H77.892V22.5156C77.892 24.0052 77.6107 25.2812 77.0482 26.3438C76.4961 27.4062 75.6836 28.2135 74.6107 28.7656C73.5482 29.3177 72.267 29.5938 70.767 29.5938ZM70.2357 23.2656C69.0691 23.2656 68.0691 23 67.2357 22.4688C66.4128 21.9271 65.7826 21.151 65.3451 20.1406C64.918 19.1198 64.7045 17.8906 64.7045 16.4531V13.3594C64.7045 11.9219 64.918 10.6927 65.3451 9.67188C65.7722 8.64062 66.392 7.85938 67.2045 7.32812C68.0274 6.78646 69.0118 6.51562 70.1576 6.51562C71.0743 6.51562 71.9076 6.77083 72.6576 7.28125C73.418 7.79167 74.0274 8.51042 74.4857 9.4375L74.1576 12.8906C74.1576 12.2656 74.0482 11.7344 73.8295 11.2969C73.6107 10.8594 73.293 10.526 72.8763 10.2969C72.4597 10.0677 71.9545 9.95312 71.3607 9.95312C70.4336 9.95312 69.7149 10.2552 69.2045 10.8594C68.6941 11.4635 68.4388 12.3073 68.4388 13.3906V16.4531C68.4388 17.526 68.6941 18.3594 69.2045 18.9531C69.7149 19.5365 70.4336 19.8281 71.3607 19.8281C71.9545 19.8281 72.4597 19.7135 72.8763 19.4844C73.293 19.2448 73.6107 18.9062 73.8295 18.4688C74.0482 18.0312 74.1576 17.5052 74.1576 16.8906L74.3763 20.4531C74.0534 21.2969 73.5326 21.9792 72.8138 22.5C72.1055 23.0104 71.2461 23.2656 70.2357 23.2656ZM82.4232 6.78125H86.1576V23H82.4232V6.78125ZM92.0326 13.1719C92.0326 12.2031 91.7722 11.4531 91.2513 10.9219C90.7305 10.3906 89.9909 10.125 89.0326 10.125C88.1159 10.125 87.4076 10.375 86.9076 10.875C86.4076 11.3646 86.1576 12.0625 86.1576 12.9688L85.8295 9.60938C86.3191 8.60938 86.9336 7.84896 87.6732 7.32812C88.4232 6.80729 89.3034 6.54688 90.3138 6.54688C92.043 6.54688 93.3816 7.125 94.3295 8.28125C95.2878 9.42708 95.767 11.0521 95.767 13.1562V23H92.0326V13.1719Z" fill="#171717"/>
<path d="M123.543 14.0875C125.668 14.7313 128.001 15.4375 128.001 11.5C128.001 9.52219 127.415 7.58879 126.316 5.9443C125.217 4.29981 123.655 3.01809 121.828 2.26121C120.001 1.50433 117.99 1.3063 116.05 1.69215C114.111 2.078 112.329 3.03041 110.93 4.42894C109.532 5.82746 108.579 7.60929 108.193 9.5491C107.808 11.4889 108.006 13.4996 108.763 15.3268C109.519 17.1541 110.801 18.7159 112.446 19.8147C114.09 20.9135 116.024 21.5 118.001 21.5C120.496 21.5 120.284 19.62 120.063 17.65C119.908 16.2738 119.748 14.8538 120.501 14C121.083 13.3413 122.276 13.7038 123.543 14.0875ZM118.001 7.75C117.755 7.75 117.511 7.70151 117.284 7.60728C117.056 7.51305 116.85 7.37494 116.676 7.20083C116.501 7.02672 116.363 6.82002 116.269 6.59254C116.175 6.36505 116.126 6.12123 116.126 5.875C116.126 5.62878 116.175 5.38496 116.269 5.15747C116.363 4.92999 116.501 4.72329 116.676 4.54918C116.85 4.37507 117.056 4.23696 117.284 4.14273C117.511 4.0485 117.755 4 118.001 4C118.499 4 118.976 4.19755 119.327 4.54918C119.679 4.90081 119.876 5.37772 119.876 5.875C119.876 6.37228 119.679 6.8492 119.327 7.20083C118.976 7.55246 118.499 7.75 118.001 7.75ZM123.626 11.5C123.129 11.5 122.652 11.3025 122.301 10.9508C121.949 10.5992 121.751 10.1223 121.751 9.625C121.751 9.12772 121.949 8.65081 122.301 8.29918C122.652 7.94755 123.129 7.75 123.626 7.75C124.124 7.75 124.601 7.94755 124.952 8.29918C125.304 8.65081 125.501 9.12772 125.501 9.625C125.501 10.1223 125.304 10.5992 124.952 10.9508C124.601 11.3025 124.124 11.5 123.626 11.5ZM114.251 9.625C114.251 9.87123 114.203 10.115 114.109 10.3425C114.014 10.57 113.876 10.7767 113.702 10.9508C113.528 11.1249 113.321 11.2631 113.094 11.3573C112.866 11.4515 112.623 11.5 112.376 11.5C112.13 11.5 111.886 11.4515 111.659 11.3573C111.431 11.2631 111.225 11.1249 111.051 10.9508C110.876 10.7767 110.738 10.57 110.644 10.3425C110.55 10.115 110.501 9.87123 110.501 9.625C110.501 9.12772 110.699 8.65081 111.051 8.29918C111.402 7.94755 111.879 7.75 112.376 7.75C112.874 7.75 113.351 7.94755 113.702 8.29918C114.054 8.65081 114.251 9.12772 114.251 9.625ZM114.876 17.75C114.379 17.75 113.902 17.5525 113.551 17.2008C113.199 16.8492 113.001 16.3723 113.001 15.875C113.001 15.3777 113.199 14.9008 113.551 14.5492C113.902 14.1975 114.379 14 114.876 14C115.374 14 115.851 14.1975 116.202 14.5492C116.554 14.9008 116.751 15.3777 116.751 15.875C116.751 16.3723 116.554 16.8492 116.202 17.2008C115.851 17.5525 115.374 17.75 114.876 17.75Z" fill="#171717"/>
</svg>
