<svg width="170" height="20" viewBox="0 0 170 20" fill="none" xmlns="http://www.w3.org/2000/svg">
<path d="M2.27869 1.46094H5.07947V18.5H2.27869V1.46094ZM3.45056 8.85547H11.9467V11.5273H3.45056V8.85547ZM3.45056 1.46094H13.2357V4.14453H3.45056V1.46094ZM20.5717 18.6758C19.4232 18.6758 18.4427 18.4648 17.6302 18.043C16.8177 17.6211 16.1967 17.0039 15.767 16.1914C15.3373 15.3711 15.1224 14.3828 15.1224 13.2266V11.8555C15.1224 10.6523 15.3256 9.625 15.7318 8.77344C16.1459 7.92188 16.7435 7.27344 17.5248 6.82812C18.3138 6.38281 19.2592 6.16016 20.3607 6.16016C21.3998 6.16016 22.2865 6.42187 23.0209 6.94531C23.7631 7.46094 24.3256 8.21094 24.7084 9.19531C25.099 10.1797 25.2943 11.3672 25.2943 12.7578V13.5547H17.0326V11.5039H22.6927L22.681 11.375C22.6029 10.5234 22.3646 9.86328 21.9662 9.39453C21.5677 8.92578 21.0326 8.69141 20.3607 8.69141C19.517 8.69141 18.8646 8.95703 18.4037 9.48828C17.9427 10.0117 17.7123 10.7578 17.7123 11.7266V13.2734C17.7123 14.1953 17.9623 14.9062 18.4623 15.4062C18.9623 15.8984 19.6654 16.1445 20.5717 16.1445C21.0326 16.1445 21.4857 16.0586 21.931 15.8867C22.3842 15.707 22.7904 15.4609 23.1498 15.1484L24.9779 16.8594C24.3607 17.4375 23.6654 17.8867 22.892 18.207C22.1263 18.5195 21.3529 18.6758 20.5717 18.6758ZM28.3412 6.33594H31.2592V18.5H28.3412V6.33594ZM35.1146 9.46484C34.9271 9.26172 34.6967 9.10938 34.4232 9.00781C34.1498 8.89844 33.8334 8.84375 33.474 8.84375C32.7709 8.84375 32.224 9.05469 31.8334 9.47656C31.4506 9.89062 31.2592 10.4688 31.2592 11.2109L31.0131 8.45703C31.3646 7.73047 31.8217 7.16797 32.3842 6.76953C32.9545 6.36328 33.5795 6.16016 34.2592 6.16016C34.7904 6.16016 35.2709 6.24219 35.7006 6.40625C36.1302 6.5625 36.5052 6.79688 36.8256 7.10938L35.1146 9.46484ZM38.5834 6.33594H41.5013V18.5H38.5834V6.33594ZM45.3568 9.46484C45.1693 9.26172 44.9388 9.10938 44.6654 9.00781C44.392 8.89844 44.0756 8.84375 43.7162 8.84375C43.0131 8.84375 42.4662 9.05469 42.0756 9.47656C41.6927 9.89062 41.5013 10.4688 41.5013 11.2109L41.2552 8.45703C41.6068 7.73047 42.0638 7.16797 42.6263 6.76953C43.1967 6.36328 43.8217 6.16016 44.5013 6.16016C45.0326 6.16016 45.5131 6.24219 45.9427 6.40625C46.3724 6.5625 46.7474 6.79688 47.0677 7.10938L45.3568 9.46484ZM55.6107 10.7891C55.6107 10.1094 55.4076 9.58203 55.0013 9.20703C54.6029 8.83203 54.0365 8.64453 53.3021 8.64453C52.8334 8.64453 52.3724 8.71875 51.9193 8.86719C51.4662 9.01562 51.0599 9.22266 50.7006 9.48828L48.8373 7.91797C49.3138 7.36328 49.9388 6.93359 50.7123 6.62891C51.4857 6.31641 52.3451 6.16016 53.2904 6.16016C54.3217 6.16016 55.2045 6.33984 55.9388 6.69922C56.6732 7.05078 57.2318 7.56641 57.6146 8.24609C58.0052 8.91797 58.2006 9.73047 58.2006 10.6836V18.5H55.6107V10.7891ZM52.4232 18.6758C51.0248 18.6758 49.9779 18.3672 49.2826 17.75C48.5873 17.125 48.2396 16.1797 48.2396 14.9141C48.2396 13.7109 48.5912 12.8086 49.2943 12.207C49.9974 11.6055 51.0521 11.3047 52.4584 11.3047H55.7162L55.8802 13.4844H52.4701C51.9154 13.4844 51.4974 13.6016 51.2162 13.8359C50.9427 14.0703 50.806 14.4297 50.806 14.9141C50.806 15.4219 50.9857 15.8008 51.3451 16.0508C51.7045 16.293 52.2474 16.4141 52.974 16.4141C53.8646 16.4141 54.5248 16.3164 54.9545 16.1211C55.392 15.9258 55.6107 15.6211 55.6107 15.207L55.8568 16.9414C55.724 17.3242 55.4896 17.6445 55.1537 17.9023C54.8256 18.1602 54.4271 18.3555 53.9584 18.4883C53.4896 18.6133 52.9779 18.6758 52.4232 18.6758ZM75.9545 11.3047C75.9545 10.5156 75.7592 9.91016 75.3685 9.48828C74.9779 9.05859 74.4232 8.84375 73.7045 8.84375C73.0248 8.84375 72.4974 9.05078 72.1224 9.46484C71.7552 9.87109 71.5717 10.4531 71.5717 11.2109L71.0326 8.63281C71.4154 7.84375 71.9154 7.23438 72.5326 6.80469C73.1576 6.375 73.849 6.16016 74.6068 6.16016C75.4818 6.16016 76.2279 6.35938 76.8451 6.75781C77.4701 7.15625 77.9427 7.74219 78.2631 8.51562C78.5912 9.28125 78.7552 10.207 78.7552 11.293V18.5H75.9545V11.3047ZM61.599 6.33594H64.3998V18.5H61.599V6.33594ZM68.7826 11.3047C68.7826 10.5156 68.5873 9.91016 68.1967 9.48828C67.8138 9.05859 67.267 8.84375 66.556 8.84375C65.8685 8.84375 65.3373 9.03125 64.9623 9.40625C64.5873 9.77344 64.3998 10.2969 64.3998 10.9766L64.1537 8.45703C64.5209 7.71484 64.9896 7.14844 65.5599 6.75781C66.1302 6.35938 66.7826 6.16016 67.517 6.16016C68.3685 6.16016 69.099 6.35938 69.7084 6.75781C70.3177 7.15625 70.7787 7.74219 71.0912 8.51562C71.4115 9.28125 71.5717 10.207 71.5717 11.293V18.5H68.7826V11.3047ZM87.2513 18.6758C86.1029 18.6758 85.1224 18.4648 84.3099 18.043C83.4974 17.6211 82.8763 17.0039 82.4467 16.1914C82.017 15.3711 81.8021 14.3828 81.8021 13.2266V11.8555C81.8021 10.6523 82.0052 9.625 82.4115 8.77344C82.8256 7.92188 83.4232 7.27344 84.2045 6.82812C84.9935 6.38281 85.9388 6.16016 87.0404 6.16016C88.0795 6.16016 88.9662 6.42187 89.7006 6.94531C90.4427 7.46094 91.0052 8.21094 91.3881 9.19531C91.7787 10.1797 91.974 11.3672 91.974 12.7578V13.5547H83.7123V11.5039H89.3724L89.3607 11.375C89.2826 10.5234 89.0443 9.86328 88.6459 9.39453C88.2474 8.92578 87.7123 8.69141 87.0404 8.69141C86.1967 8.69141 85.5443 8.95703 85.0834 9.48828C84.6224 10.0117 84.392 10.7578 84.392 11.7266V13.2734C84.392 14.1953 84.642 14.9062 85.142 15.4062C85.642 15.8984 86.3451 16.1445 87.2513 16.1445C87.7123 16.1445 88.1654 16.0586 88.6107 15.8867C89.0638 15.707 89.4701 15.4609 89.8295 15.1484L91.6576 16.8594C91.0404 17.4375 90.3451 17.8867 89.5717 18.207C88.806 18.5195 88.0326 18.6758 87.2513 18.6758ZM95.0209 6.33594H97.8217V18.5H95.0209V6.33594ZM102.228 11.1289C102.228 10.4023 102.033 9.83984 101.642 9.44141C101.251 9.04297 100.697 8.84375 99.9779 8.84375C99.2904 8.84375 98.7592 9.03125 98.3842 9.40625C98.0092 9.77344 97.8217 10.2969 97.8217 10.9766L97.5756 8.45703C97.9427 7.70703 98.4037 7.13672 98.9584 6.74609C99.5209 6.35547 100.181 6.16016 100.939 6.16016C102.236 6.16016 103.24 6.59375 103.951 7.46094C104.669 8.32031 105.029 9.53906 105.029 11.1172V18.5H102.228V11.1289ZM111.708 18.5586C110.685 18.5586 109.935 18.2891 109.458 17.75C108.982 17.2031 108.744 16.3984 108.744 15.3359V2.79688H111.544V14.9492C111.544 15.2461 111.603 15.4766 111.72 15.6406C111.837 15.7969 112.009 15.875 112.236 15.875H113.208V18.5586H111.708ZM107.49 6.33594H113.208V8.78516H107.49V6.33594ZM123.04 10.7891C123.04 10.1094 122.837 9.58203 122.431 9.20703C122.033 8.83203 121.466 8.64453 120.732 8.64453C120.263 8.64453 119.802 8.71875 119.349 8.86719C118.896 9.01562 118.49 9.22266 118.13 9.48828L116.267 7.91797C116.744 7.36328 117.369 6.93359 118.142 6.62891C118.915 6.31641 119.775 6.16016 120.72 6.16016C121.751 6.16016 122.634 6.33984 123.369 6.69922C124.103 7.05078 124.661 7.56641 125.044 8.24609C125.435 8.91797 125.63 9.73047 125.63 10.6836V18.5H123.04V10.7891ZM119.853 18.6758C118.454 18.6758 117.408 18.3672 116.712 17.75C116.017 17.125 115.669 16.1797 115.669 14.9141C115.669 13.7109 116.021 12.8086 116.724 12.207C117.427 11.6055 118.482 11.3047 119.888 11.3047H123.146L123.31 13.4844H119.9C119.345 13.4844 118.927 13.6016 118.646 13.8359C118.372 14.0703 118.236 14.4297 118.236 14.9141C118.236 15.4219 118.415 15.8008 118.775 16.0508C119.134 16.293 119.677 16.4141 120.404 16.4141C121.294 16.4141 121.954 16.3164 122.384 16.1211C122.822 15.9258 123.04 15.6211 123.04 15.207L123.286 16.9414C123.154 17.3242 122.919 17.6445 122.583 17.9023C122.255 18.1602 121.857 18.3555 121.388 18.4883C120.919 18.6133 120.408 18.6758 119.853 18.6758ZM133.505 18.6758C132.779 18.6758 132.087 18.6094 131.431 18.4766C130.775 18.3359 130.158 18.1328 129.579 17.8672C129.009 17.6016 128.494 17.2773 128.033 16.8945L129.732 14.7852C130.349 15.2227 130.978 15.5547 131.619 15.7812C132.267 16.0078 132.896 16.1211 133.505 16.1211C134.357 16.1211 135.001 16.0078 135.439 15.7812C135.884 15.5469 136.107 15.2109 136.107 14.7734C136.107 14.4375 135.997 14.1875 135.779 14.0234C135.56 13.8516 135.283 13.7344 134.947 13.6719C134.619 13.6094 134.154 13.5508 133.552 13.4961C133.451 13.4883 133.345 13.4805 133.236 13.4727C133.126 13.4648 133.021 13.4531 132.919 13.4375C132.888 13.4375 132.857 13.4375 132.826 13.4375C132.794 13.4297 132.763 13.4258 132.732 13.4258C131.88 13.332 131.181 13.2031 130.634 13.0391C130.087 12.8672 129.626 12.543 129.251 12.0664C128.884 11.5898 128.701 10.9062 128.701 10.0156C128.701 9.17969 128.884 8.47656 129.251 7.90625C129.626 7.32812 130.173 6.89453 130.892 6.60547C131.611 6.30859 132.494 6.16016 133.54 6.16016C134.165 6.16016 134.775 6.22266 135.369 6.34766C135.962 6.46484 136.529 6.64062 137.068 6.875C137.615 7.10156 138.13 7.38672 138.615 7.73047L136.939 9.76953C136.369 9.42578 135.79 9.16406 135.204 8.98438C134.626 8.80469 134.064 8.71484 133.517 8.71484C132.783 8.71484 132.224 8.82031 131.841 9.03125C131.458 9.24219 131.267 9.55469 131.267 9.96875C131.267 10.2344 131.372 10.4375 131.583 10.5781C131.794 10.7188 132.056 10.8164 132.369 10.8711C132.689 10.918 133.15 10.9688 133.751 11.0234C133.814 11.0312 133.872 11.0391 133.927 11.0469C133.99 11.0469 134.052 11.0508 134.115 11.0586C134.138 11.0586 134.165 11.0586 134.197 11.0586C134.228 11.0586 134.259 11.0625 134.29 11.0703C135.189 11.1562 135.935 11.2852 136.529 11.457C137.122 11.6289 137.626 11.9727 138.04 12.4883C138.454 12.9961 138.661 13.7383 138.661 14.7148C138.661 15.5742 138.466 16.3008 138.076 16.8945C137.685 17.4805 137.103 17.9258 136.329 18.2305C135.564 18.5273 134.622 18.6758 133.505 18.6758Z" fill="#171717"/>
<path d="M153.335 0C152.451 0 151.603 0.3512 150.978 0.97634C150.353 1.60148 150.001 2.44935 150.001 3.33343V12.667C150.001 13.5511 150.353 14.399 150.978 15.0241C151.603 15.6493 152.451 16.0005 153.335 16.0005H155.991C156.089 15.8682 156.197 15.7434 156.313 15.6271L157.273 14.6671H153.335C152.804 14.6671 152.296 14.4564 151.92 14.0813C151.545 13.7062 151.335 13.1975 151.335 12.667V5.33349H164.668V5.36816C165.111 5.32039 165.559 5.32218 166.001 5.37349V3.33343C166.001 2.44935 165.65 1.60148 165.025 0.97634C164.4 0.3512 163.552 0 162.668 0H153.335ZM160.576 7.63223L159.807 6.86154C159.745 6.79955 159.671 6.75038 159.59 6.71684C159.509 6.68329 159.422 6.66602 159.335 6.66602C159.247 6.66602 159.16 6.68329 159.079 6.71684C158.998 6.75038 158.925 6.79955 158.863 6.86154C158.801 6.92352 158.752 6.99711 158.718 7.0781C158.684 7.15909 158.667 7.24589 158.667 7.33355C158.667 7.42121 158.684 7.50802 158.718 7.58901C158.752 7.66999 158.801 7.74358 158.863 7.80557L159.856 8.7976C160.048 8.38781 160.288 7.99935 160.576 7.63223ZM157.14 7.80557C157.202 7.74358 157.251 7.66999 157.285 7.58901C157.318 7.50802 157.336 7.42121 157.336 7.33355C157.336 7.24589 157.318 7.15909 157.285 7.0781C157.251 6.99711 157.202 6.92352 157.14 6.86154C157.078 6.79955 157.004 6.75038 156.923 6.71684C156.843 6.68329 156.756 6.66602 156.668 6.66602C156.58 6.66602 156.494 6.68329 156.413 6.71684C156.332 6.75038 156.258 6.79955 156.196 6.86154L153.529 9.52828C153.467 9.59021 153.418 9.66378 153.384 9.74478C153.351 9.82578 153.334 9.91261 153.334 10.0003C153.334 10.088 153.351 10.1748 153.384 10.2558C153.418 10.3368 153.467 10.4104 153.529 10.4723L156.196 13.1391C156.321 13.2642 156.491 13.3346 156.668 13.3346C156.845 13.3346 157.015 13.2642 157.14 13.1391C157.265 13.0139 157.336 12.8441 157.336 12.667C157.336 12.49 157.265 12.3202 157.14 12.195L154.944 10.0003L157.14 7.80557ZM165.857 6.69887C166.345 6.75487 166.485 7.33889 166.137 7.68823L164.837 8.98827C164.46 9.36524 164.249 9.87653 164.249 10.4096C164.249 10.6736 164.301 10.935 164.402 11.1789C164.503 11.4228 164.651 11.6444 164.837 11.831C165.024 12.0177 165.246 12.1657 165.49 12.2668C165.733 12.3678 165.995 12.4198 166.259 12.4198C166.792 12.4198 167.303 12.208 167.68 11.831L168.98 10.531C169.328 10.183 169.913 10.323 169.969 10.811C170.062 11.6034 169.952 12.4064 169.648 13.1441C169.344 13.8818 168.857 14.5297 168.232 15.0267C167.608 15.5237 166.868 15.8532 166.081 15.9842C165.294 16.1151 164.486 16.0432 163.735 15.7751L160.1 19.4112C159.913 19.5979 159.692 19.746 159.448 19.847C159.204 19.948 158.943 20 158.679 20C158.415 20 158.153 19.948 157.91 19.847C157.666 19.746 157.444 19.5979 157.257 19.4112C157.071 19.2246 156.923 19.003 156.822 18.7591C156.721 18.5152 156.669 18.2538 156.669 17.9899C156.669 17.7259 156.721 17.4645 156.822 17.2206C156.923 16.9767 157.071 16.7552 157.257 16.5685L160.892 12.9337C160.624 12.1821 160.552 11.3746 160.683 10.5874C160.814 9.80027 161.144 9.05956 161.641 8.43535C162.138 7.81114 162.786 7.32407 163.524 7.02021C164.262 6.71635 165.065 6.60575 165.857 6.69887Z" fill="#171717"/>
</svg>
