<svg width="301" height="20" viewBox="0 0 301 20" fill="none" xmlns="http://www.w3.org/2000/svg">
<path d="M2.46228 1.46094H5.26306V18.5H2.46228V1.46094ZM3.63416 8.85547H12.1302V11.5273H3.63416V8.85547ZM3.63416 1.46094H13.4193V4.14453H3.63416V1.46094ZM15.6576 6.33594H18.5756V18.5H15.6576V6.33594ZM22.431 9.46484C22.2435 9.26172 22.0131 9.10938 21.7396 9.00781C21.4662 8.89844 21.1498 8.84375 20.7904 8.84375C20.0873 8.84375 19.5404 9.05469 19.1498 9.47656C18.767 9.89062 18.5756 10.4688 18.5756 11.2109L18.3295 8.45703C18.681 7.73047 19.1381 7.16797 19.7006 6.76953C20.2709 6.36328 20.8959 6.16016 21.5756 6.16016C22.1068 6.16016 22.5873 6.24219 23.017 6.40625C23.4467 6.5625 23.8217 6.79688 24.142 7.10938L22.431 9.46484ZM32.6849 10.7891C32.6849 10.1094 32.4818 9.58203 32.0756 9.20703C31.6771 8.83203 31.1107 8.64453 30.3763 8.64453C29.9076 8.64453 29.4467 8.71875 28.9935 8.86719C28.5404 9.01562 28.1342 9.22266 27.7748 9.48828L25.9115 7.91797C26.3881 7.36328 27.0131 6.93359 27.7865 6.62891C28.5599 6.31641 29.4193 6.16016 30.3646 6.16016C31.3959 6.16016 32.2787 6.33984 33.0131 6.69922C33.7474 7.05078 34.306 7.56641 34.6888 8.24609C35.0795 8.91797 35.2748 9.73047 35.2748 10.6836V18.5H32.6849V10.7891ZM29.4974 18.6758C28.099 18.6758 27.0521 18.3672 26.3568 17.75C25.6615 17.125 25.3138 16.1797 25.3138 14.9141C25.3138 13.7109 25.6654 12.8086 26.3685 12.207C27.0717 11.6055 28.1263 11.3047 29.5326 11.3047H32.7904L32.9545 13.4844H29.5443C28.9896 13.4844 28.5717 13.6016 28.2904 13.8359C28.017 14.0703 27.8802 14.4297 27.8802 14.9141C27.8802 15.4219 28.0599 15.8008 28.4193 16.0508C28.7787 16.293 29.3217 16.4141 30.0482 16.4141C30.9388 16.4141 31.599 16.3164 32.0287 16.1211C32.4662 15.9258 32.6849 15.6211 32.6849 15.207L32.931 16.9414C32.7982 17.3242 32.5638 17.6445 32.2279 17.9023C31.8998 18.1602 31.5013 18.3555 31.0326 18.4883C30.5638 18.6133 30.0521 18.6758 29.4974 18.6758ZM53.0287 11.3047C53.0287 10.5156 52.8334 9.91016 52.4427 9.48828C52.0521 9.05859 51.4974 8.84375 50.7787 8.84375C50.099 8.84375 49.5717 9.05078 49.1967 9.46484C48.8295 9.87109 48.6459 10.4531 48.6459 11.2109L48.1068 8.63281C48.4896 7.84375 48.9896 7.23438 49.6068 6.80469C50.2318 6.375 50.9232 6.16016 51.681 6.16016C52.556 6.16016 53.3021 6.35938 53.9193 6.75781C54.5443 7.15625 55.017 7.74219 55.3373 8.51562C55.6654 9.28125 55.8295 10.207 55.8295 11.293V18.5H53.0287V11.3047ZM38.6732 6.33594H41.474V18.5H38.6732V6.33594ZM45.8568 11.3047C45.8568 10.5156 45.6615 9.91016 45.2709 9.48828C44.8881 9.05859 44.3412 8.84375 43.6302 8.84375C42.9427 8.84375 42.4115 9.03125 42.0365 9.40625C41.6615 9.77344 41.474 10.2969 41.474 10.9766L41.2279 8.45703C41.5951 7.71484 42.0638 7.14844 42.6342 6.75781C43.2045 6.35938 43.8568 6.16016 44.5912 6.16016C45.4427 6.16016 46.1732 6.35938 46.7826 6.75781C47.392 7.15625 47.8529 7.74219 48.1654 8.51562C48.4857 9.28125 48.6459 10.207 48.6459 11.293V18.5H45.8568V11.3047ZM64.3256 18.6758C63.1771 18.6758 62.1967 18.4648 61.3842 18.043C60.5717 17.6211 59.9506 17.0039 59.5209 16.1914C59.0912 15.3711 58.8763 14.3828 58.8763 13.2266V11.8555C58.8763 10.6523 59.0795 9.625 59.4857 8.77344C59.8998 7.92188 60.4974 7.27344 61.2787 6.82812C62.0677 6.38281 63.0131 6.16016 64.1146 6.16016C65.1537 6.16016 66.0404 6.42187 66.7748 6.94531C67.517 7.46094 68.0795 8.21094 68.4623 9.19531C68.8529 10.1797 69.0482 11.3672 69.0482 12.7578V13.5547H60.7865V11.5039H66.4467L66.4349 11.375C66.3568 10.5234 66.1185 9.86328 65.7201 9.39453C65.3217 8.92578 64.7865 8.69141 64.1146 8.69141C63.2709 8.69141 62.6185 8.95703 62.1576 9.48828C61.6967 10.0117 61.4662 10.7578 61.4662 11.7266V13.2734C61.4662 14.1953 61.7162 14.9062 62.2162 15.4062C62.7162 15.8984 63.4193 16.1445 64.3256 16.1445C64.7865 16.1445 65.2396 16.0586 65.6849 15.8867C66.1381 15.707 66.5443 15.4609 66.9037 15.1484L68.7318 16.8594C68.1146 17.4375 67.4193 17.8867 66.6459 18.207C65.8802 18.5195 65.1068 18.6758 64.3256 18.6758ZM70.5717 6.33594H73.3607L75.517 14.4336L78.3177 6.33594H80.099L82.8998 14.4336L85.056 6.33594H87.8451L84.0951 18.5H81.9974L79.2084 10.332L76.4193 18.5H74.3217L70.5717 6.33594ZM94.7357 18.6758C93.6576 18.6758 92.7318 18.4688 91.9584 18.0547C91.1927 17.6406 90.6068 17.0391 90.2006 16.25C89.8021 15.4531 89.6029 14.4961 89.6029 13.3789V11.3984C89.6029 10.2969 89.8021 9.35547 90.2006 8.57422C90.6068 7.78516 91.1927 7.1875 91.9584 6.78125C92.7318 6.36719 93.6576 6.16016 94.7357 6.16016C95.8138 6.16016 96.7357 6.36719 97.5013 6.78125C98.2748 7.1875 98.8607 7.78516 99.2592 8.57422C99.6654 9.35547 99.8685 10.2969 99.8685 11.3984V13.4141C99.8685 14.5234 99.6654 15.4727 99.2592 16.2617C98.8607 17.043 98.2748 17.6406 97.5013 18.0547C96.7357 18.4688 95.8138 18.6758 94.7357 18.6758ZM94.7357 15.9922C95.4779 15.9922 96.0521 15.7695 96.4584 15.3242C96.8646 14.8711 97.0677 14.2344 97.0677 13.4141V11.3984C97.0677 10.5859 96.8646 9.95703 96.4584 9.51172C96.0521 9.06641 95.4779 8.84375 94.7357 8.84375C93.9935 8.84375 93.4193 9.06641 93.0131 9.51172C92.6068 9.95703 92.4037 10.5859 92.4037 11.3984V13.4141C92.4037 14.2344 92.6029 14.8711 93.0013 15.3242C93.4076 15.7695 93.9857 15.9922 94.7357 15.9922ZM103.033 6.33594H105.951V18.5H103.033V6.33594ZM109.806 9.46484C109.619 9.26172 109.388 9.10938 109.115 9.00781C108.841 8.89844 108.525 8.84375 108.165 8.84375C107.462 8.84375 106.915 9.05469 106.525 9.47656C106.142 9.89062 105.951 10.4688 105.951 11.2109L105.704 8.45703C106.056 7.73047 106.513 7.16797 107.076 6.76953C107.646 6.36328 108.271 6.16016 108.951 6.16016C109.482 6.16016 109.962 6.24219 110.392 6.40625C110.822 6.5625 111.197 6.79688 111.517 7.10938L109.806 9.46484ZM114.54 14L120.505 6.33594H123.611L114.681 17.1875L114.54 14ZM113.275 1.46094H116.076V18.5H113.275V1.46094ZM117.388 11.8438L119.486 10.25L124.208 18.5H121.056L117.388 11.8438ZM130.454 18.6758C129.728 18.6758 129.036 18.6094 128.38 18.4766C127.724 18.3359 127.107 18.1328 126.529 17.8672C125.958 17.6016 125.443 17.2773 124.982 16.8945L126.681 14.7852C127.298 15.2227 127.927 15.5547 128.568 15.7812C129.216 16.0078 129.845 16.1211 130.454 16.1211C131.306 16.1211 131.951 16.0078 132.388 15.7812C132.833 15.5469 133.056 15.2109 133.056 14.7734C133.056 14.4375 132.947 14.1875 132.728 14.0234C132.509 13.8516 132.232 13.7344 131.896 13.6719C131.568 13.6094 131.103 13.5508 130.501 13.4961C130.4 13.4883 130.294 13.4805 130.185 13.4727C130.076 13.4648 129.97 13.4531 129.869 13.4375C129.837 13.4375 129.806 13.4375 129.775 13.4375C129.744 13.4297 129.712 13.4258 129.681 13.4258C128.829 13.332 128.13 13.2031 127.583 13.0391C127.036 12.8672 126.576 12.543 126.201 12.0664C125.833 11.5898 125.65 10.9062 125.65 10.0156C125.65 9.17969 125.833 8.47656 126.201 7.90625C126.576 7.32812 127.122 6.89453 127.841 6.60547C128.56 6.30859 129.443 6.16016 130.49 6.16016C131.115 6.16016 131.724 6.22266 132.318 6.34766C132.911 6.46484 133.478 6.64062 134.017 6.875C134.564 7.10156 135.079 7.38672 135.564 7.73047L133.888 9.76953C133.318 9.42578 132.74 9.16406 132.154 8.98438C131.576 8.80469 131.013 8.71484 130.466 8.71484C129.732 8.71484 129.173 8.82031 128.79 9.03125C128.408 9.24219 128.216 9.55469 128.216 9.96875C128.216 10.2344 128.322 10.4375 128.533 10.5781C128.744 10.7188 129.005 10.8164 129.318 10.8711C129.638 10.918 130.099 10.9688 130.701 11.0234C130.763 11.0312 130.822 11.0391 130.876 11.0469C130.939 11.0469 131.001 11.0508 131.064 11.0586C131.087 11.0586 131.115 11.0586 131.146 11.0586C131.177 11.0586 131.208 11.0625 131.24 11.0703C132.138 11.1562 132.884 11.2852 133.478 11.457C134.072 11.6289 134.576 11.9727 134.99 12.4883C135.404 12.9961 135.611 13.7383 135.611 14.7148C135.611 15.5742 135.415 16.3008 135.025 16.8945C134.634 17.4805 134.052 17.9258 133.279 18.2305C132.513 18.5273 131.572 18.6758 130.454 18.6758ZM152.978 11.0586V13.7305H144.869V11.0586H152.978ZM163.056 1.46094H165.857V18.5H163.056V1.46094ZM164.228 8.85547H172.724V11.5273H164.228V8.85547ZM164.228 1.46094H174.013V4.14453H164.228V1.46094ZM176.251 6.33594H179.169V18.5H176.251V6.33594ZM183.025 9.46484C182.837 9.26172 182.607 9.10938 182.333 9.00781C182.06 8.89844 181.744 8.84375 181.384 8.84375C180.681 8.84375 180.134 9.05469 179.744 9.47656C179.361 9.89062 179.169 10.4688 179.169 11.2109L178.923 8.45703C179.275 7.73047 179.732 7.16797 180.294 6.76953C180.865 6.36328 181.49 6.16016 182.169 6.16016C182.701 6.16016 183.181 6.24219 183.611 6.40625C184.04 6.5625 184.415 6.79688 184.736 7.10938L183.025 9.46484ZM191.04 18.6758C189.962 18.6758 189.036 18.4688 188.263 18.0547C187.497 17.6406 186.911 17.0391 186.505 16.25C186.107 15.4531 185.908 14.4961 185.908 13.3789V11.3984C185.908 10.2969 186.107 9.35547 186.505 8.57422C186.911 7.78516 187.497 7.1875 188.263 6.78125C189.036 6.36719 189.962 6.16016 191.04 6.16016C192.119 6.16016 193.04 6.36719 193.806 6.78125C194.579 7.1875 195.165 7.78516 195.564 8.57422C195.97 9.35547 196.173 10.2969 196.173 11.3984V13.4141C196.173 14.5234 195.97 15.4727 195.564 16.2617C195.165 17.043 194.579 17.6406 193.806 18.0547C193.04 18.4688 192.119 18.6758 191.04 18.6758ZM191.04 15.9922C191.783 15.9922 192.357 15.7695 192.763 15.3242C193.169 14.8711 193.372 14.2344 193.372 13.4141V11.3984C193.372 10.5859 193.169 9.95703 192.763 9.51172C192.357 9.06641 191.783 8.84375 191.04 8.84375C190.298 8.84375 189.724 9.06641 189.318 9.51172C188.911 9.95703 188.708 10.5859 188.708 11.3984V13.4141C188.708 14.2344 188.908 14.8711 189.306 15.3242C189.712 15.7695 190.29 15.9922 191.04 15.9922ZM199.337 6.33594H202.138V18.5H199.337V6.33594ZM206.544 11.1289C206.544 10.4023 206.349 9.83984 205.958 9.44141C205.568 9.04297 205.013 8.84375 204.294 8.84375C203.607 8.84375 203.076 9.03125 202.701 9.40625C202.326 9.77344 202.138 10.2969 202.138 10.9766L201.892 8.45703C202.259 7.70703 202.72 7.13672 203.275 6.74609C203.837 6.35547 204.497 6.16016 205.255 6.16016C206.552 6.16016 207.556 6.59375 208.267 7.46094C208.986 8.32031 209.345 9.53906 209.345 11.1172V18.5H206.544V11.1289ZM216.025 18.5586C215.001 18.5586 214.251 18.2891 213.775 17.75C213.298 17.2031 213.06 16.3984 213.06 15.3359V2.79688H215.861V14.9492C215.861 15.2461 215.919 15.4766 216.036 15.6406C216.154 15.7969 216.326 15.875 216.552 15.875H217.525V18.5586H216.025ZM211.806 6.33594H217.525V8.78516H211.806V6.33594ZM228.681 11.0586V13.7305H220.572V11.0586H228.681ZM237.177 18.6758C236.029 18.6758 235.048 18.4648 234.236 18.043C233.423 17.6211 232.802 17.0039 232.372 16.1914C231.943 15.3711 231.728 14.3828 231.728 13.2266V11.8555C231.728 10.6523 231.931 9.625 232.337 8.77344C232.751 7.92188 233.349 7.27344 234.13 6.82812C234.919 6.38281 235.865 6.16016 236.966 6.16016C238.005 6.16016 238.892 6.42187 239.626 6.94531C240.369 7.46094 240.931 8.21094 241.314 9.19531C241.704 10.1797 241.9 11.3672 241.9 12.7578V13.5547H233.638V11.5039H239.298L239.286 11.375C239.208 10.5234 238.97 9.86328 238.572 9.39453C238.173 8.92578 237.638 8.69141 236.966 8.69141C236.122 8.69141 235.47 8.95703 235.009 9.48828C234.548 10.0117 234.318 10.7578 234.318 11.7266V13.2734C234.318 14.1953 234.568 14.9062 235.068 15.4062C235.568 15.8984 236.271 16.1445 237.177 16.1445C237.638 16.1445 238.091 16.0586 238.536 15.8867C238.99 15.707 239.396 15.4609 239.755 15.1484L241.583 16.8594C240.966 17.4375 240.271 17.8867 239.497 18.207C238.732 18.5195 237.958 18.6758 237.177 18.6758ZM244.947 6.33594H247.747V18.5H244.947V6.33594ZM252.154 11.1289C252.154 10.4023 251.958 9.83984 251.568 9.44141C251.177 9.04297 250.622 8.84375 249.904 8.84375C249.216 8.84375 248.685 9.03125 248.31 9.40625C247.935 9.77344 247.747 10.2969 247.747 10.9766L247.501 8.45703C247.869 7.70703 248.329 7.13672 248.884 6.74609C249.447 6.35547 250.107 6.16016 250.865 6.16016C252.161 6.16016 253.165 6.59375 253.876 7.46094C254.595 8.32031 254.954 9.53906 254.954 11.1172V18.5H252.154V11.1289ZM265.091 1.46094H267.892V18.5H265.091V1.46094ZM262.15 18.6992C261.275 18.6992 260.525 18.5 259.9 18.1016C259.283 17.6953 258.81 17.1133 258.482 16.3555C258.161 15.5898 258.001 14.668 258.001 13.5898V11.2695C258.001 10.1914 258.161 9.26953 258.482 8.50391C258.802 7.73047 259.267 7.14453 259.876 6.74609C260.494 6.33984 261.232 6.13672 262.091 6.13672C262.779 6.13672 263.404 6.32812 263.966 6.71094C264.536 7.09375 264.994 7.63281 265.337 8.32812L265.091 10.918C265.091 10.4492 265.009 10.0508 264.845 9.72266C264.681 9.39453 264.443 9.14453 264.13 8.97266C263.818 8.80078 263.439 8.71484 262.994 8.71484C262.298 8.71484 261.759 8.94141 261.376 9.39453C260.994 9.84766 260.802 10.4805 260.802 11.293V13.5898C260.802 14.3945 260.994 15.0195 261.376 15.4648C261.759 15.9023 262.298 16.1211 262.994 16.1211C263.439 16.1211 263.818 16.0352 264.13 15.8633C264.443 15.6836 264.681 15.4297 264.845 15.1016C265.009 14.7734 265.091 14.3789 265.091 13.918L265.255 16.5898C265.013 17.2227 264.622 17.7344 264.083 18.125C263.552 18.5078 262.908 18.6992 262.15 18.6992Z" fill="#171717"/>
<path d="M293.97 0.924406C293.997 0.834733 294.007 0.740507 293.998 0.647107C293.989 0.553706 293.963 0.462962 293.92 0.380053C293.877 0.297145 293.818 0.223697 293.747 0.163902C293.676 0.104108 293.595 0.0591382 293.507 0.031561C293.419 0.00398378 293.327 -0.00566098 293.235 0.00317731C293.144 0.0120156 293.055 0.0391639 292.973 0.0830722C292.892 0.12698 292.82 0.186789 292.762 0.259082C292.703 0.331376 292.659 0.414739 292.632 0.504412L287.033 19.0756C286.978 19.2567 286.996 19.4525 287.083 19.6199C287.17 19.7874 287.318 19.9127 287.496 19.9684C287.673 20.0241 287.865 20.0056 288.029 19.9169C288.193 19.8283 288.316 19.6767 288.371 19.4956L293.97 0.924406ZM286.097 4.49436C286.163 4.56071 286.214 4.63953 286.25 4.72631C286.285 4.81309 286.303 4.90611 286.303 5.00007C286.303 5.09402 286.285 5.18705 286.25 5.27383C286.214 5.3606 286.163 5.43942 286.097 5.50577L281.692 10L286.097 14.4942C286.229 14.6283 286.303 14.8103 286.303 14.9999C286.303 15.1896 286.229 15.3715 286.097 15.5056C285.966 15.6398 285.788 15.7151 285.602 15.7151C285.416 15.7151 285.238 15.6398 285.106 15.5056L280.207 10.5057C280.142 10.4394 280.09 10.3605 280.055 10.2738C280.02 10.187 280.001 10.094 280.001 10C280.001 9.90605 280.02 9.81302 280.055 9.72624C280.09 9.63946 280.142 9.56064 280.207 9.49429L285.106 4.49436C285.171 4.42784 285.249 4.37507 285.334 4.33906C285.419 4.30305 285.51 4.28451 285.602 4.28451C285.694 4.28451 285.785 4.30305 285.87 4.33906C285.955 4.37507 286.032 4.42784 286.097 4.49436ZM294.905 4.49436C294.84 4.56071 294.788 4.63953 294.753 4.72631C294.718 4.81309 294.7 4.90611 294.7 5.00007C294.7 5.09402 294.718 5.18705 294.753 5.27383C294.788 5.3606 294.84 5.43942 294.905 5.50577L299.31 10L294.905 14.4942C294.84 14.5606 294.789 14.6395 294.753 14.7262C294.718 14.813 294.7 14.906 294.7 14.9999C294.7 15.0939 294.718 15.1869 294.753 15.2736C294.789 15.3604 294.84 15.4392 294.905 15.5056C294.97 15.5721 295.048 15.6247 295.133 15.6607C295.218 15.6966 295.309 15.7151 295.401 15.7151C295.493 15.7151 295.584 15.6966 295.669 15.6607C295.754 15.6247 295.831 15.5721 295.896 15.5056L300.796 10.5057C300.861 10.4394 300.913 10.3605 300.948 10.2738C300.983 10.187 301.001 10.094 301.001 10C301.001 9.90605 300.983 9.81302 300.948 9.72624C300.913 9.63946 300.861 9.56064 300.796 9.49429L295.896 4.49436C295.831 4.42784 295.754 4.37507 295.669 4.33906C295.584 4.30305 295.493 4.28451 295.401 4.28451C295.309 4.28451 295.218 4.30305 295.133 4.33906C295.047 4.37507 294.97 4.42784 294.905 4.49436Z" fill="#171717"/>
</svg>
