<svg width="289" height="24" viewBox="0 0 289 24" fill="none" xmlns="http://www.w3.org/2000/svg">
<path d="M2.60291 1.46094H5.40369V18.5H2.60291V1.46094ZM3.91541 15.8164H13.7826V18.5H3.91541V15.8164ZM16.0443 1.46094H18.8334V4.26172H16.0443V1.46094ZM16.0443 6.33594H18.8334V18.5H16.0443V6.33594ZM22.1498 6.33594H24.9506V18.5H22.1498V6.33594ZM29.3568 11.1289C29.3568 10.4023 29.1615 9.83984 28.7709 9.44141C28.3802 9.04297 27.8256 8.84375 27.1068 8.84375C26.4193 8.84375 25.8881 9.03125 25.5131 9.40625C25.1381 9.77344 24.9506 10.2969 24.9506 10.9766L24.7045 8.45703C25.0717 7.70703 25.5326 7.13672 26.0873 6.74609C26.6498 6.35547 27.3099 6.16016 28.0677 6.16016C29.3646 6.16016 30.3685 6.59375 31.0795 7.46094C31.7982 8.32031 32.1576 9.53906 32.1576 11.1172V18.5H29.3568V11.1289ZM39.7513 23.4453C38.8138 23.4453 37.974 23.2734 37.2318 22.9297C36.4896 22.5938 35.9115 22.1172 35.4974 21.5L37.3842 19.7773C37.6732 20.1445 38.0209 20.4258 38.4271 20.6211C38.8412 20.8164 39.2709 20.9141 39.7162 20.9141C40.5131 20.9141 41.142 20.6953 41.6029 20.2578C42.0638 19.8281 42.2943 19.2188 42.2943 18.4297V6.33594H45.0951V18.1367C45.0951 19.2539 44.8842 20.2109 44.4623 21.0078C44.0482 21.8047 43.4388 22.4102 42.6342 22.8242C41.8373 23.2383 40.8763 23.4453 39.7513 23.4453ZM39.3529 18.6992C38.4779 18.6992 37.7279 18.5 37.1029 18.1016C36.4857 17.6953 36.0131 17.1133 35.6849 16.3555C35.3646 15.5898 35.2045 14.668 35.2045 13.5898V11.2695C35.2045 10.1914 35.3646 9.26953 35.6849 8.50391C36.0052 7.73047 36.4701 7.14453 37.0795 6.74609C37.6967 6.33984 38.4349 6.13672 39.2943 6.13672C39.9818 6.13672 40.6068 6.32812 41.1693 6.71094C41.7396 7.09375 42.1967 7.63281 42.5404 8.32812L42.2943 10.918C42.2943 10.4492 42.2123 10.0508 42.0482 9.72266C41.8842 9.39453 41.6459 9.14453 41.3334 8.97266C41.0209 8.80078 40.642 8.71484 40.1967 8.71484C39.5013 8.71484 38.9623 8.94141 38.5795 9.39453C38.1967 9.84766 38.0052 10.4805 38.0052 11.293V13.5898C38.0052 14.3945 38.1967 15.0195 38.5795 15.4648C38.9623 15.9023 39.5013 16.1211 40.1967 16.1211C40.642 16.1211 41.0209 16.0352 41.3334 15.8633C41.6459 15.6836 41.8842 15.4297 42.0482 15.1016C42.2123 14.7734 42.2943 14.3789 42.2943 13.918L42.4584 16.5898C42.2162 17.2227 41.8256 17.7344 41.2865 18.125C40.7552 18.5078 40.1107 18.6992 39.3529 18.6992ZM55.6537 6.33594H58.4427V18.5H55.6537V6.33594ZM51.2943 13.7305C51.2943 14.4492 51.4857 15.0078 51.8685 15.4062C52.2513 15.7969 52.7904 15.9922 53.4857 15.9922C54.181 15.9922 54.7162 15.8086 55.0912 15.4414C55.4662 15.0664 55.6537 14.5312 55.6537 13.8359L55.8177 16.4375C55.5834 17.0703 55.1927 17.6016 54.6459 18.0312C54.099 18.4609 53.431 18.6758 52.642 18.6758C51.3217 18.6758 50.2982 18.25 49.5717 17.3984C48.8529 16.5469 48.4935 15.3438 48.4935 13.7891V6.33594H51.2943V13.7305ZM68.6381 10.7891C68.6381 10.1094 68.4349 9.58203 68.0287 9.20703C67.6302 8.83203 67.0638 8.64453 66.3295 8.64453C65.8607 8.64453 65.3998 8.71875 64.9467 8.86719C64.4935 9.01562 64.0873 9.22266 63.7279 9.48828L61.8646 7.91797C62.3412 7.36328 62.9662 6.93359 63.7396 6.62891C64.5131 6.31641 65.3724 6.16016 66.3177 6.16016C67.349 6.16016 68.2318 6.33984 68.9662 6.69922C69.7006 7.05078 70.2592 7.56641 70.642 8.24609C71.0326 8.91797 71.2279 9.73047 71.2279 10.6836V18.5H68.6381V10.7891ZM65.4506 18.6758C64.0521 18.6758 63.0052 18.3672 62.3099 17.75C61.6146 17.125 61.267 16.1797 61.267 14.9141C61.267 13.7109 61.6185 12.8086 62.3217 12.207C63.0248 11.6055 64.0795 11.3047 65.4857 11.3047H68.7435L68.9076 13.4844H65.4974C64.9427 13.4844 64.5248 13.6016 64.2435 13.8359C63.9701 14.0703 63.8334 14.4297 63.8334 14.9141C63.8334 15.4219 64.0131 15.8008 64.3724 16.0508C64.7318 16.293 65.2748 16.4141 66.0013 16.4141C66.892 16.4141 67.5521 16.3164 67.9818 16.1211C68.4193 15.9258 68.6381 15.6211 68.6381 15.207L68.8842 16.9414C68.7513 17.3242 68.517 17.6445 68.181 17.9023C67.8529 18.1602 67.4545 18.3555 66.9857 18.4883C66.517 18.6133 66.0052 18.6758 65.4506 18.6758ZM78.8217 23.4453C77.8842 23.4453 77.0443 23.2734 76.3021 22.9297C75.5599 22.5938 74.9818 22.1172 74.5677 21.5L76.4545 19.7773C76.7435 20.1445 77.0912 20.4258 77.4974 20.6211C77.9115 20.8164 78.3412 20.9141 78.7865 20.9141C79.5834 20.9141 80.2123 20.6953 80.6732 20.2578C81.1342 19.8281 81.3646 19.2188 81.3646 18.4297V6.33594H84.1654V18.1367C84.1654 19.2539 83.9545 20.2109 83.5326 21.0078C83.1185 21.8047 82.5092 22.4102 81.7045 22.8242C80.9076 23.2383 79.9467 23.4453 78.8217 23.4453ZM78.4232 18.6992C77.5482 18.6992 76.7982 18.5 76.1732 18.1016C75.556 17.6953 75.0834 17.1133 74.7552 16.3555C74.4349 15.5898 74.2748 14.668 74.2748 13.5898V11.2695C74.2748 10.1914 74.4349 9.26953 74.7552 8.50391C75.0756 7.73047 75.5404 7.14453 76.1498 6.74609C76.767 6.33984 77.5052 6.13672 78.3646 6.13672C79.0521 6.13672 79.6771 6.32812 80.2396 6.71094C80.8099 7.09375 81.267 7.63281 81.6107 8.32812L81.3646 10.918C81.3646 10.4492 81.2826 10.0508 81.1185 9.72266C80.9545 9.39453 80.7162 9.14453 80.4037 8.97266C80.0912 8.80078 79.7123 8.71484 79.267 8.71484C78.5717 8.71484 78.0326 8.94141 77.6498 9.39453C77.267 9.84766 77.0756 10.4805 77.0756 11.293V13.5898C77.0756 14.3945 77.267 15.0195 77.6498 15.4648C78.0326 15.9023 78.5717 16.1211 79.267 16.1211C79.7123 16.1211 80.0912 16.0352 80.4037 15.8633C80.7162 15.6836 80.9545 15.4297 81.1185 15.1016C81.2826 14.7734 81.3646 14.3789 81.3646 13.918L81.5287 16.5898C81.2865 17.2227 80.8959 17.7344 80.3568 18.125C79.8256 18.5078 79.181 18.6992 78.4232 18.6992ZM92.6615 18.6758C91.5131 18.6758 90.5326 18.4648 89.7201 18.043C88.9076 17.6211 88.2865 17.0039 87.8568 16.1914C87.4271 15.3711 87.2123 14.3828 87.2123 13.2266V11.8555C87.2123 10.6523 87.4154 9.625 87.8217 8.77344C88.2357 7.92188 88.8334 7.27344 89.6146 6.82812C90.4037 6.38281 91.349 6.16016 92.4506 6.16016C93.4896 6.16016 94.3763 6.42187 95.1107 6.94531C95.8529 7.46094 96.4154 8.21094 96.7982 9.19531C97.1888 10.1797 97.3842 11.3672 97.3842 12.7578V13.5547H89.1224V11.5039H94.7826L94.7709 11.375C94.6927 10.5234 94.4545 9.86328 94.056 9.39453C93.6576 8.92578 93.1224 8.69141 92.4506 8.69141C91.6068 8.69141 90.9545 8.95703 90.4935 9.48828C90.0326 10.0117 89.8021 10.7578 89.8021 11.7266V13.2734C89.8021 14.1953 90.0521 14.9062 90.5521 15.4062C91.0521 15.8984 91.7552 16.1445 92.6615 16.1445C93.1224 16.1445 93.5756 16.0586 94.0209 15.8867C94.474 15.707 94.8802 15.4609 95.2396 15.1484L97.0677 16.8594C96.4506 17.4375 95.7552 17.8867 94.9818 18.207C94.2162 18.5195 93.4427 18.6758 92.6615 18.6758ZM100.431 6.33594H103.232V18.5H100.431V6.33594ZM107.638 11.1289C107.638 10.4023 107.443 9.83984 107.052 9.44141C106.661 9.04297 106.107 8.84375 105.388 8.84375C104.701 8.84375 104.169 9.03125 103.794 9.40625C103.419 9.77344 103.232 10.2969 103.232 10.9766L102.986 8.45703C103.353 7.70703 103.814 7.13672 104.369 6.74609C104.931 6.35547 105.591 6.16016 106.349 6.16016C107.646 6.16016 108.65 6.59375 109.361 7.46094C110.079 8.32031 110.439 9.53906 110.439 11.1172V18.5H107.638V11.1289ZM118.314 18.6758C117.587 18.6758 116.896 18.6094 116.24 18.4766C115.583 18.3359 114.966 18.1328 114.388 17.8672C113.818 17.6016 113.302 17.2773 112.841 16.8945L114.54 14.7852C115.158 15.2227 115.786 15.5547 116.427 15.7812C117.076 16.0078 117.704 16.1211 118.314 16.1211C119.165 16.1211 119.81 16.0078 120.247 15.7812C120.693 15.5469 120.915 15.2109 120.915 14.7734C120.915 14.4375 120.806 14.1875 120.587 14.0234C120.369 13.8516 120.091 13.7344 119.755 13.6719C119.427 13.6094 118.962 13.5508 118.361 13.4961C118.259 13.4883 118.154 13.4805 118.044 13.4727C117.935 13.4648 117.829 13.4531 117.728 13.4375C117.697 13.4375 117.665 13.4375 117.634 13.4375C117.603 13.4297 117.572 13.4258 117.54 13.4258C116.689 13.332 115.99 13.2031 115.443 13.0391C114.896 12.8672 114.435 12.543 114.06 12.0664C113.693 11.5898 113.509 10.9062 113.509 10.0156C113.509 9.17969 113.693 8.47656 114.06 7.90625C114.435 7.32812 114.982 6.89453 115.701 6.60547C116.419 6.30859 117.302 6.16016 118.349 6.16016C118.974 6.16016 119.583 6.22266 120.177 6.34766C120.771 6.46484 121.337 6.64062 121.876 6.875C122.423 7.10156 122.939 7.38672 123.423 7.73047L121.747 9.76953C121.177 9.42578 120.599 9.16406 120.013 8.98438C119.435 8.80469 118.872 8.71484 118.326 8.71484C117.591 8.71484 117.033 8.82031 116.65 9.03125C116.267 9.24219 116.076 9.55469 116.076 9.96875C116.076 10.2344 116.181 10.4375 116.392 10.5781C116.603 10.7188 116.865 10.8164 117.177 10.8711C117.497 10.918 117.958 10.9688 118.56 11.0234C118.622 11.0312 118.681 11.0391 118.736 11.0469C118.798 11.0469 118.861 11.0508 118.923 11.0586C118.947 11.0586 118.974 11.0586 119.005 11.0586C119.036 11.0586 119.068 11.0625 119.099 11.0703C119.997 11.1562 120.744 11.2852 121.337 11.457C121.931 11.6289 122.435 11.9727 122.849 12.4883C123.263 12.9961 123.47 13.7383 123.47 14.7148C123.47 15.5742 123.275 16.3008 122.884 16.8945C122.494 17.4805 121.911 17.9258 121.138 18.2305C120.372 18.5273 119.431 18.6758 118.314 18.6758ZM140.837 11.0586V13.7305H132.728V11.0586H140.837ZM150.915 1.46094H153.716V18.5H150.915V1.46094ZM152.087 8.85547H160.583V11.5273H152.087V8.85547ZM152.087 1.46094H161.872V4.14453H152.087V1.46094ZM164.111 6.33594H167.029V18.5H164.111V6.33594ZM170.884 9.46484C170.697 9.26172 170.466 9.10938 170.193 9.00781C169.919 8.89844 169.603 8.84375 169.244 8.84375C168.54 8.84375 167.994 9.05469 167.603 9.47656C167.22 9.89062 167.029 10.4688 167.029 11.2109L166.783 8.45703C167.134 7.73047 167.591 7.16797 168.154 6.76953C168.724 6.36328 169.349 6.16016 170.029 6.16016C170.56 6.16016 171.04 6.24219 171.47 6.40625C171.9 6.5625 172.275 6.79688 172.595 7.10938L170.884 9.46484ZM178.9 18.6758C177.822 18.6758 176.896 18.4688 176.122 18.0547C175.357 17.6406 174.771 17.0391 174.365 16.25C173.966 15.4531 173.767 14.4961 173.767 13.3789V11.3984C173.767 10.2969 173.966 9.35547 174.365 8.57422C174.771 7.78516 175.357 7.1875 176.122 6.78125C176.896 6.36719 177.822 6.16016 178.9 6.16016C179.978 6.16016 180.9 6.36719 181.665 6.78125C182.439 7.1875 183.025 7.78516 183.423 8.57422C183.829 9.35547 184.033 10.2969 184.033 11.3984V13.4141C184.033 14.5234 183.829 15.4727 183.423 16.2617C183.025 17.043 182.439 17.6406 181.665 18.0547C180.9 18.4688 179.978 18.6758 178.9 18.6758ZM178.9 15.9922C179.642 15.9922 180.216 15.7695 180.622 15.3242C181.029 14.8711 181.232 14.2344 181.232 13.4141V11.3984C181.232 10.5859 181.029 9.95703 180.622 9.51172C180.216 9.06641 179.642 8.84375 178.9 8.84375C178.158 8.84375 177.583 9.06641 177.177 9.51172C176.771 9.95703 176.568 10.5859 176.568 11.3984V13.4141C176.568 14.2344 176.767 14.8711 177.165 15.3242C177.572 15.7695 178.15 15.9922 178.9 15.9922ZM187.197 6.33594H189.997V18.5H187.197V6.33594ZM194.404 11.1289C194.404 10.4023 194.208 9.83984 193.818 9.44141C193.427 9.04297 192.872 8.84375 192.154 8.84375C191.466 8.84375 190.935 9.03125 190.56 9.40625C190.185 9.77344 189.997 10.2969 189.997 10.9766L189.751 8.45703C190.119 7.70703 190.579 7.13672 191.134 6.74609C191.697 6.35547 192.357 6.16016 193.115 6.16016C194.411 6.16016 195.415 6.59375 196.126 7.46094C196.845 8.32031 197.204 9.53906 197.204 11.1172V18.5H194.404V11.1289ZM203.884 18.5586C202.861 18.5586 202.111 18.2891 201.634 17.75C201.158 17.2031 200.919 16.3984 200.919 15.3359V2.79688H203.72V14.9492C203.72 15.2461 203.779 15.4766 203.896 15.6406C204.013 15.7969 204.185 15.875 204.411 15.875H205.384V18.5586H203.884ZM199.665 6.33594H205.384V8.78516H199.665V6.33594ZM216.54 11.0586V13.7305H208.431V11.0586H216.54ZM225.036 18.6758C223.888 18.6758 222.908 18.4648 222.095 18.043C221.283 17.6211 220.661 17.0039 220.232 16.1914C219.802 15.3711 219.587 14.3828 219.587 13.2266V11.8555C219.587 10.6523 219.79 9.625 220.197 8.77344C220.611 7.92188 221.208 7.27344 221.99 6.82812C222.779 6.38281 223.724 6.16016 224.826 6.16016C225.865 6.16016 226.751 6.42187 227.486 6.94531C228.228 7.46094 228.79 8.21094 229.173 9.19531C229.564 10.1797 229.759 11.3672 229.759 12.7578V13.5547H221.497V11.5039H227.158L227.146 11.375C227.068 10.5234 226.829 9.86328 226.431 9.39453C226.033 8.92578 225.497 8.69141 224.826 8.69141C223.982 8.69141 223.329 8.95703 222.869 9.48828C222.408 10.0117 222.177 10.7578 222.177 11.7266V13.2734C222.177 14.1953 222.427 14.9062 222.927 15.4062C223.427 15.8984 224.13 16.1445 225.036 16.1445C225.497 16.1445 225.951 16.0586 226.396 15.8867C226.849 15.707 227.255 15.4609 227.615 15.1484L229.443 16.8594C228.826 17.4375 228.13 17.8867 227.357 18.207C226.591 18.5195 225.818 18.6758 225.036 18.6758ZM232.806 6.33594H235.607V18.5H232.806V6.33594ZM240.013 11.1289C240.013 10.4023 239.818 9.83984 239.427 9.44141C239.036 9.04297 238.482 8.84375 237.763 8.84375C237.076 8.84375 236.544 9.03125 236.169 9.40625C235.794 9.77344 235.607 10.2969 235.607 10.9766L235.361 8.45703C235.728 7.70703 236.189 7.13672 236.744 6.74609C237.306 6.35547 237.966 6.16016 238.724 6.16016C240.021 6.16016 241.025 6.59375 241.736 7.46094C242.454 8.32031 242.814 9.53906 242.814 11.1172V18.5H240.013V11.1289ZM252.951 1.46094H255.751V18.5H252.951V1.46094ZM250.009 18.6992C249.134 18.6992 248.384 18.5 247.759 18.1016C247.142 17.6953 246.669 17.1133 246.341 16.3555C246.021 15.5898 245.861 14.668 245.861 13.5898V11.2695C245.861 10.1914 246.021 9.26953 246.341 8.50391C246.661 7.73047 247.126 7.14453 247.736 6.74609C248.353 6.33984 249.091 6.13672 249.951 6.13672C250.638 6.13672 251.263 6.32812 251.826 6.71094C252.396 7.09375 252.853 7.63281 253.197 8.32812L252.951 10.918C252.951 10.4492 252.869 10.0508 252.704 9.72266C252.54 9.39453 252.302 9.14453 251.99 8.97266C251.677 8.80078 251.298 8.71484 250.853 8.71484C250.158 8.71484 249.619 8.94141 249.236 9.39453C248.853 9.84766 248.661 10.4805 248.661 11.293V13.5898C248.661 14.3945 248.853 15.0195 249.236 15.4648C249.619 15.9023 250.158 16.1211 250.853 16.1211C251.298 16.1211 251.677 16.0352 251.99 15.8633C252.302 15.6836 252.54 15.4297 252.704 15.1016C252.869 14.7734 252.951 14.3789 252.951 13.918L253.115 16.5898C252.872 17.2227 252.482 17.7344 251.943 18.125C251.411 18.5078 250.767 18.6992 250.009 18.6992Z" fill="#171717"/>
<path d="M281.47 0.924406C281.497 0.834733 281.507 0.740507 281.498 0.647107C281.489 0.553706 281.463 0.462962 281.42 0.380053C281.377 0.297145 281.318 0.223697 281.247 0.163902C281.176 0.104108 281.095 0.0591382 281.007 0.031561C280.919 0.00398378 280.827 -0.00566098 280.735 0.00317731C280.644 0.0120156 280.555 0.0391639 280.473 0.0830722C280.392 0.12698 280.32 0.186789 280.262 0.259082C280.203 0.331376 280.159 0.414739 280.132 0.504412L274.533 19.0756C274.478 19.2567 274.496 19.4525 274.583 19.6199C274.67 19.7874 274.818 19.9127 274.996 19.9684C275.173 20.0241 275.365 20.0056 275.529 19.9169C275.693 19.8283 275.816 19.6767 275.871 19.4956L281.47 0.924406ZM273.597 4.49436C273.663 4.56071 273.714 4.63953 273.75 4.72631C273.785 4.81309 273.803 4.90611 273.803 5.00007C273.803 5.09402 273.785 5.18705 273.75 5.27383C273.714 5.3606 273.663 5.43942 273.597 5.50577L269.192 10L273.597 14.4942C273.729 14.6283 273.803 14.8103 273.803 14.9999C273.803 15.1896 273.729 15.3715 273.597 15.5056C273.466 15.6398 273.288 15.7151 273.102 15.7151C272.916 15.7151 272.738 15.6398 272.606 15.5056L267.707 10.5057C267.642 10.4394 267.59 10.3605 267.555 10.2738C267.52 10.187 267.501 10.094 267.501 10C267.501 9.90605 267.52 9.81302 267.555 9.72624C267.59 9.63946 267.642 9.56064 267.707 9.49429L272.606 4.49436C272.671 4.42784 272.749 4.37507 272.834 4.33906C272.919 4.30305 273.01 4.28451 273.102 4.28451C273.194 4.28451 273.285 4.30305 273.37 4.33906C273.455 4.37507 273.532 4.42784 273.597 4.49436ZM282.405 4.49436C282.34 4.56071 282.288 4.63953 282.253 4.72631C282.218 4.81309 282.2 4.90611 282.2 5.00007C282.2 5.09402 282.218 5.18705 282.253 5.27383C282.288 5.3606 282.34 5.43942 282.405 5.50577L286.81 10L282.405 14.4942C282.34 14.5606 282.289 14.6395 282.253 14.7262C282.218 14.813 282.2 14.906 282.2 14.9999C282.2 15.0939 282.218 15.1869 282.253 15.2736C282.289 15.3604 282.34 15.4392 282.405 15.5056C282.47 15.5721 282.548 15.6247 282.633 15.6607C282.718 15.6966 282.809 15.7151 282.901 15.7151C282.993 15.7151 283.084 15.6966 283.169 15.6607C283.254 15.6247 283.331 15.5721 283.396 15.5056L288.296 10.5057C288.361 10.4394 288.413 10.3605 288.448 10.2738C288.483 10.187 288.501 10.094 288.501 10C288.501 9.90605 288.483 9.81302 288.448 9.72624C288.413 9.63946 288.361 9.56064 288.296 9.49429L283.396 4.49436C283.331 4.42784 283.254 4.37507 283.169 4.33906C283.084 4.30305 282.993 4.28451 282.901 4.28451C282.809 4.28451 282.718 4.30305 282.633 4.33906C282.547 4.37507 282.47 4.42784 282.405 4.49436Z" fill="#171717"/>
</svg>
