<svg width="284" height="24" viewBox="0 0 284 24" fill="none" xmlns="http://www.w3.org/2000/svg">
<path d="M2.01697 1.46094H4.81775V18.5H2.01697V1.46094ZM3.32947 15.8164H13.1967V18.5H3.32947V15.8164ZM15.4584 1.46094H18.2474V4.26172H15.4584V1.46094ZM15.4584 6.33594H18.2474V18.5H15.4584V6.33594ZM21.5638 6.33594H24.3646V18.5H21.5638V6.33594ZM28.7709 11.1289C28.7709 10.4023 28.5756 9.83984 28.1849 9.44141C27.7943 9.04297 27.2396 8.84375 26.5209 8.84375C25.8334 8.84375 25.3021 9.03125 24.9271 9.40625C24.5521 9.77344 24.3646 10.2969 24.3646 10.9766L24.1185 8.45703C24.4857 7.70703 24.9467 7.13672 25.5013 6.74609C26.0638 6.35547 26.724 6.16016 27.4818 6.16016C28.7787 6.16016 29.7826 6.59375 30.4935 7.46094C31.2123 8.32031 31.5717 9.53906 31.5717 11.1172V18.5H28.7709V11.1289ZM39.1654 23.4453C38.2279 23.4453 37.3881 23.2734 36.6459 22.9297C35.9037 22.5938 35.3256 22.1172 34.9115 21.5L36.7982 19.7773C37.0873 20.1445 37.4349 20.4258 37.8412 20.6211C38.2552 20.8164 38.6849 20.9141 39.1302 20.9141C39.9271 20.9141 40.556 20.6953 41.017 20.2578C41.4779 19.8281 41.7084 19.2188 41.7084 18.4297V6.33594H44.5092V18.1367C44.5092 19.2539 44.2982 20.2109 43.8763 21.0078C43.4623 21.8047 42.8529 22.4102 42.0482 22.8242C41.2513 23.2383 40.2904 23.4453 39.1654 23.4453ZM38.767 18.6992C37.892 18.6992 37.142 18.5 36.517 18.1016C35.8998 17.6953 35.4271 17.1133 35.099 16.3555C34.7787 15.5898 34.6185 14.668 34.6185 13.5898V11.2695C34.6185 10.1914 34.7787 9.26953 35.099 8.50391C35.4193 7.73047 35.8842 7.14453 36.4935 6.74609C37.1107 6.33984 37.849 6.13672 38.7084 6.13672C39.3959 6.13672 40.0209 6.32812 40.5834 6.71094C41.1537 7.09375 41.6107 7.63281 41.9545 8.32812L41.7084 10.918C41.7084 10.4492 41.6263 10.0508 41.4623 9.72266C41.2982 9.39453 41.0599 9.14453 40.7474 8.97266C40.4349 8.80078 40.056 8.71484 39.6107 8.71484C38.9154 8.71484 38.3763 8.94141 37.9935 9.39453C37.6107 9.84766 37.4193 10.4805 37.4193 11.293V13.5898C37.4193 14.3945 37.6107 15.0195 37.9935 15.4648C38.3763 15.9023 38.9154 16.1211 39.6107 16.1211C40.056 16.1211 40.4349 16.0352 40.7474 15.8633C41.0599 15.6836 41.2982 15.4297 41.4623 15.1016C41.6263 14.7734 41.7084 14.3789 41.7084 13.918L41.8724 16.5898C41.6302 17.2227 41.2396 17.7344 40.7006 18.125C40.1693 18.5078 39.5248 18.6992 38.767 18.6992ZM55.0677 6.33594H57.8568V18.5H55.0677V6.33594ZM50.7084 13.7305C50.7084 14.4492 50.8998 15.0078 51.2826 15.4062C51.6654 15.7969 52.2045 15.9922 52.8998 15.9922C53.5951 15.9922 54.1302 15.8086 54.5052 15.4414C54.8802 15.0664 55.0677 14.5312 55.0677 13.8359L55.2318 16.4375C54.9974 17.0703 54.6068 17.6016 54.0599 18.0312C53.5131 18.4609 52.8451 18.6758 52.056 18.6758C50.7357 18.6758 49.7123 18.25 48.9857 17.3984C48.267 16.5469 47.9076 15.3438 47.9076 13.7891V6.33594H50.7084V13.7305ZM68.0521 10.7891C68.0521 10.1094 67.849 9.58203 67.4427 9.20703C67.0443 8.83203 66.4779 8.64453 65.7435 8.64453C65.2748 8.64453 64.8138 8.71875 64.3607 8.86719C63.9076 9.01562 63.5013 9.22266 63.142 9.48828L61.2787 7.91797C61.7552 7.36328 62.3802 6.93359 63.1537 6.62891C63.9271 6.31641 64.7865 6.16016 65.7318 6.16016C66.7631 6.16016 67.6459 6.33984 68.3802 6.69922C69.1146 7.05078 69.6732 7.56641 70.056 8.24609C70.4467 8.91797 70.642 9.73047 70.642 10.6836V18.5H68.0521V10.7891ZM64.8646 18.6758C63.4662 18.6758 62.4193 18.3672 61.724 17.75C61.0287 17.125 60.681 16.1797 60.681 14.9141C60.681 13.7109 61.0326 12.8086 61.7357 12.207C62.4388 11.6055 63.4935 11.3047 64.8998 11.3047H68.1576L68.3217 13.4844H64.9115C64.3568 13.4844 63.9388 13.6016 63.6576 13.8359C63.3842 14.0703 63.2474 14.4297 63.2474 14.9141C63.2474 15.4219 63.4271 15.8008 63.7865 16.0508C64.1459 16.293 64.6888 16.4141 65.4154 16.4141C66.306 16.4141 66.9662 16.3164 67.3959 16.1211C67.8334 15.9258 68.0521 15.6211 68.0521 15.207L68.2982 16.9414C68.1654 17.3242 67.931 17.6445 67.5951 17.9023C67.267 18.1602 66.8685 18.3555 66.3998 18.4883C65.931 18.6133 65.4193 18.6758 64.8646 18.6758ZM78.2357 23.4453C77.2982 23.4453 76.4584 23.2734 75.7162 22.9297C74.974 22.5938 74.3959 22.1172 73.9818 21.5L75.8685 19.7773C76.1576 20.1445 76.5052 20.4258 76.9115 20.6211C77.3256 20.8164 77.7552 20.9141 78.2006 20.9141C78.9974 20.9141 79.6263 20.6953 80.0873 20.2578C80.5482 19.8281 80.7787 19.2188 80.7787 18.4297V6.33594H83.5795V18.1367C83.5795 19.2539 83.3685 20.2109 82.9467 21.0078C82.5326 21.8047 81.9232 22.4102 81.1185 22.8242C80.3217 23.2383 79.3607 23.4453 78.2357 23.4453ZM77.8373 18.6992C76.9623 18.6992 76.2123 18.5 75.5873 18.1016C74.9701 17.6953 74.4974 17.1133 74.1693 16.3555C73.849 15.5898 73.6888 14.668 73.6888 13.5898V11.2695C73.6888 10.1914 73.849 9.26953 74.1693 8.50391C74.4896 7.73047 74.9545 7.14453 75.5638 6.74609C76.181 6.33984 76.9193 6.13672 77.7787 6.13672C78.4662 6.13672 79.0912 6.32812 79.6537 6.71094C80.224 7.09375 80.681 7.63281 81.0248 8.32812L80.7787 10.918C80.7787 10.4492 80.6967 10.0508 80.5326 9.72266C80.3685 9.39453 80.1302 9.14453 79.8177 8.97266C79.5052 8.80078 79.1263 8.71484 78.681 8.71484C77.9857 8.71484 77.4467 8.94141 77.0638 9.39453C76.681 9.84766 76.4896 10.4805 76.4896 11.293V13.5898C76.4896 14.3945 76.681 15.0195 77.0638 15.4648C77.4467 15.9023 77.9857 16.1211 78.681 16.1211C79.1263 16.1211 79.5052 16.0352 79.8177 15.8633C80.1302 15.6836 80.3685 15.4297 80.5326 15.1016C80.6967 14.7734 80.7787 14.3789 80.7787 13.918L80.9427 16.5898C80.7006 17.2227 80.3099 17.7344 79.7709 18.125C79.2396 18.5078 78.5951 18.6992 77.8373 18.6992ZM92.0756 18.6758C90.9271 18.6758 89.9467 18.4648 89.1342 18.043C88.3217 17.6211 87.7006 17.0039 87.2709 16.1914C86.8412 15.3711 86.6263 14.3828 86.6263 13.2266V11.8555C86.6263 10.6523 86.8295 9.625 87.2357 8.77344C87.6498 7.92188 88.2474 7.27344 89.0287 6.82812C89.8177 6.38281 90.7631 6.16016 91.8646 6.16016C92.9037 6.16016 93.7904 6.42187 94.5248 6.94531C95.267 7.46094 95.8295 8.21094 96.2123 9.19531C96.6029 10.1797 96.7982 11.3672 96.7982 12.7578V13.5547H88.5365V11.5039H94.1967L94.1849 11.375C94.1068 10.5234 93.8685 9.86328 93.4701 9.39453C93.0717 8.92578 92.5365 8.69141 91.8646 8.69141C91.0209 8.69141 90.3685 8.95703 89.9076 9.48828C89.4467 10.0117 89.2162 10.7578 89.2162 11.7266V13.2734C89.2162 14.1953 89.4662 14.9062 89.9662 15.4062C90.4662 15.8984 91.1693 16.1445 92.0756 16.1445C92.5365 16.1445 92.9896 16.0586 93.4349 15.8867C93.8881 15.707 94.2943 15.4609 94.6537 15.1484L96.4818 16.8594C95.8646 17.4375 95.1693 17.8867 94.3959 18.207C93.6302 18.5195 92.8568 18.6758 92.0756 18.6758ZM99.8451 6.33594H102.646V18.5H99.8451V6.33594ZM107.052 11.1289C107.052 10.4023 106.857 9.83984 106.466 9.44141C106.076 9.04297 105.521 8.84375 104.802 8.84375C104.115 8.84375 103.583 9.03125 103.208 9.40625C102.833 9.77344 102.646 10.2969 102.646 10.9766L102.4 8.45703C102.767 7.70703 103.228 7.13672 103.783 6.74609C104.345 6.35547 105.005 6.16016 105.763 6.16016C107.06 6.16016 108.064 6.59375 108.775 7.46094C109.494 8.32031 109.853 9.53906 109.853 11.1172V18.5H107.052V11.1289ZM117.728 18.6758C117.001 18.6758 116.31 18.6094 115.654 18.4766C114.997 18.3359 114.38 18.1328 113.802 17.8672C113.232 17.6016 112.716 17.2773 112.255 16.8945L113.954 14.7852C114.572 15.2227 115.201 15.5547 115.841 15.7812C116.49 16.0078 117.119 16.1211 117.728 16.1211C118.579 16.1211 119.224 16.0078 119.661 15.7812C120.107 15.5469 120.329 15.2109 120.329 14.7734C120.329 14.4375 120.22 14.1875 120.001 14.0234C119.783 13.8516 119.505 13.7344 119.169 13.6719C118.841 13.6094 118.376 13.5508 117.775 13.4961C117.673 13.4883 117.568 13.4805 117.458 13.4727C117.349 13.4648 117.244 13.4531 117.142 13.4375C117.111 13.4375 117.079 13.4375 117.048 13.4375C117.017 13.4297 116.986 13.4258 116.954 13.4258C116.103 13.332 115.404 13.2031 114.857 13.0391C114.31 12.8672 113.849 12.543 113.474 12.0664C113.107 11.5898 112.923 10.9062 112.923 10.0156C112.923 9.17969 113.107 8.47656 113.474 7.90625C113.849 7.32812 114.396 6.89453 115.115 6.60547C115.833 6.30859 116.716 6.16016 117.763 6.16016C118.388 6.16016 118.997 6.22266 119.591 6.34766C120.185 6.46484 120.751 6.64062 121.29 6.875C121.837 7.10156 122.353 7.38672 122.837 7.73047L121.161 9.76953C120.591 9.42578 120.013 9.16406 119.427 8.98438C118.849 8.80469 118.286 8.71484 117.74 8.71484C117.005 8.71484 116.447 8.82031 116.064 9.03125C115.681 9.24219 115.49 9.55469 115.49 9.96875C115.49 10.2344 115.595 10.4375 115.806 10.5781C116.017 10.7188 116.279 10.8164 116.591 10.8711C116.911 10.918 117.372 10.9688 117.974 11.0234C118.036 11.0312 118.095 11.0391 118.15 11.0469C118.212 11.0469 118.275 11.0508 118.337 11.0586C118.361 11.0586 118.388 11.0586 118.419 11.0586C118.451 11.0586 118.482 11.0625 118.513 11.0703C119.411 11.1562 120.158 11.2852 120.751 11.457C121.345 11.6289 121.849 11.9727 122.263 12.4883C122.677 12.9961 122.884 13.7383 122.884 14.7148C122.884 15.5742 122.689 16.3008 122.298 16.8945C121.908 17.4805 121.326 17.9258 120.552 18.2305C119.786 18.5273 118.845 18.6758 117.728 18.6758ZM140.251 11.0586V13.7305H132.142V11.0586H140.251ZM151.736 15.8516H156.763C157.74 15.8516 158.466 15.6484 158.943 15.2422C159.419 14.8281 159.658 14.2539 159.658 13.5195V13.4844C159.658 12.9766 159.564 12.543 159.376 12.1836C159.189 11.8242 158.9 11.5508 158.509 11.3633C158.119 11.168 157.634 11.0703 157.056 11.0703H151.736V8.44531H157.056C157.829 8.44531 158.419 8.25781 158.826 7.88281C159.232 7.50781 159.435 6.96484 159.435 6.25391C159.435 5.55078 159.22 5.01953 158.79 4.66016C158.361 4.29297 157.728 4.10938 156.892 4.10938H151.736V1.46094H157.161C158.263 1.46094 159.193 1.64844 159.951 2.02344C160.716 2.39062 161.29 2.91797 161.673 3.60547C162.064 4.29297 162.259 5.11719 162.259 6.07812C162.259 6.70312 162.134 7.27344 161.884 7.78906C161.642 8.29688 161.279 8.72266 160.794 9.06641C160.318 9.41016 159.732 9.64453 159.036 9.76953C159.755 9.87109 160.372 10.1094 160.888 10.4844C161.404 10.8516 161.798 11.3242 162.072 11.9023C162.345 12.4727 162.482 13.1133 162.482 13.8242V13.8594C162.482 14.8047 162.275 15.6289 161.861 16.332C161.454 17.0273 160.865 17.5625 160.091 17.9375C159.326 18.3125 158.415 18.5 157.361 18.5H151.736V15.8516ZM150.329 1.46094H153.119V18.5H150.329V1.46094ZM172.372 10.7891C172.372 10.1094 172.169 9.58203 171.763 9.20703C171.365 8.83203 170.798 8.64453 170.064 8.64453C169.595 8.64453 169.134 8.71875 168.681 8.86719C168.228 9.01562 167.822 9.22266 167.462 9.48828L165.599 7.91797C166.076 7.36328 166.701 6.93359 167.474 6.62891C168.247 6.31641 169.107 6.16016 170.052 6.16016C171.083 6.16016 171.966 6.33984 172.701 6.69922C173.435 7.05078 173.994 7.56641 174.376 8.24609C174.767 8.91797 174.962 9.73047 174.962 10.6836V18.5H172.372V10.7891ZM169.185 18.6758C167.786 18.6758 166.74 18.3672 166.044 17.75C165.349 17.125 165.001 16.1797 165.001 14.9141C165.001 13.7109 165.353 12.8086 166.056 12.207C166.759 11.6055 167.814 11.3047 169.22 11.3047H172.478L172.642 13.4844H169.232C168.677 13.4844 168.259 13.6016 167.978 13.8359C167.704 14.0703 167.568 14.4297 167.568 14.9141C167.568 15.4219 167.747 15.8008 168.107 16.0508C168.466 16.293 169.009 16.4141 169.736 16.4141C170.626 16.4141 171.286 16.3164 171.716 16.1211C172.154 15.9258 172.372 15.6211 172.372 15.207L172.619 16.9414C172.486 17.3242 172.251 17.6445 171.915 17.9023C171.587 18.1602 171.189 18.3555 170.72 18.4883C170.251 18.6133 169.74 18.6758 169.185 18.6758ZM183.388 18.6758C182.255 18.6758 181.286 18.4648 180.482 18.043C179.677 17.6133 179.064 16.9922 178.642 16.1797C178.22 15.3594 178.009 14.3711 178.009 13.2148V11.5625C178.009 10.4219 178.22 9.44922 178.642 8.64453C179.064 7.83203 179.677 7.21484 180.482 6.79297C181.286 6.37109 182.255 6.16016 183.388 6.16016C184.036 6.16016 184.646 6.23828 185.216 6.39453C185.794 6.54297 186.31 6.76172 186.763 7.05078C187.224 7.33984 187.607 7.69141 187.911 8.10547L186.013 9.88672C185.693 9.55078 185.318 9.29297 184.888 9.11328C184.458 8.93359 184.009 8.84375 183.54 8.84375C182.673 8.84375 182.001 9.08203 181.525 9.55859C181.048 10.0273 180.81 10.6953 180.81 11.5625V13.2148C180.81 14.1055 181.044 14.793 181.513 15.2773C181.99 15.7539 182.665 15.9922 183.54 15.9922C184.017 15.9922 184.47 15.8945 184.9 15.6992C185.329 15.5039 185.701 15.2266 186.013 14.8672L187.911 16.7656C187.599 17.1719 187.212 17.5195 186.751 17.8086C186.298 18.0898 185.783 18.3047 185.204 18.4531C184.634 18.6016 184.029 18.6758 183.388 18.6758ZM191.579 14L197.544 6.33594H200.65L191.72 17.1875L191.579 14ZM190.314 1.46094H193.115V18.5H190.314V1.46094ZM194.427 11.8438L196.525 10.25L201.247 18.5H198.095L194.427 11.8438ZM211.126 11.0586V13.7305H203.017V11.0586H211.126ZM219.622 18.6758C218.474 18.6758 217.494 18.4648 216.681 18.043C215.869 17.6211 215.247 17.0039 214.818 16.1914C214.388 15.3711 214.173 14.3828 214.173 13.2266V11.8555C214.173 10.6523 214.376 9.625 214.783 8.77344C215.197 7.92188 215.794 7.27344 216.576 6.82812C217.365 6.38281 218.31 6.16016 219.411 6.16016C220.451 6.16016 221.337 6.42187 222.072 6.94531C222.814 7.46094 223.376 8.21094 223.759 9.19531C224.15 10.1797 224.345 11.3672 224.345 12.7578V13.5547H216.083V11.5039H221.744L221.732 11.375C221.654 10.5234 221.415 9.86328 221.017 9.39453C220.619 8.92578 220.083 8.69141 219.411 8.69141C218.568 8.69141 217.915 8.95703 217.454 9.48828C216.994 10.0117 216.763 10.7578 216.763 11.7266V13.2734C216.763 14.1953 217.013 14.9062 217.513 15.4062C218.013 15.8984 218.716 16.1445 219.622 16.1445C220.083 16.1445 220.536 16.0586 220.982 15.8867C221.435 15.707 221.841 15.4609 222.201 15.1484L224.029 16.8594C223.411 17.4375 222.716 17.8867 221.943 18.207C221.177 18.5195 220.404 18.6758 219.622 18.6758ZM227.392 6.33594H230.193V18.5H227.392V6.33594ZM234.599 11.1289C234.599 10.4023 234.404 9.83984 234.013 9.44141C233.622 9.04297 233.068 8.84375 232.349 8.84375C231.661 8.84375 231.13 9.03125 230.755 9.40625C230.38 9.77344 230.193 10.2969 230.193 10.9766L229.947 8.45703C230.314 7.70703 230.775 7.13672 231.329 6.74609C231.892 6.35547 232.552 6.16016 233.31 6.16016C234.607 6.16016 235.611 6.59375 236.322 7.46094C237.04 8.32031 237.4 9.53906 237.4 11.1172V18.5H234.599V11.1289ZM247.536 1.46094H250.337V18.5H247.536V1.46094ZM244.595 18.6992C243.72 18.6992 242.97 18.5 242.345 18.1016C241.728 17.6953 241.255 17.1133 240.927 16.3555C240.607 15.5898 240.447 14.668 240.447 13.5898V11.2695C240.447 10.1914 240.607 9.26953 240.927 8.50391C241.247 7.73047 241.712 7.14453 242.322 6.74609C242.939 6.33984 243.677 6.13672 244.536 6.13672C245.224 6.13672 245.849 6.32812 246.411 6.71094C246.982 7.09375 247.439 7.63281 247.783 8.32812L247.536 10.918C247.536 10.4492 247.454 10.0508 247.29 9.72266C247.126 9.39453 246.888 9.14453 246.576 8.97266C246.263 8.80078 245.884 8.71484 245.439 8.71484C244.744 8.71484 244.204 8.94141 243.822 9.39453C243.439 9.84766 243.247 10.4805 243.247 11.293V13.5898C243.247 14.3945 243.439 15.0195 243.822 15.4648C244.204 15.9023 244.744 16.1211 245.439 16.1211C245.884 16.1211 246.263 16.0352 246.576 15.8633C246.888 15.6836 247.126 15.4297 247.29 15.1016C247.454 14.7734 247.536 14.3789 247.536 13.918L247.701 16.5898C247.458 17.2227 247.068 17.7344 246.529 18.125C245.997 18.5078 245.353 18.6992 244.595 18.6992Z" fill="#171717"/>
<path d="M263.752 9.86375V10.1363C265.331 10.3068 266.104 11.1644 266.104 12.8112V15.8154C266.104 17.6444 266.717 18.3867 268.232 18.3867H268.661V20H268.07C265.537 20 264.343 18.7311 264.343 16.0679V13.52C264.343 11.691 263.752 11.0858 262.001 11.0858V8.91415C263.752 8.91415 264.343 8.30895 264.343 6.47998V3.93213C264.343 1.26891 265.535 0 268.07 0H268.661V1.61164H268.232C266.717 1.61164 266.104 2.35393 266.104 4.1829V7.18883C266.104 8.83391 265.331 9.69155 263.752 9.86375ZM282.251 10.1363V9.86375C280.671 9.69155 279.898 8.83391 279.898 7.18883V4.1829C279.898 2.35393 279.285 1.61164 277.771 1.61164H277.342V0H277.932C280.467 0 281.66 1.26891 281.66 3.93213V6.47998C281.66 8.30895 282.251 8.91415 284.001 8.91415V11.0858C282.251 11.0858 281.66 11.691 281.66 13.52V16.0679C281.66 18.7311 280.466 20 277.932 20H277.342V18.3884H277.771C279.285 18.3884 279.898 17.6461 279.898 15.8171V12.8112C279.898 11.1661 280.671 10.3085 282.251 10.1363Z" fill="#171717"/>
</svg>
