<svg width="374" height="30" viewBox="0 0 374 30" fill="none" xmlns="http://www.w3.org/2000/svg">
<path d="M2.97009 0.28125H6.70447V23H2.97009V0.28125ZM4.72009 19.4219H17.8763V23H4.72009V19.4219ZM20.892 0.28125H24.6107V4.01562H20.892V0.28125ZM20.892 6.78125H24.6107V23H20.892V6.78125ZM29.0326 6.78125H32.767V23H29.0326V6.78125ZM38.642 13.1719C38.642 12.2031 38.3816 11.4531 37.8607 10.9219C37.3399 10.3906 36.6003 10.125 35.642 10.125C34.7253 10.125 34.017 10.375 33.517 10.875C33.017 11.3646 32.767 12.0625 32.767 12.9688L32.4388 9.60938C32.9284 8.60938 33.543 7.84896 34.2826 7.32812C35.0326 6.80729 35.9128 6.54688 36.9232 6.54688C38.6524 6.54688 39.9909 7.125 40.9388 8.28125C41.8972 9.42708 42.3763 11.0521 42.3763 13.1562V23H38.642V13.1719ZM52.5013 29.5938C51.2513 29.5938 50.1316 29.3646 49.142 28.9062C48.1524 28.4583 47.3816 27.8229 46.8295 27L49.3451 24.7031C49.7305 25.1927 50.1941 25.5677 50.7357 25.8281C51.2878 26.0885 51.8607 26.2188 52.4545 26.2188C53.517 26.2188 54.3555 25.9271 54.9701 25.3438C55.5847 24.7708 55.892 23.9583 55.892 22.9062V6.78125H59.6263V22.5156C59.6263 24.0052 59.3451 25.2812 58.7826 26.3438C58.2305 27.4062 57.418 28.2135 56.3451 28.7656C55.2826 29.3177 54.0013 29.5938 52.5013 29.5938ZM51.9701 23.2656C50.8034 23.2656 49.8034 23 48.9701 22.4688C48.1472 21.9271 47.517 21.151 47.0795 20.1406C46.6524 19.1198 46.4388 17.8906 46.4388 16.4531V13.3594C46.4388 11.9219 46.6524 10.6927 47.0795 9.67188C47.5066 8.64062 48.1263 7.85938 48.9388 7.32812C49.7618 6.78646 50.7461 6.51562 51.892 6.51562C52.8086 6.51562 53.642 6.77083 54.392 7.28125C55.1524 7.79167 55.7618 8.51042 56.2201 9.4375L55.892 12.8906C55.892 12.2656 55.7826 11.7344 55.5638 11.2969C55.3451 10.8594 55.0274 10.526 54.6107 10.2969C54.1941 10.0677 53.6888 9.95312 53.0951 9.95312C52.168 9.95312 51.4493 10.2552 50.9388 10.8594C50.4284 11.4635 50.1732 12.3073 50.1732 13.3906V16.4531C50.1732 17.526 50.4284 18.3594 50.9388 18.9531C51.4493 19.5365 52.168 19.8281 53.0951 19.8281C53.6888 19.8281 54.1941 19.7135 54.6107 19.4844C55.0274 19.2448 55.3451 18.9062 55.5638 18.4688C55.7826 18.0312 55.892 17.5052 55.892 16.8906L56.1107 20.4531C55.7878 21.2969 55.267 21.9792 54.5482 22.5C53.8399 23.0104 52.9805 23.2656 51.9701 23.2656ZM73.7045 6.78125H77.4232V23H73.7045V6.78125ZM67.892 16.6406C67.892 17.599 68.1472 18.3438 68.6576 18.875C69.168 19.3958 69.8868 19.6562 70.8138 19.6562C71.7409 19.6562 72.4545 19.4115 72.9545 18.9219C73.4545 18.4219 73.7045 17.7083 73.7045 16.7812L73.9232 20.25C73.6107 21.0938 73.0899 21.8021 72.3607 22.375C71.6316 22.9479 70.7409 23.2344 69.6888 23.2344C67.9284 23.2344 66.5638 22.6667 65.5951 21.5312C64.6368 20.3958 64.1576 18.7917 64.1576 16.7188V6.78125H67.892V16.6406ZM91.017 12.7188C91.017 11.8125 90.7461 11.1094 90.2045 10.6094C89.6732 10.1094 88.918 9.85938 87.9388 9.85938C87.3138 9.85938 86.6993 9.95833 86.0951 10.1562C85.4909 10.3542 84.9493 10.6302 84.4701 10.9844L81.9857 8.89062C82.6211 8.15104 83.4545 7.57812 84.4857 7.17188C85.517 6.75521 86.6628 6.54688 87.9232 6.54688C89.2982 6.54688 90.4753 6.78646 91.4545 7.26562C92.4336 7.73438 93.1784 8.42188 93.6888 9.32812C94.2097 10.224 94.4701 11.3073 94.4701 12.5781V23H91.017V12.7188ZM86.767 23.2344C84.9024 23.2344 83.5066 22.8229 82.5795 22C81.6524 21.1667 81.1888 19.9062 81.1888 18.2188C81.1888 16.6146 81.6576 15.4115 82.5951 14.6094C83.5326 13.8073 84.9388 13.4062 86.8138 13.4062H91.1576L91.3763 16.3125H86.8295C86.0899 16.3125 85.5326 16.4688 85.1576 16.7812C84.793 17.0938 84.6107 17.5729 84.6107 18.2188C84.6107 18.8958 84.8503 19.401 85.3295 19.7344C85.8086 20.0573 86.5326 20.2188 87.5013 20.2188C88.6888 20.2188 89.5691 20.0885 90.142 19.8281C90.7253 19.5677 91.017 19.1615 91.017 18.6094L91.3451 20.9219C91.168 21.4323 90.8555 21.8594 90.4076 22.2031C89.9701 22.5469 89.4388 22.8073 88.8138 22.9844C88.1888 23.151 87.5066 23.2344 86.767 23.2344ZM104.595 29.5938C103.345 29.5938 102.225 29.3646 101.236 28.9062C100.246 28.4583 99.4753 27.8229 98.9232 27L101.439 24.7031C101.824 25.1927 102.288 25.5677 102.829 25.8281C103.382 26.0885 103.954 26.2188 104.548 26.2188C105.611 26.2188 106.449 25.9271 107.064 25.3438C107.678 24.7708 107.986 23.9583 107.986 22.9062V6.78125H111.72V22.5156C111.72 24.0052 111.439 25.2812 110.876 26.3438C110.324 27.4062 109.512 28.2135 108.439 28.7656C107.376 29.3177 106.095 29.5938 104.595 29.5938ZM104.064 23.2656C102.897 23.2656 101.897 23 101.064 22.4688C100.241 21.9271 99.6107 21.151 99.1732 20.1406C98.7461 19.1198 98.5326 17.8906 98.5326 16.4531V13.3594C98.5326 11.9219 98.7461 10.6927 99.1732 9.67188C99.6003 8.64062 100.22 7.85938 101.033 7.32812C101.856 6.78646 102.84 6.51562 103.986 6.51562C104.902 6.51562 105.736 6.77083 106.486 7.28125C107.246 7.79167 107.856 8.51042 108.314 9.4375L107.986 12.8906C107.986 12.2656 107.876 11.7344 107.658 11.2969C107.439 10.8594 107.121 10.526 106.704 10.2969C106.288 10.0677 105.783 9.95312 105.189 9.95312C104.262 9.95312 103.543 10.2552 103.033 10.8594C102.522 11.4635 102.267 12.3073 102.267 13.3906V16.4531C102.267 17.526 102.522 18.3594 103.033 18.9531C103.543 19.5365 104.262 19.8281 105.189 19.8281C105.783 19.8281 106.288 19.7135 106.704 19.4844C107.121 19.2448 107.439 18.9062 107.658 18.4688C107.876 18.0312 107.986 17.5052 107.986 16.8906L108.204 20.4531C107.882 21.2969 107.361 21.9792 106.642 22.5C105.934 23.0104 105.074 23.2656 104.064 23.2656ZM123.048 23.2344C121.517 23.2344 120.21 22.9531 119.126 22.3906C118.043 21.8281 117.215 21.0052 116.642 19.9219C116.069 18.8281 115.783 17.5104 115.783 15.9688V14.1406C115.783 12.5365 116.053 11.1667 116.595 10.0312C117.147 8.89583 117.944 8.03125 118.986 7.4375C120.038 6.84375 121.298 6.54688 122.767 6.54688C124.152 6.54688 125.335 6.89583 126.314 7.59375C127.303 8.28125 128.053 9.28125 128.564 10.5938C129.085 11.9062 129.345 13.4896 129.345 15.3438V16.4062H118.329V13.6719H125.876L125.861 13.5C125.757 12.3646 125.439 11.4844 124.908 10.8594C124.376 10.2344 123.663 9.92188 122.767 9.92188C121.642 9.92188 120.772 10.276 120.158 10.9844C119.543 11.6823 119.236 12.6771 119.236 13.9688V16.0312C119.236 17.2604 119.569 18.2083 120.236 18.875C120.902 19.5312 121.84 19.8594 123.048 19.8594C123.663 19.8594 124.267 19.7448 124.861 19.5156C125.465 19.276 126.007 18.9479 126.486 18.5312L128.923 20.8125C128.1 21.5833 127.173 22.1823 126.142 22.6094C125.121 23.026 124.09 23.2344 123.048 23.2344ZM133.408 6.78125H137.142V23H133.408V6.78125ZM143.017 13.1719C143.017 12.2031 142.757 11.4531 142.236 10.9219C141.715 10.3906 140.975 10.125 140.017 10.125C139.1 10.125 138.392 10.375 137.892 10.875C137.392 11.3646 137.142 12.0625 137.142 12.9688L136.814 9.60938C137.303 8.60938 137.918 7.84896 138.658 7.32812C139.408 6.80729 140.288 6.54688 141.298 6.54688C143.027 6.54688 144.366 7.125 145.314 8.28125C146.272 9.42708 146.751 11.0521 146.751 13.1562V23H143.017V13.1719ZM157.251 23.2344C156.283 23.2344 155.361 23.1458 154.486 22.9688C153.611 22.7812 152.788 22.5104 152.017 22.1562C151.257 21.8021 150.569 21.3698 149.954 20.8594L152.22 18.0469C153.043 18.6302 153.882 19.0729 154.736 19.375C155.6 19.6771 156.439 19.8281 157.251 19.8281C158.387 19.8281 159.246 19.6771 159.829 19.375C160.423 19.0625 160.72 18.6146 160.72 18.0312C160.72 17.5833 160.574 17.25 160.283 17.0312C159.991 16.8021 159.621 16.6458 159.173 16.5625C158.736 16.4792 158.116 16.401 157.314 16.3281C157.178 16.3177 157.038 16.3073 156.892 16.2969C156.746 16.2865 156.606 16.2708 156.47 16.25C156.428 16.25 156.387 16.25 156.345 16.25C156.303 16.2396 156.262 16.2344 156.22 16.2344C155.085 16.1094 154.152 15.9375 153.423 15.7188C152.694 15.4896 152.079 15.0573 151.579 14.4219C151.09 13.7865 150.845 12.875 150.845 11.6875C150.845 10.5729 151.09 9.63542 151.579 8.875C152.079 8.10417 152.809 7.52604 153.767 7.14062C154.725 6.74479 155.902 6.54688 157.298 6.54688C158.132 6.54688 158.944 6.63021 159.736 6.79688C160.527 6.95312 161.283 7.1875 162.001 7.5C162.731 7.80208 163.418 8.18229 164.064 8.64062L161.829 11.3594C161.069 10.901 160.298 10.5521 159.517 10.3125C158.746 10.0729 157.996 9.95312 157.267 9.95312C156.288 9.95312 155.543 10.0938 155.033 10.375C154.522 10.6562 154.267 11.0729 154.267 11.625C154.267 11.9792 154.408 12.25 154.689 12.4375C154.97 12.625 155.319 12.7552 155.736 12.8281C156.163 12.8906 156.777 12.9583 157.579 13.0312C157.663 13.0417 157.741 13.0521 157.814 13.0625C157.897 13.0625 157.981 13.0677 158.064 13.0781C158.095 13.0781 158.132 13.0781 158.173 13.0781C158.215 13.0781 158.257 13.0833 158.298 13.0938C159.496 13.2083 160.491 13.3802 161.283 13.6094C162.074 13.8385 162.746 14.2969 163.298 14.9844C163.85 15.6615 164.126 16.651 164.126 17.9531C164.126 19.099 163.866 20.0677 163.345 20.8594C162.824 21.6406 162.048 22.2344 161.017 22.6406C159.996 23.0365 158.741 23.2344 157.251 23.2344ZM187.283 13.0781V16.6406H176.47V13.0781H187.283ZM200.72 0.28125H204.454V23H200.72V0.28125ZM202.283 10.1406H213.611V13.7031H202.283V10.1406ZM202.283 0.28125H215.329V3.85938H202.283V0.28125ZM218.314 6.78125H222.204V23H218.314V6.78125ZM227.345 10.9531C227.095 10.6823 226.788 10.4792 226.423 10.3438C226.059 10.1979 225.637 10.125 225.158 10.125C224.22 10.125 223.491 10.4062 222.97 10.9688C222.46 11.5208 222.204 12.2917 222.204 13.2812L221.876 9.60938C222.345 8.64062 222.954 7.89062 223.704 7.35938C224.465 6.81771 225.298 6.54688 226.204 6.54688C226.913 6.54688 227.553 6.65625 228.126 6.875C228.699 7.08333 229.199 7.39583 229.626 7.8125L227.345 10.9531ZM238.033 23.2344C236.595 23.2344 235.361 22.9583 234.329 22.4062C233.309 21.8542 232.527 21.0521 231.986 20C231.454 18.9375 231.189 17.6615 231.189 16.1719V13.5312C231.189 12.0625 231.454 10.8073 231.986 9.76562C232.527 8.71354 233.309 7.91667 234.329 7.375C235.361 6.82292 236.595 6.54688 238.033 6.54688C239.47 6.54688 240.699 6.82292 241.72 7.375C242.751 7.91667 243.533 8.71354 244.064 9.76562C244.606 10.8073 244.876 12.0625 244.876 13.5312V16.2188C244.876 17.6979 244.606 18.9635 244.064 20.0156C243.533 21.0573 242.751 21.8542 241.72 22.4062C240.699 22.9583 239.47 23.2344 238.033 23.2344ZM238.033 19.6562C239.022 19.6562 239.788 19.3594 240.329 18.7656C240.871 18.1615 241.142 17.3125 241.142 16.2188V13.5312C241.142 12.4479 240.871 11.6094 240.329 11.0156C239.788 10.4219 239.022 10.125 238.033 10.125C237.043 10.125 236.277 10.4219 235.736 11.0156C235.194 11.6094 234.923 12.4479 234.923 13.5312V16.2188C234.923 17.3125 235.189 18.1615 235.72 18.7656C236.262 19.3594 237.033 19.6562 238.033 19.6562ZM249.095 6.78125H252.829V23H249.095V6.78125ZM258.704 13.1719C258.704 12.2031 258.444 11.4531 257.923 10.9219C257.402 10.3906 256.663 10.125 255.704 10.125C254.788 10.125 254.079 10.375 253.579 10.875C253.079 11.3646 252.829 12.0625 252.829 12.9688L252.501 9.60938C252.991 8.60938 253.606 7.84896 254.345 7.32812C255.095 6.80729 255.975 6.54688 256.986 6.54688C258.715 6.54688 260.053 7.125 261.001 8.28125C261.96 9.42708 262.439 11.0521 262.439 13.1562V23H258.704V13.1719ZM271.345 23.0781C269.981 23.0781 268.981 22.7188 268.345 22C267.71 21.2708 267.392 20.1979 267.392 18.7812V2.0625H271.126V18.2656C271.126 18.6615 271.204 18.9688 271.361 19.1875C271.517 19.3958 271.746 19.5 272.048 19.5H273.345V23.0781H271.345ZM265.72 6.78125H273.345V10.0469H265.72V6.78125ZM288.22 13.0781V16.6406H277.408V13.0781H288.22ZM299.548 23.2344C298.017 23.2344 296.71 22.9531 295.626 22.3906C294.543 21.8281 293.715 21.0052 293.142 19.9219C292.569 18.8281 292.283 17.5104 292.283 15.9688V14.1406C292.283 12.5365 292.553 11.1667 293.095 10.0312C293.647 8.89583 294.444 8.03125 295.486 7.4375C296.538 6.84375 297.798 6.54688 299.267 6.54688C300.652 6.54688 301.835 6.89583 302.814 7.59375C303.803 8.28125 304.553 9.28125 305.064 10.5938C305.585 11.9062 305.845 13.4896 305.845 15.3438V16.4062H294.829V13.6719H302.376L302.361 13.5C302.257 12.3646 301.939 11.4844 301.408 10.8594C300.876 10.2344 300.163 9.92188 299.267 9.92188C298.142 9.92188 297.272 10.276 296.658 10.9844C296.043 11.6823 295.736 12.6771 295.736 13.9688V16.0312C295.736 17.2604 296.069 18.2083 296.736 18.875C297.402 19.5312 298.34 19.8594 299.548 19.8594C300.163 19.8594 300.767 19.7448 301.361 19.5156C301.965 19.276 302.507 18.9479 302.986 18.5312L305.423 20.8125C304.6 21.5833 303.673 22.1823 302.642 22.6094C301.621 23.026 300.59 23.2344 299.548 23.2344ZM309.908 6.78125H313.642V23H309.908V6.78125ZM319.517 13.1719C319.517 12.2031 319.257 11.4531 318.736 10.9219C318.215 10.3906 317.475 10.125 316.517 10.125C315.6 10.125 314.892 10.375 314.392 10.875C313.892 11.3646 313.642 12.0625 313.642 12.9688L313.314 9.60938C313.803 8.60938 314.418 7.84896 315.158 7.32812C315.908 6.80729 316.788 6.54688 317.798 6.54688C319.527 6.54688 320.866 7.125 321.814 8.28125C322.772 9.42708 323.251 11.0521 323.251 13.1562V23H319.517V13.1719ZM336.767 0.28125H340.501V23H336.767V0.28125ZM332.845 23.2656C331.678 23.2656 330.678 23 329.845 22.4688C329.022 21.9271 328.392 21.151 327.954 20.1406C327.527 19.1198 327.314 17.8906 327.314 16.4531V13.3594C327.314 11.9219 327.527 10.6927 327.954 9.67188C328.382 8.64062 329.001 7.85938 329.814 7.32812C330.637 6.78646 331.621 6.51562 332.767 6.51562C333.684 6.51562 334.517 6.77083 335.267 7.28125C336.027 7.79167 336.637 8.51042 337.095 9.4375L336.767 12.8906C336.767 12.2656 336.658 11.7344 336.439 11.2969C336.22 10.8594 335.902 10.526 335.486 10.2969C335.069 10.0677 334.564 9.95312 333.97 9.95312C333.043 9.95312 332.324 10.2552 331.814 10.8594C331.303 11.4635 331.048 12.3073 331.048 13.3906V16.4531C331.048 17.526 331.303 18.3594 331.814 18.9531C332.324 19.5365 333.043 19.8281 333.97 19.8281C334.564 19.8281 335.069 19.7135 335.486 19.4844C335.902 19.2448 336.22 18.9062 336.439 18.4688C336.658 18.0312 336.767 17.5052 336.767 16.8906L336.986 20.4531C336.663 21.2969 336.142 21.9792 335.423 22.5C334.715 23.0104 333.856 23.2656 332.845 23.2656Z" fill="#171717"/>
<path d="M366.97 2.42441C366.997 2.33473 367.007 2.24051 366.998 2.14711C366.989 2.05371 366.963 1.96296 366.92 1.88005C366.877 1.79714 366.818 1.7237 366.747 1.6639C366.676 1.60411 366.595 1.55914 366.507 1.53156C366.419 1.50398 366.327 1.49434 366.235 1.50318C366.144 1.51202 366.055 1.53916 365.973 1.58307C365.892 1.62698 365.82 1.68679 365.762 1.75908C365.703 1.83138 365.659 1.91474 365.632 2.00441L360.033 20.5756C359.978 20.7567 359.996 20.9525 360.083 21.1199C360.17 21.2874 360.318 21.4127 360.496 21.4684C360.673 21.5241 360.865 21.5056 361.029 21.4169C361.193 21.3283 361.316 21.1767 361.371 20.9956L366.97 2.42441ZM359.097 5.99436C359.163 6.06071 359.214 6.13953 359.25 6.22631C359.285 6.31309 359.303 6.40611 359.303 6.50007C359.303 6.59402 359.285 6.68705 359.25 6.77383C359.214 6.8606 359.163 6.93942 359.097 7.00577L354.692 11.5L359.097 15.9942C359.229 16.1283 359.303 16.3103 359.303 16.4999C359.303 16.6896 359.229 16.8715 359.097 17.0056C358.966 17.1398 358.788 17.2151 358.602 17.2151C358.416 17.2151 358.238 17.1398 358.106 17.0056L353.207 12.0057C353.142 11.9394 353.09 11.8605 353.055 11.7738C353.02 11.687 353.001 11.594 353.001 11.5C353.001 11.406 353.02 11.313 353.055 11.2262C353.09 11.1395 353.142 11.0606 353.207 10.9943L358.106 5.99436C358.171 5.92784 358.249 5.87507 358.334 5.83906C358.419 5.80305 358.51 5.78451 358.602 5.78451C358.694 5.78451 358.785 5.80305 358.87 5.83906C358.955 5.87507 359.032 5.92784 359.097 5.99436ZM367.905 5.99436C367.84 6.06071 367.788 6.13953 367.753 6.22631C367.718 6.31309 367.7 6.40611 367.7 6.50007C367.7 6.59402 367.718 6.68705 367.753 6.77383C367.788 6.8606 367.84 6.93942 367.905 7.00577L372.31 11.5L367.905 15.9942C367.84 16.0606 367.789 16.1395 367.753 16.2262C367.718 16.313 367.7 16.406 367.7 16.4999C367.7 16.5939 367.718 16.6869 367.753 16.7736C367.789 16.8604 367.84 16.9392 367.905 17.0056C367.97 17.0721 368.048 17.1247 368.133 17.1607C368.218 17.1966 368.309 17.2151 368.401 17.2151C368.493 17.2151 368.584 17.1966 368.669 17.1607C368.754 17.1247 368.831 17.0721 368.896 17.0056L373.796 12.0057C373.861 11.9394 373.913 11.8605 373.948 11.7738C373.983 11.687 374.001 11.594 374.001 11.5C374.001 11.406 373.983 11.313 373.948 11.2262C373.913 11.1395 373.861 11.0606 373.796 10.9943L368.896 5.99436C368.831 5.92784 368.754 5.87507 368.669 5.83906C368.584 5.80305 368.493 5.78451 368.401 5.78451C368.309 5.78451 368.218 5.80305 368.133 5.83906C368.047 5.87507 367.97 5.92784 367.905 5.99436Z" fill="#171717"/>
</svg>
