<svg width="294" height="24" viewBox="0 0 294 24" fill="none" xmlns="http://www.w3.org/2000/svg">
<path d="M2.36853 0.960938H5.16931V18H2.36853V0.960938ZM3.68103 15.3164H13.5482V18H3.68103V15.3164ZM22.6771 10.2891C22.6771 9.60938 22.474 9.08203 22.0677 8.70703C21.6693 8.33203 21.1029 8.14453 20.3685 8.14453C19.8998 8.14453 19.4388 8.21875 18.9857 8.36719C18.5326 8.51562 18.1263 8.72266 17.767 8.98828L15.9037 7.41797C16.3802 6.86328 17.0052 6.43359 17.7787 6.12891C18.5521 5.81641 19.4115 5.66016 20.3568 5.66016C21.3881 5.66016 22.2709 5.83984 23.0052 6.19922C23.7396 6.55078 24.2982 7.06641 24.681 7.74609C25.0717 8.41797 25.267 9.23047 25.267 10.1836V18H22.6771V10.2891ZM19.4896 18.1758C18.0912 18.1758 17.0443 17.8672 16.349 17.25C15.6537 16.625 15.306 15.6797 15.306 14.4141C15.306 13.2109 15.6576 12.3086 16.3607 11.707C17.0638 11.1055 18.1185 10.8047 19.5248 10.8047H22.7826L22.9467 12.9844H19.5365C18.9818 12.9844 18.5638 13.1016 18.2826 13.3359C18.0092 13.5703 17.8724 13.9297 17.8724 14.4141C17.8724 14.9219 18.0521 15.3008 18.4115 15.5508C18.7709 15.793 19.3138 15.9141 20.0404 15.9141C20.931 15.9141 21.5912 15.8164 22.0209 15.6211C22.4584 15.4258 22.6771 15.1211 22.6771 14.707L22.9232 16.4414C22.7904 16.8242 22.556 17.1445 22.2201 17.4023C21.892 17.6602 21.4935 17.8555 21.0248 17.9883C20.556 18.1133 20.0443 18.1758 19.4896 18.1758ZM38.0287 5.83594L32.7318 20.8477C32.5365 21.4023 32.2865 21.8398 31.9818 22.1602C31.6849 22.4883 31.3138 22.7227 30.8685 22.8633C30.4232 23.0039 29.8763 23.0742 29.2279 23.0742H28.6302V20.3672H29.2279C29.6263 20.3672 29.9467 20.2852 30.1888 20.1211C30.4388 19.957 30.642 19.6797 30.7982 19.2891L35.2982 5.83594H38.0287ZM27.0248 5.83594H29.7552L33.6693 16.4062L31.9935 18.9961L27.0248 5.83594ZM44.4623 18.1758C43.3842 18.1758 42.4584 17.9688 41.6849 17.5547C40.9193 17.1406 40.3334 16.5391 39.9271 15.75C39.5287 14.9531 39.3295 13.9961 39.3295 12.8789V10.8984C39.3295 9.79688 39.5287 8.85547 39.9271 8.07422C40.3334 7.28516 40.9193 6.6875 41.6849 6.28125C42.4584 5.86719 43.3842 5.66016 44.4623 5.66016C45.5404 5.66016 46.4623 5.86719 47.2279 6.28125C48.0013 6.6875 48.5873 7.28516 48.9857 8.07422C49.392 8.85547 49.5951 9.79688 49.5951 10.8984V12.9141C49.5951 14.0234 49.392 14.9727 48.9857 15.7617C48.5873 16.543 48.0013 17.1406 47.2279 17.5547C46.4623 17.9688 45.5404 18.1758 44.4623 18.1758ZM44.4623 15.4922C45.2045 15.4922 45.7787 15.2695 46.1849 14.8242C46.5912 14.3711 46.7943 13.7344 46.7943 12.9141V10.8984C46.7943 10.0859 46.5912 9.45703 46.1849 9.01172C45.7787 8.56641 45.2045 8.34375 44.4623 8.34375C43.7201 8.34375 43.1459 8.56641 42.7396 9.01172C42.3334 9.45703 42.1302 10.0859 42.1302 10.8984V12.9141C42.1302 13.7344 42.3295 14.3711 42.7279 14.8242C43.1342 15.2695 43.7123 15.4922 44.4623 15.4922ZM59.6146 5.83594H62.4037V18H59.6146V5.83594ZM55.2552 13.2305C55.2552 13.9492 55.4467 14.5078 55.8295 14.9062C56.2123 15.2969 56.7513 15.4922 57.4467 15.4922C58.142 15.4922 58.6771 15.3086 59.0521 14.9414C59.4271 14.5664 59.6146 14.0312 59.6146 13.3359L59.7787 15.9375C59.5443 16.5703 59.1537 17.1016 58.6068 17.5312C58.0599 17.9609 57.392 18.1758 56.6029 18.1758C55.2826 18.1758 54.2592 17.75 53.5326 16.8984C52.8138 16.0469 52.4545 14.8438 52.4545 13.2891V5.83594H55.2552V13.2305ZM69.0951 18.0586C68.0717 18.0586 67.3217 17.7891 66.8451 17.25C66.3685 16.7031 66.1302 15.8984 66.1302 14.8359V2.29688H68.931V14.4492C68.931 14.7461 68.9896 14.9766 69.1068 15.1406C69.224 15.2969 69.3959 15.375 69.6224 15.375H70.5951V18.0586H69.0951ZM64.8763 5.83594H70.5951V8.28516H64.8763V5.83594ZM81.9388 15.3164H85.9115C87.0677 15.3164 87.9623 15.0273 88.5951 14.4492C89.2357 13.8711 89.556 13.0508 89.556 11.9883V6.97266C89.556 5.91016 89.2357 5.08984 88.5951 4.51172C87.9623 3.93359 87.0677 3.64453 85.9115 3.64453H81.9388V0.960938H85.8412C87.2318 0.960938 88.4193 1.19922 89.4037 1.67578C90.3959 2.15234 91.1498 2.84766 91.6654 3.76172C92.181 4.67578 92.4388 5.77734 92.4388 7.06641V11.8945C92.4388 13.1523 92.1849 14.2383 91.6771 15.1523C91.1693 16.0664 90.4193 16.7695 89.4271 17.2617C88.4427 17.7539 87.2435 18 85.8295 18H81.9388V15.3164ZM80.3217 0.960938H83.1224V18H80.3217V0.960938ZM102.622 10.2891C102.622 9.60938 102.419 9.08203 102.013 8.70703C101.615 8.33203 101.048 8.14453 100.314 8.14453C99.8451 8.14453 99.3842 8.21875 98.931 8.36719C98.4779 8.51562 98.0717 8.72266 97.7123 8.98828L95.849 7.41797C96.3256 6.86328 96.9506 6.43359 97.724 6.12891C98.4974 5.81641 99.3568 5.66016 100.302 5.66016C101.333 5.66016 102.216 5.83984 102.951 6.19922C103.685 6.55078 104.244 7.06641 104.626 7.74609C105.017 8.41797 105.212 9.23047 105.212 10.1836V18H102.622V10.2891ZM99.4349 18.1758C98.0365 18.1758 96.9896 17.8672 96.2943 17.25C95.599 16.625 95.2513 15.6797 95.2513 14.4141C95.2513 13.2109 95.6029 12.3086 96.306 11.707C97.0092 11.1055 98.0638 10.8047 99.4701 10.8047H102.728L102.892 12.9844H99.4818C98.9271 12.9844 98.5092 13.1016 98.2279 13.3359C97.9545 13.5703 97.8177 13.9297 97.8177 14.4141C97.8177 14.9219 97.9974 15.3008 98.3568 15.5508C98.7162 15.793 99.2592 15.9141 99.9857 15.9141C100.876 15.9141 101.536 15.8164 101.966 15.6211C102.404 15.4258 102.622 15.1211 102.622 14.707L102.869 16.4414C102.736 16.8242 102.501 17.1445 102.165 17.4023C101.837 17.6602 101.439 17.8555 100.97 17.9883C100.501 18.1133 99.9896 18.1758 99.4349 18.1758ZM115.29 0.960938H118.091V18H115.29V0.960938ZM116.603 15.3164H126.47V18H116.603V15.3164ZM133.595 18.1758C132.517 18.1758 131.591 17.9688 130.818 17.5547C130.052 17.1406 129.466 16.5391 129.06 15.75C128.661 14.9531 128.462 13.9961 128.462 12.8789V10.8984C128.462 9.79688 128.661 8.85547 129.06 8.07422C129.466 7.28516 130.052 6.6875 130.818 6.28125C131.591 5.86719 132.517 5.66016 133.595 5.66016C134.673 5.66016 135.595 5.86719 136.361 6.28125C137.134 6.6875 137.72 7.28516 138.119 8.07422C138.525 8.85547 138.728 9.79688 138.728 10.8984V12.9141C138.728 14.0234 138.525 14.9727 138.119 15.7617C137.72 16.543 137.134 17.1406 136.361 17.5547C135.595 17.9688 134.673 18.1758 133.595 18.1758ZM133.595 15.4922C134.337 15.4922 134.911 15.2695 135.318 14.8242C135.724 14.3711 135.927 13.7344 135.927 12.9141V10.8984C135.927 10.0859 135.724 9.45703 135.318 9.01172C134.911 8.56641 134.337 8.34375 133.595 8.34375C132.853 8.34375 132.279 8.56641 131.872 9.01172C131.466 9.45703 131.263 10.0859 131.263 10.8984V12.9141C131.263 13.7344 131.462 14.3711 131.861 14.8242C132.267 15.2695 132.845 15.4922 133.595 15.4922ZM148.747 5.83594H151.536V18H148.747V5.83594ZM144.388 13.2305C144.388 13.9492 144.579 14.5078 144.962 14.9062C145.345 15.2969 145.884 15.4922 146.579 15.4922C147.275 15.4922 147.81 15.3086 148.185 14.9414C148.56 14.5664 148.747 14.0312 148.747 13.3359L148.911 15.9375C148.677 16.5703 148.286 17.1016 147.74 17.5312C147.193 17.9609 146.525 18.1758 145.736 18.1758C144.415 18.1758 143.392 17.75 142.665 16.8984C141.947 16.0469 141.587 14.8438 141.587 13.2891V5.83594H144.388V13.2305ZM154.947 5.83594H157.747V18H154.947V5.83594ZM162.154 10.6289C162.154 9.90234 161.958 9.33984 161.568 8.94141C161.177 8.54297 160.622 8.34375 159.904 8.34375C159.216 8.34375 158.685 8.53125 158.31 8.90625C157.935 9.27344 157.747 9.79688 157.747 10.4766L157.501 7.95703C157.869 7.20703 158.329 6.63672 158.884 6.24609C159.447 5.85547 160.107 5.66016 160.865 5.66016C162.161 5.66016 163.165 6.09375 163.876 6.96094C164.595 7.82031 164.954 9.03906 164.954 10.6172V18H162.154V10.6289ZM175.138 10.2891C175.138 9.60938 174.935 9.08203 174.529 8.70703C174.13 8.33203 173.564 8.14453 172.829 8.14453C172.361 8.14453 171.9 8.21875 171.447 8.36719C170.994 8.51562 170.587 8.72266 170.228 8.98828L168.365 7.41797C168.841 6.86328 169.466 6.43359 170.24 6.12891C171.013 5.81641 171.872 5.66016 172.818 5.66016C173.849 5.66016 174.732 5.83984 175.466 6.19922C176.201 6.55078 176.759 7.06641 177.142 7.74609C177.533 8.41797 177.728 9.23047 177.728 10.1836V18H175.138V10.2891ZM171.951 18.1758C170.552 18.1758 169.505 17.8672 168.81 17.25C168.115 16.625 167.767 15.6797 167.767 14.4141C167.767 13.2109 168.119 12.3086 168.822 11.707C169.525 11.1055 170.579 10.8047 171.986 10.8047H175.244L175.408 12.9844H171.997C171.443 12.9844 171.025 13.1016 170.744 13.3359C170.47 13.5703 170.333 13.9297 170.333 14.4141C170.333 14.9219 170.513 15.3008 170.872 15.5508C171.232 15.793 171.775 15.9141 172.501 15.9141C173.392 15.9141 174.052 15.8164 174.482 15.6211C174.919 15.4258 175.138 15.1211 175.138 14.707L175.384 16.4414C175.251 16.8242 175.017 17.1445 174.681 17.4023C174.353 17.6602 173.954 17.8555 173.486 17.9883C173.017 18.1133 172.505 18.1758 171.951 18.1758ZM193.044 18.1758C192.224 18.1758 191.435 18.0977 190.677 17.9414C189.927 17.7773 189.22 17.5391 188.556 17.2266C187.9 16.9141 187.298 16.5273 186.751 16.0664L188.24 13.8281C188.896 14.3828 189.63 14.8047 190.443 15.0938C191.263 15.375 192.13 15.5156 193.044 15.5156C194.185 15.5156 195.068 15.3125 195.693 14.9062C196.326 14.5 196.642 13.9258 196.642 13.1836V13.1719C196.642 12.6484 196.501 12.2344 196.22 11.9297C195.939 11.6172 195.572 11.3906 195.119 11.25C194.665 11.1016 194.083 10.9648 193.372 10.8398C193.349 10.832 193.326 10.8281 193.302 10.8281C193.279 10.8281 193.255 10.8242 193.232 10.8164L193.021 10.7812C191.88 10.5938 190.943 10.3711 190.208 10.1133C189.474 9.85547 188.849 9.39453 188.333 8.73047C187.818 8.06641 187.56 7.125 187.56 5.90625V5.89453C187.56 4.81641 187.802 3.89453 188.286 3.12891C188.771 2.36328 189.474 1.78125 190.396 1.38281C191.318 0.984375 192.427 0.785156 193.724 0.785156C194.333 0.785156 194.943 0.855469 195.552 0.996094C196.169 1.12891 196.771 1.32812 197.357 1.59375C197.951 1.85156 198.525 2.17578 199.079 2.56641L197.72 4.875C197.064 4.40625 196.396 4.05078 195.716 3.80859C195.036 3.56641 194.372 3.44531 193.724 3.44531C192.646 3.44531 191.81 3.64453 191.216 4.04297C190.63 4.43359 190.337 4.98828 190.337 5.70703V5.71875C190.337 6.25781 190.49 6.68359 190.794 6.99609C191.099 7.30859 191.478 7.53906 191.931 7.6875C192.392 7.82812 193.033 7.98047 193.853 8.14453C193.884 8.15234 193.911 8.16016 193.935 8.16797C193.966 8.16797 193.997 8.17188 194.029 8.17969C194.068 8.1875 194.111 8.19531 194.158 8.20312C194.204 8.21094 194.247 8.21875 194.286 8.22656C195.341 8.4375 196.22 8.69141 196.923 8.98828C197.634 9.28516 198.228 9.76172 198.704 10.418C199.181 11.0742 199.419 11.9688 199.419 13.1016V13.125C199.419 14.1875 199.169 15.0977 198.669 15.8555C198.169 16.6133 197.443 17.1914 196.49 17.5898C195.536 17.9805 194.388 18.1758 193.044 18.1758ZM203.626 13.5L209.591 5.83594H212.697L203.767 16.6875L203.626 13.5ZM202.361 0.960938H205.161V18H202.361V0.960938ZM206.474 11.3438L208.572 9.75L213.294 18H210.142L206.474 11.3438ZM224.427 5.83594L219.13 20.8477C218.935 21.4023 218.685 21.8398 218.38 22.1602C218.083 22.4883 217.712 22.7227 217.267 22.8633C216.822 23.0039 216.275 23.0742 215.626 23.0742H215.029V20.3672H215.626C216.025 20.3672 216.345 20.2852 216.587 20.1211C216.837 19.957 217.04 19.6797 217.197 19.2891L221.697 5.83594H224.427ZM213.423 5.83594H216.154L220.068 16.4062L218.392 18.9961L213.423 5.83594ZM229.115 14.4258C229.115 14.7227 229.189 14.9531 229.337 15.1172C229.486 15.2734 229.697 15.3516 229.97 15.3516H230.802V18.0352H229.279C228.341 18.0352 227.611 17.7539 227.087 17.1914C226.572 16.6289 226.314 15.8359 226.314 14.8125V0.960938H229.115V14.4258ZM239.943 10.2891C239.943 9.60938 239.74 9.08203 239.333 8.70703C238.935 8.33203 238.369 8.14453 237.634 8.14453C237.165 8.14453 236.704 8.21875 236.251 8.36719C235.798 8.51562 235.392 8.72266 235.033 8.98828L233.169 7.41797C233.646 6.86328 234.271 6.43359 235.044 6.12891C235.818 5.81641 236.677 5.66016 237.622 5.66016C238.654 5.66016 239.536 5.83984 240.271 6.19922C241.005 6.55078 241.564 7.06641 241.947 7.74609C242.337 8.41797 242.533 9.23047 242.533 10.1836V18H239.943V10.2891ZM236.755 18.1758C235.357 18.1758 234.31 17.8672 233.615 17.25C232.919 16.625 232.572 15.6797 232.572 14.4141C232.572 13.2109 232.923 12.3086 233.626 11.707C234.329 11.1055 235.384 10.8047 236.79 10.8047H240.048L240.212 12.9844H236.802C236.247 12.9844 235.829 13.1016 235.548 13.3359C235.275 13.5703 235.138 13.9297 235.138 14.4141C235.138 14.9219 235.318 15.3008 235.677 15.5508C236.036 15.793 236.579 15.9141 237.306 15.9141C238.197 15.9141 238.857 15.8164 239.286 15.6211C239.724 15.4258 239.943 15.1211 239.943 14.707L240.189 16.4414C240.056 16.8242 239.822 17.1445 239.486 17.4023C239.158 17.6602 238.759 17.8555 238.29 17.9883C237.822 18.1133 237.31 18.1758 236.755 18.1758ZM245.931 5.83594H248.732V18H245.931V5.83594ZM253.138 10.6289C253.138 9.90234 252.943 9.33984 252.552 8.94141C252.161 8.54297 251.607 8.34375 250.888 8.34375C250.201 8.34375 249.669 8.53125 249.294 8.90625C248.919 9.27344 248.732 9.79688 248.732 10.4766L248.486 7.95703C248.853 7.20703 249.314 6.63672 249.869 6.24609C250.431 5.85547 251.091 5.66016 251.849 5.66016C253.146 5.66016 254.15 6.09375 254.861 6.96094C255.579 7.82031 255.939 9.03906 255.939 10.6172V18H253.138V10.6289ZM266.076 0.960938H268.876V18H266.076V0.960938ZM263.134 18.1992C262.259 18.1992 261.509 18 260.884 17.6016C260.267 17.1953 259.794 16.6133 259.466 15.8555C259.146 15.0898 258.986 14.168 258.986 13.0898V10.7695C258.986 9.69141 259.146 8.76953 259.466 8.00391C259.786 7.23047 260.251 6.64453 260.861 6.24609C261.478 5.83984 262.216 5.63672 263.076 5.63672C263.763 5.63672 264.388 5.82812 264.951 6.21094C265.521 6.59375 265.978 7.13281 266.322 7.82812L266.076 10.418C266.076 9.94922 265.994 9.55078 265.829 9.22266C265.665 8.89453 265.427 8.64453 265.115 8.47266C264.802 8.30078 264.423 8.21484 263.978 8.21484C263.283 8.21484 262.744 8.44141 262.361 8.89453C261.978 9.34766 261.786 9.98047 261.786 10.793V13.0898C261.786 13.8945 261.978 14.5195 262.361 14.9648C262.744 15.4023 263.283 15.6211 263.978 15.6211C264.423 15.6211 264.802 15.5352 265.115 15.3633C265.427 15.1836 265.665 14.9297 265.829 14.6016C265.994 14.2734 266.076 13.8789 266.076 13.418L266.24 16.0898C265.997 16.7227 265.607 17.2344 265.068 17.625C264.536 18.0078 263.892 18.1992 263.134 18.1992ZM277.372 18.1758C276.224 18.1758 275.244 17.9648 274.431 17.543C273.619 17.1211 272.997 16.5039 272.568 15.6914C272.138 14.8711 271.923 13.8828 271.923 12.7266V11.3555C271.923 10.1523 272.126 9.125 272.533 8.27344C272.947 7.42188 273.544 6.77344 274.326 6.32812C275.115 5.88281 276.06 5.66016 277.161 5.66016C278.201 5.66016 279.087 5.92187 279.822 6.44531C280.564 6.96094 281.126 7.71094 281.509 8.69531C281.9 9.67969 282.095 10.8672 282.095 12.2578V13.0547H273.833V11.0039H279.494L279.482 10.875C279.404 10.0234 279.165 9.36328 278.767 8.89453C278.369 8.42578 277.833 8.19141 277.161 8.19141C276.318 8.19141 275.665 8.45703 275.204 8.98828C274.744 9.51172 274.513 10.2578 274.513 11.2266V12.7734C274.513 13.6953 274.763 14.4062 275.263 14.9062C275.763 15.3984 276.466 15.6445 277.372 15.6445C277.833 15.6445 278.286 15.5586 278.732 15.3867C279.185 15.207 279.591 14.9609 279.951 14.6484L281.779 16.3594C281.161 16.9375 280.466 17.3867 279.693 17.707C278.927 18.0195 278.154 18.1758 277.372 18.1758ZM285.142 5.83594H288.06V18H285.142V5.83594ZM291.915 8.96484C291.728 8.76172 291.497 8.60938 291.224 8.50781C290.951 8.39844 290.634 8.34375 290.275 8.34375C289.572 8.34375 289.025 8.55469 288.634 8.97656C288.251 9.39062 288.06 9.96875 288.06 10.7109L287.814 7.95703C288.165 7.23047 288.622 6.66797 289.185 6.26953C289.755 5.86328 290.38 5.66016 291.06 5.66016C291.591 5.66016 292.072 5.74219 292.501 5.90625C292.931 6.0625 293.306 6.29688 293.626 6.60938L291.915 8.96484Z" fill="#171717"/>
</svg>
