<svg width="132" height="30" viewBox="0 0 132 30" fill="none" xmlns="http://www.w3.org/2000/svg">
<path d="M4.67322 10.6094H11.9388C12.543 10.6094 13.0691 10.474 13.517 10.2031C13.9753 9.92188 14.3295 9.52604 14.5795 9.01562C14.8399 8.50521 14.9701 7.91667 14.9701 7.25C14.9701 6.57292 14.8451 5.97917 14.5951 5.46875C14.3451 4.95833 13.9909 4.5625 13.5326 4.28125C13.0743 4 12.543 3.85938 11.9388 3.85938H4.67322V0.28125H11.8295C13.2149 0.28125 14.4336 0.572917 15.4857 1.15625C16.5378 1.72917 17.3555 2.54167 17.9388 3.59375C18.5222 4.64583 18.8138 5.86458 18.8138 7.25C18.8138 8.63542 18.5222 9.85417 17.9388 10.9062C17.3555 11.9479 16.5378 12.7552 15.4857 13.3281C14.4336 13.901 13.2149 14.1875 11.8295 14.1875H4.67322V10.6094ZM2.87634 0.28125H6.61072V23H2.87634V0.28125ZM21.7201 6.78125H25.6107V23H21.7201V6.78125ZM30.7513 10.9531C30.5013 10.6823 30.1941 10.4792 29.8295 10.3438C29.4649 10.1979 29.043 10.125 28.5638 10.125C27.6263 10.125 26.8972 10.4062 26.3763 10.9688C25.8659 11.5208 25.6107 12.2917 25.6107 13.2812L25.2826 9.60938C25.7513 8.64062 26.3607 7.89062 27.1107 7.35938C27.8711 6.81771 28.7045 6.54688 29.6107 6.54688C30.3191 6.54688 30.9597 6.65625 31.5326 6.875C32.1055 7.08333 32.6055 7.39583 33.0326 7.8125L30.7513 10.9531ZM41.4388 23.2344C40.0013 23.2344 38.767 22.9583 37.7357 22.4062C36.7149 21.8542 35.9336 21.0521 35.392 20C34.8607 18.9375 34.5951 17.6615 34.5951 16.1719V13.5312C34.5951 12.0625 34.8607 10.8073 35.392 9.76562C35.9336 8.71354 36.7149 7.91667 37.7357 7.375C38.767 6.82292 40.0013 6.54688 41.4388 6.54688C42.8763 6.54688 44.1055 6.82292 45.1263 7.375C46.1576 7.91667 46.9388 8.71354 47.4701 9.76562C48.0118 10.8073 48.2826 12.0625 48.2826 13.5312V16.2188C48.2826 17.6979 48.0118 18.9635 47.4701 20.0156C46.9388 21.0573 46.1576 21.8542 45.1263 22.4062C44.1055 22.9583 42.8763 23.2344 41.4388 23.2344ZM41.4388 19.6562C42.4284 19.6562 43.1941 19.3594 43.7357 18.7656C44.2774 18.1615 44.5482 17.3125 44.5482 16.2188V13.5312C44.5482 12.4479 44.2774 11.6094 43.7357 11.0156C43.1941 10.4219 42.4284 10.125 41.4388 10.125C40.4493 10.125 39.6836 10.4219 39.142 11.0156C38.6003 11.6094 38.3295 12.4479 38.3295 13.5312V16.2188C38.3295 17.3125 38.5951 18.1615 39.1263 18.7656C39.668 19.3594 40.4388 19.6562 41.4388 19.6562ZM50.3138 26.0156H51.7045C52.0482 26.0156 52.3138 25.9062 52.5013 25.6875C52.6888 25.4792 52.7826 25.1771 52.7826 24.7812V6.78125H56.517V25.2969C56.517 26.6615 56.168 27.7188 55.4701 28.4688C54.7826 29.2188 53.8138 29.5938 52.5638 29.5938H50.3138V26.0156ZM52.7513 0.28125H56.5482V4.01562H52.7513V0.28125ZM67.892 23.2344C66.3607 23.2344 65.0534 22.9531 63.9701 22.3906C62.8868 21.8281 62.0586 21.0052 61.4857 19.9219C60.9128 18.8281 60.6263 17.5104 60.6263 15.9688V14.1406C60.6263 12.5365 60.8972 11.1667 61.4388 10.0312C61.9909 8.89583 62.7878 8.03125 63.8295 7.4375C64.8816 6.84375 66.142 6.54688 67.6107 6.54688C68.9961 6.54688 70.1784 6.89583 71.1576 7.59375C72.1472 8.28125 72.8972 9.28125 73.4076 10.5938C73.9284 11.9062 74.1888 13.4896 74.1888 15.3438V16.4062H63.1732V13.6719H70.7201L70.7045 13.5C70.6003 12.3646 70.2826 11.4844 69.7513 10.8594C69.2201 10.2344 68.5066 9.92188 67.6107 9.92188C66.4857 9.92188 65.6159 10.276 65.0013 10.9844C64.3868 11.6823 64.0795 12.6771 64.0795 13.9688V16.0312C64.0795 17.2604 64.4128 18.2083 65.0795 18.875C65.7461 19.5312 66.6836 19.8594 67.892 19.8594C68.5066 19.8594 69.1107 19.7448 69.7045 19.5156C70.3086 19.276 70.8503 18.9479 71.3295 18.5312L73.767 20.8125C72.9441 21.5833 72.017 22.1823 70.9857 22.6094C69.9649 23.026 68.9336 23.2344 67.892 23.2344ZM82.6263 23.0781C81.2618 23.0781 80.2618 22.7188 79.6263 22C78.9909 21.2708 78.6732 20.1979 78.6732 18.7812V2.0625H82.4076V18.2656C82.4076 18.6615 82.4857 18.9688 82.642 19.1875C82.7982 19.3958 83.0274 19.5 83.3295 19.5H84.6263V23.0781H82.6263ZM77.0013 6.78125H84.6263V10.0469H77.0013V6.78125ZM95.0638 23.2344C93.6263 23.2344 92.392 22.9583 91.3607 22.4062C90.3399 21.8542 89.5586 21.0521 89.017 20C88.4857 18.9375 88.2201 17.6615 88.2201 16.1719V13.5312C88.2201 12.0625 88.4857 10.8073 89.017 9.76562C89.5586 8.71354 90.3399 7.91667 91.3607 7.375C92.392 6.82292 93.6263 6.54688 95.0638 6.54688C96.5013 6.54688 97.7305 6.82292 98.7513 7.375C99.7826 7.91667 100.564 8.71354 101.095 9.76562C101.637 10.8073 101.908 12.0625 101.908 13.5312V16.2188C101.908 17.6979 101.637 18.9635 101.095 20.0156C100.564 21.0573 99.7826 21.8542 98.7513 22.4062C97.7305 22.9583 96.5013 23.2344 95.0638 23.2344ZM95.0638 19.6562C96.0534 19.6562 96.8191 19.3594 97.3607 18.7656C97.9024 18.1615 98.1732 17.3125 98.1732 16.2188V13.5312C98.1732 12.4479 97.9024 11.6094 97.3607 11.0156C96.8191 10.4219 96.0534 10.125 95.0638 10.125C94.0743 10.125 93.3086 10.4219 92.767 11.0156C92.2253 11.6094 91.9545 12.4479 91.9545 13.5312V16.2188C91.9545 17.3125 92.2201 18.1615 92.7513 18.7656C93.293 19.3594 94.0638 19.6562 95.0638 19.6562Z" fill="#171717"/>
<path fill-rule="evenodd" clip-rule="evenodd" d="M125.573 3.375C125.573 3.20924 125.505 3.05027 125.384 2.93306C125.264 2.81585 125.1 2.75 124.93 2.75H121.073C120.902 2.75 120.739 2.81585 120.618 2.93306C120.498 3.05027 120.43 3.20924 120.43 3.375V4.625C120.43 4.79076 120.498 4.94973 120.618 5.06694C120.739 5.18415 120.902 5.25 121.073 5.25H124.93C125.1 5.25 125.264 5.18415 125.384 5.06694C125.505 4.94973 125.573 4.79076 125.573 4.625V3.375ZM119.144 3.375C119.144 2.87772 119.347 2.40081 119.709 2.04917C120.071 1.69754 120.561 1.5 121.073 1.5H124.93C125.441 1.5 125.932 1.69754 126.294 2.04917C126.655 2.40081 126.858 2.87772 126.858 3.375V4.625C126.858 5.12228 126.655 5.59919 126.294 5.95083C125.932 6.30246 125.441 6.5 124.93 6.5H121.073C120.561 6.5 120.071 6.30246 119.709 5.95083C119.347 5.59919 119.144 5.12228 119.144 4.625V3.375ZM116.573 3.375H117.858V4.625C117.858 5.4538 118.197 6.24866 118.8 6.83471C119.403 7.42076 120.22 7.75 121.073 7.75H124.93C125.352 7.75 125.77 7.66917 126.16 7.51212C126.55 7.35508 126.904 7.12489 127.203 6.83471C127.501 6.54453 127.738 6.20003 127.9 5.82089C128.061 5.44174 128.144 5.03538 128.144 4.625V3.375H129.43C130.112 3.375 130.766 3.63839 131.248 4.10723C131.73 4.57607 132.001 5.21196 132.001 5.875V19C132.001 19.663 131.73 20.2989 131.248 20.7678C130.766 21.2366 130.112 21.5 129.43 21.5H116.573C115.891 21.5 115.237 21.2366 114.754 20.7678C114.272 20.2989 114.001 19.663 114.001 19V5.875C114.001 5.21196 114.272 4.57607 114.754 4.10723C115.237 3.63839 115.891 3.375 116.573 3.375Z" fill="#171717"/>
</svg>
