<svg width="161" height="24" viewBox="0 0 161 24" fill="none" xmlns="http://www.w3.org/2000/svg">
<path d="M1.48962 8.28516H7.36072C7.75134 8.28516 8.09509 8.19141 8.39197 8.00391C8.69666 7.80859 8.93103 7.53516 9.09509 7.18359C9.25916 6.83203 9.34509 6.42188 9.35291 5.95312C9.35291 5.49219 9.27087 5.08594 9.10681 4.73438C8.94275 4.38281 8.70837 4.11328 8.40369 3.92578C8.10681 3.73047 7.75916 3.63281 7.36072 3.63281H1.48962V0.949219H7.44275C8.40369 0.949219 9.24744 1.15625 9.974 1.57031C10.7006 1.98437 11.2631 2.57031 11.6615 3.32812C12.0677 4.08594 12.2709 4.96094 12.2709 5.95312C12.2709 6.95312 12.0677 7.83203 11.6615 8.58984C11.2631 9.34766 10.6967 9.93359 9.96228 10.3477C9.23572 10.7617 8.39587 10.9688 7.44275 10.9688H1.48962V8.28516ZM0.329468 0.949219H3.13025V18H0.329468V0.949219ZM5.60291 10.4414L8.50916 9.90234L12.9857 18H9.62244L5.60291 10.4414ZM15.4349 0.960938H18.224V3.76172H15.4349V0.960938ZM15.4349 5.83594H18.224V18H15.4349V5.83594ZM26.5677 18.1758C25.4349 18.1758 24.4662 17.9648 23.6615 17.543C22.8568 17.1133 22.2435 16.4922 21.8217 15.6797C21.3998 14.8594 21.1888 13.8711 21.1888 12.7148V11.0625C21.1888 9.92188 21.3998 8.94922 21.8217 8.14453C22.2435 7.33203 22.8568 6.71484 23.6615 6.29297C24.4662 5.87109 25.4349 5.66016 26.5677 5.66016C27.2162 5.66016 27.8256 5.73828 28.3959 5.89453C28.974 6.04297 29.4896 6.26172 29.9427 6.55078C30.4037 6.83984 30.7865 7.19141 31.0912 7.60547L29.1927 9.38672C28.8724 9.05078 28.4974 8.79297 28.0677 8.61328C27.6381 8.43359 27.1888 8.34375 26.7201 8.34375C25.8529 8.34375 25.181 8.58203 24.7045 9.05859C24.2279 9.52734 23.9896 10.1953 23.9896 11.0625V12.7148C23.9896 13.6055 24.224 14.293 24.6927 14.7773C25.1693 15.2539 25.8451 15.4922 26.7201 15.4922C27.1967 15.4922 27.6498 15.3945 28.0795 15.1992C28.5092 15.0039 28.8802 14.7266 29.1927 14.3672L31.0912 16.2656C30.7787 16.6719 30.392 17.0195 29.931 17.3086C29.4779 17.5898 28.9623 17.8047 28.3842 17.9531C27.8138 18.1016 27.2084 18.1758 26.5677 18.1758ZM34.7592 13.5L40.724 5.83594H43.8295L34.8998 16.6875L34.7592 13.5ZM33.4935 0.960938H36.2943V18H33.4935V0.960938ZM37.6068 11.3438L39.7045 9.75L44.4271 18H41.2748L37.6068 11.3438ZM57.6342 0.960938H59.6732L66.0717 18H63.0599L58.6537 5.30859L54.2474 18H51.2357L57.6342 0.960938ZM54.2474 12.082H63.2123V14.7656H54.2474V12.082ZM68.181 5.83594H70.9818V18H68.181V5.83594ZM75.3881 10.6289C75.3881 9.90234 75.1927 9.33984 74.8021 8.94141C74.4115 8.54297 73.8568 8.34375 73.1381 8.34375C72.4506 8.34375 71.9193 8.53125 71.5443 8.90625C71.1693 9.27344 70.9818 9.79688 70.9818 10.4766L70.7357 7.95703C71.1029 7.20703 71.5638 6.63672 72.1185 6.24609C72.681 5.85547 73.3412 5.66016 74.099 5.66016C75.3959 5.66016 76.3998 6.09375 77.1107 6.96094C77.8295 7.82031 78.1888 9.03906 78.1888 10.6172V18H75.3881V10.6289ZM88.3256 0.960938H91.1263V18H88.3256V0.960938ZM85.3842 18.1992C84.5092 18.1992 83.7592 18 83.1342 17.6016C82.517 17.1953 82.0443 16.6133 81.7162 15.8555C81.3959 15.0898 81.2357 14.168 81.2357 13.0898V10.7695C81.2357 9.69141 81.3959 8.76953 81.7162 8.00391C82.0365 7.23047 82.5013 6.64453 83.1107 6.24609C83.7279 5.83984 84.4662 5.63672 85.3256 5.63672C86.0131 5.63672 86.6381 5.82812 87.2006 6.21094C87.7709 6.59375 88.2279 7.13281 88.5717 7.82812L88.3256 10.418C88.3256 9.94922 88.2435 9.55078 88.0795 9.22266C87.9154 8.89453 87.6771 8.64453 87.3646 8.47266C87.0521 8.30078 86.6732 8.21484 86.2279 8.21484C85.5326 8.21484 84.9935 8.44141 84.6107 8.89453C84.2279 9.34766 84.0365 9.98047 84.0365 10.793V13.0898C84.0365 13.8945 84.2279 14.5195 84.6107 14.9648C84.9935 15.4023 85.5326 15.6211 86.2279 15.6211C86.6732 15.6211 87.0521 15.5352 87.3646 15.3633C87.6771 15.1836 87.9154 14.9297 88.0795 14.6016C88.2435 14.2734 88.3256 13.8789 88.3256 13.418L88.4896 16.0898C88.2474 16.7227 87.8568 17.2344 87.3177 17.625C86.7865 18.0078 86.142 18.1992 85.3842 18.1992ZM112.689 0.960938H115.923V18H113.298V5.00391L113.415 5.75391L109.689 15.8672H107.439L103.712 5.98828L103.829 5.00391V18H101.204V0.960938H104.439L108.564 12.3281L112.689 0.960938ZM124.454 18.1758C123.376 18.1758 122.451 17.9688 121.677 17.5547C120.911 17.1406 120.326 16.5391 119.919 15.75C119.521 14.9531 119.322 13.9961 119.322 12.8789V10.8984C119.322 9.79688 119.521 8.85547 119.919 8.07422C120.326 7.28516 120.911 6.6875 121.677 6.28125C122.451 5.86719 123.376 5.66016 124.454 5.66016C125.533 5.66016 126.454 5.86719 127.22 6.28125C127.994 6.6875 128.579 7.28516 128.978 8.07422C129.384 8.85547 129.587 9.79688 129.587 10.8984V12.9141C129.587 14.0234 129.384 14.9727 128.978 15.7617C128.579 16.543 127.994 17.1406 127.22 17.5547C126.454 17.9688 125.533 18.1758 124.454 18.1758ZM124.454 15.4922C125.197 15.4922 125.771 15.2695 126.177 14.8242C126.583 14.3711 126.786 13.7344 126.786 12.9141V10.8984C126.786 10.0859 126.583 9.45703 126.177 9.01172C125.771 8.56641 125.197 8.34375 124.454 8.34375C123.712 8.34375 123.138 8.56641 122.732 9.01172C122.326 9.45703 122.122 10.0859 122.122 10.8984V12.9141C122.122 13.7344 122.322 14.3711 122.72 14.8242C123.126 15.2695 123.704 15.4922 124.454 15.4922ZM132.751 5.83594H135.669V18H132.751V5.83594ZM139.525 8.96484C139.337 8.76172 139.107 8.60938 138.833 8.50781C138.56 8.39844 138.244 8.34375 137.884 8.34375C137.181 8.34375 136.634 8.55469 136.244 8.97656C135.861 9.39062 135.669 9.96875 135.669 10.7109L135.423 7.95703C135.775 7.23047 136.232 6.66797 136.794 6.26953C137.365 5.86328 137.99 5.66016 138.669 5.66016C139.201 5.66016 139.681 5.74219 140.111 5.90625C140.54 6.0625 140.915 6.29688 141.236 6.60938L139.525 8.96484ZM146.275 18.0586C145.251 18.0586 144.501 17.7891 144.025 17.25C143.548 16.7031 143.31 15.8984 143.31 14.8359V2.29688H146.111V14.4492C146.111 14.7461 146.169 14.9766 146.286 15.1406C146.404 15.2969 146.576 15.375 146.802 15.375H147.775V18.0586H146.275ZM142.056 5.83594H147.775V8.28516H142.056V5.83594ZM160.536 5.83594L155.24 20.8477C155.044 21.4023 154.794 21.8398 154.49 22.1602C154.193 22.4883 153.822 22.7227 153.376 22.8633C152.931 23.0039 152.384 23.0742 151.736 23.0742H151.138V20.3672H151.736C152.134 20.3672 152.454 20.2852 152.697 20.1211C152.947 19.957 153.15 19.6797 153.306 19.2891L157.806 5.83594H160.536ZM149.533 5.83594H152.263L156.177 16.4062L154.501 18.9961L149.533 5.83594Z" fill="#171717"/>
</svg>
