<svg width="192" height="39" viewBox="0 0 192 39" fill="none" xmlns="http://www.w3.org/2000/svg">
<path d="M15.4388 0.28125H19.1732V23H15.4388V0.28125ZM2.76697 0.28125H6.50134V23H2.76697V0.28125ZM4.75134 9.98438H17.6732V13.5625H4.75134V9.98438ZM33.2201 12.7188C33.2201 11.8125 32.9493 11.1094 32.4076 10.6094C31.8763 10.1094 31.1211 9.85938 30.142 9.85938C29.517 9.85938 28.9024 9.95833 28.2982 10.1562C27.6941 10.3542 27.1524 10.6302 26.6732 10.9844L24.1888 8.89062C24.8243 8.15104 25.6576 7.57812 26.6888 7.17188C27.7201 6.75521 28.8659 6.54688 30.1263 6.54688C31.5013 6.54688 32.6784 6.78646 33.6576 7.26562C34.6368 7.73438 35.3816 8.42188 35.892 9.32812C36.4128 10.224 36.6732 11.3073 36.6732 12.5781V23H33.2201V12.7188ZM28.9701 23.2344C27.1055 23.2344 25.7097 22.8229 24.7826 22C23.8555 21.1667 23.392 19.9062 23.392 18.2188C23.392 16.6146 23.8607 15.4115 24.7982 14.6094C25.7357 13.8073 27.142 13.4062 29.017 13.4062H33.3607L33.5795 16.3125H29.0326C28.293 16.3125 27.7357 16.4688 27.3607 16.7812C26.9961 17.0938 26.8138 17.5729 26.8138 18.2188C26.8138 18.8958 27.0534 19.401 27.5326 19.7344C28.0118 20.0573 28.7357 20.2188 29.7045 20.2188C30.892 20.2188 31.7722 20.0885 32.3451 19.8281C32.9284 19.5677 33.2201 19.1615 33.2201 18.6094L33.5482 20.9219C33.3711 21.4323 33.0586 21.8594 32.6107 22.2031C32.1732 22.5469 31.642 22.8073 31.017 22.9844C30.392 23.151 29.7097 23.2344 28.9701 23.2344ZM48.8607 23.2344C47.8816 23.2344 47.0326 22.9948 46.3138 22.5156C45.5951 22.026 45.0638 21.3385 44.7201 20.4531L44.9388 16.9062C44.9388 17.5208 45.0482 18.0469 45.267 18.4844C45.4857 18.9115 45.8034 19.2396 46.2201 19.4688C46.6368 19.6979 47.142 19.8125 47.7357 19.8125C48.6628 19.8125 49.3816 19.5208 49.892 18.9375C50.4024 18.3542 50.6576 17.526 50.6576 16.4531V13.4062C50.6576 12.3125 50.4024 11.4688 49.892 10.875C49.3816 10.2708 48.6628 9.96875 47.7357 9.96875C47.142 9.96875 46.6368 10.0833 46.2201 10.3125C45.8034 10.5312 45.4857 10.8594 45.267 11.2969C45.0482 11.7344 44.9388 12.2604 44.9388 12.875L44.6107 9.51562C45.0691 8.56771 45.6732 7.83854 46.4232 7.32812C47.1836 6.80729 48.0222 6.54688 48.9388 6.54688C50.0847 6.54688 51.0638 6.8125 51.8763 7.34375C52.6993 7.875 53.3243 8.65625 53.7513 9.6875C54.1784 10.7083 54.392 11.9427 54.392 13.3906V16.4531C54.392 17.8802 54.1732 19.1042 53.7357 20.125C53.3086 21.1354 52.6784 21.9062 51.8451 22.4375C51.0118 22.9688 50.017 23.2344 48.8607 23.2344ZM41.2045 0.28125H44.9388V23H41.2045V0.28125ZM58.5013 0.28125H62.2201V4.01562H58.5013V0.28125ZM58.5013 6.78125H62.2201V23H58.5013V6.78125ZM70.3763 18.2344C70.3763 18.6302 70.4753 18.9375 70.6732 19.1562C70.8711 19.3646 71.1524 19.4688 71.517 19.4688H72.6263V23.0469H70.5951C69.3451 23.0469 68.3711 22.6719 67.6732 21.9219C66.9857 21.1719 66.642 20.1146 66.642 18.75V0.28125H70.3763V18.2344ZM75.8138 0.28125H79.5326V4.01562H75.8138V0.28125ZM75.8138 6.78125H79.5326V23H75.8138V6.78125ZM92.9388 0.28125H96.6732V23H92.9388V0.28125ZM89.017 23.2656C87.8503 23.2656 86.8503 23 86.017 22.4688C85.1941 21.9271 84.5638 21.151 84.1263 20.1406C83.6993 19.1198 83.4857 17.8906 83.4857 16.4531V13.3594C83.4857 11.9219 83.6993 10.6927 84.1263 9.67188C84.5534 8.64062 85.1732 7.85938 85.9857 7.32812C86.8086 6.78646 87.793 6.51562 88.9388 6.51562C89.8555 6.51562 90.6888 6.77083 91.4388 7.28125C92.1993 7.79167 92.8086 8.51042 93.267 9.4375L92.9388 12.8906C92.9388 12.2656 92.8295 11.7344 92.6107 11.2969C92.392 10.8594 92.0743 10.526 91.6576 10.2969C91.2409 10.0677 90.7357 9.95312 90.142 9.95312C89.2149 9.95312 88.4961 10.2552 87.9857 10.8594C87.4753 11.4635 87.2201 12.3073 87.2201 13.3906V16.4531C87.2201 17.526 87.4753 18.3594 87.9857 18.9531C88.4961 19.5365 89.2149 19.8281 90.142 19.8281C90.7357 19.8281 91.2409 19.7135 91.6576 19.4844C92.0743 19.2448 92.392 18.9062 92.6107 18.4688C92.8295 18.0312 92.9388 17.5052 92.9388 16.8906L93.1576 20.4531C92.8347 21.2969 92.3138 21.9792 91.5951 22.5C90.8868 23.0104 90.0274 23.2656 89.017 23.2656ZM110.251 12.7188C110.251 11.8125 109.981 11.1094 109.439 10.6094C108.908 10.1094 108.152 9.85938 107.173 9.85938C106.548 9.85938 105.934 9.95833 105.329 10.1562C104.725 10.3542 104.184 10.6302 103.704 10.9844L101.22 8.89062C101.856 8.15104 102.689 7.57812 103.72 7.17188C104.751 6.75521 105.897 6.54688 107.158 6.54688C108.533 6.54688 109.71 6.78646 110.689 7.26562C111.668 7.73438 112.413 8.42188 112.923 9.32812C113.444 10.224 113.704 11.3073 113.704 12.5781V23H110.251V12.7188ZM106.001 23.2344C104.137 23.2344 102.741 22.8229 101.814 22C100.887 21.1667 100.423 19.9062 100.423 18.2188C100.423 16.6146 100.892 15.4115 101.829 14.6094C102.767 13.8073 104.173 13.4062 106.048 13.4062H110.392L110.611 16.3125H106.064C105.324 16.3125 104.767 16.4688 104.392 16.7812C104.027 17.0938 103.845 17.5729 103.845 18.2188C103.845 18.8958 104.085 19.401 104.564 19.7344C105.043 20.0573 105.767 20.2188 106.736 20.2188C107.923 20.2188 108.803 20.0885 109.376 19.8281C109.96 19.5677 110.251 19.1615 110.251 18.6094L110.579 20.9219C110.402 21.4323 110.09 21.8594 109.642 22.2031C109.204 22.5469 108.673 22.8073 108.048 22.9844C107.423 23.151 106.741 23.2344 106.001 23.2344ZM127.22 0.28125H130.954V23H127.22V0.28125ZM123.298 23.2656C122.132 23.2656 121.132 23 120.298 22.4688C119.475 21.9271 118.845 21.151 118.408 20.1406C117.981 19.1198 117.767 17.8906 117.767 16.4531V13.3594C117.767 11.9219 117.981 10.6927 118.408 9.67188C118.835 8.64062 119.454 7.85938 120.267 7.32812C121.09 6.78646 122.074 6.51562 123.22 6.51562C124.137 6.51562 124.97 6.77083 125.72 7.28125C126.481 7.79167 127.09 8.51042 127.548 9.4375L127.22 12.8906C127.22 12.2656 127.111 11.7344 126.892 11.2969C126.673 10.8594 126.356 10.526 125.939 10.2969C125.522 10.0677 125.017 9.95312 124.423 9.95312C123.496 9.95312 122.777 10.2552 122.267 10.8594C121.757 11.4635 121.501 12.3073 121.501 13.3906V16.4531C121.501 17.526 121.757 18.3594 122.267 18.9531C122.777 19.5365 123.496 19.8281 124.423 19.8281C125.017 19.8281 125.522 19.7135 125.939 19.4844C126.356 19.2448 126.673 18.9062 126.892 18.4688C127.111 18.0312 127.22 17.5052 127.22 16.8906L127.439 20.4531C127.116 21.2969 126.595 21.9792 125.876 22.5C125.168 23.0104 124.309 23.2656 123.298 23.2656ZM142.283 23.2344C140.751 23.2344 139.444 22.9531 138.361 22.3906C137.277 21.8281 136.449 21.0052 135.876 19.9219C135.303 18.8281 135.017 17.5104 135.017 15.9688V14.1406C135.017 12.5365 135.288 11.1667 135.829 10.0312C136.382 8.89583 137.178 8.03125 138.22 7.4375C139.272 6.84375 140.533 6.54688 142.001 6.54688C143.387 6.54688 144.569 6.89583 145.548 7.59375C146.538 8.28125 147.288 9.28125 147.798 10.5938C148.319 11.9062 148.579 13.4896 148.579 15.3438V16.4062H137.564V13.6719H145.111L145.095 13.5C144.991 12.3646 144.673 11.4844 144.142 10.8594C143.611 10.2344 142.897 9.92188 142.001 9.92188C140.876 9.92188 140.007 10.276 139.392 10.9844C138.777 11.6823 138.47 12.6771 138.47 13.9688V16.0312C138.47 17.2604 138.803 18.2083 139.47 18.875C140.137 19.5312 141.074 19.8594 142.283 19.8594C142.897 19.8594 143.501 19.7448 144.095 19.5156C144.699 19.276 145.241 18.9479 145.72 18.5312L148.158 20.8125C147.335 21.5833 146.408 22.1823 145.376 22.6094C144.356 23.026 143.324 23.2344 142.283 23.2344ZM158.611 23.2344C157.642 23.2344 156.72 23.1458 155.845 22.9688C154.97 22.7812 154.147 22.5104 153.376 22.1562C152.616 21.8021 151.928 21.3698 151.314 20.8594L153.579 18.0469C154.402 18.6302 155.241 19.0729 156.095 19.375C156.96 19.6771 157.798 19.8281 158.611 19.8281C159.746 19.8281 160.606 19.6771 161.189 19.375C161.783 19.0625 162.079 18.6146 162.079 18.0312C162.079 17.5833 161.934 17.25 161.642 17.0312C161.35 16.8021 160.981 16.6458 160.533 16.5625C160.095 16.4792 159.475 16.401 158.673 16.3281C158.538 16.3177 158.397 16.3073 158.251 16.2969C158.106 16.2865 157.965 16.2708 157.829 16.25C157.788 16.25 157.746 16.25 157.704 16.25C157.663 16.2396 157.621 16.2344 157.579 16.2344C156.444 16.1094 155.512 15.9375 154.783 15.7188C154.053 15.4896 153.439 15.0573 152.939 14.4219C152.449 13.7865 152.204 12.875 152.204 11.6875C152.204 10.5729 152.449 9.63542 152.939 8.875C153.439 8.10417 154.168 7.52604 155.126 7.14062C156.085 6.74479 157.262 6.54688 158.658 6.54688C159.491 6.54688 160.303 6.63021 161.095 6.79688C161.887 6.95312 162.642 7.1875 163.361 7.5C164.09 7.80208 164.777 8.18229 165.423 8.64062L163.189 11.3594C162.428 10.901 161.658 10.5521 160.876 10.3125C160.106 10.0729 159.356 9.95312 158.626 9.95312C157.647 9.95312 156.902 10.0938 156.392 10.375C155.882 10.6562 155.626 11.0729 155.626 11.625C155.626 11.9792 155.767 12.25 156.048 12.4375C156.329 12.625 156.678 12.7552 157.095 12.8281C157.522 12.8906 158.137 12.9583 158.939 13.0312C159.022 13.0417 159.1 13.0521 159.173 13.0625C159.257 13.0625 159.34 13.0677 159.423 13.0781C159.454 13.0781 159.491 13.0781 159.533 13.0781C159.574 13.0781 159.616 13.0833 159.658 13.0938C160.856 13.2083 161.85 13.3802 162.642 13.6094C163.434 13.8385 164.106 14.2969 164.658 14.9844C165.21 15.6615 165.486 16.651 165.486 17.9531C165.486 19.099 165.225 20.0677 164.704 20.8594C164.184 21.6406 163.408 22.2344 162.376 22.6406C161.356 23.0365 160.1 23.2344 158.611 23.2344Z" fill="#171717"/>
<path d="M177.001 9.00015C177.001 7.76168 177.308 6.54247 177.894 5.4514C178.48 4.36032 179.327 3.43134 180.359 2.74739C181.392 2.06345 182.578 1.64583 183.811 1.53184C185.044 1.41785 186.286 1.61102 187.427 2.09411C188.567 2.5772 189.57 3.33517 190.346 4.30035C191.122 5.26552 191.647 6.40786 191.874 7.62535C192.101 8.84284 192.023 10.0976 191.647 11.2776C191.271 12.4575 190.609 13.526 189.719 14.3876C189.465 14.6326 189.27 14.8876 189.153 15.1613L188.2 17.3725C188.152 17.4846 188.072 17.5801 187.97 17.6472C187.868 17.7143 187.748 17.75 187.626 17.75H181.376C181.254 17.7503 181.134 17.7146 181.032 17.6475C180.93 17.5804 180.85 17.4848 180.801 17.3725L179.85 15.1601C179.714 14.8679 179.521 14.6054 179.284 14.3876C178.561 13.6891 177.986 12.852 177.594 11.9263C177.202 11.0007 177 10.0054 177.001 9.00015ZM180.751 19.625C180.751 19.4593 180.817 19.3003 180.934 19.1831C181.052 19.0659 181.211 19 181.376 19H187.626C187.792 19 187.951 19.0659 188.068 19.1831C188.185 19.3003 188.251 19.4593 188.251 19.625C188.251 19.7908 188.185 19.9497 188.068 20.067C187.951 20.1842 187.792 20.25 187.626 20.25L187.346 20.8088C187.243 21.0164 187.083 21.191 186.886 21.3131C186.688 21.4351 186.461 21.4999 186.229 21.5H182.774C182.542 21.4999 182.314 21.4351 182.117 21.3131C181.92 21.191 181.76 21.0164 181.656 20.8088L181.376 20.25C181.211 20.25 181.052 20.1842 180.934 20.067C180.817 19.9497 180.751 19.7908 180.751 19.625Z" fill="#171717"/>
</svg>
