<svg width="366" height="28" viewBox="0 0 366 28" fill="none" xmlns="http://www.w3.org/2000/svg">
<path d="M9.40759 4.28125H12.1263L20.6576 27H16.642L10.767 10.0781L4.89197 27H0.876343L9.40759 4.28125ZM4.89197 19.1094H16.8451V22.6875H4.89197V19.1094ZM29.4388 27.2344C28.4701 27.2344 27.5482 27.1458 26.6732 26.9688C25.7982 26.7812 24.9753 26.5104 24.2045 26.1562C23.4441 25.8021 22.7566 25.3698 22.142 24.8594L24.4076 22.0469C25.2305 22.6302 26.0691 23.0729 26.9232 23.375C27.7878 23.6771 28.6263 23.8281 29.4388 23.8281C30.5743 23.8281 31.4336 23.6771 32.017 23.375C32.6107 23.0625 32.9076 22.6146 32.9076 22.0312C32.9076 21.5833 32.7618 21.25 32.4701 21.0312C32.1784 20.8021 31.8086 20.6458 31.3607 20.5625C30.9232 20.4792 30.3034 20.401 29.5013 20.3281C29.3659 20.3177 29.2253 20.3073 29.0795 20.2969C28.9336 20.2865 28.793 20.2708 28.6576 20.25C28.6159 20.25 28.5743 20.25 28.5326 20.25C28.4909 20.2396 28.4493 20.2344 28.4076 20.2344C27.2722 20.1094 26.3399 19.9375 25.6107 19.7188C24.8816 19.4896 24.267 19.0573 23.767 18.4219C23.2774 17.7865 23.0326 16.875 23.0326 15.6875C23.0326 14.5729 23.2774 13.6354 23.767 12.875C24.267 12.1042 24.9961 11.526 25.9545 11.1406C26.9128 10.7448 28.0899 10.5469 29.4857 10.5469C30.3191 10.5469 31.1316 10.6302 31.9232 10.7969C32.7149 10.9531 33.4701 11.1875 34.1888 11.5C34.918 11.8021 35.6055 12.1823 36.2513 12.6406L34.017 15.3594C33.2566 14.901 32.4857 14.5521 31.7045 14.3125C30.9336 14.0729 30.1836 13.9531 29.4545 13.9531C28.4753 13.9531 27.7305 14.0938 27.2201 14.375C26.7097 14.6562 26.4545 15.0729 26.4545 15.625C26.4545 15.9792 26.5951 16.25 26.8763 16.4375C27.1576 16.625 27.5066 16.7552 27.9232 16.8281C28.3503 16.8906 28.9649 16.9583 29.767 17.0312C29.8503 17.0417 29.9284 17.0521 30.0013 17.0625C30.0847 17.0625 30.168 17.0677 30.2513 17.0781C30.2826 17.0781 30.3191 17.0781 30.3607 17.0781C30.4024 17.0781 30.4441 17.0833 30.4857 17.0938C31.6836 17.2083 32.6784 17.3802 33.4701 17.6094C34.2618 17.8385 34.9336 18.2969 35.4857 18.9844C36.0378 19.6615 36.3138 20.651 36.3138 21.9531C36.3138 23.099 36.0534 24.0677 35.5326 24.8594C35.0118 25.6406 34.2357 26.2344 33.2045 26.6406C32.1836 27.0365 30.9284 27.2344 29.4388 27.2344ZM46.0326 27.2344C45.0638 27.2344 44.142 27.1458 43.267 26.9688C42.392 26.7812 41.5691 26.5104 40.7982 26.1562C40.0378 25.8021 39.3503 25.3698 38.7357 24.8594L41.0013 22.0469C41.8243 22.6302 42.6628 23.0729 43.517 23.375C44.3816 23.6771 45.2201 23.8281 46.0326 23.8281C47.168 23.8281 48.0274 23.6771 48.6107 23.375C49.2045 23.0625 49.5013 22.6146 49.5013 22.0312C49.5013 21.5833 49.3555 21.25 49.0638 21.0312C48.7722 20.8021 48.4024 20.6458 47.9545 20.5625C47.517 20.4792 46.8972 20.401 46.0951 20.3281C45.9597 20.3177 45.8191 20.3073 45.6732 20.2969C45.5274 20.2865 45.3868 20.2708 45.2513 20.25C45.2097 20.25 45.168 20.25 45.1263 20.25C45.0847 20.2396 45.043 20.2344 45.0013 20.2344C43.8659 20.1094 42.9336 19.9375 42.2045 19.7188C41.4753 19.4896 40.8607 19.0573 40.3607 18.4219C39.8711 17.7865 39.6263 16.875 39.6263 15.6875C39.6263 14.5729 39.8711 13.6354 40.3607 12.875C40.8607 12.1042 41.5899 11.526 42.5482 11.1406C43.5066 10.7448 44.6836 10.5469 46.0795 10.5469C46.9128 10.5469 47.7253 10.6302 48.517 10.7969C49.3086 10.9531 50.0638 11.1875 50.7826 11.5C51.5118 11.8021 52.1993 12.1823 52.8451 12.6406L50.6107 15.3594C49.8503 14.901 49.0795 14.5521 48.2982 14.3125C47.5274 14.0729 46.7774 13.9531 46.0482 13.9531C45.0691 13.9531 44.3243 14.0938 43.8138 14.375C43.3034 14.6562 43.0482 15.0729 43.0482 15.625C43.0482 15.9792 43.1888 16.25 43.4701 16.4375C43.7513 16.625 44.1003 16.7552 44.517 16.8281C44.9441 16.8906 45.5586 16.9583 46.3607 17.0312C46.4441 17.0417 46.5222 17.0521 46.5951 17.0625C46.6784 17.0625 46.7618 17.0677 46.8451 17.0781C46.8763 17.0781 46.9128 17.0781 46.9545 17.0781C46.9961 17.0781 47.0378 17.0833 47.0795 17.0938C48.2774 17.2083 49.2722 17.3802 50.0638 17.6094C50.8555 17.8385 51.5274 18.2969 52.0795 18.9844C52.6316 19.6615 52.9076 20.651 52.9076 21.9531C52.9076 23.099 52.6472 24.0677 52.1263 24.8594C51.6055 25.6406 50.8295 26.2344 49.7982 26.6406C48.7774 27.0365 47.5222 27.2344 46.0326 27.2344ZM56.5482 4.28125H60.267V8.01562H56.5482V4.28125ZM56.5482 10.7812H60.267V27H56.5482V10.7812ZM70.6576 27.2344C69.6888 27.2344 68.767 27.1458 67.892 26.9688C67.017 26.7812 66.1941 26.5104 65.4232 26.1562C64.6628 25.8021 63.9753 25.3698 63.3607 24.8594L65.6263 22.0469C66.4493 22.6302 67.2878 23.0729 68.142 23.375C69.0066 23.6771 69.8451 23.8281 70.6576 23.8281C71.793 23.8281 72.6524 23.6771 73.2357 23.375C73.8295 23.0625 74.1263 22.6146 74.1263 22.0312C74.1263 21.5833 73.9805 21.25 73.6888 21.0312C73.3972 20.8021 73.0274 20.6458 72.5795 20.5625C72.142 20.4792 71.5222 20.401 70.7201 20.3281C70.5847 20.3177 70.4441 20.3073 70.2982 20.2969C70.1524 20.2865 70.0118 20.2708 69.8763 20.25C69.8347 20.25 69.793 20.25 69.7513 20.25C69.7097 20.2396 69.668 20.2344 69.6263 20.2344C68.4909 20.1094 67.5586 19.9375 66.8295 19.7188C66.1003 19.4896 65.4857 19.0573 64.9857 18.4219C64.4961 17.7865 64.2513 16.875 64.2513 15.6875C64.2513 14.5729 64.4961 13.6354 64.9857 12.875C65.4857 12.1042 66.2149 11.526 67.1732 11.1406C68.1316 10.7448 69.3086 10.5469 70.7045 10.5469C71.5378 10.5469 72.3503 10.6302 73.142 10.7969C73.9336 10.9531 74.6888 11.1875 75.4076 11.5C76.1368 11.8021 76.8243 12.1823 77.4701 12.6406L75.2357 15.3594C74.4753 14.901 73.7045 14.5521 72.9232 14.3125C72.1524 14.0729 71.4024 13.9531 70.6732 13.9531C69.6941 13.9531 68.9493 14.0938 68.4388 14.375C67.9284 14.6562 67.6732 15.0729 67.6732 15.625C67.6732 15.9792 67.8138 16.25 68.0951 16.4375C68.3763 16.625 68.7253 16.7552 69.142 16.8281C69.5691 16.8906 70.1836 16.9583 70.9857 17.0312C71.0691 17.0417 71.1472 17.0521 71.2201 17.0625C71.3034 17.0625 71.3868 17.0677 71.4701 17.0781C71.5013 17.0781 71.5378 17.0781 71.5795 17.0781C71.6211 17.0781 71.6628 17.0833 71.7045 17.0938C72.9024 17.2083 73.8972 17.3802 74.6888 17.6094C75.4805 17.8385 76.1524 18.2969 76.7045 18.9844C77.2566 19.6615 77.5326 20.651 77.5326 21.9531C77.5326 23.099 77.2722 24.0677 76.7513 24.8594C76.2305 25.6406 75.4545 26.2344 74.4232 26.6406C73.4024 27.0365 72.1472 27.2344 70.6576 27.2344ZM85.6576 27.0781C84.293 27.0781 83.293 26.7188 82.6576 26C82.0222 25.2708 81.7045 24.1979 81.7045 22.7812V6.0625H85.4388V22.2656C85.4388 22.6615 85.517 22.9688 85.6732 23.1875C85.8295 23.3958 86.0586 23.5 86.3607 23.5H87.6576V27.0781H85.6576ZM80.0326 10.7812H87.6576V14.0469H80.0326V10.7812ZM98.517 27.2344C96.9857 27.2344 95.6784 26.9531 94.5951 26.3906C93.5118 25.8281 92.6836 25.0052 92.1107 23.9219C91.5378 22.8281 91.2513 21.5104 91.2513 19.9688V18.1406C91.2513 16.5365 91.5222 15.1667 92.0638 14.0312C92.6159 12.8958 93.4128 12.0312 94.4545 11.4375C95.5066 10.8438 96.767 10.5469 98.2357 10.5469C99.6211 10.5469 100.803 10.8958 101.783 11.5938C102.772 12.2812 103.522 13.2812 104.033 14.5938C104.553 15.9062 104.814 17.4896 104.814 19.3438V20.4062H93.7982V17.6719H101.345L101.329 17.5C101.225 16.3646 100.908 15.4844 100.376 14.8594C99.8451 14.2344 99.1316 13.9219 98.2357 13.9219C97.1107 13.9219 96.2409 14.276 95.6263 14.9844C95.0118 15.6823 94.7045 16.6771 94.7045 17.9688V20.0312C94.7045 21.2604 95.0378 22.2083 95.7045 22.875C96.3711 23.5312 97.3086 23.8594 98.517 23.8594C99.1316 23.8594 99.7357 23.7448 100.329 23.5156C100.934 23.276 101.475 22.9479 101.954 22.5312L104.392 24.8125C103.569 25.5833 102.642 26.1823 101.611 26.6094C100.59 27.026 99.5586 27.2344 98.517 27.2344ZM103.298 6.20312L101.204 8.125L98.0795 5.15625L94.9545 8.125L92.8607 6.20312L98.0795 1.23438L103.298 6.20312ZM108.876 10.7812H112.611V27H108.876V10.7812ZM118.486 17.1719C118.486 16.2031 118.225 15.4531 117.704 14.9219C117.184 14.3906 116.444 14.125 115.486 14.125C114.569 14.125 113.861 14.375 113.361 14.875C112.861 15.3646 112.611 16.0625 112.611 16.9688L112.283 13.6094C112.772 12.6094 113.387 11.849 114.126 11.3281C114.876 10.8073 115.757 10.5469 116.767 10.5469C118.496 10.5469 119.835 11.125 120.783 12.2812C121.741 13.4271 122.22 15.0521 122.22 17.1562V27H118.486V17.1719ZM133.454 27.2344C131.944 27.2344 130.652 26.9531 129.579 26.3906C128.507 25.8177 127.689 24.9896 127.126 23.9062C126.564 22.8125 126.283 21.4948 126.283 19.9531V17.75C126.283 16.2292 126.564 14.9323 127.126 13.8594C127.689 12.776 128.507 11.9531 129.579 11.3906C130.652 10.8281 131.944 10.5469 133.454 10.5469C134.319 10.5469 135.132 10.651 135.892 10.8594C136.663 11.0573 137.35 11.349 137.954 11.7344C138.569 12.1198 139.079 12.5885 139.486 13.1406L136.954 15.5156C136.527 15.0677 136.027 14.724 135.454 14.4844C134.882 14.2448 134.283 14.125 133.658 14.125C132.501 14.125 131.606 14.4427 130.97 15.0781C130.335 15.7031 130.017 16.5938 130.017 17.75V19.9531C130.017 21.1406 130.329 22.0573 130.954 22.7031C131.59 23.3385 132.491 23.6562 133.658 23.6562C134.293 23.6562 134.897 23.526 135.47 23.2656C136.043 23.0052 136.538 22.6354 136.954 22.1562L139.486 24.6875C139.069 25.2292 138.553 25.6927 137.939 26.0781C137.335 26.4531 136.647 26.7396 135.876 26.9375C135.116 27.1354 134.309 27.2344 133.454 27.2344ZM142.579 4.28125H146.298V8.01562H142.579V4.28125ZM142.579 10.7812H146.298V27H142.579V10.7812ZM159.767 16.7188C159.767 15.8125 159.496 15.1094 158.954 14.6094C158.423 14.1094 157.668 13.8594 156.689 13.8594C156.064 13.8594 155.449 13.9583 154.845 14.1562C154.241 14.3542 153.699 14.6302 153.22 14.9844L150.736 12.8906C151.371 12.151 152.204 11.5781 153.236 11.1719C154.267 10.7552 155.413 10.5469 156.673 10.5469C158.048 10.5469 159.225 10.7865 160.204 11.2656C161.184 11.7344 161.928 12.4219 162.439 13.3281C162.96 14.224 163.22 15.3073 163.22 16.5781V27H159.767V16.7188ZM155.517 27.2344C153.652 27.2344 152.257 26.8229 151.329 26C150.402 25.1667 149.939 23.9062 149.939 22.2188C149.939 20.6146 150.408 19.4115 151.345 18.6094C152.283 17.8073 153.689 17.4062 155.564 17.4062H159.908L160.126 20.3125H155.579C154.84 20.3125 154.283 20.4688 153.908 20.7812C153.543 21.0938 153.361 21.5729 153.361 22.2188C153.361 22.8958 153.6 23.401 154.079 23.7344C154.559 24.0573 155.283 24.2188 156.251 24.2188C157.439 24.2188 158.319 24.0885 158.892 23.8281C159.475 23.5677 159.767 23.1615 159.767 22.6094L160.095 24.9219C159.918 25.4323 159.606 25.8594 159.158 26.2031C158.72 26.5469 158.189 26.8073 157.564 26.9844C156.939 27.151 156.257 27.2344 155.517 27.2344ZM179.845 6.14062H183.564V27H179.845V6.14062ZM173.533 4.28125H189.876V7.85938H173.533V4.28125ZM196.829 27.2344C195.298 27.2344 193.991 26.9531 192.908 26.3906C191.824 25.8281 190.996 25.0052 190.423 23.9219C189.85 22.8281 189.564 21.5104 189.564 19.9688V18.1406C189.564 16.5365 189.835 15.1667 190.376 14.0312C190.928 12.8958 191.725 12.0312 192.767 11.4375C193.819 10.8438 195.079 10.5469 196.548 10.5469C197.934 10.5469 199.116 10.8958 200.095 11.5938C201.085 12.2812 201.835 13.2812 202.345 14.5938C202.866 15.9062 203.126 17.4896 203.126 19.3438V20.4062H192.111V17.6719H199.658L199.642 17.5C199.538 16.3646 199.22 15.4844 198.689 14.8594C198.158 14.2344 197.444 13.9219 196.548 13.9219C195.423 13.9219 194.553 14.276 193.939 14.9844C193.324 15.6823 193.017 16.6771 193.017 17.9688V20.0312C193.017 21.2604 193.35 22.2083 194.017 22.875C194.684 23.5312 195.621 23.8594 196.829 23.8594C197.444 23.8594 198.048 23.7448 198.642 23.5156C199.246 23.276 199.788 22.9479 200.267 22.5312L202.704 24.8125C201.882 25.5833 200.954 26.1823 199.923 26.6094C198.902 27.026 197.871 27.2344 196.829 27.2344ZM194.329 6.20312L198.798 0.65625L201.439 2.875L196.673 8.125L194.329 6.20312ZM213.892 27.2344C212.382 27.2344 211.09 26.9531 210.017 26.3906C208.944 25.8177 208.126 24.9896 207.564 23.9062C207.001 22.8125 206.72 21.4948 206.72 19.9531V17.75C206.72 16.2292 207.001 14.9323 207.564 13.8594C208.126 12.776 208.944 11.9531 210.017 11.3906C211.09 10.8281 212.382 10.5469 213.892 10.5469C214.757 10.5469 215.569 10.651 216.329 10.8594C217.1 11.0573 217.788 11.349 218.392 11.7344C219.007 12.1198 219.517 12.5885 219.923 13.1406L217.392 15.5156C216.965 15.0677 216.465 14.724 215.892 14.4844C215.319 14.2448 214.72 14.125 214.095 14.125C212.939 14.125 212.043 14.4427 211.408 15.0781C210.772 15.7031 210.454 16.5938 210.454 17.75V19.9531C210.454 21.1406 210.767 22.0573 211.392 22.7031C212.027 23.3385 212.928 23.6562 214.095 23.6562C214.731 23.6562 215.335 23.526 215.908 23.2656C216.481 23.0052 216.975 22.6354 217.392 22.1562L219.923 24.6875C219.507 25.2292 218.991 25.6927 218.376 26.0781C217.772 26.4531 217.085 26.7396 216.314 26.9375C215.553 27.1354 214.746 27.2344 213.892 27.2344ZM223.126 10.7812H226.861V27H223.126V10.7812ZM232.736 17.1719C232.736 16.2031 232.475 15.4531 231.954 14.9219C231.434 14.3906 230.694 14.125 229.736 14.125C228.819 14.125 228.111 14.375 227.611 14.875C227.111 15.3646 226.861 16.0625 226.861 16.9688L226.533 13.6094C227.022 12.6094 227.637 11.849 228.376 11.3281C229.126 10.8073 230.007 10.5469 231.017 10.5469C232.746 10.5469 234.085 11.125 235.033 12.2812C235.991 13.4271 236.47 15.0521 236.47 17.1562V27H232.736V17.1719ZM240.892 4.28125H244.611V8.01562H240.892V4.28125ZM240.892 10.7812H244.611V27H240.892V10.7812ZM255.736 27.2344C254.225 27.2344 252.934 26.9531 251.861 26.3906C250.788 25.8177 249.97 24.9896 249.408 23.9062C248.845 22.8125 248.564 21.4948 248.564 19.9531V17.75C248.564 16.2292 248.845 14.9323 249.408 13.8594C249.97 12.776 250.788 11.9531 251.861 11.3906C252.934 10.8281 254.225 10.5469 255.736 10.5469C256.6 10.5469 257.413 10.651 258.173 10.8594C258.944 11.0573 259.632 11.349 260.236 11.7344C260.85 12.1198 261.361 12.5885 261.767 13.1406L259.236 15.5156C258.809 15.0677 258.309 14.724 257.736 14.4844C257.163 14.2448 256.564 14.125 255.939 14.125C254.783 14.125 253.887 14.4427 253.251 15.0781C252.616 15.7031 252.298 16.5938 252.298 17.75V19.9531C252.298 21.1406 252.611 22.0573 253.236 22.7031C253.871 23.3385 254.772 23.6562 255.939 23.6562C256.574 23.6562 257.178 23.526 257.751 23.2656C258.324 23.0052 258.819 22.6354 259.236 22.1562L261.767 24.6875C261.35 25.2292 260.835 25.6927 260.22 26.0781C259.616 26.4531 258.928 26.7396 258.158 26.9375C257.397 27.1354 256.59 27.2344 255.736 27.2344ZM274.017 16.7188C274.017 15.8125 273.746 15.1094 273.204 14.6094C272.673 14.1094 271.918 13.8594 270.939 13.8594C270.314 13.8594 269.699 13.9583 269.095 14.1562C268.491 14.3542 267.949 14.6302 267.47 14.9844L264.986 12.8906C265.621 12.151 266.454 11.5781 267.486 11.1719C268.517 10.7552 269.663 10.5469 270.923 10.5469C272.298 10.5469 273.475 10.7865 274.454 11.2656C275.434 11.7344 276.178 12.4219 276.689 13.3281C277.21 14.224 277.47 15.3073 277.47 16.5781V27H274.017V16.7188ZM269.767 27.2344C267.902 27.2344 266.507 26.8229 265.579 26C264.652 25.1667 264.189 23.9062 264.189 22.2188C264.189 20.6146 264.658 19.4115 265.595 18.6094C266.533 17.8073 267.939 17.4062 269.814 17.4062H274.158L274.376 20.3125H269.829C269.09 20.3125 268.533 20.4688 268.158 20.7812C267.793 21.0938 267.611 21.5729 267.611 22.2188C267.611 22.8958 267.85 23.401 268.329 23.7344C268.809 24.0573 269.533 24.2188 270.501 24.2188C271.689 24.2188 272.569 24.0885 273.142 23.8281C273.725 23.5677 274.017 23.1615 274.017 22.6094L274.345 24.9219C274.168 25.4323 273.856 25.8594 273.408 26.2031C272.97 26.5469 272.439 26.8073 271.814 26.9844C271.189 27.151 270.507 27.2344 269.767 27.2344ZM301.408 17.0781V20.6406H290.595V17.0781H301.408ZM316.642 14.6094H323.908C324.512 14.6094 325.038 14.474 325.486 14.2031C325.944 13.9219 326.298 13.526 326.548 13.0156C326.809 12.5052 326.939 11.9167 326.939 11.25C326.939 10.5729 326.814 9.97917 326.564 9.46875C326.314 8.95833 325.96 8.5625 325.501 8.28125C325.043 8 324.512 7.85938 323.908 7.85938H316.642V4.28125H323.798C325.184 4.28125 326.402 4.57292 327.454 5.15625C328.507 5.72917 329.324 6.54167 329.908 7.59375C330.491 8.64583 330.783 9.86458 330.783 11.25C330.783 12.6354 330.491 13.8542 329.908 14.9062C329.324 15.9479 328.507 16.7552 327.454 17.3281C326.402 17.901 325.184 18.1875 323.798 18.1875H316.642V14.6094ZM314.845 4.28125H318.579V27H314.845V4.28125ZM339.439 27.2344C338.001 27.2344 336.767 26.9583 335.736 26.4062C334.715 25.8542 333.934 25.0521 333.392 24C332.861 22.9375 332.595 21.6615 332.595 20.1719V17.5312C332.595 16.0625 332.861 14.8073 333.392 13.7656C333.934 12.7135 334.715 11.9167 335.736 11.375C336.767 10.8229 338.001 10.5469 339.439 10.5469C340.876 10.5469 342.106 10.8229 343.126 11.375C344.158 11.9167 344.939 12.7135 345.47 13.7656C346.012 14.8073 346.283 16.0625 346.283 17.5312V20.2188C346.283 21.6979 346.012 22.9635 345.47 24.0156C344.939 25.0573 344.158 25.8542 343.126 26.4062C342.106 26.9583 340.876 27.2344 339.439 27.2344ZM339.439 23.6562C340.428 23.6562 341.194 23.3594 341.736 22.7656C342.277 22.1615 342.548 21.3125 342.548 20.2188V17.5312C342.548 16.4479 342.277 15.6094 341.736 15.0156C341.194 14.4219 340.428 14.125 339.439 14.125C338.449 14.125 337.684 14.4219 337.142 15.0156C336.6 15.6094 336.329 16.4479 336.329 17.5312V20.2188C336.329 21.3125 336.595 22.1615 337.126 22.7656C337.668 23.3594 338.439 23.6562 339.439 23.6562ZM356.876 27.2344C355.439 27.2344 354.204 26.9583 353.173 26.4062C352.152 25.8542 351.371 25.0521 350.829 24C350.298 22.9375 350.033 21.6615 350.033 20.1719V17.5312C350.033 16.0625 350.298 14.8073 350.829 13.7656C351.371 12.7135 352.152 11.9167 353.173 11.375C354.204 10.8229 355.439 10.5469 356.876 10.5469C358.314 10.5469 359.543 10.8229 360.564 11.375C361.595 11.9167 362.376 12.7135 362.908 13.7656C363.449 14.8073 363.72 16.0625 363.72 17.5312V20.2188C363.72 21.6979 363.449 22.9635 362.908 24.0156C362.376 25.0573 361.595 25.8542 360.564 26.4062C359.543 26.9583 358.314 27.2344 356.876 27.2344ZM356.876 23.6562C357.866 23.6562 358.632 23.3594 359.173 22.7656C359.715 22.1615 359.986 21.3125 359.986 20.2188V17.5312C359.986 16.4479 359.715 15.6094 359.173 15.0156C358.632 14.4219 357.866 14.125 356.876 14.125C355.887 14.125 355.121 14.4219 354.579 15.0156C354.038 15.6094 353.767 16.4479 353.767 17.5312V20.2188C353.767 21.3125 354.033 22.1615 354.564 22.7656C355.106 23.3594 355.876 23.6562 356.876 23.6562Z" fill="#171717"/>
</svg>
