<svg width="420" height="28" viewBox="0 0 420 28" fill="none" xmlns="http://www.w3.org/2000/svg">
<path d="M9.25134 4.28125H11.9701L20.5013 27H16.4857L10.6107 10.0781L4.73572 27H0.720093L9.25134 4.28125ZM4.73572 19.1094H16.6888V22.6875H4.73572V19.1094ZM29.2826 27.2344C28.3138 27.2344 27.392 27.1458 26.517 26.9688C25.642 26.7812 24.8191 26.5104 24.0482 26.1562C23.2878 25.8021 22.6003 25.3698 21.9857 24.8594L24.2513 22.0469C25.0743 22.6302 25.9128 23.0729 26.767 23.375C27.6316 23.6771 28.4701 23.8281 29.2826 23.8281C30.418 23.8281 31.2774 23.6771 31.8607 23.375C32.4545 23.0625 32.7513 22.6146 32.7513 22.0312C32.7513 21.5833 32.6055 21.25 32.3138 21.0312C32.0222 20.8021 31.6524 20.6458 31.2045 20.5625C30.767 20.4792 30.1472 20.401 29.3451 20.3281C29.2097 20.3177 29.0691 20.3073 28.9232 20.2969C28.7774 20.2865 28.6368 20.2708 28.5013 20.25C28.4597 20.25 28.418 20.25 28.3763 20.25C28.3347 20.2396 28.293 20.2344 28.2513 20.2344C27.1159 20.1094 26.1836 19.9375 25.4545 19.7188C24.7253 19.4896 24.1107 19.0573 23.6107 18.4219C23.1211 17.7865 22.8763 16.875 22.8763 15.6875C22.8763 14.5729 23.1211 13.6354 23.6107 12.875C24.1107 12.1042 24.8399 11.526 25.7982 11.1406C26.7566 10.7448 27.9336 10.5469 29.3295 10.5469C30.1628 10.5469 30.9753 10.6302 31.767 10.7969C32.5586 10.9531 33.3138 11.1875 34.0326 11.5C34.7618 11.8021 35.4493 12.1823 36.0951 12.6406L33.8607 15.3594C33.1003 14.901 32.3295 14.5521 31.5482 14.3125C30.7774 14.0729 30.0274 13.9531 29.2982 13.9531C28.3191 13.9531 27.5743 14.0938 27.0638 14.375C26.5534 14.6562 26.2982 15.0729 26.2982 15.625C26.2982 15.9792 26.4388 16.25 26.7201 16.4375C27.0013 16.625 27.3503 16.7552 27.767 16.8281C28.1941 16.8906 28.8086 16.9583 29.6107 17.0312C29.6941 17.0417 29.7722 17.0521 29.8451 17.0625C29.9284 17.0625 30.0118 17.0677 30.0951 17.0781C30.1263 17.0781 30.1628 17.0781 30.2045 17.0781C30.2461 17.0781 30.2878 17.0833 30.3295 17.0938C31.5274 17.2083 32.5222 17.3802 33.3138 17.6094C34.1055 17.8385 34.7774 18.2969 35.3295 18.9844C35.8816 19.6615 36.1576 20.651 36.1576 21.9531C36.1576 23.099 35.8972 24.0677 35.3763 24.8594C34.8555 25.6406 34.0795 26.2344 33.0482 26.6406C32.0274 27.0365 30.7722 27.2344 29.2826 27.2344ZM45.8763 27.2344C44.9076 27.2344 43.9857 27.1458 43.1107 26.9688C42.2357 26.7812 41.4128 26.5104 40.642 26.1562C39.8816 25.8021 39.1941 25.3698 38.5795 24.8594L40.8451 22.0469C41.668 22.6302 42.5066 23.0729 43.3607 23.375C44.2253 23.6771 45.0638 23.8281 45.8763 23.8281C47.0118 23.8281 47.8711 23.6771 48.4545 23.375C49.0482 23.0625 49.3451 22.6146 49.3451 22.0312C49.3451 21.5833 49.1993 21.25 48.9076 21.0312C48.6159 20.8021 48.2461 20.6458 47.7982 20.5625C47.3607 20.4792 46.7409 20.401 45.9388 20.3281C45.8034 20.3177 45.6628 20.3073 45.517 20.2969C45.3711 20.2865 45.2305 20.2708 45.0951 20.25C45.0534 20.25 45.0118 20.25 44.9701 20.25C44.9284 20.2396 44.8868 20.2344 44.8451 20.2344C43.7097 20.1094 42.7774 19.9375 42.0482 19.7188C41.3191 19.4896 40.7045 19.0573 40.2045 18.4219C39.7149 17.7865 39.4701 16.875 39.4701 15.6875C39.4701 14.5729 39.7149 13.6354 40.2045 12.875C40.7045 12.1042 41.4336 11.526 42.392 11.1406C43.3503 10.7448 44.5274 10.5469 45.9232 10.5469C46.7566 10.5469 47.5691 10.6302 48.3607 10.7969C49.1524 10.9531 49.9076 11.1875 50.6263 11.5C51.3555 11.8021 52.043 12.1823 52.6888 12.6406L50.4545 15.3594C49.6941 14.901 48.9232 14.5521 48.142 14.3125C47.3711 14.0729 46.6211 13.9531 45.892 13.9531C44.9128 13.9531 44.168 14.0938 43.6576 14.375C43.1472 14.6562 42.892 15.0729 42.892 15.625C42.892 15.9792 43.0326 16.25 43.3138 16.4375C43.5951 16.625 43.9441 16.7552 44.3607 16.8281C44.7878 16.8906 45.4024 16.9583 46.2045 17.0312C46.2878 17.0417 46.3659 17.0521 46.4388 17.0625C46.5222 17.0625 46.6055 17.0677 46.6888 17.0781C46.7201 17.0781 46.7566 17.0781 46.7982 17.0781C46.8399 17.0781 46.8816 17.0833 46.9232 17.0938C48.1211 17.2083 49.1159 17.3802 49.9076 17.6094C50.6993 17.8385 51.3711 18.2969 51.9232 18.9844C52.4753 19.6615 52.7513 20.651 52.7513 21.9531C52.7513 23.099 52.4909 24.0677 51.9701 24.8594C51.4493 25.6406 50.6732 26.2344 49.642 26.6406C48.6211 27.0365 47.3659 27.2344 45.8763 27.2344ZM56.392 4.28125H60.1107V8.01562H56.392V4.28125ZM56.392 10.7812H60.1107V27H56.392V10.7812ZM70.5013 27.2344C69.5326 27.2344 68.6107 27.1458 67.7357 26.9688C66.8607 26.7812 66.0378 26.5104 65.267 26.1562C64.5066 25.8021 63.8191 25.3698 63.2045 24.8594L65.4701 22.0469C66.293 22.6302 67.1316 23.0729 67.9857 23.375C68.8503 23.6771 69.6888 23.8281 70.5013 23.8281C71.6368 23.8281 72.4961 23.6771 73.0795 23.375C73.6732 23.0625 73.9701 22.6146 73.9701 22.0312C73.9701 21.5833 73.8243 21.25 73.5326 21.0312C73.2409 20.8021 72.8711 20.6458 72.4232 20.5625C71.9857 20.4792 71.3659 20.401 70.5638 20.3281C70.4284 20.3177 70.2878 20.3073 70.142 20.2969C69.9961 20.2865 69.8555 20.2708 69.7201 20.25C69.6784 20.25 69.6368 20.25 69.5951 20.25C69.5534 20.2396 69.5118 20.2344 69.4701 20.2344C68.3347 20.1094 67.4024 19.9375 66.6732 19.7188C65.9441 19.4896 65.3295 19.0573 64.8295 18.4219C64.3399 17.7865 64.0951 16.875 64.0951 15.6875C64.0951 14.5729 64.3399 13.6354 64.8295 12.875C65.3295 12.1042 66.0586 11.526 67.017 11.1406C67.9753 10.7448 69.1524 10.5469 70.5482 10.5469C71.3816 10.5469 72.1941 10.6302 72.9857 10.7969C73.7774 10.9531 74.5326 11.1875 75.2513 11.5C75.9805 11.8021 76.668 12.1823 77.3138 12.6406L75.0795 15.3594C74.3191 14.901 73.5482 14.5521 72.767 14.3125C71.9961 14.0729 71.2461 13.9531 70.517 13.9531C69.5378 13.9531 68.793 14.0938 68.2826 14.375C67.7722 14.6562 67.517 15.0729 67.517 15.625C67.517 15.9792 67.6576 16.25 67.9388 16.4375C68.2201 16.625 68.5691 16.7552 68.9857 16.8281C69.4128 16.8906 70.0274 16.9583 70.8295 17.0312C70.9128 17.0417 70.9909 17.0521 71.0638 17.0625C71.1472 17.0625 71.2305 17.0677 71.3138 17.0781C71.3451 17.0781 71.3816 17.0781 71.4232 17.0781C71.4649 17.0781 71.5066 17.0833 71.5482 17.0938C72.7461 17.2083 73.7409 17.3802 74.5326 17.6094C75.3243 17.8385 75.9961 18.2969 76.5482 18.9844C77.1003 19.6615 77.3763 20.651 77.3763 21.9531C77.3763 23.099 77.1159 24.0677 76.5951 24.8594C76.0743 25.6406 75.2982 26.2344 74.267 26.6406C73.2461 27.0365 71.9909 27.2344 70.5013 27.2344ZM85.5013 27.0781C84.1368 27.0781 83.1368 26.7188 82.5013 26C81.8659 25.2708 81.5482 24.1979 81.5482 22.7812V6.0625H85.2826V22.2656C85.2826 22.6615 85.3607 22.9688 85.517 23.1875C85.6732 23.3958 85.9024 23.5 86.2045 23.5H87.5013V27.0781H85.5013ZM79.8763 10.7812H87.5013V14.0469H79.8763V10.7812ZM98.3607 27.2344C96.8295 27.2344 95.5222 26.9531 94.4388 26.3906C93.3555 25.8281 92.5274 25.0052 91.9545 23.9219C91.3816 22.8281 91.0951 21.5104 91.0951 19.9688V18.1406C91.0951 16.5365 91.3659 15.1667 91.9076 14.0312C92.4597 12.8958 93.2566 12.0312 94.2982 11.4375C95.3503 10.8438 96.6107 10.5469 98.0795 10.5469C99.4649 10.5469 100.647 10.8958 101.626 11.5938C102.616 12.2812 103.366 13.2812 103.876 14.5938C104.397 15.9062 104.658 17.4896 104.658 19.3438V20.4062H93.642V17.6719H101.189L101.173 17.5C101.069 16.3646 100.751 15.4844 100.22 14.8594C99.6888 14.2344 98.9753 13.9219 98.0795 13.9219C96.9545 13.9219 96.0847 14.276 95.4701 14.9844C94.8555 15.6823 94.5482 16.6771 94.5482 17.9688V20.0312C94.5482 21.2604 94.8816 22.2083 95.5482 22.875C96.2149 23.5312 97.1524 23.8594 98.3607 23.8594C98.9753 23.8594 99.5795 23.7448 100.173 23.5156C100.777 23.276 101.319 22.9479 101.798 22.5312L104.236 24.8125C103.413 25.5833 102.486 26.1823 101.454 26.6094C100.434 27.026 99.4024 27.2344 98.3607 27.2344ZM103.142 6.20312L101.048 8.125L97.9232 5.15625L94.7982 8.125L92.7045 6.20312L97.9232 1.23438L103.142 6.20312ZM108.72 10.7812H112.454V27H108.72V10.7812ZM118.329 17.1719C118.329 16.2031 118.069 15.4531 117.548 14.9219C117.027 14.3906 116.288 14.125 115.329 14.125C114.413 14.125 113.704 14.375 113.204 14.875C112.704 15.3646 112.454 16.0625 112.454 16.9688L112.126 13.6094C112.616 12.6094 113.231 11.849 113.97 11.3281C114.72 10.8073 115.6 10.5469 116.611 10.5469C118.34 10.5469 119.678 11.125 120.626 12.2812C121.585 13.4271 122.064 15.0521 122.064 17.1562V27H118.329V17.1719ZM133.298 27.2344C131.788 27.2344 130.496 26.9531 129.423 26.3906C128.35 25.8177 127.533 24.9896 126.97 23.9062C126.408 22.8125 126.126 21.4948 126.126 19.9531V17.75C126.126 16.2292 126.408 14.9323 126.97 13.8594C127.533 12.776 128.35 11.9531 129.423 11.3906C130.496 10.8281 131.788 10.5469 133.298 10.5469C134.163 10.5469 134.975 10.651 135.736 10.8594C136.507 11.0573 137.194 11.349 137.798 11.7344C138.413 12.1198 138.923 12.5885 139.329 13.1406L136.798 15.5156C136.371 15.0677 135.871 14.724 135.298 14.4844C134.725 14.2448 134.126 14.125 133.501 14.125C132.345 14.125 131.449 14.4427 130.814 15.0781C130.178 15.7031 129.861 16.5938 129.861 17.75V19.9531C129.861 21.1406 130.173 22.0573 130.798 22.7031C131.434 23.3385 132.335 23.6562 133.501 23.6562C134.137 23.6562 134.741 23.526 135.314 23.2656C135.887 23.0052 136.382 22.6354 136.798 22.1562L139.329 24.6875C138.913 25.2292 138.397 25.6927 137.783 26.0781C137.178 26.4531 136.491 26.7396 135.72 26.9375C134.96 27.1354 134.152 27.2344 133.298 27.2344ZM142.423 4.28125H146.142V8.01562H142.423V4.28125ZM142.423 10.7812H146.142V27H142.423V10.7812ZM159.611 16.7188C159.611 15.8125 159.34 15.1094 158.798 14.6094C158.267 14.1094 157.512 13.8594 156.533 13.8594C155.908 13.8594 155.293 13.9583 154.689 14.1562C154.085 14.3542 153.543 14.6302 153.064 14.9844L150.579 12.8906C151.215 12.151 152.048 11.5781 153.079 11.1719C154.111 10.7552 155.257 10.5469 156.517 10.5469C157.892 10.5469 159.069 10.7865 160.048 11.2656C161.027 11.7344 161.772 12.4219 162.283 13.3281C162.803 14.224 163.064 15.3073 163.064 16.5781V27H159.611V16.7188ZM155.361 27.2344C153.496 27.2344 152.1 26.8229 151.173 26C150.246 25.1667 149.783 23.9062 149.783 22.2188C149.783 20.6146 150.251 19.4115 151.189 18.6094C152.126 17.8073 153.533 17.4062 155.408 17.4062H159.751L159.97 20.3125H155.423C154.684 20.3125 154.126 20.4688 153.751 20.7812C153.387 21.0938 153.204 21.5729 153.204 22.2188C153.204 22.8958 153.444 23.401 153.923 23.7344C154.402 24.0573 155.126 24.2188 156.095 24.2188C157.283 24.2188 158.163 24.0885 158.736 23.8281C159.319 23.5677 159.611 23.1615 159.611 22.6094L159.939 24.9219C159.762 25.4323 159.449 25.8594 159.001 26.2031C158.564 26.5469 158.033 26.8073 157.408 26.9844C156.783 27.151 156.1 27.2344 155.361 27.2344ZM179.689 6.14062H183.408V27H179.689V6.14062ZM173.376 4.28125H189.72V7.85938H173.376V4.28125ZM196.673 27.2344C195.142 27.2344 193.835 26.9531 192.751 26.3906C191.668 25.8281 190.84 25.0052 190.267 23.9219C189.694 22.8281 189.408 21.5104 189.408 19.9688V18.1406C189.408 16.5365 189.678 15.1667 190.22 14.0312C190.772 12.8958 191.569 12.0312 192.611 11.4375C193.663 10.8438 194.923 10.5469 196.392 10.5469C197.777 10.5469 198.96 10.8958 199.939 11.5938C200.928 12.2812 201.678 13.2812 202.189 14.5938C202.71 15.9062 202.97 17.4896 202.97 19.3438V20.4062H191.954V17.6719H199.501L199.486 17.5C199.382 16.3646 199.064 15.4844 198.533 14.8594C198.001 14.2344 197.288 13.9219 196.392 13.9219C195.267 13.9219 194.397 14.276 193.783 14.9844C193.168 15.6823 192.861 16.6771 192.861 17.9688V20.0312C192.861 21.2604 193.194 22.2083 193.861 22.875C194.527 23.5312 195.465 23.8594 196.673 23.8594C197.288 23.8594 197.892 23.7448 198.486 23.5156C199.09 23.276 199.632 22.9479 200.111 22.5312L202.548 24.8125C201.725 25.5833 200.798 26.1823 199.767 26.6094C198.746 27.026 197.715 27.2344 196.673 27.2344ZM194.173 6.20312L198.642 0.65625L201.283 2.875L196.517 8.125L194.173 6.20312ZM213.736 27.2344C212.225 27.2344 210.934 26.9531 209.861 26.3906C208.788 25.8177 207.97 24.9896 207.408 23.9062C206.845 22.8125 206.564 21.4948 206.564 19.9531V17.75C206.564 16.2292 206.845 14.9323 207.408 13.8594C207.97 12.776 208.788 11.9531 209.861 11.3906C210.934 10.8281 212.225 10.5469 213.736 10.5469C214.6 10.5469 215.413 10.651 216.173 10.8594C216.944 11.0573 217.632 11.349 218.236 11.7344C218.85 12.1198 219.361 12.5885 219.767 13.1406L217.236 15.5156C216.809 15.0677 216.309 14.724 215.736 14.4844C215.163 14.2448 214.564 14.125 213.939 14.125C212.783 14.125 211.887 14.4427 211.251 15.0781C210.616 15.7031 210.298 16.5938 210.298 17.75V19.9531C210.298 21.1406 210.611 22.0573 211.236 22.7031C211.871 23.3385 212.772 23.6562 213.939 23.6562C214.574 23.6562 215.178 23.526 215.751 23.2656C216.324 23.0052 216.819 22.6354 217.236 22.1562L219.767 24.6875C219.35 25.2292 218.835 25.6927 218.22 26.0781C217.616 26.4531 216.928 26.7396 216.158 26.9375C215.397 27.1354 214.59 27.2344 213.736 27.2344ZM222.97 10.7812H226.704V27H222.97V10.7812ZM232.579 17.1719C232.579 16.2031 232.319 15.4531 231.798 14.9219C231.277 14.3906 230.538 14.125 229.579 14.125C228.663 14.125 227.954 14.375 227.454 14.875C226.954 15.3646 226.704 16.0625 226.704 16.9688L226.376 13.6094C226.866 12.6094 227.481 11.849 228.22 11.3281C228.97 10.8073 229.85 10.5469 230.861 10.5469C232.59 10.5469 233.928 11.125 234.876 12.2812C235.835 13.4271 236.314 15.0521 236.314 17.1562V27H232.579V17.1719ZM240.736 4.28125H244.454V8.01562H240.736V4.28125ZM240.736 10.7812H244.454V27H240.736V10.7812ZM255.579 27.2344C254.069 27.2344 252.777 26.9531 251.704 26.3906C250.632 25.8177 249.814 24.9896 249.251 23.9062C248.689 22.8125 248.408 21.4948 248.408 19.9531V17.75C248.408 16.2292 248.689 14.9323 249.251 13.8594C249.814 12.776 250.632 11.9531 251.704 11.3906C252.777 10.8281 254.069 10.5469 255.579 10.5469C256.444 10.5469 257.257 10.651 258.017 10.8594C258.788 11.0573 259.475 11.349 260.079 11.7344C260.694 12.1198 261.204 12.5885 261.611 13.1406L259.079 15.5156C258.652 15.0677 258.152 14.724 257.579 14.4844C257.007 14.2448 256.408 14.125 255.783 14.125C254.626 14.125 253.731 14.4427 253.095 15.0781C252.46 15.7031 252.142 16.5938 252.142 17.75V19.9531C252.142 21.1406 252.454 22.0573 253.079 22.7031C253.715 23.3385 254.616 23.6562 255.783 23.6562C256.418 23.6562 257.022 23.526 257.595 23.2656C258.168 23.0052 258.663 22.6354 259.079 22.1562L261.611 24.6875C261.194 25.2292 260.678 25.6927 260.064 26.0781C259.46 26.4531 258.772 26.7396 258.001 26.9375C257.241 27.1354 256.434 27.2344 255.579 27.2344ZM273.861 16.7188C273.861 15.8125 273.59 15.1094 273.048 14.6094C272.517 14.1094 271.762 13.8594 270.783 13.8594C270.158 13.8594 269.543 13.9583 268.939 14.1562C268.335 14.3542 267.793 14.6302 267.314 14.9844L264.829 12.8906C265.465 12.151 266.298 11.5781 267.329 11.1719C268.361 10.7552 269.507 10.5469 270.767 10.5469C272.142 10.5469 273.319 10.7865 274.298 11.2656C275.277 11.7344 276.022 12.4219 276.533 13.3281C277.053 14.224 277.314 15.3073 277.314 16.5781V27H273.861V16.7188ZM269.611 27.2344C267.746 27.2344 266.35 26.8229 265.423 26C264.496 25.1667 264.033 23.9062 264.033 22.2188C264.033 20.6146 264.501 19.4115 265.439 18.6094C266.376 17.8073 267.783 17.4062 269.658 17.4062H274.001L274.22 20.3125H269.673C268.934 20.3125 268.376 20.4688 268.001 20.7812C267.637 21.0938 267.454 21.5729 267.454 22.2188C267.454 22.8958 267.694 23.401 268.173 23.7344C268.652 24.0573 269.376 24.2188 270.345 24.2188C271.533 24.2188 272.413 24.0885 272.986 23.8281C273.569 23.5677 273.861 23.1615 273.861 22.6094L274.189 24.9219C274.012 25.4323 273.699 25.8594 273.251 26.2031C272.814 26.5469 272.283 26.8073 271.658 26.9844C271.033 27.151 270.35 27.2344 269.611 27.2344ZM301.251 17.0781V20.6406H290.439V17.0781H301.251ZM314.689 4.28125H318.423V27H314.689V4.28125ZM316.439 23.4219H329.595V27H316.439V23.4219ZM341.767 16.7188C341.767 15.8125 341.496 15.1094 340.954 14.6094C340.423 14.1094 339.668 13.8594 338.689 13.8594C338.064 13.8594 337.449 13.9583 336.845 14.1562C336.241 14.3542 335.699 14.6302 335.22 14.9844L332.736 12.8906C333.371 12.151 334.204 11.5781 335.236 11.1719C336.267 10.7552 337.413 10.5469 338.673 10.5469C340.048 10.5469 341.225 10.7865 342.204 11.2656C343.184 11.7344 343.928 12.4219 344.439 13.3281C344.96 14.224 345.22 15.3073 345.22 16.5781V27H341.767V16.7188ZM337.517 27.2344C335.652 27.2344 334.257 26.8229 333.329 26C332.402 25.1667 331.939 23.9062 331.939 22.2188C331.939 20.6146 332.408 19.4115 333.345 18.6094C334.283 17.8073 335.689 17.4062 337.564 17.4062H341.908L342.126 20.3125H337.579C336.84 20.3125 336.283 20.4688 335.908 20.7812C335.543 21.0938 335.361 21.5729 335.361 22.2188C335.361 22.8958 335.6 23.401 336.079 23.7344C336.559 24.0573 337.283 24.2188 338.251 24.2188C339.439 24.2188 340.319 24.0885 340.892 23.8281C341.475 23.5677 341.767 23.1615 341.767 22.6094L342.095 24.9219C341.918 25.4323 341.606 25.8594 341.158 26.2031C340.72 26.5469 340.189 26.8073 339.564 26.9844C338.939 27.151 338.257 27.2344 337.517 27.2344ZM349.751 10.7812H353.642V27H349.751V10.7812ZM358.783 14.9531C358.533 14.6823 358.225 14.4792 357.861 14.3438C357.496 14.1979 357.074 14.125 356.595 14.125C355.658 14.125 354.928 14.4062 354.408 14.9688C353.897 15.5208 353.642 16.2917 353.642 17.2812L353.314 13.6094C353.783 12.6406 354.392 11.8906 355.142 11.3594C355.902 10.8177 356.736 10.5469 357.642 10.5469C358.35 10.5469 358.991 10.6562 359.564 10.875C360.137 11.0833 360.637 11.3958 361.064 11.8125L358.783 14.9531ZM372.454 16.7188C372.454 15.8125 372.184 15.1094 371.642 14.6094C371.111 14.1094 370.356 13.8594 369.376 13.8594C368.751 13.8594 368.137 13.9583 367.533 14.1562C366.928 14.3542 366.387 14.6302 365.908 14.9844L363.423 12.8906C364.059 12.151 364.892 11.5781 365.923 11.1719C366.954 10.7552 368.1 10.5469 369.361 10.5469C370.736 10.5469 371.913 10.7865 372.892 11.2656C373.871 11.7344 374.616 12.4219 375.126 13.3281C375.647 14.224 375.908 15.3073 375.908 16.5781V27H372.454V16.7188ZM368.204 27.2344C366.34 27.2344 364.944 26.8229 364.017 26C363.09 25.1667 362.626 23.9062 362.626 22.2188C362.626 20.6146 363.095 19.4115 364.033 18.6094C364.97 17.8073 366.376 17.4062 368.251 17.4062H372.595L372.814 20.3125H368.267C367.527 20.3125 366.97 20.4688 366.595 20.7812C366.231 21.0938 366.048 21.5729 366.048 22.2188C366.048 22.8958 366.288 23.401 366.767 23.7344C367.246 24.0573 367.97 24.2188 368.939 24.2188C370.126 24.2188 371.007 24.0885 371.579 23.8281C372.163 23.5677 372.454 23.1615 372.454 22.6094L372.783 24.9219C372.606 25.4323 372.293 25.8594 371.845 26.2031C371.408 26.5469 370.876 26.8073 370.251 26.9844C369.626 27.151 368.944 27.2344 368.204 27.2344ZM389.361 10.7812H393.158L387.064 27H384.345L378.251 10.7812H382.048L385.704 21.6562L389.361 10.7812ZM402.454 27.2344C400.923 27.2344 399.616 26.9531 398.533 26.3906C397.449 25.8281 396.621 25.0052 396.048 23.9219C395.475 22.8281 395.189 21.5104 395.189 19.9688V18.1406C395.189 16.5365 395.46 15.1667 396.001 14.0312C396.553 12.8958 397.35 12.0312 398.392 11.4375C399.444 10.8438 400.704 10.5469 402.173 10.5469C403.559 10.5469 404.741 10.8958 405.72 11.5938C406.71 12.2812 407.46 13.2812 407.97 14.5938C408.491 15.9062 408.751 17.4896 408.751 19.3438V20.4062H397.736V17.6719H405.283L405.267 17.5C405.163 16.3646 404.845 15.4844 404.314 14.8594C403.783 14.2344 403.069 13.9219 402.173 13.9219C401.048 13.9219 400.178 14.276 399.564 14.9844C398.949 15.6823 398.642 16.6771 398.642 17.9688V20.0312C398.642 21.2604 398.975 22.2083 399.642 22.875C400.309 23.5312 401.246 23.8594 402.454 23.8594C403.069 23.8594 403.673 23.7448 404.267 23.5156C404.871 23.276 405.413 22.9479 405.892 22.5312L408.329 24.8125C407.507 25.5833 406.579 26.1823 405.548 26.6094C404.527 27.026 403.496 27.2344 402.454 27.2344ZM416.548 22.2344C416.548 22.6302 416.647 22.9375 416.845 23.1562C417.043 23.3646 417.324 23.4688 417.689 23.4688H418.798V27.0469H416.767C415.517 27.0469 414.543 26.6719 413.845 25.9219C413.158 25.1719 412.814 24.1146 412.814 22.75V4.28125H416.548V22.2344Z" fill="#171717"/>
</svg>
