<svg width="526" height="34" viewBox="0 0 526 34" fill="none" xmlns="http://www.w3.org/2000/svg">
<path d="M9.48572 4.28125H12.2045L20.7357 27H16.7201L10.8451 10.0781L4.97009 27H0.954468L9.48572 4.28125ZM4.97009 19.1094H16.9232V22.6875H4.97009V19.1094ZM29.517 27.2344C28.5482 27.2344 27.6263 27.1458 26.7513 26.9688C25.8763 26.7812 25.0534 26.5104 24.2826 26.1562C23.5222 25.8021 22.8347 25.3698 22.2201 24.8594L24.4857 22.0469C25.3086 22.6302 26.1472 23.0729 27.0013 23.375C27.8659 23.6771 28.7045 23.8281 29.517 23.8281C30.6524 23.8281 31.5118 23.6771 32.0951 23.375C32.6888 23.0625 32.9857 22.6146 32.9857 22.0312C32.9857 21.5833 32.8399 21.25 32.5482 21.0312C32.2566 20.8021 31.8868 20.6458 31.4388 20.5625C31.0013 20.4792 30.3816 20.401 29.5795 20.3281C29.4441 20.3177 29.3034 20.3073 29.1576 20.2969C29.0118 20.2865 28.8711 20.2708 28.7357 20.25C28.6941 20.25 28.6524 20.25 28.6107 20.25C28.5691 20.2396 28.5274 20.2344 28.4857 20.2344C27.3503 20.1094 26.418 19.9375 25.6888 19.7188C24.9597 19.4896 24.3451 19.0573 23.8451 18.4219C23.3555 17.7865 23.1107 16.875 23.1107 15.6875C23.1107 14.5729 23.3555 13.6354 23.8451 12.875C24.3451 12.1042 25.0743 11.526 26.0326 11.1406C26.9909 10.7448 28.168 10.5469 29.5638 10.5469C30.3972 10.5469 31.2097 10.6302 32.0013 10.7969C32.793 10.9531 33.5482 11.1875 34.267 11.5C34.9961 11.8021 35.6836 12.1823 36.3295 12.6406L34.0951 15.3594C33.3347 14.901 32.5638 14.5521 31.7826 14.3125C31.0118 14.0729 30.2618 13.9531 29.5326 13.9531C28.5534 13.9531 27.8086 14.0938 27.2982 14.375C26.7878 14.6562 26.5326 15.0729 26.5326 15.625C26.5326 15.9792 26.6732 16.25 26.9545 16.4375C27.2357 16.625 27.5847 16.7552 28.0013 16.8281C28.4284 16.8906 29.043 16.9583 29.8451 17.0312C29.9284 17.0417 30.0066 17.0521 30.0795 17.0625C30.1628 17.0625 30.2461 17.0677 30.3295 17.0781C30.3607 17.0781 30.3972 17.0781 30.4388 17.0781C30.4805 17.0781 30.5222 17.0833 30.5638 17.0938C31.7618 17.2083 32.7566 17.3802 33.5482 17.6094C34.3399 17.8385 35.0118 18.2969 35.5638 18.9844C36.1159 19.6615 36.392 20.651 36.392 21.9531C36.392 23.099 36.1316 24.0677 35.6107 24.8594C35.0899 25.6406 34.3138 26.2344 33.2826 26.6406C32.2618 27.0365 31.0066 27.2344 29.517 27.2344ZM46.1107 27.2344C45.142 27.2344 44.2201 27.1458 43.3451 26.9688C42.4701 26.7812 41.6472 26.5104 40.8763 26.1562C40.1159 25.8021 39.4284 25.3698 38.8138 24.8594L41.0795 22.0469C41.9024 22.6302 42.7409 23.0729 43.5951 23.375C44.4597 23.6771 45.2982 23.8281 46.1107 23.8281C47.2461 23.8281 48.1055 23.6771 48.6888 23.375C49.2826 23.0625 49.5795 22.6146 49.5795 22.0312C49.5795 21.5833 49.4336 21.25 49.142 21.0312C48.8503 20.8021 48.4805 20.6458 48.0326 20.5625C47.5951 20.4792 46.9753 20.401 46.1732 20.3281C46.0378 20.3177 45.8972 20.3073 45.7513 20.2969C45.6055 20.2865 45.4649 20.2708 45.3295 20.25C45.2878 20.25 45.2461 20.25 45.2045 20.25C45.1628 20.2396 45.1211 20.2344 45.0795 20.2344C43.9441 20.1094 43.0118 19.9375 42.2826 19.7188C41.5534 19.4896 40.9388 19.0573 40.4388 18.4219C39.9493 17.7865 39.7045 16.875 39.7045 15.6875C39.7045 14.5729 39.9493 13.6354 40.4388 12.875C40.9388 12.1042 41.668 11.526 42.6263 11.1406C43.5847 10.7448 44.7618 10.5469 46.1576 10.5469C46.9909 10.5469 47.8034 10.6302 48.5951 10.7969C49.3868 10.9531 50.142 11.1875 50.8607 11.5C51.5899 11.8021 52.2774 12.1823 52.9232 12.6406L50.6888 15.3594C49.9284 14.901 49.1576 14.5521 48.3763 14.3125C47.6055 14.0729 46.8555 13.9531 46.1263 13.9531C45.1472 13.9531 44.4024 14.0938 43.892 14.375C43.3816 14.6562 43.1263 15.0729 43.1263 15.625C43.1263 15.9792 43.267 16.25 43.5482 16.4375C43.8295 16.625 44.1784 16.7552 44.5951 16.8281C45.0222 16.8906 45.6368 16.9583 46.4388 17.0312C46.5222 17.0417 46.6003 17.0521 46.6732 17.0625C46.7566 17.0625 46.8399 17.0677 46.9232 17.0781C46.9545 17.0781 46.9909 17.0781 47.0326 17.0781C47.0743 17.0781 47.1159 17.0833 47.1576 17.0938C48.3555 17.2083 49.3503 17.3802 50.142 17.6094C50.9336 17.8385 51.6055 18.2969 52.1576 18.9844C52.7097 19.6615 52.9857 20.651 52.9857 21.9531C52.9857 23.099 52.7253 24.0677 52.2045 24.8594C51.6836 25.6406 50.9076 26.2344 49.8763 26.6406C48.8555 27.0365 47.6003 27.2344 46.1107 27.2344ZM56.6263 4.28125H60.3451V8.01562H56.6263V4.28125ZM56.6263 10.7812H60.3451V27H56.6263V10.7812ZM70.7357 27.2344C69.767 27.2344 68.8451 27.1458 67.9701 26.9688C67.0951 26.7812 66.2722 26.5104 65.5013 26.1562C64.7409 25.8021 64.0534 25.3698 63.4388 24.8594L65.7045 22.0469C66.5274 22.6302 67.3659 23.0729 68.2201 23.375C69.0847 23.6771 69.9232 23.8281 70.7357 23.8281C71.8711 23.8281 72.7305 23.6771 73.3138 23.375C73.9076 23.0625 74.2045 22.6146 74.2045 22.0312C74.2045 21.5833 74.0586 21.25 73.767 21.0312C73.4753 20.8021 73.1055 20.6458 72.6576 20.5625C72.2201 20.4792 71.6003 20.401 70.7982 20.3281C70.6628 20.3177 70.5222 20.3073 70.3763 20.2969C70.2305 20.2865 70.0899 20.2708 69.9545 20.25C69.9128 20.25 69.8711 20.25 69.8295 20.25C69.7878 20.2396 69.7461 20.2344 69.7045 20.2344C68.5691 20.1094 67.6368 19.9375 66.9076 19.7188C66.1784 19.4896 65.5638 19.0573 65.0638 18.4219C64.5743 17.7865 64.3295 16.875 64.3295 15.6875C64.3295 14.5729 64.5743 13.6354 65.0638 12.875C65.5638 12.1042 66.293 11.526 67.2513 11.1406C68.2097 10.7448 69.3868 10.5469 70.7826 10.5469C71.6159 10.5469 72.4284 10.6302 73.2201 10.7969C74.0118 10.9531 74.767 11.1875 75.4857 11.5C76.2149 11.8021 76.9024 12.1823 77.5482 12.6406L75.3138 15.3594C74.5534 14.901 73.7826 14.5521 73.0013 14.3125C72.2305 14.0729 71.4805 13.9531 70.7513 13.9531C69.7722 13.9531 69.0274 14.0938 68.517 14.375C68.0066 14.6562 67.7513 15.0729 67.7513 15.625C67.7513 15.9792 67.892 16.25 68.1732 16.4375C68.4545 16.625 68.8034 16.7552 69.2201 16.8281C69.6472 16.8906 70.2618 16.9583 71.0638 17.0312C71.1472 17.0417 71.2253 17.0521 71.2982 17.0625C71.3816 17.0625 71.4649 17.0677 71.5482 17.0781C71.5795 17.0781 71.6159 17.0781 71.6576 17.0781C71.6993 17.0781 71.7409 17.0833 71.7826 17.0938C72.9805 17.2083 73.9753 17.3802 74.767 17.6094C75.5586 17.8385 76.2305 18.2969 76.7826 18.9844C77.3347 19.6615 77.6107 20.651 77.6107 21.9531C77.6107 23.099 77.3503 24.0677 76.8295 24.8594C76.3086 25.6406 75.5326 26.2344 74.5013 26.6406C73.4805 27.0365 72.2253 27.2344 70.7357 27.2344ZM85.7357 27.0781C84.3711 27.0781 83.3711 26.7188 82.7357 26C82.1003 25.2708 81.7826 24.1979 81.7826 22.7812V6.0625H85.517V22.2656C85.517 22.6615 85.5951 22.9688 85.7513 23.1875C85.9076 23.3958 86.1368 23.5 86.4388 23.5H87.7357V27.0781H85.7357ZM80.1107 10.7812H87.7357V14.0469H80.1107V10.7812ZM98.5951 27.2344C97.0638 27.2344 95.7566 26.9531 94.6732 26.3906C93.5899 25.8281 92.7618 25.0052 92.1888 23.9219C91.6159 22.8281 91.3295 21.5104 91.3295 19.9688V18.1406C91.3295 16.5365 91.6003 15.1667 92.142 14.0312C92.6941 12.8958 93.4909 12.0312 94.5326 11.4375C95.5847 10.8438 96.8451 10.5469 98.3138 10.5469C99.6993 10.5469 100.882 10.8958 101.861 11.5938C102.85 12.2812 103.6 13.2812 104.111 14.5938C104.632 15.9062 104.892 17.4896 104.892 19.3438V20.4062H93.8763V17.6719H101.423L101.408 17.5C101.303 16.3646 100.986 15.4844 100.454 14.8594C99.9232 14.2344 99.2097 13.9219 98.3138 13.9219C97.1888 13.9219 96.3191 14.276 95.7045 14.9844C95.0899 15.6823 94.7826 16.6771 94.7826 17.9688V20.0312C94.7826 21.2604 95.1159 22.2083 95.7826 22.875C96.4493 23.5312 97.3868 23.8594 98.5951 23.8594C99.2097 23.8594 99.8138 23.7448 100.408 23.5156C101.012 23.276 101.553 22.9479 102.033 22.5312L104.47 24.8125C103.647 25.5833 102.72 26.1823 101.689 26.6094C100.668 27.026 99.6368 27.2344 98.5951 27.2344ZM103.376 6.20312L101.283 8.125L98.1576 5.15625L95.0326 8.125L92.9388 6.20312L98.1576 1.23438L103.376 6.20312ZM108.954 10.7812H112.689V27H108.954V10.7812ZM118.564 17.1719C118.564 16.2031 118.303 15.4531 117.783 14.9219C117.262 14.3906 116.522 14.125 115.564 14.125C114.647 14.125 113.939 14.375 113.439 14.875C112.939 15.3646 112.689 16.0625 112.689 16.9688L112.361 13.6094C112.85 12.6094 113.465 11.849 114.204 11.3281C114.954 10.8073 115.835 10.5469 116.845 10.5469C118.574 10.5469 119.913 11.125 120.861 12.2812C121.819 13.4271 122.298 15.0521 122.298 17.1562V27H118.564V17.1719ZM133.533 27.2344C132.022 27.2344 130.731 26.9531 129.658 26.3906C128.585 25.8177 127.767 24.9896 127.204 23.9062C126.642 22.8125 126.361 21.4948 126.361 19.9531V17.75C126.361 16.2292 126.642 14.9323 127.204 13.8594C127.767 12.776 128.585 11.9531 129.658 11.3906C130.731 10.8281 132.022 10.5469 133.533 10.5469C134.397 10.5469 135.21 10.651 135.97 10.8594C136.741 11.0573 137.428 11.349 138.033 11.7344C138.647 12.1198 139.158 12.5885 139.564 13.1406L137.033 15.5156C136.606 15.0677 136.106 14.724 135.533 14.4844C134.96 14.2448 134.361 14.125 133.736 14.125C132.579 14.125 131.684 14.4427 131.048 15.0781C130.413 15.7031 130.095 16.5938 130.095 17.75V19.9531C130.095 21.1406 130.408 22.0573 131.033 22.7031C131.668 23.3385 132.569 23.6562 133.736 23.6562C134.371 23.6562 134.975 23.526 135.548 23.2656C136.121 23.0052 136.616 22.6354 137.033 22.1562L139.564 24.6875C139.147 25.2292 138.632 25.6927 138.017 26.0781C137.413 26.4531 136.725 26.7396 135.954 26.9375C135.194 27.1354 134.387 27.2344 133.533 27.2344ZM142.658 4.28125H146.376V8.01562H142.658V4.28125ZM142.658 10.7812H146.376V27H142.658V10.7812ZM159.845 16.7188C159.845 15.8125 159.574 15.1094 159.033 14.6094C158.501 14.1094 157.746 13.8594 156.767 13.8594C156.142 13.8594 155.527 13.9583 154.923 14.1562C154.319 14.3542 153.777 14.6302 153.298 14.9844L150.814 12.8906C151.449 12.151 152.283 11.5781 153.314 11.1719C154.345 10.7552 155.491 10.5469 156.751 10.5469C158.126 10.5469 159.303 10.7865 160.283 11.2656C161.262 11.7344 162.007 12.4219 162.517 13.3281C163.038 14.224 163.298 15.3073 163.298 16.5781V27H159.845V16.7188ZM155.595 27.2344C153.731 27.2344 152.335 26.8229 151.408 26C150.481 25.1667 150.017 23.9062 150.017 22.2188C150.017 20.6146 150.486 19.4115 151.423 18.6094C152.361 17.8073 153.767 17.4062 155.642 17.4062H159.986L160.204 20.3125H155.658C154.918 20.3125 154.361 20.4688 153.986 20.7812C153.621 21.0938 153.439 21.5729 153.439 22.2188C153.439 22.8958 153.678 23.401 154.158 23.7344C154.637 24.0573 155.361 24.2188 156.329 24.2188C157.517 24.2188 158.397 24.0885 158.97 23.8281C159.553 23.5677 159.845 23.1615 159.845 22.6094L160.173 24.9219C159.996 25.4323 159.684 25.8594 159.236 26.2031C158.798 26.5469 158.267 26.8073 157.642 26.9844C157.017 27.151 156.335 27.2344 155.595 27.2344ZM179.923 6.14062H183.642V27H179.923V6.14062ZM173.611 4.28125H189.954V7.85938H173.611V4.28125ZM196.908 27.2344C195.376 27.2344 194.069 26.9531 192.986 26.3906C191.902 25.8281 191.074 25.0052 190.501 23.9219C189.928 22.8281 189.642 21.5104 189.642 19.9688V18.1406C189.642 16.5365 189.913 15.1667 190.454 14.0312C191.007 12.8958 191.803 12.0312 192.845 11.4375C193.897 10.8438 195.158 10.5469 196.626 10.5469C198.012 10.5469 199.194 10.8958 200.173 11.5938C201.163 12.2812 201.913 13.2812 202.423 14.5938C202.944 15.9062 203.204 17.4896 203.204 19.3438V20.4062H192.189V17.6719H199.736L199.72 17.5C199.616 16.3646 199.298 15.4844 198.767 14.8594C198.236 14.2344 197.522 13.9219 196.626 13.9219C195.501 13.9219 194.632 14.276 194.017 14.9844C193.402 15.6823 193.095 16.6771 193.095 17.9688V20.0312C193.095 21.2604 193.428 22.2083 194.095 22.875C194.762 23.5312 195.699 23.8594 196.908 23.8594C197.522 23.8594 198.126 23.7448 198.72 23.5156C199.324 23.276 199.866 22.9479 200.345 22.5312L202.783 24.8125C201.96 25.5833 201.033 26.1823 200.001 26.6094C198.981 27.026 197.949 27.2344 196.908 27.2344ZM194.408 6.20312L198.876 0.65625L201.517 2.875L196.751 8.125L194.408 6.20312ZM213.97 27.2344C212.46 27.2344 211.168 26.9531 210.095 26.3906C209.022 25.8177 208.204 24.9896 207.642 23.9062C207.079 22.8125 206.798 21.4948 206.798 19.9531V17.75C206.798 16.2292 207.079 14.9323 207.642 13.8594C208.204 12.776 209.022 11.9531 210.095 11.3906C211.168 10.8281 212.46 10.5469 213.97 10.5469C214.835 10.5469 215.647 10.651 216.408 10.8594C217.178 11.0573 217.866 11.349 218.47 11.7344C219.085 12.1198 219.595 12.5885 220.001 13.1406L217.47 15.5156C217.043 15.0677 216.543 14.724 215.97 14.4844C215.397 14.2448 214.798 14.125 214.173 14.125C213.017 14.125 212.121 14.4427 211.486 15.0781C210.85 15.7031 210.533 16.5938 210.533 17.75V19.9531C210.533 21.1406 210.845 22.0573 211.47 22.7031C212.106 23.3385 213.007 23.6562 214.173 23.6562C214.809 23.6562 215.413 23.526 215.986 23.2656C216.559 23.0052 217.053 22.6354 217.47 22.1562L220.001 24.6875C219.585 25.2292 219.069 25.6927 218.454 26.0781C217.85 26.4531 217.163 26.7396 216.392 26.9375C215.632 27.1354 214.824 27.2344 213.97 27.2344ZM223.204 10.7812H226.939V27H223.204V10.7812ZM232.814 17.1719C232.814 16.2031 232.553 15.4531 232.033 14.9219C231.512 14.3906 230.772 14.125 229.814 14.125C228.897 14.125 228.189 14.375 227.689 14.875C227.189 15.3646 226.939 16.0625 226.939 16.9688L226.611 13.6094C227.1 12.6094 227.715 11.849 228.454 11.3281C229.204 10.8073 230.085 10.5469 231.095 10.5469C232.824 10.5469 234.163 11.125 235.111 12.2812C236.069 13.4271 236.548 15.0521 236.548 17.1562V27H232.814V17.1719ZM240.97 4.28125H244.689V8.01562H240.97V4.28125ZM240.97 10.7812H244.689V27H240.97V10.7812ZM255.814 27.2344C254.303 27.2344 253.012 26.9531 251.939 26.3906C250.866 25.8177 250.048 24.9896 249.486 23.9062C248.923 22.8125 248.642 21.4948 248.642 19.9531V17.75C248.642 16.2292 248.923 14.9323 249.486 13.8594C250.048 12.776 250.866 11.9531 251.939 11.3906C253.012 10.8281 254.303 10.5469 255.814 10.5469C256.678 10.5469 257.491 10.651 258.251 10.8594C259.022 11.0573 259.71 11.349 260.314 11.7344C260.928 12.1198 261.439 12.5885 261.845 13.1406L259.314 15.5156C258.887 15.0677 258.387 14.724 257.814 14.4844C257.241 14.2448 256.642 14.125 256.017 14.125C254.861 14.125 253.965 14.4427 253.329 15.0781C252.694 15.7031 252.376 16.5938 252.376 17.75V19.9531C252.376 21.1406 252.689 22.0573 253.314 22.7031C253.949 23.3385 254.85 23.6562 256.017 23.6562C256.652 23.6562 257.257 23.526 257.829 23.2656C258.402 23.0052 258.897 22.6354 259.314 22.1562L261.845 24.6875C261.428 25.2292 260.913 25.6927 260.298 26.0781C259.694 26.4531 259.007 26.7396 258.236 26.9375C257.475 27.1354 256.668 27.2344 255.814 27.2344ZM274.095 16.7188C274.095 15.8125 273.824 15.1094 273.283 14.6094C272.751 14.1094 271.996 13.8594 271.017 13.8594C270.392 13.8594 269.777 13.9583 269.173 14.1562C268.569 14.3542 268.027 14.6302 267.548 14.9844L265.064 12.8906C265.699 12.151 266.533 11.5781 267.564 11.1719C268.595 10.7552 269.741 10.5469 271.001 10.5469C272.376 10.5469 273.553 10.7865 274.533 11.2656C275.512 11.7344 276.257 12.4219 276.767 13.3281C277.288 14.224 277.548 15.3073 277.548 16.5781V27H274.095V16.7188ZM269.845 27.2344C267.981 27.2344 266.585 26.8229 265.658 26C264.731 25.1667 264.267 23.9062 264.267 22.2188C264.267 20.6146 264.736 19.4115 265.673 18.6094C266.611 17.8073 268.017 17.4062 269.892 17.4062H274.236L274.454 20.3125H269.908C269.168 20.3125 268.611 20.4688 268.236 20.7812C267.871 21.0938 267.689 21.5729 267.689 22.2188C267.689 22.8958 267.928 23.401 268.408 23.7344C268.887 24.0573 269.611 24.2188 270.579 24.2188C271.767 24.2188 272.647 24.0885 273.22 23.8281C273.803 23.5677 274.095 23.1615 274.095 22.6094L274.423 24.9219C274.246 25.4323 273.934 25.8594 273.486 26.2031C273.048 26.5469 272.517 26.8073 271.892 26.9844C271.267 27.151 270.585 27.2344 269.845 27.2344ZM301.486 17.0781V20.6406H290.673V17.0781H301.486ZM321.908 27.2344C320.814 27.2344 319.762 27.1302 318.751 26.9219C317.751 26.7031 316.809 26.3854 315.923 25.9688C315.048 25.5521 314.246 25.0365 313.517 24.4219L315.501 21.4375C316.376 22.1771 317.356 22.7396 318.439 23.125C319.533 23.5 320.689 23.6875 321.908 23.6875C323.428 23.6875 324.606 23.4167 325.439 22.875C326.283 22.3333 326.704 21.5677 326.704 20.5781V20.5625C326.704 19.8646 326.517 19.3125 326.142 18.9062C325.767 18.4896 325.277 18.1875 324.673 18C324.069 17.8021 323.293 17.6198 322.345 17.4531C322.314 17.4427 322.283 17.4375 322.251 17.4375C322.22 17.4375 322.189 17.4323 322.158 17.4219L321.876 17.375C320.356 17.125 319.106 16.8281 318.126 16.4844C317.147 16.1406 316.314 15.526 315.626 14.6406C314.939 13.7552 314.595 12.5 314.595 10.875V10.8594C314.595 9.42188 314.918 8.19271 315.564 7.17188C316.21 6.15104 317.147 5.375 318.376 4.84375C319.606 4.3125 321.085 4.04688 322.814 4.04688C323.626 4.04688 324.439 4.14062 325.251 4.32812C326.074 4.50521 326.876 4.77083 327.658 5.125C328.449 5.46875 329.215 5.90104 329.954 6.42188L328.142 9.5C327.267 8.875 326.376 8.40104 325.47 8.07812C324.564 7.75521 323.678 7.59375 322.814 7.59375C321.376 7.59375 320.262 7.85938 319.47 8.39062C318.689 8.91146 318.298 9.65104 318.298 10.6094V10.625C318.298 11.3438 318.501 11.9115 318.908 12.3281C319.314 12.7448 319.819 13.0521 320.423 13.25C321.038 13.4375 321.892 13.6406 322.986 13.8594C323.027 13.8698 323.064 13.8802 323.095 13.8906C323.137 13.8906 323.178 13.8958 323.22 13.9062C323.272 13.9167 323.329 13.9271 323.392 13.9375C323.454 13.9479 323.512 13.9583 323.564 13.9688C324.97 14.25 326.142 14.5885 327.079 14.9844C328.027 15.3802 328.819 16.0156 329.454 16.8906C330.09 17.7656 330.408 18.9583 330.408 20.4688V20.5C330.408 21.9167 330.074 23.1302 329.408 24.1406C328.741 25.151 327.772 25.9219 326.501 26.4531C325.231 26.974 323.699 27.2344 321.908 27.2344ZM334.329 10.7812H338.064V33.5938H334.329V10.7812ZM341.986 27.2344C341.007 27.2344 340.158 26.9948 339.439 26.5156C338.72 26.026 338.189 25.3385 337.845 24.4531L338.064 20.9062C338.064 21.5208 338.173 22.0469 338.392 22.4844C338.611 22.9115 338.928 23.2396 339.345 23.4688C339.762 23.6979 340.267 23.8125 340.861 23.8125C341.788 23.8125 342.507 23.5208 343.017 22.9375C343.527 22.3542 343.783 21.526 343.783 20.4531V17.4062C343.783 16.3125 343.527 15.4688 343.017 14.875C342.507 14.2708 341.788 13.9688 340.861 13.9688C340.267 13.9688 339.762 14.0833 339.345 14.3125C338.928 14.5312 338.611 14.8594 338.392 15.2969C338.173 15.7344 338.064 16.2604 338.064 16.875L337.736 13.5156C338.194 12.5677 338.798 11.8385 339.548 11.3281C340.309 10.8073 341.147 10.5469 342.064 10.5469C343.21 10.5469 344.189 10.8125 345.001 11.3438C345.824 11.875 346.449 12.6562 346.876 13.6875C347.303 14.7083 347.517 15.9427 347.517 17.3906V20.4531C347.517 21.8802 347.298 23.1042 346.861 24.125C346.434 25.1354 345.803 25.9062 344.97 26.4375C344.137 26.9688 343.142 27.2344 341.986 27.2344ZM351.736 10.7812H355.626V27H351.736V10.7812ZM360.767 14.9531C360.517 14.6823 360.21 14.4792 359.845 14.3438C359.481 14.1979 359.059 14.125 358.579 14.125C357.642 14.125 356.913 14.4062 356.392 14.9688C355.882 15.5208 355.626 16.2917 355.626 17.2812L355.298 13.6094C355.767 12.6406 356.376 11.8906 357.126 11.3594C357.887 10.8177 358.72 10.5469 359.626 10.5469C360.335 10.5469 360.975 10.6562 361.548 10.875C362.121 11.0833 362.621 11.3958 363.048 11.8125L360.767 14.9531ZM365.283 4.28125H369.001V8.01562H365.283V4.28125ZM365.283 10.7812H369.001V27H365.283V10.7812ZM373.423 10.7812H377.158V27H373.423V10.7812ZM383.033 17.1719C383.033 16.2031 382.772 15.4531 382.251 14.9219C381.731 14.3906 380.991 14.125 380.033 14.125C379.116 14.125 378.408 14.375 377.908 14.875C377.408 15.3646 377.158 16.0625 377.158 16.9688L376.829 13.6094C377.319 12.6094 377.934 11.849 378.673 11.3281C379.423 10.8073 380.303 10.5469 381.314 10.5469C383.043 10.5469 384.382 11.125 385.329 12.2812C386.288 13.4271 386.767 15.0521 386.767 17.1562V27H383.033V17.1719ZM396.892 33.5938C395.642 33.5938 394.522 33.3646 393.533 32.9062C392.543 32.4583 391.772 31.8229 391.22 31L393.736 28.7031C394.121 29.1927 394.585 29.5677 395.126 29.8281C395.678 30.0885 396.251 30.2188 396.845 30.2188C397.908 30.2188 398.746 29.9271 399.361 29.3438C399.975 28.7708 400.283 27.9583 400.283 26.9062V10.7812H404.017V26.5156C404.017 28.0052 403.736 29.2812 403.173 30.3438C402.621 31.4062 401.809 32.2135 400.736 32.7656C399.673 33.3177 398.392 33.5938 396.892 33.5938ZM396.361 27.2656C395.194 27.2656 394.194 27 393.361 26.4688C392.538 25.9271 391.908 25.151 391.47 24.1406C391.043 23.1198 390.829 21.8906 390.829 20.4531V17.3594C390.829 15.9219 391.043 14.6927 391.47 13.6719C391.897 12.6406 392.517 11.8594 393.329 11.3281C394.152 10.7865 395.137 10.5156 396.283 10.5156C397.199 10.5156 398.033 10.7708 398.783 11.2812C399.543 11.7917 400.152 12.5104 400.611 13.4375L400.283 16.8906C400.283 16.2656 400.173 15.7344 399.954 15.2969C399.736 14.8594 399.418 14.526 399.001 14.2969C398.585 14.0677 398.079 13.9531 397.486 13.9531C396.559 13.9531 395.84 14.2552 395.329 14.8594C394.819 15.4635 394.564 16.3073 394.564 17.3906V20.4531C394.564 21.526 394.819 22.3594 395.329 22.9531C395.84 23.5365 396.559 23.8281 397.486 23.8281C398.079 23.8281 398.585 23.7135 399.001 23.4844C399.418 23.2448 399.736 22.9062 399.954 22.4688C400.173 22.0312 400.283 21.5052 400.283 20.8906L400.501 24.4531C400.178 25.2969 399.658 25.9792 398.939 26.5C398.231 27.0104 397.371 27.2656 396.361 27.2656ZM415.111 4.28125H419.048L424.189 20.7656L429.329 4.28125H433.267L425.783 27H422.595L415.111 4.28125ZM444.689 10.7812H448.408V27H444.689V10.7812ZM438.876 20.6406C438.876 21.599 439.132 22.3438 439.642 22.875C440.152 23.3958 440.871 23.6562 441.798 23.6562C442.725 23.6562 443.439 23.4115 443.939 22.9219C444.439 22.4219 444.689 21.7083 444.689 20.7812L444.908 24.25C444.595 25.0938 444.074 25.8021 443.345 26.375C442.616 26.9479 441.725 27.2344 440.673 27.2344C438.913 27.2344 437.548 26.6667 436.579 25.5312C435.621 24.3958 435.142 22.7917 435.142 20.7188V10.7812H438.876V20.6406ZM459.751 27.2344C458.22 27.2344 456.913 26.9531 455.829 26.3906C454.746 25.8281 453.918 25.0052 453.345 23.9219C452.772 22.8281 452.486 21.5104 452.486 19.9688V18.1406C452.486 16.5365 452.757 15.1667 453.298 14.0312C453.85 12.8958 454.647 12.0312 455.689 11.4375C456.741 10.8438 458.001 10.5469 459.47 10.5469C460.856 10.5469 462.038 10.8958 463.017 11.5938C464.007 12.2812 464.757 13.2812 465.267 14.5938C465.788 15.9062 466.048 17.4896 466.048 19.3438V20.4062H455.033V17.6719H462.579L462.564 17.5C462.46 16.3646 462.142 15.4844 461.611 14.8594C461.079 14.2344 460.366 13.9219 459.47 13.9219C458.345 13.9219 457.475 14.276 456.861 14.9844C456.246 15.6823 455.939 16.6771 455.939 17.9688V20.0312C455.939 21.2604 456.272 22.2083 456.939 22.875C457.606 23.5312 458.543 23.8594 459.751 23.8594C460.366 23.8594 460.97 23.7448 461.564 23.5156C462.168 23.276 462.71 22.9479 463.189 22.5312L465.626 24.8125C464.803 25.5833 463.876 26.1823 462.845 26.6094C461.824 27.026 460.793 27.2344 459.751 27.2344ZM485.361 4.28125H488.079L496.611 27H492.595L486.72 10.0781L480.845 27H476.829L485.361 4.28125ZM480.845 19.1094H492.798V22.6875H480.845V19.1094ZM501.533 14.6094H508.798C509.402 14.6094 509.928 14.474 510.376 14.2031C510.835 13.9219 511.189 13.526 511.439 13.0156C511.699 12.5052 511.829 11.9167 511.829 11.25C511.829 10.5729 511.704 9.97917 511.454 9.46875C511.204 8.95833 510.85 8.5625 510.392 8.28125C509.934 8 509.402 7.85938 508.798 7.85938H501.533V4.28125H508.689C510.074 4.28125 511.293 4.57292 512.345 5.15625C513.397 5.72917 514.215 6.54167 514.798 7.59375C515.382 8.64583 515.673 9.86458 515.673 11.25C515.673 12.6354 515.382 13.8542 514.798 14.9062C514.215 15.9479 513.397 16.7552 512.345 17.3281C511.293 17.901 510.074 18.1875 508.689 18.1875H501.533V14.6094ZM499.736 4.28125H503.47V27H499.736V4.28125ZM523.017 27H519.204V4.28125H523.017V27Z" fill="#171717"/>
</svg>
