<svg width="274" height="21" viewBox="0 0 274 21" fill="none" xmlns="http://www.w3.org/2000/svg">
<path d="M6.80603 2.96094H8.84509L15.2435 20H12.2318L7.82556 7.30859L3.41931 20H0.407593L6.80603 2.96094ZM3.41931 14.082H12.3842V16.7656H3.41931V14.082ZM21.8295 20.1758C21.1029 20.1758 20.4115 20.1094 19.7552 19.9766C19.099 19.8359 18.4818 19.6328 17.9037 19.3672C17.3334 19.1016 16.8177 18.7773 16.3568 18.3945L18.056 16.2852C18.6732 16.7227 19.3021 17.0547 19.9427 17.2812C20.5912 17.5078 21.2201 17.6211 21.8295 17.6211C22.681 17.6211 23.3256 17.5078 23.7631 17.2812C24.2084 17.0469 24.431 16.7109 24.431 16.2734C24.431 15.9375 24.3217 15.6875 24.1029 15.5234C23.8842 15.3516 23.6068 15.2344 23.2709 15.1719C22.9427 15.1094 22.4779 15.0508 21.8763 14.9961C21.7748 14.9883 21.6693 14.9805 21.5599 14.9727C21.4506 14.9648 21.3451 14.9531 21.2435 14.9375C21.2123 14.9375 21.181 14.9375 21.1498 14.9375C21.1185 14.9297 21.0873 14.9258 21.056 14.9258C20.2045 14.832 19.5052 14.7031 18.9584 14.5391C18.4115 14.3672 17.9506 14.043 17.5756 13.5664C17.2084 13.0898 17.0248 12.4062 17.0248 11.5156C17.0248 10.6797 17.2084 9.97656 17.5756 9.40625C17.9506 8.82812 18.4974 8.39453 19.2162 8.10547C19.9349 7.80859 20.8177 7.66016 21.8646 7.66016C22.4896 7.66016 23.099 7.72266 23.6927 7.84766C24.2865 7.96484 24.8529 8.14062 25.392 8.375C25.9388 8.60156 26.4545 8.88672 26.9388 9.23047L25.2631 11.2695C24.6927 10.9258 24.1146 10.6641 23.5287 10.4844C22.9506 10.3047 22.3881 10.2148 21.8412 10.2148C21.1068 10.2148 20.5482 10.3203 20.1654 10.5312C19.7826 10.7422 19.5912 11.0547 19.5912 11.4688C19.5912 11.7344 19.6967 11.9375 19.9076 12.0781C20.1185 12.2188 20.3802 12.3164 20.6927 12.3711C21.0131 12.418 21.474 12.4688 22.0756 12.5234C22.1381 12.5312 22.1967 12.5391 22.2513 12.5469C22.3138 12.5469 22.3763 12.5508 22.4388 12.5586C22.4623 12.5586 22.4896 12.5586 22.5209 12.5586C22.5521 12.5586 22.5834 12.5625 22.6146 12.5703C23.5131 12.6562 24.2592 12.7852 24.8529 12.957C25.4467 13.1289 25.9506 13.4727 26.3646 13.9883C26.7787 14.4961 26.9857 15.2383 26.9857 16.2148C26.9857 17.0742 26.7904 17.8008 26.3998 18.3945C26.0092 18.9805 25.4271 19.4258 24.6537 19.7305C23.8881 20.0273 22.9467 20.1758 21.8295 20.1758ZM34.2748 20.1758C33.5482 20.1758 32.8568 20.1094 32.2006 19.9766C31.5443 19.8359 30.9271 19.6328 30.349 19.3672C29.7787 19.1016 29.2631 18.7773 28.8021 18.3945L30.5013 16.2852C31.1185 16.7227 31.7474 17.0547 32.3881 17.2812C33.0365 17.5078 33.6654 17.6211 34.2748 17.6211C35.1263 17.6211 35.7709 17.5078 36.2084 17.2812C36.6537 17.0469 36.8763 16.7109 36.8763 16.2734C36.8763 15.9375 36.767 15.6875 36.5482 15.5234C36.3295 15.3516 36.0521 15.2344 35.7162 15.1719C35.3881 15.1094 34.9232 15.0508 34.3217 14.9961C34.2201 14.9883 34.1146 14.9805 34.0052 14.9727C33.8959 14.9648 33.7904 14.9531 33.6888 14.9375C33.6576 14.9375 33.6263 14.9375 33.5951 14.9375C33.5638 14.9297 33.5326 14.9258 33.5013 14.9258C32.6498 14.832 31.9506 14.7031 31.4037 14.5391C30.8568 14.3672 30.3959 14.043 30.0209 13.5664C29.6537 13.0898 29.4701 12.4062 29.4701 11.5156C29.4701 10.6797 29.6537 9.97656 30.0209 9.40625C30.3959 8.82812 30.9427 8.39453 31.6615 8.10547C32.3802 7.80859 33.2631 7.66016 34.3099 7.66016C34.9349 7.66016 35.5443 7.72266 36.1381 7.84766C36.7318 7.96484 37.2982 8.14062 37.8373 8.375C38.3842 8.60156 38.8998 8.88672 39.3842 9.23047L37.7084 11.2695C37.1381 10.9258 36.5599 10.6641 35.974 10.4844C35.3959 10.3047 34.8334 10.2148 34.2865 10.2148C33.5521 10.2148 32.9935 10.3203 32.6107 10.5312C32.2279 10.7422 32.0365 11.0547 32.0365 11.4688C32.0365 11.7344 32.142 11.9375 32.3529 12.0781C32.5638 12.2188 32.8256 12.3164 33.1381 12.3711C33.4584 12.418 33.9193 12.4688 34.5209 12.5234C34.5834 12.5312 34.642 12.5391 34.6967 12.5469C34.7592 12.5469 34.8217 12.5508 34.8842 12.5586C34.9076 12.5586 34.9349 12.5586 34.9662 12.5586C34.9974 12.5586 35.0287 12.5625 35.0599 12.5703C35.9584 12.6562 36.7045 12.7852 37.2982 12.957C37.892 13.1289 38.3959 13.4727 38.8099 13.9883C39.224 14.4961 39.431 15.2383 39.431 16.2148C39.431 17.0742 39.2357 17.8008 38.8451 18.3945C38.4545 18.9805 37.8724 19.4258 37.099 19.7305C36.3334 20.0273 35.392 20.1758 34.2748 20.1758ZM42.1615 2.96094H44.9506V5.76172H42.1615V2.96094ZM42.1615 7.83594H44.9506V20H42.1615V7.83594ZM52.7435 20.1758C52.017 20.1758 51.3256 20.1094 50.6693 19.9766C50.0131 19.8359 49.3959 19.6328 48.8177 19.3672C48.2474 19.1016 47.7318 18.7773 47.2709 18.3945L48.9701 16.2852C49.5873 16.7227 50.2162 17.0547 50.8568 17.2812C51.5052 17.5078 52.1342 17.6211 52.7435 17.6211C53.5951 17.6211 54.2396 17.5078 54.6771 17.2812C55.1224 17.0469 55.3451 16.7109 55.3451 16.2734C55.3451 15.9375 55.2357 15.6875 55.017 15.5234C54.7982 15.3516 54.5209 15.2344 54.1849 15.1719C53.8568 15.1094 53.392 15.0508 52.7904 14.9961C52.6888 14.9883 52.5834 14.9805 52.474 14.9727C52.3646 14.9648 52.2592 14.9531 52.1576 14.9375C52.1263 14.9375 52.0951 14.9375 52.0638 14.9375C52.0326 14.9297 52.0013 14.9258 51.9701 14.9258C51.1185 14.832 50.4193 14.7031 49.8724 14.5391C49.3256 14.3672 48.8646 14.043 48.4896 13.5664C48.1224 13.0898 47.9388 12.4062 47.9388 11.5156C47.9388 10.6797 48.1224 9.97656 48.4896 9.40625C48.8646 8.82812 49.4115 8.39453 50.1302 8.10547C50.849 7.80859 51.7318 7.66016 52.7787 7.66016C53.4037 7.66016 54.0131 7.72266 54.6068 7.84766C55.2006 7.96484 55.767 8.14062 56.306 8.375C56.8529 8.60156 57.3685 8.88672 57.8529 9.23047L56.1771 11.2695C55.6068 10.9258 55.0287 10.6641 54.4427 10.4844C53.8646 10.3047 53.3021 10.2148 52.7552 10.2148C52.0209 10.2148 51.4623 10.3203 51.0795 10.5312C50.6967 10.7422 50.5052 11.0547 50.5052 11.4688C50.5052 11.7344 50.6107 11.9375 50.8217 12.0781C51.0326 12.2188 51.2943 12.3164 51.6068 12.3711C51.9271 12.418 52.3881 12.4688 52.9896 12.5234C53.0521 12.5312 53.1107 12.5391 53.1654 12.5469C53.2279 12.5469 53.2904 12.5508 53.3529 12.5586C53.3763 12.5586 53.4037 12.5586 53.4349 12.5586C53.4662 12.5586 53.4974 12.5625 53.5287 12.5703C54.4271 12.6562 55.1732 12.7852 55.767 12.957C56.3607 13.1289 56.8646 13.4727 57.2787 13.9883C57.6927 14.4961 57.8998 15.2383 57.8998 16.2148C57.8998 17.0742 57.7045 17.8008 57.3138 18.3945C56.9232 18.9805 56.3412 19.4258 55.5677 19.7305C54.8021 20.0273 53.8607 20.1758 52.7435 20.1758ZM63.9935 20.0586C62.9701 20.0586 62.2201 19.7891 61.7435 19.25C61.267 18.7031 61.0287 17.8984 61.0287 16.8359V4.29688H63.8295V16.4492C63.8295 16.7461 63.8881 16.9766 64.0052 17.1406C64.1224 17.2969 64.2943 17.375 64.5209 17.375H65.4935V20.0586H63.9935ZM59.7748 7.83594H65.4935V10.2852H59.7748V7.83594ZM73.6381 20.1758C72.4896 20.1758 71.5092 19.9648 70.6967 19.543C69.8842 19.1211 69.2631 18.5039 68.8334 17.6914C68.4037 16.8711 68.1888 15.8828 68.1888 14.7266V13.3555C68.1888 12.1523 68.392 11.125 68.7982 10.2734C69.2123 9.42188 69.8099 8.77344 70.5912 8.32812C71.3802 7.88281 72.3256 7.66016 73.4271 7.66016C74.4662 7.66016 75.3529 7.92187 76.0873 8.44531C76.8295 8.96094 77.392 9.71094 77.7748 10.6953C78.1654 11.6797 78.3607 12.8672 78.3607 14.2578V15.0547H70.099V13.0039H75.7592L75.7474 12.875C75.6693 12.0234 75.431 11.3633 75.0326 10.8945C74.6342 10.4258 74.099 10.1914 73.4271 10.1914C72.5834 10.1914 71.931 10.457 71.4701 10.9883C71.0092 11.5117 70.7787 12.2578 70.7787 13.2266V14.7734C70.7787 15.6953 71.0287 16.4062 71.5287 16.9062C72.0287 17.3984 72.7318 17.6445 73.6381 17.6445C74.099 17.6445 74.5521 17.5586 74.9974 17.3867C75.4506 17.207 75.8568 16.9609 76.2162 16.6484L78.0443 18.3594C77.4271 18.9375 76.7318 19.3867 75.9584 19.707C75.1927 20.0195 74.4193 20.1758 73.6381 20.1758ZM77.224 4.40234L75.6537 5.84375L73.3099 3.61719L70.9662 5.84375L69.3959 4.40234L73.3099 0.675781L77.224 4.40234ZM81.4076 7.83594H84.2084V20H81.4076V7.83594ZM88.6146 12.6289C88.6146 11.9023 88.4193 11.3398 88.0287 10.9414C87.6381 10.543 87.0834 10.3438 86.3646 10.3438C85.6771 10.3438 85.1459 10.5312 84.7709 10.9062C84.3959 11.2734 84.2084 11.7969 84.2084 12.4766L83.9623 9.95703C84.3295 9.20703 84.7904 8.63672 85.3451 8.24609C85.9076 7.85547 86.5677 7.66016 87.3256 7.66016C88.6224 7.66016 89.6263 8.09375 90.3373 8.96094C91.056 9.82031 91.4154 11.0391 91.4154 12.6172V20H88.6146V12.6289ZM99.8412 20.1758C98.7084 20.1758 97.7396 19.9648 96.9349 19.543C96.1302 19.1133 95.517 18.4922 95.0951 17.6797C94.6732 16.8594 94.4623 15.8711 94.4623 14.7148V13.0625C94.4623 11.9219 94.6732 10.9492 95.0951 10.1445C95.517 9.33203 96.1302 8.71484 96.9349 8.29297C97.7396 7.87109 98.7084 7.66016 99.8412 7.66016C100.49 7.66016 101.099 7.73828 101.669 7.89453C102.247 8.04297 102.763 8.26172 103.216 8.55078C103.677 8.83984 104.06 9.19141 104.365 9.60547L102.466 11.3867C102.146 11.0508 101.771 10.793 101.341 10.6133C100.911 10.4336 100.462 10.3438 99.9935 10.3438C99.1263 10.3438 98.4545 10.582 97.9779 11.0586C97.5013 11.5273 97.2631 12.1953 97.2631 13.0625V14.7148C97.2631 15.6055 97.4974 16.293 97.9662 16.7773C98.4427 17.2539 99.1185 17.4922 99.9935 17.4922C100.47 17.4922 100.923 17.3945 101.353 17.1992C101.783 17.0039 102.154 16.7266 102.466 16.3672L104.365 18.2656C104.052 18.6719 103.665 19.0195 103.204 19.3086C102.751 19.5898 102.236 19.8047 101.658 19.9531C101.087 20.1016 100.482 20.1758 99.8412 20.1758ZM106.685 2.96094H109.474V5.76172H106.685V2.96094ZM106.685 7.83594H109.474V20H106.685V7.83594ZM119.576 12.2891C119.576 11.6094 119.372 11.082 118.966 10.707C118.568 10.332 118.001 10.1445 117.267 10.1445C116.798 10.1445 116.337 10.2188 115.884 10.3672C115.431 10.5156 115.025 10.7227 114.665 10.9883L112.802 9.41797C113.279 8.86328 113.904 8.43359 114.677 8.12891C115.451 7.81641 116.31 7.66016 117.255 7.66016C118.286 7.66016 119.169 7.83984 119.904 8.19922C120.638 8.55078 121.197 9.06641 121.579 9.74609C121.97 10.418 122.165 11.2305 122.165 12.1836V20H119.576V12.2891ZM116.388 20.1758C114.99 20.1758 113.943 19.8672 113.247 19.25C112.552 18.625 112.204 17.6797 112.204 16.4141C112.204 15.2109 112.556 14.3086 113.259 13.707C113.962 13.1055 115.017 12.8047 116.423 12.8047H119.681L119.845 14.9844H116.435C115.88 14.9844 115.462 15.1016 115.181 15.3359C114.908 15.5703 114.771 15.9297 114.771 16.4141C114.771 16.9219 114.951 17.3008 115.31 17.5508C115.669 17.793 116.212 17.9141 116.939 17.9141C117.829 17.9141 118.49 17.8164 118.919 17.6211C119.357 17.4258 119.576 17.1211 119.576 16.707L119.822 18.4414C119.689 18.8242 119.454 19.1445 119.119 19.4023C118.79 19.6602 118.392 19.8555 117.923 19.9883C117.454 20.1133 116.943 20.1758 116.388 20.1758ZM134.634 4.35547H137.423V20H134.634V4.35547ZM129.9 2.96094H142.158V5.64453H129.9V2.96094ZM147.372 20.1758C146.224 20.1758 145.244 19.9648 144.431 19.543C143.619 19.1211 142.997 18.5039 142.568 17.6914C142.138 16.8711 141.923 15.8828 141.923 14.7266V13.3555C141.923 12.1523 142.126 11.125 142.533 10.2734C142.947 9.42188 143.544 8.77344 144.326 8.32812C145.115 7.88281 146.06 7.66016 147.161 7.66016C148.201 7.66016 149.087 7.92187 149.822 8.44531C150.564 8.96094 151.126 9.71094 151.509 10.6953C151.9 11.6797 152.095 12.8672 152.095 14.2578V15.0547H143.833V13.0039H149.494L149.482 12.875C149.404 12.0234 149.165 11.3633 148.767 10.8945C148.369 10.4258 147.833 10.1914 147.161 10.1914C146.318 10.1914 145.665 10.457 145.204 10.9883C144.744 11.5117 144.513 12.2578 144.513 13.2266V14.7734C144.513 15.6953 144.763 16.4062 145.263 16.9062C145.763 17.3984 146.466 17.6445 147.372 17.6445C147.833 17.6445 148.286 17.5586 148.732 17.3867C149.185 17.207 149.591 16.9609 149.951 16.6484L151.779 18.3594C151.161 18.9375 150.466 19.3867 149.693 19.707C148.927 20.0195 148.154 20.1758 147.372 20.1758ZM145.497 4.40234L148.849 0.242188L150.829 1.90625L147.255 5.84375L145.497 4.40234ZM160.169 20.1758C159.036 20.1758 158.068 19.9648 157.263 19.543C156.458 19.1133 155.845 18.4922 155.423 17.6797C155.001 16.8594 154.79 15.8711 154.79 14.7148V13.0625C154.79 11.9219 155.001 10.9492 155.423 10.1445C155.845 9.33203 156.458 8.71484 157.263 8.29297C158.068 7.87109 159.036 7.66016 160.169 7.66016C160.818 7.66016 161.427 7.73828 161.997 7.89453C162.576 8.04297 163.091 8.26172 163.544 8.55078C164.005 8.83984 164.388 9.19141 164.693 9.60547L162.794 11.3867C162.474 11.0508 162.099 10.793 161.669 10.6133C161.24 10.4336 160.79 10.3438 160.322 10.3438C159.454 10.3438 158.783 10.582 158.306 11.0586C157.829 11.5273 157.591 12.1953 157.591 13.0625V14.7148C157.591 15.6055 157.826 16.293 158.294 16.7773C158.771 17.2539 159.447 17.4922 160.322 17.4922C160.798 17.4922 161.251 17.3945 161.681 17.1992C162.111 17.0039 162.482 16.7266 162.794 16.3672L164.693 18.2656C164.38 18.6719 163.994 19.0195 163.533 19.3086C163.079 19.5898 162.564 19.8047 161.986 19.9531C161.415 20.1016 160.81 20.1758 160.169 20.1758ZM167.095 7.83594H169.896V20H167.095V7.83594ZM174.302 12.6289C174.302 11.9023 174.107 11.3398 173.716 10.9414C173.326 10.543 172.771 10.3438 172.052 10.3438C171.365 10.3438 170.833 10.5312 170.458 10.9062C170.083 11.2734 169.896 11.7969 169.896 12.4766L169.65 9.95703C170.017 9.20703 170.478 8.63672 171.033 8.24609C171.595 7.85547 172.255 7.66016 173.013 7.66016C174.31 7.66016 175.314 8.09375 176.025 8.96094C176.744 9.82031 177.103 11.0391 177.103 12.6172V20H174.302V12.6289ZM180.419 2.96094H183.208V5.76172H180.419V2.96094ZM180.419 7.83594H183.208V20H180.419V7.83594ZM191.552 20.1758C190.419 20.1758 189.451 19.9648 188.646 19.543C187.841 19.1133 187.228 18.4922 186.806 17.6797C186.384 16.8594 186.173 15.8711 186.173 14.7148V13.0625C186.173 11.9219 186.384 10.9492 186.806 10.1445C187.228 9.33203 187.841 8.71484 188.646 8.29297C189.451 7.87109 190.419 7.66016 191.552 7.66016C192.201 7.66016 192.81 7.73828 193.38 7.89453C193.958 8.04297 194.474 8.26172 194.927 8.55078C195.388 8.83984 195.771 9.19141 196.076 9.60547L194.177 11.3867C193.857 11.0508 193.482 10.793 193.052 10.6133C192.622 10.4336 192.173 10.3438 191.704 10.3438C190.837 10.3438 190.165 10.582 189.689 11.0586C189.212 11.5273 188.974 12.1953 188.974 13.0625V14.7148C188.974 15.6055 189.208 16.293 189.677 16.7773C190.154 17.2539 190.829 17.4922 191.704 17.4922C192.181 17.4922 192.634 17.3945 193.064 17.1992C193.494 17.0039 193.865 16.7266 194.177 16.3672L196.076 18.2656C195.763 18.6719 195.376 19.0195 194.915 19.3086C194.462 19.5898 193.947 19.8047 193.369 19.9531C192.798 20.1016 192.193 20.1758 191.552 20.1758ZM205.263 12.2891C205.263 11.6094 205.06 11.082 204.654 10.707C204.255 10.332 203.689 10.1445 202.954 10.1445C202.486 10.1445 202.025 10.2188 201.572 10.3672C201.119 10.5156 200.712 10.7227 200.353 10.9883L198.49 9.41797C198.966 8.86328 199.591 8.43359 200.365 8.12891C201.138 7.81641 201.997 7.66016 202.943 7.66016C203.974 7.66016 204.857 7.83984 205.591 8.19922C206.326 8.55078 206.884 9.06641 207.267 9.74609C207.658 10.418 207.853 11.2305 207.853 12.1836V20H205.263V12.2891ZM202.076 20.1758C200.677 20.1758 199.63 19.8672 198.935 19.25C198.24 18.625 197.892 17.6797 197.892 16.4141C197.892 15.2109 198.244 14.3086 198.947 13.707C199.65 13.1055 200.704 12.8047 202.111 12.8047H205.369L205.533 14.9844H202.122C201.568 14.9844 201.15 15.1016 200.869 15.3359C200.595 15.5703 200.458 15.9297 200.458 16.4141C200.458 16.9219 200.638 17.3008 200.997 17.5508C201.357 17.793 201.9 17.9141 202.626 17.9141C203.517 17.9141 204.177 17.8164 204.607 17.6211C205.044 17.4258 205.263 17.1211 205.263 16.707L205.509 18.4414C205.376 18.8242 205.142 19.1445 204.806 19.4023C204.478 19.6602 204.079 19.8555 203.611 19.9883C203.142 20.1133 202.63 20.1758 202.076 20.1758ZM225.806 12.5586V15.2305H217.697V12.5586H225.806ZM237.232 10.707H242.681C243.134 10.707 243.529 10.6055 243.865 10.4023C244.208 10.1914 244.474 9.89453 244.661 9.51172C244.857 9.12891 244.954 8.6875 244.954 8.1875C244.954 7.67969 244.861 7.23438 244.673 6.85156C244.486 6.46875 244.22 6.17188 243.876 5.96094C243.533 5.75 243.134 5.64453 242.681 5.64453H237.232V2.96094H242.599C243.638 2.96094 244.552 3.17969 245.341 3.61719C246.13 4.04688 246.744 4.65625 247.181 5.44531C247.619 6.23437 247.837 7.14844 247.837 8.1875C247.837 9.22656 247.619 10.1406 247.181 10.9297C246.744 11.7109 246.13 12.3164 245.341 12.7461C244.552 13.1758 243.638 13.3906 242.599 13.3906H237.232V10.707ZM235.884 2.96094H238.685V20H235.884V2.96094ZM254.329 20.1758C253.251 20.1758 252.326 19.9688 251.552 19.5547C250.786 19.1406 250.201 18.5391 249.794 17.75C249.396 16.9531 249.197 15.9961 249.197 14.8789V12.8984C249.197 11.7969 249.396 10.8555 249.794 10.0742C250.201 9.28516 250.786 8.6875 251.552 8.28125C252.326 7.86719 253.251 7.66016 254.329 7.66016C255.408 7.66016 256.329 7.86719 257.095 8.28125C257.869 8.6875 258.454 9.28516 258.853 10.0742C259.259 10.8555 259.462 11.7969 259.462 12.8984V14.9141C259.462 16.0234 259.259 16.9727 258.853 17.7617C258.454 18.543 257.869 19.1406 257.095 19.5547C256.329 19.9688 255.408 20.1758 254.329 20.1758ZM254.329 17.4922C255.072 17.4922 255.646 17.2695 256.052 16.8242C256.458 16.3711 256.661 15.7344 256.661 14.9141V12.8984C256.661 12.0859 256.458 11.457 256.052 11.0117C255.646 10.5664 255.072 10.3438 254.329 10.3438C253.587 10.3438 253.013 10.5664 252.607 11.0117C252.201 11.457 251.997 12.0859 251.997 12.8984V14.9141C251.997 15.7344 252.197 16.3711 252.595 16.8242C253.001 17.2695 253.579 17.4922 254.329 17.4922ZM267.408 20.1758C266.329 20.1758 265.404 19.9688 264.63 19.5547C263.865 19.1406 263.279 18.5391 262.872 17.75C262.474 16.9531 262.275 15.9961 262.275 14.8789V12.8984C262.275 11.7969 262.474 10.8555 262.872 10.0742C263.279 9.28516 263.865 8.6875 264.63 8.28125C265.404 7.86719 266.329 7.66016 267.408 7.66016C268.486 7.66016 269.408 7.86719 270.173 8.28125C270.947 8.6875 271.533 9.28516 271.931 10.0742C272.337 10.8555 272.54 11.7969 272.54 12.8984V14.9141C272.54 16.0234 272.337 16.9727 271.931 17.7617C271.533 18.543 270.947 19.1406 270.173 19.5547C269.408 19.9688 268.486 20.1758 267.408 20.1758ZM267.408 17.4922C268.15 17.4922 268.724 17.2695 269.13 16.8242C269.536 16.3711 269.74 15.7344 269.74 14.9141V12.8984C269.74 12.0859 269.536 11.457 269.13 11.0117C268.724 10.5664 268.15 10.3438 267.408 10.3438C266.665 10.3438 266.091 10.5664 265.685 11.0117C265.279 11.457 265.076 12.0859 265.076 12.8984V14.9141C265.076 15.7344 265.275 16.3711 265.673 16.8242C266.079 17.2695 266.658 17.4922 267.408 17.4922Z" fill="#171717"/>
</svg>
