<svg width="377" height="30" viewBox="0 0 377 30" fill="none" xmlns="http://www.w3.org/2000/svg">
<path d="M7.23572 2.14062H10.9545V23H7.23572V2.14062ZM0.923218 0.28125H17.267V3.85938H0.923218V0.28125ZM24.2201 23.2344C22.6888 23.2344 21.3816 22.9531 20.2982 22.3906C19.2149 21.8281 18.3868 21.0052 17.8138 19.9219C17.2409 18.8281 16.9545 17.5104 16.9545 15.9688V14.1406C16.9545 12.5365 17.2253 11.1667 17.767 10.0312C18.3191 8.89583 19.1159 8.03125 20.1576 7.4375C21.2097 6.84375 22.4701 6.54688 23.9388 6.54688C25.3243 6.54688 26.5066 6.89583 27.4857 7.59375C28.4753 8.28125 29.2253 9.28125 29.7357 10.5938C30.2566 11.9062 30.517 13.4896 30.517 15.3438V16.4062H19.5013V13.6719H27.0482L27.0326 13.5C26.9284 12.3646 26.6107 11.4844 26.0795 10.8594C25.5482 10.2344 24.8347 9.92188 23.9388 9.92188C22.8138 9.92188 21.9441 10.276 21.3295 10.9844C20.7149 11.6823 20.4076 12.6771 20.4076 13.9688V16.0312C20.4076 17.2604 20.7409 18.2083 21.4076 18.875C22.0743 19.5312 23.0118 19.8594 24.2201 19.8594C24.8347 19.8594 25.4388 19.7448 26.0326 19.5156C26.6368 19.276 27.1784 18.9479 27.6576 18.5312L30.0951 20.8125C29.2722 21.5833 28.3451 22.1823 27.3138 22.6094C26.293 23.026 25.2618 23.2344 24.2201 23.2344ZM40.5482 23.2344C39.5795 23.2344 38.6576 23.1458 37.7826 22.9688C36.9076 22.7812 36.0847 22.5104 35.3138 22.1562C34.5534 21.8021 33.8659 21.3698 33.2513 20.8594L35.517 18.0469C36.3399 18.6302 37.1784 19.0729 38.0326 19.375C38.8972 19.6771 39.7357 19.8281 40.5482 19.8281C41.6836 19.8281 42.543 19.6771 43.1263 19.375C43.7201 19.0625 44.017 18.6146 44.017 18.0312C44.017 17.5833 43.8711 17.25 43.5795 17.0312C43.2878 16.8021 42.918 16.6458 42.4701 16.5625C42.0326 16.4792 41.4128 16.401 40.6107 16.3281C40.4753 16.3177 40.3347 16.3073 40.1888 16.2969C40.043 16.2865 39.9024 16.2708 39.767 16.25C39.7253 16.25 39.6836 16.25 39.642 16.25C39.6003 16.2396 39.5586 16.2344 39.517 16.2344C38.3816 16.1094 37.4493 15.9375 36.7201 15.7188C35.9909 15.4896 35.3763 15.0573 34.8763 14.4219C34.3868 13.7865 34.142 12.875 34.142 11.6875C34.142 10.5729 34.3868 9.63542 34.8763 8.875C35.3763 8.10417 36.1055 7.52604 37.0638 7.14062C38.0222 6.74479 39.1993 6.54688 40.5951 6.54688C41.4284 6.54688 42.2409 6.63021 43.0326 6.79688C43.8243 6.95312 44.5795 7.1875 45.2982 7.5C46.0274 7.80208 46.7149 8.18229 47.3607 8.64062L45.1263 11.3594C44.3659 10.901 43.5951 10.5521 42.8138 10.3125C42.043 10.0729 41.293 9.95312 40.5638 9.95312C39.5847 9.95312 38.8399 10.0938 38.3295 10.375C37.8191 10.6562 37.5638 11.0729 37.5638 11.625C37.5638 11.9792 37.7045 12.25 37.9857 12.4375C38.267 12.625 38.6159 12.7552 39.0326 12.8281C39.4597 12.8906 40.0743 12.9583 40.8763 13.0312C40.9597 13.0417 41.0378 13.0521 41.1107 13.0625C41.1941 13.0625 41.2774 13.0677 41.3607 13.0781C41.392 13.0781 41.4284 13.0781 41.4701 13.0781C41.5118 13.0781 41.5534 13.0833 41.5951 13.0938C42.793 13.2083 43.7878 13.3802 44.5795 13.6094C45.3711 13.8385 46.043 14.2969 46.5951 14.9844C47.1472 15.6615 47.4232 16.651 47.4232 17.9531C47.4232 19.099 47.1628 20.0677 46.642 20.8594C46.1211 21.6406 45.3451 22.2344 44.3138 22.6406C43.293 23.0365 42.0378 23.2344 40.5482 23.2344ZM55.5482 23.0781C54.1836 23.0781 53.1836 22.7188 52.5482 22C51.9128 21.2708 51.5951 20.1979 51.5951 18.7812V2.0625H55.3295V18.2656C55.3295 18.6615 55.4076 18.9688 55.5638 19.1875C55.7201 19.3958 55.9493 19.5 56.2513 19.5H57.5482V23.0781H55.5482ZM49.9232 6.78125H57.5482V10.0469H49.9232V6.78125ZM68.4076 23.2344C66.8763 23.2344 65.5691 22.9531 64.4857 22.3906C63.4024 21.8281 62.5743 21.0052 62.0013 19.9219C61.4284 18.8281 61.142 17.5104 61.142 15.9688V14.1406C61.142 12.5365 61.4128 11.1667 61.9545 10.0312C62.5066 8.89583 63.3034 8.03125 64.3451 7.4375C65.3972 6.84375 66.6576 6.54688 68.1263 6.54688C69.5118 6.54688 70.6941 6.89583 71.6732 7.59375C72.6628 8.28125 73.4128 9.28125 73.9232 10.5938C74.4441 11.9062 74.7045 13.4896 74.7045 15.3438V16.4062H63.6888V13.6719H71.2357L71.2201 13.5C71.1159 12.3646 70.7982 11.4844 70.267 10.8594C69.7357 10.2344 69.0222 9.92188 68.1263 9.92188C67.0013 9.92188 66.1316 10.276 65.517 10.9844C64.9024 11.6823 64.5951 12.6771 64.5951 13.9688V16.0312C64.5951 17.2604 64.9284 18.2083 65.5951 18.875C66.2618 19.5312 67.1993 19.8594 68.4076 19.8594C69.0222 19.8594 69.6263 19.7448 70.2201 19.5156C70.8243 19.276 71.3659 18.9479 71.8451 18.5312L74.2826 20.8125C73.4597 21.5833 72.5326 22.1823 71.5013 22.6094C70.4805 23.026 69.4493 23.2344 68.4076 23.2344ZM89.8295 19.4219H95.1263C96.668 19.4219 97.8607 19.0365 98.7045 18.2656C99.5586 17.4948 99.9857 16.401 99.9857 14.9844V8.29688C99.9857 6.88021 99.5586 5.78646 98.7045 5.01562C97.8607 4.24479 96.668 3.85938 95.1263 3.85938H89.8295V0.28125H95.0326C96.8868 0.28125 98.4701 0.598958 99.7826 1.23438C101.106 1.86979 102.111 2.79688 102.798 4.01562C103.486 5.23438 103.829 6.70312 103.829 8.42188V14.8594C103.829 16.5365 103.491 17.9844 102.814 19.2031C102.137 20.4219 101.137 21.3594 99.8138 22.0156C98.5013 22.6719 96.9024 23 95.017 23H89.8295V19.4219ZM87.6732 0.28125H91.4076V23H87.6732V0.28125ZM115.158 23.2344C113.626 23.2344 112.319 22.9531 111.236 22.3906C110.152 21.8281 109.324 21.0052 108.751 19.9219C108.178 18.8281 107.892 17.5104 107.892 15.9688V14.1406C107.892 12.5365 108.163 11.1667 108.704 10.0312C109.257 8.89583 110.053 8.03125 111.095 7.4375C112.147 6.84375 113.408 6.54688 114.876 6.54688C116.262 6.54688 117.444 6.89583 118.423 7.59375C119.413 8.28125 120.163 9.28125 120.673 10.5938C121.194 11.9062 121.454 13.4896 121.454 15.3438V16.4062H110.439V13.6719H117.986L117.97 13.5C117.866 12.3646 117.548 11.4844 117.017 10.8594C116.486 10.2344 115.772 9.92188 114.876 9.92188C113.751 9.92188 112.882 10.276 112.267 10.9844C111.652 11.6823 111.345 12.6771 111.345 13.9688V16.0312C111.345 17.2604 111.678 18.2083 112.345 18.875C113.012 19.5312 113.949 19.8594 115.158 19.8594C115.772 19.8594 116.376 19.7448 116.97 19.5156C117.574 19.276 118.116 18.9479 118.595 18.5312L121.033 20.8125C120.21 21.5833 119.283 22.1823 118.251 22.6094C117.231 23.026 116.199 23.2344 115.158 23.2344ZM134.283 6.78125H138.079L131.986 23H129.267L123.173 6.78125H126.97L130.626 17.6562L134.283 6.78125ZM157.392 23.2344C155.746 23.2344 154.314 22.8958 153.095 22.2188C151.887 21.5312 150.954 20.5521 150.298 19.2812C149.652 18.0104 149.329 16.5052 149.329 14.7656V8.53125C149.329 6.79167 149.652 5.28646 150.298 4.01562C150.954 2.74479 151.887 1.76562 153.095 1.07812C154.314 0.390625 155.746 0.046875 157.392 0.046875C158.757 0.046875 159.991 0.338542 161.095 0.921875C162.21 1.50521 163.132 2.34896 163.861 3.45312C164.6 4.54688 165.106 5.84375 165.376 7.34375H161.533C161.345 6.61458 161.048 5.97917 160.642 5.4375C160.236 4.88542 159.751 4.46354 159.189 4.17188C158.637 3.88021 158.038 3.73438 157.392 3.73438C156.527 3.73438 155.777 3.93229 155.142 4.32812C154.517 4.71354 154.033 5.26562 153.689 5.98438C153.345 6.70312 153.173 7.55208 153.173 8.53125V14.7656C153.173 15.7448 153.345 16.5938 153.689 17.3125C154.033 18.0312 154.517 18.5833 155.142 18.9688C155.777 19.3542 156.527 19.5469 157.392 19.5469C158.048 19.5469 158.652 19.4062 159.204 19.125C159.767 18.8438 160.251 18.4323 160.658 17.8906C161.064 17.349 161.356 16.6979 161.533 15.9375H165.376C165.095 17.4375 164.585 18.7396 163.845 19.8438C163.116 20.9375 162.194 21.776 161.079 22.3594C159.975 22.9427 158.746 23.2344 157.392 23.2344ZM178.345 12.7188C178.345 11.8125 178.074 11.1094 177.533 10.6094C177.001 10.1094 176.246 9.85938 175.267 9.85938C174.642 9.85938 174.027 9.95833 173.423 10.1562C172.819 10.3542 172.277 10.6302 171.798 10.9844L169.314 8.89062C169.949 8.15104 170.783 7.57812 171.814 7.17188C172.845 6.75521 173.991 6.54688 175.251 6.54688C176.626 6.54688 177.803 6.78646 178.783 7.26562C179.762 7.73438 180.507 8.42188 181.017 9.32812C181.538 10.224 181.798 11.3073 181.798 12.5781V23H178.345V12.7188ZM174.095 23.2344C172.231 23.2344 170.835 22.8229 169.908 22C168.981 21.1667 168.517 19.9062 168.517 18.2188C168.517 16.6146 168.986 15.4115 169.923 14.6094C170.861 13.8073 172.267 13.4062 174.142 13.4062H178.486L178.704 16.3125H174.158C173.418 16.3125 172.861 16.4688 172.486 16.7812C172.121 17.0938 171.939 17.5729 171.939 18.2188C171.939 18.8958 172.178 19.401 172.658 19.7344C173.137 20.0573 173.861 20.2188 174.829 20.2188C176.017 20.2188 176.897 20.0885 177.47 19.8281C178.053 19.5677 178.345 19.1615 178.345 18.6094L178.673 20.9219C178.496 21.4323 178.184 21.8594 177.736 22.2031C177.298 22.5469 176.767 22.8073 176.142 22.9844C175.517 23.151 174.835 23.2344 174.095 23.2344ZM186.329 6.78125H190.22V23H186.329V6.78125ZM195.361 10.9531C195.111 10.6823 194.803 10.4792 194.439 10.3438C194.074 10.1979 193.652 10.125 193.173 10.125C192.236 10.125 191.507 10.4062 190.986 10.9688C190.475 11.5208 190.22 12.2917 190.22 13.2812L189.892 9.60938C190.361 8.64062 190.97 7.89062 191.72 7.35938C192.481 6.81771 193.314 6.54688 194.22 6.54688C194.928 6.54688 195.569 6.65625 196.142 6.875C196.715 7.08333 197.215 7.39583 197.642 7.8125L195.361 10.9531ZM208.658 0.28125H212.392V23H208.658V0.28125ZM204.736 23.2656C203.569 23.2656 202.569 23 201.736 22.4688C200.913 21.9271 200.283 21.151 199.845 20.1406C199.418 19.1198 199.204 17.8906 199.204 16.4531V13.3594C199.204 11.9219 199.418 10.6927 199.845 9.67188C200.272 8.64062 200.892 7.85938 201.704 7.32812C202.527 6.78646 203.512 6.51562 204.658 6.51562C205.574 6.51562 206.408 6.77083 207.158 7.28125C207.918 7.79167 208.527 8.51042 208.986 9.4375L208.658 12.8906C208.658 12.2656 208.548 11.7344 208.329 11.2969C208.111 10.8594 207.793 10.526 207.376 10.2969C206.96 10.0677 206.454 9.95312 205.861 9.95312C204.934 9.95312 204.215 10.2552 203.704 10.8594C203.194 11.4635 202.939 12.3073 202.939 13.3906V16.4531C202.939 17.526 203.194 18.3594 203.704 18.9531C204.215 19.5365 204.934 19.8281 205.861 19.8281C206.454 19.8281 206.96 19.7135 207.376 19.4844C207.793 19.2448 208.111 18.9062 208.329 18.4688C208.548 18.0312 208.658 17.5052 208.658 16.8906L208.876 20.4531C208.553 21.2969 208.033 21.9792 207.314 22.5C206.606 23.0104 205.746 23.2656 204.736 23.2656ZM226.47 6.78125H230.189V23H226.47V6.78125ZM220.658 16.6406C220.658 17.599 220.913 18.3438 221.423 18.875C221.934 19.3958 222.652 19.6562 223.579 19.6562C224.507 19.6562 225.22 19.4115 225.72 18.9219C226.22 18.4219 226.47 17.7083 226.47 16.7812L226.689 20.25C226.376 21.0938 225.856 21.8021 225.126 22.375C224.397 22.9479 223.507 23.2344 222.454 23.2344C220.694 23.2344 219.329 22.6667 218.361 21.5312C217.402 20.3958 216.923 18.7917 216.923 16.7188V6.78125H220.658V16.6406ZM253.876 13.4062C253.876 12.3542 253.616 11.5469 253.095 10.9844C252.574 10.4115 251.835 10.125 250.876 10.125C249.97 10.125 249.267 10.401 248.767 10.9531C248.277 11.4948 248.033 12.2708 248.033 13.2812L247.314 9.84375C247.824 8.79167 248.491 7.97917 249.314 7.40625C250.147 6.83333 251.069 6.54688 252.079 6.54688C253.246 6.54688 254.241 6.8125 255.064 7.34375C255.897 7.875 256.527 8.65625 256.954 9.6875C257.392 10.7083 257.611 11.9427 257.611 13.3906V23H253.876V13.4062ZM234.736 6.78125H238.47V23H234.736V6.78125ZM244.314 13.4062C244.314 12.3542 244.053 11.5469 243.533 10.9844C243.022 10.4115 242.293 10.125 241.345 10.125C240.428 10.125 239.72 10.375 239.22 10.875C238.72 11.3646 238.47 12.0625 238.47 12.9688L238.142 9.60938C238.632 8.61979 239.257 7.86458 240.017 7.34375C240.777 6.8125 241.647 6.54688 242.626 6.54688C243.762 6.54688 244.736 6.8125 245.548 7.34375C246.361 7.875 246.975 8.65625 247.392 9.6875C247.819 10.7083 248.033 11.9427 248.033 13.3906V23H244.314V13.4062ZM268.939 23.2344C267.408 23.2344 266.1 22.9531 265.017 22.3906C263.934 21.8281 263.106 21.0052 262.533 19.9219C261.96 18.8281 261.673 17.5104 261.673 15.9688V14.1406C261.673 12.5365 261.944 11.1667 262.486 10.0312C263.038 8.89583 263.835 8.03125 264.876 7.4375C265.928 6.84375 267.189 6.54688 268.658 6.54688C270.043 6.54688 271.225 6.89583 272.204 7.59375C273.194 8.28125 273.944 9.28125 274.454 10.5938C274.975 11.9062 275.236 13.4896 275.236 15.3438V16.4062H264.22V13.6719H271.767L271.751 13.5C271.647 12.3646 271.329 11.4844 270.798 10.8594C270.267 10.2344 269.553 9.92188 268.658 9.92188C267.533 9.92188 266.663 10.276 266.048 10.9844C265.434 11.6823 265.126 12.6771 265.126 13.9688V16.0312C265.126 17.2604 265.46 18.2083 266.126 18.875C266.793 19.5312 267.731 19.8594 268.939 19.8594C269.553 19.8594 270.158 19.7448 270.751 19.5156C271.356 19.276 271.897 18.9479 272.376 18.5312L274.814 20.8125C273.991 21.5833 273.064 22.1823 272.033 22.6094C271.012 23.026 269.981 23.2344 268.939 23.2344ZM290.361 19.4219H295.658C297.199 19.4219 298.392 19.0365 299.236 18.2656C300.09 17.4948 300.517 16.401 300.517 14.9844V8.29688C300.517 6.88021 300.09 5.78646 299.236 5.01562C298.392 4.24479 297.199 3.85938 295.658 3.85938H290.361V0.28125H295.564C297.418 0.28125 299.001 0.598958 300.314 1.23438C301.637 1.86979 302.642 2.79688 303.329 4.01562C304.017 5.23438 304.361 6.70312 304.361 8.42188V14.8594C304.361 16.5365 304.022 17.9844 303.345 19.2031C302.668 20.4219 301.668 21.3594 300.345 22.0156C299.033 22.6719 297.434 23 295.548 23H290.361V19.4219ZM288.204 0.28125H291.939V23H288.204V0.28125ZM308.783 0.28125H312.501V4.01562H308.783V0.28125ZM308.783 6.78125H312.501V23H308.783V6.78125ZM322.517 29.5938C321.267 29.5938 320.147 29.3646 319.158 28.9062C318.168 28.4583 317.397 27.8229 316.845 27L319.361 24.7031C319.746 25.1927 320.21 25.5677 320.751 25.8281C321.303 26.0885 321.876 26.2188 322.47 26.2188C323.533 26.2188 324.371 25.9271 324.986 25.3438C325.6 24.7708 325.908 23.9583 325.908 22.9062V6.78125H329.642V22.5156C329.642 24.0052 329.361 25.2812 328.798 26.3438C328.246 27.4062 327.434 28.2135 326.361 28.7656C325.298 29.3177 324.017 29.5938 322.517 29.5938ZM321.986 23.2656C320.819 23.2656 319.819 23 318.986 22.4688C318.163 21.9271 317.533 21.151 317.095 20.1406C316.668 19.1198 316.454 17.8906 316.454 16.4531V13.3594C316.454 11.9219 316.668 10.6927 317.095 9.67188C317.522 8.64062 318.142 7.85938 318.954 7.32812C319.777 6.78646 320.762 6.51562 321.908 6.51562C322.824 6.51562 323.658 6.77083 324.408 7.28125C325.168 7.79167 325.777 8.51042 326.236 9.4375L325.908 12.8906C325.908 12.2656 325.798 11.7344 325.579 11.2969C325.361 10.8594 325.043 10.526 324.626 10.2969C324.21 10.0677 323.704 9.95312 323.111 9.95312C322.184 9.95312 321.465 10.2552 320.954 10.8594C320.444 11.4635 320.189 12.3073 320.189 13.3906V16.4531C320.189 17.526 320.444 18.3594 320.954 18.9531C321.465 19.5365 322.184 19.8281 323.111 19.8281C323.704 19.8281 324.21 19.7135 324.626 19.4844C325.043 19.2448 325.361 18.9062 325.579 18.4688C325.798 18.0312 325.908 17.5052 325.908 16.8906L326.126 20.4531C325.803 21.2969 325.283 21.9792 324.564 22.5C323.856 23.0104 322.996 23.2656 321.986 23.2656ZM334.064 0.28125H337.783V4.01562H334.064V0.28125ZM334.064 6.78125H337.783V23H334.064V6.78125ZM346.579 23.0781C345.215 23.0781 344.215 22.7188 343.579 22C342.944 21.2708 342.626 20.1979 342.626 18.7812V2.0625H346.361V18.2656C346.361 18.6615 346.439 18.9688 346.595 19.1875C346.751 19.3958 346.981 19.5 347.283 19.5H348.579V23.0781H346.579ZM340.954 6.78125H348.579V10.0469H340.954V6.78125ZM361.689 12.7188C361.689 11.8125 361.418 11.1094 360.876 10.6094C360.345 10.1094 359.59 9.85938 358.611 9.85938C357.986 9.85938 357.371 9.95833 356.767 10.1562C356.163 10.3542 355.621 10.6302 355.142 10.9844L352.658 8.89062C353.293 8.15104 354.126 7.57812 355.158 7.17188C356.189 6.75521 357.335 6.54688 358.595 6.54688C359.97 6.54688 361.147 6.78646 362.126 7.26562C363.106 7.73438 363.85 8.42188 364.361 9.32812C364.882 10.224 365.142 11.3073 365.142 12.5781V23H361.689V12.7188ZM357.439 23.2344C355.574 23.2344 354.178 22.8229 353.251 22C352.324 21.1667 351.861 19.9062 351.861 18.2188C351.861 16.6146 352.329 15.4115 353.267 14.6094C354.204 13.8073 355.611 13.4062 357.486 13.4062H361.829L362.048 16.3125H357.501C356.762 16.3125 356.204 16.4688 355.829 16.7812C355.465 17.0938 355.283 17.5729 355.283 18.2188C355.283 18.8958 355.522 19.401 356.001 19.7344C356.481 20.0573 357.204 20.2188 358.173 20.2188C359.361 20.2188 360.241 20.0885 360.814 19.8281C361.397 19.5677 361.689 19.1615 361.689 18.6094L362.017 20.9219C361.84 21.4323 361.527 21.8594 361.079 22.2031C360.642 22.5469 360.111 22.8073 359.486 22.9844C358.861 23.151 358.178 23.2344 357.439 23.2344ZM373.408 18.2344C373.408 18.6302 373.507 18.9375 373.704 19.1562C373.902 19.3646 374.184 19.4688 374.548 19.4688H375.658V23.0469H373.626C372.376 23.0469 371.402 22.6719 370.704 21.9219C370.017 21.1719 369.673 20.1146 369.673 18.75V0.28125H373.408V18.2344Z" fill="#171717"/>
</svg>
