<svg width="45" height="24" viewBox="0 0 45 24" fill="none" xmlns="http://www.w3.org/2000/svg">
<g clip-path="url(#clip0_5_31)">
<path d="M0 0.0032959H45V24.0003H0V0.0032959Z" fill="white"/>
<path d="M0 0.0032959H45V1.84992H0V0.0032959ZM0 3.69502H45V5.54164H0V3.69502ZM0 7.38826H45V9.23488H0V7.38826ZM0 11.08H45V12.9266H0V11.08ZM0 14.7717H45V16.6183H0V14.7717ZM0 18.4634H45V20.3101H0V18.4634ZM0 22.1552H45V24.0018H0V22.1552Z" fill="#BF0A30"/>
<path d="M0 0H18V12.9218H0V0Z" fill="#002868"/>
<path d="M1.7025 1.20067L1.539 0.689996L1.377 1.20067H0.846001L1.2765 1.5168L1.1115 2.02747L1.5405 1.70982L1.971 2.02747L1.806 1.5168L2.2335 1.20067H1.7025ZM4.6875 1.20067L4.524 0.689996L4.3605 1.20067H3.831L4.26 1.51528L4.095 2.02595L4.524 1.7083L4.953 2.02595L4.7895 1.51528L5.217 1.20067H4.6875ZM7.6725 1.20067L7.509 0.689996L7.3455 1.20067H6.8145L7.245 1.5168L7.08 2.02595L7.509 1.7083L7.938 2.02595L7.7745 1.51528L8.202 1.20067H7.6725ZM10.656 1.20067L10.4925 0.689996L10.329 1.20067H9.798L10.2285 1.5168L10.0635 2.02747L10.4925 1.70982L10.923 2.02747L10.758 1.5168L11.187 1.20067H10.656ZM13.7415 1.51528L14.172 1.20067H13.641L13.4775 0.689996L13.3125 1.20067H12.783L13.212 1.5168L13.0485 2.02747L13.4775 1.70982L13.9065 2.02747L13.7415 1.51528ZM16.7265 1.51528L17.1555 1.19915H16.626L16.4625 0.688477L16.2975 1.20067H15.7665L16.197 1.5168L16.0335 2.02747L16.4625 1.70982L16.8915 2.02747L16.7265 1.51528ZM3.0315 1.98491L2.868 2.49558H2.3385L2.7675 2.81171L2.604 3.32238L3.033 3.00625L3.462 3.32238L3.2985 2.81171L3.729 2.49558H3.195L3.0315 1.98491ZM6.18 2.49558L6.0165 1.98491L5.853 2.49558H5.3235L5.7525 2.81171L5.589 3.32238L6.018 3.00625L6.447 3.32238L6.2835 2.81171L6.7125 2.49558H6.18ZM9.1635 2.49558L9.0015 1.98491L8.838 2.49558H8.307L8.7375 2.81171L8.5725 3.32238L9.003 3.00625L9.432 3.32238L9.2685 2.81171L9.6975 2.49558H9.1635ZM12.1485 2.49558L11.985 1.98491L11.823 2.49558H11.292L11.721 2.81171L11.5575 3.32238L11.9865 3.00625L12.4155 3.32238L12.252 2.81171L12.6825 2.49558H12.1485ZM15.132 2.49558L14.9685 1.98491L14.805 2.49558H14.2755L14.7045 2.81171L14.541 3.32238L14.97 3.00625L15.399 3.32238L15.2355 2.81171L15.6645 2.49558H15.132ZM1.7025 3.79202L1.539 3.27983L1.377 3.79202L0.846001 3.7905L1.2765 4.10663L1.1115 4.61882L1.5405 4.30117L1.971 4.61882L1.806 4.10663L2.2365 3.7905L1.7025 3.79202ZM4.6875 3.79202L4.524 3.27983L4.3605 3.79202L3.831 3.7905L4.26 4.10663L4.095 4.61882L4.524 4.30117L4.953 4.61882L4.7895 4.10663L5.2185 3.7905L4.6875 3.79202ZM7.6725 3.79202L7.509 3.27983L7.3455 3.79202L6.8145 3.7905L7.245 4.10663L7.08 4.61882L7.509 4.30117L7.938 4.61882L7.7745 4.10663L8.2035 3.7905L7.6725 3.79202ZM10.656 3.79202L10.4925 3.27983L10.3305 3.79202L9.7995 3.7905L10.23 4.10663L10.065 4.61882L10.494 4.30117L10.9245 4.61882L10.7595 4.10663L11.19 3.7905L10.656 3.79202ZM13.6395 3.79202L13.476 3.27983L13.3125 3.79202L12.783 3.7905L13.212 4.10663L13.0485 4.61882L13.4775 4.30117L13.9065 4.61882L13.743 4.10663L14.1735 3.7905L13.6395 3.79202ZM16.7265 4.10663L17.1555 3.7905L16.626 3.79202L16.4625 3.27983L16.299 3.79202L15.768 3.7905L16.1985 4.10663L16.035 4.61882L16.464 4.30117L16.893 4.61882L16.7265 4.10663ZM3.0315 4.51091L2.868 5.02158H2.3385L2.7675 5.33771L2.604 5.84838L3.033 5.53225L3.462 5.84838L3.2985 5.33771L3.729 5.02158H3.195L3.0315 4.51091ZM6.18 5.02158L6.0165 4.51091L5.853 5.02158H5.3235L5.7525 5.33771L5.589 5.84838L6.018 5.53225L6.447 5.84838L6.2835 5.33771L6.7125 5.02158H6.18ZM9.1635 5.02158L9.0015 4.51091L8.838 5.02158H8.307L8.7375 5.33771L8.5725 5.84838L9.003 5.53225L9.432 5.84838L9.2685 5.33771L9.6975 5.02158H9.1635ZM12.1485 5.02158L11.985 4.51091L11.823 5.02158H11.292L11.721 5.33771L11.5575 5.84838L11.9865 5.53225L12.4155 5.84838L12.252 5.33771L12.6825 5.02158H12.1485ZM15.132 5.02158L14.9685 4.51091L14.805 5.02158H14.2755L14.7045 5.33771L14.541 5.84838L14.97 5.53225L15.399 5.84838L15.2355 5.33771L15.6645 5.02158H15.132ZM1.7025 6.31801L1.539 5.80582L1.377 6.31801L0.846001 6.31649L1.2765 6.63262L1.11 7.14329L1.539 6.82716L1.9695 7.14329L1.8045 6.63262L2.235 6.31649L1.7025 6.31801ZM4.6875 6.31801L4.524 5.80582L4.3605 6.31801L3.831 6.31649L4.26 6.63262L4.095 7.14329L4.524 6.82716L4.953 7.14329L4.7895 6.63262L5.2185 6.31649L4.6875 6.31801ZM7.6725 6.31801L7.509 5.80582L7.3455 6.31801L6.8145 6.31649L7.245 6.63262L7.08 7.14329L7.509 6.82716L7.938 7.14329L7.7745 6.63262L8.2035 6.31649L7.6725 6.31801ZM10.656 6.31801L10.491 5.80582L10.329 6.31801L9.798 6.31649L10.2285 6.63262L10.0635 7.14329L10.4925 6.82716L10.923 7.14329L10.758 6.63262L11.1885 6.31649L10.656 6.31801ZM13.6395 6.31801L13.476 5.80582L13.3125 6.31801L12.783 6.31649L13.212 6.63262L13.0485 7.14329L13.4775 6.82716L13.905 7.14329L13.7415 6.63262L14.172 6.31649L13.6395 6.31801ZM16.7265 6.63262L17.1555 6.31649L16.626 6.31801L16.4625 5.80582L16.299 6.31801L15.768 6.31649L16.1985 6.63262L16.035 7.14329L16.464 6.82716L16.89 7.14329L16.7265 6.63262ZM3.0315 7.07338L2.868 7.58405H2.3385L2.7675 7.90018L2.604 8.41085L3.033 8.09472L3.462 8.41085L3.2985 7.90018L3.729 7.58405H3.195L3.0315 7.07338ZM6.18 7.58405L6.0165 7.07338L5.853 7.58405H5.3235L5.7525 7.90018L5.589 8.41085L6.018 8.09472L6.447 8.41085L6.2835 7.90018L6.7125 7.58405H6.18ZM9.1635 7.58405L9.0015 7.07338L8.838 7.58405H8.307L8.7375 7.90018L8.5725 8.41085L9.003 8.09472L9.432 8.41085L9.2685 7.90018L9.6975 7.58405H9.1635ZM12.1485 7.58405L11.985 7.07338L11.8215 7.58405H11.2905L11.7195 7.90018L11.556 8.41085L11.985 8.09472L12.414 8.41085L12.2505 7.90018L12.681 7.58405H12.1485ZM15.132 7.58405L14.9685 7.07338L14.805 7.58405H14.2755L14.7045 7.90018L14.541 8.41085L14.97 8.09472L15.399 8.41085L15.2355 7.90018L15.6645 7.58405H15.132ZM1.7025 8.882L1.539 8.36981L1.377 8.882L0.846001 8.88048L1.2765 9.19509L1.1115 9.70728L1.5405 9.38964L1.971 9.70728L1.806 9.19509L2.2365 8.87897L1.7025 8.882ZM4.6875 8.882L4.524 8.36981L4.3605 8.882L3.831 8.88048L4.26 9.19509L4.095 9.70728L4.524 9.38964L4.953 9.70728L4.788 9.19509L5.217 8.87897L4.6875 8.882ZM7.6725 8.882L7.509 8.36981L7.3455 8.882L6.8145 8.88048L7.245 9.19661L7.08 9.70728L7.509 9.38964L7.938 9.70728L7.773 9.19509L8.202 8.87897L7.6725 8.882ZM10.656 8.882L10.4925 8.36981L10.3305 8.882L9.7995 8.88048L10.23 9.19661L10.065 9.7088L10.494 9.39116L10.9245 9.7088L10.7595 9.19661L11.19 8.88048L10.656 8.882ZM13.6395 8.882L13.476 8.36981L13.3125 8.882L12.783 8.88048L13.212 9.19661L13.0485 9.7088L13.4775 9.39116L13.9065 9.7088L13.7415 9.19509L14.172 8.87897L13.6395 8.882ZM16.7265 9.19509L17.1555 8.87897L16.626 8.88048L16.4625 8.36829L16.299 8.88048L15.768 8.87897L16.1985 9.19509L16.035 9.70728L16.464 9.38964L16.893 9.70728L16.7265 9.19509ZM3.0315 9.59937L2.868 10.11H2.3385L2.7675 10.4262L2.604 10.9368L3.033 10.6207L3.462 10.9368L3.2955 10.4262L3.726 10.11H3.195L3.0315 9.59937ZM6.18 10.11L6.0165 9.59937L5.853 10.11H5.3235L5.7525 10.4262L5.589 10.9368L6.018 10.6207L6.447 10.9368L6.2805 10.4262L6.7095 10.11H6.18ZM9.1635 10.11L9.0015 9.59937L8.838 10.11H8.307L8.7375 10.4262L8.5725 10.9368L9.003 10.6207L9.432 10.9368L9.2655 10.4262L9.6945 10.11H9.1635ZM12.1485 10.11L11.985 9.59937L11.823 10.11H11.292L11.721 10.4262L11.5575 10.9368L11.9865 10.6207L12.4155 10.9368L12.249 10.4262L12.6795 10.11H12.1485ZM15.132 10.11L14.9685 9.59937L14.805 10.11H14.2755L14.7045 10.4262L14.541 10.9368L14.97 10.6207L15.399 10.9368L15.2355 10.4262L15.6645 10.11H15.132ZM1.7025 11.408L1.539 10.8958L1.377 11.408L0.846001 11.4065L1.2765 11.7226L1.1115 12.2333L1.5405 11.9172L1.971 12.2333L1.806 11.7226L2.2365 11.4065L1.7025 11.408ZM4.6875 11.408L4.524 10.8958L4.3605 11.408L3.831 11.4065L4.26 11.7226L4.095 12.2318L4.524 11.9156L4.953 12.2318L4.7895 11.7211L5.2185 11.405L4.6875 11.408ZM7.6725 11.408L7.509 10.8958L7.3455 11.408L6.8145 11.4065L7.245 11.7226L7.08 12.2318L7.509 11.9156L7.938 12.2318L7.7745 11.7211L8.2035 11.405L7.6725 11.408ZM10.656 11.408L10.4925 10.8958L10.3305 11.408L9.7995 11.4065L10.23 11.7226L10.065 12.2333L10.494 11.9172L10.9245 12.2333L10.7595 11.7226L11.19 11.4065L10.656 11.408ZM13.6395 11.408L13.476 10.8958L13.3125 11.408L12.783 11.4065L13.212 11.7226L13.0485 12.2333L13.4775 11.9172L13.9065 12.2333L13.743 11.7226L14.1735 11.4065L13.6395 11.408ZM16.7265 11.7211L17.1555 11.405L16.626 11.4065L16.4625 10.8943L16.299 11.4065L15.768 11.405L16.1985 11.7211L16.035 12.2318L16.464 11.9156L16.893 12.2318L16.7265 11.7211Z" fill="white"/>
</g>
<defs>
<clipPath id="clip0_5_31">
<rect width="45" height="24" fill="white"/>
</clipPath>
</defs>
</svg>
