<svg width="163" height="38" viewBox="0 0 163 38" fill="none" xmlns="http://www.w3.org/2000/svg">
<path d="M1.76136 31V7.72727H11.375C13.1174 7.72727 14.6212 8.06818 15.8864 8.75C17.1591 9.42424 18.1402 10.3674 18.8295 11.5795C19.5189 12.7841 19.8636 14.1856 19.8636 15.7841C19.8636 17.3902 19.5114 18.7955 18.8068 20C18.1098 21.197 17.1136 22.125 15.8182 22.7841C14.5227 23.4432 12.9848 23.7727 11.2045 23.7727H5.27273V19.3409H10.1591C11.0076 19.3409 11.7159 19.1932 12.2841 18.8977C12.8598 18.6023 13.2955 18.1894 13.5909 17.6591C13.8864 17.1212 14.0341 16.4962 14.0341 15.7841C14.0341 15.0644 13.8864 14.4432 13.5909 13.9205C13.2955 13.3902 12.8598 12.9811 12.2841 12.6932C11.7083 12.4053 11 12.2614 10.1591 12.2614H7.38636V31H1.76136ZM22.6364 31V13.5455H28.0341V16.7273H28.2159C28.5341 15.5758 29.053 14.7197 29.7727 14.1591C30.4924 13.5909 31.3295 13.3068 32.2841 13.3068C32.5417 13.3068 32.8068 13.3258 33.0795 13.3636C33.3523 13.3939 33.6061 13.4432 33.8409 13.5114V18.3409C33.5758 18.25 33.2273 18.178 32.7955 18.125C32.3712 18.072 31.9924 18.0455 31.6591 18.0455C31 18.0455 30.4053 18.1932 29.875 18.4886C29.3523 18.7765 28.9394 19.1818 28.6364 19.7045C28.3409 20.2197 28.1932 20.8258 28.1932 21.5227V31H22.6364ZM43.3466 31.3295C41.5133 31.3295 39.9375 30.9545 38.6193 30.2045C37.3087 29.447 36.2973 28.3939 35.5852 27.0455C34.8807 25.6894 34.5284 24.1174 34.5284 22.3295C34.5284 20.5341 34.8807 18.9621 35.5852 17.6136C36.2973 16.2576 37.3087 15.2045 38.6193 14.4545C39.9375 13.697 41.5133 13.3182 43.3466 13.3182C45.1799 13.3182 46.7519 13.697 48.0625 14.4545C49.3807 15.2045 50.392 16.2576 51.0966 17.6136C51.8087 18.9621 52.1648 20.5341 52.1648 22.3295C52.1648 24.1174 51.8087 25.6894 51.0966 27.0455C50.392 28.3939 49.3807 29.447 48.0625 30.2045C46.7519 30.9545 45.1799 31.3295 43.3466 31.3295ZM43.3807 27.1364C44.0473 27.1364 44.6117 26.9318 45.0739 26.5227C45.536 26.1136 45.8883 25.5455 46.1307 24.8182C46.3807 24.0909 46.5057 23.25 46.5057 22.2955C46.5057 21.3258 46.3807 20.4773 46.1307 19.75C45.8883 19.0227 45.536 18.4545 45.0739 18.0455C44.6117 17.6364 44.0473 17.4318 43.3807 17.4318C42.6913 17.4318 42.108 17.6364 41.6307 18.0455C41.161 18.4545 40.8011 19.0227 40.5511 19.75C40.3087 20.4773 40.1875 21.3258 40.1875 22.2955C40.1875 23.25 40.3087 24.0909 40.5511 24.8182C40.8011 25.5455 41.161 26.1136 41.6307 26.5227C42.108 26.9318 42.6913 27.1364 43.3807 27.1364ZM55.0114 13.5455H60.5682V31.7273C60.5682 33.1667 60.2727 34.3106 59.6818 35.1591C59.0985 36.0076 58.2727 36.6174 57.2045 36.9886C56.1364 37.3598 54.875 37.5455 53.4205 37.5455C53.2235 37.5455 53.0379 37.5417 52.8636 37.5341C52.6894 37.5265 52.5 37.5189 52.2955 37.5114V33.2955C52.4318 33.3106 52.553 33.322 52.6591 33.3295C52.7652 33.3371 52.8712 33.3409 52.9773 33.3409C53.7424 33.3409 54.2727 33.197 54.5682 32.9091C54.8636 32.6288 55.0114 32.197 55.0114 31.6136V13.5455ZM57.7841 11.5114C57.0038 11.5114 56.3333 11.2538 55.7727 10.7386C55.2121 10.2159 54.9318 9.58712 54.9318 8.85227C54.9318 8.125 55.2121 7.50379 55.7727 6.98864C56.3333 6.46591 57.0038 6.20454 57.7841 6.20454C58.572 6.20454 59.2424 6.46591 59.7955 6.98864C60.3561 7.50379 60.6364 8.125 60.6364 8.85227C60.6364 9.58712 60.3561 10.2159 59.7955 10.7386C59.2424 11.2538 58.572 11.5114 57.7841 11.5114ZM72.2642 31.3295C70.4384 31.3295 68.8627 30.9697 67.5369 30.25C66.2188 29.5227 65.2036 28.4886 64.4915 27.1477C63.7869 25.7992 63.4347 24.197 63.4347 22.3409C63.4347 20.5379 63.7907 18.9621 64.5028 17.6136C65.215 16.2576 66.2188 15.2045 67.5142 14.4545C68.8097 13.697 70.3362 13.3182 72.0938 13.3182C73.3362 13.3182 74.4725 13.5114 75.5028 13.8977C76.5331 14.2841 77.4233 14.8561 78.1733 15.6136C78.9233 16.3712 79.5066 17.3068 79.9233 18.4205C80.34 19.5265 80.5483 20.7955 80.5483 22.2273V23.6136H65.3778V20.3864H75.3778C75.3703 19.7955 75.2301 19.2689 74.9574 18.8068C74.6847 18.3447 74.3097 17.9848 73.8324 17.7273C73.3627 17.4621 72.821 17.3295 72.2074 17.3295C71.5862 17.3295 71.0294 17.4697 70.5369 17.75C70.0445 18.0227 69.6544 18.3977 69.3665 18.875C69.0786 19.3447 68.9271 19.8788 68.9119 20.4773V23.7614C68.9119 24.4735 69.0521 25.0985 69.3324 25.6364C69.6127 26.1667 70.0104 26.5795 70.5256 26.875C71.0407 27.1705 71.6544 27.3182 72.3665 27.3182C72.8589 27.3182 73.3059 27.25 73.7074 27.1136C74.1089 26.9773 74.4536 26.7765 74.7415 26.5114C75.0294 26.2462 75.2453 25.9205 75.3892 25.5341L80.4915 25.6818C80.2794 26.8258 79.8134 27.822 79.0938 28.6705C78.3816 29.5114 77.446 30.1667 76.2869 30.6364C75.1278 31.0985 73.7869 31.3295 72.2642 31.3295ZM93.2386 13.5455V17.6364H82.2273V13.5455H93.2386ZM84.5341 9.36364H90.0909V25.5114C90.0909 25.8523 90.1439 26.1288 90.25 26.3409C90.3636 26.5455 90.5265 26.6932 90.7386 26.7841C90.9508 26.8674 91.2045 26.9091 91.5 26.9091C91.7121 26.9091 91.9356 26.8902 92.1705 26.8523C92.4129 26.8068 92.5947 26.7689 92.7159 26.7386L93.5568 30.75C93.2917 30.8258 92.9167 30.9205 92.4318 31.0341C91.9545 31.1477 91.3826 31.2197 90.7159 31.25C89.4129 31.3106 88.2955 31.1591 87.3636 30.7955C86.4394 30.4242 85.7311 29.8485 85.2386 29.0682C84.7538 28.2879 84.5189 27.3068 84.5341 26.125V9.36364ZM104.034 31.3295C102.201 31.3295 100.625 30.9545 99.3068 30.2045C97.9962 29.447 96.9848 28.3939 96.2727 27.0455C95.5682 25.6894 95.2159 24.1174 95.2159 22.3295C95.2159 20.5341 95.5682 18.9621 96.2727 17.6136C96.9848 16.2576 97.9962 15.2045 99.3068 14.4545C100.625 13.697 102.201 13.3182 104.034 13.3182C105.867 13.3182 107.439 13.697 108.75 14.4545C110.068 15.2045 111.08 16.2576 111.784 17.6136C112.496 18.9621 112.852 20.5341 112.852 22.3295C112.852 24.1174 112.496 25.6894 111.784 27.0455C111.08 28.3939 110.068 29.447 108.75 30.2045C107.439 30.9545 105.867 31.3295 104.034 31.3295ZM104.068 27.1364C104.735 27.1364 105.299 26.9318 105.761 26.5227C106.223 26.1136 106.576 25.5455 106.818 24.8182C107.068 24.0909 107.193 23.25 107.193 22.2955C107.193 21.3258 107.068 20.4773 106.818 19.75C106.576 19.0227 106.223 18.4545 105.761 18.0455C105.299 17.6364 104.735 17.4318 104.068 17.4318C103.379 17.4318 102.795 17.6364 102.318 18.0455C101.848 18.4545 101.489 19.0227 101.239 19.75C100.996 20.4773 100.875 21.3258 100.875 22.2955C100.875 23.25 100.996 24.0909 101.239 24.8182C101.489 25.5455 101.848 26.1136 102.318 26.5227C102.795 26.9318 103.379 27.1364 104.068 27.1364ZM130.938 18.875L125.835 19.0114C125.782 18.6477 125.638 18.3258 125.403 18.0455C125.169 17.7576 124.862 17.5341 124.483 17.375C124.112 17.2083 123.68 17.125 123.188 17.125C122.544 17.125 121.994 17.2538 121.54 17.5114C121.093 17.7689 120.873 18.1174 120.881 18.5568C120.873 18.8977 121.009 19.1932 121.29 19.4432C121.578 19.6932 122.089 19.8939 122.824 20.0455L126.188 20.6818C127.93 21.0152 129.225 21.5682 130.074 22.3409C130.93 23.1136 131.362 24.1364 131.369 25.4091C131.362 26.6061 131.006 27.6477 130.301 28.5341C129.604 29.4205 128.65 30.1098 127.438 30.6023C126.225 31.0871 124.839 31.3295 123.278 31.3295C120.786 31.3295 118.82 30.8182 117.381 29.7955C115.949 28.7652 115.131 27.3864 114.926 25.6591L120.415 25.5227C120.536 26.1591 120.85 26.6439 121.358 26.9773C121.866 27.3106 122.513 27.4773 123.301 27.4773C124.013 27.4773 124.593 27.3447 125.04 27.0795C125.487 26.8144 125.714 26.4621 125.722 26.0227C125.714 25.6288 125.54 25.3144 125.199 25.0795C124.858 24.8371 124.324 24.6477 123.597 24.5114L120.551 23.9318C118.801 23.6136 117.498 23.0265 116.642 22.1705C115.786 21.3068 115.362 20.2083 115.369 18.875C115.362 17.7083 115.672 16.7121 116.301 15.8864C116.93 15.053 117.824 14.4167 118.983 13.9773C120.142 13.5379 121.509 13.3182 123.085 13.3182C125.449 13.3182 127.313 13.8144 128.676 14.8068C130.04 15.7917 130.794 17.1477 130.938 18.875Z" fill="white"/>
<path fill-rule="evenodd" clip-rule="evenodd" d="M153.625 9.34375C153.625 9.13655 153.543 8.93784 153.396 8.79132C153.25 8.64481 153.051 8.5625 152.844 8.5625H148.156C147.949 8.5625 147.75 8.64481 147.604 8.79132C147.457 8.93784 147.375 9.13655 147.375 9.34375V10.9062C147.375 11.1135 147.457 11.3122 147.604 11.4587C147.75 11.6052 147.949 11.6875 148.156 11.6875H152.844C153.051 11.6875 153.25 11.6052 153.396 11.4587C153.543 11.3122 153.625 11.1135 153.625 10.9062V9.34375ZM145.812 9.34375C145.812 8.72215 146.059 8.12601 146.499 7.68647C146.939 7.24693 147.535 7 148.156 7H152.844C153.465 7 154.061 7.24693 154.501 7.68647C154.941 8.12601 155.188 8.72215 155.188 9.34375V10.9062C155.188 11.5279 154.941 12.124 154.501 12.5635C154.061 13.0031 153.465 13.25 152.844 13.25H148.156C147.535 13.25 146.939 13.0031 146.499 12.5635C146.059 12.124 145.812 11.5279 145.812 10.9062V9.34375ZM142.688 9.34375H144.25V10.9062C144.25 11.9423 144.662 12.9358 145.394 13.6684C146.127 14.4009 147.12 14.8125 148.156 14.8125H152.844C153.357 14.8125 153.865 14.7115 154.339 14.5152C154.813 14.3188 155.243 14.0311 155.606 13.6684C155.969 13.3057 156.256 12.875 156.453 12.4011C156.649 11.9272 156.75 11.4192 156.75 10.9062V9.34375H158.312C159.141 9.34375 159.936 9.67299 160.522 10.259C161.108 10.8451 161.438 11.6399 161.438 12.4688V28.875C161.438 29.7038 161.108 30.4987 160.522 31.0847C159.936 31.6708 159.141 32 158.312 32H142.688C141.859 32 141.064 31.6708 140.478 31.0847C139.892 30.4987 139.562 29.7038 139.562 28.875V12.4688C139.562 11.6399 139.892 10.8451 140.478 10.259C141.064 9.67299 141.859 9.34375 142.688 9.34375Z" fill="white"/>
</svg>
