<svg width="105" height="21" viewBox="0 0 105 21" fill="none" xmlns="http://www.w3.org/2000/svg">
<path d="M12.8849 6.36222H10.2287C10.1529 5.92661 10.0133 5.54072 9.80966 5.20455C9.60606 4.86364 9.35275 4.57481 9.04972 4.33807C8.74669 4.10133 8.40104 3.92377 8.01278 3.8054C7.62926 3.68229 7.21496 3.62074 6.76989 3.62074C5.97917 3.62074 5.27841 3.8196 4.66761 4.21733C4.05682 4.61032 3.5786 5.18797 3.23295 5.95028C2.88731 6.70786 2.71449 7.63352 2.71449 8.72727C2.71449 9.83996 2.88731 10.7775 3.23295 11.5398C3.58333 12.2973 4.06155 12.8703 4.66761 13.2585C5.27841 13.642 5.9768 13.8338 6.76278 13.8338C7.19839 13.8338 7.60559 13.777 7.98438 13.6634C8.3679 13.545 8.71117 13.3722 9.0142 13.1449C9.32197 12.9176 9.58002 12.6383 9.78835 12.3068C10.0014 11.9754 10.1482 11.5966 10.2287 11.1705L12.8849 11.1847C12.7855 11.8759 12.5701 12.5246 12.2386 13.1307C11.9119 13.7367 11.4834 14.2718 10.9531 14.7358C10.4228 15.1951 9.80256 15.5549 9.09233 15.8153C8.3821 16.071 7.59375 16.1989 6.72727 16.1989C5.44886 16.1989 4.30777 15.9029 3.30398 15.3111C2.30019 14.7192 1.50947 13.8646 0.931818 12.7472C0.354167 11.6297 0.0653409 10.2898 0.0653409 8.72727C0.0653409 7.16004 0.356534 5.82008 0.93892 4.70739C1.52131 3.58996 2.31439 2.73532 3.31818 2.14347C4.32197 1.55161 5.45833 1.25568 6.72727 1.25568C7.53693 1.25568 8.28977 1.36932 8.9858 1.59659C9.68182 1.82386 10.3021 2.15767 10.8466 2.59801C11.3911 3.03362 11.8385 3.56866 12.1889 4.20312C12.544 4.83286 12.776 5.55256 12.8849 6.36222ZM17.7553 1.45455V16H15.1843V1.45455H17.7553ZM25.1577 16.2131C24.0923 16.2131 23.169 15.9787 22.3878 15.5099C21.6065 15.0412 21.0005 14.3854 20.5696 13.5426C20.1435 12.6998 19.9304 11.715 19.9304 10.5881C19.9304 9.46117 20.1435 8.47396 20.5696 7.62642C21.0005 6.77888 21.6065 6.12074 22.3878 5.65199C23.169 5.18324 24.0923 4.94886 25.1577 4.94886C26.223 4.94886 27.1463 5.18324 27.9276 5.65199C28.7088 6.12074 29.3125 6.77888 29.7386 7.62642C30.1695 8.47396 30.3849 9.46117 30.3849 10.5881C30.3849 11.715 30.1695 12.6998 29.7386 13.5426C29.3125 14.3854 28.7088 15.0412 27.9276 15.5099C27.1463 15.9787 26.223 16.2131 25.1577 16.2131ZM25.1719 14.1534C25.7495 14.1534 26.2325 13.9948 26.6207 13.6776C27.009 13.3556 27.2978 12.9247 27.4872 12.3849C27.6813 11.8452 27.7784 11.2438 27.7784 10.581C27.7784 9.91335 27.6813 9.30966 27.4872 8.76989C27.2978 8.22538 27.009 7.79214 26.6207 7.47017C26.2325 7.1482 25.7495 6.98722 25.1719 6.98722C24.58 6.98722 24.0876 7.1482 23.6946 7.47017C23.3063 7.79214 23.0152 8.22538 22.821 8.76989C22.6316 9.30966 22.5369 9.91335 22.5369 10.581C22.5369 11.2438 22.6316 11.8452 22.821 12.3849C23.0152 12.9247 23.3063 13.3556 23.6946 13.6776C24.0876 13.9948 24.58 14.1534 25.1719 14.1534ZM35.1381 9.60795V16H32.5671V5.09091H35.0245V6.9446H35.1523C35.4033 6.33381 35.8034 5.84848 36.3526 5.48864C36.9066 5.12879 37.5908 4.94886 38.4052 4.94886C39.158 4.94886 39.8138 5.10985 40.3725 5.43182C40.936 5.75379 41.3716 6.22017 41.6793 6.83097C41.9918 7.44176 42.1457 8.18276 42.141 9.05398V16H39.57V9.4517C39.57 8.72254 39.3806 8.15199 39.0018 7.74006C38.6277 7.32812 38.1093 7.12216 37.4464 7.12216C36.9966 7.12216 36.5965 7.22159 36.2461 7.42045C35.9004 7.61458 35.6282 7.89631 35.4293 8.26562C35.2352 8.63494 35.1381 9.08239 35.1381 9.60795ZM49.5842 16.2131C48.4904 16.2131 47.5458 15.9858 46.7504 15.5312C45.9596 15.072 45.3512 14.4233 44.9251 13.5852C44.4989 12.7424 44.2859 11.7505 44.2859 10.6094C44.2859 9.48722 44.4989 8.50237 44.9251 7.65483C45.3559 6.80256 45.9573 6.13968 46.729 5.66619C47.5008 5.18797 48.4076 4.94886 49.4492 4.94886C50.1216 4.94886 50.756 5.05777 51.3526 5.27557C51.954 5.48864 52.4843 5.82008 52.9435 6.26989C53.4076 6.7197 53.7721 7.29261 54.0373 7.98864C54.3024 8.67992 54.435 9.50379 54.435 10.4602V11.2486H45.4933V9.51562H51.9705C51.9658 9.0232 51.8593 8.58523 51.6509 8.2017C51.4426 7.81345 51.1514 7.50805 50.7773 7.28551C50.408 7.06297 49.9772 6.9517 49.4847 6.9517C48.9592 6.9517 48.4975 7.07955 48.0998 7.33523C47.7021 7.58617 47.3919 7.91761 47.1694 8.32955C46.9516 8.73674 46.8403 9.18419 46.8356 9.67188V11.1847C46.8356 11.8191 46.9516 12.3636 47.1836 12.8182C47.4156 13.268 47.7399 13.6136 48.1566 13.8551C48.5733 14.0919 49.061 14.2102 49.6197 14.2102C49.9937 14.2102 50.3323 14.1581 50.6353 14.054C50.9383 13.9451 51.2011 13.7865 51.4237 13.5781C51.6462 13.3698 51.8143 13.1117 51.9279 12.804L54.3285 13.0739C54.177 13.7083 53.8881 14.2623 53.462 14.7358C53.0406 15.2045 52.5008 15.5691 51.8427 15.8295C51.1845 16.0852 50.4317 16.2131 49.5842 16.2131ZM61.6847 16V1.45455H64.3196V13.7912H70.7259V16H61.6847ZM77.6577 16.2131C76.5923 16.2131 75.669 15.9787 74.8878 15.5099C74.1065 15.0412 73.5005 14.3854 73.0696 13.5426C72.6435 12.6998 72.4304 11.715 72.4304 10.5881C72.4304 9.46117 72.6435 8.47396 73.0696 7.62642C73.5005 6.77888 74.1065 6.12074 74.8878 5.65199C75.669 5.18324 76.5923 4.94886 77.6577 4.94886C78.723 4.94886 79.6463 5.18324 80.4276 5.65199C81.2088 6.12074 81.8125 6.77888 82.2386 7.62642C82.6695 8.47396 82.8849 9.46117 82.8849 10.5881C82.8849 11.715 82.6695 12.6998 82.2386 13.5426C81.8125 14.3854 81.2088 15.0412 80.4276 15.5099C79.6463 15.9787 78.723 16.2131 77.6577 16.2131ZM77.6719 14.1534C78.2495 14.1534 78.7325 13.9948 79.1207 13.6776C79.509 13.3556 79.7978 12.9247 79.9872 12.3849C80.1813 11.8452 80.2784 11.2438 80.2784 10.581C80.2784 9.91335 80.1813 9.30966 79.9872 8.76989C79.7978 8.22538 79.509 7.79214 79.1207 7.47017C78.7325 7.1482 78.2495 6.98722 77.6719 6.98722C77.08 6.98722 76.5876 7.1482 76.1946 7.47017C75.8063 7.79214 75.5152 8.22538 75.321 8.76989C75.1316 9.30966 75.0369 9.91335 75.0369 10.581C75.0369 11.2438 75.1316 11.8452 75.321 12.3849C75.5152 12.9247 75.8063 13.3556 76.1946 13.6776C76.5876 13.9948 77.08 14.1534 77.6719 14.1534ZM87.6381 1.45455V16H85.0671V1.45455H87.6381ZM90.282 5.09091H92.853V16.625C92.853 17.411 92.7038 18.0597 92.4055 18.571C92.1072 19.0824 91.6764 19.4635 91.1129 19.7145C90.5495 19.9654 89.8653 20.0909 89.0604 20.0909C88.9657 20.0909 88.8781 20.0885 88.7976 20.0838C88.7171 20.0838 88.6295 20.0814 88.5348 20.0767V17.9815C88.6058 17.9863 88.6697 17.9886 88.7266 17.9886C88.7834 17.9934 88.8426 17.9957 88.9041 17.9957C89.3965 17.9957 89.7493 17.875 89.9624 17.6335C90.1754 17.3968 90.282 17.0488 90.282 16.5895V5.09091ZM91.5604 3.54261C91.1484 3.54261 90.7957 3.40767 90.5021 3.13778C90.2133 2.86316 90.0689 2.53409 90.0689 2.15057C90.0689 1.76231 90.2133 1.43324 90.5021 1.16335C90.7957 0.88873 91.1484 0.75142 91.5604 0.75142C91.9676 0.75142 92.3156 0.88873 92.6044 1.16335C92.898 1.43324 93.0447 1.76231 93.0447 2.15057C93.0447 2.53409 92.898 2.86316 92.6044 3.13778C92.3156 3.40767 91.9676 3.54261 91.5604 3.54261ZM98.636 16.2202C97.9447 16.2202 97.3221 16.0971 96.7681 15.8509C96.2189 15.5999 95.7833 15.2306 95.4613 14.7429C95.1441 14.2552 94.9854 13.6539 94.9854 12.9389C94.9854 12.3234 95.0991 11.8144 95.3263 11.4119C95.5536 11.0095 95.8638 10.6875 96.2567 10.446C96.6497 10.2045 97.0924 10.0223 97.5849 9.89915C98.082 9.77131 98.5958 9.67898 99.1261 9.62216C99.7653 9.55587 100.284 9.49669 100.681 9.4446C101.079 9.38778 101.368 9.30256 101.548 9.18892C101.733 9.07055 101.825 8.88826 101.825 8.64205V8.59943C101.825 8.06439 101.666 7.65009 101.349 7.35653C101.032 7.06297 100.575 6.91619 99.9783 6.91619C99.3486 6.91619 98.8491 7.0535 98.4798 7.32812C98.1152 7.60275 97.869 7.92708 97.7411 8.30114L95.3406 7.96023C95.5299 7.29735 95.8424 6.74337 96.2781 6.2983C96.7137 5.84848 97.2463 5.51231 97.8761 5.28977C98.5058 5.0625 99.2018 4.94886 99.9641 4.94886C100.49 4.94886 101.013 5.01042 101.534 5.13352C102.055 5.25663 102.53 5.46023 102.961 5.74432C103.392 6.02367 103.738 6.40483 103.998 6.88778C104.263 7.37074 104.396 7.97443 104.396 8.69886V16H101.924V14.5014H101.839C101.683 14.8045 101.463 15.0885 101.179 15.3537C100.899 15.6141 100.547 15.8248 100.12 15.9858C99.699 16.142 99.2042 16.2202 98.636 16.2202ZM99.3036 14.331C99.8197 14.331 100.267 14.2292 100.646 14.0256C101.025 13.8172 101.316 13.5426 101.52 13.2017C101.728 12.8608 101.832 12.4891 101.832 12.0866V10.8011C101.752 10.8674 101.614 10.929 101.42 10.9858C101.231 11.0426 101.018 11.0923 100.781 11.1349C100.544 11.1776 100.31 11.2154 100.078 11.2486C99.8458 11.2817 99.6445 11.3101 99.4741 11.3338C99.0906 11.3859 98.7473 11.4711 98.4442 11.5895C98.1412 11.7079 97.9021 11.8736 97.7269 12.0866C97.5517 12.295 97.4641 12.5649 97.4641 12.8963C97.4641 13.3698 97.637 13.7273 97.9826 13.9688C98.3282 14.2102 98.7686 14.331 99.3036 14.331Z" fill="black"/>
</svg>
