<svg width="163" height="34" viewBox="0 0 163 34" fill="none" xmlns="http://www.w3.org/2000/svg">
<path d="M13.8849 14.3622H11.2287C11.1529 13.9266 11.0133 13.5407 10.8097 13.2045C10.6061 12.8636 10.3527 12.5748 10.0497 12.3381C9.74669 12.1013 9.40104 11.9238 9.01278 11.8054C8.62926 11.6823 8.21496 11.6207 7.76989 11.6207C6.97917 11.6207 6.27841 11.8196 5.66761 12.2173C5.05682 12.6103 4.5786 13.188 4.23295 13.9503C3.88731 14.7079 3.71449 15.6335 3.71449 16.7273C3.71449 17.84 3.88731 18.7775 4.23295 19.5398C4.58333 20.2973 5.06155 20.8703 5.66761 21.2585C6.27841 21.642 6.9768 21.8338 7.76278 21.8338C8.19839 21.8338 8.60559 21.777 8.98438 21.6634C9.3679 21.545 9.71117 21.3722 10.0142 21.1449C10.322 20.9176 10.58 20.6383 10.7884 20.3068C11.0014 19.9754 11.1482 19.5966 11.2287 19.1705L13.8849 19.1847C13.7855 19.8759 13.5701 20.5246 13.2386 21.1307C12.9119 21.7367 12.4834 22.2718 11.9531 22.7358C11.4228 23.1951 10.8026 23.5549 10.0923 23.8153C9.3821 24.071 8.59375 24.1989 7.72727 24.1989C6.44886 24.1989 5.30777 23.9029 4.30398 23.3111C3.30019 22.7192 2.50947 21.8646 1.93182 20.7472C1.35417 19.6297 1.06534 18.2898 1.06534 16.7273C1.06534 15.16 1.35653 13.8201 1.93892 12.7074C2.52131 11.59 3.31439 10.7353 4.31818 10.1435C5.32197 9.55161 6.45833 9.25568 7.72727 9.25568C8.53693 9.25568 9.28977 9.36932 9.9858 9.59659C10.6818 9.82386 11.3021 10.1577 11.8466 10.598C12.3911 11.0336 12.8385 11.5687 13.1889 12.2031C13.544 12.8329 13.776 13.5526 13.8849 14.3622ZM18.7553 9.45455V24H16.1843V9.45455H18.7553ZM26.1577 24.2131C25.0923 24.2131 24.169 23.9787 23.3878 23.5099C22.6065 23.0412 22.0005 22.3854 21.5696 21.5426C21.1435 20.6998 20.9304 19.715 20.9304 18.5881C20.9304 17.4612 21.1435 16.474 21.5696 15.6264C22.0005 14.7789 22.6065 14.1207 23.3878 13.652C24.169 13.1832 25.0923 12.9489 26.1577 12.9489C27.223 12.9489 28.1463 13.1832 28.9276 13.652C29.7088 14.1207 30.3125 14.7789 30.7386 15.6264C31.1695 16.474 31.3849 17.4612 31.3849 18.5881C31.3849 19.715 31.1695 20.6998 30.7386 21.5426C30.3125 22.3854 29.7088 23.0412 28.9276 23.5099C28.1463 23.9787 27.223 24.2131 26.1577 24.2131ZM26.1719 22.1534C26.7495 22.1534 27.2325 21.9948 27.6207 21.6776C28.009 21.3556 28.2978 20.9247 28.4872 20.3849C28.6813 19.8452 28.7784 19.2438 28.7784 18.581C28.7784 17.9134 28.6813 17.3097 28.4872 16.7699C28.2978 16.2254 28.009 15.7921 27.6207 15.4702C27.2325 15.1482 26.7495 14.9872 26.1719 14.9872C25.58 14.9872 25.0876 15.1482 24.6946 15.4702C24.3063 15.7921 24.0152 16.2254 23.821 16.7699C23.6316 17.3097 23.5369 17.9134 23.5369 18.581C23.5369 19.2438 23.6316 19.8452 23.821 20.3849C24.0152 20.9247 24.3063 21.3556 24.6946 21.6776C25.0876 21.9948 25.58 22.1534 26.1719 22.1534ZM36.1381 17.608V24H33.5671V13.0909H36.0245V14.9446H36.1523C36.4033 14.3338 36.8034 13.8485 37.3526 13.4886C37.9066 13.1288 38.5908 12.9489 39.4052 12.9489C40.158 12.9489 40.8138 13.1098 41.3725 13.4318C41.936 13.7538 42.3716 14.2202 42.6793 14.831C42.9918 15.4418 43.1457 16.1828 43.141 17.054V24H40.57V17.4517C40.57 16.7225 40.3806 16.152 40.0018 15.7401C39.6277 15.3281 39.1093 15.1222 38.4464 15.1222C37.9966 15.1222 37.5965 15.2216 37.2461 15.4205C36.9004 15.6146 36.6282 15.8963 36.4293 16.2656C36.2352 16.6349 36.1381 17.0824 36.1381 17.608ZM50.5842 24.2131C49.4904 24.2131 48.5458 23.9858 47.7504 23.5312C46.9596 23.072 46.3512 22.4233 45.9251 21.5852C45.4989 20.7424 45.2859 19.7505 45.2859 18.6094C45.2859 17.4872 45.4989 16.5024 45.9251 15.6548C46.3559 14.8026 46.9573 14.1397 47.729 13.6662C48.5008 13.188 49.4076 12.9489 50.4492 12.9489C51.1216 12.9489 51.756 13.0578 52.3526 13.2756C52.954 13.4886 53.4843 13.8201 53.9435 14.2699C54.4076 14.7197 54.7721 15.2926 55.0373 15.9886C55.3024 16.6799 55.435 17.5038 55.435 18.4602V19.2486H46.4933V17.5156H52.9705C52.9658 17.0232 52.8593 16.5852 52.6509 16.2017C52.4426 15.8134 52.1514 15.508 51.7773 15.2855C51.408 15.063 50.9772 14.9517 50.4847 14.9517C49.9592 14.9517 49.4975 15.0795 49.0998 15.3352C48.7021 15.5862 48.3919 15.9176 48.1694 16.3295C47.9516 16.7367 47.8403 17.1842 47.8356 17.6719V19.1847C47.8356 19.8191 47.9516 20.3636 48.1836 20.8182C48.4156 21.268 48.7399 21.6136 49.1566 21.8551C49.5733 22.0919 50.061 22.2102 50.6197 22.2102C50.9937 22.2102 51.3323 22.1581 51.6353 22.054C51.9383 21.9451 52.2011 21.7865 52.4237 21.5781C52.6462 21.3698 52.8143 21.1117 52.9279 20.804L55.3285 21.0739C55.177 21.7083 54.8881 22.2623 54.462 22.7358C54.0406 23.2045 53.5008 23.5691 52.8427 23.8295C52.1845 24.0852 51.4317 24.2131 50.5842 24.2131ZM62.0455 11.6634V9.45455H73.6506V11.6634H69.1548V24H66.5412V11.6634H62.0455ZM79.0217 24.2131C77.9279 24.2131 76.9833 23.9858 76.1879 23.5312C75.3971 23.072 74.7887 22.4233 74.3626 21.5852C73.9364 20.7424 73.7234 19.7505 73.7234 18.6094C73.7234 17.4872 73.9364 16.5024 74.3626 15.6548C74.7934 14.8026 75.3948 14.1397 76.1665 13.6662C76.9383 13.188 77.8451 12.9489 78.8867 12.9489C79.5591 12.9489 80.1935 13.0578 80.7901 13.2756C81.3915 13.4886 81.9218 13.8201 82.381 14.2699C82.8451 14.7197 83.2096 15.2926 83.4748 15.9886C83.7399 16.6799 83.8725 17.5038 83.8725 18.4602V19.2486H74.9308V17.5156H81.408C81.4033 17.0232 81.2968 16.5852 81.0884 16.2017C80.8801 15.8134 80.5889 15.508 80.2148 15.2855C79.8455 15.063 79.4147 14.9517 78.9222 14.9517C78.3967 14.9517 77.935 15.0795 77.5373 15.3352C77.1396 15.5862 76.8294 15.9176 76.6069 16.3295C76.3891 16.7367 76.2778 17.1842 76.2731 17.6719V19.1847C76.2731 19.8191 76.3891 20.3636 76.6211 20.8182C76.8531 21.268 77.1774 21.6136 77.5941 21.8551C78.0108 22.0919 78.4985 22.2102 79.0572 22.2102C79.4312 22.2102 79.7698 22.1581 80.0728 22.054C80.3758 21.9451 80.6386 21.7865 80.8612 21.5781C81.0837 21.3698 81.2518 21.1117 81.3654 20.804L83.766 21.0739C83.6145 21.7083 83.3256 22.2623 82.8995 22.7358C82.4781 23.2045 81.9383 23.5691 81.2802 23.8295C80.622 24.0852 79.8692 24.2131 79.0217 24.2131ZM94.6697 15.9744L92.326 16.2301C92.2597 15.9934 92.1437 15.7708 91.978 15.5625C91.817 15.3542 91.5992 15.1861 91.3246 15.0582C91.05 14.9304 90.7138 14.8665 90.3161 14.8665C89.781 14.8665 89.3312 14.9825 88.9666 15.2145C88.6068 15.4465 88.4292 15.7472 88.4339 16.1165C88.4292 16.4337 88.5452 16.6918 88.782 16.8906C89.0234 17.0895 89.4212 17.2528 89.9751 17.3807L91.8359 17.7784C92.8681 18.0009 93.6352 18.3537 94.1371 18.8366C94.6437 19.3196 94.8994 19.9517 94.9041 20.733C94.8994 21.4195 94.6982 22.0256 94.3004 22.5511C93.9074 23.072 93.3606 23.4792 92.6598 23.7727C91.959 24.0663 91.1541 24.2131 90.245 24.2131C88.9098 24.2131 87.835 23.9337 87.0206 23.375C86.2062 22.8116 85.7209 22.0279 85.5646 21.0241L88.0717 20.7827C88.1854 21.2751 88.4268 21.6468 88.7962 21.8977C89.1655 22.1487 89.6461 22.2741 90.2379 22.2741C90.8487 22.2741 91.3388 22.1487 91.7081 21.8977C92.0821 21.6468 92.2692 21.3366 92.2692 20.9673C92.2692 20.6548 92.1484 20.3968 91.907 20.1932C91.6702 19.9896 91.3009 19.8333 90.799 19.7244L88.9382 19.3338C87.8918 19.116 87.1177 18.7491 86.6158 18.233C86.1139 17.7121 85.8653 17.054 85.87 16.2585C85.8653 15.5862 86.0476 15.0038 86.4169 14.5114C86.791 14.0142 87.3094 13.6307 87.9723 13.3608C88.6399 13.0862 89.4093 12.9489 90.2805 12.9489C91.5589 12.9489 92.5651 13.2211 93.299 13.7656C94.0376 14.3101 94.4946 15.0464 94.6697 15.9744ZM99.5952 9.45455V24H97.0241V9.45455H99.5952ZM105.378 24.2202C104.687 24.2202 104.064 24.0971 103.51 23.8509C102.961 23.5999 102.525 23.2306 102.203 22.7429C101.886 22.2552 101.728 21.6539 101.728 20.9389C101.728 20.3234 101.841 19.8144 102.069 19.4119C102.296 19.0095 102.606 18.6875 102.999 18.446C103.392 18.2045 103.835 18.0223 104.327 17.8991C104.824 17.7713 105.338 17.679 105.868 17.6222C106.507 17.5559 107.026 17.4967 107.424 17.4446C107.821 17.3878 108.11 17.3026 108.29 17.1889C108.475 17.0705 108.567 16.8883 108.567 16.642V16.5994C108.567 16.0644 108.408 15.6501 108.091 15.3565C107.774 15.063 107.317 14.9162 106.721 14.9162C106.091 14.9162 105.591 15.0535 105.222 15.3281C104.857 15.6027 104.611 15.9271 104.483 16.3011L102.083 15.9602C102.272 15.2973 102.585 14.7434 103.02 14.2983C103.456 13.8485 103.989 13.5123 104.618 13.2898C105.248 13.0625 105.944 12.9489 106.706 12.9489C107.232 12.9489 107.755 13.0104 108.276 13.1335C108.797 13.2566 109.273 13.4602 109.703 13.7443C110.134 14.0237 110.48 14.4048 110.74 14.8878C111.006 15.3707 111.138 15.9744 111.138 16.6989V24H108.667V22.5014H108.581C108.425 22.8045 108.205 23.0885 107.921 23.3537C107.641 23.6141 107.289 23.8248 106.863 23.9858C106.441 24.142 105.946 24.2202 105.378 24.2202ZM106.046 22.331C106.562 22.331 107.009 22.2292 107.388 22.0256C107.767 21.8172 108.058 21.5426 108.262 21.2017C108.47 20.8608 108.574 20.4891 108.574 20.0866V18.8011C108.494 18.8674 108.356 18.929 108.162 18.9858C107.973 19.0426 107.76 19.0923 107.523 19.1349C107.286 19.1776 107.052 19.2154 106.82 19.2486C106.588 19.2817 106.387 19.3101 106.216 19.3338C105.833 19.3859 105.489 19.4711 105.186 19.5895C104.883 19.7079 104.644 19.8736 104.469 20.0866C104.294 20.295 104.206 20.5649 104.206 20.8963C104.206 21.3698 104.379 21.7273 104.725 21.9688C105.07 22.2102 105.511 22.331 106.046 22.331ZM131.248 14.3622H128.592C128.516 13.9266 128.377 13.5407 128.173 13.2045C127.969 12.8636 127.716 12.5748 127.413 12.3381C127.11 12.1013 126.764 11.9238 126.376 11.8054C125.993 11.6823 125.578 11.6207 125.133 11.6207C124.342 11.6207 123.642 11.8196 123.031 12.2173C122.42 12.6103 121.942 13.188 121.596 13.9503C121.251 14.7079 121.078 15.6335 121.078 16.7273C121.078 17.84 121.251 18.7775 121.596 19.5398C121.947 20.2973 122.425 20.8703 123.031 21.2585C123.642 21.642 124.34 21.8338 125.126 21.8338C125.562 21.8338 125.969 21.777 126.348 21.6634C126.731 21.545 127.074 21.3722 127.377 21.1449C127.685 20.9176 127.943 20.6383 128.152 20.3068C128.365 19.9754 128.511 19.5966 128.592 19.1705L131.248 19.1847C131.149 19.8759 130.933 20.5246 130.602 21.1307C130.275 21.7367 129.847 22.2718 129.316 22.7358C128.786 23.1951 128.166 23.5549 127.456 23.8153C126.745 24.071 125.957 24.1989 125.091 24.1989C123.812 24.1989 122.671 23.9029 121.667 23.3111C120.663 22.7192 119.873 21.8646 119.295 20.7472C118.717 19.6297 118.429 18.2898 118.429 16.7273C118.429 15.16 118.72 13.8201 119.302 12.7074C119.885 11.59 120.678 10.7353 121.681 10.1435C122.685 9.55161 123.822 9.25568 125.091 9.25568C125.9 9.25568 126.653 9.36932 127.349 9.59659C128.045 9.82386 128.665 10.1577 129.21 10.598C129.754 11.0336 130.202 11.5687 130.552 12.2031C130.907 12.8329 131.139 13.5526 131.248 14.3622ZM136.687 24.2202C135.996 24.2202 135.373 24.0971 134.819 23.8509C134.27 23.5999 133.834 23.2306 133.512 22.7429C133.195 22.2552 133.036 21.6539 133.036 20.9389C133.036 20.3234 133.15 19.8144 133.377 19.4119C133.604 19.0095 133.915 18.6875 134.308 18.446C134.701 18.2045 135.143 18.0223 135.636 17.8991C136.133 17.7713 136.647 17.679 137.177 17.6222C137.816 17.5559 138.335 17.4967 138.732 17.4446C139.13 17.3878 139.419 17.3026 139.599 17.1889C139.783 17.0705 139.876 16.8883 139.876 16.642V16.5994C139.876 16.0644 139.717 15.6501 139.4 15.3565C139.083 15.063 138.626 14.9162 138.029 14.9162C137.399 14.9162 136.9 15.0535 136.531 15.3281C136.166 15.6027 135.92 15.9271 135.792 16.3011L133.391 15.9602C133.581 15.2973 133.893 14.7434 134.329 14.2983C134.764 13.8485 135.297 13.5123 135.927 13.2898C136.557 13.0625 137.253 12.9489 138.015 12.9489C138.54 12.9489 139.064 13.0104 139.585 13.1335C140.105 13.2566 140.581 13.4602 141.012 13.7443C141.443 14.0237 141.789 14.4048 142.049 14.8878C142.314 15.3707 142.447 15.9744 142.447 16.6989V24H139.975V22.5014H139.89C139.734 22.8045 139.513 23.0885 139.229 23.3537C138.95 23.6141 138.597 23.8248 138.171 23.9858C137.75 24.142 137.255 24.2202 136.687 24.2202ZM137.354 22.331C137.871 22.331 138.318 22.2292 138.697 22.0256C139.076 21.8172 139.367 21.5426 139.57 21.2017C139.779 20.8608 139.883 20.4891 139.883 20.0866V18.8011C139.802 18.8674 139.665 18.929 139.471 18.9858C139.281 19.0426 139.068 19.0923 138.832 19.1349C138.595 19.1776 138.361 19.2154 138.129 19.2486C137.897 19.2817 137.695 19.3101 137.525 19.3338C137.141 19.3859 136.798 19.4711 136.495 19.5895C136.192 19.7079 135.953 19.8736 135.778 20.0866C135.603 20.295 135.515 20.5649 135.515 20.8963C135.515 21.3698 135.688 21.7273 136.033 21.9688C136.379 22.2102 136.819 22.331 137.354 22.331ZM145.032 24V13.0909H147.525V14.9091H147.638C147.837 14.2794 148.178 13.794 148.661 13.4531C149.149 13.1075 149.705 12.9347 150.33 12.9347C150.472 12.9347 150.631 12.9418 150.806 12.956C150.986 12.9654 151.135 12.982 151.254 13.0057V15.3707C151.145 15.3329 150.972 15.2997 150.735 15.2713C150.503 15.2382 150.278 15.2216 150.06 15.2216C149.592 15.2216 149.17 15.3234 148.796 15.527C148.427 15.7259 148.136 16.0028 147.923 16.358C147.71 16.7131 147.603 17.1226 147.603 17.5866V24H145.032ZM161.584 15.9744L159.24 16.2301C159.174 15.9934 159.058 15.7708 158.892 15.5625C158.731 15.3542 158.513 15.1861 158.239 15.0582C157.964 14.9304 157.628 14.8665 157.23 14.8665C156.695 14.8665 156.245 14.9825 155.881 15.2145C155.521 15.4465 155.343 15.7472 155.348 16.1165C155.343 16.4337 155.459 16.6918 155.696 16.8906C155.938 17.0895 156.335 17.2528 156.889 17.3807L158.75 17.7784C159.782 18.0009 160.549 18.3537 161.051 18.8366C161.558 19.3196 161.813 19.9517 161.818 20.733C161.813 21.4195 161.612 22.0256 161.214 22.5511C160.821 23.072 160.275 23.4792 159.574 23.7727C158.873 24.0663 158.068 24.2131 157.159 24.2131C155.824 24.2131 154.749 23.9337 153.935 23.375C153.12 22.8116 152.635 22.0279 152.479 21.0241L154.986 20.7827C155.099 21.2751 155.341 21.6468 155.71 21.8977C156.08 22.1487 156.56 22.2741 157.152 22.2741C157.763 22.2741 158.253 22.1487 158.622 21.8977C158.996 21.6468 159.183 21.3366 159.183 20.9673C159.183 20.6548 159.063 20.3968 158.821 20.1932C158.584 19.9896 158.215 19.8333 157.713 19.7244L155.852 19.3338C154.806 19.116 154.032 18.7491 153.53 18.233C153.028 17.7121 152.779 17.054 152.784 16.2585C152.779 15.5862 152.962 15.0038 153.331 14.5114C153.705 14.0142 154.223 13.6307 154.886 13.3608C155.554 13.0862 156.323 12.9489 157.195 12.9489C158.473 12.9489 159.479 13.2211 160.213 13.7656C160.952 14.3101 161.409 15.0464 161.584 15.9744Z" fill="black"/>
</svg>
