<svg width="107" height="34" viewBox="0 0 107 34" fill="none" xmlns="http://www.w3.org/2000/svg">
<path d="M13.8849 14.3622H11.2287C11.1529 13.9266 11.0133 13.5407 10.8097 13.2045C10.6061 12.8636 10.3527 12.5748 10.0497 12.3381C9.74669 12.1013 9.40104 11.9238 9.01278 11.8054C8.62926 11.6823 8.21496 11.6207 7.76989 11.6207C6.97917 11.6207 6.27841 11.8196 5.66761 12.2173C5.05682 12.6103 4.5786 13.188 4.23295 13.9503C3.88731 14.7079 3.71449 15.6335 3.71449 16.7273C3.71449 17.84 3.88731 18.7775 4.23295 19.5398C4.58333 20.2973 5.06155 20.8703 5.66761 21.2585C6.27841 21.642 6.9768 21.8338 7.76278 21.8338C8.19839 21.8338 8.60559 21.777 8.98438 21.6634C9.3679 21.545 9.71117 21.3722 10.0142 21.1449C10.322 20.9176 10.58 20.6383 10.7884 20.3068C11.0014 19.9754 11.1482 19.5966 11.2287 19.1705L13.8849 19.1847C13.7855 19.8759 13.5701 20.5246 13.2386 21.1307C12.9119 21.7367 12.4834 22.2718 11.9531 22.7358C11.4228 23.1951 10.8026 23.5549 10.0923 23.8153C9.3821 24.071 8.59375 24.1989 7.72727 24.1989C6.44886 24.1989 5.30777 23.9029 4.30398 23.3111C3.30019 22.7192 2.50947 21.8646 1.93182 20.7472C1.35417 19.6297 1.06534 18.2898 1.06534 16.7273C1.06534 15.16 1.35653 13.8201 1.93892 12.7074C2.52131 11.59 3.31439 10.7353 4.31818 10.1435C5.32197 9.55161 6.45833 9.25568 7.72727 9.25568C8.53693 9.25568 9.28977 9.36932 9.9858 9.59659C10.6818 9.82386 11.3021 10.1577 11.8466 10.598C12.3911 11.0336 12.8385 11.5687 13.1889 12.2031C13.544 12.8329 13.776 13.5526 13.8849 14.3622ZM18.7553 9.45455V24H16.1843V9.45455H18.7553ZM26.1577 24.2131C25.0923 24.2131 24.169 23.9787 23.3878 23.5099C22.6065 23.0412 22.0005 22.3854 21.5696 21.5426C21.1435 20.6998 20.9304 19.715 20.9304 18.5881C20.9304 17.4612 21.1435 16.474 21.5696 15.6264C22.0005 14.7789 22.6065 14.1207 23.3878 13.652C24.169 13.1832 25.0923 12.9489 26.1577 12.9489C27.223 12.9489 28.1463 13.1832 28.9276 13.652C29.7088 14.1207 30.3125 14.7789 30.7386 15.6264C31.1695 16.474 31.3849 17.4612 31.3849 18.5881C31.3849 19.715 31.1695 20.6998 30.7386 21.5426C30.3125 22.3854 29.7088 23.0412 28.9276 23.5099C28.1463 23.9787 27.223 24.2131 26.1577 24.2131ZM26.1719 22.1534C26.7495 22.1534 27.2325 21.9948 27.6207 21.6776C28.009 21.3556 28.2978 20.9247 28.4872 20.3849C28.6813 19.8452 28.7784 19.2438 28.7784 18.581C28.7784 17.9134 28.6813 17.3097 28.4872 16.7699C28.2978 16.2254 28.009 15.7921 27.6207 15.4702C27.2325 15.1482 26.7495 14.9872 26.1719 14.9872C25.58 14.9872 25.0876 15.1482 24.6946 15.4702C24.3063 15.7921 24.0152 16.2254 23.821 16.7699C23.6316 17.3097 23.5369 17.9134 23.5369 18.581C23.5369 19.2438 23.6316 19.8452 23.821 20.3849C24.0152 20.9247 24.3063 21.3556 24.6946 21.6776C25.0876 21.9948 25.58 22.1534 26.1719 22.1534ZM36.1381 17.608V24H33.5671V13.0909H36.0245V14.9446H36.1523C36.4033 14.3338 36.8034 13.8485 37.3526 13.4886C37.9066 13.1288 38.5908 12.9489 39.4052 12.9489C40.158 12.9489 40.8138 13.1098 41.3725 13.4318C41.936 13.7538 42.3716 14.2202 42.6793 14.831C42.9918 15.4418 43.1457 16.1828 43.141 17.054V24H40.57V17.4517C40.57 16.7225 40.3806 16.152 40.0018 15.7401C39.6277 15.3281 39.1093 15.1222 38.4464 15.1222C37.9966 15.1222 37.5965 15.2216 37.2461 15.4205C36.9004 15.6146 36.6282 15.8963 36.4293 16.2656C36.2352 16.6349 36.1381 17.0824 36.1381 17.608ZM50.5842 24.2131C49.4904 24.2131 48.5458 23.9858 47.7504 23.5312C46.9596 23.072 46.3512 22.4233 45.9251 21.5852C45.4989 20.7424 45.2859 19.7505 45.2859 18.6094C45.2859 17.4872 45.4989 16.5024 45.9251 15.6548C46.3559 14.8026 46.9573 14.1397 47.729 13.6662C48.5008 13.188 49.4076 12.9489 50.4492 12.9489C51.1216 12.9489 51.756 13.0578 52.3526 13.2756C52.954 13.4886 53.4843 13.8201 53.9435 14.2699C54.4076 14.7197 54.7721 15.2926 55.0373 15.9886C55.3024 16.6799 55.435 17.5038 55.435 18.4602V19.2486H46.4933V17.5156H52.9705C52.9658 17.0232 52.8593 16.5852 52.6509 16.2017C52.4426 15.8134 52.1514 15.508 51.7773 15.2855C51.408 15.063 50.9772 14.9517 50.4847 14.9517C49.9592 14.9517 49.4975 15.0795 49.0998 15.3352C48.7021 15.5862 48.3919 15.9176 48.1694 16.3295C47.9516 16.7367 47.8403 17.1842 47.8356 17.6719V19.1847C47.8356 19.8191 47.9516 20.3636 48.1836 20.8182C48.4156 21.268 48.7399 21.6136 49.1566 21.8551C49.5733 22.0919 50.061 22.2102 50.6197 22.2102C50.9937 22.2102 51.3323 22.1581 51.6353 22.054C51.9383 21.9451 52.2011 21.7865 52.4237 21.5781C52.6462 21.3698 52.8143 21.1117 52.9279 20.804L55.3285 21.0739C55.177 21.7083 54.8881 22.2623 54.462 22.7358C54.0406 23.2045 53.5008 23.5691 52.8427 23.8295C52.1845 24.0852 51.4317 24.2131 50.5842 24.2131ZM62.6847 24V9.45455H65.3196V21.7912H71.7259V24H62.6847ZM78.6577 24.2131C77.5923 24.2131 76.669 23.9787 75.8878 23.5099C75.1065 23.0412 74.5005 22.3854 74.0696 21.5426C73.6435 20.6998 73.4304 19.715 73.4304 18.5881C73.4304 17.4612 73.6435 16.474 74.0696 15.6264C74.5005 14.7789 75.1065 14.1207 75.8878 13.652C76.669 13.1832 77.5923 12.9489 78.6577 12.9489C79.723 12.9489 80.6463 13.1832 81.4276 13.652C82.2088 14.1207 82.8125 14.7789 83.2386 15.6264C83.6695 16.474 83.8849 17.4612 83.8849 18.5881C83.8849 19.715 83.6695 20.6998 83.2386 21.5426C82.8125 22.3854 82.2088 23.0412 81.4276 23.5099C80.6463 23.9787 79.723 24.2131 78.6577 24.2131ZM78.6719 22.1534C79.2495 22.1534 79.7325 21.9948 80.1207 21.6776C80.509 21.3556 80.7978 20.9247 80.9872 20.3849C81.1813 19.8452 81.2784 19.2438 81.2784 18.581C81.2784 17.9134 81.1813 17.3097 80.9872 16.7699C80.7978 16.2254 80.509 15.7921 80.1207 15.4702C79.7325 15.1482 79.2495 14.9872 78.6719 14.9872C78.08 14.9872 77.5876 15.1482 77.1946 15.4702C76.8063 15.7921 76.5152 16.2254 76.321 16.7699C76.1316 17.3097 76.0369 17.9134 76.0369 18.581C76.0369 19.2438 76.1316 19.8452 76.321 20.3849C76.5152 20.9247 76.8063 21.3556 77.1946 21.6776C77.5876 21.9948 78.08 22.1534 78.6719 22.1534ZM88.6381 9.45455V24H86.0671V9.45455H88.6381ZM91.282 13.0909H93.853V24.625C93.853 25.411 93.7038 26.0597 93.4055 26.571C93.1072 27.0824 92.6764 27.4635 92.1129 27.7145C91.5495 27.9654 90.8653 28.0909 90.0604 28.0909C89.9657 28.0909 89.8781 28.0885 89.7976 28.0838C89.7171 28.0838 89.6295 28.0814 89.5348 28.0767V25.9815C89.6058 25.9863 89.6697 25.9886 89.7266 25.9886C89.7834 25.9934 89.8426 25.9957 89.9041 25.9957C90.3965 25.9957 90.7493 25.875 90.9624 25.6335C91.1754 25.3968 91.282 25.0488 91.282 24.5895V13.0909ZM92.5604 11.5426C92.1484 11.5426 91.7957 11.4077 91.5021 11.1378C91.2133 10.8632 91.0689 10.5341 91.0689 10.1506C91.0689 9.76231 91.2133 9.43324 91.5021 9.16335C91.7957 8.88873 92.1484 8.75142 92.5604 8.75142C92.9676 8.75142 93.3156 8.88873 93.6044 9.16335C93.898 9.43324 94.0447 9.76231 94.0447 10.1506C94.0447 10.5341 93.898 10.8632 93.6044 11.1378C93.3156 11.4077 92.9676 11.5426 92.5604 11.5426ZM99.636 24.2202C98.9447 24.2202 98.3221 24.0971 97.7681 23.8509C97.2189 23.5999 96.7833 23.2306 96.4613 22.7429C96.1441 22.2552 95.9854 21.6539 95.9854 20.9389C95.9854 20.3234 96.0991 19.8144 96.3263 19.4119C96.5536 19.0095 96.8638 18.6875 97.2567 18.446C97.6497 18.2045 98.0924 18.0223 98.5849 17.8991C99.082 17.7713 99.5958 17.679 100.126 17.6222C100.765 17.5559 101.284 17.4967 101.681 17.4446C102.079 17.3878 102.368 17.3026 102.548 17.1889C102.733 17.0705 102.825 16.8883 102.825 16.642V16.5994C102.825 16.0644 102.666 15.6501 102.349 15.3565C102.032 15.063 101.575 14.9162 100.978 14.9162C100.349 14.9162 99.8491 15.0535 99.4798 15.3281C99.1152 15.6027 98.869 15.9271 98.7411 16.3011L96.3406 15.9602C96.5299 15.2973 96.8424 14.7434 97.2781 14.2983C97.7137 13.8485 98.2463 13.5123 98.8761 13.2898C99.5058 13.0625 100.202 12.9489 100.964 12.9489C101.49 12.9489 102.013 13.0104 102.534 13.1335C103.055 13.2566 103.53 13.4602 103.961 13.7443C104.392 14.0237 104.738 14.4048 104.998 14.8878C105.263 15.3707 105.396 15.9744 105.396 16.6989V24H102.924V22.5014H102.839C102.683 22.8045 102.463 23.0885 102.179 23.3537C101.899 23.6141 101.547 23.8248 101.12 23.9858C100.699 24.142 100.204 24.2202 99.636 24.2202ZM100.304 22.331C100.82 22.331 101.267 22.2292 101.646 22.0256C102.025 21.8172 102.316 21.5426 102.52 21.2017C102.728 20.8608 102.832 20.4891 102.832 20.0866V18.8011C102.752 18.8674 102.614 18.929 102.42 18.9858C102.231 19.0426 102.018 19.0923 101.781 19.1349C101.544 19.1776 101.31 19.2154 101.078 19.2486C100.846 19.2817 100.645 19.3101 100.474 19.3338C100.091 19.3859 99.7473 19.4711 99.4442 19.5895C99.1412 19.7079 98.9021 19.8736 98.7269 20.0866C98.5517 20.295 98.4641 20.5649 98.4641 20.8963C98.4641 21.3698 98.637 21.7273 98.9826 21.9688C99.3282 22.2102 99.7686 22.331 100.304 22.331Z" fill="black"/>
</svg>
