<svg width="260" height="20" viewBox="0 0 260 20" fill="none" xmlns="http://www.w3.org/2000/svg">
<path d="M0.434659 15V0.454545H3.0696V12.7912H9.47585V15H0.434659ZM14.7884 15.2202C14.0971 15.2202 13.4744 15.0971 12.9205 14.8509C12.3712 14.5999 11.9356 14.2306 11.6136 13.7429C11.2964 13.2552 11.1378 12.6539 11.1378 11.9389C11.1378 11.3234 11.2514 10.8144 11.4787 10.4119C11.706 10.0095 12.0161 9.6875 12.4091 9.44602C12.8021 9.20455 13.2448 9.02225 13.7372 8.89915C14.2344 8.77131 14.7481 8.67898 15.2784 8.62216C15.9176 8.55587 16.4361 8.49669 16.8338 8.4446C17.2315 8.38778 17.5204 8.30256 17.7003 8.18892C17.8849 8.07055 17.9773 7.88826 17.9773 7.64205V7.59943C17.9773 7.06439 17.8187 6.65009 17.5014 6.35653C17.1842 6.06297 16.7273 5.91619 16.1307 5.91619C15.5009 5.91619 15.0014 6.0535 14.6321 6.32812C14.2675 6.60275 14.0213 6.92708 13.8935 7.30114L11.4929 6.96023C11.6823 6.29735 11.9948 5.74337 12.4304 5.2983C12.866 4.84848 13.3987 4.51231 14.0284 4.28977C14.6581 4.0625 15.3542 3.94886 16.1165 3.94886C16.642 3.94886 17.1652 4.01042 17.6861 4.13352C18.2069 4.25663 18.6828 4.46023 19.1136 4.74432C19.5445 5.02367 19.8902 5.40483 20.1506 5.88778C20.4157 6.37074 20.5483 6.97443 20.5483 7.69886V15H18.0767V13.5014H17.9915C17.8352 13.8045 17.6151 14.0885 17.331 14.3537C17.0516 14.6141 16.6989 14.8248 16.2727 14.9858C15.8513 15.142 15.3565 15.2202 14.7884 15.2202ZM15.456 13.331C15.9721 13.331 16.4195 13.2292 16.7983 13.0256C17.1771 12.8172 17.4683 12.5426 17.6719 12.2017C17.8802 11.8608 17.9844 11.4891 17.9844 11.0866V9.80114C17.9039 9.86742 17.7666 9.92898 17.5724 9.9858C17.383 10.0426 17.17 10.0923 16.9332 10.1349C16.6965 10.1776 16.4621 10.2154 16.2301 10.2486C15.9981 10.2817 15.7969 10.3101 15.6264 10.3338C15.2429 10.3859 14.8996 10.4711 14.5966 10.5895C14.2936 10.7079 14.0545 10.8736 13.8793 11.0866C13.7041 11.295 13.6165 11.5649 13.6165 11.8963C13.6165 12.3698 13.7893 12.7273 14.1349 12.9688C14.4806 13.2102 14.9209 13.331 15.456 13.331ZM24.3409 19.0909C23.9905 19.0909 23.6662 19.0625 23.3679 19.0057C23.0743 18.9536 22.84 18.892 22.6648 18.821L23.2614 16.8182C23.6354 16.9271 23.9692 16.9792 24.2628 16.9744C24.5563 16.9697 24.8144 16.8774 25.0369 16.6974C25.2642 16.5223 25.456 16.2287 25.6122 15.8168L25.8324 15.2273L21.8764 4.09091H24.6037L27.1179 12.3295H27.2315L29.7528 4.09091H32.4872L28.1193 16.321C27.9157 16.8987 27.6458 17.3935 27.3097 17.8054C26.9735 18.2221 26.5616 18.5393 26.0739 18.7571C25.5909 18.9796 25.0133 19.0909 24.3409 19.0909ZM38.6538 15.2131C37.5884 15.2131 36.6651 14.9787 35.8839 14.5099C35.1026 14.0412 34.4966 13.3854 34.0657 12.5426C33.6396 11.6998 33.4265 10.715 33.4265 9.58807C33.4265 8.46117 33.6396 7.47396 34.0657 6.62642C34.4966 5.77888 35.1026 5.12074 35.8839 4.65199C36.6651 4.18324 37.5884 3.94886 38.6538 3.94886C39.7191 3.94886 40.6424 4.18324 41.4237 4.65199C42.2049 5.12074 42.8086 5.77888 43.2347 6.62642C43.6656 7.47396 43.881 8.46117 43.881 9.58807C43.881 10.715 43.6656 11.6998 43.2347 12.5426C42.8086 13.3854 42.2049 14.0412 41.4237 14.5099C40.6424 14.9787 39.7191 15.2131 38.6538 15.2131ZM38.668 13.1534C39.2456 13.1534 39.7286 12.9948 40.1168 12.6776C40.5051 12.3556 40.7939 11.9247 40.9833 11.3849C41.1774 10.8452 41.2745 10.2438 41.2745 9.58097C41.2745 8.91335 41.1774 8.30966 40.9833 7.76989C40.7939 7.22538 40.5051 6.79214 40.1168 6.47017C39.7286 6.1482 39.2456 5.98722 38.668 5.98722C38.0761 5.98722 37.5837 6.1482 37.1907 6.47017C36.8024 6.79214 36.5112 7.22538 36.3171 7.76989C36.1277 8.30966 36.033 8.91335 36.033 9.58097C36.033 10.2438 36.1277 10.8452 36.3171 11.3849C36.5112 11.9247 36.8024 12.3556 37.1907 12.6776C37.5837 12.9948 38.0761 13.1534 38.668 13.1534ZM53.0163 10.4119V4.09091H55.5874V15H53.0945V13.0611H52.9808C52.7346 13.6719 52.3298 14.1714 51.7663 14.5597C51.2076 14.9479 50.5187 15.142 49.6996 15.142C48.9846 15.142 48.3525 14.9834 47.8033 14.6662C47.2588 14.3442 46.8326 13.8778 46.5249 13.267C46.2171 12.6515 46.0632 11.9081 46.0632 11.0369V4.09091H48.6342V10.6392C48.6342 11.3305 48.8236 11.8797 49.2024 12.2869C49.5812 12.6941 50.0784 12.8977 50.6939 12.8977C51.0727 12.8977 51.4396 12.8054 51.7947 12.6207C52.1499 12.4361 52.4411 12.1615 52.6683 11.7969C52.9003 11.4276 53.0163 10.9659 53.0163 10.4119ZM63.6786 4.09091V6.07955H57.4073V4.09091H63.6786ZM58.9556 1.47727H61.5266V11.7188C61.5266 12.0644 61.5787 12.3295 61.6829 12.5142C61.7918 12.6941 61.9338 12.8172 62.109 12.8835C62.2842 12.9498 62.4783 12.983 62.6914 12.983C62.8524 12.983 62.9992 12.9711 63.1317 12.9474C63.2691 12.9238 63.3732 12.9025 63.4442 12.8835L63.8775 14.8935C63.7402 14.9408 63.5437 14.9929 63.288 15.0497C63.0371 15.1065 62.7293 15.1397 62.3647 15.1491C61.7208 15.1681 61.1407 15.071 60.6246 14.858C60.1085 14.6402 59.699 14.304 59.396 13.8494C59.0977 13.3949 58.9509 12.8267 58.9556 12.1449V1.47727ZM74.8381 15.1918C73.9811 15.1918 73.214 14.9716 72.5369 14.5312C71.8598 14.0909 71.3248 13.4517 70.9318 12.6136C70.5388 11.7756 70.3423 10.7576 70.3423 9.55966C70.3423 8.34754 70.5412 7.32481 70.9389 6.49148C71.3414 5.65341 71.8835 5.02131 72.5653 4.59517C73.2472 4.1643 74.0071 3.94886 74.8452 3.94886C75.4844 3.94886 76.0099 4.05777 76.4219 4.27557C76.8338 4.48864 77.1605 4.74669 77.402 5.04972C77.6435 5.34801 77.8305 5.62973 77.9631 5.89489H78.0696V0.454545H80.6477V15H78.1193V13.2812H77.9631C77.8305 13.5464 77.6387 13.8281 77.3878 14.1264C77.1368 14.42 76.8054 14.6709 76.3935 14.8793C75.9815 15.0876 75.4631 15.1918 74.8381 15.1918ZM75.5554 13.0824C76.0999 13.0824 76.5639 12.9356 76.9474 12.642C77.331 12.3437 77.6222 11.9295 77.821 11.3991C78.0199 10.8688 78.1193 10.2509 78.1193 9.54545C78.1193 8.83996 78.0199 8.2268 77.821 7.70597C77.6269 7.18513 77.3381 6.7803 76.9545 6.49148C76.5758 6.20265 76.1094 6.05824 75.5554 6.05824C74.9825 6.05824 74.5043 6.20739 74.1207 6.50568C73.7372 6.80398 73.4484 7.21591 73.2543 7.74148C73.0601 8.26705 72.9631 8.86837 72.9631 9.54545C72.9631 10.2273 73.0601 10.8357 73.2543 11.3707C73.4531 11.901 73.7443 12.3201 74.1278 12.6278C74.5161 12.9309 74.992 13.0824 75.5554 13.0824ZM86.5266 15.2202C85.8353 15.2202 85.2127 15.0971 84.6587 14.8509C84.1095 14.5999 83.6739 14.2306 83.3519 13.7429C83.0347 13.2552 82.8761 12.6539 82.8761 11.9389C82.8761 11.3234 82.9897 10.8144 83.217 10.4119C83.4442 10.0095 83.7544 9.6875 84.1474 9.44602C84.5404 9.20455 84.9831 9.02225 85.4755 8.89915C85.9727 8.77131 86.4864 8.67898 87.0167 8.62216C87.6559 8.55587 88.1744 8.49669 88.5721 8.4446C88.9698 8.38778 89.2586 8.30256 89.4386 8.18892C89.6232 8.07055 89.7156 7.88826 89.7156 7.64205V7.59943C89.7156 7.06439 89.5569 6.65009 89.2397 6.35653C88.9225 6.06297 88.4656 5.91619 87.869 5.91619C87.2392 5.91619 86.7397 6.0535 86.3704 6.32812C86.0058 6.60275 85.7596 6.92708 85.6317 7.30114L83.2312 6.96023C83.4206 6.29735 83.7331 5.74337 84.1687 5.2983C84.6043 4.84848 85.137 4.51231 85.7667 4.28977C86.3964 4.0625 87.0924 3.94886 87.8548 3.94886C88.3803 3.94886 88.9035 4.01042 89.4244 4.13352C89.9452 4.25663 90.421 4.46023 90.8519 4.74432C91.2828 5.02367 91.6284 5.40483 91.8888 5.88778C92.154 6.37074 92.2866 6.97443 92.2866 7.69886V15H89.815V13.5014H89.7298C89.5735 13.8045 89.3533 14.0885 89.0692 14.3537C88.7899 14.6141 88.4371 14.8248 88.011 14.9858C87.5896 15.142 87.0948 15.2202 86.5266 15.2202ZM87.1942 13.331C87.7103 13.331 88.1578 13.2292 88.5366 13.0256C88.9154 12.8172 89.2066 12.5426 89.4102 12.2017C89.6185 11.8608 89.7227 11.4891 89.7227 11.0866V9.80114C89.6422 9.86742 89.5049 9.92898 89.3107 9.9858C89.1213 10.0426 88.9083 10.0923 88.6715 10.1349C88.4348 10.1776 88.2004 10.2154 87.9684 10.2486C87.7364 10.2817 87.5352 10.3101 87.3647 10.3338C86.9812 10.3859 86.6379 10.4711 86.3349 10.5895C86.0318 10.7079 85.7927 10.8736 85.6175 11.0866C85.4424 11.295 85.3548 11.5649 85.3548 11.8963C85.3548 12.3698 85.5276 12.7273 85.8732 12.9688C86.2189 13.2102 86.6592 13.331 87.1942 13.331ZM99.9464 15V0.454545H102.581V12.7912H108.988V15H99.9464ZM115.919 15.2131C114.854 15.2131 113.931 14.9787 113.15 14.5099C112.368 14.0412 111.762 13.3854 111.331 12.5426C110.905 11.6998 110.692 10.715 110.692 9.58807C110.692 8.46117 110.905 7.47396 111.331 6.62642C111.762 5.77888 112.368 5.12074 113.15 4.65199C113.931 4.18324 114.854 3.94886 115.919 3.94886C116.985 3.94886 117.908 4.18324 118.689 4.65199C119.471 5.12074 120.074 5.77888 120.5 6.62642C120.931 7.47396 121.147 8.46117 121.147 9.58807C121.147 10.715 120.931 11.6998 120.5 12.5426C120.074 13.3854 119.471 14.0412 118.689 14.5099C117.908 14.9787 116.985 15.2131 115.919 15.2131ZM115.934 13.1534C116.511 13.1534 116.994 12.9948 117.382 12.6776C117.771 12.3556 118.06 11.9247 118.249 11.3849C118.443 10.8452 118.54 10.2438 118.54 9.58097C118.54 8.91335 118.443 8.30966 118.249 7.76989C118.06 7.22538 117.771 6.79214 117.382 6.47017C116.994 6.1482 116.511 5.98722 115.934 5.98722C115.342 5.98722 114.849 6.1482 114.456 6.47017C114.068 6.79214 113.777 7.22538 113.583 7.76989C113.393 8.30966 113.299 8.91335 113.299 9.58097C113.299 10.2438 113.393 10.8452 113.583 11.3849C113.777 11.9247 114.068 12.3556 114.456 12.6776C114.849 12.9948 115.342 13.1534 115.934 13.1534ZM130.282 10.4119V4.09091H132.853V15H130.36V13.0611H130.246C130 13.6719 129.595 14.1714 129.032 14.5597C128.473 14.9479 127.784 15.142 126.965 15.142C126.25 15.142 125.618 14.9834 125.069 14.6662C124.524 14.3442 124.098 13.8778 123.79 13.267C123.483 12.6515 123.329 11.9081 123.329 11.0369V4.09091H125.9V10.6392C125.9 11.3305 126.089 11.8797 126.468 12.2869C126.847 12.6941 127.344 12.8977 127.96 12.8977C128.338 12.8977 128.705 12.8054 129.06 12.6207C129.415 12.4361 129.707 12.1615 129.934 11.7969C130.166 11.4276 130.282 10.9659 130.282 10.4119ZM138.068 8.60795V15H135.497V4.09091H137.954V5.9446H138.082C138.333 5.33381 138.733 4.84848 139.282 4.48864C139.836 4.12879 140.52 3.94886 141.335 3.94886C142.088 3.94886 142.743 4.10985 143.302 4.43182C143.866 4.75379 144.301 5.22017 144.609 5.83097C144.922 6.44176 145.075 7.18276 145.071 8.05398V15H142.5V8.4517C142.5 7.72254 142.31 7.15199 141.931 6.74006C141.557 6.32812 141.039 6.12216 140.376 6.12216C139.926 6.12216 139.526 6.22159 139.176 6.42045C138.83 6.61458 138.558 6.89631 138.359 7.26562C138.165 7.63494 138.068 8.08239 138.068 8.60795ZM150.824 15.2202C150.132 15.2202 149.51 15.0971 148.956 14.8509C148.406 14.5999 147.971 14.2306 147.649 13.7429C147.332 13.2552 147.173 12.6539 147.173 11.9389C147.173 11.3234 147.287 10.8144 147.514 10.4119C147.741 10.0095 148.051 9.6875 148.444 9.44602C148.837 9.20455 149.28 9.02225 149.772 8.89915C150.27 8.77131 150.783 8.67898 151.314 8.62216C151.953 8.55587 152.471 8.49669 152.869 8.4446C153.267 8.38778 153.556 8.30256 153.735 8.18892C153.92 8.07055 154.012 7.88826 154.012 7.64205V7.59943C154.012 7.06439 153.854 6.65009 153.537 6.35653C153.219 6.06297 152.762 5.91619 152.166 5.91619C151.536 5.91619 151.037 6.0535 150.667 6.32812C150.303 6.60275 150.056 6.92708 149.929 7.30114L147.528 6.96023C147.717 6.29735 148.03 5.74337 148.466 5.2983C148.901 4.84848 149.434 4.51231 150.064 4.28977C150.693 4.0625 151.389 3.94886 152.152 3.94886C152.677 3.94886 153.2 4.01042 153.721 4.13352C154.242 4.25663 154.718 4.46023 155.149 4.74432C155.58 5.02367 155.925 5.40483 156.186 5.88778C156.451 6.37074 156.583 6.97443 156.583 7.69886V15H154.112V13.5014H154.027C153.87 13.8045 153.65 14.0885 153.366 14.3537C153.087 14.6141 152.734 14.8248 152.308 14.9858C151.886 15.142 151.392 15.2202 150.824 15.2202ZM151.491 13.331C152.007 13.331 152.455 13.2292 152.833 13.0256C153.212 12.8172 153.503 12.5426 153.707 12.2017C153.915 11.8608 154.02 11.4891 154.02 11.0866V9.80114C153.939 9.86742 153.802 9.92898 153.608 9.9858C153.418 10.0426 153.205 10.0923 152.968 10.1349C152.732 10.1776 152.497 10.2154 152.265 10.2486C152.033 10.2817 151.832 10.3101 151.662 10.3338C151.278 10.3859 150.935 10.4711 150.632 10.5895C150.329 10.7079 150.09 10.8736 149.914 11.0866C149.739 11.295 149.652 11.5649 149.652 11.8963C149.652 12.3698 149.824 12.7273 150.17 12.9688C150.516 13.2102 150.956 13.331 151.491 13.331ZM172.148 4.45312C172.082 3.83286 171.802 3.34991 171.31 3.00426C170.822 2.65862 170.188 2.4858 169.407 2.4858C168.857 2.4858 168.386 2.56866 167.993 2.73438C167.6 2.90009 167.3 3.125 167.091 3.40909C166.883 3.69318 166.776 4.01752 166.772 4.3821C166.772 4.68513 166.84 4.94792 166.978 5.17045C167.12 5.39299 167.311 5.58239 167.553 5.73864C167.794 5.89015 168.062 6.01799 168.355 6.12216C168.649 6.22633 168.945 6.31392 169.243 6.38494L170.607 6.72585C171.156 6.85369 171.684 7.02651 172.191 7.24432C172.702 7.46212 173.159 7.73674 173.561 8.06818C173.969 8.39962 174.291 8.79972 174.527 9.26847C174.764 9.73722 174.882 10.2865 174.882 10.9162C174.882 11.7685 174.665 12.5189 174.229 13.1676C173.793 13.8116 173.164 14.3158 172.34 14.6804C171.521 15.0402 170.529 15.2202 169.364 15.2202C168.232 15.2202 167.25 15.045 166.417 14.6946C165.588 14.3442 164.939 13.8329 164.471 13.1605C164.007 12.4882 163.756 11.669 163.718 10.7031H166.31C166.348 11.2098 166.504 11.6312 166.779 11.9673C167.053 12.3035 167.411 12.5545 167.851 12.7202C168.296 12.8859 168.793 12.9688 169.343 12.9688C169.916 12.9688 170.417 12.8835 170.848 12.7131C171.284 12.5379 171.625 12.2964 171.871 11.9886C172.117 11.6761 172.243 11.3116 172.248 10.8949C172.243 10.5161 172.132 10.2036 171.914 9.95739C171.696 9.70644 171.391 9.49811 170.998 9.33239C170.609 9.16193 170.155 9.01042 169.634 8.87784L167.979 8.4517C166.781 8.14394 165.834 7.67756 165.138 7.05256C164.447 6.42282 164.101 5.58712 164.101 4.54545C164.101 3.68845 164.333 2.93797 164.797 2.29403C165.266 1.65009 165.903 1.15057 166.708 0.795454C167.513 0.435605 168.424 0.255681 169.442 0.255681C170.474 0.255681 171.379 0.435605 172.155 0.795454C172.936 1.15057 173.55 1.64536 173.995 2.27983C174.44 2.90956 174.669 3.634 174.684 4.45312H172.148ZM179.462 11.5767L179.455 8.47301H179.866L183.787 4.09091H186.791L181.969 9.46023H181.436L179.462 11.5767ZM177.118 15V0.454545H179.689V15H177.118ZM183.964 15L180.413 10.0355L182.146 8.22443L187.04 15H183.964ZM190.22 19.0909C189.869 19.0909 189.545 19.0625 189.247 19.0057C188.953 18.9536 188.719 18.892 188.544 18.821L189.14 16.8182C189.514 16.9271 189.848 16.9792 190.142 16.9744C190.435 16.9697 190.693 16.8774 190.916 16.6974C191.143 16.5223 191.335 16.2287 191.491 15.8168L191.711 15.2273L187.755 4.09091H190.483L192.997 12.3295H193.11L195.632 4.09091H198.366L193.998 16.321C193.795 16.8987 193.525 17.3935 193.189 17.8054C192.852 18.2221 192.44 18.5393 191.953 18.7571C191.47 18.9796 190.892 19.0909 190.22 19.0909ZM202.716 0.454545V15H200.145V0.454545H202.716ZM208.499 15.2202C207.808 15.2202 207.185 15.0971 206.631 14.8509C206.082 14.5999 205.647 14.2306 205.325 13.7429C205.007 13.2552 204.849 12.6539 204.849 11.9389C204.849 11.3234 204.962 10.8144 205.19 10.4119C205.417 10.0095 205.727 9.6875 206.12 9.44602C206.513 9.20455 206.956 9.02225 207.448 8.89915C207.945 8.77131 208.459 8.67898 208.989 8.62216C209.629 8.55587 210.147 8.49669 210.545 8.4446C210.942 8.38778 211.231 8.30256 211.411 8.18892C211.596 8.07055 211.688 7.88826 211.688 7.64205V7.59943C211.688 7.06439 211.53 6.65009 211.212 6.35653C210.895 6.06297 210.438 5.91619 209.842 5.91619C209.212 5.91619 208.712 6.0535 208.343 6.32812C207.978 6.60275 207.732 6.92708 207.604 7.30114L205.204 6.96023C205.393 6.29735 205.706 5.74337 206.141 5.2983C206.577 4.84848 207.11 4.51231 207.739 4.28977C208.369 4.0625 209.065 3.94886 209.827 3.94886C210.353 3.94886 210.876 4.01042 211.397 4.13352C211.918 4.25663 212.394 4.46023 212.825 4.74432C213.255 5.02367 213.601 5.40483 213.862 5.88778C214.127 6.37074 214.259 6.97443 214.259 7.69886V15H211.788V13.5014H211.702C211.546 13.8045 211.326 14.0885 211.042 14.3537C210.763 14.6141 210.41 14.8248 209.984 14.9858C209.562 15.142 209.067 15.2202 208.499 15.2202ZM209.167 13.331C209.683 13.331 210.13 13.2292 210.509 13.0256C210.888 12.8172 211.179 12.5426 211.383 12.2017C211.591 11.8608 211.695 11.4891 211.695 11.0866V9.80114C211.615 9.86742 211.478 9.92898 211.283 9.9858C211.094 10.0426 210.881 10.0923 210.644 10.1349C210.407 10.1776 210.173 10.2154 209.941 10.2486C209.709 10.2817 209.508 10.3101 209.337 10.3338C208.954 10.3859 208.611 10.4711 208.308 10.5895C208.004 10.7079 207.765 10.8736 207.59 11.0866C207.415 11.295 207.327 11.5649 207.327 11.8963C207.327 12.3698 207.5 12.7273 207.846 12.9688C208.192 13.2102 208.632 13.331 209.167 13.331ZM219.415 8.60795V15H216.844V4.09091H219.302V5.9446H219.43C219.681 5.33381 220.081 4.84848 220.63 4.48864C221.184 4.12879 221.868 3.94886 222.683 3.94886C223.435 3.94886 224.091 4.10985 224.65 4.43182C225.213 4.75379 225.649 5.22017 225.957 5.83097C226.269 6.44176 226.423 7.18276 226.418 8.05398V15H223.847V8.4517C223.847 7.72254 223.658 7.15199 223.279 6.74006C222.905 6.32812 222.387 6.12216 221.724 6.12216C221.274 6.12216 220.874 6.22159 220.523 6.42045C220.178 6.61458 219.906 6.89631 219.707 7.26562C219.513 7.63494 219.415 8.08239 219.415 8.60795ZM233.08 15.1918C232.223 15.1918 231.456 14.9716 230.779 14.5312C230.102 14.0909 229.567 13.4517 229.174 12.6136C228.781 11.7756 228.585 10.7576 228.585 9.55966C228.585 8.34754 228.783 7.32481 229.181 6.49148C229.584 5.65341 230.126 5.02131 230.808 4.59517C231.489 4.1643 232.249 3.94886 233.087 3.94886C233.727 3.94886 234.252 4.05777 234.664 4.27557C235.076 4.48864 235.403 4.74669 235.644 5.04972C235.886 5.34801 236.073 5.62973 236.205 5.89489H236.312V0.454545H238.89V15H236.362V13.2812H236.205C236.073 13.5464 235.881 13.8281 235.63 14.1264C235.379 14.42 235.048 14.6709 234.636 14.8793C234.224 15.0876 233.705 15.1918 233.08 15.1918ZM233.798 13.0824C234.342 13.0824 234.806 12.9356 235.19 12.642C235.573 12.3437 235.864 11.9295 236.063 11.3991C236.262 10.8688 236.362 10.2509 236.362 9.54545C236.362 8.83996 236.262 8.2268 236.063 7.70597C235.869 7.18513 235.58 6.7803 235.197 6.49148C234.818 6.20265 234.352 6.05824 233.798 6.05824C233.225 6.05824 232.746 6.20739 232.363 6.50568C231.979 6.80398 231.691 7.21591 231.496 7.74148C231.302 8.26705 231.205 8.86837 231.205 9.54545C231.205 10.2273 231.302 10.8357 231.496 11.3707C231.695 11.901 231.987 12.3201 232.37 12.6278C232.758 12.9309 233.234 13.0824 233.798 13.0824ZM246.459 15.2131C245.365 15.2131 244.421 14.9858 243.625 14.5312C242.835 14.072 242.226 13.4233 241.8 12.5852C241.374 11.7424 241.161 10.7505 241.161 9.60938C241.161 8.48722 241.374 7.50237 241.8 6.65483C242.231 5.80256 242.832 5.13968 243.604 4.66619C244.376 4.18797 245.283 3.94886 246.324 3.94886C246.997 3.94886 247.631 4.05777 248.228 4.27557C248.829 4.48864 249.359 4.82008 249.819 5.26989C250.283 5.7197 250.647 6.29261 250.912 6.98864C251.177 7.67992 251.31 8.50379 251.31 9.46023V10.2486H242.368V8.51562H248.846C248.841 8.0232 248.734 7.58523 248.526 7.2017C248.318 6.81345 248.026 6.50805 247.652 6.28551C247.283 6.06297 246.852 5.9517 246.36 5.9517C245.834 5.9517 245.373 6.07955 244.975 6.33523C244.577 6.58617 244.267 6.91761 244.044 7.32955C243.827 7.73674 243.715 8.18419 243.711 8.67188V10.1847C243.711 10.8191 243.827 11.3636 244.059 11.8182C244.291 12.268 244.615 12.6136 245.032 12.8551C245.448 13.0919 245.936 13.2102 246.495 13.2102C246.869 13.2102 247.207 13.1581 247.51 13.054C247.813 12.9451 248.076 12.7865 248.299 12.5781C248.521 12.3698 248.689 12.1117 248.803 11.804L251.203 12.0739C251.052 12.7083 250.763 13.2623 250.337 13.7358C249.916 14.2045 249.376 14.5691 248.718 14.8295C248.06 15.0852 247.307 15.2131 246.459 15.2131ZM253.485 15V4.09091H255.978V5.90909H256.092C256.29 5.27936 256.631 4.79403 257.114 4.45312C257.602 4.10748 258.158 3.93466 258.783 3.93466C258.925 3.93466 259.084 3.94176 259.259 3.95597C259.439 3.96544 259.588 3.98201 259.707 4.00568V6.37074C259.598 6.33286 259.425 6.29972 259.188 6.27131C258.956 6.23816 258.731 6.22159 258.513 6.22159C258.045 6.22159 257.623 6.32339 257.249 6.52699C256.88 6.72585 256.589 7.00284 256.376 7.35795C256.163 7.71307 256.056 8.12263 256.056 8.58665V15H253.485Z" fill="black"/>
</svg>
