<svg width="144" height="21" viewBox="0 0 144 21" fill="none" xmlns="http://www.w3.org/2000/svg">
<path d="M0.434659 16V1.45455H5.8892C7.00663 1.45455 7.94413 1.64867 8.7017 2.03693C9.46402 2.42519 10.0393 2.9697 10.4276 3.67045C10.8205 4.36648 11.017 5.1785 11.017 6.10653C11.017 7.0393 10.8182 7.84896 10.4205 8.53551C10.0275 9.21733 9.44744 9.74526 8.6804 10.1193C7.91335 10.4886 6.97112 10.6733 5.85369 10.6733H1.96875V8.4858H5.49858C6.15199 8.4858 6.68703 8.39583 7.10369 8.21591C7.52036 8.03125 7.82813 7.76373 8.02699 7.41335C8.23059 7.05824 8.33239 6.62263 8.33239 6.10653C8.33239 5.59044 8.23059 5.15009 8.02699 4.78551C7.82339 4.41619 7.51326 4.13684 7.09659 3.94744C6.67992 3.75331 6.14252 3.65625 5.48438 3.65625H3.0696V16H0.434659ZM7.94886 9.40909L11.5497 16H8.60938L5.07244 9.40909H7.94886ZM13.3288 16V5.09091H15.8999V16H13.3288ZM14.6214 3.54261C14.2143 3.54261 13.8639 3.40767 13.5703 3.13778C13.2768 2.86316 13.13 2.53409 13.13 2.15057C13.13 1.76231 13.2768 1.43324 13.5703 1.16335C13.8639 0.88873 14.2143 0.75142 14.6214 0.75142C15.0334 0.75142 15.3838 0.88873 15.6726 1.16335C15.9661 1.43324 16.1129 1.76231 16.1129 2.15057C16.1129 2.53409 15.9661 2.86316 15.6726 3.13778C15.3838 3.40767 15.0334 3.54261 14.6214 3.54261ZM23.3022 16.2131C22.2132 16.2131 21.2781 15.974 20.4968 15.4957C19.7203 15.0175 19.1213 14.357 18.6999 13.5142C18.2833 12.6667 18.0749 11.6913 18.0749 10.5881C18.0749 9.48011 18.288 8.50237 18.7141 7.65483C19.1403 6.80256 19.7416 6.13968 20.5181 5.66619C21.2994 5.18797 22.2227 4.94886 23.288 4.94886C24.1734 4.94886 24.957 5.11222 25.6388 5.43892C26.3254 5.76089 26.8723 6.2178 27.2795 6.80966C27.6867 7.39678 27.9187 8.08333 27.9755 8.86932H25.5181C25.4187 8.34375 25.1819 7.90578 24.8079 7.5554C24.4386 7.20028 23.9438 7.02273 23.3235 7.02273C22.7979 7.02273 22.3363 7.16477 21.9386 7.44886C21.5408 7.72822 21.2307 8.13068 21.0082 8.65625C20.7904 9.18182 20.6815 9.81155 20.6815 10.5455C20.6815 11.2888 20.7904 11.928 21.0082 12.4631C21.226 12.9934 21.5314 13.4029 21.9244 13.6918C22.3221 13.9759 22.7885 14.1179 23.3235 14.1179C23.7023 14.1179 24.0408 14.0469 24.3391 13.9048C24.6422 13.758 24.8955 13.5473 25.0991 13.2727C25.3027 12.9981 25.4424 12.6643 25.5181 12.2713H27.9755C27.9139 13.0431 27.6867 13.7273 27.2937 14.3239C26.9007 14.9157 26.3656 15.3797 25.6886 15.7159C25.0115 16.0473 24.216 16.2131 23.3022 16.2131ZM32.4304 12.5767L32.4233 9.47301H32.8352L36.7557 5.09091H39.7599L34.9375 10.4602H34.4048L32.4304 12.5767ZM30.0866 16V1.45455H32.6577V16H30.0866ZM36.9332 16L33.3821 11.0355L35.1151 9.22443L40.0085 16H36.9332ZM49.5735 16.2202C48.8822 16.2202 48.2596 16.0971 47.7056 15.8509C47.1564 15.5999 46.7208 15.2306 46.3988 14.7429C46.0816 14.2552 45.9229 13.6539 45.9229 12.9389C45.9229 12.3234 46.0366 11.8144 46.2638 11.4119C46.4911 11.0095 46.8013 10.6875 47.1942 10.446C47.5872 10.2045 48.0299 10.0223 48.5224 9.89915C49.0195 9.77131 49.5333 9.67898 50.0636 9.62216C50.7028 9.55587 51.2212 9.49669 51.619 9.4446C52.0167 9.38778 52.3055 9.30256 52.4854 9.18892C52.6701 9.07055 52.7624 8.88826 52.7624 8.64205V8.59943C52.7624 8.06439 52.6038 7.65009 52.2866 7.35653C51.9693 7.06297 51.5124 6.91619 50.9158 6.91619C50.2861 6.91619 49.7866 7.0535 49.4173 7.32812C49.0527 7.60275 48.8065 7.92708 48.6786 8.30114L46.2781 7.96023C46.4674 7.29735 46.7799 6.74337 47.2156 6.2983C47.6512 5.84848 48.1838 5.51231 48.8136 5.28977C49.4433 5.0625 50.1393 4.94886 50.9016 4.94886C51.4272 4.94886 51.9504 5.01042 52.4712 5.13352C52.9921 5.25663 53.4679 5.46023 53.8988 5.74432C54.3297 6.02367 54.6753 6.40483 54.9357 6.88778C55.2009 7.37074 55.3335 7.97443 55.3335 8.69886V16H52.8619V14.5014H52.7766C52.6204 14.8045 52.4002 15.0885 52.1161 15.3537C51.8368 15.6141 51.484 15.8248 51.0579 15.9858C50.6365 16.142 50.1417 16.2202 49.5735 16.2202ZM50.2411 14.331C50.7572 14.331 51.2047 14.2292 51.5835 14.0256C51.9622 13.8172 52.2534 13.5426 52.457 13.2017C52.6654 12.8608 52.7695 12.4891 52.7695 12.0866V10.8011C52.689 10.8674 52.5517 10.929 52.3576 10.9858C52.1682 11.0426 51.9551 11.0923 51.7184 11.1349C51.4817 11.1776 51.2473 11.2154 51.0153 11.2486C50.7833 11.2817 50.582 11.3101 50.4116 11.3338C50.0281 11.3859 49.6848 11.4711 49.3817 11.5895C49.0787 11.7079 48.8396 11.8736 48.6644 12.0866C48.4892 12.295 48.4016 12.5649 48.4016 12.8963C48.4016 13.3698 48.5745 13.7273 48.9201 13.9688C49.2657 14.2102 49.7061 14.331 50.2411 14.331ZM60.4897 9.60795V16H57.9187V5.09091H60.3761V6.9446H60.5039C60.7549 6.33381 61.1549 5.84848 61.7042 5.48864C62.2582 5.12879 62.9424 4.94886 63.7567 4.94886C64.5096 4.94886 65.1654 5.10985 65.7241 5.43182C66.2875 5.75379 66.7231 6.22017 67.0309 6.83097C67.3434 7.44176 67.4973 8.18276 67.4925 9.05398V16H64.9215V9.4517C64.9215 8.72254 64.7321 8.15199 64.3533 7.74006C63.9793 7.32812 63.4608 7.12216 62.7979 7.12216C62.3481 7.12216 61.948 7.22159 61.5977 7.42045C61.252 7.61458 60.9798 7.89631 60.7809 8.26562C60.5868 8.63494 60.4897 9.08239 60.4897 9.60795ZM74.1545 16.1918C73.2975 16.1918 72.5304 15.9716 71.8533 15.5312C71.1763 15.0909 70.6412 14.4517 70.2482 13.6136C69.8552 12.7756 69.6587 11.7576 69.6587 10.5597C69.6587 9.34754 69.8576 8.32481 70.2553 7.49148C70.6578 6.65341 71.1999 6.02131 71.8817 5.59517C72.5636 5.1643 73.3235 4.94886 74.1616 4.94886C74.8008 4.94886 75.3263 5.05777 75.7383 5.27557C76.1502 5.48864 76.4769 5.74669 76.7184 6.04972C76.9599 6.34801 77.1469 6.62973 77.2795 6.89489H77.386V1.45455H79.9641V16H77.4357V14.2812H77.2795C77.1469 14.5464 76.9551 14.8281 76.7042 15.1264C76.4532 15.42 76.1218 15.6709 75.7099 15.8793C75.2979 16.0876 74.7795 16.1918 74.1545 16.1918ZM74.8718 14.0824C75.4163 14.0824 75.8803 13.9356 76.2638 13.642C76.6474 13.3437 76.9386 12.9295 77.1374 12.3991C77.3363 11.8688 77.4357 11.2509 77.4357 10.5455C77.4357 9.83996 77.3363 9.2268 77.1374 8.70597C76.9433 8.18513 76.6545 7.7803 76.271 7.49148C75.8922 7.20265 75.4258 7.05824 74.8718 7.05824C74.2989 7.05824 73.8207 7.20739 73.4371 7.50568C73.0536 7.80398 72.7648 8.21591 72.5707 8.74148C72.3765 9.26705 72.2795 9.86837 72.2795 10.5455C72.2795 11.2273 72.3765 11.8357 72.5707 12.3707C72.7695 12.901 73.0607 13.3201 73.4442 13.6278C73.8325 13.9309 74.3084 14.0824 74.8718 14.0824ZM87.7784 1.45455H91.0028L95.321 11.9943H95.4915L99.8097 1.45455H103.034V16H100.506V6.0071H100.371L96.3509 15.9574H94.4616L90.4418 5.9858H90.3068V16H87.7784V1.45455ZM110.548 16.2131C109.483 16.2131 108.56 15.9787 107.778 15.5099C106.997 15.0412 106.391 14.3854 105.96 13.5426C105.534 12.6998 105.321 11.715 105.321 10.5881C105.321 9.46117 105.534 8.47396 105.96 7.62642C106.391 6.77888 106.997 6.12074 107.778 5.65199C108.56 5.18324 109.483 4.94886 110.548 4.94886C111.614 4.94886 112.537 5.18324 113.318 5.65199C114.099 6.12074 114.703 6.77888 115.129 7.62642C115.56 8.47396 115.776 9.46117 115.776 10.5881C115.776 11.715 115.56 12.6998 115.129 13.5426C114.703 14.3854 114.099 15.0412 113.318 15.5099C112.537 15.9787 111.614 16.2131 110.548 16.2131ZM110.562 14.1534C111.14 14.1534 111.623 13.9948 112.011 13.6776C112.4 13.3556 112.688 12.9247 112.878 12.3849C113.072 11.8452 113.169 11.2438 113.169 10.581C113.169 9.91335 113.072 9.30966 112.878 8.76989C112.688 8.22538 112.4 7.79214 112.011 7.47017C111.623 7.1482 111.14 6.98722 110.562 6.98722C109.971 6.98722 109.478 7.1482 109.085 7.47017C108.697 7.79214 108.406 8.22538 108.212 8.76989C108.022 9.30966 107.928 9.91335 107.928 10.581C107.928 11.2438 108.022 11.8452 108.212 12.3849C108.406 12.9247 108.697 13.3556 109.085 13.6776C109.478 13.9948 109.971 14.1534 110.562 14.1534ZM117.958 16V5.09091H120.451V6.90909H120.564C120.763 6.27936 121.104 5.79403 121.587 5.45312C122.075 5.10748 122.631 4.93466 123.256 4.93466C123.398 4.93466 123.557 4.94176 123.732 4.95597C123.912 4.96544 124.061 4.98201 124.179 5.00568V7.37074C124.07 7.33286 123.898 7.29972 123.661 7.27131C123.429 7.23816 123.204 7.22159 122.986 7.22159C122.517 7.22159 122.096 7.32339 121.722 7.52699C121.353 7.72585 121.061 8.00284 120.848 8.35795C120.635 8.71307 120.529 9.12263 120.529 9.58665V16H117.958ZM131.921 5.09091V7.07955H125.65V5.09091H131.921ZM127.198 2.47727H129.769V12.7188C129.769 13.0644 129.821 13.3295 129.925 13.5142C130.034 13.6941 130.176 13.8172 130.351 13.8835C130.526 13.9498 130.721 13.983 130.934 13.983C131.095 13.983 131.241 13.9711 131.374 13.9474C131.511 13.9238 131.615 13.9025 131.686 13.8835L132.12 15.8935C131.982 15.9408 131.786 15.9929 131.53 16.0497C131.279 16.1065 130.971 16.1397 130.607 16.1491C129.963 16.1681 129.383 16.071 128.867 15.858C128.351 15.6402 127.941 15.304 127.638 14.8494C127.34 14.3949 127.193 13.8267 127.198 13.1449V2.47727ZM135.669 20.0909C135.319 20.0909 134.994 20.0625 134.696 20.0057C134.402 19.9536 134.168 19.892 133.993 19.821L134.589 17.8182C134.964 17.9271 135.297 17.9792 135.591 17.9744C135.884 17.9697 136.143 17.8774 136.365 17.6974C136.592 17.5223 136.784 17.2287 136.94 16.8168L137.161 16.2273L133.205 5.09091H135.932L138.446 13.3295H138.56L141.081 5.09091H143.815L139.447 17.321C139.244 17.8987 138.974 18.3935 138.638 18.8054C138.302 19.2221 137.89 19.5393 137.402 19.7571C136.919 19.9796 136.341 20.0909 135.669 20.0909Z" fill="black"/>
</svg>
