<svg width="99" height="34" viewBox="0 0 99 34" fill="none" xmlns="http://www.w3.org/2000/svg">
<path d="M1.43466 24V9.45455H6.8892C8.00663 9.45455 8.94413 9.64867 9.7017 10.0369C10.464 10.4252 11.0393 10.9697 11.4276 11.6705C11.8205 12.3665 12.017 13.1785 12.017 14.1065C12.017 15.0393 11.8182 15.849 11.4205 16.5355C11.0275 17.2173 10.4474 17.7453 9.6804 18.1193C8.91335 18.4886 7.97112 18.6733 6.85369 18.6733H2.96875V16.4858H6.49858C7.15199 16.4858 7.68703 16.3958 8.10369 16.2159C8.52036 16.0312 8.82813 15.7637 9.02699 15.4134C9.23059 15.0582 9.33239 14.6226 9.33239 14.1065C9.33239 13.5904 9.23059 13.1501 9.02699 12.7855C8.82339 12.4162 8.51326 12.1368 8.09659 11.9474C7.67992 11.7533 7.14252 11.6562 6.48438 11.6562H4.0696V24H1.43466ZM8.94886 17.4091L12.5497 24H9.60938L6.07244 17.4091H8.94886ZM14.3288 24V13.0909H16.8999V24H14.3288ZM15.6214 11.5426C15.2143 11.5426 14.8639 11.4077 14.5703 11.1378C14.2768 10.8632 14.13 10.5341 14.13 10.1506C14.13 9.76231 14.2768 9.43324 14.5703 9.16335C14.8639 8.88873 15.2143 8.75142 15.6214 8.75142C16.0334 8.75142 16.3838 8.88873 16.6726 9.16335C16.9661 9.43324 17.1129 9.76231 17.1129 10.1506C17.1129 10.5341 16.9661 10.8632 16.6726 11.1378C16.3838 11.4077 16.0334 11.5426 15.6214 11.5426ZM23.592 24.1918C22.735 24.1918 21.9679 23.9716 21.2908 23.5312C20.6138 23.0909 20.0787 22.4517 19.6857 21.6136C19.2927 20.7756 19.0962 19.7576 19.0962 18.5597C19.0962 17.3475 19.2951 16.3248 19.6928 15.4915C20.0953 14.6534 20.6374 14.0213 21.3192 13.5952C22.0011 13.1643 22.761 12.9489 23.5991 12.9489C24.2383 12.9489 24.7638 13.0578 25.1758 13.2756C25.5877 13.4886 25.9144 13.7467 26.1559 14.0497C26.3974 14.348 26.5844 14.6297 26.717 14.8949H26.8235V9.45455H29.4016V24H26.8732V22.2812H26.717C26.5844 22.5464 26.3926 22.8281 26.1417 23.1264C25.8907 23.42 25.5593 23.6709 25.1474 23.8793C24.7354 24.0876 24.217 24.1918 23.592 24.1918ZM24.3093 22.0824C24.8538 22.0824 25.3178 21.9356 25.7013 21.642C26.0849 21.3437 26.3761 20.9295 26.5749 20.3991C26.7738 19.8688 26.8732 19.2509 26.8732 18.5455C26.8732 17.84 26.7738 17.2268 26.5749 16.706C26.3808 16.1851 26.092 15.7803 25.7085 15.4915C25.3297 15.2027 24.8633 15.0582 24.3093 15.0582C23.7364 15.0582 23.2582 15.2074 22.8746 15.5057C22.4911 15.804 22.2023 16.2159 22.0082 16.7415C21.814 17.267 21.717 17.8684 21.717 18.5455C21.717 19.2273 21.814 19.8357 22.0082 20.3707C22.207 20.901 22.4982 21.3201 22.8817 21.6278C23.27 21.9309 23.7459 22.0824 24.3093 22.0824ZM36.9709 24.2131C35.8771 24.2131 34.9325 23.9858 34.1371 23.5312C33.3464 23.072 32.7379 22.4233 32.3118 21.5852C31.8857 20.7424 31.6726 19.7505 31.6726 18.6094C31.6726 17.4872 31.8857 16.5024 32.3118 15.6548C32.7427 14.8026 33.344 14.1397 34.1158 13.6662C34.8875 13.188 35.7943 12.9489 36.8359 12.9489C37.5083 12.9489 38.1428 13.0578 38.7393 13.2756C39.3407 13.4886 39.871 13.8201 40.3303 14.2699C40.7943 14.7197 41.1589 15.2926 41.424 15.9886C41.6892 16.6799 41.8217 17.5038 41.8217 18.4602V19.2486H32.88V17.5156H39.3572C39.3525 17.0232 39.246 16.5852 39.0376 16.2017C38.8293 15.8134 38.5381 15.508 38.1641 15.2855C37.7947 15.063 37.3639 14.9517 36.8714 14.9517C36.3459 14.9517 35.8842 15.0795 35.4865 15.3352C35.0888 15.5862 34.7786 15.9176 34.5561 16.3295C34.3383 16.7367 34.227 17.1842 34.2223 17.6719V19.1847C34.2223 19.8191 34.3383 20.3636 34.5703 20.8182C34.8023 21.268 35.1267 21.6136 35.5433 21.8551C35.96 22.0919 36.4477 22.2102 37.0064 22.2102C37.3804 22.2102 37.719 22.1581 38.022 22.054C38.325 21.9451 38.5878 21.7865 38.8104 21.5781C39.0329 21.3698 39.201 21.1117 39.3146 20.804L41.7152 21.0739C41.5637 21.7083 41.2749 22.2623 40.8487 22.7358C40.4273 23.2045 39.8875 23.5691 39.2294 23.8295C38.5713 24.0852 37.8184 24.2131 36.9709 24.2131ZM52.0153 13.4531C51.949 12.8329 51.6696 12.3499 51.1772 12.0043C50.6895 11.6586 50.055 11.4858 49.2738 11.4858C48.7246 11.4858 48.2534 11.5687 47.8604 11.7344C47.4674 11.9001 47.1668 12.125 46.9585 12.4091C46.7501 12.6932 46.6436 13.0175 46.6388 13.3821C46.6388 13.6851 46.7075 13.9479 46.8448 14.1705C46.9869 14.393 47.1786 14.5824 47.4201 14.7386C47.6616 14.8902 47.9291 15.018 48.2227 15.1222C48.5162 15.2263 48.8121 15.3139 49.1104 15.3849L50.4741 15.7259C51.0233 15.8537 51.5513 16.0265 52.0579 16.2443C52.5692 16.4621 53.0262 16.7367 53.4286 17.0682C53.8358 17.3996 54.1578 17.7997 54.3945 18.2685C54.6313 18.7372 54.7496 19.2865 54.7496 19.9162C54.7496 20.7685 54.5318 21.5189 54.0962 22.1676C53.6606 22.8116 53.0309 23.3158 52.207 23.6804C51.3879 24.0402 50.396 24.2202 49.2312 24.2202C48.0996 24.2202 47.1171 24.045 46.2837 23.6946C45.4551 23.3442 44.8065 22.8329 44.3377 22.1605C43.8737 21.4882 43.6228 20.669 43.5849 19.7031H46.1772C46.2151 20.2098 46.3713 20.6312 46.646 20.9673C46.9206 21.3035 47.2781 21.5545 47.7184 21.7202C48.1635 21.8859 48.6606 21.9688 49.2099 21.9688C49.7828 21.9688 50.2847 21.8835 50.7156 21.7131C51.1512 21.5379 51.4921 21.2964 51.7383 20.9886C51.9845 20.6761 52.11 20.3116 52.1147 19.8949C52.11 19.5161 51.9987 19.2036 51.7809 18.9574C51.5631 18.7064 51.2577 18.4981 50.8647 18.3324C50.4764 18.1619 50.0219 18.0104 49.5011 17.8778L47.8462 17.4517C46.6483 17.1439 45.7013 16.6776 45.0053 16.0526C44.314 15.4228 43.9684 14.5871 43.9684 13.5455C43.9684 12.6884 44.2004 11.938 44.6644 11.294C45.1332 10.6501 45.77 10.1506 46.5749 9.79545C47.3799 9.43561 48.2913 9.25568 49.3093 9.25568C50.3415 9.25568 51.2459 9.43561 52.0224 9.79545C52.8036 10.1506 53.4168 10.6454 53.8619 11.2798C54.3069 11.9096 54.5366 12.634 54.5508 13.4531H52.0153ZM59.5561 17.608V24H56.9851V9.45455H59.4993V14.9446H59.6271C59.8828 14.3291 60.2782 13.8437 60.8132 13.4886C61.353 13.1288 62.0395 12.9489 62.8729 12.9489C63.6304 12.9489 64.291 13.1075 64.8544 13.4247C65.4179 13.742 65.8535 14.206 66.1612 14.8168C66.4737 15.4276 66.63 16.1733 66.63 17.054V24H64.0589V17.4517C64.0589 16.7178 63.8696 16.1473 63.4908 15.7401C63.1167 15.3281 62.5911 15.1222 61.9141 15.1222C61.4595 15.1222 61.0523 15.2216 60.6925 15.4205C60.3374 15.6146 60.058 15.8963 59.8544 16.2656C59.6555 16.6349 59.5561 17.0824 59.5561 17.608ZM72.3899 24.2202C71.6986 24.2202 71.076 24.0971 70.522 23.8509C69.9728 23.5999 69.5372 23.2306 69.2152 22.7429C68.898 22.2552 68.7393 21.6539 68.7393 20.9389C68.7393 20.3234 68.853 19.8144 69.0803 19.4119C69.3075 19.0095 69.6177 18.6875 70.0107 18.446C70.4036 18.2045 70.8464 18.0223 71.3388 17.8991C71.8359 17.7713 72.3497 17.679 72.88 17.6222C73.5192 17.5559 74.0376 17.4967 74.4354 17.4446C74.8331 17.3878 75.1219 17.3026 75.3018 17.1889C75.4865 17.0705 75.5788 16.8883 75.5788 16.642V16.5994C75.5788 16.0644 75.4202 15.6501 75.103 15.3565C74.7857 15.063 74.3288 14.9162 73.7322 14.9162C73.1025 14.9162 72.603 15.0535 72.2337 15.3281C71.8691 15.6027 71.6229 15.9271 71.495 16.3011L69.0945 15.9602C69.2839 15.2973 69.5964 14.7434 70.032 14.2983C70.4676 13.8485 71.0002 13.5123 71.63 13.2898C72.2597 13.0625 72.9557 12.9489 73.718 12.9489C74.2436 12.9489 74.7668 13.0104 75.2876 13.1335C75.8085 13.2566 76.2843 13.4602 76.7152 13.7443C77.1461 14.0237 77.4917 14.4048 77.7521 14.8878C78.0173 15.3707 78.1499 15.9744 78.1499 16.6989V24H75.6783V22.5014H75.593C75.4368 22.8045 75.2166 23.0885 74.9325 23.3537C74.6532 23.6141 74.3004 23.8248 73.8743 23.9858C73.4529 24.142 72.9581 24.2202 72.3899 24.2202ZM73.0575 22.331C73.5736 22.331 74.0211 22.2292 74.3999 22.0256C74.7786 21.8172 75.0698 21.5426 75.2734 21.2017C75.4818 20.8608 75.5859 20.4891 75.5859 20.0866V18.8011C75.5054 18.8674 75.3681 18.929 75.174 18.9858C74.9846 19.0426 74.7715 19.0923 74.5348 19.1349C74.2981 19.1776 74.0637 19.2154 73.8317 19.2486C73.5997 19.2817 73.3984 19.3101 73.228 19.3338C72.8445 19.3859 72.5012 19.4711 72.1982 19.5895C71.8951 19.7079 71.656 19.8736 71.4808 20.0866C71.3056 20.295 71.218 20.5649 71.218 20.8963C71.218 21.3698 71.3909 21.7273 71.7365 21.9688C72.0821 22.2102 72.5225 22.331 73.0575 22.331ZM80.7351 24V13.0909H83.228V14.9091H83.3416C83.5405 14.2794 83.8814 13.794 84.3643 13.4531C84.852 13.1075 85.4084 12.9347 86.0334 12.9347C86.1754 12.9347 86.334 12.9418 86.5092 12.956C86.6892 12.9654 86.8383 12.982 86.9567 13.0057V15.3707C86.8478 15.3329 86.675 15.2997 86.4382 15.2713C86.2062 15.2382 85.9813 15.2216 85.7635 15.2216C85.2947 15.2216 84.8733 15.3234 84.4993 15.527C84.13 15.7259 83.8388 16.0028 83.6257 16.358C83.4126 16.7131 83.3061 17.1226 83.3061 17.5866V24H80.7351ZM93.0451 24.2131C91.9513 24.2131 91.0067 23.9858 90.2113 23.5312C89.4206 23.072 88.8121 22.4233 88.386 21.5852C87.9599 20.7424 87.7468 19.7505 87.7468 18.6094C87.7468 17.4872 87.9599 16.5024 88.386 15.6548C88.8169 14.8026 89.4182 14.1397 90.19 13.6662C90.9618 13.188 91.8685 12.9489 92.9102 12.9489C93.5825 12.9489 94.217 13.0578 94.8136 13.2756C95.4149 13.4886 95.9452 13.8201 96.4045 14.2699C96.8685 14.7197 97.2331 15.2926 97.4982 15.9886C97.7634 16.6799 97.896 17.5038 97.896 18.4602V19.2486H88.9542V17.5156H95.4315C95.4267 17.0232 95.3202 16.5852 95.1119 16.2017C94.9035 15.8134 94.6123 15.508 94.2383 15.2855C93.869 15.063 93.4381 14.9517 92.9457 14.9517C92.4201 14.9517 91.9585 15.0795 91.5607 15.3352C91.163 15.5862 90.8529 15.9176 90.6303 16.3295C90.4125 16.7367 90.3013 17.1842 90.2965 17.6719V19.1847C90.2965 19.8191 90.4125 20.3636 90.6445 20.8182C90.8765 21.268 91.2009 21.6136 91.6175 21.8551C92.0342 22.0919 92.5219 22.2102 93.0806 22.2102C93.4547 22.2102 93.7932 22.1581 94.0962 22.054C94.3993 21.9451 94.6621 21.7865 94.8846 21.5781C95.1071 21.3698 95.2752 21.1117 95.3888 20.804L97.7894 21.0739C97.6379 21.7083 97.3491 22.2623 96.9229 22.7358C96.5015 23.2045 95.9618 23.5691 95.3036 23.8295C94.6455 24.0852 93.8926 24.2131 93.0451 24.2131Z" fill="black"/>
</svg>
