<svg width="161" height="17" viewBox="0 0 161 17" fill="none" xmlns="http://www.w3.org/2000/svg">
<path d="M9.33949 5.45312C9.2732 4.83286 8.99384 4.34991 8.50142 4.00426C8.01373 3.65862 7.37926 3.4858 6.59801 3.4858C6.04877 3.4858 5.57765 3.56866 5.18466 3.73438C4.79167 3.90009 4.491 4.125 4.28267 4.40909C4.07434 4.69318 3.9678 5.01752 3.96307 5.3821C3.96307 5.68513 4.03172 5.94792 4.16903 6.17045C4.31108 6.39299 4.50284 6.58239 4.74432 6.73864C4.9858 6.89015 5.25331 7.01799 5.54688 7.12216C5.84044 7.22633 6.13636 7.31392 6.43466 7.38494L7.7983 7.72585C8.34754 7.85369 8.87547 8.02651 9.3821 8.24432C9.89347 8.46212 10.3504 8.73674 10.7528 9.06818C11.16 9.39962 11.482 9.79972 11.7188 10.2685C11.9555 10.7372 12.0739 11.2865 12.0739 11.9162C12.0739 12.7685 11.8561 13.5189 11.4205 14.1676C10.9848 14.8116 10.3551 15.3158 9.53125 15.6804C8.71212 16.0402 7.72017 16.2202 6.5554 16.2202C5.42377 16.2202 4.44129 16.045 3.60795 15.6946C2.77936 15.3442 2.13068 14.8329 1.66193 14.1605C1.19792 13.4882 0.94697 12.669 0.909091 11.7031H3.50142C3.5393 12.2098 3.69555 12.6312 3.97017 12.9673C4.24479 13.3035 4.60227 13.5545 5.04261 13.7202C5.48769 13.8859 5.98485 13.9688 6.53409 13.9688C7.10701 13.9688 7.6089 13.8835 8.03977 13.7131C8.47538 13.5379 8.81629 13.2964 9.0625 12.9886C9.30871 12.6761 9.43419 12.3116 9.43892 11.8949C9.43419 11.5161 9.32292 11.2036 9.10511 10.9574C8.88731 10.7064 8.58191 10.4981 8.18892 10.3324C7.80066 10.1619 7.34612 10.0104 6.82528 9.87784L5.17045 9.4517C3.97254 9.14394 3.02557 8.67756 2.32955 8.05256C1.63826 7.42282 1.29261 6.58712 1.29261 5.54545C1.29261 4.68845 1.52462 3.93797 1.98864 3.29403C2.45739 2.65009 3.09422 2.15057 3.89915 1.79545C4.70407 1.43561 5.61553 1.25568 6.63352 1.25568C7.66572 1.25568 8.57008 1.43561 9.34659 1.79545C10.1278 2.15057 10.741 2.64536 11.1861 3.27983C11.6312 3.90956 11.8608 4.634 11.875 5.45312H9.33949ZM14.3093 16V5.09091H16.8803V16H14.3093ZM15.6019 3.54261C15.1947 3.54261 14.8443 3.40767 14.5508 3.13778C14.2572 2.86316 14.1104 2.53409 14.1104 2.15057C14.1104 1.76231 14.2572 1.43324 14.5508 1.16335C14.8443 0.88873 15.1947 0.75142 15.6019 0.75142C16.0138 0.75142 16.3642 0.88873 16.6531 1.16335C16.9466 1.43324 17.0934 1.76231 17.0934 2.15057C17.0934 2.53409 16.9466 2.86316 16.6531 3.13778C16.3642 3.40767 16.0138 3.54261 15.6019 3.54261ZM28.1463 7.97443L25.8026 8.23011C25.7363 7.99337 25.6203 7.77083 25.4545 7.5625C25.2936 7.35417 25.0758 7.18608 24.8011 7.05824C24.5265 6.9304 24.1903 6.86648 23.7926 6.86648C23.2576 6.86648 22.8078 6.98248 22.4432 7.21449C22.0833 7.4465 21.9058 7.74716 21.9105 8.11648C21.9058 8.43371 22.0218 8.69176 22.2585 8.89062C22.5 9.08949 22.8977 9.25284 23.4517 9.38068L25.3125 9.77841C26.3447 10.0009 27.1117 10.3537 27.6136 10.8366C28.1203 11.3196 28.3759 11.9517 28.3807 12.733C28.3759 13.4195 28.1747 14.0256 27.777 14.5511C27.384 15.072 26.8371 15.4792 26.1364 15.7727C25.4356 16.0663 24.6307 16.2131 23.7216 16.2131C22.3864 16.2131 21.3116 15.9337 20.4972 15.375C19.6828 14.8116 19.1974 14.0279 19.0412 13.0241L21.5483 12.7827C21.6619 13.2751 21.9034 13.6468 22.2727 13.8977C22.642 14.1487 23.1226 14.2741 23.7145 14.2741C24.3253 14.2741 24.8153 14.1487 25.1847 13.8977C25.5587 13.6468 25.7457 13.3366 25.7457 12.9673C25.7457 12.6548 25.625 12.3968 25.3835 12.1932C25.1468 11.9896 24.7775 11.8333 24.2756 11.7244L22.4148 11.3338C21.3684 11.116 20.5942 10.7491 20.0923 10.233C19.5904 9.71212 19.3419 9.05398 19.3466 8.25852C19.3419 7.58617 19.5241 7.00379 19.8935 6.51136C20.2675 6.0142 20.786 5.63068 21.4489 5.3608C22.1165 5.08617 22.8859 4.94886 23.7571 4.94886C25.0355 4.94886 26.0417 5.22112 26.7756 5.76562C27.5142 6.31013 27.9711 7.0464 28.1463 7.97443ZM35.9482 5.09091V7.07955H29.6768V5.09091H35.9482ZM31.2251 2.47727H33.7962V12.7188C33.7962 13.0644 33.8482 13.3295 33.9524 13.5142C34.0613 13.6941 34.2034 13.8172 34.3786 13.8835C34.5537 13.9498 34.7479 13.983 34.9609 13.983C35.1219 13.983 35.2687 13.9711 35.4013 13.9474C35.5386 13.9238 35.6428 13.9025 35.7138 13.8835L36.147 15.8935C36.0097 15.9408 35.8132 15.9929 35.5575 16.0497C35.3066 16.1065 34.9988 16.1397 34.6342 16.1491C33.9903 16.1681 33.4103 16.071 32.8942 15.858C32.3781 15.6402 31.9685 15.304 31.6655 14.8494C31.3672 14.3949 31.2204 13.8267 31.2251 13.1449V2.47727ZM42.8107 16.2131C41.717 16.2131 40.7724 15.9858 39.9769 15.5312C39.1862 15.072 38.5778 14.4233 38.1516 13.5852C37.7255 12.7424 37.5124 11.7505 37.5124 10.6094C37.5124 9.48722 37.7255 8.50237 38.1516 7.65483C38.5825 6.80256 39.1838 6.13968 39.9556 5.66619C40.7274 5.18797 41.6341 4.94886 42.6758 4.94886C43.3481 4.94886 43.9826 5.05777 44.5792 5.27557C45.1805 5.48864 45.7108 5.82008 46.1701 6.26989C46.6341 6.7197 46.9987 7.29261 47.2638 7.98864C47.529 8.67992 47.6616 9.50379 47.6616 10.4602V11.2486H38.7198V9.51562H45.1971C45.1924 9.0232 45.0858 8.58523 44.8775 8.2017C44.6692 7.81345 44.378 7.50805 44.0039 7.28551C43.6346 7.06297 43.2037 6.9517 42.7113 6.9517C42.1857 6.9517 41.7241 7.07955 41.3263 7.33523C40.9286 7.58617 40.6185 7.91761 40.396 8.32955C40.1781 8.73674 40.0669 9.18419 40.0621 9.67188V11.1847C40.0621 11.8191 40.1781 12.3636 40.4102 12.8182C40.6422 13.268 40.9665 13.6136 41.3832 13.8551C41.7998 14.0919 42.2875 14.2102 42.8462 14.2102C43.2203 14.2102 43.5588 14.1581 43.8619 14.054C44.1649 13.9451 44.4277 13.7865 44.6502 13.5781C44.8728 13.3698 45.0408 13.1117 45.1545 12.804L47.555 13.0739C47.4035 13.7083 47.1147 14.2623 46.6886 14.7358C46.2672 15.2045 45.7274 15.5691 45.0692 15.8295C44.4111 16.0852 43.6583 16.2131 42.8107 16.2131ZM49.8366 16V5.09091H52.294V6.9446H52.4219C52.6491 6.3196 53.0256 5.83191 53.5511 5.48153C54.0767 5.12642 54.7041 4.94886 55.4332 4.94886C56.1719 4.94886 56.7945 5.12879 57.3011 5.48864C57.8125 5.84375 58.1723 6.32907 58.3807 6.9446H58.4943C58.7358 6.33854 59.143 5.85559 59.7159 5.49574C60.2936 5.13116 60.9777 4.94886 61.7685 4.94886C62.7723 4.94886 63.5914 5.2661 64.2259 5.90057C64.8603 6.53504 65.1776 7.4607 65.1776 8.67756V16H62.5994V9.07528C62.5994 8.3982 62.4195 7.90341 62.0597 7.59091C61.6998 7.27367 61.2595 7.11506 60.7386 7.11506C60.1184 7.11506 59.633 7.30919 59.2827 7.69744C58.937 8.08097 58.7642 8.58049 58.7642 9.19602V16H56.2429V8.96875C56.2429 8.4053 56.0724 7.95549 55.7315 7.61932C55.3954 7.28314 54.955 7.11506 54.4105 7.11506C54.0412 7.11506 53.705 7.20975 53.402 7.39915C53.099 7.58381 52.8575 7.84659 52.6776 8.1875C52.4976 8.52367 52.4077 8.91667 52.4077 9.36648V16H49.8366ZM70.9251 16.2202C70.2338 16.2202 69.6112 16.0971 69.0572 15.8509C68.5079 15.5999 68.0723 15.2306 67.7504 14.7429C67.4331 14.2552 67.2745 13.6539 67.2745 12.9389C67.2745 12.3234 67.3881 11.8144 67.6154 11.4119C67.8427 11.0095 68.1528 10.6875 68.5458 10.446C68.9388 10.2045 69.3815 10.0223 69.8739 9.89915C70.3711 9.77131 70.8848 9.67898 71.4151 9.62216C72.0543 9.55587 72.5728 9.49669 72.9705 9.4446C73.3683 9.38778 73.6571 9.30256 73.837 9.18892C74.0217 9.07055 74.114 8.88826 74.114 8.64205V8.59943C74.114 8.06439 73.9554 7.65009 73.6381 7.35653C73.3209 7.06297 72.864 6.91619 72.2674 6.91619C71.6377 6.91619 71.1381 7.0535 70.7688 7.32812C70.4042 7.60275 70.158 7.92708 70.0302 8.30114L67.6296 7.96023C67.819 7.29735 68.1315 6.74337 68.5671 6.2983C69.0027 5.84848 69.5354 5.51231 70.1651 5.28977C70.7949 5.0625 71.4909 4.94886 72.2532 4.94886C72.7788 4.94886 73.302 5.01042 73.8228 5.13352C74.3436 5.25663 74.8195 5.46023 75.2504 5.74432C75.6812 6.02367 76.0269 6.40483 76.2873 6.88778C76.5524 7.37074 76.685 7.97443 76.685 8.69886V16H74.2134V14.5014H74.1282C73.9719 14.8045 73.7518 15.0885 73.4677 15.3537C73.1883 15.6141 72.8356 15.8248 72.4094 15.9858C71.988 16.142 71.4933 16.2202 70.9251 16.2202ZM71.5927 14.331C72.1088 14.331 72.5562 14.2292 72.935 14.0256C73.3138 13.8172 73.605 13.5426 73.8086 13.2017C74.0169 12.8608 74.1211 12.4891 74.1211 12.0866V10.8011C74.0406 10.8674 73.9033 10.929 73.7092 10.9858C73.5198 11.0426 73.3067 11.0923 73.07 11.1349C72.8332 11.1776 72.5988 11.2154 72.3668 11.2486C72.1348 11.2817 71.9336 11.3101 71.7631 11.3338C71.3796 11.3859 71.0363 11.4711 70.7333 11.5895C70.4303 11.7079 70.1912 11.8736 70.016 12.0866C69.8408 12.295 69.7532 12.5649 69.7532 12.8963C69.7532 13.3698 69.926 13.7273 70.2717 13.9688C70.6173 14.2102 71.0576 14.331 71.5927 14.331ZM89.2738 16H84.3448V1.45455H89.3732C90.8174 1.45455 92.0579 1.74574 93.0948 2.32812C94.1365 2.90578 94.9367 3.73674 95.4954 4.82102C96.0541 5.9053 96.3335 7.20265 96.3335 8.71307C96.3335 10.2282 96.0517 11.5303 95.4883 12.6193C94.9296 13.7083 94.1223 14.544 93.0664 15.1264C92.0153 15.7088 90.7511 16 89.2738 16ZM86.9798 13.7202H89.146C90.1592 13.7202 91.0044 13.5355 91.6815 13.1662C92.3585 12.7921 92.8675 12.2358 93.2085 11.4972C93.5494 10.7538 93.7198 9.82576 93.7198 8.71307C93.7198 7.60038 93.5494 6.67708 93.2085 5.94318C92.8675 5.20455 92.3633 4.65294 91.6957 4.28835C91.0328 3.91903 90.2089 3.73438 89.2241 3.73438H86.9798V13.7202ZM103.553 16.2131C102.459 16.2131 101.515 15.9858 100.719 15.5312C99.9284 15.072 99.32 14.4233 98.8938 13.5852C98.4677 12.7424 98.2546 11.7505 98.2546 10.6094C98.2546 9.48722 98.4677 8.50237 98.8938 7.65483C99.3247 6.80256 99.926 6.13968 100.698 5.66619C101.47 5.18797 102.376 4.94886 103.418 4.94886C104.09 4.94886 104.725 5.05777 105.321 5.27557C105.923 5.48864 106.453 5.82008 106.912 6.26989C107.376 6.7197 107.741 7.29261 108.006 7.98864C108.271 8.67992 108.404 9.50379 108.404 10.4602V11.2486H99.462V9.51562H105.939C105.935 9.0232 105.828 8.58523 105.62 8.2017C105.411 7.81345 105.12 7.50805 104.746 7.28551C104.377 7.06297 103.946 6.9517 103.453 6.9517C102.928 6.9517 102.466 7.07955 102.069 7.33523C101.671 7.58617 101.361 7.91761 101.138 8.32955C100.92 8.73674 100.809 9.18419 100.804 9.67188V11.1847C100.804 11.8191 100.92 12.3636 101.152 12.8182C101.384 13.268 101.709 13.6136 102.125 13.8551C102.542 14.0919 103.03 14.2102 103.588 14.2102C103.962 14.2102 104.301 14.1581 104.604 14.054C104.907 13.9451 105.17 13.7865 105.392 13.5781C105.615 13.3698 105.783 13.1117 105.897 12.804L108.297 13.0739C108.146 13.7083 107.857 14.2623 107.431 14.7358C107.009 15.2045 106.47 15.5691 105.811 15.8295C105.153 16.0852 104.4 16.2131 103.553 16.2131ZM128.104 6.36222H125.447C125.372 5.92661 125.232 5.54072 125.028 5.20455C124.825 4.86364 124.571 4.57481 124.268 4.33807C123.965 4.10133 123.62 3.92377 123.232 3.8054C122.848 3.68229 122.434 3.62074 121.989 3.62074C121.198 3.62074 120.497 3.8196 119.886 4.21733C119.276 4.61032 118.797 5.18797 118.452 5.95028C118.106 6.70786 117.933 7.63352 117.933 8.72727C117.933 9.83996 118.106 10.7775 118.452 11.5398C118.802 12.2973 119.28 12.8703 119.886 13.2585C120.497 13.642 121.196 13.8338 121.982 13.8338C122.417 13.8338 122.824 13.777 123.203 13.6634C123.587 13.545 123.93 13.3722 124.233 13.1449C124.541 12.9176 124.799 12.6383 125.007 12.3068C125.22 11.9754 125.367 11.5966 125.447 11.1705L128.104 11.1847C128.004 11.8759 127.789 12.5246 127.457 13.1307C127.131 13.7367 126.702 14.2718 126.172 14.7358C125.642 15.1951 125.021 15.5549 124.311 15.8153C123.601 16.071 122.813 16.1989 121.946 16.1989C120.668 16.1989 119.527 15.9029 118.523 15.3111C117.519 14.7192 116.728 13.8646 116.151 12.7472C115.573 11.6297 115.284 10.2898 115.284 8.72727C115.284 7.16004 115.575 5.82008 116.158 4.70739C116.74 3.58996 117.533 2.73532 118.537 2.14347C119.541 1.55161 120.677 1.25568 121.946 1.25568C122.756 1.25568 123.509 1.36932 124.205 1.59659C124.901 1.82386 125.521 2.15767 126.065 2.59801C126.61 3.03362 127.057 3.56866 127.408 4.20312C127.763 4.83286 127.995 5.55256 128.104 6.36222ZM130.403 16V5.09091H132.896V6.90909H133.01C133.208 6.27936 133.549 5.79403 134.032 5.45312C134.52 5.10748 135.076 4.93466 135.701 4.93466C135.843 4.93466 136.002 4.94176 136.177 4.95597C136.357 4.96544 136.506 4.98201 136.625 5.00568V7.37074C136.516 7.33286 136.343 7.29972 136.106 7.27131C135.874 7.23816 135.649 7.22159 135.431 7.22159C134.963 7.22159 134.541 7.32339 134.167 7.52699C133.798 7.72585 133.507 8.00284 133.294 8.35795C133.081 8.71307 132.974 9.12263 132.974 9.58665V16H130.403ZM145.286 11.4119V5.09091H147.857V16H145.364V14.0611H145.25C145.004 14.6719 144.599 15.1714 144.036 15.5597C143.477 15.9479 142.788 16.142 141.969 16.142C141.254 16.142 140.622 15.9834 140.073 15.6662C139.528 15.3442 139.102 14.8778 138.794 14.267C138.487 13.6515 138.333 12.9081 138.333 12.0369V5.09091H140.904V11.6392C140.904 12.3305 141.093 12.8797 141.472 13.2869C141.851 13.6941 142.348 13.8977 142.963 13.8977C143.342 13.8977 143.709 13.8054 144.064 13.6207C144.419 13.4361 144.711 13.1615 144.938 12.7969C145.17 12.4276 145.286 11.9659 145.286 11.4119ZM154.549 16.1918C153.692 16.1918 152.925 15.9716 152.248 15.5312C151.571 15.0909 151.036 14.4517 150.643 13.6136C150.25 12.7756 150.053 11.7576 150.053 10.5597C150.053 9.34754 150.252 8.32481 150.65 7.49148C151.052 6.65341 151.594 6.02131 152.276 5.59517C152.958 5.1643 153.718 4.94886 154.556 4.94886C155.195 4.94886 155.721 5.05777 156.133 5.27557C156.545 5.48864 156.871 5.74669 157.113 6.04972C157.354 6.34801 157.541 6.62973 157.674 6.89489H157.781V1.45455H160.359V16H157.83V14.2812H157.674C157.541 14.5464 157.35 14.8281 157.099 15.1264C156.848 15.42 156.516 15.6709 156.104 15.8793C155.692 16.0876 155.174 16.1918 154.549 16.1918ZM155.266 14.0824C155.811 14.0824 156.275 13.9356 156.658 13.642C157.042 13.3437 157.333 12.9295 157.532 12.3991C157.731 11.8688 157.83 11.2509 157.83 10.5455C157.83 9.83996 157.731 9.2268 157.532 8.70597C157.338 8.18513 157.049 7.7803 156.665 7.49148C156.287 7.20265 155.82 7.05824 155.266 7.05824C154.693 7.05824 154.215 7.20739 153.832 7.50568C153.448 7.80398 153.159 8.21591 152.965 8.74148C152.771 9.26705 152.674 9.86837 152.674 10.5455C152.674 11.2273 152.771 11.8357 152.965 12.3707C153.164 12.901 153.455 13.3201 153.839 13.6278C154.227 13.9309 154.703 14.0824 155.266 14.0824Z" fill="black"/>
</svg>
